G04 #@! TF.GenerationSoftware,KiCad,Pcbnew,(5.1.0)-1*
G04 #@! TF.CreationDate,2020-04-13T11:23:52+02:00*
G04 #@! TF.ProjectId,objet_chambre,6f626a65-745f-4636-9861-6d6272652e6b,rev?*
G04 #@! TF.SameCoordinates,PX9fa1b90PY2b1e160*
G04 #@! TF.FileFunction,Soldermask,Top*
G04 #@! TF.FilePolarity,Negative*
%FSLAX46Y46*%
G04 Gerber Fmt 4.6, Leading zero omitted, Abs format (unit mm)*
G04 Created by KiCad (PCBNEW (5.1.0)-1) date 2020-04-13 11:23:52*
%MOMM*%
%LPD*%
G04 APERTURE LIST*
%ADD10C,0.150000*%
%ADD11R,1.400000X2.900000*%
%ADD12R,2.200000X1.400000*%
%ADD13C,2.100000*%
%ADD14O,2.100000X2.100000*%
%ADD15R,2.100000X2.100000*%
%ADD16R,1.600000X1.150000*%
%ADD17C,6.800000*%
%ADD18R,1.300000X1.600000*%
%ADD19R,1.600000X1.300000*%
%ADD20C,2.400000*%
%ADD21R,2.400000X2.400000*%
%ADD22R,2.000000X2.400000*%
%ADD23C,2.000000*%
%ADD24R,2.000000X2.000000*%
%ADD25R,1.150000X1.600000*%
%ADD26C,2.000000*%
%ADD27C,0.100000*%
%ADD28O,1.400000X1.950000*%
%ADD29O,1.650000X1.350000*%
%ADD30R,0.800000X1.750000*%
%ADD31R,4.464000X4.464000*%
%ADD32R,1.700000X1.900000*%
%ADD33R,1.900000X1.700000*%
%ADD34C,1.900000*%
%ADD35C,1.840000*%
%ADD36R,2.400000X1.900000*%
%ADD37R,2.400000X4.200000*%
%ADD38R,1.960000X1.050000*%
%ADD39C,1.400000*%
G04 APERTURE END LIST*
D10*
X41661619Y-16240380D02*
X41756857Y-16240380D01*
X41852095Y-16288000D01*
X41899714Y-16335619D01*
X41947333Y-16430857D01*
X41994952Y-16621333D01*
X41994952Y-16859428D01*
X41947333Y-17049904D01*
X41899714Y-17145142D01*
X41852095Y-17192761D01*
X41756857Y-17240380D01*
X41661619Y-17240380D01*
X41566380Y-17192761D01*
X41518761Y-17145142D01*
X41471142Y-17049904D01*
X41423523Y-16859428D01*
X41423523Y-16621333D01*
X41471142Y-16430857D01*
X41518761Y-16335619D01*
X41566380Y-16288000D01*
X41661619Y-16240380D01*
X42852095Y-16573714D02*
X42852095Y-17240380D01*
X42614000Y-16192761D02*
X42375904Y-16907047D01*
X42994952Y-16907047D01*
X44090190Y-16192761D02*
X43233047Y-17478476D01*
X44375904Y-16335619D02*
X44423523Y-16288000D01*
X44518761Y-16240380D01*
X44756857Y-16240380D01*
X44852095Y-16288000D01*
X44899714Y-16335619D01*
X44947333Y-16430857D01*
X44947333Y-16526095D01*
X44899714Y-16668952D01*
X44328285Y-17240380D01*
X44947333Y-17240380D01*
X45566380Y-16240380D02*
X45661619Y-16240380D01*
X45756857Y-16288000D01*
X45804476Y-16335619D01*
X45852095Y-16430857D01*
X45899714Y-16621333D01*
X45899714Y-16859428D01*
X45852095Y-17049904D01*
X45804476Y-17145142D01*
X45756857Y-17192761D01*
X45661619Y-17240380D01*
X45566380Y-17240380D01*
X45471142Y-17192761D01*
X45423523Y-17145142D01*
X45375904Y-17049904D01*
X45328285Y-16859428D01*
X45328285Y-16621333D01*
X45375904Y-16430857D01*
X45423523Y-16335619D01*
X45471142Y-16288000D01*
X45566380Y-16240380D01*
X46280666Y-16335619D02*
X46328285Y-16288000D01*
X46423523Y-16240380D01*
X46661619Y-16240380D01*
X46756857Y-16288000D01*
X46804476Y-16335619D01*
X46852095Y-16430857D01*
X46852095Y-16526095D01*
X46804476Y-16668952D01*
X46233047Y-17240380D01*
X46852095Y-17240380D01*
X47471142Y-16240380D02*
X47566380Y-16240380D01*
X47661619Y-16288000D01*
X47709238Y-16335619D01*
X47756857Y-16430857D01*
X47804476Y-16621333D01*
X47804476Y-16859428D01*
X47756857Y-17049904D01*
X47709238Y-17145142D01*
X47661619Y-17192761D01*
X47566380Y-17240380D01*
X47471142Y-17240380D01*
X47375904Y-17192761D01*
X47328285Y-17145142D01*
X47280666Y-17049904D01*
X47233047Y-16859428D01*
X47233047Y-16621333D01*
X47280666Y-16430857D01*
X47328285Y-16335619D01*
X47375904Y-16288000D01*
X47471142Y-16240380D01*
X42109252Y-19240380D02*
X42234252Y-18240380D01*
X42728300Y-19240380D02*
X42639014Y-19192761D01*
X42597348Y-19145142D01*
X42561633Y-19049904D01*
X42597348Y-18764190D01*
X42656872Y-18668952D01*
X42710443Y-18621333D01*
X42811633Y-18573714D01*
X42954491Y-18573714D01*
X43043776Y-18621333D01*
X43085443Y-18668952D01*
X43121157Y-18764190D01*
X43085443Y-19049904D01*
X43025919Y-19145142D01*
X42972348Y-19192761D01*
X42871157Y-19240380D01*
X42728300Y-19240380D01*
X43472348Y-18240380D02*
X44043776Y-18240380D01*
X43633062Y-19240380D02*
X43758062Y-18240380D01*
X44299729Y-18859428D02*
X45061633Y-18859428D01*
X45924729Y-19192761D02*
X45823538Y-19240380D01*
X45633062Y-19240380D01*
X45543776Y-19192761D01*
X45502110Y-19145142D01*
X45466395Y-19049904D01*
X45502110Y-18764190D01*
X45561633Y-18668952D01*
X45615205Y-18621333D01*
X45716395Y-18573714D01*
X45906872Y-18573714D01*
X45996157Y-18621333D01*
X46347348Y-19240380D02*
X46472348Y-18240380D01*
X46775919Y-19240380D02*
X46841395Y-18716571D01*
X46805681Y-18621333D01*
X46716395Y-18573714D01*
X46573538Y-18573714D01*
X46472348Y-18621333D01*
X46418776Y-18668952D01*
X47680681Y-19240380D02*
X47746157Y-18716571D01*
X47710443Y-18621333D01*
X47621157Y-18573714D01*
X47430681Y-18573714D01*
X47329491Y-18621333D01*
X47686633Y-19192761D02*
X47585443Y-19240380D01*
X47347348Y-19240380D01*
X47258062Y-19192761D01*
X47222348Y-19097523D01*
X47234252Y-19002285D01*
X47293776Y-18907047D01*
X47394967Y-18859428D01*
X47633062Y-18859428D01*
X47734252Y-18811809D01*
X48156872Y-19240380D02*
X48240205Y-18573714D01*
X48228300Y-18668952D02*
X48281872Y-18621333D01*
X48383062Y-18573714D01*
X48525919Y-18573714D01*
X48615205Y-18621333D01*
X48650919Y-18716571D01*
X48585443Y-19240380D01*
X48650919Y-18716571D02*
X48710443Y-18621333D01*
X48811633Y-18573714D01*
X48954491Y-18573714D01*
X49043776Y-18621333D01*
X49079491Y-18716571D01*
X49014014Y-19240380D01*
X49490205Y-19240380D02*
X49615205Y-18240380D01*
X49567586Y-18621333D02*
X49668776Y-18573714D01*
X49859252Y-18573714D01*
X49948538Y-18621333D01*
X49990205Y-18668952D01*
X50025919Y-18764190D01*
X49990205Y-19049904D01*
X49930681Y-19145142D01*
X49877110Y-19192761D01*
X49775919Y-19240380D01*
X49585443Y-19240380D01*
X49496157Y-19192761D01*
X50394967Y-19240380D02*
X50478300Y-18573714D01*
X50454491Y-18764190D02*
X50514014Y-18668952D01*
X50567586Y-18621333D01*
X50668776Y-18573714D01*
X50764014Y-18573714D01*
X51400919Y-19192761D02*
X51299729Y-19240380D01*
X51109252Y-19240380D01*
X51019967Y-19192761D01*
X50984252Y-19097523D01*
X51031872Y-18716571D01*
X51091395Y-18621333D01*
X51192586Y-18573714D01*
X51383062Y-18573714D01*
X51472348Y-18621333D01*
X51508062Y-18716571D01*
X51496157Y-18811809D01*
X51008062Y-18907047D01*
X52621157Y-18573714D02*
X52775919Y-19240380D01*
X53097348Y-18573714D01*
X53460443Y-18335619D02*
X53514014Y-18288000D01*
X53615205Y-18240380D01*
X53853300Y-18240380D01*
X53942586Y-18288000D01*
X53984252Y-18335619D01*
X54019967Y-18430857D01*
X54008062Y-18526095D01*
X53942586Y-18668952D01*
X53299729Y-19240380D01*
X53918776Y-19240380D01*
X54359252Y-19145142D02*
X54400919Y-19192761D01*
X54347348Y-19240380D01*
X54305681Y-19192761D01*
X54359252Y-19145142D01*
X54347348Y-19240380D01*
X55139014Y-18240380D02*
X55234252Y-18240380D01*
X55323538Y-18288000D01*
X55365205Y-18335619D01*
X55400919Y-18430857D01*
X55424729Y-18621333D01*
X55394967Y-18859428D01*
X55323538Y-19049904D01*
X55264014Y-19145142D01*
X55210443Y-19192761D01*
X55109252Y-19240380D01*
X55014014Y-19240380D01*
X54924729Y-19192761D01*
X54883062Y-19145142D01*
X54847348Y-19049904D01*
X54823538Y-18859428D01*
X54853300Y-18621333D01*
X54924729Y-18430857D01*
X54984252Y-18335619D01*
X55037824Y-18288000D01*
X55139014Y-18240380D01*
X56537824Y-19240380D02*
X56662824Y-18240380D01*
X56615205Y-18621333D02*
X56716395Y-18573714D01*
X56906872Y-18573714D01*
X56996157Y-18621333D01*
X57037824Y-18668952D01*
X57073538Y-18764190D01*
X57037824Y-19049904D01*
X56978300Y-19145142D01*
X56924729Y-19192761D01*
X56823538Y-19240380D01*
X56633062Y-19240380D01*
X56543776Y-19192761D01*
X57430681Y-18573714D02*
X57585443Y-19240380D01*
X57906872Y-18573714D02*
X57585443Y-19240380D01*
X57460443Y-19478476D01*
X57406872Y-19526095D01*
X57305681Y-19573714D01*
X58966395Y-19240380D02*
X59091395Y-18240380D01*
X59472348Y-18240380D01*
X59561633Y-18288000D01*
X59603300Y-18335619D01*
X59639014Y-18430857D01*
X59621157Y-18573714D01*
X59561633Y-18668952D01*
X59508062Y-18716571D01*
X59406872Y-18764190D01*
X59025919Y-18764190D01*
X60394967Y-19240380D02*
X60460443Y-18716571D01*
X60424729Y-18621333D01*
X60335443Y-18573714D01*
X60144967Y-18573714D01*
X60043776Y-18621333D01*
X60400919Y-19192761D02*
X60299729Y-19240380D01*
X60061633Y-19240380D01*
X59972348Y-19192761D01*
X59936633Y-19097523D01*
X59948538Y-19002285D01*
X60008062Y-18907047D01*
X60109252Y-18859428D01*
X60347348Y-18859428D01*
X60448538Y-18811809D01*
X61383062Y-18573714D02*
X61299729Y-19240380D01*
X60954491Y-18573714D02*
X60889014Y-19097523D01*
X60924729Y-19192761D01*
X61014014Y-19240380D01*
X61156872Y-19240380D01*
X61258062Y-19192761D01*
X61311633Y-19145142D01*
X61918776Y-19240380D02*
X61829491Y-19192761D01*
X61793776Y-19097523D01*
X61900919Y-18240380D01*
X63460443Y-18716571D02*
X63597348Y-18764190D01*
X63639014Y-18811809D01*
X63674729Y-18907047D01*
X63656872Y-19049904D01*
X63597348Y-19145142D01*
X63543776Y-19192761D01*
X63442586Y-19240380D01*
X63061633Y-19240380D01*
X63186633Y-18240380D01*
X63519967Y-18240380D01*
X63609252Y-18288000D01*
X63650919Y-18335619D01*
X63686633Y-18430857D01*
X63674729Y-18526095D01*
X63615205Y-18621333D01*
X63561633Y-18668952D01*
X63460443Y-18716571D01*
X63127110Y-18716571D01*
X64490205Y-19240380D02*
X64555681Y-18716571D01*
X64519967Y-18621333D01*
X64430681Y-18573714D01*
X64240205Y-18573714D01*
X64139014Y-18621333D01*
X64496157Y-19192761D02*
X64394967Y-19240380D01*
X64156872Y-19240380D01*
X64067586Y-19192761D01*
X64031872Y-19097523D01*
X64043776Y-19002285D01*
X64103300Y-18907047D01*
X64204491Y-18859428D01*
X64442586Y-18859428D01*
X64543776Y-18811809D01*
X64966395Y-19240380D02*
X65049729Y-18573714D01*
X65025919Y-18764190D02*
X65085443Y-18668952D01*
X65139014Y-18621333D01*
X65240205Y-18573714D01*
X65335443Y-18573714D01*
X65728300Y-19240380D02*
X65639014Y-19192761D01*
X65597348Y-19145142D01*
X65561633Y-19049904D01*
X65597348Y-18764190D01*
X65656872Y-18668952D01*
X65710443Y-18621333D01*
X65811633Y-18573714D01*
X65954491Y-18573714D01*
X66043776Y-18621333D01*
X66085443Y-18668952D01*
X66121157Y-18764190D01*
X66085443Y-19049904D01*
X66025919Y-19145142D01*
X65972348Y-19192761D01*
X65871157Y-19240380D01*
X65728300Y-19240380D01*
X66573538Y-18573714D02*
X66490205Y-19240380D01*
X66561633Y-18668952D02*
X66615205Y-18621333D01*
X66716395Y-18573714D01*
X66859252Y-18573714D01*
X66948538Y-18621333D01*
X66984252Y-18716571D01*
X66918776Y-19240380D01*
D11*
X-3500000Y-7600000D03*
X-1500000Y-7600000D03*
X500000Y-7600000D03*
X2500000Y-7600000D03*
X4500000Y-7600000D03*
X6500000Y-7600000D03*
X8500000Y-7600000D03*
X10500000Y-7600000D03*
D12*
X12000000Y-5000000D03*
X12000000Y-3000000D03*
X12000000Y-1000000D03*
X12000000Y1000000D03*
X12000000Y3000000D03*
X12000000Y5000000D03*
D11*
X10500000Y7600000D03*
X8500000Y7600000D03*
X6500000Y7600000D03*
X4500000Y7600000D03*
X2500000Y7600000D03*
X500000Y7600000D03*
X-1500000Y7600000D03*
X-3500000Y7600000D03*
D13*
X28804000Y9212000D03*
D14*
X31344000Y9212000D03*
X33884000Y9212000D03*
D13*
X36424000Y9212000D03*
D15*
X26670000Y-8128000D03*
D14*
X29210000Y-8128000D03*
X31750000Y-8128000D03*
X34290000Y-8128000D03*
X36830000Y-8128000D03*
X39370000Y-8128000D03*
D16*
X19571000Y13187000D03*
X21471000Y13187000D03*
X21471000Y15219000D03*
X19571000Y15219000D03*
D17*
X73614000Y-15788000D03*
X73614000Y16212000D03*
X-8386000Y-15788000D03*
X-8386000Y16212000D03*
D18*
X2520000Y-12506000D03*
X2520000Y-10306000D03*
X8489000Y12554000D03*
X8489000Y10354000D03*
X4425000Y-12506000D03*
X4425000Y-10306000D03*
X8489000Y-12506000D03*
X8489000Y-10306000D03*
X6457000Y-12506000D03*
X6457000Y-10306000D03*
X488000Y12554000D03*
X488000Y10354000D03*
X2520000Y12554000D03*
X2520000Y10354000D03*
X-1544000Y12554000D03*
X-1544000Y10354000D03*
X6457000Y12554000D03*
X6457000Y10354000D03*
X-3576000Y12554000D03*
X-3576000Y10354000D03*
X4425000Y12554000D03*
X4425000Y10354000D03*
X-1544000Y-10306000D03*
X-1544000Y-12506000D03*
X488000Y-10306000D03*
X488000Y-12506000D03*
X-3576000Y-10306000D03*
X-3576000Y-12506000D03*
D19*
X50272000Y1556800D03*
X52472000Y1556800D03*
X50356000Y-983200D03*
X52556000Y-983200D03*
X65614000Y-6604000D03*
X67814000Y-6604000D03*
X65514000Y-9144000D03*
X67714000Y-9144000D03*
X50014000Y-12984000D03*
X52214000Y-12984000D03*
X50014000Y-15524000D03*
X52214000Y-15524000D03*
D20*
X70278000Y6604000D03*
D21*
X65278000Y6604000D03*
D22*
X45720000Y16704000D03*
X45720000Y12704000D03*
D23*
X63782000Y15934000D03*
D24*
X63782000Y13434000D03*
D25*
X60114000Y-12766000D03*
X60114000Y-14666000D03*
X75184000Y-6218000D03*
X75184000Y-4318000D03*
X60600000Y-442000D03*
X60600000Y1458000D03*
D23*
X75433114Y10922000D03*
D26*
X75433114Y10922000D02*
X75433114Y10922000D01*
D23*
X68834000Y14732000D03*
D27*
G36*
X67467975Y14365975D02*
G01*
X68467975Y16098025D01*
X70200025Y15098025D01*
X69200025Y13365975D01*
X67467975Y14365975D01*
X67467975Y14365975D01*
G37*
D20*
X37801504Y12789030D03*
X48514000Y8890000D03*
D28*
X29090000Y18975000D03*
X36090000Y18975000D03*
D29*
X30090000Y16275000D03*
X35090000Y16275000D03*
D30*
X31290000Y16275000D03*
X31940000Y16275000D03*
X32590000Y16275000D03*
X33240000Y16275000D03*
X33890000Y16275000D03*
D31*
X57614000Y-7112000D03*
X69342000Y212000D03*
X57614000Y7112000D03*
D14*
X-10668000Y-11684000D03*
D15*
X-10668000Y-9144000D03*
D14*
X51562000Y5080000D03*
X49022000Y5080000D03*
D15*
X46482000Y5080000D03*
D32*
X-1270000Y14826000D03*
X-1270000Y17526000D03*
X-3556000Y14826000D03*
X-3556000Y17526000D03*
D33*
X18716000Y-17780000D03*
X21416000Y-17780000D03*
X14812000Y-17780000D03*
X12112000Y-17780000D03*
D32*
X254000Y-14652000D03*
X254000Y-17352000D03*
D33*
X11510000Y14986000D03*
X8810000Y14986000D03*
D32*
X6350000Y17606000D03*
X6350000Y14906000D03*
X-3556000Y-17272000D03*
X-3556000Y-14572000D03*
X4064000Y14906000D03*
X4064000Y17606000D03*
D34*
X34290000Y-17780000D03*
X30890000Y-17780000D03*
D32*
X4826000Y-14732000D03*
X4826000Y-17432000D03*
X2540000Y-17432000D03*
X2540000Y-14732000D03*
D35*
X16510000Y-10160000D03*
X13970000Y-10160000D03*
X11430000Y-10160000D03*
D36*
X50726000Y17004000D03*
X50726000Y12404000D03*
X50726000Y14704000D03*
D37*
X57026000Y14704000D03*
D38*
X57464000Y-15238000D03*
X57464000Y-14288000D03*
X57464000Y-13338000D03*
X54764000Y-13338000D03*
X54764000Y-15238000D03*
X54764000Y-14288000D03*
X70264000Y-7788000D03*
X70264000Y-8738000D03*
X70264000Y-6838000D03*
X72964000Y-6838000D03*
X72964000Y-7788000D03*
X72964000Y-8738000D03*
X55186000Y318800D03*
X55186000Y-631200D03*
X55186000Y1268800D03*
X57886000Y1268800D03*
X57886000Y318800D03*
X57886000Y-631200D03*
D15*
X75946000Y6604000D03*
D14*
X75946000Y4064000D03*
X75946000Y1524000D03*
X75946000Y-1016000D03*
D34*
X17702000Y2495000D03*
X17702000Y-2385000D03*
D39*
X24130000Y3556000D03*
X26030000Y3556000D03*
M02*
