M48
; DRILL file {KiCad (5.1.0)-1} date 13/04/2020 11:24:04
; FORMAT={-:-/ absolute / inch / decimal}
; #@! TF.CreationDate,2020-04-13T11:24:04+02:00
; #@! TF.GenerationSoftware,Kicad,Pcbnew,(5.1.0)-1
FMAT,2
INCH
T1C0.0157
T2C0.0197
T3C0.0217
T4C0.0315
T5C0.0394
T6C0.1260
%
G90
G05
T1
X-0.195Y-0.4
X-0.14Y0.75
X-0.06Y-0.58
X0.01Y0.71
X0.01Y0.71
X0.0156Y0.4906
X0.07Y0.2
X0.0992Y0.4943
X0.0992Y-0.4924
X0.1Y0.58
X0.17Y0.2
X0.1742Y-0.4924
X0.21Y0.06
X0.2604Y-0.5822
X0.27Y-0.08
X0.31Y0.06
X0.35Y-0.55
X0.36Y-0.7
X0.365Y0.155
X0.48Y0.43
X0.5108Y-0.2992
X0.57Y-0.24
X0.6Y0.3
X0.64Y0.56
X0.66Y-0.66
X0.69Y-0.2
X0.69Y-0.24
X0.8Y0.665
X0.8313Y0.3547
X0.85Y0.665
X0.99Y-0.12
X1.2Y0.56
X1.2Y0.52
X1.41Y-0.06
X1.49Y-0.14
X1.57Y0.16
X1.6766Y0.6
X1.81Y-0.24
X1.87Y0.0
X1.87Y-0.38
X1.87Y-0.56
X1.89Y0.58
X2.0658Y0.0113
X2.07Y-0.5612
X2.32Y-0.64
X2.3213Y-0.5625
X2.3397Y0.0151
X2.34Y-0.04
X2.49Y-0.26
X2.67Y-0.31
X2.79Y0.36
X2.81Y-0.2
X2.87Y-0.4
X2.9354Y-0.3046
T2
X0.95Y0.14
X1.0248Y0.14
T4
X1.2161Y-0.7
X1.35Y-0.7
X2.71Y0.58
X2.9698Y0.43
X0.45Y-0.4
X0.55Y-0.4
X0.65Y-0.4
X2.5111Y0.6273
X2.5111Y0.5289
X0.6969Y0.0982
X0.6969Y-0.0939
T5
X2.57Y0.26
X2.7669Y0.26
X1.134Y0.3627
X1.234Y0.3627
X1.334Y0.3627
X1.434Y0.3627
X1.83Y0.2
X1.93Y0.2
X2.03Y0.2
X1.4882Y0.5035
X1.91Y0.35
X2.99Y0.26
X2.99Y0.16
X2.99Y0.06
X2.99Y-0.04
X-0.42Y-0.36
X-0.42Y-0.46
X1.05Y-0.32
X1.15Y-0.32
X1.25Y-0.32
X1.35Y-0.32
X1.45Y-0.32
X1.55Y-0.32
T6
X2.8982Y0.6383
X-0.3302Y0.6383
X2.8982Y-0.6216
X-0.3302Y-0.6216
T2
G00X1.1453Y0.7598
M15
G01X1.1453Y0.7343
M16
G05
G00X1.4209Y0.7598
M15
G01X1.4209Y0.7343
M16
G05
T3
G00X1.1906Y0.6407
M15
G01X1.1787Y0.6407
M16
G05
G00X1.3874Y0.6407
M15
G01X1.3756Y0.6407
M16
G05
T0
M30
