G04 #@! TF.GenerationSoftware,KiCad,Pcbnew,(5.1.0)-1*
G04 #@! TF.CreationDate,2020-04-13T11:23:52+02:00*
G04 #@! TF.ProjectId,objet_chambre,6f626a65-745f-4636-9861-6d6272652e6b,rev?*
G04 #@! TF.SameCoordinates,PX9fa1b90PY2b1e160*
G04 #@! TF.FileFunction,Legend,Top*
G04 #@! TF.FilePolarity,Positive*
%FSLAX46Y46*%
G04 Gerber Fmt 4.6, Leading zero omitted, Abs format (unit mm)*
G04 Created by KiCad (PCBNEW (5.1.0)-1) date 2020-04-13 11:23:52*
%MOMM*%
%LPD*%
G04 APERTURE LIST*
%ADD10C,0.120000*%
%ADD11C,0.150000*%
G04 APERTURE END LIST*
D10*
X-12120000Y-8120000D02*
X-12120000Y8120000D01*
X-12120000Y8120000D02*
X-4500000Y8120000D01*
X11500000Y8120000D02*
X12120000Y8120000D01*
X12120000Y8120000D02*
X12120000Y6000000D01*
X12120000Y-6000000D02*
X12120000Y-8120000D01*
X12120000Y-8120000D02*
X11500000Y-8120000D01*
X-4500000Y-8120000D02*
X-12120000Y-8120000D01*
X-4500000Y-8120000D02*
X-4500000Y-8730000D01*
X37754000Y10542000D02*
X37754000Y9212000D01*
X36424000Y10542000D02*
X37754000Y10542000D01*
X35154000Y10542000D02*
X35154000Y7882000D01*
X35154000Y7882000D02*
X27474000Y7882000D01*
X35154000Y10542000D02*
X27474000Y10542000D01*
X27474000Y10542000D02*
X27474000Y7882000D01*
D11*
X46614000Y10712000D02*
X18614000Y10712000D01*
X18614000Y10712000D02*
X18614000Y-15788000D01*
X18614000Y-15788000D02*
X46614000Y-15788000D01*
X46614000Y-15788000D02*
X46614000Y10712000D01*
X44614000Y7212000D02*
X20614000Y7212000D01*
X20614000Y7212000D02*
X20614000Y-5788000D01*
X20614000Y-5788000D02*
X44614000Y-5788000D01*
X44614000Y-5788000D02*
X44614000Y7212000D01*
D10*
X20171000Y13787000D02*
X20871000Y13787000D01*
X20871000Y12587000D02*
X20171000Y12587000D01*
X20871000Y14619000D02*
X20171000Y14619000D01*
X20171000Y15819000D02*
X20871000Y15819000D01*
X3200000Y-10906000D02*
X3200000Y-11906000D01*
X1840000Y-11906000D02*
X1840000Y-10906000D01*
X7809000Y10954000D02*
X7809000Y11954000D01*
X9169000Y11954000D02*
X9169000Y10954000D01*
X5105000Y-10906000D02*
X5105000Y-11906000D01*
X3745000Y-11906000D02*
X3745000Y-10906000D01*
X9169000Y-10906000D02*
X9169000Y-11906000D01*
X7809000Y-11906000D02*
X7809000Y-10906000D01*
X7137000Y-10906000D02*
X7137000Y-11906000D01*
X5777000Y-11906000D02*
X5777000Y-10906000D01*
X-192000Y10954000D02*
X-192000Y11954000D01*
X1168000Y11954000D02*
X1168000Y10954000D01*
X1840000Y10954000D02*
X1840000Y11954000D01*
X3200000Y11954000D02*
X3200000Y10954000D01*
X-2224000Y10954000D02*
X-2224000Y11954000D01*
X-864000Y11954000D02*
X-864000Y10954000D01*
X5777000Y10954000D02*
X5777000Y11954000D01*
X7137000Y11954000D02*
X7137000Y10954000D01*
X-4256000Y10954000D02*
X-4256000Y11954000D01*
X-2896000Y11954000D02*
X-2896000Y10954000D01*
X3745000Y10954000D02*
X3745000Y11954000D01*
X5105000Y11954000D02*
X5105000Y10954000D01*
X-2224000Y-11906000D02*
X-2224000Y-10906000D01*
X-864000Y-10906000D02*
X-864000Y-11906000D01*
X-192000Y-11906000D02*
X-192000Y-10906000D01*
X1168000Y-10906000D02*
X1168000Y-11906000D01*
X-4256000Y-11906000D02*
X-4256000Y-10906000D01*
X-2896000Y-10906000D02*
X-2896000Y-11906000D01*
X51872000Y876800D02*
X50872000Y876800D01*
X50872000Y2236800D02*
X51872000Y2236800D01*
X51956000Y-1663200D02*
X50956000Y-1663200D01*
X50956000Y-303200D02*
X51956000Y-303200D01*
X67214000Y-7284000D02*
X66214000Y-7284000D01*
X66214000Y-5924000D02*
X67214000Y-5924000D01*
X67114000Y-9824000D02*
X66114000Y-9824000D01*
X66114000Y-8464000D02*
X67114000Y-8464000D01*
X51614000Y-13664000D02*
X50614000Y-13664000D01*
X50614000Y-12304000D02*
X51614000Y-12304000D01*
X51614000Y-16204000D02*
X50614000Y-16204000D01*
X50614000Y-14844000D02*
X51614000Y-14844000D01*
X46740000Y13704000D02*
X46740000Y15704000D01*
X44700000Y15704000D02*
X44700000Y13704000D01*
X60714000Y-13366000D02*
X60714000Y-14066000D01*
X59514000Y-14066000D02*
X59514000Y-13366000D01*
X74584000Y-5618000D02*
X74584000Y-4918000D01*
X75784000Y-4918000D02*
X75784000Y-5618000D01*
X60000000Y158000D02*
X60000000Y858000D01*
X61200000Y858000D02*
X61200000Y158000D01*
X36940000Y21655000D02*
X36940000Y15245000D01*
X28240000Y20425000D02*
X36940000Y20425000D01*
X28240000Y15245000D02*
X28240000Y21655000D01*
X36940000Y15245000D02*
X28240000Y15245000D01*
X36940000Y21655000D02*
X28240000Y21655000D01*
D11*
X55114640Y-9611360D02*
X55114640Y-4612640D01*
X60113360Y-9611360D02*
X55114640Y-9611360D01*
X60113360Y-4612640D02*
X60113360Y-9611360D01*
X55114640Y-4612640D02*
X60113360Y-4612640D01*
X66842640Y2711360D02*
X71841360Y2711360D01*
X71841360Y2711360D02*
X71841360Y-2287360D01*
X71841360Y-2287360D02*
X66842640Y-2287360D01*
X66842640Y-2287360D02*
X66842640Y2711360D01*
X55114640Y4612640D02*
X55114640Y9611360D01*
X60113360Y4612640D02*
X55114640Y4612640D01*
X60113360Y9611360D02*
X60113360Y4612640D01*
X55114640Y9611360D02*
X60113360Y9611360D01*
D10*
X-390000Y16776000D02*
X-390000Y15576000D01*
X-2150000Y15576000D02*
X-2150000Y16776000D01*
X-2676000Y16776000D02*
X-2676000Y15576000D01*
X-4436000Y15576000D02*
X-4436000Y16776000D01*
X20666000Y-18660000D02*
X19466000Y-18660000D01*
X19466000Y-16900000D02*
X20666000Y-16900000D01*
X12862000Y-16900000D02*
X14062000Y-16900000D01*
X14062000Y-18660000D02*
X12862000Y-18660000D01*
X-626000Y-16602000D02*
X-626000Y-15402000D01*
X1134000Y-15402000D02*
X1134000Y-16602000D01*
X9560000Y15866000D02*
X10760000Y15866000D01*
X10760000Y14106000D02*
X9560000Y14106000D01*
X5470000Y15656000D02*
X5470000Y16856000D01*
X7230000Y16856000D02*
X7230000Y15656000D01*
X-2676000Y-15322000D02*
X-2676000Y-16522000D01*
X-4436000Y-16522000D02*
X-4436000Y-15322000D01*
X4944000Y16856000D02*
X4944000Y15656000D01*
X3184000Y15656000D02*
X3184000Y16856000D01*
X34134513Y-19898249D02*
G75*
G03X34090000Y-15630000I-1544513J2118249D01*
G01*
X31061766Y-15614474D02*
G75*
G03X31040000Y-19930000I1528234J-2165526D01*
G01*
X31040000Y-15630000D02*
X34090000Y-15630000D01*
X31040000Y-19930000D02*
X34090000Y-19930000D01*
X3946000Y-16682000D02*
X3946000Y-15482000D01*
X5706000Y-15482000D02*
X5706000Y-16682000D01*
X3420000Y-15482000D02*
X3420000Y-16682000D01*
X1660000Y-16682000D02*
X1660000Y-15482000D01*
X49776000Y18114000D02*
X55786000Y18114000D01*
X52026000Y11294000D02*
X55786000Y11294000D01*
X55786000Y18114000D02*
X55786000Y16854000D01*
X55786000Y11294000D02*
X55786000Y12554000D01*
X57014000Y-12678000D02*
X55214000Y-12678000D01*
X55214000Y-15898000D02*
X58164000Y-15898000D01*
X70714000Y-9398000D02*
X73664000Y-9398000D01*
X72514000Y-6178000D02*
X70714000Y-6178000D01*
X55636000Y-1291200D02*
X58586000Y-1291200D01*
X57436000Y1928800D02*
X55636000Y1928800D01*
D11*
X13676380Y-8508904D02*
X14485904Y-8508904D01*
X14581142Y-8461285D01*
X14628761Y-8413666D01*
X14676380Y-8318428D01*
X14676380Y-8127952D01*
X14628761Y-8032714D01*
X14581142Y-7985095D01*
X14485904Y-7937476D01*
X13676380Y-7937476D01*
X13676380Y-7556523D02*
X13676380Y-6937476D01*
X14057333Y-7270809D01*
X14057333Y-7127952D01*
X14104952Y-7032714D01*
X14152571Y-6985095D01*
X14247809Y-6937476D01*
X14485904Y-6937476D01*
X14581142Y-6985095D01*
X14628761Y-7032714D01*
X14676380Y-7127952D01*
X14676380Y-7413666D01*
X14628761Y-7508904D01*
X14581142Y-7556523D01*
X20852095Y11759620D02*
X20852095Y10950096D01*
X20899714Y10854858D01*
X20947333Y10807239D01*
X21042571Y10759620D01*
X21233047Y10759620D01*
X21328285Y10807239D01*
X21375904Y10854858D01*
X21423523Y10950096D01*
X21423523Y11759620D01*
X22042571Y11331048D02*
X21947333Y11378667D01*
X21899714Y11426286D01*
X21852095Y11521524D01*
X21852095Y11569143D01*
X21899714Y11664381D01*
X21947333Y11712000D01*
X22042571Y11759620D01*
X22233047Y11759620D01*
X22328285Y11712000D01*
X22375904Y11664381D01*
X22423523Y11569143D01*
X22423523Y11521524D01*
X22375904Y11426286D01*
X22328285Y11378667D01*
X22233047Y11331048D01*
X22042571Y11331048D01*
X21947333Y11283429D01*
X21899714Y11235810D01*
X21852095Y11140572D01*
X21852095Y10950096D01*
X21899714Y10854858D01*
X21947333Y10807239D01*
X22042571Y10759620D01*
X22233047Y10759620D01*
X22328285Y10807239D01*
X22375904Y10854858D01*
X22423523Y10950096D01*
X22423523Y11140572D01*
X22375904Y11235810D01*
X22328285Y11283429D01*
X22233047Y11331048D01*
X28304000Y4450096D02*
X28256380Y4354858D01*
X28256380Y4212000D01*
X28304000Y4069143D01*
X28399238Y3973905D01*
X28494476Y3926286D01*
X28684952Y3878667D01*
X28827809Y3878667D01*
X29018285Y3926286D01*
X29113523Y3973905D01*
X29208761Y4069143D01*
X29256380Y4212000D01*
X29256380Y4307239D01*
X29208761Y4450096D01*
X29161142Y4497715D01*
X28827809Y4497715D01*
X28827809Y4307239D01*
X29256380Y4926286D02*
X28256380Y4926286D01*
X29256380Y5497715D01*
X28256380Y5497715D01*
X29256380Y5973905D02*
X28256380Y5973905D01*
X28256380Y6212000D01*
X28304000Y6354858D01*
X28399238Y6450096D01*
X28494476Y6497715D01*
X28684952Y6545334D01*
X28827809Y6545334D01*
X29018285Y6497715D01*
X29113523Y6450096D01*
X29208761Y6354858D01*
X29256380Y6212000D01*
X29256380Y5973905D01*
X30796380Y3878667D02*
X31796380Y4212000D01*
X30796380Y4545334D01*
X31796380Y4878667D02*
X30796380Y4878667D01*
X30796380Y5116762D01*
X30844000Y5259620D01*
X30939238Y5354858D01*
X31034476Y5402477D01*
X31224952Y5450096D01*
X31367809Y5450096D01*
X31558285Y5402477D01*
X31653523Y5354858D01*
X31748761Y5259620D01*
X31796380Y5116762D01*
X31796380Y4878667D01*
X31796380Y5878667D02*
X30796380Y5878667D01*
X30796380Y6116762D01*
X30844000Y6259620D01*
X30939238Y6354858D01*
X31034476Y6402477D01*
X31224952Y6450096D01*
X31367809Y6450096D01*
X31558285Y6402477D01*
X31653523Y6354858D01*
X31748761Y6259620D01*
X31796380Y6116762D01*
X31796380Y5878667D01*
X36828761Y4187715D02*
X36876380Y4330572D01*
X36876380Y4568667D01*
X36828761Y4663905D01*
X36781142Y4711524D01*
X36685904Y4759143D01*
X36590666Y4759143D01*
X36495428Y4711524D01*
X36447809Y4663905D01*
X36400190Y4568667D01*
X36352571Y4378191D01*
X36304952Y4282953D01*
X36257333Y4235334D01*
X36162095Y4187715D01*
X36066857Y4187715D01*
X35971619Y4235334D01*
X35924000Y4282953D01*
X35876380Y4378191D01*
X35876380Y4616286D01*
X35924000Y4759143D01*
X36876380Y5187715D02*
X35876380Y5187715D01*
X35876380Y5425810D01*
X35924000Y5568667D01*
X36019238Y5663905D01*
X36114476Y5711524D01*
X36304952Y5759143D01*
X36447809Y5759143D01*
X36638285Y5711524D01*
X36733523Y5663905D01*
X36828761Y5568667D01*
X36876380Y5425810D01*
X36876380Y5187715D01*
X36590666Y6140096D02*
X36590666Y6616286D01*
X36876380Y6044858D02*
X35876380Y6378191D01*
X36876380Y6711524D01*
X34288761Y4116286D02*
X34336380Y4259143D01*
X34336380Y4497239D01*
X34288761Y4592477D01*
X34241142Y4640096D01*
X34145904Y4687715D01*
X34050666Y4687715D01*
X33955428Y4640096D01*
X33907809Y4592477D01*
X33860190Y4497239D01*
X33812571Y4306762D01*
X33764952Y4211524D01*
X33717333Y4163905D01*
X33622095Y4116286D01*
X33526857Y4116286D01*
X33431619Y4163905D01*
X33384000Y4211524D01*
X33336380Y4306762D01*
X33336380Y4544858D01*
X33384000Y4687715D01*
X34241142Y5687715D02*
X34288761Y5640096D01*
X34336380Y5497239D01*
X34336380Y5402000D01*
X34288761Y5259143D01*
X34193523Y5163905D01*
X34098285Y5116286D01*
X33907809Y5068667D01*
X33764952Y5068667D01*
X33574476Y5116286D01*
X33479238Y5163905D01*
X33384000Y5259143D01*
X33336380Y5402000D01*
X33336380Y5497239D01*
X33384000Y5640096D01*
X33431619Y5687715D01*
X34336380Y6116286D02*
X33336380Y6116286D01*
X34336380Y6687715D02*
X33764952Y6259143D01*
X33336380Y6687715D02*
X33907809Y6116286D01*
X23201333Y12850858D02*
X23153714Y12803239D01*
X23010857Y12755620D01*
X22915619Y12755620D01*
X22772761Y12803239D01*
X22677523Y12898477D01*
X22629904Y12993715D01*
X22582285Y13184191D01*
X22582285Y13327048D01*
X22629904Y13517524D01*
X22677523Y13612762D01*
X22772761Y13708000D01*
X22915619Y13755620D01*
X23010857Y13755620D01*
X23153714Y13708000D01*
X23201333Y13660381D01*
X24106095Y13755620D02*
X23629904Y13755620D01*
X23582285Y13279429D01*
X23629904Y13327048D01*
X23725142Y13374667D01*
X23963238Y13374667D01*
X24058476Y13327048D01*
X24106095Y13279429D01*
X24153714Y13184191D01*
X24153714Y12946096D01*
X24106095Y12850858D01*
X24058476Y12803239D01*
X23963238Y12755620D01*
X23725142Y12755620D01*
X23629904Y12803239D01*
X23582285Y12850858D01*
X23201333Y14861858D02*
X23153714Y14814239D01*
X23010857Y14766620D01*
X22915619Y14766620D01*
X22772761Y14814239D01*
X22677523Y14909477D01*
X22629904Y15004715D01*
X22582285Y15195191D01*
X22582285Y15338048D01*
X22629904Y15528524D01*
X22677523Y15623762D01*
X22772761Y15719000D01*
X22915619Y15766620D01*
X23010857Y15766620D01*
X23153714Y15719000D01*
X23201333Y15671381D01*
X24058476Y15433286D02*
X24058476Y14766620D01*
X23820380Y15814239D02*
X23582285Y15099953D01*
X24201333Y15099953D01*
X50538666Y3595620D02*
X50538666Y2881334D01*
X50491047Y2738477D01*
X50395809Y2643239D01*
X50252952Y2595620D01*
X50157714Y2595620D01*
X51014857Y2595620D02*
X51014857Y3595620D01*
X51395809Y3595620D01*
X51491047Y3548000D01*
X51538666Y3500381D01*
X51586285Y3405143D01*
X51586285Y3262286D01*
X51538666Y3167048D01*
X51491047Y3119429D01*
X51395809Y3071810D01*
X51014857Y3071810D01*
X51919619Y3595620D02*
X52586285Y3595620D01*
X52157714Y2595620D01*
X50368666Y-1959580D02*
X50368666Y-2673866D01*
X50321047Y-2816723D01*
X50225809Y-2911961D01*
X50082952Y-2959580D01*
X49987714Y-2959580D01*
X50844857Y-2959580D02*
X50844857Y-1959580D01*
X51225809Y-1959580D01*
X51321047Y-2007200D01*
X51368666Y-2054819D01*
X51416285Y-2150057D01*
X51416285Y-2292914D01*
X51368666Y-2388152D01*
X51321047Y-2435771D01*
X51225809Y-2483390D01*
X50844857Y-2483390D01*
X52273428Y-1959580D02*
X52082952Y-1959580D01*
X51987714Y-2007200D01*
X51940095Y-2054819D01*
X51844857Y-2197676D01*
X51797238Y-2388152D01*
X51797238Y-2769104D01*
X51844857Y-2864342D01*
X51892476Y-2911961D01*
X51987714Y-2959580D01*
X52178190Y-2959580D01*
X52273428Y-2911961D01*
X52321047Y-2864342D01*
X52368666Y-2769104D01*
X52368666Y-2531009D01*
X52321047Y-2435771D01*
X52273428Y-2388152D01*
X52178190Y-2340533D01*
X51987714Y-2340533D01*
X51892476Y-2388152D01*
X51844857Y-2435771D01*
X51797238Y-2531009D01*
X65880666Y-4606380D02*
X65880666Y-5320666D01*
X65833047Y-5463523D01*
X65737809Y-5558761D01*
X65594952Y-5606380D01*
X65499714Y-5606380D01*
X66356857Y-5606380D02*
X66356857Y-4606380D01*
X66737809Y-4606380D01*
X66833047Y-4654000D01*
X66880666Y-4701619D01*
X66928285Y-4796857D01*
X66928285Y-4939714D01*
X66880666Y-5034952D01*
X66833047Y-5082571D01*
X66737809Y-5130190D01*
X66356857Y-5130190D01*
X67833047Y-4606380D02*
X67356857Y-4606380D01*
X67309238Y-5082571D01*
X67356857Y-5034952D01*
X67452095Y-4987333D01*
X67690190Y-4987333D01*
X67785428Y-5034952D01*
X67833047Y-5082571D01*
X67880666Y-5177809D01*
X67880666Y-5415904D01*
X67833047Y-5511142D01*
X67785428Y-5558761D01*
X67690190Y-5606380D01*
X67452095Y-5606380D01*
X67356857Y-5558761D01*
X67309238Y-5511142D01*
X65714666Y-10120380D02*
X65714666Y-10834666D01*
X65667047Y-10977523D01*
X65571809Y-11072761D01*
X65428952Y-11120380D01*
X65333714Y-11120380D01*
X66190857Y-11120380D02*
X66190857Y-10120380D01*
X66571809Y-10120380D01*
X66667047Y-10168000D01*
X66714666Y-10215619D01*
X66762285Y-10310857D01*
X66762285Y-10453714D01*
X66714666Y-10548952D01*
X66667047Y-10596571D01*
X66571809Y-10644190D01*
X66190857Y-10644190D01*
X67619428Y-10453714D02*
X67619428Y-11120380D01*
X67381333Y-10072761D02*
X67143238Y-10787047D01*
X67762285Y-10787047D01*
X50280666Y-10986380D02*
X50280666Y-11700666D01*
X50233047Y-11843523D01*
X50137809Y-11938761D01*
X49994952Y-11986380D01*
X49899714Y-11986380D01*
X50756857Y-11986380D02*
X50756857Y-10986380D01*
X51137809Y-10986380D01*
X51233047Y-11034000D01*
X51280666Y-11081619D01*
X51328285Y-11176857D01*
X51328285Y-11319714D01*
X51280666Y-11414952D01*
X51233047Y-11462571D01*
X51137809Y-11510190D01*
X50756857Y-11510190D01*
X51661619Y-10986380D02*
X52280666Y-10986380D01*
X51947333Y-11367333D01*
X52090190Y-11367333D01*
X52185428Y-11414952D01*
X52233047Y-11462571D01*
X52280666Y-11557809D01*
X52280666Y-11795904D01*
X52233047Y-11891142D01*
X52185428Y-11938761D01*
X52090190Y-11986380D01*
X51804476Y-11986380D01*
X51709238Y-11938761D01*
X51661619Y-11891142D01*
X50280666Y-16500380D02*
X50280666Y-17214666D01*
X50233047Y-17357523D01*
X50137809Y-17452761D01*
X49994952Y-17500380D01*
X49899714Y-17500380D01*
X50756857Y-17500380D02*
X50756857Y-16500380D01*
X51137809Y-16500380D01*
X51233047Y-16548000D01*
X51280666Y-16595619D01*
X51328285Y-16690857D01*
X51328285Y-16833714D01*
X51280666Y-16928952D01*
X51233047Y-16976571D01*
X51137809Y-17024190D01*
X50756857Y-17024190D01*
X51709238Y-16595619D02*
X51756857Y-16548000D01*
X51852095Y-16500380D01*
X52090190Y-16500380D01*
X52185428Y-16548000D01*
X52233047Y-16595619D01*
X52280666Y-16690857D01*
X52280666Y-16786095D01*
X52233047Y-16928952D01*
X51661619Y-17500380D01*
X52280666Y-17500380D01*
X45553333Y18664858D02*
X45505714Y18617239D01*
X45362857Y18569620D01*
X45267619Y18569620D01*
X45124761Y18617239D01*
X45029523Y18712477D01*
X44981904Y18807715D01*
X44934285Y18998191D01*
X44934285Y19141048D01*
X44981904Y19331524D01*
X45029523Y19426762D01*
X45124761Y19522000D01*
X45267619Y19569620D01*
X45362857Y19569620D01*
X45505714Y19522000D01*
X45553333Y19474381D01*
X45886666Y19569620D02*
X46505714Y19569620D01*
X46172380Y19188667D01*
X46315238Y19188667D01*
X46410476Y19141048D01*
X46458095Y19093429D01*
X46505714Y18998191D01*
X46505714Y18760096D01*
X46458095Y18664858D01*
X46410476Y18617239D01*
X46315238Y18569620D01*
X46029523Y18569620D01*
X45934285Y18617239D01*
X45886666Y18664858D01*
X60571142Y-17091142D02*
X60523523Y-17138761D01*
X60380666Y-17186380D01*
X60285428Y-17186380D01*
X60142571Y-17138761D01*
X60047333Y-17043523D01*
X59999714Y-16948285D01*
X59952095Y-16757809D01*
X59952095Y-16614952D01*
X59999714Y-16424476D01*
X60047333Y-16329238D01*
X60142571Y-16234000D01*
X60285428Y-16186380D01*
X60380666Y-16186380D01*
X60523523Y-16234000D01*
X60571142Y-16281619D01*
X61523523Y-17186380D02*
X60952095Y-17186380D01*
X61237809Y-17186380D02*
X61237809Y-16186380D01*
X61142571Y-16329238D01*
X61047333Y-16424476D01*
X60952095Y-16472095D01*
X62142571Y-16186380D02*
X62237809Y-16186380D01*
X62333047Y-16234000D01*
X62380666Y-16281619D01*
X62428285Y-16376857D01*
X62475904Y-16567333D01*
X62475904Y-16805428D01*
X62428285Y-16995904D01*
X62380666Y-17091142D01*
X62333047Y-17138761D01*
X62237809Y-17186380D01*
X62142571Y-17186380D01*
X62047333Y-17138761D01*
X61999714Y-17091142D01*
X61952095Y-16995904D01*
X61904476Y-16805428D01*
X61904476Y-16567333D01*
X61952095Y-16376857D01*
X61999714Y-16281619D01*
X62047333Y-16234000D01*
X62142571Y-16186380D01*
X72255142Y-5437142D02*
X72207523Y-5484761D01*
X72064666Y-5532380D01*
X71969428Y-5532380D01*
X71826571Y-5484761D01*
X71731333Y-5389523D01*
X71683714Y-5294285D01*
X71636095Y-5103809D01*
X71636095Y-4960952D01*
X71683714Y-4770476D01*
X71731333Y-4675238D01*
X71826571Y-4580000D01*
X71969428Y-4532380D01*
X72064666Y-4532380D01*
X72207523Y-4580000D01*
X72255142Y-4627619D01*
X73207523Y-5532380D02*
X72636095Y-5532380D01*
X72921809Y-5532380D02*
X72921809Y-4532380D01*
X72826571Y-4675238D01*
X72731333Y-4770476D01*
X72636095Y-4818095D01*
X74159904Y-5532380D02*
X73588476Y-5532380D01*
X73874190Y-5532380D02*
X73874190Y-4532380D01*
X73778952Y-4675238D01*
X73683714Y-4770476D01*
X73588476Y-4818095D01*
X60571142Y-2453942D02*
X60523523Y-2501561D01*
X60380666Y-2549180D01*
X60285428Y-2549180D01*
X60142571Y-2501561D01*
X60047333Y-2406323D01*
X59999714Y-2311085D01*
X59952095Y-2120609D01*
X59952095Y-1977752D01*
X59999714Y-1787276D01*
X60047333Y-1692038D01*
X60142571Y-1596800D01*
X60285428Y-1549180D01*
X60380666Y-1549180D01*
X60523523Y-1596800D01*
X60571142Y-1644419D01*
X61523523Y-2549180D02*
X60952095Y-2549180D01*
X61237809Y-2549180D02*
X61237809Y-1549180D01*
X61142571Y-1692038D01*
X61047333Y-1787276D01*
X60952095Y-1834895D01*
X61904476Y-1644419D02*
X61952095Y-1596800D01*
X62047333Y-1549180D01*
X62285428Y-1549180D01*
X62380666Y-1596800D01*
X62428285Y-1644419D01*
X62475904Y-1739657D01*
X62475904Y-1834895D01*
X62428285Y-1977752D01*
X61856857Y-2549180D01*
X62475904Y-2549180D01*
X38280666Y19759620D02*
X38280666Y19045334D01*
X38233047Y18902477D01*
X38137809Y18807239D01*
X37994952Y18759620D01*
X37899714Y18759620D01*
X39280666Y18759620D02*
X38709238Y18759620D01*
X38994952Y18759620D02*
X38994952Y19759620D01*
X38899714Y19616762D01*
X38804476Y19521524D01*
X38709238Y19473905D01*
X-928667Y18851620D02*
X-1262000Y19327810D01*
X-1500096Y18851620D02*
X-1500096Y19851620D01*
X-1119143Y19851620D01*
X-1023905Y19804000D01*
X-976286Y19756381D01*
X-928667Y19661143D01*
X-928667Y19518286D01*
X-976286Y19423048D01*
X-1023905Y19375429D01*
X-1119143Y19327810D01*
X-1500096Y19327810D01*
X23714Y18851620D02*
X-547715Y18851620D01*
X-262000Y18851620D02*
X-262000Y19851620D01*
X-357239Y19708762D01*
X-452477Y19613524D01*
X-547715Y19565905D01*
X-4230667Y18851620D02*
X-4564000Y19327810D01*
X-4802096Y18851620D02*
X-4802096Y19851620D01*
X-4421143Y19851620D01*
X-4325905Y19804000D01*
X-4278286Y19756381D01*
X-4230667Y19661143D01*
X-4230667Y19518286D01*
X-4278286Y19423048D01*
X-4325905Y19375429D01*
X-4421143Y19327810D01*
X-4802096Y19327810D01*
X-3849715Y19756381D02*
X-3802096Y19804000D01*
X-3706858Y19851620D01*
X-3468762Y19851620D01*
X-3373524Y19804000D01*
X-3325905Y19756381D01*
X-3278286Y19661143D01*
X-3278286Y19565905D01*
X-3325905Y19423048D01*
X-3897334Y18851620D01*
X-3278286Y18851620D01*
X23455333Y-18232380D02*
X23122000Y-17756190D01*
X22883904Y-18232380D02*
X22883904Y-17232380D01*
X23264857Y-17232380D01*
X23360095Y-17280000D01*
X23407714Y-17327619D01*
X23455333Y-17422857D01*
X23455333Y-17565714D01*
X23407714Y-17660952D01*
X23360095Y-17708571D01*
X23264857Y-17756190D01*
X22883904Y-17756190D01*
X23788666Y-17232380D02*
X24407714Y-17232380D01*
X24074380Y-17613333D01*
X24217238Y-17613333D01*
X24312476Y-17660952D01*
X24360095Y-17708571D01*
X24407714Y-17803809D01*
X24407714Y-18041904D01*
X24360095Y-18137142D01*
X24312476Y-18184761D01*
X24217238Y-18232380D01*
X23931523Y-18232380D01*
X23836285Y-18184761D01*
X23788666Y-18137142D01*
X13295333Y-16708380D02*
X12962000Y-16232190D01*
X12723904Y-16708380D02*
X12723904Y-15708380D01*
X13104857Y-15708380D01*
X13200095Y-15756000D01*
X13247714Y-15803619D01*
X13295333Y-15898857D01*
X13295333Y-16041714D01*
X13247714Y-16136952D01*
X13200095Y-16184571D01*
X13104857Y-16232190D01*
X12723904Y-16232190D01*
X14152476Y-16041714D02*
X14152476Y-16708380D01*
X13914380Y-15660761D02*
X13676285Y-16375047D01*
X14295333Y-16375047D01*
X-166667Y-19502380D02*
X-500000Y-19026190D01*
X-738096Y-19502380D02*
X-738096Y-18502380D01*
X-357143Y-18502380D01*
X-261905Y-18550000D01*
X-214286Y-18597619D01*
X-166667Y-18692857D01*
X-166667Y-18835714D01*
X-214286Y-18930952D01*
X-261905Y-18978571D01*
X-357143Y-19026190D01*
X-738096Y-19026190D01*
X690476Y-18502380D02*
X500000Y-18502380D01*
X404761Y-18550000D01*
X357142Y-18597619D01*
X261904Y-18740476D01*
X214285Y-18930952D01*
X214285Y-19311904D01*
X261904Y-19407142D01*
X309523Y-19454761D01*
X404761Y-19502380D01*
X595238Y-19502380D01*
X690476Y-19454761D01*
X738095Y-19407142D01*
X785714Y-19311904D01*
X785714Y-19073809D01*
X738095Y-18978571D01*
X690476Y-18930952D01*
X595238Y-18883333D01*
X404761Y-18883333D01*
X309523Y-18930952D01*
X261904Y-18978571D01*
X214285Y-19073809D01*
X9993333Y16233620D02*
X9660000Y16709810D01*
X9421904Y16233620D02*
X9421904Y17233620D01*
X9802857Y17233620D01*
X9898095Y17186000D01*
X9945714Y17138381D01*
X9993333Y17043143D01*
X9993333Y16900286D01*
X9945714Y16805048D01*
X9898095Y16757429D01*
X9802857Y16709810D01*
X9421904Y16709810D01*
X10326666Y17233620D02*
X10993333Y17233620D01*
X10564761Y16233620D01*
X6691333Y18851620D02*
X6358000Y19327810D01*
X6119904Y18851620D02*
X6119904Y19851620D01*
X6500857Y19851620D01*
X6596095Y19804000D01*
X6643714Y19756381D01*
X6691333Y19661143D01*
X6691333Y19518286D01*
X6643714Y19423048D01*
X6596095Y19375429D01*
X6500857Y19327810D01*
X6119904Y19327810D01*
X7167523Y18851620D02*
X7358000Y18851620D01*
X7453238Y18899239D01*
X7500857Y18946858D01*
X7596095Y19089715D01*
X7643714Y19280191D01*
X7643714Y19661143D01*
X7596095Y19756381D01*
X7548476Y19804000D01*
X7453238Y19851620D01*
X7262761Y19851620D01*
X7167523Y19804000D01*
X7119904Y19756381D01*
X7072285Y19661143D01*
X7072285Y19423048D01*
X7119904Y19327810D01*
X7167523Y19280191D01*
X7262761Y19232572D01*
X7453238Y19232572D01*
X7548476Y19280191D01*
X7596095Y19327810D01*
X7643714Y19423048D01*
X-4198858Y-19502380D02*
X-4532191Y-19026190D01*
X-4770286Y-19502380D02*
X-4770286Y-18502380D01*
X-4389334Y-18502380D01*
X-4294096Y-18550000D01*
X-4246477Y-18597619D01*
X-4198858Y-18692857D01*
X-4198858Y-18835714D01*
X-4246477Y-18930952D01*
X-4294096Y-18978571D01*
X-4389334Y-19026190D01*
X-4770286Y-19026190D01*
X-3246477Y-19502380D02*
X-3817905Y-19502380D01*
X-3532191Y-19502380D02*
X-3532191Y-18502380D01*
X-3627429Y-18645238D01*
X-3722667Y-18740476D01*
X-3817905Y-18788095D01*
X-2627429Y-18502380D02*
X-2532191Y-18502380D01*
X-2436953Y-18550000D01*
X-2389334Y-18597619D01*
X-2341715Y-18692857D01*
X-2294096Y-18883333D01*
X-2294096Y-19121428D01*
X-2341715Y-19311904D01*
X-2389334Y-19407142D01*
X-2436953Y-19454761D01*
X-2532191Y-19502380D01*
X-2627429Y-19502380D01*
X-2722667Y-19454761D01*
X-2770286Y-19407142D01*
X-2817905Y-19311904D01*
X-2865524Y-19121428D01*
X-2865524Y-18883333D01*
X-2817905Y-18692857D01*
X-2770286Y-18597619D01*
X-2722667Y-18550000D01*
X-2627429Y-18502380D01*
X3421142Y18851620D02*
X3087809Y19327810D01*
X2849714Y18851620D02*
X2849714Y19851620D01*
X3230666Y19851620D01*
X3325904Y19804000D01*
X3373523Y19756381D01*
X3421142Y19661143D01*
X3421142Y19518286D01*
X3373523Y19423048D01*
X3325904Y19375429D01*
X3230666Y19327810D01*
X2849714Y19327810D01*
X4373523Y18851620D02*
X3802095Y18851620D01*
X4087809Y18851620D02*
X4087809Y19851620D01*
X3992571Y19708762D01*
X3897333Y19613524D01*
X3802095Y19565905D01*
X5325904Y18851620D02*
X4754476Y18851620D01*
X5040190Y18851620D02*
X5040190Y19851620D01*
X4944952Y19708762D01*
X4849714Y19613524D01*
X4754476Y19565905D01*
X36187142Y-17470380D02*
X35853809Y-16994190D01*
X35615714Y-17470380D02*
X35615714Y-16470380D01*
X35996666Y-16470380D01*
X36091904Y-16518000D01*
X36139523Y-16565619D01*
X36187142Y-16660857D01*
X36187142Y-16803714D01*
X36139523Y-16898952D01*
X36091904Y-16946571D01*
X35996666Y-16994190D01*
X35615714Y-16994190D01*
X37139523Y-17470380D02*
X36568095Y-17470380D01*
X36853809Y-17470380D02*
X36853809Y-16470380D01*
X36758571Y-16613238D01*
X36663333Y-16708476D01*
X36568095Y-16756095D01*
X37520476Y-16565619D02*
X37568095Y-16518000D01*
X37663333Y-16470380D01*
X37901428Y-16470380D01*
X37996666Y-16518000D01*
X38044285Y-16565619D01*
X38091904Y-16660857D01*
X38091904Y-16756095D01*
X38044285Y-16898952D01*
X37472857Y-17470380D01*
X38091904Y-17470380D01*
X4945142Y-19502380D02*
X4611809Y-19026190D01*
X4373714Y-19502380D02*
X4373714Y-18502380D01*
X4754666Y-18502380D01*
X4849904Y-18550000D01*
X4897523Y-18597619D01*
X4945142Y-18692857D01*
X4945142Y-18835714D01*
X4897523Y-18930952D01*
X4849904Y-18978571D01*
X4754666Y-19026190D01*
X4373714Y-19026190D01*
X5897523Y-19502380D02*
X5326095Y-19502380D01*
X5611809Y-19502380D02*
X5611809Y-18502380D01*
X5516571Y-18645238D01*
X5421333Y-18740476D01*
X5326095Y-18788095D01*
X6754666Y-18502380D02*
X6564190Y-18502380D01*
X6468952Y-18550000D01*
X6421333Y-18597619D01*
X6326095Y-18740476D01*
X6278476Y-18930952D01*
X6278476Y-19311904D01*
X6326095Y-19407142D01*
X6373714Y-19454761D01*
X6468952Y-19502380D01*
X6659428Y-19502380D01*
X6754666Y-19454761D01*
X6802285Y-19407142D01*
X6849904Y-19311904D01*
X6849904Y-19073809D01*
X6802285Y-18978571D01*
X6754666Y-18930952D01*
X6659428Y-18883333D01*
X6468952Y-18883333D01*
X6373714Y-18930952D01*
X6326095Y-18978571D01*
X6278476Y-19073809D01*
X1971142Y-19502380D02*
X1637809Y-19026190D01*
X1399714Y-19502380D02*
X1399714Y-18502380D01*
X1780666Y-18502380D01*
X1875904Y-18550000D01*
X1923523Y-18597619D01*
X1971142Y-18692857D01*
X1971142Y-18835714D01*
X1923523Y-18930952D01*
X1875904Y-18978571D01*
X1780666Y-19026190D01*
X1399714Y-19026190D01*
X2923523Y-19502380D02*
X2352095Y-19502380D01*
X2637809Y-19502380D02*
X2637809Y-18502380D01*
X2542571Y-18645238D01*
X2447333Y-18740476D01*
X2352095Y-18788095D01*
X3256857Y-18502380D02*
X3923523Y-18502380D01*
X3494952Y-19502380D01*
X53114095Y19751620D02*
X53114095Y18942096D01*
X53161714Y18846858D01*
X53209333Y18799239D01*
X53304571Y18751620D01*
X53495047Y18751620D01*
X53590285Y18799239D01*
X53637904Y18846858D01*
X53685523Y18942096D01*
X53685523Y19751620D01*
X54114095Y19656381D02*
X54161714Y19704000D01*
X54256952Y19751620D01*
X54495047Y19751620D01*
X54590285Y19704000D01*
X54637904Y19656381D01*
X54685523Y19561143D01*
X54685523Y19465905D01*
X54637904Y19323048D01*
X54066476Y18751620D01*
X54685523Y18751620D01*
X55352095Y-16640380D02*
X55352095Y-17449904D01*
X55399714Y-17545142D01*
X55447333Y-17592761D01*
X55542571Y-17640380D01*
X55733047Y-17640380D01*
X55828285Y-17592761D01*
X55875904Y-17545142D01*
X55923523Y-17449904D01*
X55923523Y-16640380D01*
X56828285Y-16973714D02*
X56828285Y-17640380D01*
X56590190Y-16592761D02*
X56352095Y-17307047D01*
X56971142Y-17307047D01*
X70852095Y-10140380D02*
X70852095Y-10949904D01*
X70899714Y-11045142D01*
X70947333Y-11092761D01*
X71042571Y-11140380D01*
X71233047Y-11140380D01*
X71328285Y-11092761D01*
X71375904Y-11045142D01*
X71423523Y-10949904D01*
X71423523Y-10140380D01*
X72375904Y-10140380D02*
X71899714Y-10140380D01*
X71852095Y-10616571D01*
X71899714Y-10568952D01*
X71994952Y-10521333D01*
X72233047Y-10521333D01*
X72328285Y-10568952D01*
X72375904Y-10616571D01*
X72423523Y-10711809D01*
X72423523Y-10949904D01*
X72375904Y-11045142D01*
X72328285Y-11092761D01*
X72233047Y-11140380D01*
X71994952Y-11140380D01*
X71899714Y-11092761D01*
X71852095Y-11045142D01*
X55774095Y3406420D02*
X55774095Y2596896D01*
X55821714Y2501658D01*
X55869333Y2454039D01*
X55964571Y2406420D01*
X56155047Y2406420D01*
X56250285Y2454039D01*
X56297904Y2501658D01*
X56345523Y2596896D01*
X56345523Y3406420D01*
X57250285Y3406420D02*
X57059809Y3406420D01*
X56964571Y3358800D01*
X56916952Y3311181D01*
X56821714Y3168324D01*
X56774095Y2977848D01*
X56774095Y2596896D01*
X56821714Y2501658D01*
X56869333Y2454039D01*
X56964571Y2406420D01*
X57155047Y2406420D01*
X57250285Y2454039D01*
X57297904Y2501658D01*
X57345523Y2596896D01*
X57345523Y2834991D01*
X57297904Y2930229D01*
X57250285Y2977848D01*
X57155047Y3025467D01*
X56964571Y3025467D01*
X56869333Y2977848D01*
X56821714Y2930229D01*
X56774095Y2834991D01*
M02*
