G04 #@! TF.GenerationSoftware,KiCad,Pcbnew,(5.1.0)-1*
G04 #@! TF.CreationDate,2020-04-13T11:23:52+02:00*
G04 #@! TF.ProjectId,objet_chambre,6f626a65-745f-4636-9861-6d6272652e6b,rev?*
G04 #@! TF.SameCoordinates,PX9fa1b90PY2b1e160*
G04 #@! TF.FileFunction,Copper,L2,Bot*
G04 #@! TF.FilePolarity,Positive*
%FSLAX46Y46*%
G04 Gerber Fmt 4.6, Leading zero omitted, Abs format (unit mm)*
G04 Created by KiCad (PCBNEW (5.1.0)-1) date 2020-04-13 11:23:52*
%MOMM*%
%LPD*%
G04 APERTURE LIST*
%ADD10R,0.800000X1.900000*%
%ADD11C,1.700000*%
%ADD12O,1.700000X1.700000*%
%ADD13R,1.700000X1.700000*%
%ADD14R,1.500000X0.600000*%
%ADD15C,6.400000*%
%ADD16R,1.200000X0.900000*%
%ADD17R,0.750000X1.200000*%
%ADD18C,2.000000*%
%ADD19R,2.000000X2.000000*%
%ADD20C,1.600000*%
%ADD21R,1.600000X1.600000*%
%ADD22R,1.200000X0.750000*%
%ADD23C,1.600000*%
%ADD24C,0.100000*%
%ADD25O,1.000000X1.550000*%
%ADD26O,1.250000X0.950000*%
%ADD27R,1.900000X0.800000*%
%ADD28R,1.300000X1.500000*%
%ADD29C,1.500000*%
%ADD30R,1.500000X1.300000*%
%ADD31C,1.440000*%
%ADD32R,0.550000X1.750000*%
%ADD33C,1.000000*%
%ADD34C,0.600000*%
%ADD35C,1.000000*%
%ADD36C,0.500000*%
%ADD37C,0.254000*%
G04 APERTURE END LIST*
D10*
X63820000Y-556000D03*
X62870000Y-3556000D03*
X64770000Y-3556000D03*
D11*
X28804000Y9212000D03*
D12*
X31344000Y9212000D03*
X33884000Y9212000D03*
D11*
X36424000Y9212000D03*
D13*
X26670000Y-8128000D03*
D12*
X29210000Y-8128000D03*
X31750000Y-8128000D03*
X34290000Y-8128000D03*
X36830000Y-8128000D03*
X39370000Y-8128000D03*
D14*
X17914000Y16752000D03*
X17914000Y15482000D03*
X17914000Y14212000D03*
X17914000Y12942000D03*
X17914000Y11672000D03*
X17914000Y10402000D03*
X17914000Y9132000D03*
X17914000Y7862000D03*
X23314000Y7862000D03*
X23314000Y9132000D03*
X23314000Y10402000D03*
X23314000Y11672000D03*
X23314000Y12942000D03*
X23314000Y14212000D03*
X23314000Y15482000D03*
X23314000Y16752000D03*
D15*
X73614000Y-15788000D03*
X73614000Y16212000D03*
X-8386000Y-15788000D03*
X-8386000Y16212000D03*
D16*
X30566000Y6096000D03*
X32766000Y6096000D03*
D17*
X5334000Y-2098000D03*
X5334000Y-3998000D03*
D18*
X70278000Y6604000D03*
D19*
X65278000Y6604000D03*
D17*
X21614000Y-2827000D03*
X21614000Y-927000D03*
X21614000Y3137000D03*
X21614000Y1237000D03*
D20*
X63782000Y15934000D03*
D21*
X63782000Y13434000D03*
D17*
X-7112000Y-11110000D03*
X-7112000Y-9210000D03*
X3048000Y-2098000D03*
X3048000Y-3998000D03*
D22*
X57018000Y-14288000D03*
X55118000Y-14288000D03*
X70678000Y-7788000D03*
X72578000Y-7788000D03*
X55586000Y286800D03*
X57486000Y286800D03*
X36388000Y4064000D03*
X38288000Y4064000D03*
D20*
X75433114Y10922000D03*
D23*
X75433114Y10922000D02*
X75433114Y10922000D01*
D20*
X68834000Y14732000D03*
D24*
G36*
X67741180Y14439180D02*
G01*
X68541180Y15824820D01*
X69926820Y15024820D01*
X69126820Y13639180D01*
X67741180Y14439180D01*
X67741180Y14439180D01*
G37*
D18*
X37801504Y12789030D03*
X48514000Y8890000D03*
D25*
X29090000Y18975000D03*
X36090000Y18975000D03*
D26*
X30090000Y16275000D03*
X35090000Y16275000D03*
D12*
X-10668000Y-11684000D03*
D13*
X-10668000Y-9144000D03*
D12*
X51562000Y5080000D03*
X49022000Y5080000D03*
D13*
X46482000Y5080000D03*
D10*
X11164000Y7112000D03*
X13064000Y7112000D03*
X12114000Y4112000D03*
D27*
X4614000Y14417000D03*
X7614000Y13467000D03*
X7614000Y15367000D03*
D28*
X14114000Y10957000D03*
X14114000Y13657000D03*
X10614000Y10922000D03*
X10614000Y13622000D03*
D29*
X34290000Y-17780000D03*
X30890000Y-17780000D03*
D30*
X55118000Y-4064000D03*
X57818000Y-4064000D03*
X42752000Y-2032000D03*
X40052000Y-2032000D03*
X40052000Y-4572000D03*
X42752000Y-4572000D03*
D31*
X16510000Y-10160000D03*
X13970000Y-10160000D03*
X11430000Y-10160000D03*
D13*
X75946000Y6604000D03*
D12*
X75946000Y4064000D03*
X75946000Y1524000D03*
X75946000Y-1016000D03*
D32*
X29337000Y-4208000D03*
X30607000Y-4208000D03*
X31877000Y-4208000D03*
X33147000Y-4208000D03*
X33147000Y3192000D03*
X31877000Y3192000D03*
X30607000Y3192000D03*
X29337000Y3192000D03*
D29*
X17702000Y2495000D03*
X17702000Y-2385000D03*
D33*
X24130000Y3556000D03*
X26030000Y3556000D03*
D34*
X39878000Y4064000D03*
X20320000Y16891000D03*
X48006000Y14732000D03*
X42586000Y15240000D03*
X12974000Y-7600000D03*
X52578000Y-14254000D03*
X67818000Y-7874000D03*
X52472000Y286800D03*
X47498000Y0D03*
X47498000Y-14224000D03*
X47498000Y-9652012D03*
X2540000Y14732000D03*
X25146000Y-3048000D03*
X45974000Y-6096000D03*
X4425000Y-12506000D03*
X2520000Y-12506000D03*
X63246000Y-6604000D03*
X71374000Y-5080000D03*
X37846000Y-3556000D03*
X35814000Y-1524010D03*
X5334000Y1524000D03*
X395627Y12461627D03*
X1778000Y5080004D03*
X17526000Y-6096000D03*
X7874000Y1524000D03*
X4318000Y5080000D03*
X2520000Y12554000D03*
X17526000Y-5080000D03*
X6614000Y-14788000D03*
X58928000Y-16256000D03*
X8890000Y-13970000D03*
X72898000Y-10160000D03*
X21590000Y16891000D03*
X15240000Y7620004D03*
X21116207Y9008648D03*
X9144000Y-17780000D03*
X58962000Y-14288000D03*
X74558000Y-7738000D03*
X59428000Y384800D03*
X6858000Y-2032000D03*
X9271000Y3936988D03*
X-4953000Y-10160000D03*
X30480000Y14224000D03*
X30480000Y13208000D03*
X70866000Y9144026D03*
X-1524000Y-14732000D03*
X16764000Y-16764000D03*
X59436000Y-1016000D03*
X14478000Y-6096000D03*
X16256000Y14224000D03*
X12192000Y10922000D03*
X254000Y18034000D03*
X254000Y18034000D03*
X-3556000Y19050000D03*
D35*
X51816000Y8890000D02*
X48514000Y8890000D01*
X65278000Y6604000D02*
X54102000Y6604000D01*
X54102000Y6604000D02*
X51816000Y8890000D01*
X38288000Y2982000D02*
X38288000Y4064000D01*
X35306000Y0D02*
X38288000Y2982000D01*
X32258000Y0D02*
X35306000Y0D01*
X29337000Y-4208000D02*
X29337000Y-2921000D01*
X29337000Y-2921000D02*
X32258000Y0D01*
X38288000Y4064000D02*
X39878000Y4064000D01*
X65278000Y10668000D02*
X65278000Y6604000D01*
X68834000Y14732000D02*
X68834000Y14224000D01*
X68834000Y14224000D02*
X65278000Y10668000D01*
X74596000Y10922000D02*
X70278000Y6604000D01*
X75433114Y10922000D02*
X74596000Y10922000D01*
X63820000Y146000D02*
X70278000Y6604000D01*
X63820000Y-556000D02*
X63820000Y146000D01*
X17914000Y16752000D02*
X19697000Y16752000D01*
X19697000Y16752000D02*
X20181000Y16752000D01*
X20181000Y16752000D02*
X20320000Y16891000D01*
X21979000Y12942000D02*
X23314000Y12942000D01*
X20864000Y14057000D02*
X21979000Y12942000D01*
X20864000Y15557000D02*
X20864000Y14057000D01*
X19697000Y16752000D02*
X19697000Y16724000D01*
X19697000Y16724000D02*
X20864000Y15557000D01*
X31344000Y10008000D02*
X31344000Y9212000D01*
X36576000Y15240000D02*
X31344000Y10008000D01*
X48006000Y14732000D02*
X47498000Y15240000D01*
X47498000Y15240000D02*
X42586000Y15240000D01*
X42586000Y15240000D02*
X36576000Y15240000D01*
D36*
X55084000Y-14254000D02*
X55118000Y-14288000D01*
X52578000Y-14254000D02*
X55084000Y-14254000D01*
X70678000Y-7788000D02*
X67904000Y-7788000D01*
X67904000Y-7788000D02*
X67818000Y-7874000D01*
X52472000Y286800D02*
X55586000Y286800D01*
D35*
X47784800Y286800D02*
X47498000Y0D01*
X52472000Y286800D02*
X47784800Y286800D01*
X52578000Y-14254000D02*
X47528000Y-14254000D01*
X47528000Y-14254000D02*
X47498000Y-14224000D01*
X42752000Y-4572000D02*
X42752000Y-2032000D01*
X45466000Y-2032000D02*
X42752000Y-2032000D01*
X47498000Y0D02*
X45466000Y-2032000D01*
X49276012Y-7874000D02*
X47797999Y-9352013D01*
X67818000Y-7874000D02*
X49276012Y-7874000D01*
X47797999Y-9352013D02*
X47498000Y-9652012D01*
X12674001Y-7300001D02*
X12974000Y-7600000D01*
X12634001Y-7300001D02*
X12674001Y-7300001D01*
X3048000Y-3998000D02*
X9332000Y-3998000D01*
X9332000Y-3998000D02*
X12634001Y-7300001D01*
X42586000Y7452000D02*
X42586000Y15240000D01*
X46482000Y5080000D02*
X44958000Y5080000D01*
X44958000Y5080000D02*
X42586000Y7452000D01*
D36*
X14114000Y9542000D02*
X14114000Y10957000D01*
X13064000Y7112000D02*
X13064000Y8492000D01*
X13064000Y8492000D02*
X14114000Y9542000D01*
X4614000Y14417000D02*
X2855000Y14417000D01*
X2855000Y14417000D02*
X2540000Y14732000D01*
X48006000Y-4064000D02*
X46273999Y-5796001D01*
X46273999Y-5796001D02*
X45974000Y-6096000D01*
X55118000Y-4064000D02*
X48006000Y-4064000D01*
X24130000Y-4064000D02*
X25146000Y-3048000D01*
X17018000Y-4064000D02*
X24130000Y-4064000D01*
X4614000Y9864000D02*
X8890000Y5588000D01*
X4614000Y14417000D02*
X4614000Y9864000D01*
X8890000Y5588000D02*
X13462000Y5588000D01*
X13462000Y5588000D02*
X13970000Y5080000D01*
X13970000Y5080000D02*
X13970000Y-1016000D01*
X13970000Y-1016000D02*
X17018000Y-4064000D01*
X73723500Y6604000D02*
X75946000Y6604000D01*
X65087500Y-2032000D02*
X73723500Y6604000D01*
X64008000Y-2032000D02*
X65087500Y-2032000D01*
X63817500Y-4889500D02*
X63817500Y-2222500D01*
X48006000Y-5588000D02*
X63119000Y-5588000D01*
X63817500Y-2222500D02*
X64008000Y-2032000D01*
X6544000Y-12506000D02*
X7366000Y-11684000D01*
X4425000Y-12506000D02*
X6544000Y-12506000D01*
X7366000Y-11684000D02*
X10414000Y-11684000D01*
X63119000Y-5588000D02*
X63817500Y-4889500D01*
X10414000Y-11684000D02*
X10922000Y-12192000D01*
X10922000Y-12192000D02*
X41402000Y-12192000D01*
X41402000Y-12192000D02*
X48006000Y-5588000D01*
X71374000Y-508000D02*
X75946000Y4064000D01*
X71374000Y-5080000D02*
X71374000Y-508000D01*
X41910000Y-13208000D02*
X48514000Y-6604000D01*
X48514000Y-6604000D02*
X63246000Y-6604000D01*
X10414000Y-13208000D02*
X41910000Y-13208000D01*
X2520000Y-12506000D02*
X2600000Y-12506000D01*
X3810000Y-13716000D02*
X6858000Y-13716000D01*
X6858000Y-13716000D02*
X7874000Y-12700000D01*
X2600000Y-12506000D02*
X3810000Y-13716000D01*
X7874000Y-12700000D02*
X9906000Y-12700000D01*
X9906000Y-12700000D02*
X10414000Y-13208000D01*
X31877000Y-8001000D02*
X31750000Y-8128000D01*
X31877000Y-4208000D02*
X31877000Y-8001000D01*
X38862000Y-4572000D02*
X40052000Y-4572000D01*
X37846000Y-3556000D02*
X38862000Y-4572000D01*
X35389736Y-1524010D02*
X35814000Y-1524010D01*
X32765990Y-1524010D02*
X35389736Y-1524010D01*
X31877000Y-4208000D02*
X31877000Y-2413000D01*
X31877000Y-2413000D02*
X32765990Y-1524010D01*
X36321990Y-1524010D02*
X35814000Y-1524010D01*
X41402000Y3556000D02*
X36321990Y-1524010D01*
X41402000Y4572000D02*
X41402000Y3556000D01*
X39878000Y6096000D02*
X41402000Y4572000D01*
X33884000Y9212000D02*
X37000000Y6096000D01*
X37000000Y6096000D02*
X39878000Y6096000D01*
X1777996Y5080004D02*
X1778000Y5080004D01*
X254000Y6604000D02*
X1777996Y5080004D01*
X395627Y12461627D02*
X254000Y12320000D01*
X254000Y12320000D02*
X254000Y6604000D01*
X16002000Y-6096000D02*
X17526000Y-6096000D01*
X10414000Y-508000D02*
X16002000Y-6096000D01*
X5334000Y1524000D02*
X7366000Y-508000D01*
X7366000Y-508000D02*
X10414000Y-508000D01*
X33147000Y-6985000D02*
X34290000Y-8128000D01*
X33147000Y-4208000D02*
X33147000Y-6985000D01*
X38286000Y9212000D02*
X36424000Y9212000D01*
X42418000Y5080000D02*
X38286000Y9212000D01*
X42418000Y3048000D02*
X42418000Y5080000D01*
X39370000Y0D02*
X42418000Y3048000D01*
X39370000Y-200000D02*
X39370000Y0D01*
X40052000Y-2032000D02*
X40052000Y-882000D01*
X40052000Y-882000D02*
X39370000Y-200000D01*
X38862000Y-508000D02*
X39370000Y0D01*
X33147000Y-4208000D02*
X35162000Y-4208000D01*
X35162000Y-4208000D02*
X38862000Y-508000D01*
X2794000Y12280000D02*
X2520000Y12554000D01*
X4318000Y5080000D02*
X2794000Y6604000D01*
X2794000Y6604000D02*
X2794000Y12280000D01*
X16510000Y-5080000D02*
X17526000Y-5080000D01*
X7874000Y1524000D02*
X9906000Y1524000D01*
X9906000Y1524000D02*
X16510000Y-5080000D01*
X7066000Y-15240000D02*
X6614000Y-14788000D01*
X36322000Y-15240000D02*
X7066000Y-15240000D01*
X58928000Y-16256000D02*
X37338000Y-16256000D01*
X37338000Y-16256000D02*
X36322000Y-15240000D01*
X72473736Y-10160000D02*
X72898000Y-10160000D01*
X49022000Y-10160000D02*
X72473736Y-10160000D01*
X44958000Y-14224000D02*
X49022000Y-10160000D01*
X8890000Y-13970000D02*
X9144000Y-14224000D01*
X9144000Y-14224000D02*
X44958000Y-14224000D01*
X26394000Y3192000D02*
X26030000Y3556000D01*
X29337000Y3192000D02*
X26394000Y3192000D01*
X21811000Y-2827000D02*
X18144000Y-2827000D01*
X24289000Y9132000D02*
X24864000Y8557000D01*
X23314000Y9132000D02*
X24289000Y9132000D01*
X24864000Y8557000D02*
X24864000Y7084000D01*
X24864000Y7084000D02*
X22860000Y5080000D01*
X18144000Y-2827000D02*
X17702000Y-2385000D01*
X22860000Y5080000D02*
X22860000Y-1778000D01*
X22860000Y-1778000D02*
X21811000Y-2827000D01*
X23314000Y16752000D02*
X21729000Y16752000D01*
X21729000Y16752000D02*
X21590000Y16891000D01*
X28772000Y18657000D02*
X29090000Y18975000D01*
X21614000Y176000D02*
X21614000Y1237000D01*
X21614000Y-927000D02*
X21614000Y176000D01*
X18457559Y6350000D02*
X20816208Y8708649D01*
X15240000Y7620004D02*
X16510004Y6350000D01*
X20816208Y8708649D02*
X21116207Y9008648D01*
X16510004Y6350000D02*
X18457559Y6350000D01*
X-3860517Y-15788000D02*
X-1868517Y-17780000D01*
X-8386000Y-15788000D02*
X-3860517Y-15788000D01*
X-1868517Y-17780000D02*
X9144000Y-17780000D01*
X57018000Y-14288000D02*
X58962000Y-14288000D01*
X74508000Y-7788000D02*
X74558000Y-7738000D01*
X72578000Y-7788000D02*
X74508000Y-7788000D01*
X59330000Y286800D02*
X59428000Y384800D01*
X57486000Y286800D02*
X59330000Y286800D01*
X-7178000Y-11176000D02*
X-7112000Y-11110000D01*
X-8636000Y-11176000D02*
X-7178000Y-11176000D01*
X-10668000Y-11684000D02*
X-9144000Y-11684000D01*
X-9144000Y-11684000D02*
X-8636000Y-11176000D01*
X-8386000Y-15168081D02*
X-8386000Y-15788000D01*
X-10668000Y-12886081D02*
X-8386000Y-15168081D01*
X-10668000Y-11684000D02*
X-10668000Y-12886081D01*
X33540001Y-17030001D02*
X34290000Y-17780000D01*
X32766000Y-16256000D02*
X33540001Y-17030001D01*
X27940000Y-16256000D02*
X32766000Y-16256000D01*
X9144000Y-17780000D02*
X26416000Y-17780000D01*
X26416000Y-17780000D02*
X27940000Y-16256000D01*
X33147000Y5715000D02*
X32766000Y6096000D01*
X33147000Y3192000D02*
X33147000Y5715000D01*
X33511000Y3556000D02*
X33147000Y3192000D01*
X34290000Y3556000D02*
X33511000Y3556000D01*
X36388000Y4064000D02*
X34798000Y4064000D01*
X34798000Y4064000D02*
X34290000Y3556000D01*
X28804000Y8026000D02*
X28804000Y9212000D01*
X29210000Y7620000D02*
X28804000Y8026000D01*
X32258000Y7620000D02*
X29210000Y7620000D01*
X32766000Y6096000D02*
X32766000Y7112000D01*
X32766000Y7112000D02*
X32258000Y7620000D01*
X33147000Y2592000D02*
X27686000Y-2869000D01*
X33147000Y3192000D02*
X33147000Y2592000D01*
X27686000Y-2869000D02*
X27686000Y-5080000D01*
X29210000Y-6604000D02*
X29210000Y-8128000D01*
X27686000Y-5080000D02*
X29210000Y-6604000D01*
X64770000Y-4572000D02*
X64770000Y-3556000D01*
X66294000Y-6096000D02*
X64770000Y-4572000D01*
X71882000Y-6096000D02*
X66294000Y-6096000D01*
X72578000Y-7788000D02*
X72578000Y-6792000D01*
X72578000Y-6792000D02*
X71882000Y-6096000D01*
X3048000Y-2098000D02*
X5334000Y-2098000D01*
X5400000Y-2032000D02*
X5334000Y-2098000D01*
X6858000Y-2032000D02*
X5400000Y-2032000D01*
X8846736Y3936988D02*
X9271000Y3936988D01*
X-636471Y3936988D02*
X8846736Y3936988D01*
X-2286000Y5586517D02*
X-636471Y3936988D01*
X-8386000Y16212000D02*
X-2286000Y10112000D01*
X-2286000Y10112000D02*
X-2286000Y5586517D01*
X16510004Y6096004D02*
X16510004Y6350000D01*
X15416000Y5002000D02*
X16510004Y6096004D01*
X21614000Y212000D02*
X15416000Y212000D01*
X15416000Y212000D02*
X15416000Y5002000D01*
X23314000Y7058000D02*
X23314000Y7862000D01*
X21614000Y5358000D02*
X23314000Y7058000D01*
X21614000Y3137000D02*
X21614000Y5358000D01*
X17702000Y2495000D02*
X18344000Y3137000D01*
X18344000Y3137000D02*
X21614000Y3137000D01*
X-4953000Y-10160000D02*
X-4953000Y-8636000D01*
X-10602000Y-9210000D02*
X-10668000Y-9144000D01*
X-7112000Y-9210000D02*
X-10602000Y-9210000D01*
X-4953000Y-9017000D02*
X-4953000Y-8636000D01*
X-7112000Y-9210000D02*
X-5146000Y-9210000D01*
X-5146000Y-9210000D02*
X-4953000Y-9017000D01*
X11214000Y4112000D02*
X12114000Y4112000D01*
X-4953000Y-8636000D02*
X-4953000Y-6223000D01*
X9764000Y2662000D02*
X11214000Y4112000D01*
X-4953000Y-6223000D02*
X3932000Y2662000D01*
X3932000Y2662000D02*
X9764000Y2662000D01*
X26924000Y14224000D02*
X30480000Y14224000D01*
X23314000Y11672000D02*
X24372000Y11672000D01*
X24372000Y11672000D02*
X26924000Y14224000D01*
X24564000Y10402000D02*
X27370000Y13208000D01*
X23314000Y10402000D02*
X24564000Y10402000D01*
X27370000Y13208000D02*
X30480000Y13208000D01*
X70865974Y9144000D02*
X70866000Y9144026D01*
X70628002Y9144000D02*
X70865974Y9144000D01*
X64532002Y3048000D02*
X70628002Y9144000D01*
X49022000Y5080000D02*
X51054000Y3048000D01*
X51054000Y3048000D02*
X64532002Y3048000D01*
X30566000Y5756000D02*
X30566000Y6096000D01*
X31877000Y3192000D02*
X31877000Y4445000D01*
X31877000Y4445000D02*
X30566000Y5756000D01*
X16510000Y-16510000D02*
X16764000Y-16764000D01*
X-1524000Y-14732000D02*
X254000Y-16510000D01*
X254000Y-16510000D02*
X16510000Y-16510000D01*
X50546000Y-1016000D02*
X59436000Y-1016000D01*
X49530000Y-1016000D02*
X50546000Y-1016000D01*
X40386000Y-10160000D02*
X49530000Y-1016000D01*
X14478000Y-6096000D02*
X18542000Y-10160000D01*
X18542000Y-10160000D02*
X40386000Y-10160000D01*
X10668000Y9144000D02*
X10668000Y10668000D01*
X11164000Y7112000D02*
X11164000Y8648000D01*
X11164000Y8648000D02*
X10668000Y9144000D01*
X17914000Y14212000D02*
X16268000Y14212000D01*
X16268000Y14212000D02*
X16256000Y14224000D01*
X12192000Y10922000D02*
X10614000Y10922000D01*
X10459000Y13467000D02*
X10614000Y13622000D01*
X7614000Y13467000D02*
X10459000Y13467000D01*
X14224000Y14732000D02*
X14224000Y13462000D01*
X7614000Y15367000D02*
X13589000Y15367000D01*
X13589000Y15367000D02*
X14224000Y14732000D01*
X14309000Y13462000D02*
X14114000Y13657000D01*
X15240000Y13462000D02*
X14309000Y13462000D01*
X17914000Y12942000D02*
X15760000Y12942000D01*
X15760000Y12942000D02*
X15240000Y13462000D01*
X60706000Y-3556000D02*
X62738000Y-3556000D01*
X57818000Y-4064000D02*
X60198000Y-4064000D01*
X60198000Y-4064000D02*
X60706000Y-3556000D01*
X24384000Y18034000D02*
X254000Y18034000D01*
X24892000Y17526000D02*
X24384000Y18034000D01*
X24892000Y16002000D02*
X24892000Y17526000D01*
X23314000Y15482000D02*
X24372000Y15482000D01*
X24372000Y15482000D02*
X24892000Y16002000D01*
X24564000Y14212000D02*
X25908000Y15556000D01*
X23314000Y14212000D02*
X24564000Y14212000D01*
X25908000Y15556000D02*
X25908000Y17358542D01*
X25908000Y17358542D02*
X25908000Y18034000D01*
X25908000Y18034000D02*
X24892000Y19050000D01*
X24892000Y19050000D02*
X-3556000Y19050000D01*
X24130000Y2540000D02*
X24130000Y3556000D01*
X25654000Y1016000D02*
X24130000Y2540000D01*
X29718000Y1016000D02*
X25654000Y1016000D01*
X30607000Y3192000D02*
X30607000Y1905000D01*
X30607000Y1905000D02*
X29718000Y1016000D01*
D37*
G36*
X74478073Y5631087D02*
G01*
X74513925Y5512897D01*
X74572147Y5403972D01*
X74650499Y5308499D01*
X74745972Y5230147D01*
X74854897Y5171925D01*
X74937332Y5146919D01*
X74896550Y5113450D01*
X74711978Y4888547D01*
X74574828Y4631958D01*
X74490371Y4353543D01*
X74461854Y4064000D01*
X74483720Y3841985D01*
X70784329Y142594D01*
X70750868Y115133D01*
X70723409Y81674D01*
X70723406Y81671D01*
X70641274Y-18408D01*
X70559838Y-170764D01*
X70509690Y-336078D01*
X70492757Y-508000D01*
X70497001Y-551089D01*
X70497000Y-4774898D01*
X70482624Y-4809604D01*
X70447000Y-4988699D01*
X70447000Y-5171301D01*
X70482624Y-5350396D01*
X70552504Y-5519099D01*
X70653952Y-5670928D01*
X70783072Y-5800048D01*
X70934901Y-5901496D01*
X71103604Y-5971376D01*
X71282699Y-6007000D01*
X71465301Y-6007000D01*
X71644396Y-5971376D01*
X71813099Y-5901496D01*
X71964928Y-5800048D01*
X72094048Y-5670928D01*
X72195496Y-5519099D01*
X72265376Y-5350396D01*
X72301000Y-5171301D01*
X72301000Y-4988699D01*
X72265376Y-4809604D01*
X72251000Y-4774898D01*
X72251000Y-1372890D01*
X74504524Y-1372890D01*
X74549175Y-1520099D01*
X74674359Y-1782920D01*
X74848412Y-2016269D01*
X75064645Y-2211178D01*
X75314748Y-2360157D01*
X75589109Y-2457481D01*
X75819000Y-2336814D01*
X75819000Y-1143000D01*
X74625845Y-1143000D01*
X74504524Y-1372890D01*
X72251000Y-1372890D01*
X72251000Y-871265D01*
X74478388Y1356123D01*
X74490371Y1234457D01*
X74574828Y956042D01*
X74711978Y699453D01*
X74896550Y474550D01*
X75121453Y289978D01*
X75189549Y253580D01*
X75064645Y179178D01*
X74848412Y-15731D01*
X74674359Y-249080D01*
X74549175Y-511901D01*
X74504524Y-659110D01*
X74625845Y-889000D01*
X75819000Y-889000D01*
X75819000Y-869000D01*
X76073000Y-869000D01*
X76073000Y-889000D01*
X76093000Y-889000D01*
X76093000Y-1143000D01*
X76073000Y-1143000D01*
X76073000Y-2336814D01*
X76302891Y-2457481D01*
X76487000Y-2392172D01*
X76487000Y-13393331D01*
X76314881Y-13266724D01*
X73793605Y-15788000D01*
X76314881Y-18309276D01*
X76487000Y-18182669D01*
X76487000Y-18661000D01*
X76008669Y-18661000D01*
X76135276Y-18488881D01*
X73614000Y-15967605D01*
X71092724Y-18488881D01*
X71219331Y-18661000D01*
X35350608Y-18661000D01*
X35246995Y-18557387D01*
X35485860Y-18491863D01*
X35601760Y-18244884D01*
X35667250Y-17980040D01*
X35679812Y-17707508D01*
X35638965Y-17437762D01*
X35546277Y-17181168D01*
X35485860Y-17068137D01*
X35246993Y-17002612D01*
X34469605Y-17780000D01*
X34483748Y-17794143D01*
X34304143Y-17973748D01*
X34290000Y-17959605D01*
X34275858Y-17973748D01*
X34096253Y-17794143D01*
X34110395Y-17780000D01*
X33333007Y-17002612D01*
X33094140Y-17068137D01*
X32978240Y-17315116D01*
X32912750Y-17579960D01*
X32900188Y-17852492D01*
X32941035Y-18122238D01*
X33033723Y-18378832D01*
X33094140Y-18491863D01*
X33333005Y-18557387D01*
X33229392Y-18661000D01*
X31956373Y-18661000D01*
X31959586Y-18657787D01*
X32110282Y-18432254D01*
X32214083Y-18181656D01*
X32267000Y-17915623D01*
X32267000Y-17644377D01*
X32214083Y-17378344D01*
X32110282Y-17127746D01*
X31959586Y-16902213D01*
X31880380Y-16823007D01*
X33512612Y-16823007D01*
X34290000Y-17600395D01*
X35067388Y-16823007D01*
X35001863Y-16584140D01*
X34754884Y-16468240D01*
X34490040Y-16402750D01*
X34217508Y-16390188D01*
X33947762Y-16431035D01*
X33691168Y-16523723D01*
X33578137Y-16584140D01*
X33512612Y-16823007D01*
X31880380Y-16823007D01*
X31767787Y-16710414D01*
X31542254Y-16559718D01*
X31291656Y-16455917D01*
X31025623Y-16403000D01*
X30754377Y-16403000D01*
X30488344Y-16455917D01*
X30237746Y-16559718D01*
X30012213Y-16710414D01*
X29820414Y-16902213D01*
X29669718Y-17127746D01*
X29565917Y-17378344D01*
X29513000Y-17644377D01*
X29513000Y-17915623D01*
X29565917Y-18181656D01*
X29669718Y-18432254D01*
X29820414Y-18657787D01*
X29823627Y-18661000D01*
X-5991331Y-18661000D01*
X-5864724Y-18488881D01*
X-8386000Y-15967605D01*
X-10907276Y-18488881D01*
X-10780669Y-18661000D01*
X-11259000Y-18661000D01*
X-11259000Y-18182669D01*
X-11086881Y-18309276D01*
X-8565605Y-15788000D01*
X-8206395Y-15788000D01*
X-5685119Y-18309276D01*
X-5195452Y-17949088D01*
X-4835151Y-17285118D01*
X-4611306Y-16563615D01*
X-4532520Y-15812305D01*
X-4601822Y-15060062D01*
X-4816548Y-14335792D01*
X-5168445Y-13667330D01*
X-5195452Y-13626912D01*
X-5685119Y-13266724D01*
X-8206395Y-15788000D01*
X-8565605Y-15788000D01*
X-8579747Y-15773858D01*
X-8400142Y-15594253D01*
X-8386000Y-15608395D01*
X-5864724Y-13087119D01*
X-6224912Y-12597452D01*
X-6692543Y-12343694D01*
X-6612518Y-12335812D01*
X-6492820Y-12299502D01*
X-6382506Y-12240537D01*
X-6285815Y-12161185D01*
X-6206463Y-12064494D01*
X-6147498Y-11954180D01*
X-6111188Y-11834482D01*
X-6098928Y-11710000D01*
X-6102000Y-11395750D01*
X-6260750Y-11237000D01*
X-6985000Y-11237000D01*
X-6985000Y-11257000D01*
X-7239000Y-11257000D01*
X-7239000Y-11237000D01*
X-7963250Y-11237000D01*
X-8122000Y-11395750D01*
X-8125072Y-11710000D01*
X-8112812Y-11834482D01*
X-8076502Y-11954180D01*
X-8070700Y-11965035D01*
X-8361695Y-11934520D01*
X-9113938Y-12003822D01*
X-9228208Y-12037700D01*
X-9347845Y-11811000D01*
X-10541000Y-11811000D01*
X-10541000Y-11831000D01*
X-10795000Y-11831000D01*
X-10795000Y-11811000D01*
X-10815000Y-11811000D01*
X-10815000Y-11557000D01*
X-10795000Y-11557000D01*
X-10795000Y-11537000D01*
X-10541000Y-11537000D01*
X-10541000Y-11557000D01*
X-9347845Y-11557000D01*
X-9226524Y-11327110D01*
X-9271175Y-11179901D01*
X-9396359Y-10917080D01*
X-9570412Y-10683731D01*
X-9661406Y-10601710D01*
X-9576897Y-10576075D01*
X-9467972Y-10517853D01*
X-9372499Y-10439501D01*
X-9294147Y-10344028D01*
X-9235925Y-10235103D01*
X-9200073Y-10116913D01*
X-9197127Y-10087000D01*
X-8049888Y-10087000D01*
X-8014953Y-10152357D01*
X-8017537Y-10155506D01*
X-8076502Y-10265820D01*
X-8112812Y-10385518D01*
X-8125072Y-10510000D01*
X-8122000Y-10824250D01*
X-7963250Y-10983000D01*
X-7239000Y-10983000D01*
X-7239000Y-10963000D01*
X-6985000Y-10963000D01*
X-6985000Y-10983000D01*
X-6260750Y-10983000D01*
X-6102000Y-10824250D01*
X-6098928Y-10510000D01*
X-6111188Y-10385518D01*
X-6147498Y-10265820D01*
X-6206463Y-10155506D01*
X-6209047Y-10152357D01*
X-6174112Y-10087000D01*
X-5880000Y-10087000D01*
X-5880000Y-10251301D01*
X-5844376Y-10430396D01*
X-5774496Y-10599099D01*
X-5673048Y-10750928D01*
X-5543928Y-10880048D01*
X-5392099Y-10981496D01*
X-5223396Y-11051376D01*
X-5044301Y-11087000D01*
X-4861699Y-11087000D01*
X-4682604Y-11051376D01*
X-4513901Y-10981496D01*
X-4362072Y-10880048D01*
X-4232952Y-10750928D01*
X-4131504Y-10599099D01*
X-4061624Y-10430396D01*
X-4026000Y-10251301D01*
X-4026000Y-10068699D01*
X-4061624Y-9889604D01*
X-4076000Y-9854898D01*
X-4076000Y-9060070D01*
X-4071758Y-9017001D01*
X-4076000Y-8973931D01*
X-4076000Y-6586265D01*
X-1487735Y-3998000D01*
X1915547Y-3998000D01*
X1937307Y-4218931D01*
X2001750Y-4431371D01*
X2042967Y-4508482D01*
X2042967Y-4598000D01*
X2055073Y-4720913D01*
X2090925Y-4839103D01*
X2149147Y-4948028D01*
X2227499Y-5043501D01*
X2322972Y-5121853D01*
X2431897Y-5180075D01*
X2550087Y-5215927D01*
X2673000Y-5228033D01*
X3423000Y-5228033D01*
X3545913Y-5215927D01*
X3664103Y-5180075D01*
X3767140Y-5125000D01*
X4614860Y-5125000D01*
X4717897Y-5180075D01*
X4836087Y-5215927D01*
X4959000Y-5228033D01*
X5709000Y-5228033D01*
X5831913Y-5215927D01*
X5950103Y-5180075D01*
X6053140Y-5125000D01*
X8865182Y-5125000D01*
X11797946Y-8057765D01*
X11833236Y-8100766D01*
X11876237Y-8136056D01*
X11876240Y-8136059D01*
X11957612Y-8202839D01*
X12004844Y-8241601D01*
X12041234Y-8261052D01*
X12216240Y-8436058D01*
X12344844Y-8541600D01*
X12540630Y-8646250D01*
X12753069Y-8710693D01*
X12974000Y-8732452D01*
X13194930Y-8710693D01*
X13407371Y-8646250D01*
X13603156Y-8541600D01*
X13774765Y-8400765D01*
X13915600Y-8229156D01*
X14020250Y-8033371D01*
X14084693Y-7820930D01*
X14106452Y-7600000D01*
X14084693Y-7379069D01*
X14020250Y-7166630D01*
X13915600Y-6970844D01*
X13810058Y-6842240D01*
X13510058Y-6542240D01*
X13474766Y-6499236D01*
X13303158Y-6358401D01*
X13266770Y-6338951D01*
X10168059Y-3240241D01*
X10132765Y-3197235D01*
X9961157Y-3056400D01*
X9765371Y-2951750D01*
X9552931Y-2887307D01*
X9387365Y-2871000D01*
X9387354Y-2871000D01*
X9332000Y-2865548D01*
X9276646Y-2871000D01*
X6320094Y-2871000D01*
X6334812Y-2822482D01*
X6347072Y-2698000D01*
X6344000Y-2383750D01*
X6185250Y-2225000D01*
X5461000Y-2225000D01*
X5461000Y-2245000D01*
X5207000Y-2245000D01*
X5207000Y-2225000D01*
X4482750Y-2225000D01*
X4324000Y-2383750D01*
X4320928Y-2698000D01*
X4333188Y-2822482D01*
X4347906Y-2871000D01*
X4034094Y-2871000D01*
X4048812Y-2822482D01*
X4061072Y-2698000D01*
X4058000Y-2383750D01*
X3899250Y-2225000D01*
X3175000Y-2225000D01*
X3175000Y-2245000D01*
X2921000Y-2245000D01*
X2921000Y-2225000D01*
X2196750Y-2225000D01*
X2038000Y-2383750D01*
X2034928Y-2698000D01*
X2047188Y-2822482D01*
X2083498Y-2942180D01*
X2142463Y-3052494D01*
X2145047Y-3055643D01*
X2090925Y-3156897D01*
X2055073Y-3275087D01*
X2042967Y-3398000D01*
X2042967Y-3487518D01*
X2001750Y-3564629D01*
X1937307Y-3777069D01*
X1915547Y-3998000D01*
X-1487735Y-3998000D01*
X1012265Y-1498000D01*
X2034928Y-1498000D01*
X2038000Y-1812250D01*
X2196750Y-1971000D01*
X2921000Y-1971000D01*
X2921000Y-1021750D01*
X3175000Y-1021750D01*
X3175000Y-1971000D01*
X3899250Y-1971000D01*
X4058000Y-1812250D01*
X4061072Y-1498000D01*
X4320928Y-1498000D01*
X4324000Y-1812250D01*
X4482750Y-1971000D01*
X5207000Y-1971000D01*
X5207000Y-1021750D01*
X5461000Y-1021750D01*
X5461000Y-1971000D01*
X6185250Y-1971000D01*
X6344000Y-1812250D01*
X6347072Y-1498000D01*
X6334812Y-1373518D01*
X6298502Y-1253820D01*
X6239537Y-1143506D01*
X6160185Y-1046815D01*
X6063494Y-967463D01*
X5953180Y-908498D01*
X5833482Y-872188D01*
X5709000Y-859928D01*
X5619750Y-863000D01*
X5461000Y-1021750D01*
X5207000Y-1021750D01*
X5048250Y-863000D01*
X4959000Y-859928D01*
X4834518Y-872188D01*
X4714820Y-908498D01*
X4604506Y-967463D01*
X4507815Y-1046815D01*
X4428463Y-1143506D01*
X4369498Y-1253820D01*
X4333188Y-1373518D01*
X4320928Y-1498000D01*
X4061072Y-1498000D01*
X4048812Y-1373518D01*
X4012502Y-1253820D01*
X3953537Y-1143506D01*
X3874185Y-1046815D01*
X3777494Y-967463D01*
X3667180Y-908498D01*
X3547482Y-872188D01*
X3423000Y-859928D01*
X3333750Y-863000D01*
X3175000Y-1021750D01*
X2921000Y-1021750D01*
X2762250Y-863000D01*
X2673000Y-859928D01*
X2548518Y-872188D01*
X2428820Y-908498D01*
X2318506Y-967463D01*
X2221815Y-1046815D01*
X2142463Y-1143506D01*
X2083498Y-1253820D01*
X2047188Y-1373518D01*
X2034928Y-1498000D01*
X1012265Y-1498000D01*
X4295265Y1785000D01*
X4440755Y1785000D01*
X4407000Y1615301D01*
X4407000Y1432699D01*
X4442624Y1253604D01*
X4512504Y1084901D01*
X4613952Y933072D01*
X4743072Y803952D01*
X4894901Y702504D01*
X4929607Y688128D01*
X6715406Y-1097672D01*
X6742867Y-1131133D01*
X6776326Y-1158592D01*
X6776328Y-1158594D01*
X6810665Y-1186773D01*
X6876408Y-1240727D01*
X7016138Y-1315414D01*
X7028763Y-1322162D01*
X7194077Y-1372310D01*
X7366000Y-1389243D01*
X7409079Y-1385000D01*
X10050735Y-1385000D01*
X13979757Y-5314022D01*
X13887072Y-5375952D01*
X13757952Y-5505072D01*
X13656504Y-5656901D01*
X13586624Y-5825604D01*
X13551000Y-6004699D01*
X13551000Y-6187301D01*
X13586624Y-6366396D01*
X13656504Y-6535099D01*
X13757952Y-6686928D01*
X13887072Y-6816048D01*
X14038901Y-6917496D01*
X14073607Y-6931872D01*
X16038891Y-8897157D01*
X15871956Y-8966304D01*
X15651337Y-9113716D01*
X15463716Y-9301337D01*
X15316304Y-9521956D01*
X15240000Y-9706169D01*
X15163696Y-9521956D01*
X15016284Y-9301337D01*
X14828663Y-9113716D01*
X14608044Y-8966304D01*
X14362906Y-8864764D01*
X14102668Y-8813000D01*
X13837332Y-8813000D01*
X13577094Y-8864764D01*
X13331956Y-8966304D01*
X13111337Y-9113716D01*
X12923716Y-9301337D01*
X12776304Y-9521956D01*
X12700000Y-9706169D01*
X12623696Y-9521956D01*
X12476284Y-9301337D01*
X12288663Y-9113716D01*
X12068044Y-8966304D01*
X11822906Y-8864764D01*
X11562668Y-8813000D01*
X11297332Y-8813000D01*
X11037094Y-8864764D01*
X10791956Y-8966304D01*
X10571337Y-9113716D01*
X10383716Y-9301337D01*
X10236304Y-9521956D01*
X10134764Y-9767094D01*
X10083000Y-10027332D01*
X10083000Y-10292668D01*
X10134764Y-10552906D01*
X10236304Y-10798044D01*
X10242288Y-10807000D01*
X7409079Y-10807000D01*
X7366000Y-10802757D01*
X7194077Y-10819690D01*
X7028763Y-10869838D01*
X6876408Y-10951273D01*
X6742867Y-11060867D01*
X6715403Y-11094332D01*
X6180735Y-11629000D01*
X4730102Y-11629000D01*
X4695396Y-11614624D01*
X4516301Y-11579000D01*
X4333699Y-11579000D01*
X4154604Y-11614624D01*
X3985901Y-11684504D01*
X3834072Y-11785952D01*
X3704952Y-11915072D01*
X3603504Y-12066901D01*
X3544240Y-12209975D01*
X3250594Y-11916329D01*
X3223133Y-11882867D01*
X3137868Y-11812892D01*
X3110928Y-11785952D01*
X2959099Y-11684504D01*
X2790396Y-11614624D01*
X2611301Y-11579000D01*
X2428699Y-11579000D01*
X2249604Y-11614624D01*
X2080901Y-11684504D01*
X1929072Y-11785952D01*
X1799952Y-11915072D01*
X1698504Y-12066901D01*
X1628624Y-12235604D01*
X1593000Y-12414699D01*
X1593000Y-12597301D01*
X1628624Y-12776396D01*
X1698504Y-12945099D01*
X1799952Y-13096928D01*
X1929072Y-13226048D01*
X2080901Y-13327496D01*
X2249604Y-13397376D01*
X2251485Y-13397750D01*
X3159403Y-14305668D01*
X3186867Y-14339133D01*
X3320408Y-14448727D01*
X3472763Y-14530162D01*
X3638078Y-14580310D01*
X3766921Y-14593000D01*
X3766930Y-14593000D01*
X3809999Y-14597242D01*
X3853069Y-14593000D01*
X5707627Y-14593000D01*
X5687000Y-14696699D01*
X5687000Y-14879301D01*
X5722624Y-15058396D01*
X5792504Y-15227099D01*
X5893952Y-15378928D01*
X6023072Y-15508048D01*
X6174901Y-15609496D01*
X6209608Y-15623872D01*
X6218735Y-15633000D01*
X617265Y-15633000D01*
X-688128Y-14327607D01*
X-702504Y-14292901D01*
X-803952Y-14141072D01*
X-933072Y-14011952D01*
X-1084901Y-13910504D01*
X-1253604Y-13840624D01*
X-1432699Y-13805000D01*
X-1615301Y-13805000D01*
X-1794396Y-13840624D01*
X-1963099Y-13910504D01*
X-2114928Y-14011952D01*
X-2244048Y-14141072D01*
X-2345496Y-14292901D01*
X-2415376Y-14461604D01*
X-2451000Y-14640699D01*
X-2451000Y-14823301D01*
X-2415376Y-15002396D01*
X-2345496Y-15171099D01*
X-2244048Y-15322928D01*
X-2114928Y-15452048D01*
X-1963099Y-15553496D01*
X-1928393Y-15567872D01*
X-396597Y-17099668D01*
X-369133Y-17133133D01*
X-235592Y-17242727D01*
X-100161Y-17315116D01*
X-83237Y-17324162D01*
X82077Y-17374310D01*
X254000Y-17391243D01*
X297079Y-17387000D01*
X16076024Y-17387000D01*
X16173072Y-17484048D01*
X16324901Y-17585496D01*
X16493604Y-17655376D01*
X16672699Y-17691000D01*
X16855301Y-17691000D01*
X17034396Y-17655376D01*
X17203099Y-17585496D01*
X17354928Y-17484048D01*
X17484048Y-17354928D01*
X17585496Y-17203099D01*
X17655376Y-17034396D01*
X17691000Y-16855301D01*
X17691000Y-16672699D01*
X17655376Y-16493604D01*
X17585496Y-16324901D01*
X17484048Y-16173072D01*
X17427976Y-16117000D01*
X35958735Y-16117000D01*
X36687408Y-16845674D01*
X36714867Y-16879133D01*
X36848408Y-16988727D01*
X36996974Y-17068137D01*
X37000763Y-17070162D01*
X37166077Y-17120310D01*
X37338000Y-17137243D01*
X37381079Y-17133000D01*
X58622898Y-17133000D01*
X58657604Y-17147376D01*
X58836699Y-17183000D01*
X59019301Y-17183000D01*
X59198396Y-17147376D01*
X59367099Y-17077496D01*
X59518928Y-16976048D01*
X59648048Y-16846928D01*
X59749496Y-16695099D01*
X59819376Y-16526396D01*
X59855000Y-16347301D01*
X59855000Y-16164699D01*
X59819376Y-15985604D01*
X59749496Y-15816901D01*
X59713946Y-15763695D01*
X69760520Y-15763695D01*
X69829822Y-16515938D01*
X70044548Y-17240208D01*
X70396445Y-17908670D01*
X70423452Y-17949088D01*
X70913119Y-18309276D01*
X73434395Y-15788000D01*
X70913119Y-13266724D01*
X70423452Y-13626912D01*
X70063151Y-14290882D01*
X69839306Y-15012385D01*
X69760520Y-15763695D01*
X59713946Y-15763695D01*
X59648048Y-15665072D01*
X59518928Y-15535952D01*
X59367099Y-15434504D01*
X59198396Y-15364624D01*
X59019301Y-15329000D01*
X58836699Y-15329000D01*
X58657604Y-15364624D01*
X58622898Y-15379000D01*
X52653671Y-15379000D01*
X52798931Y-15364693D01*
X53011371Y-15300250D01*
X53207157Y-15195600D01*
X53285872Y-15131000D01*
X54099914Y-15131000D01*
X54167972Y-15186853D01*
X54276897Y-15245075D01*
X54395087Y-15280927D01*
X54518000Y-15293033D01*
X55718000Y-15293033D01*
X55840913Y-15280927D01*
X55959103Y-15245075D01*
X56060357Y-15190953D01*
X56063506Y-15193537D01*
X56173820Y-15252502D01*
X56293518Y-15288812D01*
X56418000Y-15301072D01*
X56732250Y-15298000D01*
X56891000Y-15139250D01*
X56891000Y-14415000D01*
X57145000Y-14415000D01*
X57145000Y-15139250D01*
X57303750Y-15298000D01*
X57618000Y-15301072D01*
X57742482Y-15288812D01*
X57862180Y-15252502D01*
X57972494Y-15193537D01*
X58069185Y-15114185D01*
X58148537Y-15017494D01*
X58207502Y-14907180D01*
X58243812Y-14787482D01*
X58256072Y-14663000D01*
X58253000Y-14573750D01*
X58094250Y-14415000D01*
X57145000Y-14415000D01*
X56891000Y-14415000D01*
X56871000Y-14415000D01*
X56871000Y-14161000D01*
X56891000Y-14161000D01*
X56891000Y-13436750D01*
X57145000Y-13436750D01*
X57145000Y-14161000D01*
X58094250Y-14161000D01*
X58253000Y-14002250D01*
X58256072Y-13913000D01*
X58243812Y-13788518D01*
X58207502Y-13668820D01*
X58148537Y-13558506D01*
X58069185Y-13461815D01*
X57972494Y-13382463D01*
X57862180Y-13323498D01*
X57742482Y-13287188D01*
X57618000Y-13274928D01*
X57303750Y-13278000D01*
X57145000Y-13436750D01*
X56891000Y-13436750D01*
X56732250Y-13278000D01*
X56418000Y-13274928D01*
X56293518Y-13287188D01*
X56173820Y-13323498D01*
X56063506Y-13382463D01*
X56060357Y-13385047D01*
X55959103Y-13330925D01*
X55840913Y-13295073D01*
X55718000Y-13282967D01*
X54518000Y-13282967D01*
X54395087Y-13295073D01*
X54276897Y-13330925D01*
X54190697Y-13377000D01*
X53285872Y-13377000D01*
X53207157Y-13312400D01*
X53011371Y-13207750D01*
X52798931Y-13143307D01*
X52633365Y-13127000D01*
X47764067Y-13127000D01*
X47718930Y-13113308D01*
X47498000Y-13091548D01*
X47312441Y-13109824D01*
X47335146Y-13087119D01*
X71092724Y-13087119D01*
X73614000Y-15608395D01*
X76135276Y-13087119D01*
X75775088Y-12597452D01*
X75111118Y-12237151D01*
X74389615Y-12013306D01*
X73638305Y-11934520D01*
X72886062Y-12003822D01*
X72161792Y-12218548D01*
X71493330Y-12570445D01*
X71452912Y-12597452D01*
X71092724Y-13087119D01*
X47335146Y-13087119D01*
X49385266Y-11037000D01*
X72592898Y-11037000D01*
X72627604Y-11051376D01*
X72806699Y-11087000D01*
X72989301Y-11087000D01*
X73168396Y-11051376D01*
X73337099Y-10981496D01*
X73488928Y-10880048D01*
X73618048Y-10750928D01*
X73719496Y-10599099D01*
X73789376Y-10430396D01*
X73825000Y-10251301D01*
X73825000Y-10068699D01*
X73789376Y-9889604D01*
X73719496Y-9720901D01*
X73618048Y-9569072D01*
X73488928Y-9439952D01*
X73337099Y-9338504D01*
X73168396Y-9268624D01*
X72989301Y-9233000D01*
X72806699Y-9233000D01*
X72627604Y-9268624D01*
X72592898Y-9283000D01*
X49460831Y-9283000D01*
X49742831Y-9001000D01*
X67873365Y-9001000D01*
X68038931Y-8984693D01*
X68251371Y-8920250D01*
X68447157Y-8815600D01*
X68618765Y-8674765D01*
X68626779Y-8665000D01*
X69701344Y-8665000D01*
X69727972Y-8686853D01*
X69836897Y-8745075D01*
X69955087Y-8780927D01*
X70078000Y-8793033D01*
X71278000Y-8793033D01*
X71400913Y-8780927D01*
X71519103Y-8745075D01*
X71620357Y-8690953D01*
X71623506Y-8693537D01*
X71733820Y-8752502D01*
X71853518Y-8788812D01*
X71978000Y-8801072D01*
X72292250Y-8798000D01*
X72451000Y-8639250D01*
X72451000Y-7915000D01*
X72705000Y-7915000D01*
X72705000Y-8639250D01*
X72863750Y-8798000D01*
X73178000Y-8801072D01*
X73302482Y-8788812D01*
X73422180Y-8752502D01*
X73532494Y-8693537D01*
X73629185Y-8614185D01*
X73708537Y-8517494D01*
X73767502Y-8407180D01*
X73803812Y-8287482D01*
X73816072Y-8163000D01*
X73813000Y-8073750D01*
X73654250Y-7915000D01*
X72705000Y-7915000D01*
X72451000Y-7915000D01*
X72431000Y-7915000D01*
X72431000Y-7661000D01*
X72451000Y-7661000D01*
X72451000Y-6936750D01*
X72705000Y-6936750D01*
X72705000Y-7661000D01*
X73654250Y-7661000D01*
X73813000Y-7502250D01*
X73816072Y-7413000D01*
X73803812Y-7288518D01*
X73767502Y-7168820D01*
X73708537Y-7058506D01*
X73629185Y-6961815D01*
X73532494Y-6882463D01*
X73422180Y-6823498D01*
X73302482Y-6787188D01*
X73178000Y-6774928D01*
X72863750Y-6778000D01*
X72705000Y-6936750D01*
X72451000Y-6936750D01*
X72292250Y-6778000D01*
X71978000Y-6774928D01*
X71853518Y-6787188D01*
X71733820Y-6823498D01*
X71623506Y-6882463D01*
X71620357Y-6885047D01*
X71519103Y-6830925D01*
X71400913Y-6795073D01*
X71278000Y-6782967D01*
X70078000Y-6782967D01*
X69955087Y-6795073D01*
X69836897Y-6830925D01*
X69727972Y-6889147D01*
X69701344Y-6911000D01*
X68407120Y-6911000D01*
X68251371Y-6827750D01*
X68038931Y-6763307D01*
X67873365Y-6747000D01*
X64162716Y-6747000D01*
X64173000Y-6695301D01*
X64173000Y-6512699D01*
X64137376Y-6333604D01*
X64067496Y-6164901D01*
X63966048Y-6013072D01*
X63950121Y-5997145D01*
X64407169Y-5540096D01*
X64440633Y-5512633D01*
X64550227Y-5379092D01*
X64631662Y-5226737D01*
X64681810Y-5061422D01*
X64694500Y-4932579D01*
X64694500Y-4932578D01*
X64698743Y-4889501D01*
X64694500Y-4846424D01*
X64694500Y-3683000D01*
X64897000Y-3683000D01*
X64897000Y-4982250D01*
X65055750Y-5141000D01*
X65170000Y-5144072D01*
X65294482Y-5131812D01*
X65414180Y-5095502D01*
X65524494Y-5036537D01*
X65621185Y-4957185D01*
X65700537Y-4860494D01*
X65759502Y-4750180D01*
X65795812Y-4630482D01*
X65808072Y-4506000D01*
X65805000Y-3841750D01*
X65646250Y-3683000D01*
X64897000Y-3683000D01*
X64694500Y-3683000D01*
X64694500Y-3409000D01*
X64897000Y-3409000D01*
X64897000Y-3429000D01*
X65646250Y-3429000D01*
X65805000Y-3270250D01*
X65808072Y-2606000D01*
X65803203Y-2556562D01*
X74086765Y5727000D01*
X74468626Y5727000D01*
X74478073Y5631087D01*
X74478073Y5631087D01*
G37*
X74478073Y5631087D02*
X74513925Y5512897D01*
X74572147Y5403972D01*
X74650499Y5308499D01*
X74745972Y5230147D01*
X74854897Y5171925D01*
X74937332Y5146919D01*
X74896550Y5113450D01*
X74711978Y4888547D01*
X74574828Y4631958D01*
X74490371Y4353543D01*
X74461854Y4064000D01*
X74483720Y3841985D01*
X70784329Y142594D01*
X70750868Y115133D01*
X70723409Y81674D01*
X70723406Y81671D01*
X70641274Y-18408D01*
X70559838Y-170764D01*
X70509690Y-336078D01*
X70492757Y-508000D01*
X70497001Y-551089D01*
X70497000Y-4774898D01*
X70482624Y-4809604D01*
X70447000Y-4988699D01*
X70447000Y-5171301D01*
X70482624Y-5350396D01*
X70552504Y-5519099D01*
X70653952Y-5670928D01*
X70783072Y-5800048D01*
X70934901Y-5901496D01*
X71103604Y-5971376D01*
X71282699Y-6007000D01*
X71465301Y-6007000D01*
X71644396Y-5971376D01*
X71813099Y-5901496D01*
X71964928Y-5800048D01*
X72094048Y-5670928D01*
X72195496Y-5519099D01*
X72265376Y-5350396D01*
X72301000Y-5171301D01*
X72301000Y-4988699D01*
X72265376Y-4809604D01*
X72251000Y-4774898D01*
X72251000Y-1372890D01*
X74504524Y-1372890D01*
X74549175Y-1520099D01*
X74674359Y-1782920D01*
X74848412Y-2016269D01*
X75064645Y-2211178D01*
X75314748Y-2360157D01*
X75589109Y-2457481D01*
X75819000Y-2336814D01*
X75819000Y-1143000D01*
X74625845Y-1143000D01*
X74504524Y-1372890D01*
X72251000Y-1372890D01*
X72251000Y-871265D01*
X74478388Y1356123D01*
X74490371Y1234457D01*
X74574828Y956042D01*
X74711978Y699453D01*
X74896550Y474550D01*
X75121453Y289978D01*
X75189549Y253580D01*
X75064645Y179178D01*
X74848412Y-15731D01*
X74674359Y-249080D01*
X74549175Y-511901D01*
X74504524Y-659110D01*
X74625845Y-889000D01*
X75819000Y-889000D01*
X75819000Y-869000D01*
X76073000Y-869000D01*
X76073000Y-889000D01*
X76093000Y-889000D01*
X76093000Y-1143000D01*
X76073000Y-1143000D01*
X76073000Y-2336814D01*
X76302891Y-2457481D01*
X76487000Y-2392172D01*
X76487000Y-13393331D01*
X76314881Y-13266724D01*
X73793605Y-15788000D01*
X76314881Y-18309276D01*
X76487000Y-18182669D01*
X76487000Y-18661000D01*
X76008669Y-18661000D01*
X76135276Y-18488881D01*
X73614000Y-15967605D01*
X71092724Y-18488881D01*
X71219331Y-18661000D01*
X35350608Y-18661000D01*
X35246995Y-18557387D01*
X35485860Y-18491863D01*
X35601760Y-18244884D01*
X35667250Y-17980040D01*
X35679812Y-17707508D01*
X35638965Y-17437762D01*
X35546277Y-17181168D01*
X35485860Y-17068137D01*
X35246993Y-17002612D01*
X34469605Y-17780000D01*
X34483748Y-17794143D01*
X34304143Y-17973748D01*
X34290000Y-17959605D01*
X34275858Y-17973748D01*
X34096253Y-17794143D01*
X34110395Y-17780000D01*
X33333007Y-17002612D01*
X33094140Y-17068137D01*
X32978240Y-17315116D01*
X32912750Y-17579960D01*
X32900188Y-17852492D01*
X32941035Y-18122238D01*
X33033723Y-18378832D01*
X33094140Y-18491863D01*
X33333005Y-18557387D01*
X33229392Y-18661000D01*
X31956373Y-18661000D01*
X31959586Y-18657787D01*
X32110282Y-18432254D01*
X32214083Y-18181656D01*
X32267000Y-17915623D01*
X32267000Y-17644377D01*
X32214083Y-17378344D01*
X32110282Y-17127746D01*
X31959586Y-16902213D01*
X31880380Y-16823007D01*
X33512612Y-16823007D01*
X34290000Y-17600395D01*
X35067388Y-16823007D01*
X35001863Y-16584140D01*
X34754884Y-16468240D01*
X34490040Y-16402750D01*
X34217508Y-16390188D01*
X33947762Y-16431035D01*
X33691168Y-16523723D01*
X33578137Y-16584140D01*
X33512612Y-16823007D01*
X31880380Y-16823007D01*
X31767787Y-16710414D01*
X31542254Y-16559718D01*
X31291656Y-16455917D01*
X31025623Y-16403000D01*
X30754377Y-16403000D01*
X30488344Y-16455917D01*
X30237746Y-16559718D01*
X30012213Y-16710414D01*
X29820414Y-16902213D01*
X29669718Y-17127746D01*
X29565917Y-17378344D01*
X29513000Y-17644377D01*
X29513000Y-17915623D01*
X29565917Y-18181656D01*
X29669718Y-18432254D01*
X29820414Y-18657787D01*
X29823627Y-18661000D01*
X-5991331Y-18661000D01*
X-5864724Y-18488881D01*
X-8386000Y-15967605D01*
X-10907276Y-18488881D01*
X-10780669Y-18661000D01*
X-11259000Y-18661000D01*
X-11259000Y-18182669D01*
X-11086881Y-18309276D01*
X-8565605Y-15788000D01*
X-8206395Y-15788000D01*
X-5685119Y-18309276D01*
X-5195452Y-17949088D01*
X-4835151Y-17285118D01*
X-4611306Y-16563615D01*
X-4532520Y-15812305D01*
X-4601822Y-15060062D01*
X-4816548Y-14335792D01*
X-5168445Y-13667330D01*
X-5195452Y-13626912D01*
X-5685119Y-13266724D01*
X-8206395Y-15788000D01*
X-8565605Y-15788000D01*
X-8579747Y-15773858D01*
X-8400142Y-15594253D01*
X-8386000Y-15608395D01*
X-5864724Y-13087119D01*
X-6224912Y-12597452D01*
X-6692543Y-12343694D01*
X-6612518Y-12335812D01*
X-6492820Y-12299502D01*
X-6382506Y-12240537D01*
X-6285815Y-12161185D01*
X-6206463Y-12064494D01*
X-6147498Y-11954180D01*
X-6111188Y-11834482D01*
X-6098928Y-11710000D01*
X-6102000Y-11395750D01*
X-6260750Y-11237000D01*
X-6985000Y-11237000D01*
X-6985000Y-11257000D01*
X-7239000Y-11257000D01*
X-7239000Y-11237000D01*
X-7963250Y-11237000D01*
X-8122000Y-11395750D01*
X-8125072Y-11710000D01*
X-8112812Y-11834482D01*
X-8076502Y-11954180D01*
X-8070700Y-11965035D01*
X-8361695Y-11934520D01*
X-9113938Y-12003822D01*
X-9228208Y-12037700D01*
X-9347845Y-11811000D01*
X-10541000Y-11811000D01*
X-10541000Y-11831000D01*
X-10795000Y-11831000D01*
X-10795000Y-11811000D01*
X-10815000Y-11811000D01*
X-10815000Y-11557000D01*
X-10795000Y-11557000D01*
X-10795000Y-11537000D01*
X-10541000Y-11537000D01*
X-10541000Y-11557000D01*
X-9347845Y-11557000D01*
X-9226524Y-11327110D01*
X-9271175Y-11179901D01*
X-9396359Y-10917080D01*
X-9570412Y-10683731D01*
X-9661406Y-10601710D01*
X-9576897Y-10576075D01*
X-9467972Y-10517853D01*
X-9372499Y-10439501D01*
X-9294147Y-10344028D01*
X-9235925Y-10235103D01*
X-9200073Y-10116913D01*
X-9197127Y-10087000D01*
X-8049888Y-10087000D01*
X-8014953Y-10152357D01*
X-8017537Y-10155506D01*
X-8076502Y-10265820D01*
X-8112812Y-10385518D01*
X-8125072Y-10510000D01*
X-8122000Y-10824250D01*
X-7963250Y-10983000D01*
X-7239000Y-10983000D01*
X-7239000Y-10963000D01*
X-6985000Y-10963000D01*
X-6985000Y-10983000D01*
X-6260750Y-10983000D01*
X-6102000Y-10824250D01*
X-6098928Y-10510000D01*
X-6111188Y-10385518D01*
X-6147498Y-10265820D01*
X-6206463Y-10155506D01*
X-6209047Y-10152357D01*
X-6174112Y-10087000D01*
X-5880000Y-10087000D01*
X-5880000Y-10251301D01*
X-5844376Y-10430396D01*
X-5774496Y-10599099D01*
X-5673048Y-10750928D01*
X-5543928Y-10880048D01*
X-5392099Y-10981496D01*
X-5223396Y-11051376D01*
X-5044301Y-11087000D01*
X-4861699Y-11087000D01*
X-4682604Y-11051376D01*
X-4513901Y-10981496D01*
X-4362072Y-10880048D01*
X-4232952Y-10750928D01*
X-4131504Y-10599099D01*
X-4061624Y-10430396D01*
X-4026000Y-10251301D01*
X-4026000Y-10068699D01*
X-4061624Y-9889604D01*
X-4076000Y-9854898D01*
X-4076000Y-9060070D01*
X-4071758Y-9017001D01*
X-4076000Y-8973931D01*
X-4076000Y-6586265D01*
X-1487735Y-3998000D01*
X1915547Y-3998000D01*
X1937307Y-4218931D01*
X2001750Y-4431371D01*
X2042967Y-4508482D01*
X2042967Y-4598000D01*
X2055073Y-4720913D01*
X2090925Y-4839103D01*
X2149147Y-4948028D01*
X2227499Y-5043501D01*
X2322972Y-5121853D01*
X2431897Y-5180075D01*
X2550087Y-5215927D01*
X2673000Y-5228033D01*
X3423000Y-5228033D01*
X3545913Y-5215927D01*
X3664103Y-5180075D01*
X3767140Y-5125000D01*
X4614860Y-5125000D01*
X4717897Y-5180075D01*
X4836087Y-5215927D01*
X4959000Y-5228033D01*
X5709000Y-5228033D01*
X5831913Y-5215927D01*
X5950103Y-5180075D01*
X6053140Y-5125000D01*
X8865182Y-5125000D01*
X11797946Y-8057765D01*
X11833236Y-8100766D01*
X11876237Y-8136056D01*
X11876240Y-8136059D01*
X11957612Y-8202839D01*
X12004844Y-8241601D01*
X12041234Y-8261052D01*
X12216240Y-8436058D01*
X12344844Y-8541600D01*
X12540630Y-8646250D01*
X12753069Y-8710693D01*
X12974000Y-8732452D01*
X13194930Y-8710693D01*
X13407371Y-8646250D01*
X13603156Y-8541600D01*
X13774765Y-8400765D01*
X13915600Y-8229156D01*
X14020250Y-8033371D01*
X14084693Y-7820930D01*
X14106452Y-7600000D01*
X14084693Y-7379069D01*
X14020250Y-7166630D01*
X13915600Y-6970844D01*
X13810058Y-6842240D01*
X13510058Y-6542240D01*
X13474766Y-6499236D01*
X13303158Y-6358401D01*
X13266770Y-6338951D01*
X10168059Y-3240241D01*
X10132765Y-3197235D01*
X9961157Y-3056400D01*
X9765371Y-2951750D01*
X9552931Y-2887307D01*
X9387365Y-2871000D01*
X9387354Y-2871000D01*
X9332000Y-2865548D01*
X9276646Y-2871000D01*
X6320094Y-2871000D01*
X6334812Y-2822482D01*
X6347072Y-2698000D01*
X6344000Y-2383750D01*
X6185250Y-2225000D01*
X5461000Y-2225000D01*
X5461000Y-2245000D01*
X5207000Y-2245000D01*
X5207000Y-2225000D01*
X4482750Y-2225000D01*
X4324000Y-2383750D01*
X4320928Y-2698000D01*
X4333188Y-2822482D01*
X4347906Y-2871000D01*
X4034094Y-2871000D01*
X4048812Y-2822482D01*
X4061072Y-2698000D01*
X4058000Y-2383750D01*
X3899250Y-2225000D01*
X3175000Y-2225000D01*
X3175000Y-2245000D01*
X2921000Y-2245000D01*
X2921000Y-2225000D01*
X2196750Y-2225000D01*
X2038000Y-2383750D01*
X2034928Y-2698000D01*
X2047188Y-2822482D01*
X2083498Y-2942180D01*
X2142463Y-3052494D01*
X2145047Y-3055643D01*
X2090925Y-3156897D01*
X2055073Y-3275087D01*
X2042967Y-3398000D01*
X2042967Y-3487518D01*
X2001750Y-3564629D01*
X1937307Y-3777069D01*
X1915547Y-3998000D01*
X-1487735Y-3998000D01*
X1012265Y-1498000D01*
X2034928Y-1498000D01*
X2038000Y-1812250D01*
X2196750Y-1971000D01*
X2921000Y-1971000D01*
X2921000Y-1021750D01*
X3175000Y-1021750D01*
X3175000Y-1971000D01*
X3899250Y-1971000D01*
X4058000Y-1812250D01*
X4061072Y-1498000D01*
X4320928Y-1498000D01*
X4324000Y-1812250D01*
X4482750Y-1971000D01*
X5207000Y-1971000D01*
X5207000Y-1021750D01*
X5461000Y-1021750D01*
X5461000Y-1971000D01*
X6185250Y-1971000D01*
X6344000Y-1812250D01*
X6347072Y-1498000D01*
X6334812Y-1373518D01*
X6298502Y-1253820D01*
X6239537Y-1143506D01*
X6160185Y-1046815D01*
X6063494Y-967463D01*
X5953180Y-908498D01*
X5833482Y-872188D01*
X5709000Y-859928D01*
X5619750Y-863000D01*
X5461000Y-1021750D01*
X5207000Y-1021750D01*
X5048250Y-863000D01*
X4959000Y-859928D01*
X4834518Y-872188D01*
X4714820Y-908498D01*
X4604506Y-967463D01*
X4507815Y-1046815D01*
X4428463Y-1143506D01*
X4369498Y-1253820D01*
X4333188Y-1373518D01*
X4320928Y-1498000D01*
X4061072Y-1498000D01*
X4048812Y-1373518D01*
X4012502Y-1253820D01*
X3953537Y-1143506D01*
X3874185Y-1046815D01*
X3777494Y-967463D01*
X3667180Y-908498D01*
X3547482Y-872188D01*
X3423000Y-859928D01*
X3333750Y-863000D01*
X3175000Y-1021750D01*
X2921000Y-1021750D01*
X2762250Y-863000D01*
X2673000Y-859928D01*
X2548518Y-872188D01*
X2428820Y-908498D01*
X2318506Y-967463D01*
X2221815Y-1046815D01*
X2142463Y-1143506D01*
X2083498Y-1253820D01*
X2047188Y-1373518D01*
X2034928Y-1498000D01*
X1012265Y-1498000D01*
X4295265Y1785000D01*
X4440755Y1785000D01*
X4407000Y1615301D01*
X4407000Y1432699D01*
X4442624Y1253604D01*
X4512504Y1084901D01*
X4613952Y933072D01*
X4743072Y803952D01*
X4894901Y702504D01*
X4929607Y688128D01*
X6715406Y-1097672D01*
X6742867Y-1131133D01*
X6776326Y-1158592D01*
X6776328Y-1158594D01*
X6810665Y-1186773D01*
X6876408Y-1240727D01*
X7016138Y-1315414D01*
X7028763Y-1322162D01*
X7194077Y-1372310D01*
X7366000Y-1389243D01*
X7409079Y-1385000D01*
X10050735Y-1385000D01*
X13979757Y-5314022D01*
X13887072Y-5375952D01*
X13757952Y-5505072D01*
X13656504Y-5656901D01*
X13586624Y-5825604D01*
X13551000Y-6004699D01*
X13551000Y-6187301D01*
X13586624Y-6366396D01*
X13656504Y-6535099D01*
X13757952Y-6686928D01*
X13887072Y-6816048D01*
X14038901Y-6917496D01*
X14073607Y-6931872D01*
X16038891Y-8897157D01*
X15871956Y-8966304D01*
X15651337Y-9113716D01*
X15463716Y-9301337D01*
X15316304Y-9521956D01*
X15240000Y-9706169D01*
X15163696Y-9521956D01*
X15016284Y-9301337D01*
X14828663Y-9113716D01*
X14608044Y-8966304D01*
X14362906Y-8864764D01*
X14102668Y-8813000D01*
X13837332Y-8813000D01*
X13577094Y-8864764D01*
X13331956Y-8966304D01*
X13111337Y-9113716D01*
X12923716Y-9301337D01*
X12776304Y-9521956D01*
X12700000Y-9706169D01*
X12623696Y-9521956D01*
X12476284Y-9301337D01*
X12288663Y-9113716D01*
X12068044Y-8966304D01*
X11822906Y-8864764D01*
X11562668Y-8813000D01*
X11297332Y-8813000D01*
X11037094Y-8864764D01*
X10791956Y-8966304D01*
X10571337Y-9113716D01*
X10383716Y-9301337D01*
X10236304Y-9521956D01*
X10134764Y-9767094D01*
X10083000Y-10027332D01*
X10083000Y-10292668D01*
X10134764Y-10552906D01*
X10236304Y-10798044D01*
X10242288Y-10807000D01*
X7409079Y-10807000D01*
X7366000Y-10802757D01*
X7194077Y-10819690D01*
X7028763Y-10869838D01*
X6876408Y-10951273D01*
X6742867Y-11060867D01*
X6715403Y-11094332D01*
X6180735Y-11629000D01*
X4730102Y-11629000D01*
X4695396Y-11614624D01*
X4516301Y-11579000D01*
X4333699Y-11579000D01*
X4154604Y-11614624D01*
X3985901Y-11684504D01*
X3834072Y-11785952D01*
X3704952Y-11915072D01*
X3603504Y-12066901D01*
X3544240Y-12209975D01*
X3250594Y-11916329D01*
X3223133Y-11882867D01*
X3137868Y-11812892D01*
X3110928Y-11785952D01*
X2959099Y-11684504D01*
X2790396Y-11614624D01*
X2611301Y-11579000D01*
X2428699Y-11579000D01*
X2249604Y-11614624D01*
X2080901Y-11684504D01*
X1929072Y-11785952D01*
X1799952Y-11915072D01*
X1698504Y-12066901D01*
X1628624Y-12235604D01*
X1593000Y-12414699D01*
X1593000Y-12597301D01*
X1628624Y-12776396D01*
X1698504Y-12945099D01*
X1799952Y-13096928D01*
X1929072Y-13226048D01*
X2080901Y-13327496D01*
X2249604Y-13397376D01*
X2251485Y-13397750D01*
X3159403Y-14305668D01*
X3186867Y-14339133D01*
X3320408Y-14448727D01*
X3472763Y-14530162D01*
X3638078Y-14580310D01*
X3766921Y-14593000D01*
X3766930Y-14593000D01*
X3809999Y-14597242D01*
X3853069Y-14593000D01*
X5707627Y-14593000D01*
X5687000Y-14696699D01*
X5687000Y-14879301D01*
X5722624Y-15058396D01*
X5792504Y-15227099D01*
X5893952Y-15378928D01*
X6023072Y-15508048D01*
X6174901Y-15609496D01*
X6209608Y-15623872D01*
X6218735Y-15633000D01*
X617265Y-15633000D01*
X-688128Y-14327607D01*
X-702504Y-14292901D01*
X-803952Y-14141072D01*
X-933072Y-14011952D01*
X-1084901Y-13910504D01*
X-1253604Y-13840624D01*
X-1432699Y-13805000D01*
X-1615301Y-13805000D01*
X-1794396Y-13840624D01*
X-1963099Y-13910504D01*
X-2114928Y-14011952D01*
X-2244048Y-14141072D01*
X-2345496Y-14292901D01*
X-2415376Y-14461604D01*
X-2451000Y-14640699D01*
X-2451000Y-14823301D01*
X-2415376Y-15002396D01*
X-2345496Y-15171099D01*
X-2244048Y-15322928D01*
X-2114928Y-15452048D01*
X-1963099Y-15553496D01*
X-1928393Y-15567872D01*
X-396597Y-17099668D01*
X-369133Y-17133133D01*
X-235592Y-17242727D01*
X-100161Y-17315116D01*
X-83237Y-17324162D01*
X82077Y-17374310D01*
X254000Y-17391243D01*
X297079Y-17387000D01*
X16076024Y-17387000D01*
X16173072Y-17484048D01*
X16324901Y-17585496D01*
X16493604Y-17655376D01*
X16672699Y-17691000D01*
X16855301Y-17691000D01*
X17034396Y-17655376D01*
X17203099Y-17585496D01*
X17354928Y-17484048D01*
X17484048Y-17354928D01*
X17585496Y-17203099D01*
X17655376Y-17034396D01*
X17691000Y-16855301D01*
X17691000Y-16672699D01*
X17655376Y-16493604D01*
X17585496Y-16324901D01*
X17484048Y-16173072D01*
X17427976Y-16117000D01*
X35958735Y-16117000D01*
X36687408Y-16845674D01*
X36714867Y-16879133D01*
X36848408Y-16988727D01*
X36996974Y-17068137D01*
X37000763Y-17070162D01*
X37166077Y-17120310D01*
X37338000Y-17137243D01*
X37381079Y-17133000D01*
X58622898Y-17133000D01*
X58657604Y-17147376D01*
X58836699Y-17183000D01*
X59019301Y-17183000D01*
X59198396Y-17147376D01*
X59367099Y-17077496D01*
X59518928Y-16976048D01*
X59648048Y-16846928D01*
X59749496Y-16695099D01*
X59819376Y-16526396D01*
X59855000Y-16347301D01*
X59855000Y-16164699D01*
X59819376Y-15985604D01*
X59749496Y-15816901D01*
X59713946Y-15763695D01*
X69760520Y-15763695D01*
X69829822Y-16515938D01*
X70044548Y-17240208D01*
X70396445Y-17908670D01*
X70423452Y-17949088D01*
X70913119Y-18309276D01*
X73434395Y-15788000D01*
X70913119Y-13266724D01*
X70423452Y-13626912D01*
X70063151Y-14290882D01*
X69839306Y-15012385D01*
X69760520Y-15763695D01*
X59713946Y-15763695D01*
X59648048Y-15665072D01*
X59518928Y-15535952D01*
X59367099Y-15434504D01*
X59198396Y-15364624D01*
X59019301Y-15329000D01*
X58836699Y-15329000D01*
X58657604Y-15364624D01*
X58622898Y-15379000D01*
X52653671Y-15379000D01*
X52798931Y-15364693D01*
X53011371Y-15300250D01*
X53207157Y-15195600D01*
X53285872Y-15131000D01*
X54099914Y-15131000D01*
X54167972Y-15186853D01*
X54276897Y-15245075D01*
X54395087Y-15280927D01*
X54518000Y-15293033D01*
X55718000Y-15293033D01*
X55840913Y-15280927D01*
X55959103Y-15245075D01*
X56060357Y-15190953D01*
X56063506Y-15193537D01*
X56173820Y-15252502D01*
X56293518Y-15288812D01*
X56418000Y-15301072D01*
X56732250Y-15298000D01*
X56891000Y-15139250D01*
X56891000Y-14415000D01*
X57145000Y-14415000D01*
X57145000Y-15139250D01*
X57303750Y-15298000D01*
X57618000Y-15301072D01*
X57742482Y-15288812D01*
X57862180Y-15252502D01*
X57972494Y-15193537D01*
X58069185Y-15114185D01*
X58148537Y-15017494D01*
X58207502Y-14907180D01*
X58243812Y-14787482D01*
X58256072Y-14663000D01*
X58253000Y-14573750D01*
X58094250Y-14415000D01*
X57145000Y-14415000D01*
X56891000Y-14415000D01*
X56871000Y-14415000D01*
X56871000Y-14161000D01*
X56891000Y-14161000D01*
X56891000Y-13436750D01*
X57145000Y-13436750D01*
X57145000Y-14161000D01*
X58094250Y-14161000D01*
X58253000Y-14002250D01*
X58256072Y-13913000D01*
X58243812Y-13788518D01*
X58207502Y-13668820D01*
X58148537Y-13558506D01*
X58069185Y-13461815D01*
X57972494Y-13382463D01*
X57862180Y-13323498D01*
X57742482Y-13287188D01*
X57618000Y-13274928D01*
X57303750Y-13278000D01*
X57145000Y-13436750D01*
X56891000Y-13436750D01*
X56732250Y-13278000D01*
X56418000Y-13274928D01*
X56293518Y-13287188D01*
X56173820Y-13323498D01*
X56063506Y-13382463D01*
X56060357Y-13385047D01*
X55959103Y-13330925D01*
X55840913Y-13295073D01*
X55718000Y-13282967D01*
X54518000Y-13282967D01*
X54395087Y-13295073D01*
X54276897Y-13330925D01*
X54190697Y-13377000D01*
X53285872Y-13377000D01*
X53207157Y-13312400D01*
X53011371Y-13207750D01*
X52798931Y-13143307D01*
X52633365Y-13127000D01*
X47764067Y-13127000D01*
X47718930Y-13113308D01*
X47498000Y-13091548D01*
X47312441Y-13109824D01*
X47335146Y-13087119D01*
X71092724Y-13087119D01*
X73614000Y-15608395D01*
X76135276Y-13087119D01*
X75775088Y-12597452D01*
X75111118Y-12237151D01*
X74389615Y-12013306D01*
X73638305Y-11934520D01*
X72886062Y-12003822D01*
X72161792Y-12218548D01*
X71493330Y-12570445D01*
X71452912Y-12597452D01*
X71092724Y-13087119D01*
X47335146Y-13087119D01*
X49385266Y-11037000D01*
X72592898Y-11037000D01*
X72627604Y-11051376D01*
X72806699Y-11087000D01*
X72989301Y-11087000D01*
X73168396Y-11051376D01*
X73337099Y-10981496D01*
X73488928Y-10880048D01*
X73618048Y-10750928D01*
X73719496Y-10599099D01*
X73789376Y-10430396D01*
X73825000Y-10251301D01*
X73825000Y-10068699D01*
X73789376Y-9889604D01*
X73719496Y-9720901D01*
X73618048Y-9569072D01*
X73488928Y-9439952D01*
X73337099Y-9338504D01*
X73168396Y-9268624D01*
X72989301Y-9233000D01*
X72806699Y-9233000D01*
X72627604Y-9268624D01*
X72592898Y-9283000D01*
X49460831Y-9283000D01*
X49742831Y-9001000D01*
X67873365Y-9001000D01*
X68038931Y-8984693D01*
X68251371Y-8920250D01*
X68447157Y-8815600D01*
X68618765Y-8674765D01*
X68626779Y-8665000D01*
X69701344Y-8665000D01*
X69727972Y-8686853D01*
X69836897Y-8745075D01*
X69955087Y-8780927D01*
X70078000Y-8793033D01*
X71278000Y-8793033D01*
X71400913Y-8780927D01*
X71519103Y-8745075D01*
X71620357Y-8690953D01*
X71623506Y-8693537D01*
X71733820Y-8752502D01*
X71853518Y-8788812D01*
X71978000Y-8801072D01*
X72292250Y-8798000D01*
X72451000Y-8639250D01*
X72451000Y-7915000D01*
X72705000Y-7915000D01*
X72705000Y-8639250D01*
X72863750Y-8798000D01*
X73178000Y-8801072D01*
X73302482Y-8788812D01*
X73422180Y-8752502D01*
X73532494Y-8693537D01*
X73629185Y-8614185D01*
X73708537Y-8517494D01*
X73767502Y-8407180D01*
X73803812Y-8287482D01*
X73816072Y-8163000D01*
X73813000Y-8073750D01*
X73654250Y-7915000D01*
X72705000Y-7915000D01*
X72451000Y-7915000D01*
X72431000Y-7915000D01*
X72431000Y-7661000D01*
X72451000Y-7661000D01*
X72451000Y-6936750D01*
X72705000Y-6936750D01*
X72705000Y-7661000D01*
X73654250Y-7661000D01*
X73813000Y-7502250D01*
X73816072Y-7413000D01*
X73803812Y-7288518D01*
X73767502Y-7168820D01*
X73708537Y-7058506D01*
X73629185Y-6961815D01*
X73532494Y-6882463D01*
X73422180Y-6823498D01*
X73302482Y-6787188D01*
X73178000Y-6774928D01*
X72863750Y-6778000D01*
X72705000Y-6936750D01*
X72451000Y-6936750D01*
X72292250Y-6778000D01*
X71978000Y-6774928D01*
X71853518Y-6787188D01*
X71733820Y-6823498D01*
X71623506Y-6882463D01*
X71620357Y-6885047D01*
X71519103Y-6830925D01*
X71400913Y-6795073D01*
X71278000Y-6782967D01*
X70078000Y-6782967D01*
X69955087Y-6795073D01*
X69836897Y-6830925D01*
X69727972Y-6889147D01*
X69701344Y-6911000D01*
X68407120Y-6911000D01*
X68251371Y-6827750D01*
X68038931Y-6763307D01*
X67873365Y-6747000D01*
X64162716Y-6747000D01*
X64173000Y-6695301D01*
X64173000Y-6512699D01*
X64137376Y-6333604D01*
X64067496Y-6164901D01*
X63966048Y-6013072D01*
X63950121Y-5997145D01*
X64407169Y-5540096D01*
X64440633Y-5512633D01*
X64550227Y-5379092D01*
X64631662Y-5226737D01*
X64681810Y-5061422D01*
X64694500Y-4932579D01*
X64694500Y-4932578D01*
X64698743Y-4889501D01*
X64694500Y-4846424D01*
X64694500Y-3683000D01*
X64897000Y-3683000D01*
X64897000Y-4982250D01*
X65055750Y-5141000D01*
X65170000Y-5144072D01*
X65294482Y-5131812D01*
X65414180Y-5095502D01*
X65524494Y-5036537D01*
X65621185Y-4957185D01*
X65700537Y-4860494D01*
X65759502Y-4750180D01*
X65795812Y-4630482D01*
X65808072Y-4506000D01*
X65805000Y-3841750D01*
X65646250Y-3683000D01*
X64897000Y-3683000D01*
X64694500Y-3683000D01*
X64694500Y-3409000D01*
X64897000Y-3409000D01*
X64897000Y-3429000D01*
X65646250Y-3429000D01*
X65805000Y-3270250D01*
X65808072Y-2606000D01*
X65803203Y-2556562D01*
X74086765Y5727000D01*
X74468626Y5727000D01*
X74478073Y5631087D01*
G36*
X71092724Y18912881D02*
G01*
X73614000Y16391605D01*
X76135276Y18912881D01*
X76008669Y19085000D01*
X76487000Y19085000D01*
X76487000Y18606669D01*
X76314881Y18733276D01*
X73793605Y16212000D01*
X76314881Y13690724D01*
X76487000Y13817331D01*
X76487000Y11887228D01*
X76447037Y11935923D01*
X76229748Y12114248D01*
X75981845Y12246755D01*
X75712855Y12328352D01*
X75503212Y12349000D01*
X75363016Y12349000D01*
X75153373Y12328352D01*
X74884383Y12246755D01*
X74636480Y12114248D01*
X74559203Y12050828D01*
X74540645Y12049000D01*
X74540635Y12049000D01*
X74375069Y12032693D01*
X74162629Y11968250D01*
X73982476Y11871956D01*
X73966843Y11863600D01*
X73838239Y11758058D01*
X73838236Y11758055D01*
X73795235Y11722765D01*
X73759945Y11679764D01*
X71677807Y9597626D01*
X71586048Y9734954D01*
X71456928Y9864074D01*
X71305099Y9965522D01*
X71136396Y10035402D01*
X70957301Y10071026D01*
X70774699Y10071026D01*
X70595604Y10035402D01*
X70553321Y10017888D01*
X70456079Y10008310D01*
X70290851Y9958188D01*
X70290765Y9958162D01*
X70138410Y9876727D01*
X70138408Y9876726D01*
X70138409Y9876726D01*
X70071691Y9821972D01*
X70004869Y9767133D01*
X69977410Y9733674D01*
X66908033Y6664296D01*
X66908033Y7604000D01*
X66895927Y7726913D01*
X66860075Y7845103D01*
X66801853Y7954028D01*
X66723501Y8049501D01*
X66628028Y8127853D01*
X66519103Y8186075D01*
X66405000Y8220687D01*
X66405000Y10201182D01*
X69223469Y13019650D01*
X69289884Y13030615D01*
X69405476Y13074121D01*
X69510360Y13139341D01*
X69600504Y13223770D01*
X69672445Y13324163D01*
X69780384Y13511119D01*
X71092724Y13511119D01*
X71452912Y13021452D01*
X72116882Y12661151D01*
X72838385Y12437306D01*
X73589695Y12358520D01*
X74341938Y12427822D01*
X75066208Y12642548D01*
X75734670Y12994445D01*
X75775088Y13021452D01*
X76135276Y13511119D01*
X73614000Y16032395D01*
X71092724Y13511119D01*
X69780384Y13511119D01*
X70262391Y14345979D01*
X70396445Y14091330D01*
X70423452Y14050912D01*
X70913119Y13690724D01*
X73434395Y16212000D01*
X70913119Y18733276D01*
X70423452Y18373088D01*
X70063151Y17709118D01*
X69839306Y16987615D01*
X69760520Y16236305D01*
X69798271Y15826538D01*
X68856197Y16370445D01*
X68743698Y16421417D01*
X68623416Y16449463D01*
X68499974Y16453504D01*
X68378116Y16433385D01*
X68262524Y16389879D01*
X68157640Y16324659D01*
X68067496Y16240230D01*
X67995555Y16139837D01*
X67195555Y14754197D01*
X67144583Y14641698D01*
X67116537Y14521416D01*
X67112496Y14397974D01*
X67132615Y14276116D01*
X67176121Y14160524D01*
X67176345Y14160164D01*
X64520241Y11504059D01*
X64477235Y11468765D01*
X64336400Y11297157D01*
X64231750Y11101370D01*
X64167307Y10888930D01*
X64151000Y10723364D01*
X64151000Y10723354D01*
X64145548Y10668000D01*
X64151000Y10612645D01*
X64151001Y8220687D01*
X64036897Y8186075D01*
X63927972Y8127853D01*
X63832499Y8049501D01*
X63754147Y7954028D01*
X63695925Y7845103D01*
X63661313Y7731000D01*
X54568819Y7731000D01*
X52652059Y9647759D01*
X52616765Y9690765D01*
X52445157Y9831600D01*
X52249371Y9936250D01*
X52036931Y10000693D01*
X51871365Y10017000D01*
X51871354Y10017000D01*
X51816000Y10022452D01*
X51760646Y10017000D01*
X49687925Y10017000D01*
X49551152Y10153773D01*
X49284673Y10331828D01*
X48988578Y10454475D01*
X48674245Y10517000D01*
X48353755Y10517000D01*
X48039422Y10454475D01*
X47743327Y10331828D01*
X47476848Y10153773D01*
X47250227Y9927152D01*
X47072172Y9660673D01*
X46949525Y9364578D01*
X46887000Y9050245D01*
X46887000Y8729755D01*
X46949525Y8415422D01*
X47072172Y8119327D01*
X47250227Y7852848D01*
X47476848Y7626227D01*
X47743327Y7448172D01*
X48039422Y7325525D01*
X48353755Y7263000D01*
X48674245Y7263000D01*
X48988578Y7325525D01*
X49284673Y7448172D01*
X49551152Y7626227D01*
X49687925Y7763000D01*
X51349182Y7763000D01*
X53265945Y5846236D01*
X53301235Y5803235D01*
X53344236Y5767945D01*
X53344239Y5767942D01*
X53423211Y5703132D01*
X53472843Y5662400D01*
X53668629Y5557750D01*
X53881069Y5493307D01*
X54046635Y5477000D01*
X54046645Y5477000D01*
X54101999Y5471548D01*
X54157354Y5477000D01*
X63661313Y5477000D01*
X63695925Y5362897D01*
X63754147Y5253972D01*
X63832499Y5158499D01*
X63927972Y5080147D01*
X64036897Y5021925D01*
X64155087Y4986073D01*
X64278000Y4973967D01*
X65217704Y4973967D01*
X64168737Y3925000D01*
X52482836Y3925000D01*
X52611450Y4030550D01*
X52796022Y4255453D01*
X52933172Y4512042D01*
X53017629Y4790457D01*
X53046146Y5080000D01*
X53017629Y5369543D01*
X52933172Y5647958D01*
X52796022Y5904547D01*
X52611450Y6129450D01*
X52386547Y6314022D01*
X52129958Y6451172D01*
X51851543Y6535629D01*
X51634556Y6557000D01*
X51489444Y6557000D01*
X51272457Y6535629D01*
X50994042Y6451172D01*
X50737453Y6314022D01*
X50512550Y6129450D01*
X50327978Y5904547D01*
X50292000Y5837237D01*
X50256022Y5904547D01*
X50071450Y6129450D01*
X49846547Y6314022D01*
X49589958Y6451172D01*
X49311543Y6535629D01*
X49094556Y6557000D01*
X48949444Y6557000D01*
X48732457Y6535629D01*
X48454042Y6451172D01*
X48197453Y6314022D01*
X47972550Y6129450D01*
X47939081Y6088668D01*
X47914075Y6171103D01*
X47855853Y6280028D01*
X47777501Y6375501D01*
X47682028Y6453853D01*
X47573103Y6512075D01*
X47454913Y6547927D01*
X47332000Y6560033D01*
X45632000Y6560033D01*
X45509087Y6547927D01*
X45390897Y6512075D01*
X45281972Y6453853D01*
X45224847Y6406972D01*
X43713000Y7918818D01*
X43713000Y14113000D01*
X47031183Y14113000D01*
X47248240Y13895943D01*
X47376843Y13790400D01*
X47572628Y13685751D01*
X47785069Y13621308D01*
X48005999Y13599548D01*
X48226930Y13621308D01*
X48439370Y13685751D01*
X48635156Y13790400D01*
X48806764Y13931236D01*
X48947600Y14102844D01*
X49017703Y14234000D01*
X62351967Y14234000D01*
X62351967Y12634000D01*
X62364073Y12511087D01*
X62399925Y12392897D01*
X62458147Y12283972D01*
X62536499Y12188499D01*
X62631972Y12110147D01*
X62740897Y12051925D01*
X62859087Y12016073D01*
X62982000Y12003967D01*
X64582000Y12003967D01*
X64704913Y12016073D01*
X64823103Y12051925D01*
X64932028Y12110147D01*
X65027501Y12188499D01*
X65105853Y12283972D01*
X65164075Y12392897D01*
X65199927Y12511087D01*
X65212033Y12634000D01*
X65212033Y14234000D01*
X65199927Y14356913D01*
X65164075Y14475103D01*
X65105853Y14584028D01*
X65027501Y14679501D01*
X64932028Y14757853D01*
X64823103Y14816075D01*
X64704913Y14851927D01*
X64582000Y14864033D01*
X64572427Y14864033D01*
X64595097Y14941298D01*
X63782000Y15754395D01*
X62968903Y14941298D01*
X62991573Y14864033D01*
X62982000Y14864033D01*
X62859087Y14851927D01*
X62740897Y14816075D01*
X62631972Y14757853D01*
X62536499Y14679501D01*
X62458147Y14584028D01*
X62399925Y14475103D01*
X62364073Y14356913D01*
X62351967Y14234000D01*
X49017703Y14234000D01*
X49052249Y14298630D01*
X49116692Y14511070D01*
X49138452Y14732001D01*
X49116692Y14952931D01*
X49052249Y15165372D01*
X48947600Y15361157D01*
X48842057Y15489760D01*
X48468330Y15863488D01*
X62341783Y15863488D01*
X62383213Y15583870D01*
X62478397Y15317708D01*
X62545329Y15192486D01*
X62789298Y15120903D01*
X63602395Y15934000D01*
X63961605Y15934000D01*
X64774702Y15120903D01*
X65018671Y15192486D01*
X65139571Y15447996D01*
X65208300Y15722184D01*
X65222217Y16004512D01*
X65180787Y16284130D01*
X65085603Y16550292D01*
X65018671Y16675514D01*
X64774702Y16747097D01*
X63961605Y15934000D01*
X63602395Y15934000D01*
X62789298Y16747097D01*
X62545329Y16675514D01*
X62424429Y16420004D01*
X62355700Y16145816D01*
X62341783Y15863488D01*
X48468330Y15863488D01*
X48334060Y15997758D01*
X48298765Y16040765D01*
X48127157Y16181600D01*
X47931371Y16286250D01*
X47718931Y16350693D01*
X47553365Y16367000D01*
X47553354Y16367000D01*
X47498000Y16372452D01*
X47442646Y16367000D01*
X42641365Y16367000D01*
X42586000Y16372453D01*
X42530636Y16367000D01*
X36631354Y16367000D01*
X36575999Y16372452D01*
X36520645Y16367000D01*
X36520635Y16367000D01*
X36355069Y16350693D01*
X36350000Y16349155D01*
X36350000Y16402002D01*
X36182735Y16402002D01*
X36309268Y16572938D01*
X36239603Y16761150D01*
X36137912Y16926702D01*
X62968903Y16926702D01*
X63782000Y16113605D01*
X64595097Y16926702D01*
X64523514Y17170671D01*
X64268004Y17291571D01*
X63993816Y17360300D01*
X63711488Y17374217D01*
X63431870Y17332787D01*
X63165708Y17237603D01*
X63040486Y17170671D01*
X62968903Y16926702D01*
X36137912Y16926702D01*
X36125553Y16946822D01*
X35977471Y17106676D01*
X35801049Y17234569D01*
X35603066Y17325586D01*
X35391131Y17376230D01*
X35217000Y17227564D01*
X35217000Y16402000D01*
X35237000Y16402000D01*
X35237000Y16148000D01*
X35217000Y16148000D01*
X35217000Y16128000D01*
X34963000Y16128000D01*
X34963000Y16148000D01*
X33997266Y16148000D01*
X33870732Y15977062D01*
X33940397Y15788850D01*
X34054447Y15603178D01*
X34202529Y15443324D01*
X34378951Y15315431D01*
X34576934Y15224414D01*
X34788869Y15173770D01*
X34962998Y15322434D01*
X34962998Y15220817D01*
X30586241Y10844059D01*
X30543235Y10808765D01*
X30402400Y10637157D01*
X30297750Y10441370D01*
X30233307Y10228930D01*
X30228594Y10181082D01*
X30109978Y10036547D01*
X30081445Y9983165D01*
X29832397Y10060792D01*
X28983605Y9212000D01*
X29832397Y8363208D01*
X30081445Y8440835D01*
X30109978Y8387453D01*
X30294550Y8162550D01*
X30519453Y7977978D01*
X30776042Y7840828D01*
X31054457Y7756371D01*
X31271444Y7735000D01*
X31416556Y7735000D01*
X31633543Y7756371D01*
X31911958Y7840828D01*
X32168547Y7977978D01*
X32393450Y8162550D01*
X32578022Y8387453D01*
X32614000Y8454763D01*
X32649978Y8387453D01*
X32834550Y8162550D01*
X33059453Y7977978D01*
X33316042Y7840828D01*
X33594457Y7756371D01*
X33811444Y7735000D01*
X33956556Y7735000D01*
X34106015Y7749720D01*
X36349403Y5506332D01*
X36376867Y5472867D01*
X36510408Y5363273D01*
X36662763Y5281838D01*
X36828078Y5231690D01*
X36956921Y5219000D01*
X36956930Y5219000D01*
X36999999Y5214758D01*
X37043069Y5219000D01*
X39514735Y5219000D01*
X39542735Y5191000D01*
X38343365Y5191000D01*
X38288000Y5196453D01*
X38232636Y5191000D01*
X38232635Y5191000D01*
X38067069Y5174693D01*
X37854629Y5110250D01*
X37777518Y5069033D01*
X37688000Y5069033D01*
X37565087Y5056927D01*
X37446897Y5021075D01*
X37345643Y4966953D01*
X37342494Y4969537D01*
X37232180Y5028502D01*
X37112482Y5064812D01*
X36988000Y5077072D01*
X36673750Y5074000D01*
X36515000Y4915250D01*
X36515000Y4191000D01*
X36535000Y4191000D01*
X36535000Y3937000D01*
X36515000Y3937000D01*
X36515000Y3212750D01*
X36673750Y3054000D01*
X36765286Y3053105D01*
X34839182Y1127000D01*
X32313357Y1127000D01*
X32258000Y1132452D01*
X32202643Y1127000D01*
X32202635Y1127000D01*
X32037069Y1110693D01*
X31824629Y1046250D01*
X31628843Y941600D01*
X31500239Y836058D01*
X31500236Y836055D01*
X31457235Y800765D01*
X31421945Y757764D01*
X28579237Y-2084945D01*
X28536236Y-2120235D01*
X28500946Y-2163236D01*
X28500942Y-2163240D01*
X28395400Y-2291844D01*
X28290750Y-2487630D01*
X28280448Y-2521592D01*
X28226307Y-2700069D01*
X28210000Y-2865635D01*
X28210000Y-2865646D01*
X28204548Y-2921000D01*
X28210000Y-2976354D01*
X28210000Y-4263364D01*
X28226307Y-4428930D01*
X28290750Y-4641370D01*
X28395400Y-4837157D01*
X28431967Y-4881714D01*
X28431967Y-5083000D01*
X28444073Y-5205913D01*
X28479925Y-5324103D01*
X28538147Y-5433028D01*
X28616499Y-5528501D01*
X28711972Y-5606853D01*
X28820897Y-5665075D01*
X28939087Y-5700927D01*
X29062000Y-5713033D01*
X29612000Y-5713033D01*
X29734913Y-5700927D01*
X29853103Y-5665075D01*
X29962028Y-5606853D01*
X29972000Y-5598669D01*
X29981972Y-5606853D01*
X30090897Y-5665075D01*
X30209087Y-5700927D01*
X30332000Y-5713033D01*
X30882000Y-5713033D01*
X31000000Y-5701411D01*
X31000001Y-6854131D01*
X30925453Y-6893978D01*
X30700550Y-7078550D01*
X30515978Y-7303453D01*
X30479580Y-7371549D01*
X30405178Y-7246645D01*
X30210269Y-7030412D01*
X29976920Y-6856359D01*
X29714099Y-6731175D01*
X29566890Y-6686524D01*
X29337000Y-6807845D01*
X29337000Y-8001000D01*
X29357000Y-8001000D01*
X29357000Y-8255000D01*
X29337000Y-8255000D01*
X29337000Y-8275000D01*
X29083000Y-8275000D01*
X29083000Y-8255000D01*
X29063000Y-8255000D01*
X29063000Y-8001000D01*
X29083000Y-8001000D01*
X29083000Y-6807845D01*
X28853110Y-6686524D01*
X28705901Y-6731175D01*
X28443080Y-6856359D01*
X28209731Y-7030412D01*
X28127710Y-7121406D01*
X28102075Y-7036897D01*
X28043853Y-6927972D01*
X27965501Y-6832499D01*
X27870028Y-6754147D01*
X27761103Y-6695925D01*
X27642913Y-6660073D01*
X27520000Y-6647967D01*
X25820000Y-6647967D01*
X25697087Y-6660073D01*
X25578897Y-6695925D01*
X25469972Y-6754147D01*
X25374499Y-6832499D01*
X25296147Y-6927972D01*
X25237925Y-7036897D01*
X25202073Y-7155087D01*
X25189967Y-7278000D01*
X25189967Y-8978000D01*
X25202073Y-9100913D01*
X25237925Y-9219103D01*
X25272079Y-9283000D01*
X18905266Y-9283000D01*
X16595265Y-6973000D01*
X17220898Y-6973000D01*
X17255604Y-6987376D01*
X17434699Y-7023000D01*
X17617301Y-7023000D01*
X17796396Y-6987376D01*
X17965099Y-6917496D01*
X18116928Y-6816048D01*
X18246048Y-6686928D01*
X18347496Y-6535099D01*
X18417376Y-6366396D01*
X18453000Y-6187301D01*
X18453000Y-6004699D01*
X18417376Y-5825604D01*
X18347496Y-5656901D01*
X18301458Y-5588000D01*
X18347496Y-5519099D01*
X18417376Y-5350396D01*
X18453000Y-5171301D01*
X18453000Y-4988699D01*
X18443512Y-4941000D01*
X24086921Y-4941000D01*
X24130000Y-4945243D01*
X24173079Y-4941000D01*
X24187294Y-4939600D01*
X24301922Y-4928310D01*
X24467237Y-4878162D01*
X24619592Y-4796727D01*
X24753133Y-4687133D01*
X24780596Y-4653669D01*
X25550395Y-3883871D01*
X25585099Y-3869496D01*
X25736928Y-3768048D01*
X25866048Y-3638928D01*
X25967496Y-3487099D01*
X26037376Y-3318396D01*
X26073000Y-3139301D01*
X26073000Y-2956699D01*
X26037376Y-2777604D01*
X25967496Y-2608901D01*
X25866048Y-2457072D01*
X25736928Y-2327952D01*
X25585099Y-2226504D01*
X25416396Y-2156624D01*
X25237301Y-2121000D01*
X25054699Y-2121000D01*
X24875604Y-2156624D01*
X24706901Y-2226504D01*
X24555072Y-2327952D01*
X24425952Y-2457072D01*
X24324504Y-2608901D01*
X24310129Y-2643605D01*
X23766735Y-3187000D01*
X22691265Y-3187000D01*
X23449674Y-2428592D01*
X23483133Y-2401133D01*
X23515397Y-2361820D01*
X23592726Y-2267593D01*
X23598530Y-2256736D01*
X23674162Y-2115237D01*
X23704184Y-2016269D01*
X23724310Y-1949923D01*
X23741243Y-1778001D01*
X23737000Y-1734921D01*
X23737000Y1692735D01*
X25003403Y426332D01*
X25030867Y392867D01*
X25164408Y283273D01*
X25316763Y201838D01*
X25482078Y151690D01*
X25610921Y139000D01*
X25610930Y139000D01*
X25653999Y134758D01*
X25697069Y139000D01*
X29674921Y139000D01*
X29718000Y134757D01*
X29761079Y139000D01*
X29797570Y142594D01*
X29889922Y151690D01*
X29916657Y159800D01*
X30055237Y201838D01*
X30207592Y283273D01*
X30341133Y392867D01*
X30368596Y426331D01*
X31196674Y1254408D01*
X31230133Y1281867D01*
X31339727Y1415408D01*
X31421162Y1567763D01*
X31448765Y1658757D01*
X31462519Y1704099D01*
X31479087Y1699073D01*
X31602000Y1686967D01*
X32152000Y1686967D01*
X32274913Y1699073D01*
X32393103Y1734925D01*
X32502028Y1793147D01*
X32505522Y1796015D01*
X32515119Y1788066D01*
X32625166Y1728605D01*
X32744699Y1691756D01*
X32861250Y1682000D01*
X33020000Y1840750D01*
X33020000Y3065000D01*
X33274000Y3065000D01*
X33274000Y1840750D01*
X33432750Y1682000D01*
X33549301Y1691756D01*
X33668834Y1728605D01*
X33778881Y1788066D01*
X33875214Y1867853D01*
X33954130Y1964901D01*
X34012596Y2075480D01*
X34048366Y2195340D01*
X34060066Y2319876D01*
X34057000Y2906250D01*
X33898250Y3065000D01*
X33274000Y3065000D01*
X33020000Y3065000D01*
X33000000Y3065000D01*
X33000000Y3319000D01*
X33020000Y3319000D01*
X33020000Y4543250D01*
X33274000Y4543250D01*
X33274000Y3319000D01*
X33898250Y3319000D01*
X34057000Y3477750D01*
X34058104Y3689000D01*
X35149928Y3689000D01*
X35162188Y3564518D01*
X35198498Y3444820D01*
X35257463Y3334506D01*
X35336815Y3237815D01*
X35433506Y3158463D01*
X35543820Y3099498D01*
X35663518Y3063188D01*
X35788000Y3050928D01*
X36102250Y3054000D01*
X36261000Y3212750D01*
X36261000Y3937000D01*
X35311750Y3937000D01*
X35153000Y3778250D01*
X35149928Y3689000D01*
X34058104Y3689000D01*
X34060066Y4064124D01*
X34048366Y4188660D01*
X34012596Y4308520D01*
X33954130Y4419099D01*
X33937948Y4439000D01*
X35149928Y4439000D01*
X35153000Y4349750D01*
X35311750Y4191000D01*
X36261000Y4191000D01*
X36261000Y4915250D01*
X36102250Y5074000D01*
X35788000Y5077072D01*
X35663518Y5064812D01*
X35543820Y5028502D01*
X35433506Y4969537D01*
X35336815Y4890185D01*
X35257463Y4793494D01*
X35198498Y4683180D01*
X35162188Y4563482D01*
X35149928Y4439000D01*
X33937948Y4439000D01*
X33875214Y4516147D01*
X33778881Y4595934D01*
X33668834Y4655395D01*
X33549301Y4692244D01*
X33432750Y4702000D01*
X33274000Y4543250D01*
X33020000Y4543250D01*
X32861250Y4702000D01*
X32744699Y4692244D01*
X32720705Y4684847D01*
X32691162Y4782237D01*
X32685145Y4793494D01*
X32609727Y4934592D01*
X32563434Y4991000D01*
X32527594Y5034672D01*
X32527592Y5034674D01*
X32516924Y5047674D01*
X32639000Y5169750D01*
X32639000Y5969000D01*
X32893000Y5969000D01*
X32893000Y5169750D01*
X33051750Y5011000D01*
X33366000Y5007928D01*
X33490482Y5020188D01*
X33610180Y5056498D01*
X33720494Y5115463D01*
X33817185Y5194815D01*
X33896537Y5291506D01*
X33955502Y5401820D01*
X33991812Y5521518D01*
X34004072Y5646000D01*
X34001000Y5810250D01*
X33842250Y5969000D01*
X32893000Y5969000D01*
X32639000Y5969000D01*
X32619000Y5969000D01*
X32619000Y6223000D01*
X32639000Y6223000D01*
X32639000Y7022250D01*
X32893000Y7022250D01*
X32893000Y6223000D01*
X33842250Y6223000D01*
X34001000Y6381750D01*
X34004072Y6546000D01*
X33991812Y6670482D01*
X33955502Y6790180D01*
X33896537Y6900494D01*
X33817185Y6997185D01*
X33720494Y7076537D01*
X33610180Y7135502D01*
X33490482Y7171812D01*
X33366000Y7184072D01*
X33051750Y7181000D01*
X32893000Y7022250D01*
X32639000Y7022250D01*
X32480250Y7181000D01*
X32166000Y7184072D01*
X32041518Y7171812D01*
X31921820Y7135502D01*
X31811506Y7076537D01*
X31714815Y6997185D01*
X31660826Y6931398D01*
X31611501Y6991501D01*
X31516028Y7069853D01*
X31407103Y7128075D01*
X31288913Y7163927D01*
X31166000Y7176033D01*
X29966000Y7176033D01*
X29843087Y7163927D01*
X29724897Y7128075D01*
X29615972Y7069853D01*
X29520499Y6991501D01*
X29442147Y6896028D01*
X29383925Y6787103D01*
X29348073Y6668913D01*
X29335967Y6546000D01*
X29335967Y5646000D01*
X29348073Y5523087D01*
X29383925Y5404897D01*
X29442147Y5295972D01*
X29520499Y5200499D01*
X29615972Y5122147D01*
X29724897Y5063925D01*
X29843087Y5028073D01*
X29966000Y5015967D01*
X30065768Y5015967D01*
X30384702Y4697033D01*
X30332000Y4697033D01*
X30209087Y4684927D01*
X30090897Y4649075D01*
X29981972Y4590853D01*
X29972000Y4582669D01*
X29962028Y4590853D01*
X29853103Y4649075D01*
X29734913Y4684927D01*
X29612000Y4697033D01*
X29062000Y4697033D01*
X28939087Y4684927D01*
X28820897Y4649075D01*
X28711972Y4590853D01*
X28616499Y4512501D01*
X28538147Y4417028D01*
X28479925Y4308103D01*
X28444073Y4189913D01*
X28432164Y4069000D01*
X27037364Y4069000D01*
X27028734Y4089835D01*
X26905398Y4274421D01*
X26748421Y4431398D01*
X26563835Y4554734D01*
X26358734Y4639690D01*
X26141000Y4683000D01*
X25919000Y4683000D01*
X25701266Y4639690D01*
X25496165Y4554734D01*
X25311579Y4431398D01*
X25154602Y4274421D01*
X25080000Y4162771D01*
X25005398Y4274421D01*
X24848421Y4431398D01*
X24663835Y4554734D01*
X24458734Y4639690D01*
X24241000Y4683000D01*
X24019000Y4683000D01*
X23801266Y4639690D01*
X23737000Y4613070D01*
X23737000Y4716735D01*
X25453674Y6433408D01*
X25487133Y6460867D01*
X25527456Y6510000D01*
X25596726Y6594407D01*
X25601855Y6604001D01*
X25678162Y6746763D01*
X25690399Y6787103D01*
X25728310Y6912077D01*
X25745243Y7084000D01*
X25741000Y7127079D01*
X25741000Y8183603D01*
X27955208Y8183603D01*
X28032843Y7934528D01*
X28296883Y7808629D01*
X28580411Y7736661D01*
X28872531Y7721389D01*
X29162019Y7763401D01*
X29437747Y7861081D01*
X29575157Y7934528D01*
X29652792Y8183603D01*
X28804000Y9032395D01*
X27955208Y8183603D01*
X25741000Y8183603D01*
X25741000Y8513921D01*
X25745243Y8557000D01*
X25728310Y8728923D01*
X25678162Y8894237D01*
X25630847Y8982757D01*
X25596727Y9046592D01*
X25517223Y9143469D01*
X27313389Y9143469D01*
X27355401Y8853981D01*
X27453081Y8578253D01*
X27526528Y8440843D01*
X27775603Y8363208D01*
X28624395Y9212000D01*
X27775603Y10060792D01*
X27526528Y9983157D01*
X27400629Y9719117D01*
X27328661Y9435589D01*
X27313389Y9143469D01*
X25517223Y9143469D01*
X25487133Y9180133D01*
X25453669Y9207596D01*
X25013449Y9647816D01*
X25053592Y9669273D01*
X25187133Y9778867D01*
X25214597Y9812332D01*
X25642662Y10240397D01*
X27955208Y10240397D01*
X28804000Y9391605D01*
X29652792Y10240397D01*
X29575157Y10489472D01*
X29311117Y10615371D01*
X29027589Y10687339D01*
X28735469Y10702611D01*
X28445981Y10660599D01*
X28170253Y10562919D01*
X28032843Y10489472D01*
X27955208Y10240397D01*
X25642662Y10240397D01*
X27733265Y12331000D01*
X30174898Y12331000D01*
X30209604Y12316624D01*
X30388699Y12281000D01*
X30571301Y12281000D01*
X30750396Y12316624D01*
X30919099Y12386504D01*
X31070928Y12487952D01*
X31200048Y12617072D01*
X31301496Y12768901D01*
X31371376Y12937604D01*
X31407000Y13116699D01*
X31407000Y13299301D01*
X31371376Y13478396D01*
X31301496Y13647099D01*
X31255458Y13716000D01*
X31301496Y13784901D01*
X31371376Y13953604D01*
X31407000Y14132699D01*
X31407000Y14315301D01*
X31371376Y14494396D01*
X31301496Y14663099D01*
X31200048Y14814928D01*
X31070928Y14944048D01*
X30919099Y15045496D01*
X30750396Y15115376D01*
X30571301Y15151000D01*
X30388699Y15151000D01*
X30209604Y15115376D01*
X30174898Y15101000D01*
X26967079Y15101000D01*
X26923999Y15105243D01*
X26752077Y15088310D01*
X26658944Y15060058D01*
X26627750Y15050595D01*
X26635516Y15060058D01*
X26640727Y15066408D01*
X26722162Y15218763D01*
X26759198Y15340853D01*
X26772310Y15384077D01*
X26789243Y15555999D01*
X26785000Y15599079D01*
X26785000Y15977062D01*
X28870732Y15977062D01*
X28940397Y15788850D01*
X29054447Y15603178D01*
X29202529Y15443324D01*
X29378951Y15315431D01*
X29576934Y15224414D01*
X29788869Y15173770D01*
X29963000Y15322436D01*
X29963000Y16148000D01*
X30217000Y16148000D01*
X30217000Y15322436D01*
X30391131Y15173770D01*
X30603066Y15224414D01*
X30801049Y15315431D01*
X30977471Y15443324D01*
X31125553Y15603178D01*
X31239603Y15788850D01*
X31309268Y15977062D01*
X31182734Y16148000D01*
X30217000Y16148000D01*
X29963000Y16148000D01*
X28997266Y16148000D01*
X28870732Y15977062D01*
X26785000Y15977062D01*
X26785000Y16572938D01*
X28870732Y16572938D01*
X28997266Y16402000D01*
X29963000Y16402000D01*
X29963000Y17227564D01*
X30217000Y17227564D01*
X30217000Y16402000D01*
X31182734Y16402000D01*
X31309268Y16572938D01*
X33870732Y16572938D01*
X33997266Y16402000D01*
X34963000Y16402000D01*
X34963000Y17227564D01*
X34788869Y17376230D01*
X34576934Y17325586D01*
X34378951Y17234569D01*
X34202529Y17106676D01*
X34054447Y16946822D01*
X33940397Y16761150D01*
X33870732Y16572938D01*
X31309268Y16572938D01*
X31239603Y16761150D01*
X31125553Y16946822D01*
X30977471Y17106676D01*
X30801049Y17234569D01*
X30603066Y17325586D01*
X30391131Y17376230D01*
X30217000Y17227564D01*
X29963000Y17227564D01*
X29788869Y17376230D01*
X29576934Y17325586D01*
X29378951Y17234569D01*
X29202529Y17106676D01*
X29054447Y16946822D01*
X28940397Y16761150D01*
X28870732Y16572938D01*
X26785000Y16572938D01*
X26785000Y17990921D01*
X26789243Y18034000D01*
X26772310Y18205923D01*
X26722162Y18371237D01*
X26675213Y18459072D01*
X26640727Y18523592D01*
X26531133Y18657133D01*
X26497672Y18684594D01*
X26334266Y18848000D01*
X27955000Y18848000D01*
X27955000Y18573000D01*
X28001585Y18354013D01*
X28089997Y18148322D01*
X28216839Y17963831D01*
X28377236Y17807631D01*
X28565024Y17685724D01*
X28788126Y17605881D01*
X28963000Y17732046D01*
X28963000Y18848000D01*
X29217000Y18848000D01*
X29217000Y17732046D01*
X29391874Y17605881D01*
X29614976Y17685724D01*
X29802764Y17807631D01*
X29963161Y17963831D01*
X30090003Y18148322D01*
X30178415Y18354013D01*
X30225000Y18573000D01*
X30225000Y18848000D01*
X34955000Y18848000D01*
X34955000Y18573000D01*
X35001585Y18354013D01*
X35089997Y18148322D01*
X35216839Y17963831D01*
X35377236Y17807631D01*
X35565024Y17685724D01*
X35788126Y17605881D01*
X35963000Y17732046D01*
X35963000Y18848000D01*
X36217000Y18848000D01*
X36217000Y17732046D01*
X36391874Y17605881D01*
X36614976Y17685724D01*
X36802764Y17807631D01*
X36963161Y17963831D01*
X37090003Y18148322D01*
X37178415Y18354013D01*
X37225000Y18573000D01*
X37225000Y18848000D01*
X36217000Y18848000D01*
X35963000Y18848000D01*
X34955000Y18848000D01*
X30225000Y18848000D01*
X29217000Y18848000D01*
X28963000Y18848000D01*
X27955000Y18848000D01*
X26334266Y18848000D01*
X26097266Y19085000D01*
X71219331Y19085000D01*
X71092724Y18912881D01*
X71092724Y18912881D01*
G37*
X71092724Y18912881D02*
X73614000Y16391605D01*
X76135276Y18912881D01*
X76008669Y19085000D01*
X76487000Y19085000D01*
X76487000Y18606669D01*
X76314881Y18733276D01*
X73793605Y16212000D01*
X76314881Y13690724D01*
X76487000Y13817331D01*
X76487000Y11887228D01*
X76447037Y11935923D01*
X76229748Y12114248D01*
X75981845Y12246755D01*
X75712855Y12328352D01*
X75503212Y12349000D01*
X75363016Y12349000D01*
X75153373Y12328352D01*
X74884383Y12246755D01*
X74636480Y12114248D01*
X74559203Y12050828D01*
X74540645Y12049000D01*
X74540635Y12049000D01*
X74375069Y12032693D01*
X74162629Y11968250D01*
X73982476Y11871956D01*
X73966843Y11863600D01*
X73838239Y11758058D01*
X73838236Y11758055D01*
X73795235Y11722765D01*
X73759945Y11679764D01*
X71677807Y9597626D01*
X71586048Y9734954D01*
X71456928Y9864074D01*
X71305099Y9965522D01*
X71136396Y10035402D01*
X70957301Y10071026D01*
X70774699Y10071026D01*
X70595604Y10035402D01*
X70553321Y10017888D01*
X70456079Y10008310D01*
X70290851Y9958188D01*
X70290765Y9958162D01*
X70138410Y9876727D01*
X70138408Y9876726D01*
X70138409Y9876726D01*
X70071691Y9821972D01*
X70004869Y9767133D01*
X69977410Y9733674D01*
X66908033Y6664296D01*
X66908033Y7604000D01*
X66895927Y7726913D01*
X66860075Y7845103D01*
X66801853Y7954028D01*
X66723501Y8049501D01*
X66628028Y8127853D01*
X66519103Y8186075D01*
X66405000Y8220687D01*
X66405000Y10201182D01*
X69223469Y13019650D01*
X69289884Y13030615D01*
X69405476Y13074121D01*
X69510360Y13139341D01*
X69600504Y13223770D01*
X69672445Y13324163D01*
X69780384Y13511119D01*
X71092724Y13511119D01*
X71452912Y13021452D01*
X72116882Y12661151D01*
X72838385Y12437306D01*
X73589695Y12358520D01*
X74341938Y12427822D01*
X75066208Y12642548D01*
X75734670Y12994445D01*
X75775088Y13021452D01*
X76135276Y13511119D01*
X73614000Y16032395D01*
X71092724Y13511119D01*
X69780384Y13511119D01*
X70262391Y14345979D01*
X70396445Y14091330D01*
X70423452Y14050912D01*
X70913119Y13690724D01*
X73434395Y16212000D01*
X70913119Y18733276D01*
X70423452Y18373088D01*
X70063151Y17709118D01*
X69839306Y16987615D01*
X69760520Y16236305D01*
X69798271Y15826538D01*
X68856197Y16370445D01*
X68743698Y16421417D01*
X68623416Y16449463D01*
X68499974Y16453504D01*
X68378116Y16433385D01*
X68262524Y16389879D01*
X68157640Y16324659D01*
X68067496Y16240230D01*
X67995555Y16139837D01*
X67195555Y14754197D01*
X67144583Y14641698D01*
X67116537Y14521416D01*
X67112496Y14397974D01*
X67132615Y14276116D01*
X67176121Y14160524D01*
X67176345Y14160164D01*
X64520241Y11504059D01*
X64477235Y11468765D01*
X64336400Y11297157D01*
X64231750Y11101370D01*
X64167307Y10888930D01*
X64151000Y10723364D01*
X64151000Y10723354D01*
X64145548Y10668000D01*
X64151000Y10612645D01*
X64151001Y8220687D01*
X64036897Y8186075D01*
X63927972Y8127853D01*
X63832499Y8049501D01*
X63754147Y7954028D01*
X63695925Y7845103D01*
X63661313Y7731000D01*
X54568819Y7731000D01*
X52652059Y9647759D01*
X52616765Y9690765D01*
X52445157Y9831600D01*
X52249371Y9936250D01*
X52036931Y10000693D01*
X51871365Y10017000D01*
X51871354Y10017000D01*
X51816000Y10022452D01*
X51760646Y10017000D01*
X49687925Y10017000D01*
X49551152Y10153773D01*
X49284673Y10331828D01*
X48988578Y10454475D01*
X48674245Y10517000D01*
X48353755Y10517000D01*
X48039422Y10454475D01*
X47743327Y10331828D01*
X47476848Y10153773D01*
X47250227Y9927152D01*
X47072172Y9660673D01*
X46949525Y9364578D01*
X46887000Y9050245D01*
X46887000Y8729755D01*
X46949525Y8415422D01*
X47072172Y8119327D01*
X47250227Y7852848D01*
X47476848Y7626227D01*
X47743327Y7448172D01*
X48039422Y7325525D01*
X48353755Y7263000D01*
X48674245Y7263000D01*
X48988578Y7325525D01*
X49284673Y7448172D01*
X49551152Y7626227D01*
X49687925Y7763000D01*
X51349182Y7763000D01*
X53265945Y5846236D01*
X53301235Y5803235D01*
X53344236Y5767945D01*
X53344239Y5767942D01*
X53423211Y5703132D01*
X53472843Y5662400D01*
X53668629Y5557750D01*
X53881069Y5493307D01*
X54046635Y5477000D01*
X54046645Y5477000D01*
X54101999Y5471548D01*
X54157354Y5477000D01*
X63661313Y5477000D01*
X63695925Y5362897D01*
X63754147Y5253972D01*
X63832499Y5158499D01*
X63927972Y5080147D01*
X64036897Y5021925D01*
X64155087Y4986073D01*
X64278000Y4973967D01*
X65217704Y4973967D01*
X64168737Y3925000D01*
X52482836Y3925000D01*
X52611450Y4030550D01*
X52796022Y4255453D01*
X52933172Y4512042D01*
X53017629Y4790457D01*
X53046146Y5080000D01*
X53017629Y5369543D01*
X52933172Y5647958D01*
X52796022Y5904547D01*
X52611450Y6129450D01*
X52386547Y6314022D01*
X52129958Y6451172D01*
X51851543Y6535629D01*
X51634556Y6557000D01*
X51489444Y6557000D01*
X51272457Y6535629D01*
X50994042Y6451172D01*
X50737453Y6314022D01*
X50512550Y6129450D01*
X50327978Y5904547D01*
X50292000Y5837237D01*
X50256022Y5904547D01*
X50071450Y6129450D01*
X49846547Y6314022D01*
X49589958Y6451172D01*
X49311543Y6535629D01*
X49094556Y6557000D01*
X48949444Y6557000D01*
X48732457Y6535629D01*
X48454042Y6451172D01*
X48197453Y6314022D01*
X47972550Y6129450D01*
X47939081Y6088668D01*
X47914075Y6171103D01*
X47855853Y6280028D01*
X47777501Y6375501D01*
X47682028Y6453853D01*
X47573103Y6512075D01*
X47454913Y6547927D01*
X47332000Y6560033D01*
X45632000Y6560033D01*
X45509087Y6547927D01*
X45390897Y6512075D01*
X45281972Y6453853D01*
X45224847Y6406972D01*
X43713000Y7918818D01*
X43713000Y14113000D01*
X47031183Y14113000D01*
X47248240Y13895943D01*
X47376843Y13790400D01*
X47572628Y13685751D01*
X47785069Y13621308D01*
X48005999Y13599548D01*
X48226930Y13621308D01*
X48439370Y13685751D01*
X48635156Y13790400D01*
X48806764Y13931236D01*
X48947600Y14102844D01*
X49017703Y14234000D01*
X62351967Y14234000D01*
X62351967Y12634000D01*
X62364073Y12511087D01*
X62399925Y12392897D01*
X62458147Y12283972D01*
X62536499Y12188499D01*
X62631972Y12110147D01*
X62740897Y12051925D01*
X62859087Y12016073D01*
X62982000Y12003967D01*
X64582000Y12003967D01*
X64704913Y12016073D01*
X64823103Y12051925D01*
X64932028Y12110147D01*
X65027501Y12188499D01*
X65105853Y12283972D01*
X65164075Y12392897D01*
X65199927Y12511087D01*
X65212033Y12634000D01*
X65212033Y14234000D01*
X65199927Y14356913D01*
X65164075Y14475103D01*
X65105853Y14584028D01*
X65027501Y14679501D01*
X64932028Y14757853D01*
X64823103Y14816075D01*
X64704913Y14851927D01*
X64582000Y14864033D01*
X64572427Y14864033D01*
X64595097Y14941298D01*
X63782000Y15754395D01*
X62968903Y14941298D01*
X62991573Y14864033D01*
X62982000Y14864033D01*
X62859087Y14851927D01*
X62740897Y14816075D01*
X62631972Y14757853D01*
X62536499Y14679501D01*
X62458147Y14584028D01*
X62399925Y14475103D01*
X62364073Y14356913D01*
X62351967Y14234000D01*
X49017703Y14234000D01*
X49052249Y14298630D01*
X49116692Y14511070D01*
X49138452Y14732001D01*
X49116692Y14952931D01*
X49052249Y15165372D01*
X48947600Y15361157D01*
X48842057Y15489760D01*
X48468330Y15863488D01*
X62341783Y15863488D01*
X62383213Y15583870D01*
X62478397Y15317708D01*
X62545329Y15192486D01*
X62789298Y15120903D01*
X63602395Y15934000D01*
X63961605Y15934000D01*
X64774702Y15120903D01*
X65018671Y15192486D01*
X65139571Y15447996D01*
X65208300Y15722184D01*
X65222217Y16004512D01*
X65180787Y16284130D01*
X65085603Y16550292D01*
X65018671Y16675514D01*
X64774702Y16747097D01*
X63961605Y15934000D01*
X63602395Y15934000D01*
X62789298Y16747097D01*
X62545329Y16675514D01*
X62424429Y16420004D01*
X62355700Y16145816D01*
X62341783Y15863488D01*
X48468330Y15863488D01*
X48334060Y15997758D01*
X48298765Y16040765D01*
X48127157Y16181600D01*
X47931371Y16286250D01*
X47718931Y16350693D01*
X47553365Y16367000D01*
X47553354Y16367000D01*
X47498000Y16372452D01*
X47442646Y16367000D01*
X42641365Y16367000D01*
X42586000Y16372453D01*
X42530636Y16367000D01*
X36631354Y16367000D01*
X36575999Y16372452D01*
X36520645Y16367000D01*
X36520635Y16367000D01*
X36355069Y16350693D01*
X36350000Y16349155D01*
X36350000Y16402002D01*
X36182735Y16402002D01*
X36309268Y16572938D01*
X36239603Y16761150D01*
X36137912Y16926702D01*
X62968903Y16926702D01*
X63782000Y16113605D01*
X64595097Y16926702D01*
X64523514Y17170671D01*
X64268004Y17291571D01*
X63993816Y17360300D01*
X63711488Y17374217D01*
X63431870Y17332787D01*
X63165708Y17237603D01*
X63040486Y17170671D01*
X62968903Y16926702D01*
X36137912Y16926702D01*
X36125553Y16946822D01*
X35977471Y17106676D01*
X35801049Y17234569D01*
X35603066Y17325586D01*
X35391131Y17376230D01*
X35217000Y17227564D01*
X35217000Y16402000D01*
X35237000Y16402000D01*
X35237000Y16148000D01*
X35217000Y16148000D01*
X35217000Y16128000D01*
X34963000Y16128000D01*
X34963000Y16148000D01*
X33997266Y16148000D01*
X33870732Y15977062D01*
X33940397Y15788850D01*
X34054447Y15603178D01*
X34202529Y15443324D01*
X34378951Y15315431D01*
X34576934Y15224414D01*
X34788869Y15173770D01*
X34962998Y15322434D01*
X34962998Y15220817D01*
X30586241Y10844059D01*
X30543235Y10808765D01*
X30402400Y10637157D01*
X30297750Y10441370D01*
X30233307Y10228930D01*
X30228594Y10181082D01*
X30109978Y10036547D01*
X30081445Y9983165D01*
X29832397Y10060792D01*
X28983605Y9212000D01*
X29832397Y8363208D01*
X30081445Y8440835D01*
X30109978Y8387453D01*
X30294550Y8162550D01*
X30519453Y7977978D01*
X30776042Y7840828D01*
X31054457Y7756371D01*
X31271444Y7735000D01*
X31416556Y7735000D01*
X31633543Y7756371D01*
X31911958Y7840828D01*
X32168547Y7977978D01*
X32393450Y8162550D01*
X32578022Y8387453D01*
X32614000Y8454763D01*
X32649978Y8387453D01*
X32834550Y8162550D01*
X33059453Y7977978D01*
X33316042Y7840828D01*
X33594457Y7756371D01*
X33811444Y7735000D01*
X33956556Y7735000D01*
X34106015Y7749720D01*
X36349403Y5506332D01*
X36376867Y5472867D01*
X36510408Y5363273D01*
X36662763Y5281838D01*
X36828078Y5231690D01*
X36956921Y5219000D01*
X36956930Y5219000D01*
X36999999Y5214758D01*
X37043069Y5219000D01*
X39514735Y5219000D01*
X39542735Y5191000D01*
X38343365Y5191000D01*
X38288000Y5196453D01*
X38232636Y5191000D01*
X38232635Y5191000D01*
X38067069Y5174693D01*
X37854629Y5110250D01*
X37777518Y5069033D01*
X37688000Y5069033D01*
X37565087Y5056927D01*
X37446897Y5021075D01*
X37345643Y4966953D01*
X37342494Y4969537D01*
X37232180Y5028502D01*
X37112482Y5064812D01*
X36988000Y5077072D01*
X36673750Y5074000D01*
X36515000Y4915250D01*
X36515000Y4191000D01*
X36535000Y4191000D01*
X36535000Y3937000D01*
X36515000Y3937000D01*
X36515000Y3212750D01*
X36673750Y3054000D01*
X36765286Y3053105D01*
X34839182Y1127000D01*
X32313357Y1127000D01*
X32258000Y1132452D01*
X32202643Y1127000D01*
X32202635Y1127000D01*
X32037069Y1110693D01*
X31824629Y1046250D01*
X31628843Y941600D01*
X31500239Y836058D01*
X31500236Y836055D01*
X31457235Y800765D01*
X31421945Y757764D01*
X28579237Y-2084945D01*
X28536236Y-2120235D01*
X28500946Y-2163236D01*
X28500942Y-2163240D01*
X28395400Y-2291844D01*
X28290750Y-2487630D01*
X28280448Y-2521592D01*
X28226307Y-2700069D01*
X28210000Y-2865635D01*
X28210000Y-2865646D01*
X28204548Y-2921000D01*
X28210000Y-2976354D01*
X28210000Y-4263364D01*
X28226307Y-4428930D01*
X28290750Y-4641370D01*
X28395400Y-4837157D01*
X28431967Y-4881714D01*
X28431967Y-5083000D01*
X28444073Y-5205913D01*
X28479925Y-5324103D01*
X28538147Y-5433028D01*
X28616499Y-5528501D01*
X28711972Y-5606853D01*
X28820897Y-5665075D01*
X28939087Y-5700927D01*
X29062000Y-5713033D01*
X29612000Y-5713033D01*
X29734913Y-5700927D01*
X29853103Y-5665075D01*
X29962028Y-5606853D01*
X29972000Y-5598669D01*
X29981972Y-5606853D01*
X30090897Y-5665075D01*
X30209087Y-5700927D01*
X30332000Y-5713033D01*
X30882000Y-5713033D01*
X31000000Y-5701411D01*
X31000001Y-6854131D01*
X30925453Y-6893978D01*
X30700550Y-7078550D01*
X30515978Y-7303453D01*
X30479580Y-7371549D01*
X30405178Y-7246645D01*
X30210269Y-7030412D01*
X29976920Y-6856359D01*
X29714099Y-6731175D01*
X29566890Y-6686524D01*
X29337000Y-6807845D01*
X29337000Y-8001000D01*
X29357000Y-8001000D01*
X29357000Y-8255000D01*
X29337000Y-8255000D01*
X29337000Y-8275000D01*
X29083000Y-8275000D01*
X29083000Y-8255000D01*
X29063000Y-8255000D01*
X29063000Y-8001000D01*
X29083000Y-8001000D01*
X29083000Y-6807845D01*
X28853110Y-6686524D01*
X28705901Y-6731175D01*
X28443080Y-6856359D01*
X28209731Y-7030412D01*
X28127710Y-7121406D01*
X28102075Y-7036897D01*
X28043853Y-6927972D01*
X27965501Y-6832499D01*
X27870028Y-6754147D01*
X27761103Y-6695925D01*
X27642913Y-6660073D01*
X27520000Y-6647967D01*
X25820000Y-6647967D01*
X25697087Y-6660073D01*
X25578897Y-6695925D01*
X25469972Y-6754147D01*
X25374499Y-6832499D01*
X25296147Y-6927972D01*
X25237925Y-7036897D01*
X25202073Y-7155087D01*
X25189967Y-7278000D01*
X25189967Y-8978000D01*
X25202073Y-9100913D01*
X25237925Y-9219103D01*
X25272079Y-9283000D01*
X18905266Y-9283000D01*
X16595265Y-6973000D01*
X17220898Y-6973000D01*
X17255604Y-6987376D01*
X17434699Y-7023000D01*
X17617301Y-7023000D01*
X17796396Y-6987376D01*
X17965099Y-6917496D01*
X18116928Y-6816048D01*
X18246048Y-6686928D01*
X18347496Y-6535099D01*
X18417376Y-6366396D01*
X18453000Y-6187301D01*
X18453000Y-6004699D01*
X18417376Y-5825604D01*
X18347496Y-5656901D01*
X18301458Y-5588000D01*
X18347496Y-5519099D01*
X18417376Y-5350396D01*
X18453000Y-5171301D01*
X18453000Y-4988699D01*
X18443512Y-4941000D01*
X24086921Y-4941000D01*
X24130000Y-4945243D01*
X24173079Y-4941000D01*
X24187294Y-4939600D01*
X24301922Y-4928310D01*
X24467237Y-4878162D01*
X24619592Y-4796727D01*
X24753133Y-4687133D01*
X24780596Y-4653669D01*
X25550395Y-3883871D01*
X25585099Y-3869496D01*
X25736928Y-3768048D01*
X25866048Y-3638928D01*
X25967496Y-3487099D01*
X26037376Y-3318396D01*
X26073000Y-3139301D01*
X26073000Y-2956699D01*
X26037376Y-2777604D01*
X25967496Y-2608901D01*
X25866048Y-2457072D01*
X25736928Y-2327952D01*
X25585099Y-2226504D01*
X25416396Y-2156624D01*
X25237301Y-2121000D01*
X25054699Y-2121000D01*
X24875604Y-2156624D01*
X24706901Y-2226504D01*
X24555072Y-2327952D01*
X24425952Y-2457072D01*
X24324504Y-2608901D01*
X24310129Y-2643605D01*
X23766735Y-3187000D01*
X22691265Y-3187000D01*
X23449674Y-2428592D01*
X23483133Y-2401133D01*
X23515397Y-2361820D01*
X23592726Y-2267593D01*
X23598530Y-2256736D01*
X23674162Y-2115237D01*
X23704184Y-2016269D01*
X23724310Y-1949923D01*
X23741243Y-1778001D01*
X23737000Y-1734921D01*
X23737000Y1692735D01*
X25003403Y426332D01*
X25030867Y392867D01*
X25164408Y283273D01*
X25316763Y201838D01*
X25482078Y151690D01*
X25610921Y139000D01*
X25610930Y139000D01*
X25653999Y134758D01*
X25697069Y139000D01*
X29674921Y139000D01*
X29718000Y134757D01*
X29761079Y139000D01*
X29797570Y142594D01*
X29889922Y151690D01*
X29916657Y159800D01*
X30055237Y201838D01*
X30207592Y283273D01*
X30341133Y392867D01*
X30368596Y426331D01*
X31196674Y1254408D01*
X31230133Y1281867D01*
X31339727Y1415408D01*
X31421162Y1567763D01*
X31448765Y1658757D01*
X31462519Y1704099D01*
X31479087Y1699073D01*
X31602000Y1686967D01*
X32152000Y1686967D01*
X32274913Y1699073D01*
X32393103Y1734925D01*
X32502028Y1793147D01*
X32505522Y1796015D01*
X32515119Y1788066D01*
X32625166Y1728605D01*
X32744699Y1691756D01*
X32861250Y1682000D01*
X33020000Y1840750D01*
X33020000Y3065000D01*
X33274000Y3065000D01*
X33274000Y1840750D01*
X33432750Y1682000D01*
X33549301Y1691756D01*
X33668834Y1728605D01*
X33778881Y1788066D01*
X33875214Y1867853D01*
X33954130Y1964901D01*
X34012596Y2075480D01*
X34048366Y2195340D01*
X34060066Y2319876D01*
X34057000Y2906250D01*
X33898250Y3065000D01*
X33274000Y3065000D01*
X33020000Y3065000D01*
X33000000Y3065000D01*
X33000000Y3319000D01*
X33020000Y3319000D01*
X33020000Y4543250D01*
X33274000Y4543250D01*
X33274000Y3319000D01*
X33898250Y3319000D01*
X34057000Y3477750D01*
X34058104Y3689000D01*
X35149928Y3689000D01*
X35162188Y3564518D01*
X35198498Y3444820D01*
X35257463Y3334506D01*
X35336815Y3237815D01*
X35433506Y3158463D01*
X35543820Y3099498D01*
X35663518Y3063188D01*
X35788000Y3050928D01*
X36102250Y3054000D01*
X36261000Y3212750D01*
X36261000Y3937000D01*
X35311750Y3937000D01*
X35153000Y3778250D01*
X35149928Y3689000D01*
X34058104Y3689000D01*
X34060066Y4064124D01*
X34048366Y4188660D01*
X34012596Y4308520D01*
X33954130Y4419099D01*
X33937948Y4439000D01*
X35149928Y4439000D01*
X35153000Y4349750D01*
X35311750Y4191000D01*
X36261000Y4191000D01*
X36261000Y4915250D01*
X36102250Y5074000D01*
X35788000Y5077072D01*
X35663518Y5064812D01*
X35543820Y5028502D01*
X35433506Y4969537D01*
X35336815Y4890185D01*
X35257463Y4793494D01*
X35198498Y4683180D01*
X35162188Y4563482D01*
X35149928Y4439000D01*
X33937948Y4439000D01*
X33875214Y4516147D01*
X33778881Y4595934D01*
X33668834Y4655395D01*
X33549301Y4692244D01*
X33432750Y4702000D01*
X33274000Y4543250D01*
X33020000Y4543250D01*
X32861250Y4702000D01*
X32744699Y4692244D01*
X32720705Y4684847D01*
X32691162Y4782237D01*
X32685145Y4793494D01*
X32609727Y4934592D01*
X32563434Y4991000D01*
X32527594Y5034672D01*
X32527592Y5034674D01*
X32516924Y5047674D01*
X32639000Y5169750D01*
X32639000Y5969000D01*
X32893000Y5969000D01*
X32893000Y5169750D01*
X33051750Y5011000D01*
X33366000Y5007928D01*
X33490482Y5020188D01*
X33610180Y5056498D01*
X33720494Y5115463D01*
X33817185Y5194815D01*
X33896537Y5291506D01*
X33955502Y5401820D01*
X33991812Y5521518D01*
X34004072Y5646000D01*
X34001000Y5810250D01*
X33842250Y5969000D01*
X32893000Y5969000D01*
X32639000Y5969000D01*
X32619000Y5969000D01*
X32619000Y6223000D01*
X32639000Y6223000D01*
X32639000Y7022250D01*
X32893000Y7022250D01*
X32893000Y6223000D01*
X33842250Y6223000D01*
X34001000Y6381750D01*
X34004072Y6546000D01*
X33991812Y6670482D01*
X33955502Y6790180D01*
X33896537Y6900494D01*
X33817185Y6997185D01*
X33720494Y7076537D01*
X33610180Y7135502D01*
X33490482Y7171812D01*
X33366000Y7184072D01*
X33051750Y7181000D01*
X32893000Y7022250D01*
X32639000Y7022250D01*
X32480250Y7181000D01*
X32166000Y7184072D01*
X32041518Y7171812D01*
X31921820Y7135502D01*
X31811506Y7076537D01*
X31714815Y6997185D01*
X31660826Y6931398D01*
X31611501Y6991501D01*
X31516028Y7069853D01*
X31407103Y7128075D01*
X31288913Y7163927D01*
X31166000Y7176033D01*
X29966000Y7176033D01*
X29843087Y7163927D01*
X29724897Y7128075D01*
X29615972Y7069853D01*
X29520499Y6991501D01*
X29442147Y6896028D01*
X29383925Y6787103D01*
X29348073Y6668913D01*
X29335967Y6546000D01*
X29335967Y5646000D01*
X29348073Y5523087D01*
X29383925Y5404897D01*
X29442147Y5295972D01*
X29520499Y5200499D01*
X29615972Y5122147D01*
X29724897Y5063925D01*
X29843087Y5028073D01*
X29966000Y5015967D01*
X30065768Y5015967D01*
X30384702Y4697033D01*
X30332000Y4697033D01*
X30209087Y4684927D01*
X30090897Y4649075D01*
X29981972Y4590853D01*
X29972000Y4582669D01*
X29962028Y4590853D01*
X29853103Y4649075D01*
X29734913Y4684927D01*
X29612000Y4697033D01*
X29062000Y4697033D01*
X28939087Y4684927D01*
X28820897Y4649075D01*
X28711972Y4590853D01*
X28616499Y4512501D01*
X28538147Y4417028D01*
X28479925Y4308103D01*
X28444073Y4189913D01*
X28432164Y4069000D01*
X27037364Y4069000D01*
X27028734Y4089835D01*
X26905398Y4274421D01*
X26748421Y4431398D01*
X26563835Y4554734D01*
X26358734Y4639690D01*
X26141000Y4683000D01*
X25919000Y4683000D01*
X25701266Y4639690D01*
X25496165Y4554734D01*
X25311579Y4431398D01*
X25154602Y4274421D01*
X25080000Y4162771D01*
X25005398Y4274421D01*
X24848421Y4431398D01*
X24663835Y4554734D01*
X24458734Y4639690D01*
X24241000Y4683000D01*
X24019000Y4683000D01*
X23801266Y4639690D01*
X23737000Y4613070D01*
X23737000Y4716735D01*
X25453674Y6433408D01*
X25487133Y6460867D01*
X25527456Y6510000D01*
X25596726Y6594407D01*
X25601855Y6604001D01*
X25678162Y6746763D01*
X25690399Y6787103D01*
X25728310Y6912077D01*
X25745243Y7084000D01*
X25741000Y7127079D01*
X25741000Y8183603D01*
X27955208Y8183603D01*
X28032843Y7934528D01*
X28296883Y7808629D01*
X28580411Y7736661D01*
X28872531Y7721389D01*
X29162019Y7763401D01*
X29437747Y7861081D01*
X29575157Y7934528D01*
X29652792Y8183603D01*
X28804000Y9032395D01*
X27955208Y8183603D01*
X25741000Y8183603D01*
X25741000Y8513921D01*
X25745243Y8557000D01*
X25728310Y8728923D01*
X25678162Y8894237D01*
X25630847Y8982757D01*
X25596727Y9046592D01*
X25517223Y9143469D01*
X27313389Y9143469D01*
X27355401Y8853981D01*
X27453081Y8578253D01*
X27526528Y8440843D01*
X27775603Y8363208D01*
X28624395Y9212000D01*
X27775603Y10060792D01*
X27526528Y9983157D01*
X27400629Y9719117D01*
X27328661Y9435589D01*
X27313389Y9143469D01*
X25517223Y9143469D01*
X25487133Y9180133D01*
X25453669Y9207596D01*
X25013449Y9647816D01*
X25053592Y9669273D01*
X25187133Y9778867D01*
X25214597Y9812332D01*
X25642662Y10240397D01*
X27955208Y10240397D01*
X28804000Y9391605D01*
X29652792Y10240397D01*
X29575157Y10489472D01*
X29311117Y10615371D01*
X29027589Y10687339D01*
X28735469Y10702611D01*
X28445981Y10660599D01*
X28170253Y10562919D01*
X28032843Y10489472D01*
X27955208Y10240397D01*
X25642662Y10240397D01*
X27733265Y12331000D01*
X30174898Y12331000D01*
X30209604Y12316624D01*
X30388699Y12281000D01*
X30571301Y12281000D01*
X30750396Y12316624D01*
X30919099Y12386504D01*
X31070928Y12487952D01*
X31200048Y12617072D01*
X31301496Y12768901D01*
X31371376Y12937604D01*
X31407000Y13116699D01*
X31407000Y13299301D01*
X31371376Y13478396D01*
X31301496Y13647099D01*
X31255458Y13716000D01*
X31301496Y13784901D01*
X31371376Y13953604D01*
X31407000Y14132699D01*
X31407000Y14315301D01*
X31371376Y14494396D01*
X31301496Y14663099D01*
X31200048Y14814928D01*
X31070928Y14944048D01*
X30919099Y15045496D01*
X30750396Y15115376D01*
X30571301Y15151000D01*
X30388699Y15151000D01*
X30209604Y15115376D01*
X30174898Y15101000D01*
X26967079Y15101000D01*
X26923999Y15105243D01*
X26752077Y15088310D01*
X26658944Y15060058D01*
X26627750Y15050595D01*
X26635516Y15060058D01*
X26640727Y15066408D01*
X26722162Y15218763D01*
X26759198Y15340853D01*
X26772310Y15384077D01*
X26789243Y15555999D01*
X26785000Y15599079D01*
X26785000Y15977062D01*
X28870732Y15977062D01*
X28940397Y15788850D01*
X29054447Y15603178D01*
X29202529Y15443324D01*
X29378951Y15315431D01*
X29576934Y15224414D01*
X29788869Y15173770D01*
X29963000Y15322436D01*
X29963000Y16148000D01*
X30217000Y16148000D01*
X30217000Y15322436D01*
X30391131Y15173770D01*
X30603066Y15224414D01*
X30801049Y15315431D01*
X30977471Y15443324D01*
X31125553Y15603178D01*
X31239603Y15788850D01*
X31309268Y15977062D01*
X31182734Y16148000D01*
X30217000Y16148000D01*
X29963000Y16148000D01*
X28997266Y16148000D01*
X28870732Y15977062D01*
X26785000Y15977062D01*
X26785000Y16572938D01*
X28870732Y16572938D01*
X28997266Y16402000D01*
X29963000Y16402000D01*
X29963000Y17227564D01*
X30217000Y17227564D01*
X30217000Y16402000D01*
X31182734Y16402000D01*
X31309268Y16572938D01*
X33870732Y16572938D01*
X33997266Y16402000D01*
X34963000Y16402000D01*
X34963000Y17227564D01*
X34788869Y17376230D01*
X34576934Y17325586D01*
X34378951Y17234569D01*
X34202529Y17106676D01*
X34054447Y16946822D01*
X33940397Y16761150D01*
X33870732Y16572938D01*
X31309268Y16572938D01*
X31239603Y16761150D01*
X31125553Y16946822D01*
X30977471Y17106676D01*
X30801049Y17234569D01*
X30603066Y17325586D01*
X30391131Y17376230D01*
X30217000Y17227564D01*
X29963000Y17227564D01*
X29788869Y17376230D01*
X29576934Y17325586D01*
X29378951Y17234569D01*
X29202529Y17106676D01*
X29054447Y16946822D01*
X28940397Y16761150D01*
X28870732Y16572938D01*
X26785000Y16572938D01*
X26785000Y17990921D01*
X26789243Y18034000D01*
X26772310Y18205923D01*
X26722162Y18371237D01*
X26675213Y18459072D01*
X26640727Y18523592D01*
X26531133Y18657133D01*
X26497672Y18684594D01*
X26334266Y18848000D01*
X27955000Y18848000D01*
X27955000Y18573000D01*
X28001585Y18354013D01*
X28089997Y18148322D01*
X28216839Y17963831D01*
X28377236Y17807631D01*
X28565024Y17685724D01*
X28788126Y17605881D01*
X28963000Y17732046D01*
X28963000Y18848000D01*
X29217000Y18848000D01*
X29217000Y17732046D01*
X29391874Y17605881D01*
X29614976Y17685724D01*
X29802764Y17807631D01*
X29963161Y17963831D01*
X30090003Y18148322D01*
X30178415Y18354013D01*
X30225000Y18573000D01*
X30225000Y18848000D01*
X34955000Y18848000D01*
X34955000Y18573000D01*
X35001585Y18354013D01*
X35089997Y18148322D01*
X35216839Y17963831D01*
X35377236Y17807631D01*
X35565024Y17685724D01*
X35788126Y17605881D01*
X35963000Y17732046D01*
X35963000Y18848000D01*
X36217000Y18848000D01*
X36217000Y17732046D01*
X36391874Y17605881D01*
X36614976Y17685724D01*
X36802764Y17807631D01*
X36963161Y17963831D01*
X37090003Y18148322D01*
X37178415Y18354013D01*
X37225000Y18573000D01*
X37225000Y18848000D01*
X36217000Y18848000D01*
X35963000Y18848000D01*
X34955000Y18848000D01*
X30225000Y18848000D01*
X29217000Y18848000D01*
X28963000Y18848000D01*
X27955000Y18848000D01*
X26334266Y18848000D01*
X26097266Y19085000D01*
X71219331Y19085000D01*
X71092724Y18912881D01*
G36*
X-10907276Y18912881D02*
G01*
X-8386000Y16391605D01*
X-5864724Y18912881D01*
X-5991331Y19085000D01*
X-4483000Y19085000D01*
X-4483000Y18958699D01*
X-4447376Y18779604D01*
X-4377496Y18610901D01*
X-4276048Y18459072D01*
X-4146928Y18329952D01*
X-3995099Y18228504D01*
X-3826396Y18158624D01*
X-3647301Y18123000D01*
X-3464699Y18123000D01*
X-3285604Y18158624D01*
X-3250898Y18173000D01*
X-663512Y18173000D01*
X-673000Y18125301D01*
X-673000Y17942699D01*
X-637376Y17763604D01*
X-567496Y17594901D01*
X-466048Y17443072D01*
X-336928Y17313952D01*
X-185099Y17212504D01*
X-16396Y17142624D01*
X162699Y17107000D01*
X345301Y17107000D01*
X524396Y17142624D01*
X559102Y17157000D01*
X16544309Y17157000D01*
X16533967Y17052000D01*
X16533967Y16452000D01*
X16546073Y16329087D01*
X16581925Y16210897D01*
X16632114Y16117000D01*
X16581925Y16023103D01*
X16546073Y15904913D01*
X16533967Y15782000D01*
X16533967Y15182000D01*
X16541130Y15109273D01*
X16526396Y15115376D01*
X16347301Y15151000D01*
X16164699Y15151000D01*
X15985604Y15115376D01*
X15816901Y15045496D01*
X15665072Y14944048D01*
X15535952Y14814928D01*
X15434504Y14663099D01*
X15380832Y14533524D01*
X15346075Y14648103D01*
X15287853Y14757028D01*
X15209501Y14852501D01*
X15114028Y14930853D01*
X15073583Y14952472D01*
X15038162Y15069237D01*
X15027967Y15088310D01*
X14956727Y15221592D01*
X14847133Y15355133D01*
X14813669Y15382596D01*
X14239597Y15956668D01*
X14212133Y15990133D01*
X14078592Y16099727D01*
X13926237Y16181162D01*
X13760922Y16231310D01*
X13710207Y16236305D01*
X13589000Y16248243D01*
X13545921Y16244000D01*
X8971119Y16244000D01*
X8914028Y16290853D01*
X8805103Y16349075D01*
X8686913Y16384927D01*
X8564000Y16397033D01*
X6664000Y16397033D01*
X6541087Y16384927D01*
X6422897Y16349075D01*
X6313972Y16290853D01*
X6218499Y16212501D01*
X6140147Y16117028D01*
X6081925Y16008103D01*
X6046073Y15889913D01*
X6033967Y15767000D01*
X6033967Y15232689D01*
X6009501Y15262501D01*
X5914028Y15340853D01*
X5805103Y15399075D01*
X5686913Y15434927D01*
X5564000Y15447033D01*
X3664000Y15447033D01*
X3541087Y15434927D01*
X3422897Y15399075D01*
X3313972Y15340853D01*
X3271410Y15305924D01*
X3260048Y15322928D01*
X3130928Y15452048D01*
X2979099Y15553496D01*
X2810396Y15623376D01*
X2631301Y15659000D01*
X2448699Y15659000D01*
X2269604Y15623376D01*
X2100901Y15553496D01*
X1949072Y15452048D01*
X1819952Y15322928D01*
X1718504Y15171099D01*
X1648624Y15002396D01*
X1613000Y14823301D01*
X1613000Y14640699D01*
X1648624Y14461604D01*
X1718504Y14292901D01*
X1819952Y14141072D01*
X1949072Y14011952D01*
X2100901Y13910504D01*
X2135608Y13896128D01*
X2204399Y13827336D01*
X2231867Y13793867D01*
X2365408Y13684273D01*
X2517763Y13602838D01*
X2683078Y13552690D01*
X2811921Y13540000D01*
X2811930Y13540000D01*
X2854999Y13535758D01*
X2898069Y13540000D01*
X3256881Y13540000D01*
X3313972Y13493147D01*
X3422897Y13434925D01*
X3541087Y13399073D01*
X3664000Y13386967D01*
X3737000Y13386967D01*
X3737001Y9907089D01*
X3732757Y9864000D01*
X3749690Y9692078D01*
X3799838Y9526764D01*
X3881274Y9374408D01*
X3963406Y9274329D01*
X3963409Y9274326D01*
X3990868Y9240867D01*
X4024327Y9213408D01*
X8239403Y4998332D01*
X8266867Y4964867D01*
X8400408Y4855273D01*
X8552763Y4773838D01*
X8718078Y4723690D01*
X8846921Y4711000D01*
X8846922Y4711000D01*
X8889999Y4706757D01*
X8933076Y4711000D01*
X10571062Y4711000D01*
X10563403Y4701668D01*
X9400735Y3539000D01*
X3975079Y3539000D01*
X3932000Y3543243D01*
X3760077Y3526310D01*
X3599998Y3477750D01*
X3594763Y3476162D01*
X3442408Y3394727D01*
X3308867Y3285133D01*
X3281406Y3251671D01*
X-4759000Y-4788735D01*
X-4759000Y7712000D01*
X-4761440Y7736776D01*
X-4768667Y7760601D01*
X-4780403Y7782557D01*
X-4796197Y7801803D01*
X-4815443Y7817597D01*
X-4837399Y7829333D01*
X-4861224Y7836560D01*
X-4876260Y7838626D01*
X-11259000Y8329606D01*
X-11259000Y12320000D01*
X-627243Y12320000D01*
X-623000Y12276920D01*
X-622999Y6647089D01*
X-627243Y6604000D01*
X-610310Y6432078D01*
X-560162Y6266764D01*
X-478726Y6114408D01*
X-396594Y6014329D01*
X-396593Y6014328D01*
X-369132Y5980867D01*
X-335673Y5953408D01*
X942132Y4675603D01*
X956504Y4640905D01*
X1057952Y4489076D01*
X1187072Y4359956D01*
X1338901Y4258508D01*
X1507604Y4188628D01*
X1686699Y4153004D01*
X1869301Y4153004D01*
X2048396Y4188628D01*
X2217099Y4258508D01*
X2368928Y4359956D01*
X2498048Y4489076D01*
X2599496Y4640905D01*
X2669376Y4809608D01*
X2705000Y4988703D01*
X2705000Y5171305D01*
X2669376Y5350400D01*
X2599496Y5519103D01*
X2520691Y5637044D01*
X3482128Y4675607D01*
X3496504Y4640901D01*
X3597952Y4489072D01*
X3727072Y4359952D01*
X3878901Y4258504D01*
X4047604Y4188624D01*
X4226699Y4153000D01*
X4409301Y4153000D01*
X4588396Y4188624D01*
X4757099Y4258504D01*
X4908928Y4359952D01*
X5038048Y4489072D01*
X5139496Y4640901D01*
X5209376Y4809604D01*
X5245000Y4988699D01*
X5245000Y5171301D01*
X5209376Y5350396D01*
X5139496Y5519099D01*
X5038048Y5670928D01*
X4908928Y5800048D01*
X4757099Y5901496D01*
X4722393Y5915872D01*
X3671000Y6967265D01*
X3671000Y12236921D01*
X3675243Y12280000D01*
X3658310Y12451923D01*
X3616424Y12590000D01*
X3608162Y12617237D01*
X3526727Y12769592D01*
X3417133Y12903133D01*
X3383664Y12930600D01*
X3355872Y12958392D01*
X3341496Y12993099D01*
X3240048Y13144928D01*
X3110928Y13274048D01*
X2959099Y13375496D01*
X2790396Y13445376D01*
X2611301Y13481000D01*
X2428699Y13481000D01*
X2249604Y13445376D01*
X2080901Y13375496D01*
X1929072Y13274048D01*
X1799952Y13144928D01*
X1698504Y12993099D01*
X1628624Y12824396D01*
X1593000Y12645301D01*
X1593000Y12462699D01*
X1628624Y12283604D01*
X1698504Y12114901D01*
X1799952Y11963072D01*
X1917001Y11846023D01*
X1917000Y6647080D01*
X1912757Y6604000D01*
X1929690Y6432078D01*
X1962089Y6325273D01*
X1979838Y6266764D01*
X2061273Y6114409D01*
X2170867Y5980867D01*
X2204332Y5953403D01*
X2335040Y5822695D01*
X2217099Y5901500D01*
X2182388Y5915878D01*
X1131000Y6967265D01*
X1131000Y11893635D01*
X1217123Y12022528D01*
X1287003Y12191231D01*
X1322627Y12370326D01*
X1322627Y12552928D01*
X1287003Y12732023D01*
X1217123Y12900726D01*
X1115675Y13052555D01*
X986555Y13181675D01*
X834726Y13283123D01*
X666023Y13353003D01*
X486928Y13388627D01*
X304326Y13388627D01*
X125231Y13353003D01*
X-43472Y13283123D01*
X-195301Y13181675D01*
X-324421Y13052555D01*
X-425869Y12900726D01*
X-448222Y12846762D01*
X-478727Y12809591D01*
X-555533Y12665897D01*
X-560162Y12657236D01*
X-610310Y12491922D01*
X-627243Y12320000D01*
X-11259000Y12320000D01*
X-11259000Y13511119D01*
X-10907276Y13511119D01*
X-10547088Y13021452D01*
X-9883118Y12661151D01*
X-9161615Y12437306D01*
X-8410305Y12358520D01*
X-7658062Y12427822D01*
X-6933792Y12642548D01*
X-6265330Y12994445D01*
X-6224912Y13021452D01*
X-5864724Y13511119D01*
X-8386000Y16032395D01*
X-10907276Y13511119D01*
X-11259000Y13511119D01*
X-11259000Y13817331D01*
X-11086881Y13690724D01*
X-8565605Y16212000D01*
X-8206395Y16212000D01*
X-5685119Y13690724D01*
X-5195452Y14050912D01*
X-4835151Y14714882D01*
X-4611306Y15436385D01*
X-4532520Y16187695D01*
X-4601822Y16939938D01*
X-4816548Y17664208D01*
X-5168445Y18332670D01*
X-5195452Y18373088D01*
X-5685119Y18733276D01*
X-8206395Y16212000D01*
X-8565605Y16212000D01*
X-11086881Y18733276D01*
X-11259000Y18606669D01*
X-11259000Y19085000D01*
X-10780669Y19085000D01*
X-10907276Y18912881D01*
X-10907276Y18912881D01*
G37*
X-10907276Y18912881D02*
X-8386000Y16391605D01*
X-5864724Y18912881D01*
X-5991331Y19085000D01*
X-4483000Y19085000D01*
X-4483000Y18958699D01*
X-4447376Y18779604D01*
X-4377496Y18610901D01*
X-4276048Y18459072D01*
X-4146928Y18329952D01*
X-3995099Y18228504D01*
X-3826396Y18158624D01*
X-3647301Y18123000D01*
X-3464699Y18123000D01*
X-3285604Y18158624D01*
X-3250898Y18173000D01*
X-663512Y18173000D01*
X-673000Y18125301D01*
X-673000Y17942699D01*
X-637376Y17763604D01*
X-567496Y17594901D01*
X-466048Y17443072D01*
X-336928Y17313952D01*
X-185099Y17212504D01*
X-16396Y17142624D01*
X162699Y17107000D01*
X345301Y17107000D01*
X524396Y17142624D01*
X559102Y17157000D01*
X16544309Y17157000D01*
X16533967Y17052000D01*
X16533967Y16452000D01*
X16546073Y16329087D01*
X16581925Y16210897D01*
X16632114Y16117000D01*
X16581925Y16023103D01*
X16546073Y15904913D01*
X16533967Y15782000D01*
X16533967Y15182000D01*
X16541130Y15109273D01*
X16526396Y15115376D01*
X16347301Y15151000D01*
X16164699Y15151000D01*
X15985604Y15115376D01*
X15816901Y15045496D01*
X15665072Y14944048D01*
X15535952Y14814928D01*
X15434504Y14663099D01*
X15380832Y14533524D01*
X15346075Y14648103D01*
X15287853Y14757028D01*
X15209501Y14852501D01*
X15114028Y14930853D01*
X15073583Y14952472D01*
X15038162Y15069237D01*
X15027967Y15088310D01*
X14956727Y15221592D01*
X14847133Y15355133D01*
X14813669Y15382596D01*
X14239597Y15956668D01*
X14212133Y15990133D01*
X14078592Y16099727D01*
X13926237Y16181162D01*
X13760922Y16231310D01*
X13710207Y16236305D01*
X13589000Y16248243D01*
X13545921Y16244000D01*
X8971119Y16244000D01*
X8914028Y16290853D01*
X8805103Y16349075D01*
X8686913Y16384927D01*
X8564000Y16397033D01*
X6664000Y16397033D01*
X6541087Y16384927D01*
X6422897Y16349075D01*
X6313972Y16290853D01*
X6218499Y16212501D01*
X6140147Y16117028D01*
X6081925Y16008103D01*
X6046073Y15889913D01*
X6033967Y15767000D01*
X6033967Y15232689D01*
X6009501Y15262501D01*
X5914028Y15340853D01*
X5805103Y15399075D01*
X5686913Y15434927D01*
X5564000Y15447033D01*
X3664000Y15447033D01*
X3541087Y15434927D01*
X3422897Y15399075D01*
X3313972Y15340853D01*
X3271410Y15305924D01*
X3260048Y15322928D01*
X3130928Y15452048D01*
X2979099Y15553496D01*
X2810396Y15623376D01*
X2631301Y15659000D01*
X2448699Y15659000D01*
X2269604Y15623376D01*
X2100901Y15553496D01*
X1949072Y15452048D01*
X1819952Y15322928D01*
X1718504Y15171099D01*
X1648624Y15002396D01*
X1613000Y14823301D01*
X1613000Y14640699D01*
X1648624Y14461604D01*
X1718504Y14292901D01*
X1819952Y14141072D01*
X1949072Y14011952D01*
X2100901Y13910504D01*
X2135608Y13896128D01*
X2204399Y13827336D01*
X2231867Y13793867D01*
X2365408Y13684273D01*
X2517763Y13602838D01*
X2683078Y13552690D01*
X2811921Y13540000D01*
X2811930Y13540000D01*
X2854999Y13535758D01*
X2898069Y13540000D01*
X3256881Y13540000D01*
X3313972Y13493147D01*
X3422897Y13434925D01*
X3541087Y13399073D01*
X3664000Y13386967D01*
X3737000Y13386967D01*
X3737001Y9907089D01*
X3732757Y9864000D01*
X3749690Y9692078D01*
X3799838Y9526764D01*
X3881274Y9374408D01*
X3963406Y9274329D01*
X3963409Y9274326D01*
X3990868Y9240867D01*
X4024327Y9213408D01*
X8239403Y4998332D01*
X8266867Y4964867D01*
X8400408Y4855273D01*
X8552763Y4773838D01*
X8718078Y4723690D01*
X8846921Y4711000D01*
X8846922Y4711000D01*
X8889999Y4706757D01*
X8933076Y4711000D01*
X10571062Y4711000D01*
X10563403Y4701668D01*
X9400735Y3539000D01*
X3975079Y3539000D01*
X3932000Y3543243D01*
X3760077Y3526310D01*
X3599998Y3477750D01*
X3594763Y3476162D01*
X3442408Y3394727D01*
X3308867Y3285133D01*
X3281406Y3251671D01*
X-4759000Y-4788735D01*
X-4759000Y7712000D01*
X-4761440Y7736776D01*
X-4768667Y7760601D01*
X-4780403Y7782557D01*
X-4796197Y7801803D01*
X-4815443Y7817597D01*
X-4837399Y7829333D01*
X-4861224Y7836560D01*
X-4876260Y7838626D01*
X-11259000Y8329606D01*
X-11259000Y12320000D01*
X-627243Y12320000D01*
X-623000Y12276920D01*
X-622999Y6647089D01*
X-627243Y6604000D01*
X-610310Y6432078D01*
X-560162Y6266764D01*
X-478726Y6114408D01*
X-396594Y6014329D01*
X-396593Y6014328D01*
X-369132Y5980867D01*
X-335673Y5953408D01*
X942132Y4675603D01*
X956504Y4640905D01*
X1057952Y4489076D01*
X1187072Y4359956D01*
X1338901Y4258508D01*
X1507604Y4188628D01*
X1686699Y4153004D01*
X1869301Y4153004D01*
X2048396Y4188628D01*
X2217099Y4258508D01*
X2368928Y4359956D01*
X2498048Y4489076D01*
X2599496Y4640905D01*
X2669376Y4809608D01*
X2705000Y4988703D01*
X2705000Y5171305D01*
X2669376Y5350400D01*
X2599496Y5519103D01*
X2520691Y5637044D01*
X3482128Y4675607D01*
X3496504Y4640901D01*
X3597952Y4489072D01*
X3727072Y4359952D01*
X3878901Y4258504D01*
X4047604Y4188624D01*
X4226699Y4153000D01*
X4409301Y4153000D01*
X4588396Y4188624D01*
X4757099Y4258504D01*
X4908928Y4359952D01*
X5038048Y4489072D01*
X5139496Y4640901D01*
X5209376Y4809604D01*
X5245000Y4988699D01*
X5245000Y5171301D01*
X5209376Y5350396D01*
X5139496Y5519099D01*
X5038048Y5670928D01*
X4908928Y5800048D01*
X4757099Y5901496D01*
X4722393Y5915872D01*
X3671000Y6967265D01*
X3671000Y12236921D01*
X3675243Y12280000D01*
X3658310Y12451923D01*
X3616424Y12590000D01*
X3608162Y12617237D01*
X3526727Y12769592D01*
X3417133Y12903133D01*
X3383664Y12930600D01*
X3355872Y12958392D01*
X3341496Y12993099D01*
X3240048Y13144928D01*
X3110928Y13274048D01*
X2959099Y13375496D01*
X2790396Y13445376D01*
X2611301Y13481000D01*
X2428699Y13481000D01*
X2249604Y13445376D01*
X2080901Y13375496D01*
X1929072Y13274048D01*
X1799952Y13144928D01*
X1698504Y12993099D01*
X1628624Y12824396D01*
X1593000Y12645301D01*
X1593000Y12462699D01*
X1628624Y12283604D01*
X1698504Y12114901D01*
X1799952Y11963072D01*
X1917001Y11846023D01*
X1917000Y6647080D01*
X1912757Y6604000D01*
X1929690Y6432078D01*
X1962089Y6325273D01*
X1979838Y6266764D01*
X2061273Y6114409D01*
X2170867Y5980867D01*
X2204332Y5953403D01*
X2335040Y5822695D01*
X2217099Y5901500D01*
X2182388Y5915878D01*
X1131000Y6967265D01*
X1131000Y11893635D01*
X1217123Y12022528D01*
X1287003Y12191231D01*
X1322627Y12370326D01*
X1322627Y12552928D01*
X1287003Y12732023D01*
X1217123Y12900726D01*
X1115675Y13052555D01*
X986555Y13181675D01*
X834726Y13283123D01*
X666023Y13353003D01*
X486928Y13388627D01*
X304326Y13388627D01*
X125231Y13353003D01*
X-43472Y13283123D01*
X-195301Y13181675D01*
X-324421Y13052555D01*
X-425869Y12900726D01*
X-448222Y12846762D01*
X-478727Y12809591D01*
X-555533Y12665897D01*
X-560162Y12657236D01*
X-610310Y12491922D01*
X-627243Y12320000D01*
X-11259000Y12320000D01*
X-11259000Y13511119D01*
X-10907276Y13511119D01*
X-10547088Y13021452D01*
X-9883118Y12661151D01*
X-9161615Y12437306D01*
X-8410305Y12358520D01*
X-7658062Y12427822D01*
X-6933792Y12642548D01*
X-6265330Y12994445D01*
X-6224912Y13021452D01*
X-5864724Y13511119D01*
X-8386000Y16032395D01*
X-10907276Y13511119D01*
X-11259000Y13511119D01*
X-11259000Y13817331D01*
X-11086881Y13690724D01*
X-8565605Y16212000D01*
X-8206395Y16212000D01*
X-5685119Y13690724D01*
X-5195452Y14050912D01*
X-4835151Y14714882D01*
X-4611306Y15436385D01*
X-4532520Y16187695D01*
X-4601822Y16939938D01*
X-4816548Y17664208D01*
X-5168445Y18332670D01*
X-5195452Y18373088D01*
X-5685119Y18733276D01*
X-8206395Y16212000D01*
X-8565605Y16212000D01*
X-11086881Y18733276D01*
X-11259000Y18606669D01*
X-11259000Y19085000D01*
X-10780669Y19085000D01*
X-10907276Y18912881D01*
G36*
X44121945Y4322236D02*
G01*
X44157235Y4279235D01*
X44200236Y4243945D01*
X44200239Y4243942D01*
X44279211Y4179132D01*
X44328843Y4138400D01*
X44524629Y4033750D01*
X44737069Y3969307D01*
X44878187Y3955408D01*
X44958000Y3947547D01*
X45013364Y3953000D01*
X45069112Y3953000D01*
X45108147Y3879972D01*
X45186499Y3784499D01*
X45281972Y3706147D01*
X45390897Y3647925D01*
X45509087Y3612073D01*
X45632000Y3599967D01*
X47332000Y3599967D01*
X47454913Y3612073D01*
X47573103Y3647925D01*
X47682028Y3706147D01*
X47777501Y3784499D01*
X47855853Y3879972D01*
X47914075Y3988897D01*
X47939081Y4071332D01*
X47972550Y4030550D01*
X48197453Y3845978D01*
X48454042Y3708828D01*
X48732457Y3624371D01*
X48949444Y3603000D01*
X49094556Y3603000D01*
X49244014Y3617720D01*
X50403406Y2458328D01*
X50430867Y2424867D01*
X50464326Y2397408D01*
X50464328Y2397406D01*
X50500065Y2368078D01*
X50564408Y2315273D01*
X50716763Y2233838D01*
X50882077Y2183690D01*
X51054000Y2166757D01*
X51097079Y2171000D01*
X64251182Y2171000D01*
X63062237Y982055D01*
X63019236Y946765D01*
X62983946Y903764D01*
X62983942Y903760D01*
X62878400Y775156D01*
X62773750Y579370D01*
X62754804Y516913D01*
X62709307Y366931D01*
X62693000Y201365D01*
X62693000Y201354D01*
X62687548Y146000D01*
X62693000Y90646D01*
X62693000Y-611364D01*
X62709307Y-776930D01*
X62773750Y-989370D01*
X62789967Y-1019710D01*
X62789967Y-1506000D01*
X62802073Y-1628913D01*
X62837925Y-1747103D01*
X62896147Y-1856028D01*
X62974499Y-1951501D01*
X62981502Y-1957248D01*
X62975823Y-1975967D01*
X62470000Y-1975967D01*
X62347087Y-1988073D01*
X62228897Y-2023925D01*
X62119972Y-2082147D01*
X62024499Y-2160499D01*
X61946147Y-2255972D01*
X61887925Y-2364897D01*
X61852073Y-2483087D01*
X61839967Y-2606000D01*
X61839967Y-2679000D01*
X60749069Y-2679000D01*
X60705999Y-2674758D01*
X60662930Y-2679000D01*
X60662921Y-2679000D01*
X60534078Y-2691690D01*
X60368763Y-2741838D01*
X60216408Y-2823273D01*
X60082867Y-2932867D01*
X60055399Y-2966337D01*
X59834736Y-3187000D01*
X59154353Y-3187000D01*
X59150075Y-3172897D01*
X59091853Y-3063972D01*
X59013501Y-2968499D01*
X58918028Y-2890147D01*
X58809103Y-2831925D01*
X58690913Y-2796073D01*
X58568000Y-2783967D01*
X57068000Y-2783967D01*
X56945087Y-2796073D01*
X56826897Y-2831925D01*
X56717972Y-2890147D01*
X56622499Y-2968499D01*
X56544147Y-3063972D01*
X56485925Y-3172897D01*
X56468000Y-3231989D01*
X56450075Y-3172897D01*
X56391853Y-3063972D01*
X56313501Y-2968499D01*
X56218028Y-2890147D01*
X56109103Y-2831925D01*
X55990913Y-2796073D01*
X55868000Y-2783967D01*
X54368000Y-2783967D01*
X54245087Y-2796073D01*
X54126897Y-2831925D01*
X54017972Y-2890147D01*
X53922499Y-2968499D01*
X53844147Y-3063972D01*
X53785925Y-3172897D01*
X53781647Y-3187000D01*
X48599266Y-3187000D01*
X49893266Y-1893000D01*
X59130898Y-1893000D01*
X59165604Y-1907376D01*
X59344699Y-1943000D01*
X59527301Y-1943000D01*
X59706396Y-1907376D01*
X59875099Y-1837496D01*
X60026928Y-1736048D01*
X60156048Y-1606928D01*
X60257496Y-1455099D01*
X60327376Y-1286396D01*
X60363000Y-1107301D01*
X60363000Y-924699D01*
X60327376Y-745604D01*
X60257496Y-576901D01*
X60156048Y-425072D01*
X60026928Y-295952D01*
X59875099Y-194504D01*
X59706396Y-124624D01*
X59527301Y-89000D01*
X59344699Y-89000D01*
X59165604Y-124624D01*
X59130898Y-139000D01*
X58719069Y-139000D01*
X58724072Y-88200D01*
X58721000Y1050D01*
X58562250Y159800D01*
X57613000Y159800D01*
X57613000Y139800D01*
X57359000Y139800D01*
X57359000Y159800D01*
X57339000Y159800D01*
X57339000Y413800D01*
X57359000Y413800D01*
X57359000Y1138050D01*
X57613000Y1138050D01*
X57613000Y413800D01*
X58562250Y413800D01*
X58721000Y572550D01*
X58724072Y661800D01*
X58711812Y786282D01*
X58675502Y905980D01*
X58616537Y1016294D01*
X58537185Y1112985D01*
X58440494Y1192337D01*
X58330180Y1251302D01*
X58210482Y1287612D01*
X58086000Y1299872D01*
X57771750Y1296800D01*
X57613000Y1138050D01*
X57359000Y1138050D01*
X57200250Y1296800D01*
X56886000Y1299872D01*
X56761518Y1287612D01*
X56641820Y1251302D01*
X56531506Y1192337D01*
X56528357Y1189753D01*
X56427103Y1243875D01*
X56308913Y1279727D01*
X56186000Y1291833D01*
X54986000Y1291833D01*
X54863087Y1279727D01*
X54744897Y1243875D01*
X54635972Y1185653D01*
X54609344Y1163800D01*
X53179872Y1163800D01*
X53101157Y1228400D01*
X52905371Y1333050D01*
X52692931Y1397493D01*
X52527365Y1413800D01*
X47840154Y1413800D01*
X47784799Y1419252D01*
X47729445Y1413800D01*
X47729435Y1413800D01*
X47563869Y1397493D01*
X47351429Y1333050D01*
X47155643Y1228400D01*
X46984035Y1087565D01*
X46948737Y1044554D01*
X46740246Y836064D01*
X46740239Y836058D01*
X44999182Y-905000D01*
X43909119Y-905000D01*
X43852028Y-858147D01*
X43743103Y-799925D01*
X43624913Y-764073D01*
X43502000Y-751967D01*
X42002000Y-751967D01*
X41879087Y-764073D01*
X41760897Y-799925D01*
X41651972Y-858147D01*
X41556499Y-936499D01*
X41478147Y-1031972D01*
X41419925Y-1140897D01*
X41402000Y-1199989D01*
X41384075Y-1140897D01*
X41325853Y-1031972D01*
X41247501Y-936499D01*
X41152028Y-858147D01*
X41043103Y-799925D01*
X40924913Y-764073D01*
X40921596Y-763746D01*
X40916310Y-710077D01*
X40866162Y-544763D01*
X40836673Y-489593D01*
X40784727Y-392408D01*
X40675133Y-258867D01*
X40641668Y-231403D01*
X40510265Y-100000D01*
X43007675Y2397409D01*
X43041133Y2424867D01*
X43069370Y2459273D01*
X43136774Y2541406D01*
X43150727Y2558408D01*
X43232162Y2710763D01*
X43269522Y2833922D01*
X43282310Y2876077D01*
X43299243Y3048000D01*
X43295000Y3091079D01*
X43295000Y5036931D01*
X43299242Y5080001D01*
X43295000Y5123070D01*
X43295000Y5123079D01*
X43292148Y5152033D01*
X44121945Y4322236D01*
X44121945Y4322236D01*
G37*
X44121945Y4322236D02*
X44157235Y4279235D01*
X44200236Y4243945D01*
X44200239Y4243942D01*
X44279211Y4179132D01*
X44328843Y4138400D01*
X44524629Y4033750D01*
X44737069Y3969307D01*
X44878187Y3955408D01*
X44958000Y3947547D01*
X45013364Y3953000D01*
X45069112Y3953000D01*
X45108147Y3879972D01*
X45186499Y3784499D01*
X45281972Y3706147D01*
X45390897Y3647925D01*
X45509087Y3612073D01*
X45632000Y3599967D01*
X47332000Y3599967D01*
X47454913Y3612073D01*
X47573103Y3647925D01*
X47682028Y3706147D01*
X47777501Y3784499D01*
X47855853Y3879972D01*
X47914075Y3988897D01*
X47939081Y4071332D01*
X47972550Y4030550D01*
X48197453Y3845978D01*
X48454042Y3708828D01*
X48732457Y3624371D01*
X48949444Y3603000D01*
X49094556Y3603000D01*
X49244014Y3617720D01*
X50403406Y2458328D01*
X50430867Y2424867D01*
X50464326Y2397408D01*
X50464328Y2397406D01*
X50500065Y2368078D01*
X50564408Y2315273D01*
X50716763Y2233838D01*
X50882077Y2183690D01*
X51054000Y2166757D01*
X51097079Y2171000D01*
X64251182Y2171000D01*
X63062237Y982055D01*
X63019236Y946765D01*
X62983946Y903764D01*
X62983942Y903760D01*
X62878400Y775156D01*
X62773750Y579370D01*
X62754804Y516913D01*
X62709307Y366931D01*
X62693000Y201365D01*
X62693000Y201354D01*
X62687548Y146000D01*
X62693000Y90646D01*
X62693000Y-611364D01*
X62709307Y-776930D01*
X62773750Y-989370D01*
X62789967Y-1019710D01*
X62789967Y-1506000D01*
X62802073Y-1628913D01*
X62837925Y-1747103D01*
X62896147Y-1856028D01*
X62974499Y-1951501D01*
X62981502Y-1957248D01*
X62975823Y-1975967D01*
X62470000Y-1975967D01*
X62347087Y-1988073D01*
X62228897Y-2023925D01*
X62119972Y-2082147D01*
X62024499Y-2160499D01*
X61946147Y-2255972D01*
X61887925Y-2364897D01*
X61852073Y-2483087D01*
X61839967Y-2606000D01*
X61839967Y-2679000D01*
X60749069Y-2679000D01*
X60705999Y-2674758D01*
X60662930Y-2679000D01*
X60662921Y-2679000D01*
X60534078Y-2691690D01*
X60368763Y-2741838D01*
X60216408Y-2823273D01*
X60082867Y-2932867D01*
X60055399Y-2966337D01*
X59834736Y-3187000D01*
X59154353Y-3187000D01*
X59150075Y-3172897D01*
X59091853Y-3063972D01*
X59013501Y-2968499D01*
X58918028Y-2890147D01*
X58809103Y-2831925D01*
X58690913Y-2796073D01*
X58568000Y-2783967D01*
X57068000Y-2783967D01*
X56945087Y-2796073D01*
X56826897Y-2831925D01*
X56717972Y-2890147D01*
X56622499Y-2968499D01*
X56544147Y-3063972D01*
X56485925Y-3172897D01*
X56468000Y-3231989D01*
X56450075Y-3172897D01*
X56391853Y-3063972D01*
X56313501Y-2968499D01*
X56218028Y-2890147D01*
X56109103Y-2831925D01*
X55990913Y-2796073D01*
X55868000Y-2783967D01*
X54368000Y-2783967D01*
X54245087Y-2796073D01*
X54126897Y-2831925D01*
X54017972Y-2890147D01*
X53922499Y-2968499D01*
X53844147Y-3063972D01*
X53785925Y-3172897D01*
X53781647Y-3187000D01*
X48599266Y-3187000D01*
X49893266Y-1893000D01*
X59130898Y-1893000D01*
X59165604Y-1907376D01*
X59344699Y-1943000D01*
X59527301Y-1943000D01*
X59706396Y-1907376D01*
X59875099Y-1837496D01*
X60026928Y-1736048D01*
X60156048Y-1606928D01*
X60257496Y-1455099D01*
X60327376Y-1286396D01*
X60363000Y-1107301D01*
X60363000Y-924699D01*
X60327376Y-745604D01*
X60257496Y-576901D01*
X60156048Y-425072D01*
X60026928Y-295952D01*
X59875099Y-194504D01*
X59706396Y-124624D01*
X59527301Y-89000D01*
X59344699Y-89000D01*
X59165604Y-124624D01*
X59130898Y-139000D01*
X58719069Y-139000D01*
X58724072Y-88200D01*
X58721000Y1050D01*
X58562250Y159800D01*
X57613000Y159800D01*
X57613000Y139800D01*
X57359000Y139800D01*
X57359000Y159800D01*
X57339000Y159800D01*
X57339000Y413800D01*
X57359000Y413800D01*
X57359000Y1138050D01*
X57613000Y1138050D01*
X57613000Y413800D01*
X58562250Y413800D01*
X58721000Y572550D01*
X58724072Y661800D01*
X58711812Y786282D01*
X58675502Y905980D01*
X58616537Y1016294D01*
X58537185Y1112985D01*
X58440494Y1192337D01*
X58330180Y1251302D01*
X58210482Y1287612D01*
X58086000Y1299872D01*
X57771750Y1296800D01*
X57613000Y1138050D01*
X57359000Y1138050D01*
X57200250Y1296800D01*
X56886000Y1299872D01*
X56761518Y1287612D01*
X56641820Y1251302D01*
X56531506Y1192337D01*
X56528357Y1189753D01*
X56427103Y1243875D01*
X56308913Y1279727D01*
X56186000Y1291833D01*
X54986000Y1291833D01*
X54863087Y1279727D01*
X54744897Y1243875D01*
X54635972Y1185653D01*
X54609344Y1163800D01*
X53179872Y1163800D01*
X53101157Y1228400D01*
X52905371Y1333050D01*
X52692931Y1397493D01*
X52527365Y1413800D01*
X47840154Y1413800D01*
X47784799Y1419252D01*
X47729445Y1413800D01*
X47729435Y1413800D01*
X47563869Y1397493D01*
X47351429Y1333050D01*
X47155643Y1228400D01*
X46984035Y1087565D01*
X46948737Y1044554D01*
X46740246Y836064D01*
X46740239Y836058D01*
X44999182Y-905000D01*
X43909119Y-905000D01*
X43852028Y-858147D01*
X43743103Y-799925D01*
X43624913Y-764073D01*
X43502000Y-751967D01*
X42002000Y-751967D01*
X41879087Y-764073D01*
X41760897Y-799925D01*
X41651972Y-858147D01*
X41556499Y-936499D01*
X41478147Y-1031972D01*
X41419925Y-1140897D01*
X41402000Y-1199989D01*
X41384075Y-1140897D01*
X41325853Y-1031972D01*
X41247501Y-936499D01*
X41152028Y-858147D01*
X41043103Y-799925D01*
X40924913Y-764073D01*
X40921596Y-763746D01*
X40916310Y-710077D01*
X40866162Y-544763D01*
X40836673Y-489593D01*
X40784727Y-392408D01*
X40675133Y-258867D01*
X40641668Y-231403D01*
X40510265Y-100000D01*
X43007675Y2397409D01*
X43041133Y2424867D01*
X43069370Y2459273D01*
X43136774Y2541406D01*
X43150727Y2558408D01*
X43232162Y2710763D01*
X43269522Y2833922D01*
X43282310Y2876077D01*
X43299243Y3048000D01*
X43295000Y3091079D01*
X43295000Y5036931D01*
X43299242Y5080001D01*
X43295000Y5123070D01*
X43295000Y5123079D01*
X43292148Y5152033D01*
X44121945Y4322236D01*
G36*
X19737000Y15090181D02*
G01*
X19737000Y14112354D01*
X19731548Y14057000D01*
X19737000Y14001646D01*
X19737000Y14001635D01*
X19753307Y13836069D01*
X19787786Y13722408D01*
X19817750Y13623630D01*
X19922400Y13427844D01*
X20027942Y13299240D01*
X20027946Y13299236D01*
X20063236Y13256235D01*
X20106237Y13220945D01*
X21142945Y12184236D01*
X21178235Y12141235D01*
X21221236Y12105945D01*
X21221239Y12105942D01*
X21339075Y12009237D01*
X21349843Y12000400D01*
X21545629Y11895750D01*
X21758069Y11831307D01*
X21923635Y11815000D01*
X21923645Y11815000D01*
X21933967Y11813983D01*
X21933967Y11372000D01*
X21946073Y11249087D01*
X21981925Y11130897D01*
X22032114Y11037000D01*
X21981925Y10943103D01*
X21946073Y10824913D01*
X21933967Y10702000D01*
X21933967Y10102000D01*
X21946073Y9979087D01*
X21981925Y9860897D01*
X22032114Y9767000D01*
X21981925Y9673103D01*
X21946073Y9554913D01*
X21933967Y9432000D01*
X21933967Y8832000D01*
X21946073Y8709087D01*
X21981925Y8590897D01*
X22032114Y8497000D01*
X21981925Y8403103D01*
X21946073Y8284913D01*
X21933967Y8162000D01*
X21933967Y7562000D01*
X21946073Y7439087D01*
X21981925Y7320897D01*
X22040147Y7211972D01*
X22118499Y7116499D01*
X22126043Y7110308D01*
X21024327Y6008592D01*
X20990868Y5981133D01*
X20963409Y5947674D01*
X20963406Y5947671D01*
X20881274Y5847592D01*
X20799838Y5695236D01*
X20749690Y5529922D01*
X20732757Y5358000D01*
X20737001Y5314911D01*
X20737000Y4113657D01*
X20715147Y4087028D01*
X20676112Y4014000D01*
X18387076Y4014000D01*
X18343999Y4018243D01*
X18300922Y4014000D01*
X18300921Y4014000D01*
X18172078Y4001310D01*
X18006763Y3951162D01*
X17854408Y3869727D01*
X17854406Y3869726D01*
X17854407Y3869726D01*
X17853363Y3868869D01*
X17837623Y3872000D01*
X17566377Y3872000D01*
X17300344Y3819083D01*
X17049746Y3715282D01*
X16824213Y3564586D01*
X16632414Y3372787D01*
X16481718Y3147254D01*
X16377917Y2896656D01*
X16325000Y2630623D01*
X16325000Y2359377D01*
X16377917Y2093344D01*
X16481718Y1842746D01*
X16632414Y1617213D01*
X16824213Y1425414D01*
X17049746Y1274718D01*
X17300344Y1170917D01*
X17566377Y1118000D01*
X17837623Y1118000D01*
X18103656Y1170917D01*
X18354254Y1274718D01*
X18579787Y1425414D01*
X18771586Y1617213D01*
X18922282Y1842746D01*
X19026083Y2093344D01*
X19059233Y2260000D01*
X20676112Y2260000D01*
X20711047Y2194643D01*
X20708463Y2191494D01*
X20649498Y2081180D01*
X20613188Y1961482D01*
X20600928Y1837000D01*
X20604000Y1522750D01*
X20762750Y1364000D01*
X21487000Y1364000D01*
X21487000Y1384000D01*
X21741000Y1384000D01*
X21741000Y1364000D01*
X21761000Y1364000D01*
X21761000Y1110000D01*
X21741000Y1110000D01*
X21741000Y160750D01*
X21746750Y155000D01*
X21741000Y149250D01*
X21741000Y-800000D01*
X21761000Y-800000D01*
X21761000Y-1054000D01*
X21741000Y-1054000D01*
X21741000Y-1074000D01*
X21487000Y-1074000D01*
X21487000Y-1054000D01*
X20762750Y-1054000D01*
X20604000Y-1212750D01*
X20600928Y-1527000D01*
X20613188Y-1651482D01*
X20649498Y-1771180D01*
X20708463Y-1881494D01*
X20711047Y-1884643D01*
X20676112Y-1950000D01*
X19012271Y-1950000D01*
X18922282Y-1732746D01*
X18771586Y-1507213D01*
X18579787Y-1315414D01*
X18354254Y-1164718D01*
X18103656Y-1060917D01*
X17837623Y-1008000D01*
X17566377Y-1008000D01*
X17300344Y-1060917D01*
X17049746Y-1164718D01*
X16824213Y-1315414D01*
X16632414Y-1507213D01*
X16481718Y-1732746D01*
X16377917Y-1983344D01*
X16344684Y-2150418D01*
X14847000Y-652735D01*
X14847000Y637000D01*
X20600928Y637000D01*
X20613188Y512518D01*
X20649498Y392820D01*
X20708463Y282506D01*
X20787815Y185815D01*
X20825363Y155000D01*
X20787815Y124185D01*
X20708463Y27494D01*
X20649498Y-82820D01*
X20613188Y-202518D01*
X20600928Y-327000D01*
X20604000Y-641250D01*
X20762750Y-800000D01*
X21487000Y-800000D01*
X21487000Y149250D01*
X21481250Y155000D01*
X21487000Y160750D01*
X21487000Y1110000D01*
X20762750Y1110000D01*
X20604000Y951250D01*
X20600928Y637000D01*
X14847000Y637000D01*
X14847000Y5036931D01*
X14851242Y5080001D01*
X14847000Y5123070D01*
X14847000Y5123079D01*
X14834310Y5251922D01*
X14784162Y5417237D01*
X14702727Y5569592D01*
X14593133Y5703133D01*
X14559664Y5730600D01*
X14112597Y6177668D01*
X14094033Y6200288D01*
X14094033Y8062000D01*
X14081927Y8184913D01*
X14062202Y8249937D01*
X14703669Y8891404D01*
X14737133Y8918867D01*
X14846727Y9052408D01*
X14928162Y9204763D01*
X14978310Y9370078D01*
X14991000Y9498921D01*
X14991000Y9498930D01*
X14995242Y9541999D01*
X14991000Y9585069D01*
X14991000Y9620647D01*
X15005103Y9624925D01*
X15114028Y9683147D01*
X15209501Y9761499D01*
X15287853Y9856972D01*
X15346075Y9965897D01*
X15381927Y10084087D01*
X15394033Y10207000D01*
X15394033Y11707000D01*
X15381927Y11829913D01*
X15346075Y11948103D01*
X15287853Y12057028D01*
X15209501Y12152501D01*
X15114028Y12230853D01*
X15005103Y12289075D01*
X14946011Y12307000D01*
X15005103Y12324925D01*
X15090933Y12370802D01*
X15109403Y12352332D01*
X15136867Y12318867D01*
X15270408Y12209273D01*
X15397699Y12141235D01*
X15422763Y12127838D01*
X15588077Y12077690D01*
X15759999Y12060757D01*
X15803079Y12065000D01*
X16543127Y12065000D01*
X16533967Y11972000D01*
X16533967Y11372000D01*
X16546073Y11249087D01*
X16581925Y11130897D01*
X16632114Y11037000D01*
X16581925Y10943103D01*
X16546073Y10824913D01*
X16533967Y10702000D01*
X16533967Y10102000D01*
X16546073Y9979087D01*
X16581925Y9860897D01*
X16632114Y9767000D01*
X16581925Y9673103D01*
X16546073Y9554913D01*
X16533967Y9432000D01*
X16533967Y8832000D01*
X16546073Y8709087D01*
X16581925Y8590897D01*
X16632114Y8497000D01*
X16581925Y8403103D01*
X16546073Y8284913D01*
X16533967Y8162000D01*
X16533967Y7562000D01*
X16546073Y7439087D01*
X16581925Y7320897D01*
X16640147Y7211972D01*
X16718499Y7116499D01*
X16813972Y7038147D01*
X16922897Y6979925D01*
X17041087Y6944073D01*
X17164000Y6931967D01*
X18664000Y6931967D01*
X18786913Y6944073D01*
X18905103Y6979925D01*
X19014028Y7038147D01*
X19109501Y7116499D01*
X19187853Y7211972D01*
X19246075Y7320897D01*
X19281927Y7439087D01*
X19294033Y7562000D01*
X19294033Y8162000D01*
X19281927Y8284913D01*
X19246075Y8403103D01*
X19195886Y8497000D01*
X19246075Y8590897D01*
X19281927Y8709087D01*
X19294033Y8832000D01*
X19294033Y9432000D01*
X19281927Y9554913D01*
X19246075Y9673103D01*
X19195886Y9767000D01*
X19246075Y9860897D01*
X19281927Y9979087D01*
X19294033Y10102000D01*
X19294033Y10702000D01*
X19281927Y10824913D01*
X19246075Y10943103D01*
X19195886Y11037000D01*
X19246075Y11130897D01*
X19281927Y11249087D01*
X19294033Y11372000D01*
X19294033Y11972000D01*
X19281927Y12094913D01*
X19246075Y12213103D01*
X19195886Y12307000D01*
X19246075Y12400897D01*
X19281927Y12519087D01*
X19294033Y12642000D01*
X19294033Y13242000D01*
X19281927Y13364913D01*
X19246075Y13483103D01*
X19195886Y13577000D01*
X19246075Y13670897D01*
X19281927Y13789087D01*
X19294033Y13912000D01*
X19294033Y14512000D01*
X19281927Y14634913D01*
X19246075Y14753103D01*
X19195886Y14847000D01*
X19246075Y14940897D01*
X19281927Y15059087D01*
X19294033Y15182000D01*
X19294033Y15533149D01*
X19737000Y15090181D01*
X19737000Y15090181D01*
G37*
X19737000Y15090181D02*
X19737000Y14112354D01*
X19731548Y14057000D01*
X19737000Y14001646D01*
X19737000Y14001635D01*
X19753307Y13836069D01*
X19787786Y13722408D01*
X19817750Y13623630D01*
X19922400Y13427844D01*
X20027942Y13299240D01*
X20027946Y13299236D01*
X20063236Y13256235D01*
X20106237Y13220945D01*
X21142945Y12184236D01*
X21178235Y12141235D01*
X21221236Y12105945D01*
X21221239Y12105942D01*
X21339075Y12009237D01*
X21349843Y12000400D01*
X21545629Y11895750D01*
X21758069Y11831307D01*
X21923635Y11815000D01*
X21923645Y11815000D01*
X21933967Y11813983D01*
X21933967Y11372000D01*
X21946073Y11249087D01*
X21981925Y11130897D01*
X22032114Y11037000D01*
X21981925Y10943103D01*
X21946073Y10824913D01*
X21933967Y10702000D01*
X21933967Y10102000D01*
X21946073Y9979087D01*
X21981925Y9860897D01*
X22032114Y9767000D01*
X21981925Y9673103D01*
X21946073Y9554913D01*
X21933967Y9432000D01*
X21933967Y8832000D01*
X21946073Y8709087D01*
X21981925Y8590897D01*
X22032114Y8497000D01*
X21981925Y8403103D01*
X21946073Y8284913D01*
X21933967Y8162000D01*
X21933967Y7562000D01*
X21946073Y7439087D01*
X21981925Y7320897D01*
X22040147Y7211972D01*
X22118499Y7116499D01*
X22126043Y7110308D01*
X21024327Y6008592D01*
X20990868Y5981133D01*
X20963409Y5947674D01*
X20963406Y5947671D01*
X20881274Y5847592D01*
X20799838Y5695236D01*
X20749690Y5529922D01*
X20732757Y5358000D01*
X20737001Y5314911D01*
X20737000Y4113657D01*
X20715147Y4087028D01*
X20676112Y4014000D01*
X18387076Y4014000D01*
X18343999Y4018243D01*
X18300922Y4014000D01*
X18300921Y4014000D01*
X18172078Y4001310D01*
X18006763Y3951162D01*
X17854408Y3869727D01*
X17854406Y3869726D01*
X17854407Y3869726D01*
X17853363Y3868869D01*
X17837623Y3872000D01*
X17566377Y3872000D01*
X17300344Y3819083D01*
X17049746Y3715282D01*
X16824213Y3564586D01*
X16632414Y3372787D01*
X16481718Y3147254D01*
X16377917Y2896656D01*
X16325000Y2630623D01*
X16325000Y2359377D01*
X16377917Y2093344D01*
X16481718Y1842746D01*
X16632414Y1617213D01*
X16824213Y1425414D01*
X17049746Y1274718D01*
X17300344Y1170917D01*
X17566377Y1118000D01*
X17837623Y1118000D01*
X18103656Y1170917D01*
X18354254Y1274718D01*
X18579787Y1425414D01*
X18771586Y1617213D01*
X18922282Y1842746D01*
X19026083Y2093344D01*
X19059233Y2260000D01*
X20676112Y2260000D01*
X20711047Y2194643D01*
X20708463Y2191494D01*
X20649498Y2081180D01*
X20613188Y1961482D01*
X20600928Y1837000D01*
X20604000Y1522750D01*
X20762750Y1364000D01*
X21487000Y1364000D01*
X21487000Y1384000D01*
X21741000Y1384000D01*
X21741000Y1364000D01*
X21761000Y1364000D01*
X21761000Y1110000D01*
X21741000Y1110000D01*
X21741000Y160750D01*
X21746750Y155000D01*
X21741000Y149250D01*
X21741000Y-800000D01*
X21761000Y-800000D01*
X21761000Y-1054000D01*
X21741000Y-1054000D01*
X21741000Y-1074000D01*
X21487000Y-1074000D01*
X21487000Y-1054000D01*
X20762750Y-1054000D01*
X20604000Y-1212750D01*
X20600928Y-1527000D01*
X20613188Y-1651482D01*
X20649498Y-1771180D01*
X20708463Y-1881494D01*
X20711047Y-1884643D01*
X20676112Y-1950000D01*
X19012271Y-1950000D01*
X18922282Y-1732746D01*
X18771586Y-1507213D01*
X18579787Y-1315414D01*
X18354254Y-1164718D01*
X18103656Y-1060917D01*
X17837623Y-1008000D01*
X17566377Y-1008000D01*
X17300344Y-1060917D01*
X17049746Y-1164718D01*
X16824213Y-1315414D01*
X16632414Y-1507213D01*
X16481718Y-1732746D01*
X16377917Y-1983344D01*
X16344684Y-2150418D01*
X14847000Y-652735D01*
X14847000Y637000D01*
X20600928Y637000D01*
X20613188Y512518D01*
X20649498Y392820D01*
X20708463Y282506D01*
X20787815Y185815D01*
X20825363Y155000D01*
X20787815Y124185D01*
X20708463Y27494D01*
X20649498Y-82820D01*
X20613188Y-202518D01*
X20600928Y-327000D01*
X20604000Y-641250D01*
X20762750Y-800000D01*
X21487000Y-800000D01*
X21487000Y149250D01*
X21481250Y155000D01*
X21487000Y160750D01*
X21487000Y1110000D01*
X20762750Y1110000D01*
X20604000Y951250D01*
X20600928Y637000D01*
X14847000Y637000D01*
X14847000Y5036931D01*
X14851242Y5080001D01*
X14847000Y5123070D01*
X14847000Y5123079D01*
X14834310Y5251922D01*
X14784162Y5417237D01*
X14702727Y5569592D01*
X14593133Y5703133D01*
X14559664Y5730600D01*
X14112597Y6177668D01*
X14094033Y6200288D01*
X14094033Y8062000D01*
X14081927Y8184913D01*
X14062202Y8249937D01*
X14703669Y8891404D01*
X14737133Y8918867D01*
X14846727Y9052408D01*
X14928162Y9204763D01*
X14978310Y9370078D01*
X14991000Y9498921D01*
X14991000Y9498930D01*
X14995242Y9541999D01*
X14991000Y9585069D01*
X14991000Y9620647D01*
X15005103Y9624925D01*
X15114028Y9683147D01*
X15209501Y9761499D01*
X15287853Y9856972D01*
X15346075Y9965897D01*
X15381927Y10084087D01*
X15394033Y10207000D01*
X15394033Y11707000D01*
X15381927Y11829913D01*
X15346075Y11948103D01*
X15287853Y12057028D01*
X15209501Y12152501D01*
X15114028Y12230853D01*
X15005103Y12289075D01*
X14946011Y12307000D01*
X15005103Y12324925D01*
X15090933Y12370802D01*
X15109403Y12352332D01*
X15136867Y12318867D01*
X15270408Y12209273D01*
X15397699Y12141235D01*
X15422763Y12127838D01*
X15588077Y12077690D01*
X15759999Y12060757D01*
X15803079Y12065000D01*
X16543127Y12065000D01*
X16533967Y11972000D01*
X16533967Y11372000D01*
X16546073Y11249087D01*
X16581925Y11130897D01*
X16632114Y11037000D01*
X16581925Y10943103D01*
X16546073Y10824913D01*
X16533967Y10702000D01*
X16533967Y10102000D01*
X16546073Y9979087D01*
X16581925Y9860897D01*
X16632114Y9767000D01*
X16581925Y9673103D01*
X16546073Y9554913D01*
X16533967Y9432000D01*
X16533967Y8832000D01*
X16546073Y8709087D01*
X16581925Y8590897D01*
X16632114Y8497000D01*
X16581925Y8403103D01*
X16546073Y8284913D01*
X16533967Y8162000D01*
X16533967Y7562000D01*
X16546073Y7439087D01*
X16581925Y7320897D01*
X16640147Y7211972D01*
X16718499Y7116499D01*
X16813972Y7038147D01*
X16922897Y6979925D01*
X17041087Y6944073D01*
X17164000Y6931967D01*
X18664000Y6931967D01*
X18786913Y6944073D01*
X18905103Y6979925D01*
X19014028Y7038147D01*
X19109501Y7116499D01*
X19187853Y7211972D01*
X19246075Y7320897D01*
X19281927Y7439087D01*
X19294033Y7562000D01*
X19294033Y8162000D01*
X19281927Y8284913D01*
X19246075Y8403103D01*
X19195886Y8497000D01*
X19246075Y8590897D01*
X19281927Y8709087D01*
X19294033Y8832000D01*
X19294033Y9432000D01*
X19281927Y9554913D01*
X19246075Y9673103D01*
X19195886Y9767000D01*
X19246075Y9860897D01*
X19281927Y9979087D01*
X19294033Y10102000D01*
X19294033Y10702000D01*
X19281927Y10824913D01*
X19246075Y10943103D01*
X19195886Y11037000D01*
X19246075Y11130897D01*
X19281927Y11249087D01*
X19294033Y11372000D01*
X19294033Y11972000D01*
X19281927Y12094913D01*
X19246075Y12213103D01*
X19195886Y12307000D01*
X19246075Y12400897D01*
X19281927Y12519087D01*
X19294033Y12642000D01*
X19294033Y13242000D01*
X19281927Y13364913D01*
X19246075Y13483103D01*
X19195886Y13577000D01*
X19246075Y13670897D01*
X19281927Y13789087D01*
X19294033Y13912000D01*
X19294033Y14512000D01*
X19281927Y14634913D01*
X19246075Y14753103D01*
X19195886Y14847000D01*
X19246075Y14940897D01*
X19281927Y15059087D01*
X19294033Y15182000D01*
X19294033Y15533149D01*
X19737000Y15090181D01*
G36*
X21925928Y17052000D02*
G01*
X21929000Y17037750D01*
X22087750Y16879000D01*
X23187000Y16879000D01*
X23187000Y16899000D01*
X23441000Y16899000D01*
X23441000Y16879000D01*
X23461000Y16879000D01*
X23461000Y16625000D01*
X23441000Y16625000D01*
X23441000Y16605000D01*
X23187000Y16605000D01*
X23187000Y16625000D01*
X22087750Y16625000D01*
X21929000Y16466250D01*
X21925928Y16452000D01*
X21938188Y16327518D01*
X21974498Y16207820D01*
X22027579Y16108515D01*
X21981925Y16023103D01*
X21946073Y15904913D01*
X21943647Y15880277D01*
X21910250Y15990371D01*
X21805600Y16186157D01*
X21787822Y16207820D01*
X21700058Y16314761D01*
X21700055Y16314764D01*
X21664765Y16357765D01*
X21621764Y16393055D01*
X21410690Y16604129D01*
X21430693Y16670070D01*
X21452452Y16891000D01*
X21430693Y17111930D01*
X21417021Y17157000D01*
X21936269Y17157000D01*
X21925928Y17052000D01*
X21925928Y17052000D01*
G37*
X21925928Y17052000D02*
X21929000Y17037750D01*
X22087750Y16879000D01*
X23187000Y16879000D01*
X23187000Y16899000D01*
X23441000Y16899000D01*
X23441000Y16879000D01*
X23461000Y16879000D01*
X23461000Y16625000D01*
X23441000Y16625000D01*
X23441000Y16605000D01*
X23187000Y16605000D01*
X23187000Y16625000D01*
X22087750Y16625000D01*
X21929000Y16466250D01*
X21925928Y16452000D01*
X21938188Y16327518D01*
X21974498Y16207820D01*
X22027579Y16108515D01*
X21981925Y16023103D01*
X21946073Y15904913D01*
X21943647Y15880277D01*
X21910250Y15990371D01*
X21805600Y16186157D01*
X21787822Y16207820D01*
X21700058Y16314761D01*
X21700055Y16314764D01*
X21664765Y16357765D01*
X21621764Y16393055D01*
X21410690Y16604129D01*
X21430693Y16670070D01*
X21452452Y16891000D01*
X21430693Y17111930D01*
X21417021Y17157000D01*
X21936269Y17157000D01*
X21925928Y17052000D01*
M02*
