G04 #@! TF.GenerationSoftware,KiCad,Pcbnew,(5.1.0)-1*
G04 #@! TF.CreationDate,2020-04-13T11:23:52+02:00*
G04 #@! TF.ProjectId,objet_chambre,6f626a65-745f-4636-9861-6d6272652e6b,rev?*
G04 #@! TF.SameCoordinates,PX9fa1b90PY2b1e160*
G04 #@! TF.FileFunction,Soldermask,Bot*
G04 #@! TF.FilePolarity,Negative*
%FSLAX46Y46*%
G04 Gerber Fmt 4.6, Leading zero omitted, Abs format (unit mm)*
G04 Created by KiCad (PCBNEW (5.1.0)-1) date 2020-04-13 11:23:52*
%MOMM*%
%LPD*%
G04 APERTURE LIST*
%ADD10R,1.200000X2.300000*%
%ADD11C,2.100000*%
%ADD12O,2.100000X2.100000*%
%ADD13R,2.100000X2.100000*%
%ADD14R,1.900000X1.000000*%
%ADD15C,6.800000*%
%ADD16R,1.600000X1.300000*%
%ADD17R,1.150000X1.600000*%
%ADD18C,2.400000*%
%ADD19R,2.400000X2.400000*%
%ADD20C,2.000000*%
%ADD21R,2.000000X2.000000*%
%ADD22R,1.600000X1.150000*%
%ADD23C,2.000000*%
%ADD24C,0.100000*%
%ADD25O,1.400000X1.950000*%
%ADD26O,1.650000X1.350000*%
%ADD27R,2.300000X1.200000*%
%ADD28R,1.700000X1.900000*%
%ADD29C,1.900000*%
%ADD30R,1.900000X1.700000*%
%ADD31C,1.840000*%
%ADD32R,0.950000X2.150000*%
%ADD33C,1.400000*%
G04 APERTURE END LIST*
D10*
X63820000Y-556000D03*
X62870000Y-3556000D03*
X64770000Y-3556000D03*
D11*
X28804000Y9212000D03*
D12*
X31344000Y9212000D03*
X33884000Y9212000D03*
D11*
X36424000Y9212000D03*
D13*
X26670000Y-8128000D03*
D12*
X29210000Y-8128000D03*
X31750000Y-8128000D03*
X34290000Y-8128000D03*
X36830000Y-8128000D03*
X39370000Y-8128000D03*
D14*
X17914000Y16752000D03*
X17914000Y15482000D03*
X17914000Y14212000D03*
X17914000Y12942000D03*
X17914000Y11672000D03*
X17914000Y10402000D03*
X17914000Y9132000D03*
X17914000Y7862000D03*
X23314000Y7862000D03*
X23314000Y9132000D03*
X23314000Y10402000D03*
X23314000Y11672000D03*
X23314000Y12942000D03*
X23314000Y14212000D03*
X23314000Y15482000D03*
X23314000Y16752000D03*
D15*
X73614000Y-15788000D03*
X73614000Y16212000D03*
X-8386000Y-15788000D03*
X-8386000Y16212000D03*
D16*
X30566000Y6096000D03*
X32766000Y6096000D03*
D17*
X5334000Y-2098000D03*
X5334000Y-3998000D03*
D18*
X70278000Y6604000D03*
D19*
X65278000Y6604000D03*
D17*
X21614000Y-2827000D03*
X21614000Y-927000D03*
X21614000Y3137000D03*
X21614000Y1237000D03*
D20*
X63782000Y15934000D03*
D21*
X63782000Y13434000D03*
D17*
X-7112000Y-11110000D03*
X-7112000Y-9210000D03*
X3048000Y-2098000D03*
X3048000Y-3998000D03*
D22*
X57018000Y-14288000D03*
X55118000Y-14288000D03*
X70678000Y-7788000D03*
X72578000Y-7788000D03*
X55586000Y286800D03*
X57486000Y286800D03*
X36388000Y4064000D03*
X38288000Y4064000D03*
D20*
X75433114Y10922000D03*
D23*
X75433114Y10922000D02*
X75433114Y10922000D01*
D20*
X68834000Y14732000D03*
D24*
G36*
X67467975Y14365975D02*
G01*
X68467975Y16098025D01*
X70200025Y15098025D01*
X69200025Y13365975D01*
X67467975Y14365975D01*
X67467975Y14365975D01*
G37*
D18*
X37801504Y12789030D03*
X48514000Y8890000D03*
D25*
X29090000Y18975000D03*
X36090000Y18975000D03*
D26*
X30090000Y16275000D03*
X35090000Y16275000D03*
D12*
X-10668000Y-11684000D03*
D13*
X-10668000Y-9144000D03*
D12*
X51562000Y5080000D03*
X49022000Y5080000D03*
D13*
X46482000Y5080000D03*
D10*
X11164000Y7112000D03*
X13064000Y7112000D03*
X12114000Y4112000D03*
D27*
X4614000Y14417000D03*
X7614000Y13467000D03*
X7614000Y15367000D03*
D28*
X14114000Y10957000D03*
X14114000Y13657000D03*
X10614000Y10922000D03*
X10614000Y13622000D03*
D29*
X34290000Y-17780000D03*
X30890000Y-17780000D03*
D30*
X55118000Y-4064000D03*
X57818000Y-4064000D03*
X42752000Y-2032000D03*
X40052000Y-2032000D03*
X40052000Y-4572000D03*
X42752000Y-4572000D03*
D31*
X16510000Y-10160000D03*
X13970000Y-10160000D03*
X11430000Y-10160000D03*
D13*
X75946000Y6604000D03*
D12*
X75946000Y4064000D03*
X75946000Y1524000D03*
X75946000Y-1016000D03*
D32*
X29337000Y-4208000D03*
X30607000Y-4208000D03*
X31877000Y-4208000D03*
X33147000Y-4208000D03*
X33147000Y3192000D03*
X31877000Y3192000D03*
X30607000Y3192000D03*
X29337000Y3192000D03*
D29*
X17702000Y2495000D03*
X17702000Y-2385000D03*
D33*
X24130000Y3556000D03*
X26030000Y3556000D03*
M02*
