%MOIN*%
%OFA0B0*%
%FSLAX46Y46*%
%IPPOS*%
%LPD*%
%ADD10C,0.0039370078740157488*%
%ADD11C,0.0047244094488188976*%
%ADD12C,0.005905511811023622*%
%ADD23C,0.0039370078740157488*%
%ADD24C,0.0047244094488188976*%
%ADD25C,0.005905511811023622*%
%LPD*%
G01*
D10*
D11*
X0001570866Y0003194881D02*
X0001570866Y0003222440D01*
X0001618110Y0003222440D02*
X0001618110Y0003194881D01*
X0002100393Y0003426377D02*
X0001757874Y0003426377D01*
X0002100393Y0003174015D02*
X0001757874Y0003174015D01*
X0001757874Y0003174015D02*
X0001757874Y0003426377D01*
X0001757874Y0003377952D02*
X0002100393Y0003377952D01*
X0002100393Y0003426377D02*
X0002100393Y0003174015D01*
X0002032283Y0001837401D02*
X0002032283Y0001942125D01*
X0001929921Y0001837401D02*
X0002032283Y0001837401D01*
X0001929921Y0001942125D02*
X0002032283Y0001942125D01*
X0001929921Y0001837401D02*
X0001929921Y0001942125D01*
X0001879921Y0001837401D02*
X0001827559Y0001837401D01*
X0001827559Y0001837401D02*
X0001827559Y0001889763D01*
X0002566535Y0002407874D02*
X0002669685Y0002407874D01*
X0002669685Y0002407874D02*
X0002669685Y0002660629D01*
X0002669685Y0002660629D02*
X0002566535Y0002660629D01*
X0002566535Y0002660629D02*
X0002566535Y0002407874D01*
X0002618110Y0002272834D02*
X0002618110Y0002407874D01*
X0002618110Y0002795669D02*
X0002618110Y0002660629D01*
X0000124803Y0002403543D02*
X0000229527Y0002403543D01*
X0000124803Y0002705905D02*
X0000124803Y0002403543D01*
X0000229527Y0002705905D02*
X0000229527Y0002403543D01*
X0000124803Y0002705905D02*
X0000229527Y0002705905D01*
X0000124803Y0002755905D02*
X0000124803Y0002808267D01*
X0000124803Y0002808267D02*
X0000177165Y0002808267D01*
D12*
X0003642047Y0002598425D02*
G75*
G03X0003642047Y0002598425I-0000020000D01*
G01*
X0003802047Y0002598425D02*
G75*
G03X0003802047Y0002598425I-0000180000D01*
G01*
X0003222047Y0002598425D02*
X0003222047Y0002398425D01*
X0003222047Y0002398425D02*
X0003822047Y0002398425D01*
X0003822047Y0002398425D02*
X0003822047Y0002798425D01*
X0003822047Y0002798425D02*
X0003222047Y0002798425D01*
X0003222047Y0002598425D02*
X0003222047Y0002798425D01*
D11*
X0003229685Y0002446062D02*
X0003334409Y0002446062D01*
X0003229685Y0002648425D02*
X0003229685Y0002446062D01*
X0003334409Y0002648425D02*
X0003334409Y0002446062D01*
X0003229685Y0002648425D02*
X0003334409Y0002648425D01*
X0003229685Y0002698425D02*
X0003229685Y0002750787D01*
X0003229685Y0002750787D02*
X0003282047Y0002750787D01*
D12*
X0002972755Y0003070866D02*
G75*
G03X0002972755Y0003070866I-0000020000D01*
G01*
X0003132755Y0003070866D02*
G75*
G03X0003132755Y0003070866I-0000180000D01*
G01*
X0002952755Y0002670866D02*
X0003152755Y0002670866D01*
X0003152755Y0002670866D02*
X0003152755Y0003270866D01*
X0003152755Y0003270866D02*
X0002752755Y0003270866D01*
X0002752755Y0003270866D02*
X0002752755Y0002670866D01*
X0002952755Y0002670866D02*
X0002752755Y0002670866D01*
D11*
X0003105118Y0002678503D02*
X0003105118Y0002783228D01*
X0002902755Y0002678503D02*
X0003105118Y0002678503D01*
X0002902755Y0002783228D02*
X0003105118Y0002783228D01*
X0002902755Y0002678503D02*
X0002902755Y0002783228D01*
X0002852755Y0002678503D02*
X0002800393Y0002678503D01*
X0002800393Y0002678503D02*
X0002800393Y0002730866D01*
D12*
X0002972755Y0002125984D02*
G75*
G03X0002972755Y0002125984I-0000020000D01*
G01*
X0003132755Y0002125984D02*
G75*
G03X0003132755Y0002125984I-0000180000D01*
G01*
X0002952755Y0002525984D02*
X0002752755Y0002525984D01*
X0002752755Y0002525984D02*
X0002752755Y0001925984D01*
X0002752755Y0001925984D02*
X0003152755Y0001925984D01*
X0003152755Y0001925984D02*
X0003152755Y0002525984D01*
X0002952755Y0002525984D02*
X0003152755Y0002525984D01*
D11*
X0002800393Y0002518346D02*
X0002800393Y0002413622D01*
X0003002755Y0002518346D02*
X0002800393Y0002518346D01*
X0003002755Y0002413622D02*
X0002800393Y0002413622D01*
X0003002755Y0002518346D02*
X0003002755Y0002413622D01*
X0003052755Y0002518346D02*
X0003105118Y0002518346D01*
X0003105118Y0002518346D02*
X0003105118Y0002465984D01*
D10*
X0000381201Y0003298316D02*
X0000609992Y0003298316D01*
X0000609992Y0003298316D02*
X0000611029Y0003247787D01*
X0000611029Y0003247787D02*
X0000958715Y0003248050D01*
X0000958715Y0003248050D02*
X0000958637Y0003295383D01*
X0000958637Y0003295383D02*
X0001316149Y0003294356D01*
X0001316149Y0003294356D02*
X0001315598Y0002067185D01*
X0001315598Y0002067185D02*
X0001306432Y0002043453D01*
X0001306432Y0002043453D02*
X0001295271Y0002022001D01*
X0001295271Y0002022001D02*
X0001282096Y0002002851D01*
X0001282096Y0002002851D02*
X0001266887Y0001986025D01*
X0001266887Y0001986025D02*
X0001249626Y0001971545D01*
X0001249626Y0001971545D02*
X0001230292Y0001959433D01*
X0001230292Y0001959433D02*
X0001208868Y0001949712D01*
X0001208868Y0001949712D02*
X0001185332Y0001942402D01*
X0001185332Y0001942402D02*
X0000435808Y0001941270D01*
X0000435808Y0001941270D02*
X0000411424Y0001950482D01*
X0000411424Y0001950482D02*
X0000388267Y0001961682D01*
X0000388267Y0001961682D02*
X0000366872Y0001975443D01*
X0000366872Y0001975443D02*
X0000347775Y0001992336D01*
X0000347775Y0001992336D02*
X0000331512Y0002012934D01*
X0000331512Y0002012934D02*
X0000318617Y0002037810D01*
X0000318617Y0002037810D02*
X0000309626Y0002067536D01*
X0000309626Y0002067536D02*
X0000305075Y0002102684D01*
X0000305075Y0002102684D02*
X0000304093Y0002990680D01*
X0000304093Y0002990680D02*
X0000380611Y0003028511D01*
X0000380611Y0003028511D02*
X0000381784Y0003296556D01*
X0000932269Y0003053206D02*
X0000651183Y0003053206D01*
X0000651183Y0003053206D02*
X0000651183Y0003282094D01*
X0000651183Y0003282094D02*
X0000932269Y0003282094D01*
X0000932269Y0003282094D02*
X0000932269Y0003053206D01*
X0000384110Y0003027651D02*
X0000445221Y0003027651D01*
X0000445221Y0003027651D02*
X0000466054Y0003048484D01*
X0000466054Y0003048484D02*
X0000515360Y0003048484D01*
X0000515360Y0003048484D02*
X0000515360Y0003247790D01*
X0000515360Y0003247790D02*
X0000464665Y0003247790D01*
X0000464665Y0003247790D02*
X0000443832Y0003267234D01*
X0000443832Y0003267234D02*
X0000382026Y0003267234D01*
X0000382026Y0003267234D02*
X0000384110Y0003027651D01*
X0000382721Y0003109595D02*
X0000357026Y0003109595D01*
X0000357026Y0003109595D02*
X0000357026Y0003188068D01*
X0000357026Y0003188068D02*
X0000381332Y0003188068D01*
D12*
X0002322834Y0002851062D02*
X0002322834Y0002344606D01*
X0001535433Y0002851062D02*
X0001535433Y0002344606D01*
X0001948818Y0002597834D02*
G75*
G03X0001948818Y0002597834I-0000019685D01*
G01*
X0001535433Y0002344606D02*
X0002322834Y0002344606D01*
X0001535433Y0002851062D02*
X0002322834Y0002851062D01*
X0002109133Y0003063425D02*
X0001929133Y0003063425D01*
X0001929133Y0003063425D02*
X0001387795Y0003063425D01*
X0001387795Y0003063425D02*
X0001387795Y0001967992D01*
X0001387795Y0001967992D02*
X0002470472Y0001967992D01*
X0002470472Y0001967992D02*
X0002470472Y0003063425D01*
X0002470472Y0003063425D02*
X0002109133Y0003063425D01*
X0001735826Y0003062480D02*
X0002122440Y0003062480D01*
X0002122440Y0003062480D02*
X0002122440Y0002944370D01*
X0002122440Y0002944370D02*
X0001735826Y0002944370D01*
X0001735826Y0002944370D02*
X0001735826Y0003062480D01*
X0001829133Y0003062480D02*
X0001829133Y0002944370D01*
X0001559336Y0003202099D02*
X0001561211Y0003200225D01*
X0001563085Y0003194600D01*
X0001563085Y0003190851D01*
X0001561211Y0003185226D01*
X0001557461Y0003181477D01*
X0001553712Y0003179602D01*
X0001546212Y0003177727D01*
X0001540588Y0003177727D01*
X0001533089Y0003179602D01*
X0001529340Y0003181477D01*
X0001525590Y0003185226D01*
X0001523715Y0003190851D01*
X0001523715Y0003194600D01*
X0001525590Y0003200225D01*
X0001527465Y0003202099D01*
X0001563085Y0003239595D02*
X0001563085Y0003217097D01*
X0001563085Y0003228346D02*
X0001523715Y0003228346D01*
X0001529340Y0003224596D01*
X0001533089Y0003220847D01*
X0001534964Y0003217097D01*
X0001916010Y0003161717D02*
X0001916010Y0003133595D01*
X0001914135Y0003127971D01*
X0001910386Y0003124221D01*
X0001904761Y0003122347D01*
X0001901012Y0003122347D01*
X0001953505Y0003161717D02*
X0001934758Y0003161717D01*
X0001932883Y0003142969D01*
X0001934758Y0003144844D01*
X0001938507Y0003146719D01*
X0001947881Y0003146719D01*
X0001951631Y0003144844D01*
X0001953505Y0003142969D01*
X0001955380Y0003139220D01*
X0001955380Y0003129846D01*
X0001953505Y0003126096D01*
X0001951631Y0003124221D01*
X0001947881Y0003122347D01*
X0001938507Y0003122347D01*
X0001934758Y0003124221D01*
X0001932883Y0003126096D01*
X0001765091Y0001871953D02*
X0001751968Y0001890701D01*
X0001742594Y0001871953D02*
X0001742594Y0001911323D01*
X0001757592Y0001911323D01*
X0001761342Y0001909448D01*
X0001763217Y0001907574D01*
X0001765091Y0001903824D01*
X0001765091Y0001898200D01*
X0001763217Y0001894450D01*
X0001761342Y0001892575D01*
X0001757592Y0001890701D01*
X0001742594Y0001890701D01*
X0001802587Y0001871953D02*
X0001780090Y0001871953D01*
X0001791338Y0001871953D02*
X0001791338Y0001911323D01*
X0001787589Y0001905699D01*
X0001783839Y0001901949D01*
X0001780090Y0001900075D01*
X0002544975Y0002527690D02*
X0002526227Y0002514566D01*
X0002544975Y0002505193D02*
X0002505605Y0002505193D01*
X0002505605Y0002520191D01*
X0002507480Y0002523940D01*
X0002509355Y0002525815D01*
X0002513104Y0002527690D01*
X0002518728Y0002527690D01*
X0002522478Y0002525815D01*
X0002524353Y0002523940D01*
X0002526227Y0002520191D01*
X0002526227Y0002505193D01*
X0002509355Y0002542688D02*
X0002507480Y0002544563D01*
X0002505605Y0002548312D01*
X0002505605Y0002557686D01*
X0002507480Y0002561436D01*
X0002509355Y0002563310D01*
X0002513104Y0002565185D01*
X0002516854Y0002565185D01*
X0002522478Y0002563310D01*
X0002544975Y0002540813D01*
X0002544975Y0002565185D01*
X0000147169Y0002869197D02*
X0000147169Y0002837326D01*
X0000149043Y0002833577D01*
X0000150918Y0002831702D01*
X0000154668Y0002829827D01*
X0000162167Y0002829827D01*
X0000165916Y0002831702D01*
X0000167791Y0002833577D01*
X0000169666Y0002837326D01*
X0000169666Y0002869197D01*
X0000184664Y0002869197D02*
X0000209036Y0002869197D01*
X0000195912Y0002854199D01*
X0000201537Y0002854199D01*
X0000205286Y0002852324D01*
X0000207161Y0002850449D01*
X0000209036Y0002846700D01*
X0000209036Y0002837326D01*
X0000207161Y0002833577D01*
X0000205286Y0002831702D01*
X0000201537Y0002829827D01*
X0000190288Y0002829827D01*
X0000186539Y0002831702D01*
X0000184664Y0002833577D01*
X0003140487Y0002568428D02*
X0003172358Y0002568428D01*
X0003176107Y0002570303D01*
X0003177982Y0002572178D01*
X0003179857Y0002575927D01*
X0003179857Y0002583427D01*
X0003177982Y0002587176D01*
X0003176107Y0002589051D01*
X0003172358Y0002590926D01*
X0003140487Y0002590926D01*
X0003153610Y0002626546D02*
X0003179857Y0002626546D01*
X0003138612Y0002617172D02*
X0003166734Y0002607799D01*
X0003166734Y0002632170D01*
X0002922759Y0002649512D02*
X0002922759Y0002617641D01*
X0002924634Y0002613891D01*
X0002926509Y0002612017D01*
X0002930258Y0002610142D01*
X0002937757Y0002610142D01*
X0002941507Y0002612017D01*
X0002943382Y0002613891D01*
X0002945256Y0002617641D01*
X0002945256Y0002649512D01*
X0002982752Y0002649512D02*
X0002964004Y0002649512D01*
X0002962129Y0002630764D01*
X0002964004Y0002632639D01*
X0002967754Y0002634514D01*
X0002977127Y0002634514D01*
X0002980877Y0002632639D01*
X0002982752Y0002630764D01*
X0002984626Y0002627015D01*
X0002984626Y0002617641D01*
X0002982752Y0002613891D01*
X0002980877Y0002612017D01*
X0002977127Y0002610142D01*
X0002967754Y0002610142D01*
X0002964004Y0002612017D01*
X0002962129Y0002613891D01*
X0002922759Y0002580614D02*
X0002922759Y0002548743D01*
X0002924634Y0002544994D01*
X0002926509Y0002543119D01*
X0002930258Y0002541244D01*
X0002937757Y0002541244D01*
X0002941507Y0002543119D01*
X0002943382Y0002544994D01*
X0002945256Y0002548743D01*
X0002945256Y0002580614D01*
X0002980877Y0002580614D02*
X0002973378Y0002580614D01*
X0002969628Y0002578740D01*
X0002967754Y0002576865D01*
X0002964004Y0002571241D01*
X0002962129Y0002563742D01*
X0002962129Y0002548743D01*
X0002964004Y0002544994D01*
X0002965879Y0002543119D01*
X0002969628Y0002541244D01*
X0002977127Y0002541244D01*
X0002980877Y0002543119D01*
X0002982752Y0002544994D01*
X0002984626Y0002548743D01*
X0002984626Y0002558117D01*
X0002982752Y0002561867D01*
X0002980877Y0002563742D01*
X0002977127Y0002565616D01*
X0002969628Y0002565616D01*
X0002965879Y0002563742D01*
X0002964004Y0002561867D01*
X0002962129Y0002558117D01*
X0000786932Y0001931008D02*
X0000786932Y0001899137D01*
X0000788807Y0001895388D01*
X0000790682Y0001893513D01*
X0000794431Y0001891638D01*
X0000801931Y0001891638D01*
X0000805680Y0001893513D01*
X0000807555Y0001895388D01*
X0000809430Y0001899137D01*
X0000809430Y0001931008D01*
X0000824428Y0001931008D02*
X0000850674Y0001931008D01*
X0000833802Y0001891638D01*
X0000537120Y0002122159D02*
X0000565241Y0002004049D01*
X0000587739Y0002088413D01*
X0000610236Y0002004049D01*
X0000638357Y0002122159D01*
X0000728346Y0002009673D02*
X0000717097Y0002004049D01*
X0000694600Y0002004049D01*
X0000683352Y0002009673D01*
X0000677727Y0002020922D01*
X0000677727Y0002065916D01*
X0000683352Y0002077165D01*
X0000694600Y0002082789D01*
X0000717097Y0002082789D01*
X0000728346Y0002077165D01*
X0000733970Y0002065916D01*
X0000733970Y0002054668D01*
X0000677727Y0002043419D01*
X0000784589Y0002004049D02*
X0000784589Y0002122159D01*
X0000823959Y0002037795D01*
X0000863329Y0002122159D01*
X0000863329Y0002004049D01*
X0000936445Y0002004049D02*
X0000925196Y0002009673D01*
X0000919572Y0002015298D01*
X0000913948Y0002026546D01*
X0000913948Y0002060292D01*
X0000919572Y0002071541D01*
X0000925196Y0002077165D01*
X0000936445Y0002082789D01*
X0000953318Y0002082789D01*
X0000964566Y0002077165D01*
X0000970191Y0002071541D01*
X0000975815Y0002060292D01*
X0000975815Y0002026546D01*
X0000970191Y0002015298D01*
X0000964566Y0002009673D01*
X0000953318Y0002004049D01*
X0000936445Y0002004049D01*
X0001020809Y0002009673D02*
X0001032058Y0002004049D01*
X0001054555Y0002004049D01*
X0001065804Y0002009673D01*
X0001071428Y0002020922D01*
X0001071428Y0002026546D01*
X0001065804Y0002037795D01*
X0001054555Y0002043419D01*
X0001037682Y0002043419D01*
X0001026434Y0002049043D01*
X0001020809Y0002060292D01*
X0001020809Y0002065916D01*
X0001026434Y0002077165D01*
X0001037682Y0002082789D01*
X0001054555Y0002082789D01*
X0001065804Y0002077165D01*
X0001893138Y0002922997D02*
X0001893138Y0002884752D01*
X0001895388Y0002880253D01*
X0001897637Y0002878003D01*
X0001902137Y0002875753D01*
X0001911136Y0002875753D01*
X0001915635Y0002878003D01*
X0001917885Y0002880253D01*
X0001920135Y0002884752D01*
X0001920135Y0002922997D01*
X0001949381Y0002902750D02*
X0001944881Y0002905000D01*
X0001942632Y0002907249D01*
X0001940382Y0002911749D01*
X0001940382Y0002913998D01*
X0001942632Y0002918498D01*
X0001944881Y0002920748D01*
X0001949381Y0002922997D01*
X0001958380Y0002922997D01*
X0001962879Y0002920748D01*
X0001965129Y0002918498D01*
X0001967379Y0002913998D01*
X0001967379Y0002911749D01*
X0001965129Y0002907249D01*
X0001962879Y0002905000D01*
X0001958380Y0002902750D01*
X0001949381Y0002902750D01*
X0001944881Y0002900500D01*
X0001942632Y0002898250D01*
X0001940382Y0002893751D01*
X0001940382Y0002884752D01*
X0001942632Y0002880253D01*
X0001944881Y0002878003D01*
X0001949381Y0002875753D01*
X0001958380Y0002875753D01*
X0001962879Y0002878003D01*
X0001965129Y0002880253D01*
X0001967379Y0002884752D01*
X0001967379Y0002893751D01*
X0001965129Y0002898250D01*
X0001962879Y0002900500D01*
X0001958380Y0002902750D01*
G04 next file*
%LPD*%
G04 #@! TF.FileFunction,Legend,Top*
G04 Gerber Fmt 4.6, Leading zero omitted, Abs format (unit mm)*
G04 Created by KiCad (PCBNEW 4.0.7) date 08/13/18 20:02:33*
G01*
G04 APERTURE LIST*
G04 APERTURE END LIST*
D23*
D24*
X0001610236Y0001462598D02*
X0001610236Y0001490157D01*
X0001657480Y0001490157D02*
X0001657480Y0001462598D01*
X0002139763Y0001694094D02*
X0001797244Y0001694094D01*
X0002139763Y0001441732D02*
X0001797244Y0001441732D01*
X0001797244Y0001441732D02*
X0001797244Y0001694094D01*
X0001797244Y0001645669D02*
X0002139763Y0001645669D01*
X0002139763Y0001694094D02*
X0002139763Y0001441732D01*
X0002071653Y0000105118D02*
X0002071653Y0000209842D01*
X0001969291Y0000105118D02*
X0002071653Y0000105118D01*
X0001969291Y0000209842D02*
X0002071653Y0000209842D01*
X0001969291Y0000105118D02*
X0001969291Y0000209842D01*
X0001919291Y0000105118D02*
X0001866929Y0000105118D01*
X0001866929Y0000105118D02*
X0001866929Y0000157480D01*
X0002605905Y0000675590D02*
X0002709055Y0000675590D01*
X0002709055Y0000675590D02*
X0002709055Y0000928346D01*
X0002709055Y0000928346D02*
X0002605905Y0000928346D01*
X0002605905Y0000928346D02*
X0002605905Y0000675590D01*
X0002657480Y0000540551D02*
X0002657480Y0000675590D01*
X0002657480Y0001063385D02*
X0002657480Y0000928346D01*
X0000164173Y0000671259D02*
X0000268897Y0000671259D01*
X0000164173Y0000973622D02*
X0000164173Y0000671259D01*
X0000268897Y0000973622D02*
X0000268897Y0000671259D01*
X0000164173Y0000973622D02*
X0000268897Y0000973622D01*
X0000164173Y0001023622D02*
X0000164173Y0001075984D01*
X0000164173Y0001075984D02*
X0000216535Y0001075984D01*
D25*
X0003681417Y0000866141D02*
G75*
G03X0003681417Y0000866141I-0000020000D01*
G01*
X0003841417Y0000866141D02*
G75*
G03X0003841417Y0000866141I-0000180000D01*
G01*
X0003261417Y0000866141D02*
X0003261417Y0000666141D01*
X0003261417Y0000666141D02*
X0003861417Y0000666141D01*
X0003861417Y0000666141D02*
X0003861417Y0001066141D01*
X0003861417Y0001066141D02*
X0003261417Y0001066141D01*
X0003261417Y0000866141D02*
X0003261417Y0001066141D01*
D24*
X0003269055Y0000713779D02*
X0003373779Y0000713779D01*
X0003269055Y0000916141D02*
X0003269055Y0000713779D01*
X0003373779Y0000916141D02*
X0003373779Y0000713779D01*
X0003269055Y0000916141D02*
X0003373779Y0000916141D01*
X0003269055Y0000966141D02*
X0003269055Y0001018503D01*
X0003269055Y0001018503D02*
X0003321417Y0001018503D01*
D25*
X0003012125Y0001338582D02*
G75*
G03X0003012125Y0001338582I-0000020000D01*
G01*
X0003172125Y0001338582D02*
G75*
G03X0003172125Y0001338582I-0000180000D01*
G01*
X0002992125Y0000938582D02*
X0003192125Y0000938582D01*
X0003192125Y0000938582D02*
X0003192125Y0001538582D01*
X0003192125Y0001538582D02*
X0002792125Y0001538582D01*
X0002792125Y0001538582D02*
X0002792125Y0000938582D01*
X0002992125Y0000938582D02*
X0002792125Y0000938582D01*
D24*
X0003144488Y0000946220D02*
X0003144488Y0001050944D01*
X0002942125Y0000946220D02*
X0003144488Y0000946220D01*
X0002942125Y0001050944D02*
X0003144488Y0001050944D01*
X0002942125Y0000946220D02*
X0002942125Y0001050944D01*
X0002892125Y0000946220D02*
X0002839763Y0000946220D01*
X0002839763Y0000946220D02*
X0002839763Y0000998582D01*
D25*
X0003012125Y0000393700D02*
G75*
G03X0003012125Y0000393700I-0000020000D01*
G01*
X0003172125Y0000393700D02*
G75*
G03X0003172125Y0000393700I-0000180000D01*
G01*
X0002992125Y0000793700D02*
X0002792125Y0000793700D01*
X0002792125Y0000793700D02*
X0002792125Y0000193700D01*
X0002792125Y0000193700D02*
X0003192125Y0000193700D01*
X0003192125Y0000193700D02*
X0003192125Y0000793700D01*
X0002992125Y0000793700D02*
X0003192125Y0000793700D01*
D24*
X0002839763Y0000786062D02*
X0002839763Y0000681338D01*
X0003042125Y0000786062D02*
X0002839763Y0000786062D01*
X0003042125Y0000681338D02*
X0002839763Y0000681338D01*
X0003042125Y0000786062D02*
X0003042125Y0000681338D01*
X0003092125Y0000786062D02*
X0003144488Y0000786062D01*
X0003144488Y0000786062D02*
X0003144488Y0000733700D01*
D23*
X0000420571Y0001566032D02*
X0000649362Y0001566032D01*
X0000649362Y0001566032D02*
X0000650399Y0001515503D01*
X0000650399Y0001515503D02*
X0000998085Y0001515767D01*
X0000998085Y0001515767D02*
X0000998007Y0001563099D01*
X0000998007Y0001563099D02*
X0001355519Y0001562073D01*
X0001355519Y0001562073D02*
X0001354968Y0000334901D01*
X0001354968Y0000334901D02*
X0001345802Y0000311169D01*
X0001345802Y0000311169D02*
X0001334641Y0000289717D01*
X0001334641Y0000289717D02*
X0001321466Y0000270567D01*
X0001321466Y0000270567D02*
X0001306257Y0000253742D01*
X0001306257Y0000253742D02*
X0001288996Y0000239262D01*
X0001288996Y0000239262D02*
X0001269662Y0000227150D01*
X0001269662Y0000227150D02*
X0001248238Y0000217428D01*
X0001248238Y0000217428D02*
X0001224702Y0000210119D01*
X0001224702Y0000210119D02*
X0000475178Y0000208986D01*
X0000475178Y0000208986D02*
X0000450794Y0000218199D01*
X0000450794Y0000218199D02*
X0000427637Y0000229399D01*
X0000427637Y0000229399D02*
X0000406242Y0000243159D01*
X0000406242Y0000243159D02*
X0000387145Y0000260052D01*
X0000387145Y0000260052D02*
X0000370882Y0000280651D01*
X0000370882Y0000280651D02*
X0000357987Y0000305527D01*
X0000357987Y0000305527D02*
X0000348996Y0000335252D01*
X0000348996Y0000335252D02*
X0000344445Y0000370401D01*
X0000344445Y0000370401D02*
X0000343463Y0001258397D01*
X0000343463Y0001258397D02*
X0000419981Y0001296227D01*
X0000419981Y0001296227D02*
X0000421154Y0001564272D01*
X0000971639Y0001320923D02*
X0000690553Y0001320923D01*
X0000690553Y0001320923D02*
X0000690553Y0001549810D01*
X0000690553Y0001549810D02*
X0000971639Y0001549810D01*
X0000971639Y0001549810D02*
X0000971639Y0001320923D01*
X0000423480Y0001295368D02*
X0000484591Y0001295368D01*
X0000484591Y0001295368D02*
X0000505424Y0001316201D01*
X0000505424Y0001316201D02*
X0000554730Y0001316201D01*
X0000554730Y0001316201D02*
X0000554730Y0001515506D01*
X0000554730Y0001515506D02*
X0000504035Y0001515506D01*
X0000504035Y0001515506D02*
X0000483202Y0001534951D01*
X0000483202Y0001534951D02*
X0000421396Y0001534951D01*
X0000421396Y0001534951D02*
X0000423480Y0001295368D01*
X0000422091Y0001377312D02*
X0000396396Y0001377312D01*
X0000396396Y0001377312D02*
X0000396396Y0001455784D01*
X0000396396Y0001455784D02*
X0000420702Y0001455784D01*
D25*
X0002362204Y0001118779D02*
X0002362204Y0000612322D01*
X0001574803Y0001118779D02*
X0001574803Y0000612322D01*
X0001988188Y0000865551D02*
G75*
G03X0001988188Y0000865551I-0000019685D01*
G01*
X0001574803Y0000612322D02*
X0002362204Y0000612322D01*
X0001574803Y0001118779D02*
X0002362204Y0001118779D01*
X0002148503Y0001331141D02*
X0001968503Y0001331141D01*
X0001968503Y0001331141D02*
X0001427165Y0001331141D01*
X0001427165Y0001331141D02*
X0001427165Y0000235708D01*
X0001427165Y0000235708D02*
X0002509842Y0000235708D01*
X0002509842Y0000235708D02*
X0002509842Y0001331141D01*
X0002509842Y0001331141D02*
X0002148503Y0001331141D01*
X0001775196Y0001330196D02*
X0002161811Y0001330196D01*
X0002161811Y0001330196D02*
X0002161811Y0001212086D01*
X0002161811Y0001212086D02*
X0001775196Y0001212086D01*
X0001775196Y0001212086D02*
X0001775196Y0001330196D01*
X0001868503Y0001330196D02*
X0001868503Y0001212086D01*
X0001598706Y0001469816D02*
X0001600581Y0001467941D01*
X0001602455Y0001462317D01*
X0001602455Y0001458567D01*
X0001600581Y0001452943D01*
X0001596831Y0001449193D01*
X0001593082Y0001447319D01*
X0001585583Y0001445444D01*
X0001579958Y0001445444D01*
X0001572459Y0001447319D01*
X0001568710Y0001449193D01*
X0001564960Y0001452943D01*
X0001563085Y0001458567D01*
X0001563085Y0001462317D01*
X0001564960Y0001467941D01*
X0001566835Y0001469816D01*
X0001602455Y0001507311D02*
X0001602455Y0001484814D01*
X0001602455Y0001496062D02*
X0001563085Y0001496062D01*
X0001568710Y0001492313D01*
X0001572459Y0001488563D01*
X0001574334Y0001484814D01*
X0001955380Y0001429433D02*
X0001955380Y0001401312D01*
X0001953505Y0001395688D01*
X0001949756Y0001391938D01*
X0001944131Y0001390063D01*
X0001940382Y0001390063D01*
X0001992875Y0001429433D02*
X0001974128Y0001429433D01*
X0001972253Y0001410686D01*
X0001974128Y0001412560D01*
X0001977877Y0001414435D01*
X0001987251Y0001414435D01*
X0001991001Y0001412560D01*
X0001992875Y0001410686D01*
X0001994750Y0001406936D01*
X0001994750Y0001397562D01*
X0001992875Y0001393813D01*
X0001991001Y0001391938D01*
X0001987251Y0001390063D01*
X0001977877Y0001390063D01*
X0001974128Y0001391938D01*
X0001972253Y0001393813D01*
X0001804461Y0000139670D02*
X0001791338Y0000158417D01*
X0001781964Y0000139670D02*
X0001781964Y0000179040D01*
X0001796962Y0000179040D01*
X0001800712Y0000177165D01*
X0001802587Y0000175290D01*
X0001804461Y0000171541D01*
X0001804461Y0000165916D01*
X0001802587Y0000162167D01*
X0001800712Y0000160292D01*
X0001796962Y0000158417D01*
X0001781964Y0000158417D01*
X0001841957Y0000139670D02*
X0001819460Y0000139670D01*
X0001830708Y0000139670D02*
X0001830708Y0000179040D01*
X0001826959Y0000173415D01*
X0001823209Y0000169666D01*
X0001819460Y0000167791D01*
X0002584345Y0000795406D02*
X0002565598Y0000782283D01*
X0002584345Y0000772909D02*
X0002544975Y0000772909D01*
X0002544975Y0000787907D01*
X0002546850Y0000791657D01*
X0002548725Y0000793532D01*
X0002552474Y0000795406D01*
X0002558098Y0000795406D01*
X0002561848Y0000793532D01*
X0002563723Y0000791657D01*
X0002565598Y0000787907D01*
X0002565598Y0000772909D01*
X0002548725Y0000810404D02*
X0002546850Y0000812279D01*
X0002544975Y0000816029D01*
X0002544975Y0000825403D01*
X0002546850Y0000829152D01*
X0002548725Y0000831027D01*
X0002552474Y0000832902D01*
X0002556224Y0000832902D01*
X0002561848Y0000831027D01*
X0002584345Y0000808530D01*
X0002584345Y0000832902D01*
X0000186539Y0001136914D02*
X0000186539Y0001105043D01*
X0000188413Y0001101293D01*
X0000190288Y0001099418D01*
X0000194038Y0001097544D01*
X0000201537Y0001097544D01*
X0000205286Y0001099418D01*
X0000207161Y0001101293D01*
X0000209036Y0001105043D01*
X0000209036Y0001136914D01*
X0000224034Y0001136914D02*
X0000248406Y0001136914D01*
X0000235283Y0001121916D01*
X0000240907Y0001121916D01*
X0000244656Y0001120041D01*
X0000246531Y0001118166D01*
X0000248406Y0001114416D01*
X0000248406Y0001105043D01*
X0000246531Y0001101293D01*
X0000244656Y0001099418D01*
X0000240907Y0001097544D01*
X0000229658Y0001097544D01*
X0000225909Y0001099418D01*
X0000224034Y0001101293D01*
X0003179857Y0000836145D02*
X0003211728Y0000836145D01*
X0003215478Y0000838020D01*
X0003217352Y0000839895D01*
X0003219227Y0000843644D01*
X0003219227Y0000851143D01*
X0003217352Y0000854893D01*
X0003215478Y0000856767D01*
X0003211728Y0000858642D01*
X0003179857Y0000858642D01*
X0003192980Y0000894263D02*
X0003219227Y0000894263D01*
X0003177982Y0000884889D02*
X0003206104Y0000875515D01*
X0003206104Y0000899887D01*
X0002962129Y0000917229D02*
X0002962129Y0000885358D01*
X0002964004Y0000881608D01*
X0002965879Y0000879733D01*
X0002969628Y0000877859D01*
X0002977127Y0000877859D01*
X0002980877Y0000879733D01*
X0002982752Y0000881608D01*
X0002984626Y0000885358D01*
X0002984626Y0000917229D01*
X0003022122Y0000917229D02*
X0003003374Y0000917229D01*
X0003001499Y0000898481D01*
X0003003374Y0000900356D01*
X0003007124Y0000902230D01*
X0003016497Y0000902230D01*
X0003020247Y0000900356D01*
X0003022122Y0000898481D01*
X0003023997Y0000894731D01*
X0003023997Y0000885358D01*
X0003022122Y0000881608D01*
X0003020247Y0000879733D01*
X0003016497Y0000877859D01*
X0003007124Y0000877859D01*
X0003003374Y0000879733D01*
X0003001499Y0000881608D01*
X0002962129Y0000848331D02*
X0002962129Y0000816460D01*
X0002964004Y0000812710D01*
X0002965879Y0000810836D01*
X0002969628Y0000808961D01*
X0002977127Y0000808961D01*
X0002980877Y0000810836D01*
X0002982752Y0000812710D01*
X0002984626Y0000816460D01*
X0002984626Y0000848331D01*
X0003020247Y0000848331D02*
X0003012748Y0000848331D01*
X0003008998Y0000846456D01*
X0003007124Y0000844581D01*
X0003003374Y0000838957D01*
X0003001499Y0000831458D01*
X0003001499Y0000816460D01*
X0003003374Y0000812710D01*
X0003005249Y0000810836D01*
X0003008998Y0000808961D01*
X0003016497Y0000808961D01*
X0003020247Y0000810836D01*
X0003022122Y0000812710D01*
X0003023997Y0000816460D01*
X0003023997Y0000825834D01*
X0003022122Y0000829583D01*
X0003020247Y0000831458D01*
X0003016497Y0000833333D01*
X0003008998Y0000833333D01*
X0003005249Y0000831458D01*
X0003003374Y0000829583D01*
X0003001499Y0000825834D01*
X0000826302Y0000198725D02*
X0000826302Y0000166854D01*
X0000828177Y0000163104D01*
X0000830052Y0000161229D01*
X0000833802Y0000159355D01*
X0000841301Y0000159355D01*
X0000845050Y0000161229D01*
X0000846925Y0000163104D01*
X0000848800Y0000166854D01*
X0000848800Y0000198725D01*
X0000863798Y0000198725D02*
X0000890045Y0000198725D01*
X0000873172Y0000159355D01*
X0000576490Y0000389876D02*
X0000604611Y0000271765D01*
X0000627109Y0000356130D01*
X0000649606Y0000271765D01*
X0000677727Y0000389876D01*
X0000767716Y0000277390D02*
X0000756467Y0000271765D01*
X0000733970Y0000271765D01*
X0000722722Y0000277390D01*
X0000717097Y0000288638D01*
X0000717097Y0000333633D01*
X0000722722Y0000344881D01*
X0000733970Y0000350506D01*
X0000756467Y0000350506D01*
X0000767716Y0000344881D01*
X0000773340Y0000333633D01*
X0000773340Y0000322384D01*
X0000717097Y0000311136D01*
X0000823959Y0000271765D02*
X0000823959Y0000389876D01*
X0000863329Y0000305511D01*
X0000902699Y0000389876D01*
X0000902699Y0000271765D01*
X0000975815Y0000271765D02*
X0000964566Y0000277390D01*
X0000958942Y0000283014D01*
X0000953318Y0000294263D01*
X0000953318Y0000328009D01*
X0000958942Y0000339257D01*
X0000964566Y0000344881D01*
X0000975815Y0000350506D01*
X0000992688Y0000350506D01*
X0001003937Y0000344881D01*
X0001009561Y0000339257D01*
X0001015185Y0000328009D01*
X0001015185Y0000294263D01*
X0001009561Y0000283014D01*
X0001003937Y0000277390D01*
X0000992688Y0000271765D01*
X0000975815Y0000271765D01*
X0001060180Y0000277390D02*
X0001071428Y0000271765D01*
X0001093925Y0000271765D01*
X0001105174Y0000277390D01*
X0001110798Y0000288638D01*
X0001110798Y0000294263D01*
X0001105174Y0000305511D01*
X0001093925Y0000311136D01*
X0001077052Y0000311136D01*
X0001065804Y0000316760D01*
X0001060180Y0000328009D01*
X0001060180Y0000333633D01*
X0001065804Y0000344881D01*
X0001077052Y0000350506D01*
X0001093925Y0000350506D01*
X0001105174Y0000344881D01*
X0001932508Y0001190714D02*
X0001932508Y0001152469D01*
X0001934758Y0001147969D01*
X0001937007Y0001145719D01*
X0001941507Y0001143470D01*
X0001950506Y0001143470D01*
X0001955005Y0001145719D01*
X0001957255Y0001147969D01*
X0001959505Y0001152469D01*
X0001959505Y0001190714D01*
X0001988751Y0001170466D02*
X0001984251Y0001172716D01*
X0001982002Y0001174966D01*
X0001979752Y0001179465D01*
X0001979752Y0001181715D01*
X0001982002Y0001186214D01*
X0001984251Y0001188464D01*
X0001988751Y0001190714D01*
X0001997750Y0001190714D01*
X0002002249Y0001188464D01*
X0002004499Y0001186214D01*
X0002006749Y0001181715D01*
X0002006749Y0001179465D01*
X0002004499Y0001174966D01*
X0002002249Y0001172716D01*
X0001997750Y0001170466D01*
X0001988751Y0001170466D01*
X0001984251Y0001168217D01*
X0001982002Y0001165967D01*
X0001979752Y0001161467D01*
X0001979752Y0001152469D01*
X0001982002Y0001147969D01*
X0001984251Y0001145719D01*
X0001988751Y0001143470D01*
X0001997750Y0001143470D01*
X0002002249Y0001145719D01*
X0002004499Y0001147969D01*
X0002006749Y0001152469D01*
X0002006749Y0001161467D01*
X0002004499Y0001165967D01*
X0002002249Y0001168217D01*
X0001997750Y0001170466D01*
M02*