%
M48
METRIC,000.000
T01C0.50
%
T01
X008429Y045750
X009429Y045750
X010429Y045750
X011429Y045750
X012429Y045750
X011785Y042250
X010785Y042250
X009785Y042250
X008785Y042250
X007785Y042250
X088429Y045750
X089429Y045750
X090429Y045750
X091429Y045750
X092429Y045750
X091785Y042250
X090785Y042250
X089785Y042250
X088785Y042250
X087785Y042250
X028429Y045750
X029429Y045750
X030429Y045750
X031429Y045750
X032429Y045750
X031785Y042250
X030785Y042250
X029785Y042250
X028785Y042250
X027785Y042250
X068429Y045750
X069429Y045750
X070429Y045750
X071429Y045750
X072429Y045750
X071785Y042250
X070785Y042250
X069785Y042250
X068785Y042250
X067785Y042250
X048429Y045750
X049429Y045750
X050429Y045750
X051429Y045750
X052429Y045750
X051785Y042250
X050785Y042250
X049785Y042250
X048785Y042250
X047785Y042250
M30