%
M48
METRIC,000.000
T01C0.41
T02C0.51
T03C0.56
T04C0.61
T05C0.79
T06C0.99
T07C1.02
T08C1.09
T09C3.51
%
T01
X010998Y063749
X017498Y071250
X017498Y068750
X018751Y063749
X018751Y060998
X036000Y079251
X036000Y077501
X036500Y084999
X036500Y083249
X037750Y079251
X037750Y077501
X037999Y052748
X038250Y084999
X038250Y083249
X043000Y061750
X050249Y064498
X050249Y054750
X053000Y067000
X056000Y057750
X061250Y058750
X074001Y050998
X078250Y080749
X011998Y019749
X018498Y027250
X018498Y024750
X019751Y019749
X019751Y016998
X037000Y035251
X037000Y033501
X037500Y040999
X037500Y039249
X038750Y035251
X038750Y033501
X038999Y008748
X039250Y040999
X039250Y039249
X044000Y017750
X051249Y020498
X051249Y010750
X054000Y023000
X057000Y013750
X062250Y014750
X075001Y006998
X079250Y036749
T02
X-000997Y086000G85X-000997Y086000
X-000994Y086000G85X-000994Y086000
X000002Y042000G85X000002Y042000
X000005Y042000G85X000005Y042000
T03
X-000997Y086000G85X-000997Y086000
X-000994Y086000G85X-000994Y086000
X000002Y042000G85X000002Y042000
X000005Y042000G85X000005Y042000
T04
X064998Y077000
X066269Y075730
X067539Y077000
X065999Y033000
X067269Y031730
X068539Y033000
T05
X020501Y082499
X020501Y080000
X036866Y074620
X036866Y072080
X036866Y069540
X036866Y067000
X036866Y064459
X036866Y061920
X036866Y059380
X045189Y076287
X047729Y076287
X050269Y076287
X052809Y076287
X061133Y073350
X061133Y070810
X061133Y068270
X061133Y065730
X061133Y063190
X066500Y071989
X066500Y056749
X070920Y056500
X072421Y076500
X073460Y056500
X074961Y076500
X076000Y056500
X077501Y076500
X080500Y071740
X080500Y056500
X083089Y074498
X093249Y074498
X021501Y038499
X021501Y036000
X037866Y030620
X037866Y028080
X037866Y025540
X037866Y023000
X037866Y020460
X037866Y017920
X037866Y015380
X046189Y032287
X048729Y032287
X051269Y032287
X053809Y032287
X062133Y029350
X062133Y026810
X062133Y024270
X062133Y021730
X062133Y019190
X067500Y027989
X067500Y012749
X071920Y012500
X073421Y032500
X074460Y012500
X075961Y032500
X077000Y012500
X078501Y032500
X081500Y027740
X081500Y012500
X084089Y030498
X094249Y030498
T06
X004499Y070000
X004499Y067460
X004499Y064920
X004499Y062380
X013500Y080000
X013500Y077460
X013500Y074920
X047750Y047999
X050290Y047999
X072459Y069363
X072459Y062637
X074999Y069363
X074999Y062637
X077539Y069363
X077539Y062637
X083363Y068540
X083363Y066000
X083363Y063460
X091999Y069749
X091999Y062149
X005499Y026000
X005499Y023460
X005499Y020920
X005499Y018380
X014500Y036000
X014500Y033460
X014500Y030920
X048750Y003999
X051290Y003999
X073459Y025363
X073459Y018637
X075999Y025363
X075999Y018637
X078539Y025363
X078539Y018637
X084363Y024540
X084363Y022000
X084363Y019460
X092999Y025749
X092999Y018149
T07
X009071Y075121
X009071Y072581
X009071Y070041
X009071Y067501
X009071Y064961
X009071Y062421
X009071Y059881
X009071Y057341
X031931Y075121
X031931Y072581
X031931Y070041
X031931Y067501
X031931Y064961
X031931Y062421
X031931Y059881
X031931Y057341
X070191Y084001
X072731Y084001
X075271Y084001
X077811Y084001
X010071Y031121
X010071Y028581
X010071Y026041
X010071Y023501
X010071Y020961
X010071Y018421
X010071Y015881
X010071Y013341
X032931Y031121
X032931Y028581
X032931Y026041
X032931Y023501
X032931Y020961
X032931Y018421
X032931Y015881
X032931Y013341
X071191Y040001
X073731Y040001
X076271Y040001
X078811Y040001
T08
X017839Y074999
X027999Y074999
X018839Y030999
X028999Y030999
T09
X004001Y080998
X004001Y050998
X094001Y080998
X094001Y050998
X005001Y036998
X005001Y006998
X095001Y036998
X095001Y006998
M30