%MOIN*%
%OFA0B0*%
%FSLAX46Y46*%
%IPPOS*%
%LPD*%
%ADD10C,0.0039370078740157488*%
%ADD11C,0.0019685039370078744*%
%ADD22C,0.0039370078740157488*%
%ADD23C,0.0019685039370078744*%
%ADD24C,0.005905511811023622*%
%ADD35C,0.0039370078740157488*%
%ADD36C,0.0019685039370078744*%
%ADD47C,0.0039370078740157488*%
%ADD48C,0.0019685039370078744*%
%ADD49C,0.005905511811023622*%
%LPD*%
G01*
D10*
D11*
X0003868110Y0002596456D02*
G75*
G03X0003868110Y0002596456I-0000246062D01*
G01*
X0002842518Y0003163385D02*
X0002984251Y0003163385D01*
X0002842518Y0003163385D02*
X0002842518Y0003214566D01*
X0002984251Y0003214566D02*
X0002984251Y0003163385D01*
X0002984251Y0003214566D02*
X0002842518Y0003214566D01*
X0001031496Y0002809055D02*
X0001173228Y0002809055D01*
X0001031496Y0002809055D02*
X0001031496Y0002860236D01*
X0001173228Y0002860236D02*
X0001173228Y0002809055D01*
X0001173228Y0002860236D02*
X0001031496Y0002860236D01*
X0000968503Y0003037401D02*
X0000645669Y0003037401D01*
X0000645669Y0003037401D02*
X0000645669Y0003360236D01*
X0000645669Y0003360236D02*
X0000968503Y0003360236D01*
X0000968503Y0003360236D02*
X0000968503Y0003037401D01*
X0003712597Y0002986220D02*
X0003712597Y0002879921D01*
X0003712597Y0002879921D02*
X0003228346Y0002879921D01*
X0003228346Y0002879921D02*
X0003228346Y0002986220D01*
X0003228346Y0002986220D02*
X0003712597Y0002986220D01*
X0000602362Y0003220472D02*
X0000602362Y0002879921D01*
X0000602362Y0002879921D02*
X0000460629Y0002879921D01*
X0000460629Y0002879921D02*
X0000460629Y0003220472D01*
X0000460629Y0003220472D02*
X0000602362Y0003220472D01*
X0002501574Y0002924015D02*
X0002716535Y0002924015D01*
X0002501574Y0002924015D02*
X0002501574Y0003110629D01*
X0002716535Y0003110629D02*
X0002716535Y0002924015D01*
X0002716535Y0003110629D02*
X0002501574Y0003110629D01*
X0003232282Y0002183070D02*
X0003106299Y0002183070D01*
X0003106299Y0002183070D02*
X0003106299Y0002866141D01*
X0003106299Y0002866141D02*
X0003232282Y0002866141D01*
X0003232282Y0002866141D02*
X0003232282Y0002183070D01*
X0000618503Y0002586614D02*
X0000464566Y0002586614D01*
X0000618503Y0002586614D02*
X0000618503Y0002531496D01*
X0000464566Y0002531496D02*
X0000464566Y0002586614D01*
X0000464566Y0002531496D02*
X0000618503Y0002531496D01*
X0000618503Y0002488188D02*
X0000464566Y0002488188D01*
X0000618503Y0002488188D02*
X0000618503Y0002433070D01*
X0000464566Y0002433070D02*
X0000464566Y0002488188D01*
X0000464566Y0002433070D02*
X0000618503Y0002433070D01*
X0000995669Y0002433070D02*
X0001149606Y0002433070D01*
X0000995669Y0002433070D02*
X0000995669Y0002488188D01*
X0001149606Y0002488188D02*
X0001149606Y0002433070D01*
X0001149606Y0002488188D02*
X0000995669Y0002488188D01*
X0000995669Y0002531496D02*
X0001149606Y0002531496D01*
X0000995669Y0002531496D02*
X0000995669Y0002586614D01*
X0001149606Y0002586614D02*
X0001149606Y0002531496D01*
X0001149606Y0002586614D02*
X0000995669Y0002586614D01*
X0002751968Y0002905511D02*
X0002751968Y0003118110D01*
X0002751968Y0003118110D02*
X0003149606Y0003118110D01*
X0003149606Y0003118110D02*
X0003149606Y0002905511D01*
X0003149606Y0002905511D02*
X0002751968Y0002905511D01*
X0002692913Y0002118110D02*
X0002692913Y0002330708D01*
X0002692913Y0002330708D02*
X0003090551Y0002330708D01*
X0003090551Y0002330708D02*
X0003090551Y0002118110D01*
X0003090551Y0002118110D02*
X0002692913Y0002118110D01*
X0001007873Y0003330708D02*
X0001354330Y0003330708D01*
X0001007873Y0003047244D02*
X0001007873Y0003330708D01*
X0001354330Y0003047244D02*
X0001007873Y0003047244D01*
X0001354330Y0003330708D02*
X0001354330Y0003047244D01*
X0001155511Y0003019685D02*
X0001155511Y0002885826D01*
X0001155511Y0002885826D02*
X0000647637Y0002885826D01*
X0000647637Y0002885826D02*
X0000647637Y0003019685D01*
X0000647637Y0003019685D02*
X0001155511Y0003019685D01*
G01*
D22*
D23*
X0001568897Y0003137794D02*
X0001568897Y0003279527D01*
X0001568897Y0003137794D02*
X0001620077Y0003137794D01*
X0001620077Y0003279527D02*
X0001568897Y0003279527D01*
X0001620077Y0003279527D02*
X0001620077Y0003137794D01*
X0000305118Y0003188976D02*
G75*
G03X0000305118Y0003188976I-0000147637D01*
G01*
X0000305118Y0002007874D02*
G75*
G03X0000305118Y0002007874I-0000147637D01*
G01*
X0003848425Y0003188976D02*
G75*
G03X0003848425Y0003188976I-0000147637D01*
G01*
X0003848425Y0002007874D02*
G75*
G03X0003848425Y0002007874I-0000147637D01*
G01*
X0002110236Y0003165748D02*
X0001748031Y0003165748D01*
X0001748031Y0003165748D02*
X0001748031Y0003435433D01*
X0001748031Y0003435433D02*
X0002110236Y0003435433D01*
X0002110236Y0003435433D02*
X0002110236Y0003165748D01*
X0001809054Y0001818897D02*
X0002051181Y0001818897D01*
X0002051181Y0001818897D02*
X0002051181Y0001960629D01*
X0002051181Y0001960629D02*
X0001809054Y0001960629D01*
X0001809054Y0001960629D02*
X0001809054Y0001818897D01*
X0002555118Y0002192913D02*
X0002681102Y0002192913D01*
X0002681102Y0002192913D02*
X0002681102Y0002875984D01*
X0002681102Y0002875984D02*
X0002555118Y0002875984D01*
X0002555118Y0002875984D02*
X0002555118Y0002192913D01*
D24*
X0002613384Y0003476376D02*
X0003213385Y0003476376D01*
X0002613384Y0003177165D02*
X0002613384Y0003476376D01*
X0003213385Y0003177165D02*
X0003213385Y0003476376D01*
X0002613384Y0003177165D02*
X0003213385Y0003177165D01*
X0002613384Y0003228346D02*
X0003213385Y0003228346D01*
D23*
X0000106299Y0002826770D02*
X0000106299Y0002385826D01*
X0000106299Y0002385826D02*
X0000248031Y0002385826D01*
X0000248031Y0002385826D02*
X0000248031Y0002826770D01*
X0000248031Y0002826770D02*
X0000106299Y0002826770D01*
X0003211181Y0002769290D02*
X0003211181Y0002428740D01*
X0003211181Y0002428740D02*
X0003352913Y0002428740D01*
X0003352913Y0002428740D02*
X0003352913Y0002769290D01*
X0003352913Y0002769290D02*
X0003211181Y0002769290D01*
X0002781889Y0002659999D02*
X0003122439Y0002659999D01*
X0003122439Y0002659999D02*
X0003122439Y0002801732D01*
X0003122439Y0002801732D02*
X0002781889Y0002801732D01*
X0002781889Y0002801732D02*
X0002781889Y0002659999D01*
X0003123622Y0002536850D02*
X0002783070Y0002536850D01*
X0002783070Y0002536850D02*
X0002783070Y0002395118D01*
X0002783070Y0002395118D02*
X0003123622Y0002395118D01*
X0003123622Y0002395118D02*
X0003123622Y0002536850D01*
G04 next file*
%LPD*%
G01*
D35*
D36*
X0003907480Y0000864173D02*
G75*
G03X0003907480Y0000864173I-0000246062D01*
G01*
X0002881889Y0001431102D02*
X0003023622Y0001431102D01*
X0002881889Y0001431102D02*
X0002881889Y0001482283D01*
X0003023622Y0001482283D02*
X0003023622Y0001431102D01*
X0003023622Y0001482283D02*
X0002881889Y0001482283D01*
X0001070866Y0001076771D02*
X0001212598Y0001076771D01*
X0001070866Y0001076771D02*
X0001070866Y0001127952D01*
X0001212598Y0001127952D02*
X0001212598Y0001076771D01*
X0001212598Y0001127952D02*
X0001070866Y0001127952D01*
X0001007873Y0001305118D02*
X0000685039Y0001305118D01*
X0000685039Y0001305118D02*
X0000685039Y0001627952D01*
X0000685039Y0001627952D02*
X0001007873Y0001627952D01*
X0001007873Y0001627952D02*
X0001007873Y0001305118D01*
X0003751968Y0001253937D02*
X0003751968Y0001147637D01*
X0003751968Y0001147637D02*
X0003267716Y0001147637D01*
X0003267716Y0001147637D02*
X0003267716Y0001253937D01*
X0003267716Y0001253937D02*
X0003751968Y0001253937D01*
X0000641732Y0001488188D02*
X0000641732Y0001147637D01*
X0000641732Y0001147637D02*
X0000500000Y0001147637D01*
X0000500000Y0001147637D02*
X0000500000Y0001488188D01*
X0000500000Y0001488188D02*
X0000641732Y0001488188D01*
X0002540944Y0001191732D02*
X0002755905Y0001191732D01*
X0002540944Y0001191732D02*
X0002540944Y0001378346D01*
X0002755905Y0001378346D02*
X0002755905Y0001191732D01*
X0002755905Y0001378346D02*
X0002540944Y0001378346D01*
X0003271653Y0000450787D02*
X0003145669Y0000450787D01*
X0003145669Y0000450787D02*
X0003145669Y0001133858D01*
X0003145669Y0001133858D02*
X0003271653Y0001133858D01*
X0003271653Y0001133858D02*
X0003271653Y0000450787D01*
X0000657874Y0000854330D02*
X0000503936Y0000854330D01*
X0000657874Y0000854330D02*
X0000657874Y0000799212D01*
X0000503936Y0000799212D02*
X0000503936Y0000854330D01*
X0000503936Y0000799212D02*
X0000657874Y0000799212D01*
X0000657874Y0000755905D02*
X0000503936Y0000755905D01*
X0000657874Y0000755905D02*
X0000657874Y0000700786D01*
X0000503936Y0000700786D02*
X0000503936Y0000755905D01*
X0000503936Y0000700786D02*
X0000657874Y0000700786D01*
X0001035039Y0000700786D02*
X0001188976Y0000700786D01*
X0001035039Y0000700786D02*
X0001035039Y0000755905D01*
X0001188976Y0000755905D02*
X0001188976Y0000700786D01*
X0001188976Y0000755905D02*
X0001035039Y0000755905D01*
X0001035039Y0000799212D02*
X0001188976Y0000799212D01*
X0001035039Y0000799212D02*
X0001035039Y0000854330D01*
X0001188976Y0000854330D02*
X0001188976Y0000799212D01*
X0001188976Y0000854330D02*
X0001035039Y0000854330D01*
X0002791338Y0001173228D02*
X0002791338Y0001385826D01*
X0002791338Y0001385826D02*
X0003188976Y0001385826D01*
X0003188976Y0001385826D02*
X0003188976Y0001173228D01*
X0003188976Y0001173228D02*
X0002791338Y0001173228D01*
X0002732283Y0000385826D02*
X0002732283Y0000598425D01*
X0002732283Y0000598425D02*
X0003129921Y0000598425D01*
X0003129921Y0000598425D02*
X0003129921Y0000385826D01*
X0003129921Y0000385826D02*
X0002732283Y0000385826D01*
X0001047244Y0001598425D02*
X0001393700Y0001598425D01*
X0001047244Y0001314960D02*
X0001047244Y0001598425D01*
X0001393700Y0001314960D02*
X0001047244Y0001314960D01*
X0001393700Y0001598425D02*
X0001393700Y0001314960D01*
X0001194881Y0001287400D02*
X0001194881Y0001153543D01*
X0001194881Y0001153543D02*
X0000687007Y0001153543D01*
X0000687007Y0001153543D02*
X0000687007Y0001287400D01*
X0000687007Y0001287400D02*
X0001194881Y0001287400D01*
G04 next file*
G04 #@! TF.FileFunction,Other,User*
G04 Gerber Fmt 4.6, Leading zero omitted, Abs format (unit mm)*
G04 Created by KiCad (PCBNEW 4.0.7) date 08/13/18 20:02:33*
G01*
G04 APERTURE LIST*
G04 APERTURE END LIST*
D47*
D48*
X0001608267Y0001405511D02*
X0001608267Y0001547244D01*
X0001608267Y0001405511D02*
X0001659448Y0001405511D01*
X0001659448Y0001547244D02*
X0001608267Y0001547244D01*
X0001659448Y0001547244D02*
X0001659448Y0001405511D01*
X0000344488Y0001456692D02*
G75*
G03X0000344488Y0001456692I-0000147637D01*
G01*
X0000344488Y0000275590D02*
G75*
G03X0000344488Y0000275590I-0000147637D01*
G01*
X0003887795Y0001456692D02*
G75*
G03X0003887795Y0001456692I-0000147637D01*
G01*
X0003887795Y0000275590D02*
G75*
G03X0003887795Y0000275590I-0000147637D01*
G01*
X0002149606Y0001433464D02*
X0001787401Y0001433464D01*
X0001787401Y0001433464D02*
X0001787401Y0001703149D01*
X0001787401Y0001703149D02*
X0002149606Y0001703149D01*
X0002149606Y0001703149D02*
X0002149606Y0001433464D01*
X0001848424Y0000086614D02*
X0002090551Y0000086614D01*
X0002090551Y0000086614D02*
X0002090551Y0000228346D01*
X0002090551Y0000228346D02*
X0001848424Y0000228346D01*
X0001848424Y0000228346D02*
X0001848424Y0000086614D01*
X0002594488Y0000460629D02*
X0002720472Y0000460629D01*
X0002720472Y0000460629D02*
X0002720472Y0001143700D01*
X0002720472Y0001143700D02*
X0002594488Y0001143700D01*
X0002594488Y0001143700D02*
X0002594488Y0000460629D01*
D49*
X0002652755Y0001744094D02*
X0003252755Y0001744094D01*
X0002652755Y0001444881D02*
X0002652755Y0001744094D01*
X0003252755Y0001444881D02*
X0003252755Y0001744094D01*
X0002652755Y0001444881D02*
X0003252755Y0001444881D01*
X0002652755Y0001496062D02*
X0003252755Y0001496062D01*
D48*
X0000145669Y0001094488D02*
X0000145669Y0000653543D01*
X0000145669Y0000653543D02*
X0000287401Y0000653543D01*
X0000287401Y0000653543D02*
X0000287401Y0001094488D01*
X0000287401Y0001094488D02*
X0000145669Y0001094488D01*
X0003250551Y0001037007D02*
X0003250551Y0000696456D01*
X0003250551Y0000696456D02*
X0003392283Y0000696456D01*
X0003392283Y0000696456D02*
X0003392283Y0001037007D01*
X0003392283Y0001037007D02*
X0003250551Y0001037007D01*
X0002821258Y0000927716D02*
X0003161811Y0000927716D01*
X0003161811Y0000927716D02*
X0003161811Y0001069448D01*
X0003161811Y0001069448D02*
X0002821258Y0001069448D01*
X0002821258Y0001069448D02*
X0002821258Y0000927716D01*
X0003162992Y0000804566D02*
X0002822440Y0000804566D01*
X0002822440Y0000804566D02*
X0002822440Y0000662834D01*
X0002822440Y0000662834D02*
X0003162992Y0000662834D01*
X0003162992Y0000662834D02*
X0003162992Y0000804566D01*
M02*