%MOIN*%
%OFA0B0*%
%FSLAX46Y46*%
%IPPOS*%
%LPD*%
%ADD10C,0.0039370078740157488*%
%ADD11R,0.07874015748031496X0.07874015748031496*%
%ADD12C,0.07874015748031496*%
%ADD13R,0.029527559055118113X0.047244094488188976*%
%ADD14R,0.062992125984251982X0.062992125984251982*%
%ADD15C,0.062992125984251982*%
%ADD16O,0.062992125984251982X0.062992125984251982*%
%ADD17C,0.27559055118110237*%
%ADD18R,0.015748031496062995X0.053149606299212608*%
%ADD19O,0.049212598425196853X0.037401574803149609*%
%ADD20O,0.03937007874015748X0.0610236220472441*%
%ADD21R,0.066929133858267723X0.066929133858267723*%
%ADD22O,0.066929133858267723X0.066929133858267723*%
%ADD23C,0.03937007874015748*%
%ADD24R,0.03937007874015748X0.03937007874015748*%
%ADD25C,0.056692913385826771*%
%ADD26R,0.068X0.08*%
%ADD27O,0.068X0.08*%
%ADD28C,0.070866141732283464*%
%ADD29O,0.07874015748031496X0.047244094488188976*%
%ADD30O,0.047244094488188976X0.07874015748031496*%
%ADD31R,0.086614173228346469X0.086614173228346469*%
%ADD32O,0.086614173228346469X0.086614173228346469*%
%ADD33C,0.023622047244094488*%
%ADD34C,0.03937007874015748*%
%ADD35C,0.01968503937007874*%
%ADD46C,0.0039370078740157488*%
%ADD47R,0.07874015748031496X0.07874015748031496*%
%ADD48C,0.07874015748031496*%
%ADD49R,0.029527559055118113X0.047244094488188976*%
%ADD50R,0.062992125984251982X0.062992125984251982*%
%ADD51C,0.062992125984251982*%
%ADD52O,0.062992125984251982X0.062992125984251982*%
%ADD53C,0.27559055118110237*%
%ADD54R,0.015748031496062995X0.053149606299212608*%
%ADD55O,0.049212598425196853X0.037401574803149609*%
%ADD56O,0.03937007874015748X0.0610236220472441*%
%ADD57R,0.066929133858267723X0.066929133858267723*%
%ADD58O,0.066929133858267723X0.066929133858267723*%
%ADD59C,0.03937007874015748*%
%ADD60R,0.03937007874015748X0.03937007874015748*%
%ADD61C,0.056692913385826771*%
%ADD62R,0.068X0.08*%
%ADD63O,0.068X0.08*%
%ADD64C,0.070866141732283464*%
%ADD65O,0.07874015748031496X0.047244094488188976*%
%ADD66O,0.047244094488188976X0.07874015748031496*%
%ADD67R,0.086614173228346469X0.086614173228346469*%
%ADD68O,0.086614173228346469X0.086614173228346469*%
%ADD69C,0.023622047244094488*%
%ADD70C,0.03937007874015748*%
%ADD71C,0.01968503937007874*%
%LPD*%
G01*
D10*
D11*
X-0000039370Y0003385826D02*
X0003622047Y0002746062D03*
D12*
X0003622047Y0002446850D03*
D13*
X0001594488Y0003171259D03*
X0001594488Y0003246062D03*
D14*
X0000807086Y0003149606D03*
D15*
X0000807086Y0003248031D03*
D14*
X0003671259Y0002933070D03*
D16*
X0003271259Y0002933070D03*
D17*
X0000157480Y0003188976D03*
X0000157480Y0002007874D03*
X0003700787Y0003188976D03*
X0003700787Y0002007874D03*
D18*
X0001980314Y0003214566D03*
X0001954724Y0003214566D03*
X0001929133Y0003214566D03*
X0001903543Y0003214566D03*
X0001877952Y0003214566D03*
D19*
X0002027559Y0003214566D03*
X0001830708Y0003214566D03*
D20*
X0002066929Y0003320866D03*
X0001791338Y0003320866D03*
D21*
X0000531496Y0003149606D03*
D22*
X0000531496Y0003049606D03*
X0000531496Y0002949606D03*
D23*
X0002609055Y0002981496D03*
X0002659055Y0003031496D03*
D24*
X0002559055Y0003031496D03*
D21*
X0001879921Y0001889763D03*
D22*
X0001979921Y0001889763D03*
D15*
X0002618110Y0002234251D03*
D16*
X0002618110Y0002834251D03*
D15*
X0003169291Y0002224409D03*
D16*
X0003169291Y0002824409D03*
D25*
X0003051181Y0003011811D03*
X0002951181Y0003011811D03*
X0002851181Y0003011811D03*
X0002992125Y0002224409D03*
X0002892125Y0002224409D03*
X0002792125Y0002224409D03*
D26*
X0002763385Y0003307086D03*
D27*
X0002863385Y0003307086D03*
X0002963385Y0003307086D03*
X0003063385Y0003307086D03*
D21*
X0000177165Y0002755905D03*
D22*
X0000177165Y0002655905D03*
X0000177165Y0002555905D03*
X0000177165Y0002455905D03*
D21*
X0003282047Y0002698425D03*
D22*
X0003282047Y0002598425D03*
X0003282047Y0002498425D03*
D21*
X0002852755Y0002730866D03*
D22*
X0002952755Y0002730866D03*
X0003052755Y0002730866D03*
D21*
X0003052755Y0002465984D03*
D22*
X0002952755Y0002465984D03*
X0002852755Y0002465984D03*
D28*
X0001257086Y0002257480D03*
X0001257086Y0002357480D03*
X0001257086Y0002457480D03*
X0001257086Y0002557480D03*
X0001257086Y0002657480D03*
X0001257086Y0002757480D03*
X0001257086Y0002857480D03*
X0001257086Y0002957480D03*
X0000357086Y0002957480D03*
X0000357086Y0002857480D03*
X0000357086Y0002757480D03*
X0000357086Y0002657480D03*
X0000357086Y0002557480D03*
X0000357086Y0002457480D03*
X0000357086Y0002357480D03*
X0000357086Y0002257480D03*
D29*
X0001451417Y0002937795D03*
X0001451417Y0002837795D03*
X0002406850Y0002887795D03*
X0001451417Y0002737795D03*
X0002406850Y0002787795D03*
X0001451417Y0002637795D03*
X0002406850Y0002687795D03*
X0001451417Y0002537795D03*
X0002406850Y0002587795D03*
X0001451417Y0002437795D03*
X0002406850Y0002487795D03*
X0001451417Y0002337795D03*
D30*
X0001779133Y0003003425D03*
X0001879133Y0003003425D03*
X0001979133Y0003003425D03*
X0002079133Y0003003425D03*
D31*
X0001102362Y0002952755D03*
D32*
X0000702362Y0002952755D03*
D33*
X0001417322Y0003051181D03*
X0001486220Y0003051181D03*
X0001417322Y0003120078D03*
X0001486220Y0003120078D03*
X0000688976Y0002805118D03*
X0000688976Y0002706692D03*
X0001978346Y0002155511D03*
X0000738188Y0002401574D03*
X0000738188Y0002509842D03*
X0000433070Y0002509842D03*
X0003080708Y0003179133D03*
X0001437007Y0003277559D03*
X0001505905Y0003277559D03*
X0001505905Y0003346456D03*
X0001437007Y0003346456D03*
X0001692913Y0002431102D03*
X0001978346Y0002539370D03*
X0002086614Y0002637795D03*
X0001496062Y0002076771D03*
X0002913385Y0002007874D03*
X0002204724Y0002273622D03*
X0002411417Y0002312992D03*
D34*
X0000702362Y0002952755D02*
X0000534645Y0002952755D01*
X0000534645Y0002952755D02*
X0000531496Y0002949606D01*
X0001980314Y0003112204D02*
X0002167322Y0003112204D01*
X0002362204Y0003307086D02*
X0002763385Y0003307086D01*
X0002167322Y0003112204D02*
X0002362204Y0003307086D01*
X0001451417Y0002737795D02*
X0002166929Y0002737795D01*
X0002216929Y0002787795D02*
X0002406850Y0002787795D01*
X0002166929Y0002737795D02*
X0002216929Y0002787795D01*
X0001417322Y0003051181D02*
X0001456692Y0003090551D01*
X0001633858Y0003090551D02*
X0001456692Y0003090551D01*
X0001456692Y0003090551D02*
X0001446850Y0003090551D01*
X0001446850Y0003090551D02*
X0001417322Y0003120078D01*
X0001486220Y0003051181D02*
X0001594488Y0003051181D01*
X0001594488Y0003051181D02*
X0001633858Y0003090551D01*
X0001486220Y0003120078D02*
X0001594488Y0003120078D01*
D35*
X0001980314Y0003214566D02*
X0001980314Y0003112204D01*
D34*
X0001958661Y0003090551D02*
X0001633858Y0003090551D01*
X0001980314Y0003112204D02*
X0001958661Y0003090551D01*
X0001633858Y0003090551D02*
X0001624015Y0003090551D01*
X0001624015Y0003090551D02*
X0001594488Y0003120078D01*
X0001594488Y0003120078D02*
X0001594488Y0003171259D01*
X0000433070Y0002509842D02*
X0000738188Y0002509842D01*
X0000738188Y0002401574D02*
X0000738188Y0002509842D01*
X0002559055Y0003031496D02*
X0002559055Y0002933070D01*
X0002559055Y0002933070D02*
X0002539370Y0002913385D01*
X0002406850Y0002887795D02*
X0002513779Y0002887795D01*
X0002513779Y0002887795D02*
X0002539370Y0002913385D01*
X0002852755Y0002836220D02*
X0002852755Y0002730866D01*
X0002539370Y0002913385D02*
X0002775590Y0002913385D01*
X0002775590Y0002913385D02*
X0002852755Y0002836220D01*
X0002618110Y0003120078D02*
X0002578740Y0003120078D01*
X0002568897Y0003110236D02*
X0002490157Y0003031496D01*
X0002578740Y0003120078D02*
X0002568897Y0003110236D01*
X0003080708Y0003179133D02*
X0003021653Y0003120078D01*
X0003021653Y0003120078D02*
X0002618110Y0003120078D01*
X0002618110Y0003120078D02*
X0002608267Y0003120078D01*
X0002559055Y0003070866D02*
X0002559055Y0003031496D01*
X0002608267Y0003120078D02*
X0002559055Y0003070866D01*
X0002406850Y0002948188D02*
X0002346456Y0002887795D01*
X0002559055Y0003031496D02*
X0002490157Y0003031496D01*
X0002490157Y0003031496D02*
X0002406850Y0002948188D01*
X0002406850Y0002948188D02*
X0002406850Y0002887795D01*
X0001779133Y0002923228D02*
X0001779133Y0002915748D01*
X0001779133Y0002915748D02*
X0001857086Y0002837795D01*
X0001702755Y0002837795D02*
X0001857086Y0002837795D01*
X0001857086Y0002837795D02*
X0002099606Y0002837795D01*
X0002149606Y0002887795D02*
X0002346456Y0002887795D01*
X0002099606Y0002837795D02*
X0002149606Y0002887795D01*
X0002346456Y0002887795D02*
X0002406850Y0002887795D01*
X0001451417Y0002837795D02*
X0001384645Y0002837795D01*
X0001364960Y0002857480D02*
X0001257086Y0002857480D01*
X0001384645Y0002837795D02*
X0001364960Y0002857480D01*
X0001779133Y0003003425D02*
X0001779133Y0002923228D01*
X0001779133Y0002923228D02*
X0001779133Y0002911023D01*
X0001705905Y0002837795D02*
X0001702755Y0002837795D01*
X0001702755Y0002837795D02*
X0001451417Y0002837795D01*
X0001779133Y0002911023D02*
X0001705905Y0002837795D01*
X0001791338Y0003320866D02*
X0001791338Y0003253937D01*
X0001791338Y0003253937D02*
X0001830708Y0003214566D01*
X0001614173Y0003320866D02*
X0001462598Y0003320866D01*
X0001462598Y0003320866D02*
X0001437007Y0003346456D01*
X0001629921Y0003320866D02*
X0001614173Y0003320866D01*
X0001614173Y0003320866D02*
X0001588582Y0003320866D01*
X0001588582Y0003320866D02*
X0001574803Y0003307086D01*
X0001574803Y0003307086D02*
X0001466535Y0003307086D01*
X0001466535Y0003307086D02*
X0001437007Y0003277559D01*
X0001505905Y0003346456D02*
X0001604330Y0003346456D01*
X0001604330Y0003346456D02*
X0001629921Y0003320866D01*
X0001505905Y0003277559D02*
X0001594488Y0003277559D01*
X0001791338Y0003320866D02*
X0001629921Y0003320866D01*
X0001629921Y0003320866D02*
X0001627952Y0003320866D01*
X0001594488Y0003287401D02*
X0001594488Y0003277559D01*
X0001627952Y0003320866D02*
X0001594488Y0003287401D01*
X0001594488Y0003277559D02*
X0001594488Y0003246062D01*
D35*
X0001877952Y0003214566D02*
X0001830708Y0003214566D01*
D34*
X0002066929Y0003320866D02*
X0002066929Y0003253937D01*
X0002066929Y0003253937D02*
X0002027559Y0003214566D01*
X0002852755Y0002363779D02*
X0001760236Y0002363779D01*
X0001760236Y0002363779D02*
X0001692913Y0002431102D01*
X0003169291Y0002224409D02*
X0002992125Y0002224409D01*
X0002992125Y0002224409D02*
X0002892125Y0002224409D01*
X0002892125Y0002224409D02*
X0002893700Y0002225984D01*
X0002893700Y0002225984D02*
X0002893700Y0002322834D01*
X0002893700Y0002322834D02*
X0002852755Y0002363779D01*
X0002852755Y0002363779D02*
X0002852755Y0002363779D01*
X0002852755Y0002363779D02*
X0002852755Y0002465984D01*
X0003052755Y0002639370D02*
X0003052755Y0002636220D01*
X0003052755Y0002636220D02*
X0003090551Y0002598425D01*
X0003282047Y0002498425D02*
X0003210236Y0002498425D01*
X0003210236Y0002498425D02*
X0003110236Y0002598425D01*
X0003110236Y0002598425D02*
X0003090551Y0002598425D01*
X0003090551Y0002598425D02*
X0003011811Y0002598425D01*
X0002852755Y0002465984D02*
X0002852755Y0002557480D01*
X0003052755Y0002639370D02*
X0003052755Y0002730866D01*
X0003011811Y0002598425D02*
X0003052755Y0002639370D01*
X0002893700Y0002598425D02*
X0003011811Y0002598425D01*
X0002852755Y0002557480D02*
X0002893700Y0002598425D01*
X0000531496Y0003049606D02*
X0000313385Y0003049606D01*
X0000233070Y0002555905D02*
X0000177165Y0002555905D01*
X0000275590Y0002598425D02*
X0000233070Y0002555905D01*
X0000275590Y0003011811D02*
X0000275590Y0002598425D01*
X0000313385Y0003049606D02*
X0000275590Y0003011811D01*
D35*
X0001879921Y0001889763D02*
X0001879921Y0001978346D01*
X0002792125Y0002224409D02*
X0002792125Y0002083464D01*
X0000300393Y0002357480D02*
X0000357086Y0002357480D01*
X0000255905Y0002312992D02*
X0000300393Y0002357480D01*
X0000255905Y0002224409D02*
X0000255905Y0002312992D01*
X0000501968Y0001978346D02*
X0000255905Y0002224409D01*
X0002687007Y0001978346D02*
X0001879921Y0001978346D01*
X0001879921Y0001978346D02*
X0000501968Y0001978346D01*
X0002792125Y0002083464D02*
X0002687007Y0001978346D01*
X0002863385Y0003307086D02*
X0002863385Y0003248818D01*
X0003169291Y0003179133D02*
X0003169291Y0002824409D01*
X0003129921Y0003218503D02*
X0003169291Y0003179133D01*
X0002893700Y0003218503D02*
X0003129921Y0003218503D01*
X0002863385Y0003248818D02*
X0002893700Y0003218503D01*
X0001978346Y0002539370D02*
X0001978346Y0002537795D01*
X0001451417Y0002537795D02*
X0001978346Y0002537795D01*
X0001978346Y0002537795D02*
X0002252362Y0002537795D01*
X0002302362Y0002587795D02*
X0002406850Y0002587795D01*
X0002252362Y0002537795D02*
X0002302362Y0002587795D01*
X0001451417Y0002537795D02*
X0001386220Y0002537795D01*
X0001305905Y0002457480D02*
X0001257086Y0002457480D01*
X0001386220Y0002537795D02*
X0001305905Y0002457480D01*
X0001451417Y0002637795D02*
X0002086614Y0002637795D01*
X0002086614Y0002637795D02*
X0002214566Y0002637795D01*
X0002264566Y0002687795D02*
X0002406850Y0002687795D01*
X0002214566Y0002637795D02*
X0002264566Y0002687795D01*
X0001451417Y0002637795D02*
X0001387795Y0002637795D01*
X0001307480Y0002557480D02*
X0001257086Y0002557480D01*
X0001387795Y0002637795D02*
X0001307480Y0002557480D01*
X0003282047Y0002598425D02*
X0003346456Y0002598425D01*
X0000767716Y0002657480D02*
X0000357086Y0002657480D01*
X0000797244Y0002627952D02*
X0000767716Y0002657480D01*
X0000797244Y0002381889D02*
X0000797244Y0002627952D01*
X0001102362Y0002076771D02*
X0000797244Y0002381889D01*
X0001112204Y0002076771D02*
X0001102362Y0002076771D01*
X0001496062Y0002076771D02*
X0001112204Y0002076771D01*
X0003238188Y0002007874D02*
X0002913385Y0002007874D01*
X0003415354Y0002185039D02*
X0003238188Y0002007874D01*
X0003415354Y0002529527D02*
X0003415354Y0002185039D01*
X0003346456Y0002598425D02*
X0003415354Y0002529527D01*
X0000766141Y0002757480D02*
X0000357086Y0002757480D01*
X0000836614Y0002687007D02*
X0000766141Y0002757480D01*
X0000836614Y0002401574D02*
X0000836614Y0002687007D01*
X0001122047Y0002116141D02*
X0000836614Y0002401574D01*
X0002047244Y0002116141D02*
X0001122047Y0002116141D01*
X0002204724Y0002273622D02*
X0002047244Y0002116141D01*
X0002411417Y0002312992D02*
X0001948818Y0002312992D01*
X0001948818Y0002312992D02*
X0001791338Y0002155511D01*
X0000764566Y0002857480D02*
X0000357086Y0002857480D01*
X0000875984Y0002746062D02*
X0000764566Y0002857480D01*
X0000875984Y0002421259D02*
X0000875984Y0002746062D01*
X0001141732Y0002155511D02*
X0000875984Y0002421259D01*
X0001791338Y0002155511D02*
X0001141732Y0002155511D01*
G04 next file*
%LPD*%
G04 #@! TF.FileFunction,Copper,L1,Top,Signal*
G04 Gerber Fmt 4.6, Leading zero omitted, Abs format (unit mm)*
G04 Created by KiCad (PCBNEW 4.0.7) date 08/13/18 20:02:33*
G01*
G04 APERTURE LIST*
G04 APERTURE END LIST*
D46*
D47*
X0000000000Y0001653543D02*
X0003661417Y0001013779D03*
D48*
X0003661417Y0000714566D03*
D49*
X0001633858Y0001438976D03*
X0001633858Y0001513779D03*
D50*
X0000846456Y0001417322D03*
D51*
X0000846456Y0001515748D03*
D50*
X0003710629Y0001200787D03*
D52*
X0003310629Y0001200787D03*
D53*
X0000196850Y0001456692D03*
X0000196850Y0000275590D03*
X0003740157Y0001456692D03*
X0003740157Y0000275590D03*
D54*
X0002019685Y0001482283D03*
X0001994094Y0001482283D03*
X0001968503Y0001482283D03*
X0001942913Y0001482283D03*
X0001917322Y0001482283D03*
D55*
X0002066929Y0001482283D03*
X0001870078Y0001482283D03*
D56*
X0002106299Y0001588582D03*
X0001830708Y0001588582D03*
D57*
X0000570866Y0001417322D03*
D58*
X0000570866Y0001317322D03*
X0000570866Y0001217322D03*
D59*
X0002648425Y0001249212D03*
X0002698425Y0001299212D03*
D60*
X0002598425Y0001299212D03*
D57*
X0001919291Y0000157480D03*
D58*
X0002019291Y0000157480D03*
D51*
X0002657480Y0000501968D03*
D52*
X0002657480Y0001101968D03*
D51*
X0003208661Y0000492125D03*
D52*
X0003208661Y0001092125D03*
D61*
X0003090551Y0001279527D03*
X0002990551Y0001279527D03*
X0002890551Y0001279527D03*
X0003031496Y0000492125D03*
X0002931496Y0000492125D03*
X0002831496Y0000492125D03*
D62*
X0002802755Y0001574803D03*
D63*
X0002902755Y0001574803D03*
X0003002755Y0001574803D03*
X0003102755Y0001574803D03*
D57*
X0000216535Y0001023622D03*
D58*
X0000216535Y0000923622D03*
X0000216535Y0000823622D03*
X0000216535Y0000723622D03*
D57*
X0003321417Y0000966141D03*
D58*
X0003321417Y0000866141D03*
X0003321417Y0000766141D03*
D57*
X0002892125Y0000998582D03*
D58*
X0002992125Y0000998582D03*
X0003092125Y0000998582D03*
D57*
X0003092125Y0000733700D03*
D58*
X0002992125Y0000733700D03*
X0002892125Y0000733700D03*
D64*
X0001296456Y0000525196D03*
X0001296456Y0000625196D03*
X0001296456Y0000725196D03*
X0001296456Y0000825196D03*
X0001296456Y0000925196D03*
X0001296456Y0001025196D03*
X0001296456Y0001125196D03*
X0001296456Y0001225196D03*
X0000396456Y0001225196D03*
X0000396456Y0001125196D03*
X0000396456Y0001025196D03*
X0000396456Y0000925196D03*
X0000396456Y0000825196D03*
X0000396456Y0000725196D03*
X0000396456Y0000625196D03*
X0000396456Y0000525196D03*
D65*
X0001490787Y0001205511D03*
X0001490787Y0001105511D03*
X0002446220Y0001155511D03*
X0001490787Y0001005511D03*
X0002446220Y0001055511D03*
X0001490787Y0000905511D03*
X0002446220Y0000955511D03*
X0001490787Y0000805511D03*
X0002446220Y0000855511D03*
X0001490787Y0000705511D03*
X0002446220Y0000755511D03*
X0001490787Y0000605511D03*
D66*
X0001818503Y0001271141D03*
X0001918503Y0001271141D03*
X0002018503Y0001271141D03*
X0002118503Y0001271141D03*
D67*
X0001141732Y0001220472D03*
D68*
X0000741732Y0001220472D03*
D69*
X0001456692Y0001318897D03*
X0001525590Y0001318897D03*
X0001456692Y0001387795D03*
X0001525590Y0001387795D03*
X0000728346Y0001072834D03*
X0000728346Y0000974409D03*
X0002017716Y0000423228D03*
X0000777559Y0000669291D03*
X0000777559Y0000777559D03*
X0000472440Y0000777559D03*
X0003120078Y0001446850D03*
X0001476377Y0001545275D03*
X0001545275Y0001545275D03*
X0001545275Y0001614173D03*
X0001476377Y0001614173D03*
X0001732283Y0000698818D03*
X0002017716Y0000807086D03*
X0002125984Y0000905511D03*
X0001535433Y0000344488D03*
X0002952755Y0000275590D03*
X0002244094Y0000541338D03*
X0002450787Y0000580708D03*
D70*
X0000741732Y0001220472D02*
X0000574015Y0001220472D01*
X0000574015Y0001220472D02*
X0000570866Y0001217322D01*
X0002019685Y0001379921D02*
X0002206692Y0001379921D01*
X0002401574Y0001574803D02*
X0002802755Y0001574803D01*
X0002206692Y0001379921D02*
X0002401574Y0001574803D01*
X0001490787Y0001005511D02*
X0002206299Y0001005511D01*
X0002256299Y0001055511D02*
X0002446220Y0001055511D01*
X0002206299Y0001005511D02*
X0002256299Y0001055511D01*
X0001456692Y0001318897D02*
X0001496062Y0001358267D01*
X0001673228Y0001358267D02*
X0001496062Y0001358267D01*
X0001496062Y0001358267D02*
X0001486220Y0001358267D01*
X0001486220Y0001358267D02*
X0001456692Y0001387795D01*
X0001525590Y0001318897D02*
X0001633858Y0001318897D01*
X0001633858Y0001318897D02*
X0001673228Y0001358267D01*
X0001525590Y0001387795D02*
X0001633858Y0001387795D01*
D71*
X0002019685Y0001482283D02*
X0002019685Y0001379921D01*
D70*
X0001998031Y0001358267D02*
X0001673228Y0001358267D01*
X0002019685Y0001379921D02*
X0001998031Y0001358267D01*
X0001673228Y0001358267D02*
X0001663385Y0001358267D01*
X0001663385Y0001358267D02*
X0001633858Y0001387795D01*
X0001633858Y0001387795D02*
X0001633858Y0001438976D01*
X0000472440Y0000777559D02*
X0000777559Y0000777559D01*
X0000777559Y0000669291D02*
X0000777559Y0000777559D01*
X0002598425Y0001299212D02*
X0002598425Y0001200787D01*
X0002598425Y0001200787D02*
X0002578740Y0001181102D01*
X0002446220Y0001155511D02*
X0002553149Y0001155511D01*
X0002553149Y0001155511D02*
X0002578740Y0001181102D01*
X0002892125Y0001103937D02*
X0002892125Y0000998582D01*
X0002578740Y0001181102D02*
X0002814960Y0001181102D01*
X0002814960Y0001181102D02*
X0002892125Y0001103937D01*
X0002657480Y0001387795D02*
X0002618110Y0001387795D01*
X0002608267Y0001377952D02*
X0002529527Y0001299212D01*
X0002618110Y0001387795D02*
X0002608267Y0001377952D01*
X0003120078Y0001446850D02*
X0003061023Y0001387795D01*
X0003061023Y0001387795D02*
X0002657480Y0001387795D01*
X0002657480Y0001387795D02*
X0002647637Y0001387795D01*
X0002598425Y0001338582D02*
X0002598425Y0001299212D01*
X0002647637Y0001387795D02*
X0002598425Y0001338582D01*
X0002446220Y0001215905D02*
X0002385826Y0001155511D01*
X0002598425Y0001299212D02*
X0002529527Y0001299212D01*
X0002529527Y0001299212D02*
X0002446220Y0001215905D01*
X0002446220Y0001215905D02*
X0002446220Y0001155511D01*
X0001818503Y0001190944D02*
X0001818503Y0001183464D01*
X0001818503Y0001183464D02*
X0001896456Y0001105511D01*
X0001742125Y0001105511D02*
X0001896456Y0001105511D01*
X0001896456Y0001105511D02*
X0002138976Y0001105511D01*
X0002188976Y0001155511D02*
X0002385826Y0001155511D01*
X0002138976Y0001105511D02*
X0002188976Y0001155511D01*
X0002385826Y0001155511D02*
X0002446220Y0001155511D01*
X0001490787Y0001105511D02*
X0001424015Y0001105511D01*
X0001404330Y0001125196D02*
X0001296456Y0001125196D01*
X0001424015Y0001105511D02*
X0001404330Y0001125196D01*
X0001818503Y0001271141D02*
X0001818503Y0001190944D01*
X0001818503Y0001190944D02*
X0001818503Y0001178740D01*
X0001745275Y0001105511D02*
X0001742125Y0001105511D01*
X0001742125Y0001105511D02*
X0001490787Y0001105511D01*
X0001818503Y0001178740D02*
X0001745275Y0001105511D01*
X0001830708Y0001588582D02*
X0001830708Y0001521653D01*
X0001830708Y0001521653D02*
X0001870078Y0001482283D01*
X0001653543Y0001588582D02*
X0001501968Y0001588582D01*
X0001501968Y0001588582D02*
X0001476377Y0001614173D01*
X0001669291Y0001588582D02*
X0001653543Y0001588582D01*
X0001653543Y0001588582D02*
X0001627952Y0001588582D01*
X0001627952Y0001588582D02*
X0001614173Y0001574803D01*
X0001614173Y0001574803D02*
X0001505905Y0001574803D01*
X0001505905Y0001574803D02*
X0001476377Y0001545275D01*
X0001545275Y0001614173D02*
X0001643700Y0001614173D01*
X0001643700Y0001614173D02*
X0001669291Y0001588582D01*
X0001545275Y0001545275D02*
X0001633858Y0001545275D01*
X0001830708Y0001588582D02*
X0001669291Y0001588582D01*
X0001669291Y0001588582D02*
X0001667322Y0001588582D01*
X0001633858Y0001555118D02*
X0001633858Y0001545275D01*
X0001667322Y0001588582D02*
X0001633858Y0001555118D01*
X0001633858Y0001545275D02*
X0001633858Y0001513779D01*
D71*
X0001917322Y0001482283D02*
X0001870078Y0001482283D01*
D70*
X0002106299Y0001588582D02*
X0002106299Y0001521653D01*
X0002106299Y0001521653D02*
X0002066929Y0001482283D01*
X0002892125Y0000631496D02*
X0001799606Y0000631496D01*
X0001799606Y0000631496D02*
X0001732283Y0000698818D01*
X0003208661Y0000492125D02*
X0003031496Y0000492125D01*
X0003031496Y0000492125D02*
X0002931496Y0000492125D01*
X0002931496Y0000492125D02*
X0002933070Y0000493700D01*
X0002933070Y0000493700D02*
X0002933070Y0000590551D01*
X0002933070Y0000590551D02*
X0002892125Y0000631496D01*
X0002892125Y0000631496D02*
X0002892125Y0000631496D01*
X0002892125Y0000631496D02*
X0002892125Y0000733700D01*
X0003092125Y0000907086D02*
X0003092125Y0000903937D01*
X0003092125Y0000903937D02*
X0003129921Y0000866141D01*
X0003321417Y0000766141D02*
X0003249606Y0000766141D01*
X0003249606Y0000766141D02*
X0003149606Y0000866141D01*
X0003149606Y0000866141D02*
X0003129921Y0000866141D01*
X0003129921Y0000866141D02*
X0003051181Y0000866141D01*
X0002892125Y0000733700D02*
X0002892125Y0000825196D01*
X0003092125Y0000907086D02*
X0003092125Y0000998582D01*
X0003051181Y0000866141D02*
X0003092125Y0000907086D01*
X0002933070Y0000866141D02*
X0003051181Y0000866141D01*
X0002892125Y0000825196D02*
X0002933070Y0000866141D01*
X0000570866Y0001317322D02*
X0000352755Y0001317322D01*
X0000272440Y0000823622D02*
X0000216535Y0000823622D01*
X0000314960Y0000866141D02*
X0000272440Y0000823622D01*
X0000314960Y0001279527D02*
X0000314960Y0000866141D01*
X0000352755Y0001317322D02*
X0000314960Y0001279527D01*
D71*
X0001919291Y0000157480D02*
X0001919291Y0000246062D01*
X0002831496Y0000492125D02*
X0002831496Y0000351181D01*
X0000339763Y0000625196D02*
X0000396456Y0000625196D01*
X0000295275Y0000580708D02*
X0000339763Y0000625196D01*
X0000295275Y0000492125D02*
X0000295275Y0000580708D01*
X0000541338Y0000246062D02*
X0000295275Y0000492125D01*
X0002726377Y0000246062D02*
X0001919291Y0000246062D01*
X0001919291Y0000246062D02*
X0000541338Y0000246062D01*
X0002831496Y0000351181D02*
X0002726377Y0000246062D01*
X0002902755Y0001574803D02*
X0002902755Y0001516535D01*
X0003208661Y0001446850D02*
X0003208661Y0001092125D01*
X0003169291Y0001486220D02*
X0003208661Y0001446850D01*
X0002933070Y0001486220D02*
X0003169291Y0001486220D01*
X0002902755Y0001516535D02*
X0002933070Y0001486220D01*
X0002017716Y0000807086D02*
X0002017716Y0000805511D01*
X0001490787Y0000805511D02*
X0002017716Y0000805511D01*
X0002017716Y0000805511D02*
X0002291732Y0000805511D01*
X0002341732Y0000855511D02*
X0002446220Y0000855511D01*
X0002291732Y0000805511D02*
X0002341732Y0000855511D01*
X0001490787Y0000805511D02*
X0001425590Y0000805511D01*
X0001345275Y0000725196D02*
X0001296456Y0000725196D01*
X0001425590Y0000805511D02*
X0001345275Y0000725196D01*
X0001490787Y0000905511D02*
X0002125984Y0000905511D01*
X0002125984Y0000905511D02*
X0002253937Y0000905511D01*
X0002303937Y0000955511D02*
X0002446220Y0000955511D01*
X0002253937Y0000905511D02*
X0002303937Y0000955511D01*
X0001490787Y0000905511D02*
X0001427165Y0000905511D01*
X0001346850Y0000825196D02*
X0001296456Y0000825196D01*
X0001427165Y0000905511D02*
X0001346850Y0000825196D01*
X0003321417Y0000866141D02*
X0003385826Y0000866141D01*
X0000807086Y0000925196D02*
X0000396456Y0000925196D01*
X0000836614Y0000895669D02*
X0000807086Y0000925196D01*
X0000836614Y0000649606D02*
X0000836614Y0000895669D01*
X0001141732Y0000344488D02*
X0000836614Y0000649606D01*
X0001151574Y0000344488D02*
X0001141732Y0000344488D01*
X0001535433Y0000344488D02*
X0001151574Y0000344488D01*
X0003277559Y0000275590D02*
X0002952755Y0000275590D01*
X0003454724Y0000452755D02*
X0003277559Y0000275590D01*
X0003454724Y0000797244D02*
X0003454724Y0000452755D01*
X0003385826Y0000866141D02*
X0003454724Y0000797244D01*
X0000805511Y0001025196D02*
X0000396456Y0001025196D01*
X0000875984Y0000954724D02*
X0000805511Y0001025196D01*
X0000875984Y0000669291D02*
X0000875984Y0000954724D01*
X0001161417Y0000383858D02*
X0000875984Y0000669291D01*
X0002086614Y0000383858D02*
X0001161417Y0000383858D01*
X0002244094Y0000541338D02*
X0002086614Y0000383858D01*
X0002450787Y0000580708D02*
X0001988188Y0000580708D01*
X0001988188Y0000580708D02*
X0001830708Y0000423228D01*
X0000803937Y0001125196D02*
X0000396456Y0001125196D01*
X0000915354Y0001013779D02*
X0000803937Y0001125196D01*
X0000915354Y0000688976D02*
X0000915354Y0001013779D01*
X0001181102Y0000423228D02*
X0000915354Y0000688976D01*
X0001830708Y0000423228D02*
X0001181102Y0000423228D01*
M02*