%MOIN*%
%OFA0B0*%
%FSLAX46Y46*%
%IPPOS*%
%LPD*%
%ADD10C,0.0039370078740157488*%
%ADD11R,0.094488188976377951X0.094488188976377951*%
%ADD12C,0.094488188976377951*%
%ADD13R,0.062992125984251982X0.0452755905511811*%
%ADD14R,0.07874015748031496X0.07874015748031496*%
%ADD15C,0.07874015748031496*%
%ADD16O,0.07874015748031496X0.07874015748031496*%
%ADD17C,0.29133858267716539*%
%ADD18O,0.064960629921259838X0.053149606299212608*%
%ADD19O,0.055118110236220472X0.076771653543307089*%
%ADD20R,0.082677165354330714X0.082677165354330714*%
%ADD21O,0.082677165354330714X0.082677165354330714*%
%ADD22C,0.055118110236220472*%
%ADD23R,0.055118110236220472X0.055118110236220472*%
%ADD24R,0.062992125984251982X0.051181102362204731*%
%ADD25C,0.072440944881889777*%
%ADD26R,0.083748031496063011X0.095748031496063*%
%ADD27O,0.083748031496063011X0.095748031496063*%
%ADD28R,0.094488188976377951X0.16535433070866143*%
%ADD29R,0.094488188976377951X0.074803149606299218*%
%ADD30C,0.086614173228346469*%
%ADD31O,0.094488188976377951X0.062992125984251982*%
%ADD32O,0.062992125984251982X0.094488188976377951*%
%ADD33R,0.10236220472440946X0.10236220472440946*%
%ADD34O,0.10236220472440946X0.10236220472440946*%
%ADD45C,0.0039370078740157488*%
%ADD46R,0.094488188976377951X0.094488188976377951*%
%ADD47C,0.094488188976377951*%
%ADD48R,0.062992125984251982X0.0452755905511811*%
%ADD49R,0.07874015748031496X0.07874015748031496*%
%ADD50C,0.07874015748031496*%
%ADD51O,0.07874015748031496X0.07874015748031496*%
%ADD52C,0.29133858267716539*%
%ADD53O,0.064960629921259838X0.053149606299212608*%
%ADD54O,0.055118110236220472X0.076771653543307089*%
%ADD55R,0.082677165354330714X0.082677165354330714*%
%ADD56O,0.082677165354330714X0.082677165354330714*%
%ADD57C,0.055118110236220472*%
%ADD58R,0.055118110236220472X0.055118110236220472*%
%ADD59R,0.062992125984251982X0.051181102362204731*%
%ADD60C,0.072440944881889777*%
%ADD61R,0.083748031496063011X0.095748031496063*%
%ADD62O,0.083748031496063011X0.095748031496063*%
%ADD63R,0.094488188976377951X0.16535433070866143*%
%ADD64R,0.094488188976377951X0.074803149606299218*%
%ADD65C,0.086614173228346469*%
%ADD66O,0.094488188976377951X0.062992125984251982*%
%ADD67O,0.062992125984251982X0.094488188976377951*%
%ADD68R,0.10236220472440946X0.10236220472440946*%
%ADD69O,0.10236220472440946X0.10236220472440946*%
%LPD*%
G01*
D10*
D11*
X-0000039370Y0003385826D02*
X0003622047Y0002746062D03*
D12*
X0003622047Y0002446850D03*
D13*
X0002875984Y0003188976D03*
X0002950787Y0003188976D03*
X0001064960Y0002834645D03*
X0001139763Y0002834645D03*
D14*
X0000807086Y0003149606D03*
D15*
X0000807086Y0003248031D03*
D14*
X0003671259Y0002933070D03*
D16*
X0003271259Y0002933070D03*
D17*
X0000157480Y0003188976D03*
X0000157480Y0002007874D03*
X0003700787Y0003188976D03*
X0003700787Y0002007874D03*
D18*
X0002027559Y0003214566D03*
X0001830708Y0003214566D03*
D19*
X0002066929Y0003320866D03*
X0001791338Y0003320866D03*
D20*
X0000531496Y0003149606D03*
D21*
X0000531496Y0003049606D03*
X0000531496Y0002949606D03*
D22*
X0002609055Y0002981496D03*
X0002659055Y0003031496D03*
D23*
X0002559055Y0003031496D03*
D20*
X0001879921Y0001889763D03*
D21*
X0001979921Y0001889763D03*
D15*
X0002618110Y0002234251D03*
D16*
X0002618110Y0002834251D03*
D15*
X0003169291Y0002224409D03*
D16*
X0003169291Y0002824409D03*
D24*
X0000584645Y0002559055D03*
X0000498031Y0002559055D03*
X0000584645Y0002460629D03*
X0000498031Y0002460629D03*
X0001029527Y0002460629D03*
X0001116141Y0002460629D03*
X0001029527Y0002559055D03*
X0001116141Y0002559055D03*
D25*
X0003051181Y0003011811D03*
X0002951181Y0003011811D03*
X0002851181Y0003011811D03*
X0002992125Y0002224409D03*
X0002892125Y0002224409D03*
X0002792125Y0002224409D03*
D26*
X0002763385Y0003307086D03*
D27*
X0002863385Y0003307086D03*
X0002963385Y0003307086D03*
X0003063385Y0003307086D03*
D28*
X0001057086Y0003188976D03*
D29*
X0001305118Y0003188976D03*
X0001305118Y0003098425D03*
X0001305118Y0003279527D03*
D20*
X0000177165Y0002755905D03*
D21*
X0000177165Y0002655905D03*
X0000177165Y0002555905D03*
X0000177165Y0002455905D03*
D20*
X0003282047Y0002698425D03*
D21*
X0003282047Y0002598425D03*
X0003282047Y0002498425D03*
D20*
X0002852755Y0002730866D03*
D21*
X0002952755Y0002730866D03*
X0003052755Y0002730866D03*
D20*
X0003052755Y0002465984D03*
D21*
X0002952755Y0002465984D03*
X0002852755Y0002465984D03*
D30*
X0001257086Y0002257480D03*
X0001257086Y0002357480D03*
X0001257086Y0002457480D03*
X0001257086Y0002557480D03*
X0001257086Y0002657480D03*
X0001257086Y0002757480D03*
X0001257086Y0002857480D03*
X0001257086Y0002957480D03*
X0000357086Y0002957480D03*
X0000357086Y0002857480D03*
X0000357086Y0002757480D03*
X0000357086Y0002657480D03*
X0000357086Y0002557480D03*
X0000357086Y0002457480D03*
X0000357086Y0002357480D03*
X0000357086Y0002257480D03*
D31*
X0001451417Y0002937795D03*
X0001451417Y0002837795D03*
X0002406850Y0002887795D03*
X0001451417Y0002737795D03*
X0002406850Y0002787795D03*
X0001451417Y0002637795D03*
X0002406850Y0002687795D03*
X0001451417Y0002537795D03*
X0002406850Y0002587795D03*
X0001451417Y0002437795D03*
X0002406850Y0002487795D03*
X0001451417Y0002337795D03*
D32*
X0001779133Y0003003425D03*
X0001879133Y0003003425D03*
X0001979133Y0003003425D03*
X0002079133Y0003003425D03*
D33*
X0001102362Y0002952755D03*
D34*
X0000702362Y0002952755D03*
G04 next file*
%LPD*%
G04 #@! TF.FileFunction,Soldermask,Bot*
G04 Gerber Fmt 4.6, Leading zero omitted, Abs format (unit mm)*
G04 Created by KiCad (PCBNEW 4.0.7) date 08/13/18 20:02:33*
G01*
G04 APERTURE LIST*
G04 APERTURE END LIST*
D45*
D46*
X0000000000Y0001653543D02*
X0003661417Y0001013779D03*
D47*
X0003661417Y0000714566D03*
D48*
X0002915354Y0001456692D03*
X0002990157Y0001456692D03*
X0001104330Y0001102362D03*
X0001179133Y0001102362D03*
D49*
X0000846456Y0001417322D03*
D50*
X0000846456Y0001515748D03*
D49*
X0003710629Y0001200787D03*
D51*
X0003310629Y0001200787D03*
D52*
X0000196850Y0001456692D03*
X0000196850Y0000275590D03*
X0003740157Y0001456692D03*
X0003740157Y0000275590D03*
D53*
X0002066929Y0001482283D03*
X0001870078Y0001482283D03*
D54*
X0002106299Y0001588582D03*
X0001830708Y0001588582D03*
D55*
X0000570866Y0001417322D03*
D56*
X0000570866Y0001317322D03*
X0000570866Y0001217322D03*
D57*
X0002648425Y0001249212D03*
X0002698425Y0001299212D03*
D58*
X0002598425Y0001299212D03*
D55*
X0001919291Y0000157480D03*
D56*
X0002019291Y0000157480D03*
D50*
X0002657480Y0000501968D03*
D51*
X0002657480Y0001101968D03*
D50*
X0003208661Y0000492125D03*
D51*
X0003208661Y0001092125D03*
D59*
X0000624015Y0000826771D03*
X0000537401Y0000826771D03*
X0000624015Y0000728346D03*
X0000537401Y0000728346D03*
X0001068897Y0000728346D03*
X0001155511Y0000728346D03*
X0001068897Y0000826771D03*
X0001155511Y0000826771D03*
D60*
X0003090551Y0001279527D03*
X0002990551Y0001279527D03*
X0002890551Y0001279527D03*
X0003031496Y0000492125D03*
X0002931496Y0000492125D03*
X0002831496Y0000492125D03*
D61*
X0002802755Y0001574803D03*
D62*
X0002902755Y0001574803D03*
X0003002755Y0001574803D03*
X0003102755Y0001574803D03*
D63*
X0001096456Y0001456692D03*
D64*
X0001344488Y0001456692D03*
X0001344488Y0001366141D03*
X0001344488Y0001547244D03*
D55*
X0000216535Y0001023622D03*
D56*
X0000216535Y0000923622D03*
X0000216535Y0000823622D03*
X0000216535Y0000723622D03*
D55*
X0003321417Y0000966141D03*
D56*
X0003321417Y0000866141D03*
X0003321417Y0000766141D03*
D55*
X0002892125Y0000998582D03*
D56*
X0002992125Y0000998582D03*
X0003092125Y0000998582D03*
D55*
X0003092125Y0000733700D03*
D56*
X0002992125Y0000733700D03*
X0002892125Y0000733700D03*
D65*
X0001296456Y0000525196D03*
X0001296456Y0000625196D03*
X0001296456Y0000725196D03*
X0001296456Y0000825196D03*
X0001296456Y0000925196D03*
X0001296456Y0001025196D03*
X0001296456Y0001125196D03*
X0001296456Y0001225196D03*
X0000396456Y0001225196D03*
X0000396456Y0001125196D03*
X0000396456Y0001025196D03*
X0000396456Y0000925196D03*
X0000396456Y0000825196D03*
X0000396456Y0000725196D03*
X0000396456Y0000625196D03*
X0000396456Y0000525196D03*
D66*
X0001490787Y0001205511D03*
X0001490787Y0001105511D03*
X0002446220Y0001155511D03*
X0001490787Y0001005511D03*
X0002446220Y0001055511D03*
X0001490787Y0000905511D03*
X0002446220Y0000955511D03*
X0001490787Y0000805511D03*
X0002446220Y0000855511D03*
X0001490787Y0000705511D03*
X0002446220Y0000755511D03*
X0001490787Y0000605511D03*
D67*
X0001818503Y0001271141D03*
X0001918503Y0001271141D03*
X0002018503Y0001271141D03*
X0002118503Y0001271141D03*
D68*
X0001141732Y0001220472D03*
D69*
X0000741732Y0001220472D03*
M02*