G04 #@! TF.FileFunction,Copper,L2,Bot,Signal*
%FSLAX46Y46*%
G04 Gerber Fmt 4.6, Leading zero omitted, Abs format (unit mm)*
G04 Created by KiCad (PCBNEW 4.0.7) date 08/13/18 20:02:33*
%MOMM*%
%LPD*%
G01*
G04 APERTURE LIST*
%ADD10C,0.100000*%
%ADD11R,2.000000X2.000000*%
%ADD12C,2.000000*%
%ADD13R,1.200000X0.750000*%
%ADD14R,1.600000X1.600000*%
%ADD15C,1.600000*%
%ADD16O,1.600000X1.600000*%
%ADD17C,7.000000*%
%ADD18O,1.250000X0.950000*%
%ADD19O,1.000000X1.550000*%
%ADD20R,1.700000X1.700000*%
%ADD21O,1.700000X1.700000*%
%ADD22C,1.000000*%
%ADD23R,1.000000X1.000000*%
%ADD24R,1.200000X0.900000*%
%ADD25C,1.440000*%
%ADD26R,1.727200X2.032000*%
%ADD27O,1.727200X2.032000*%
%ADD28R,2.000000X3.800000*%
%ADD29R,2.000000X1.500000*%
%ADD30C,1.800000*%
%ADD31O,2.000000X1.200000*%
%ADD32O,1.200000X2.000000*%
%ADD33R,2.200000X2.200000*%
%ADD34O,2.200000X2.200000*%
%ADD35C,0.600000*%
%ADD36C,1.000000*%
%ADD37C,0.500000*%
G04 APERTURE END LIST*
D10*
D11*
X93000000Y-16250000D03*
D12*
X93000000Y-23850000D03*
D13*
X74050000Y-5000000D03*
X75950000Y-5000000D03*
X28050000Y-14000000D03*
X29950000Y-14000000D03*
D14*
X21500000Y-6000000D03*
D15*
X21500000Y-3500000D03*
D14*
X94250000Y-11500000D03*
D16*
X84090000Y-11500000D03*
D17*
X5000000Y-5000000D03*
X5000000Y-35000000D03*
X95000000Y-5000000D03*
X95000000Y-35000000D03*
D18*
X52500000Y-4350000D03*
X47500000Y-4350000D03*
D19*
X53500000Y-1650000D03*
X46500000Y-1650000D03*
D20*
X14500000Y-6000000D03*
D21*
X14500000Y-8540000D03*
X14500000Y-11080000D03*
D22*
X67270000Y-10270000D03*
X68540000Y-9000000D03*
D23*
X66000000Y-9000000D03*
D20*
X48750000Y-38000000D03*
D21*
X51290000Y-38000000D03*
D15*
X67500000Y-29250000D03*
D16*
X67500000Y-14010000D03*
D15*
X81500000Y-29500000D03*
D16*
X81500000Y-14260000D03*
D24*
X15850000Y-21000000D03*
X13650000Y-21000000D03*
X15850000Y-23500000D03*
X13650000Y-23500000D03*
X27150000Y-23500000D03*
X29350000Y-23500000D03*
X27150000Y-21000000D03*
X29350000Y-21000000D03*
D25*
X78500000Y-9500000D03*
X75960000Y-9500000D03*
X73420000Y-9500000D03*
X77000000Y-29500000D03*
X74460000Y-29500000D03*
X71920000Y-29500000D03*
D26*
X71190000Y-2000000D03*
D27*
X73730000Y-2000000D03*
X76270000Y-2000000D03*
X78810000Y-2000000D03*
D28*
X27850000Y-5000000D03*
D29*
X34150000Y-5000000D03*
X34150000Y-7300000D03*
X34150000Y-2700000D03*
D20*
X5500000Y-16000000D03*
D21*
X5500000Y-18540000D03*
X5500000Y-21080000D03*
X5500000Y-23620000D03*
D20*
X84364000Y-17460000D03*
D21*
X84364000Y-20000000D03*
X84364000Y-22540000D03*
D20*
X73460000Y-16636000D03*
D21*
X76000000Y-16636000D03*
X78540000Y-16636000D03*
D20*
X78540000Y-23364000D03*
D21*
X76000000Y-23364000D03*
X73460000Y-23364000D03*
D30*
X32930000Y-28660000D03*
X32930000Y-26120000D03*
X32930000Y-23580000D03*
X32930000Y-21040000D03*
X32930000Y-18500000D03*
X32930000Y-15960000D03*
X32930000Y-13420000D03*
X32930000Y-10880000D03*
X10070000Y-10880000D03*
X10070000Y-13420000D03*
X10070000Y-15960000D03*
X10070000Y-18500000D03*
X10070000Y-21040000D03*
X10070000Y-23580000D03*
X10070000Y-26120000D03*
X10070000Y-28660000D03*
D31*
X37866000Y-11380000D03*
X37866000Y-13920000D03*
X62134000Y-12650000D03*
X37866000Y-16460000D03*
X62134000Y-15190000D03*
X37866000Y-19000000D03*
X62134000Y-17730000D03*
X37866000Y-21540000D03*
X62134000Y-20270000D03*
X37866000Y-24080000D03*
X62134000Y-22810000D03*
X37866000Y-26620000D03*
D32*
X46190000Y-9713000D03*
X48730000Y-9713000D03*
X51270000Y-9713000D03*
X53810000Y-9713000D03*
D33*
X29000000Y-11000000D03*
D34*
X18840000Y-11000000D03*
D35*
X37000000Y-8500000D03*
X38750000Y-8500000D03*
X37000000Y-6750000D03*
X38750000Y-6750000D03*
X18500000Y-14750000D03*
X18500000Y-17250000D03*
X51250000Y-31250000D03*
X19750000Y-25000000D03*
X19750000Y-22250000D03*
X12000000Y-22250000D03*
X79250000Y-5250000D03*
X37500000Y-2750000D03*
X39250000Y-2750000D03*
X39250000Y-1000000D03*
X37500000Y-1000000D03*
X44000000Y-24250000D03*
X51250000Y-21500000D03*
X54000000Y-19000000D03*
X39000000Y-33250000D03*
X75000000Y-35000000D03*
X57000000Y-28250000D03*
X62250000Y-27250000D03*
D36*
X93000000Y-16250000D02*
X93000000Y-13500000D01*
X93000000Y-13500000D02*
X91000000Y-11500000D01*
X94250000Y-11500000D02*
X91000000Y-11500000D01*
X91000000Y-11500000D02*
X86250000Y-6750000D01*
X72250000Y-5000000D02*
X74000000Y-6750000D01*
X74000000Y-6750000D02*
X86250000Y-6750000D01*
X71190000Y-2000000D02*
X71190000Y-3940000D01*
X72250000Y-5000000D02*
X74050000Y-5000000D01*
X71190000Y-3940000D02*
X72250000Y-5000000D01*
X34150000Y-7300000D02*
X31700000Y-7300000D01*
X23000000Y-11000000D02*
X18840000Y-11000000D01*
X25500000Y-8500000D02*
X23000000Y-11000000D01*
X30500000Y-8500000D02*
X25500000Y-8500000D01*
X31700000Y-7300000D02*
X30500000Y-8500000D01*
X37866000Y-16460000D02*
X36960000Y-16460000D01*
X36960000Y-16460000D02*
X35250000Y-14750000D01*
X35250000Y-14750000D02*
X35250000Y-10250000D01*
X35250000Y-10250000D02*
X37000000Y-8500000D01*
X18760000Y-11080000D02*
X18840000Y-11000000D01*
X38750000Y-8500000D02*
X37000000Y-8500000D01*
X37000000Y-6750000D02*
X38750000Y-6750000D01*
X38750000Y-7500000D02*
X37250000Y-7500000D01*
X37250000Y-7500000D02*
X37000000Y-7750000D01*
X37000000Y-8500000D02*
X37000000Y-7750000D01*
X34150000Y-7300000D02*
X36450000Y-7300000D01*
X36450000Y-7300000D02*
X37000000Y-6750000D01*
X38750000Y-6750000D02*
X38750000Y-7500000D01*
X38750000Y-7500000D02*
X38750000Y-8500000D01*
X37000000Y-7750000D02*
X36500000Y-7250000D01*
X78500000Y-9500000D02*
X82090000Y-9500000D01*
X82090000Y-9500000D02*
X84090000Y-11500000D01*
X84090000Y-11500000D02*
X87000000Y-11500000D01*
X87000000Y-11500000D02*
X89500000Y-14000000D01*
X89500000Y-14000000D02*
X89500000Y-20350000D01*
X89500000Y-20350000D02*
X93000000Y-23850000D01*
X3250000Y-9000000D02*
X3250000Y-6750000D01*
X3250000Y-6750000D02*
X5000000Y-5000000D01*
X3250000Y-9000000D02*
X3250000Y-33250000D01*
X3250000Y-33250000D02*
X5000000Y-35000000D01*
X96750000Y-31250000D02*
X96750000Y-33250000D01*
X96750000Y-33250000D02*
X95000000Y-35000000D01*
X96750000Y-31250000D02*
X96750000Y-6750000D01*
X96750000Y-6750000D02*
X95000000Y-5000000D01*
X23750000Y-17250000D02*
X23000000Y-17250000D01*
X20500000Y-14750000D02*
X18500000Y-14750000D01*
X23000000Y-17250000D02*
X20500000Y-14750000D01*
X29950000Y-14000000D02*
X29950000Y-15550000D01*
X28250000Y-17250000D02*
X23750000Y-17250000D01*
X23750000Y-17250000D02*
X18500000Y-17250000D01*
X29950000Y-15550000D02*
X28250000Y-17250000D01*
X19750000Y-31500000D02*
X50750000Y-31500000D01*
X51000000Y-31250000D02*
X51250000Y-31250000D01*
X50750000Y-31500000D02*
X51000000Y-31250000D01*
X19750000Y-25000000D02*
X19750000Y-31500000D01*
X19750000Y-31500000D02*
X19750000Y-39000000D01*
X58750000Y-39000000D02*
X52290000Y-39000000D01*
X52290000Y-39000000D02*
X51290000Y-38000000D01*
X51290000Y-38000000D02*
X51290000Y-35250000D01*
X5000000Y-35000000D02*
X9000000Y-39000000D01*
X91000000Y-39000000D02*
X95000000Y-35000000D01*
X58750000Y-39000000D02*
X91000000Y-39000000D01*
X55000000Y-35250000D02*
X58750000Y-39000000D01*
X45250000Y-35250000D02*
X51290000Y-35250000D01*
X51290000Y-35250000D02*
X55000000Y-35250000D01*
X41500000Y-39000000D02*
X45250000Y-35250000D01*
X9000000Y-39000000D02*
X19750000Y-39000000D01*
X19750000Y-39000000D02*
X41500000Y-39000000D01*
X73460000Y-16636000D02*
X73460000Y-18960000D01*
X77580000Y-20000000D02*
X78540000Y-20960000D01*
X74500000Y-20000000D02*
X77580000Y-20000000D01*
X73460000Y-18960000D02*
X74500000Y-20000000D01*
X78540000Y-23364000D02*
X78540000Y-20960000D01*
X82040000Y-17460000D02*
X84364000Y-17460000D01*
X78540000Y-20960000D02*
X82040000Y-17460000D01*
X78810000Y-3500000D02*
X78810000Y-4810000D01*
X78810000Y-4810000D02*
X79250000Y-5250000D01*
X95000000Y-5000000D02*
X91750000Y-1750000D01*
X91750000Y-1750000D02*
X79060000Y-1750000D01*
X79060000Y-1750000D02*
X78810000Y-2000000D01*
X75950000Y-5000000D02*
X77500000Y-5000000D01*
X78810000Y-3690000D02*
X78810000Y-3500000D01*
X78810000Y-3500000D02*
X78810000Y-2000000D01*
X77500000Y-5000000D02*
X78810000Y-3690000D01*
X24000000Y-1000000D02*
X9000000Y-1000000D01*
X9000000Y-1000000D02*
X5000000Y-5000000D01*
X34150000Y-2700000D02*
X31200000Y-2700000D01*
X31200000Y-2700000D02*
X29500000Y-1000000D01*
X37500000Y-1000000D02*
X29500000Y-1000000D01*
X29500000Y-1000000D02*
X24000000Y-1000000D01*
X24000000Y-1000000D02*
X21500000Y-3500000D01*
X46190000Y-9713000D02*
X46190000Y-5660000D01*
X46190000Y-5660000D02*
X47500000Y-4350000D01*
X32930000Y-13420000D02*
X30530000Y-13420000D01*
X30530000Y-13420000D02*
X29950000Y-14000000D01*
X39250000Y-1000000D02*
X37500000Y-1000000D01*
X39250000Y-2750000D02*
X37500000Y-2750000D01*
X39250000Y-1750000D02*
X36750000Y-1750000D01*
X34150000Y-2700000D02*
X35800000Y-2700000D01*
X35800000Y-2700000D02*
X36750000Y-1750000D01*
X37500000Y-2750000D02*
X35750000Y-2750000D01*
X39250000Y-1000000D02*
X39250000Y-1750000D01*
X39250000Y-1750000D02*
X39250000Y-2750000D01*
X36750000Y-1750000D02*
X37500000Y-1000000D01*
X17500000Y-23500000D02*
X17150000Y-23500000D01*
X17150000Y-23500000D02*
X16500000Y-22850000D01*
X27150000Y-23500000D02*
X17500000Y-23500000D01*
X17500000Y-23500000D02*
X15850000Y-23500000D01*
X27150000Y-21000000D02*
X16500000Y-21000000D01*
X16500000Y-20000000D02*
X16500000Y-21000000D01*
X16500000Y-21000000D02*
X16500000Y-22850000D01*
X16500000Y-22850000D02*
X15850000Y-23500000D01*
X16500000Y-6000000D02*
X16500000Y-20000000D01*
X16500000Y-20000000D02*
X16500000Y-20350000D01*
X16500000Y-20350000D02*
X15850000Y-21000000D01*
X43500000Y-23750000D02*
X43500000Y-11500000D01*
X44000000Y-24250000D02*
X43500000Y-23750000D01*
X34150000Y-5000000D02*
X41000000Y-5000000D01*
X41000000Y-5000000D02*
X43500000Y-7500000D01*
X43500000Y-7500000D02*
X43500000Y-11500000D01*
X48730000Y-11520000D02*
X48730000Y-9713000D01*
X43500000Y-11500000D02*
X44750000Y-12750000D01*
X44750000Y-12750000D02*
X47500000Y-12750000D01*
X47500000Y-12750000D02*
X48730000Y-11520000D01*
X14500000Y-6000000D02*
X16500000Y-6000000D01*
X16500000Y-6000000D02*
X21500000Y-6000000D01*
X34150000Y-5000000D02*
X27850000Y-5000000D01*
X27850000Y-5000000D02*
X26850000Y-6000000D01*
X26850000Y-6000000D02*
X21500000Y-6000000D01*
D37*
X67500000Y-14010000D02*
X67500000Y-12250000D01*
X67500000Y-12250000D02*
X67270000Y-12020000D01*
X67270000Y-12020000D02*
X67270000Y-10270000D01*
D36*
X73420000Y-9500000D02*
X75960000Y-9500000D01*
X73420000Y-9500000D02*
X71250000Y-9500000D01*
X70750000Y-9000000D02*
X68540000Y-9000000D01*
X71250000Y-9500000D02*
X70750000Y-9000000D01*
D37*
X67500000Y-29250000D02*
X37750000Y-29250000D01*
X34210000Y-15960000D02*
X36000000Y-17750000D01*
X36000000Y-17750000D02*
X36000000Y-27500000D01*
X36000000Y-27500000D02*
X37750000Y-29250000D01*
X34210000Y-15960000D02*
X32930000Y-15960000D01*
X32930000Y-18500000D02*
X34000000Y-18500000D01*
X85260000Y-14260000D02*
X81500000Y-14260000D01*
X86750000Y-15750000D02*
X85260000Y-14260000D01*
X86750000Y-30000000D02*
X86750000Y-15750000D01*
X82750000Y-34000000D02*
X86750000Y-30000000D01*
X67750000Y-34000000D02*
X82750000Y-34000000D01*
X64000000Y-30250000D02*
X67750000Y-34000000D01*
X37250000Y-30250000D02*
X64000000Y-30250000D01*
X35000000Y-28000000D02*
X37250000Y-30250000D01*
X35000000Y-19500000D02*
X35000000Y-28000000D01*
X34000000Y-18500000D02*
X35000000Y-19500000D01*
X5500000Y-16000000D02*
X7750000Y-16000000D01*
X9040000Y-21040000D02*
X10070000Y-21040000D01*
X8500000Y-20500000D02*
X9040000Y-21040000D01*
X8500000Y-16750000D02*
X8500000Y-20500000D01*
X7750000Y-16000000D02*
X8500000Y-16750000D01*
X13650000Y-21000000D02*
X10110000Y-21000000D01*
X10110000Y-21000000D02*
X10070000Y-21040000D01*
X5500000Y-18540000D02*
X6540000Y-18540000D01*
X8580000Y-23580000D02*
X10070000Y-23580000D01*
X7250000Y-22250000D02*
X8580000Y-23580000D01*
X7250000Y-19250000D02*
X7250000Y-22250000D01*
X6540000Y-18540000D02*
X7250000Y-19250000D01*
X10070000Y-23580000D02*
X13570000Y-23580000D01*
X13570000Y-23580000D02*
X13650000Y-23500000D01*
X32930000Y-23580000D02*
X29430000Y-23580000D01*
X29430000Y-23580000D02*
X29350000Y-23500000D01*
X51270000Y-9713000D02*
X51270000Y-21480000D01*
X51270000Y-21480000D02*
X51250000Y-21500000D01*
X32930000Y-21040000D02*
X29390000Y-21040000D01*
X29390000Y-21040000D02*
X29350000Y-21000000D01*
X53810000Y-9713000D02*
X53810000Y-18810000D01*
X53810000Y-18810000D02*
X54000000Y-19000000D01*
X65500000Y-33250000D02*
X39000000Y-33250000D01*
X67250000Y-35000000D02*
X65500000Y-33250000D01*
X75000000Y-35000000D02*
X67250000Y-35000000D01*
X76000000Y-16636000D02*
X76000000Y-15000000D01*
X60250000Y-25000000D02*
X57000000Y-28250000D01*
X63500000Y-25000000D02*
X60250000Y-25000000D01*
X66000000Y-22500000D02*
X63500000Y-25000000D01*
X66000000Y-20000000D02*
X66000000Y-22500000D01*
X71750000Y-14250000D02*
X66000000Y-20000000D01*
X75250000Y-14250000D02*
X71750000Y-14250000D01*
X76000000Y-15000000D02*
X75250000Y-14250000D01*
X76000000Y-26000000D02*
X74750000Y-27250000D01*
X74750000Y-27250000D02*
X62250000Y-27250000D01*
X76000000Y-23364000D02*
X76000000Y-26000000D01*
D36*
X32930000Y-10880000D02*
X29120000Y-10880000D01*
X29120000Y-10880000D02*
X29000000Y-11000000D01*
X28050000Y-14000000D02*
X28050000Y-11950000D01*
X28050000Y-11950000D02*
X29000000Y-11000000D01*
M02*
