G04 #@! TF.FileFunction,Legend,Top*
%FSLAX46Y46*%
G04 Gerber Fmt 4.6, Leading zero omitted, Abs format (unit mm)*
G04 Created by KiCad (PCBNEW 4.0.7) date 08/13/18 20:02:33*
%MOMM*%
%LPD*%
G01*
G04 APERTURE LIST*
%ADD10C,0.100000*%
%ADD11C,0.120000*%
%ADD12C,0.150000*%
G04 APERTURE END LIST*
D10*
D11*
X40900000Y-4850000D02*
X40900000Y-4150000D01*
X42100000Y-4150000D02*
X42100000Y-4850000D01*
X54350000Y1030000D02*
X45650000Y1030000D01*
X54350000Y-5380000D02*
X45650000Y-5380000D01*
X45650000Y-5380000D02*
X45650000Y1030000D01*
X45650000Y-200000D02*
X54350000Y-200000D01*
X54350000Y1030000D02*
X54350000Y-5380000D01*
X52620000Y-39330000D02*
X52620000Y-36670000D01*
X50020000Y-39330000D02*
X52620000Y-39330000D01*
X50020000Y-36670000D02*
X52620000Y-36670000D01*
X50020000Y-39330000D02*
X50020000Y-36670000D01*
X48750000Y-39330000D02*
X47420000Y-39330000D01*
X47420000Y-39330000D02*
X47420000Y-38000000D01*
X66190000Y-24840000D02*
X68810000Y-24840000D01*
X68810000Y-24840000D02*
X68810000Y-18420000D01*
X68810000Y-18420000D02*
X66190000Y-18420000D01*
X66190000Y-18420000D02*
X66190000Y-24840000D01*
X67500000Y-28270000D02*
X67500000Y-24840000D01*
X67500000Y-14990000D02*
X67500000Y-18420000D01*
X4170000Y-24950000D02*
X6830000Y-24950000D01*
X4170000Y-17270000D02*
X4170000Y-24950000D01*
X6830000Y-17270000D02*
X6830000Y-24950000D01*
X4170000Y-17270000D02*
X6830000Y-17270000D01*
X4170000Y-16000000D02*
X4170000Y-14670000D01*
X4170000Y-14670000D02*
X5500000Y-14670000D01*
D12*
X93508000Y-20000000D02*
G75*
G03X93508000Y-20000000I-508000J0D01*
G01*
X97572000Y-20000000D02*
G75*
G03X97572000Y-20000000I-4572000J0D01*
G01*
X82840000Y-20000000D02*
X82840000Y-25080000D01*
X82840000Y-25080000D02*
X98080000Y-25080000D01*
X98080000Y-25080000D02*
X98080000Y-14920000D01*
X98080000Y-14920000D02*
X82840000Y-14920000D01*
X82840000Y-20000000D02*
X82840000Y-14920000D01*
D11*
X83034000Y-23870000D02*
X85694000Y-23870000D01*
X83034000Y-18730000D02*
X83034000Y-23870000D01*
X85694000Y-18730000D02*
X85694000Y-23870000D01*
X83034000Y-18730000D02*
X85694000Y-18730000D01*
X83034000Y-17460000D02*
X83034000Y-16130000D01*
X83034000Y-16130000D02*
X84364000Y-16130000D01*
D12*
X76508000Y-8000000D02*
G75*
G03X76508000Y-8000000I-508000J0D01*
G01*
X80572000Y-8000000D02*
G75*
G03X80572000Y-8000000I-4572000J0D01*
G01*
X76000000Y-18160000D02*
X81080000Y-18160000D01*
X81080000Y-18160000D02*
X81080000Y-2920000D01*
X81080000Y-2920000D02*
X70920000Y-2920000D01*
X70920000Y-2920000D02*
X70920000Y-18160000D01*
X76000000Y-18160000D02*
X70920000Y-18160000D01*
D11*
X79870000Y-17966000D02*
X79870000Y-15306000D01*
X74730000Y-17966000D02*
X79870000Y-17966000D01*
X74730000Y-15306000D02*
X79870000Y-15306000D01*
X74730000Y-17966000D02*
X74730000Y-15306000D01*
X73460000Y-17966000D02*
X72130000Y-17966000D01*
X72130000Y-17966000D02*
X72130000Y-16636000D01*
D12*
X76508000Y-32000000D02*
G75*
G03X76508000Y-32000000I-508000J0D01*
G01*
X80572000Y-32000000D02*
G75*
G03X80572000Y-32000000I-4572000J0D01*
G01*
X76000000Y-21840000D02*
X70920000Y-21840000D01*
X70920000Y-21840000D02*
X70920000Y-37080000D01*
X70920000Y-37080000D02*
X81080000Y-37080000D01*
X81080000Y-37080000D02*
X81080000Y-21840000D01*
X76000000Y-21840000D02*
X81080000Y-21840000D01*
D11*
X72130000Y-22034000D02*
X72130000Y-24694000D01*
X77270000Y-22034000D02*
X72130000Y-22034000D01*
X77270000Y-24694000D02*
X72130000Y-24694000D01*
X77270000Y-22034000D02*
X77270000Y-24694000D01*
X78540000Y-22034000D02*
X79870000Y-22034000D01*
X79870000Y-22034000D02*
X79870000Y-23364000D01*
D10*
X10682528Y-2222772D02*
X16493820Y-2222772D01*
X16493820Y-2222772D02*
X16520151Y-3506205D01*
X16520151Y-3506205D02*
X25351373Y-3499517D01*
X25351373Y-3499517D02*
X25349397Y-2297264D01*
X25349397Y-2297264D02*
X34430193Y-2323342D01*
X34430193Y-2323342D02*
X34416195Y-33493493D01*
X34416195Y-33493493D02*
X34183384Y-34096286D01*
X34183384Y-34096286D02*
X33899901Y-34641167D01*
X33899901Y-34641167D02*
X33565253Y-35127577D01*
X33565253Y-35127577D02*
X33178953Y-35554952D01*
X33178953Y-35554952D02*
X32740512Y-35922741D01*
X32740512Y-35922741D02*
X32249440Y-36230377D01*
X32249440Y-36230377D02*
X31705250Y-36477310D01*
X31705250Y-36477310D02*
X31107453Y-36662976D01*
X31107453Y-36662976D02*
X12069540Y-36691734D01*
X12069540Y-36691734D02*
X11450176Y-36457741D01*
X11450176Y-36457741D02*
X10861982Y-36173258D01*
X10861982Y-36173258D02*
X10318555Y-35823743D01*
X10318555Y-35823743D02*
X9833497Y-35394658D01*
X9833497Y-35394658D02*
X9420405Y-34871460D01*
X9420405Y-34871460D02*
X9092878Y-34239613D01*
X9092878Y-34239613D02*
X8864518Y-33484575D01*
X8864518Y-33484575D02*
X8748922Y-32591807D01*
X8748922Y-32591807D02*
X8723974Y-10036715D01*
X8723974Y-10036715D02*
X10667520Y-9075819D01*
X10667520Y-9075819D02*
X10697314Y-2267476D01*
X24679650Y-8448549D02*
X17540069Y-8448549D01*
X17540069Y-8448549D02*
X17540069Y-2634812D01*
X17540069Y-2634812D02*
X24679650Y-2634812D01*
X24679650Y-2634812D02*
X24679650Y-8448549D01*
X10756400Y-9097651D02*
X12308622Y-9097651D01*
X12308622Y-9097651D02*
X12837789Y-8568485D01*
X12837789Y-8568485D02*
X14090150Y-8568485D01*
X14090150Y-8568485D02*
X14090150Y-3506124D01*
X14090150Y-3506124D02*
X12802511Y-3506124D01*
X12802511Y-3506124D02*
X12273344Y-3012235D01*
X12273344Y-3012235D02*
X10703483Y-3012235D01*
X10703483Y-3012235D02*
X10756400Y-9097651D01*
X10721122Y-7016262D02*
X10068483Y-7016262D01*
X10068483Y-7016262D02*
X10068483Y-5023068D01*
X10068483Y-5023068D02*
X10685844Y-5023068D01*
D12*
X60000000Y-13583000D02*
X60000000Y-26447000D01*
X40000000Y-13583000D02*
X40000000Y-26447000D01*
X50500000Y-20015000D02*
G75*
G03X50500000Y-20015000I-500000J0D01*
G01*
X40000000Y-26447000D02*
X60000000Y-26447000D01*
X40000000Y-13583000D02*
X60000000Y-13583000D01*
X54572000Y-8189000D02*
X50000000Y-8189000D01*
X50000000Y-8189000D02*
X36250000Y-8189000D01*
X36250000Y-8189000D02*
X36250000Y-36013000D01*
X36250000Y-36013000D02*
X63750000Y-36013000D01*
X63750000Y-36013000D02*
X63750000Y-8189000D01*
X63750000Y-8189000D02*
X54572000Y-8189000D01*
X45090000Y-8213000D02*
X54910000Y-8213000D01*
X54910000Y-8213000D02*
X54910000Y-11213000D01*
X54910000Y-11213000D02*
X45090000Y-11213000D01*
X45090000Y-11213000D02*
X45090000Y-8213000D01*
X47460000Y-8213000D02*
X47460000Y-11213000D01*
X40607143Y-4666666D02*
X40654762Y-4714285D01*
X40702381Y-4857142D01*
X40702381Y-4952380D01*
X40654762Y-5095238D01*
X40559524Y-5190476D01*
X40464286Y-5238095D01*
X40273810Y-5285714D01*
X40130952Y-5285714D01*
X39940476Y-5238095D01*
X39845238Y-5190476D01*
X39750000Y-5095238D01*
X39702381Y-4952380D01*
X39702381Y-4857142D01*
X39750000Y-4714285D01*
X39797619Y-4666666D01*
X40702381Y-3714285D02*
X40702381Y-4285714D01*
X40702381Y-4000000D02*
X39702381Y-4000000D01*
X39845238Y-4095238D01*
X39940476Y-4190476D01*
X39988095Y-4285714D01*
X49666667Y-5692381D02*
X49666667Y-6406667D01*
X49619047Y-6549524D01*
X49523809Y-6644762D01*
X49380952Y-6692381D01*
X49285714Y-6692381D01*
X50619048Y-5692381D02*
X50142857Y-5692381D01*
X50095238Y-6168571D01*
X50142857Y-6120952D01*
X50238095Y-6073333D01*
X50476191Y-6073333D01*
X50571429Y-6120952D01*
X50619048Y-6168571D01*
X50666667Y-6263810D01*
X50666667Y-6501905D01*
X50619048Y-6597143D01*
X50571429Y-6644762D01*
X50476191Y-6692381D01*
X50238095Y-6692381D01*
X50142857Y-6644762D01*
X50095238Y-6597143D01*
X45833334Y-38452381D02*
X45500000Y-37976190D01*
X45261905Y-38452381D02*
X45261905Y-37452381D01*
X45642858Y-37452381D01*
X45738096Y-37500000D01*
X45785715Y-37547619D01*
X45833334Y-37642857D01*
X45833334Y-37785714D01*
X45785715Y-37880952D01*
X45738096Y-37928571D01*
X45642858Y-37976190D01*
X45261905Y-37976190D01*
X46785715Y-38452381D02*
X46214286Y-38452381D01*
X46500000Y-38452381D02*
X46500000Y-37452381D01*
X46404762Y-37595238D01*
X46309524Y-37690476D01*
X46214286Y-37738095D01*
X65642381Y-21796666D02*
X65166190Y-22130000D01*
X65642381Y-22368095D02*
X64642381Y-22368095D01*
X64642381Y-21987142D01*
X64690000Y-21891904D01*
X64737619Y-21844285D01*
X64832857Y-21796666D01*
X64975714Y-21796666D01*
X65070952Y-21844285D01*
X65118571Y-21891904D01*
X65166190Y-21987142D01*
X65166190Y-22368095D01*
X64737619Y-21415714D02*
X64690000Y-21368095D01*
X64642381Y-21272857D01*
X64642381Y-21034761D01*
X64690000Y-20939523D01*
X64737619Y-20891904D01*
X64832857Y-20844285D01*
X64928095Y-20844285D01*
X65070952Y-20891904D01*
X65642381Y-21463333D01*
X65642381Y-20844285D01*
X4738095Y-13122381D02*
X4738095Y-13931905D01*
X4785714Y-14027143D01*
X4833333Y-14074762D01*
X4928571Y-14122381D01*
X5119048Y-14122381D01*
X5214286Y-14074762D01*
X5261905Y-14027143D01*
X5309524Y-13931905D01*
X5309524Y-13122381D01*
X5690476Y-13122381D02*
X6309524Y-13122381D01*
X5976190Y-13503333D01*
X6119048Y-13503333D01*
X6214286Y-13550952D01*
X6261905Y-13598571D01*
X6309524Y-13693810D01*
X6309524Y-13931905D01*
X6261905Y-14027143D01*
X6214286Y-14074762D01*
X6119048Y-14122381D01*
X5833333Y-14122381D01*
X5738095Y-14074762D01*
X5690476Y-14027143D01*
X80768381Y-20761905D02*
X81577905Y-20761905D01*
X81673143Y-20714286D01*
X81720762Y-20666667D01*
X81768381Y-20571429D01*
X81768381Y-20380952D01*
X81720762Y-20285714D01*
X81673143Y-20238095D01*
X81577905Y-20190476D01*
X80768381Y-20190476D01*
X81101714Y-19285714D02*
X81768381Y-19285714D01*
X80720762Y-19523810D02*
X81435048Y-19761905D01*
X81435048Y-19142857D01*
X75238095Y-18702381D02*
X75238095Y-19511905D01*
X75285714Y-19607143D01*
X75333333Y-19654762D01*
X75428571Y-19702381D01*
X75619048Y-19702381D01*
X75714286Y-19654762D01*
X75761905Y-19607143D01*
X75809524Y-19511905D01*
X75809524Y-18702381D01*
X76761905Y-18702381D02*
X76285714Y-18702381D01*
X76238095Y-19178571D01*
X76285714Y-19130952D01*
X76380952Y-19083333D01*
X76619048Y-19083333D01*
X76714286Y-19130952D01*
X76761905Y-19178571D01*
X76809524Y-19273810D01*
X76809524Y-19511905D01*
X76761905Y-19607143D01*
X76714286Y-19654762D01*
X76619048Y-19702381D01*
X76380952Y-19702381D01*
X76285714Y-19654762D01*
X76238095Y-19607143D01*
X75238095Y-20452381D02*
X75238095Y-21261905D01*
X75285714Y-21357143D01*
X75333333Y-21404762D01*
X75428571Y-21452381D01*
X75619048Y-21452381D01*
X75714286Y-21404762D01*
X75761905Y-21357143D01*
X75809524Y-21261905D01*
X75809524Y-20452381D01*
X76714286Y-20452381D02*
X76523809Y-20452381D01*
X76428571Y-20500000D01*
X76380952Y-20547619D01*
X76285714Y-20690476D01*
X76238095Y-20880952D01*
X76238095Y-21261905D01*
X76285714Y-21357143D01*
X76333333Y-21404762D01*
X76428571Y-21452381D01*
X76619048Y-21452381D01*
X76714286Y-21404762D01*
X76761905Y-21357143D01*
X76809524Y-21261905D01*
X76809524Y-21023810D01*
X76761905Y-20928571D01*
X76714286Y-20880952D01*
X76619048Y-20833333D01*
X76428571Y-20833333D01*
X76333333Y-20880952D01*
X76285714Y-20928571D01*
X76238095Y-21023810D01*
X20988095Y-36952381D02*
X20988095Y-37761905D01*
X21035714Y-37857143D01*
X21083333Y-37904762D01*
X21178571Y-37952381D01*
X21369048Y-37952381D01*
X21464286Y-37904762D01*
X21511905Y-37857143D01*
X21559524Y-37761905D01*
X21559524Y-36952381D01*
X21940476Y-36952381D02*
X22607143Y-36952381D01*
X22178571Y-37952381D01*
X14642857Y-32097143D02*
X15357143Y-35097143D01*
X15928572Y-32954286D01*
X16500000Y-35097143D01*
X17214286Y-32097143D01*
X19500000Y-34954286D02*
X19214286Y-35097143D01*
X18642857Y-35097143D01*
X18357143Y-34954286D01*
X18214286Y-34668571D01*
X18214286Y-33525714D01*
X18357143Y-33240000D01*
X18642857Y-33097143D01*
X19214286Y-33097143D01*
X19500000Y-33240000D01*
X19642857Y-33525714D01*
X19642857Y-33811429D01*
X18214286Y-34097143D01*
X20928572Y-35097143D02*
X20928572Y-32097143D01*
X21928572Y-34240000D01*
X22928572Y-32097143D01*
X22928572Y-35097143D01*
X24785714Y-35097143D02*
X24500000Y-34954286D01*
X24357143Y-34811429D01*
X24214286Y-34525714D01*
X24214286Y-33668571D01*
X24357143Y-33382857D01*
X24500000Y-33240000D01*
X24785714Y-33097143D01*
X25214286Y-33097143D01*
X25500000Y-33240000D01*
X25642857Y-33382857D01*
X25785714Y-33668571D01*
X25785714Y-34525714D01*
X25642857Y-34811429D01*
X25500000Y-34954286D01*
X25214286Y-35097143D01*
X24785714Y-35097143D01*
X26928572Y-34954286D02*
X27214286Y-35097143D01*
X27785714Y-35097143D01*
X28071429Y-34954286D01*
X28214286Y-34668571D01*
X28214286Y-34525714D01*
X28071429Y-34240000D01*
X27785714Y-34097143D01*
X27357143Y-34097143D01*
X27071429Y-33954286D01*
X26928572Y-33668571D01*
X26928572Y-33525714D01*
X27071429Y-33240000D01*
X27357143Y-33097143D01*
X27785714Y-33097143D01*
X28071429Y-33240000D01*
X49085714Y-11755857D02*
X49085714Y-12727286D01*
X49142857Y-12841571D01*
X49200000Y-12898714D01*
X49314286Y-12955857D01*
X49542857Y-12955857D01*
X49657143Y-12898714D01*
X49714286Y-12841571D01*
X49771429Y-12727286D01*
X49771429Y-11755857D01*
X50514286Y-12270143D02*
X50400000Y-12213000D01*
X50342857Y-12155857D01*
X50285714Y-12041571D01*
X50285714Y-11984429D01*
X50342857Y-11870143D01*
X50400000Y-11813000D01*
X50514286Y-11755857D01*
X50742857Y-11755857D01*
X50857143Y-11813000D01*
X50914286Y-11870143D01*
X50971429Y-11984429D01*
X50971429Y-12041571D01*
X50914286Y-12155857D01*
X50857143Y-12213000D01*
X50742857Y-12270143D01*
X50514286Y-12270143D01*
X50400000Y-12327286D01*
X50342857Y-12384429D01*
X50285714Y-12498714D01*
X50285714Y-12727286D01*
X50342857Y-12841571D01*
X50400000Y-12898714D01*
X50514286Y-12955857D01*
X50742857Y-12955857D01*
X50857143Y-12898714D01*
X50914286Y-12841571D01*
X50971429Y-12727286D01*
X50971429Y-12498714D01*
X50914286Y-12384429D01*
X50857143Y-12327286D01*
X50742857Y-12270143D01*
M02*
