%MOIN*%
%OFA0B0*%
%FSLAX46Y46*%
%IPPOS*%
%LPD*%
%ADD10C,0.005905511811023622*%
%ADD11C,0.0047244094488188976*%
%ADD22C,0.005905511811023622*%
%ADD23C,0.0047244094488188976*%
%LPD*%
D10*
X0003682725Y0002323695D02*
X0003684600Y0002321820D01*
X0003690224Y0002319945D01*
X0003693974Y0002319945D01*
X0003699598Y0002321820D01*
X0003703348Y0002325569D01*
X0003705223Y0002329319D01*
X0003707097Y0002336818D01*
X0003707097Y0002342442D01*
X0003705223Y0002349941D01*
X0003703348Y0002353691D01*
X0003699598Y0002357440D01*
X0003693974Y0002359315D01*
X0003690224Y0002359315D01*
X0003684600Y0002357440D01*
X0003682725Y0002355566D01*
X0003647105Y0002319945D02*
X0003665852Y0002319945D01*
X0003665852Y0002359315D01*
X0003633981Y0002319945D02*
X0003633981Y0002359315D01*
X0003611484Y0002319945D02*
X0003628357Y0002342442D01*
X0003611484Y0002359315D02*
X0003633981Y0002336818D01*
X0003699598Y0002254985D02*
X0003699598Y0002294355D01*
X0003690224Y0002294355D01*
X0003684600Y0002292480D01*
X0003680851Y0002288730D01*
X0003678976Y0002284981D01*
X0003677101Y0002277482D01*
X0003677101Y0002271857D01*
X0003678976Y0002264358D01*
X0003680851Y0002260609D01*
X0003684600Y0002256859D01*
X0003690224Y0002254985D01*
X0003699598Y0002254985D01*
X0003660228Y0002254985D02*
X0003660228Y0002294355D01*
X0003633981Y0002294355D02*
X0003626482Y0002294355D01*
X0003622733Y0002292480D01*
X0003618983Y0002288730D01*
X0003617109Y0002281231D01*
X0003617109Y0002268108D01*
X0003618983Y0002260609D01*
X0003622733Y0002256859D01*
X0003626482Y0002254985D01*
X0003633981Y0002254985D01*
X0003637731Y0002256859D01*
X0003641481Y0002260609D01*
X0003643355Y0002268108D01*
X0003643355Y0002281231D01*
X0003641481Y0002288730D01*
X0003637731Y0002292480D01*
X0003633981Y0002294355D01*
X0003711784Y0002229394D02*
X0003698661Y0002190024D01*
X0003685538Y0002229394D01*
X0003649917Y0002193773D02*
X0003651792Y0002191899D01*
X0003657416Y0002190024D01*
X0003661166Y0002190024D01*
X0003666790Y0002191899D01*
X0003670539Y0002195648D01*
X0003672414Y0002199398D01*
X0003674289Y0002206897D01*
X0003674289Y0002212521D01*
X0003672414Y0002220020D01*
X0003670539Y0002223770D01*
X0003666790Y0002227519D01*
X0003661166Y0002229394D01*
X0003657416Y0002229394D01*
X0003651792Y0002227519D01*
X0003649917Y0002225644D01*
X0003610547Y0002193773D02*
X0003612422Y0002191899D01*
X0003618046Y0002190024D01*
X0003621796Y0002190024D01*
X0003627420Y0002191899D01*
X0003631169Y0002195648D01*
X0003633044Y0002199398D01*
X0003634919Y0002206897D01*
X0003634919Y0002212521D01*
X0003633044Y0002220020D01*
X0003631169Y0002223770D01*
X0003627420Y0002227519D01*
X0003621796Y0002229394D01*
X0003618046Y0002229394D01*
X0003612422Y0002227519D01*
X0003610547Y0002225644D01*
X0003689287Y0002162559D02*
X0003693037Y0002164433D01*
X0003698661Y0002164433D01*
X0003704285Y0002162559D01*
X0003708035Y0002158809D01*
X0003709910Y0002155060D01*
X0003711784Y0002147560D01*
X0003711784Y0002141936D01*
X0003709910Y0002134437D01*
X0003708035Y0002130688D01*
X0003704285Y0002126938D01*
X0003698661Y0002125063D01*
X0003694911Y0002125063D01*
X0003689287Y0002126938D01*
X0003687412Y0002128813D01*
X0003687412Y0002141936D01*
X0003694911Y0002141936D01*
X0003670539Y0002125063D02*
X0003670539Y0002164433D01*
X0003648042Y0002125063D01*
X0003648042Y0002164433D01*
X0003629295Y0002125063D02*
X0003629295Y0002164433D01*
X0003619921Y0002164433D01*
X0003614296Y0002162559D01*
X0003610547Y0002158809D01*
X0003608672Y0002155060D01*
X0003606797Y0002147560D01*
X0003606797Y0002141936D01*
X0003608672Y0002134437D01*
X0003610547Y0002130688D01*
X0003614296Y0002126938D01*
X0003619921Y0002125063D01*
X0003629295Y0002125063D01*
D11*
X0003119685Y0002429291D02*
X0003119685Y0002371811D01*
X0003244094Y0002429291D02*
X0003244094Y0002304881D01*
X0003244094Y0002429291D02*
X0003207480Y0002429291D01*
X0003119685Y0002429291D02*
X0003156299Y0002429291D01*
D10*
X0001679921Y0002199685D02*
X0002270472Y0002199685D01*
X0002270472Y0002199685D02*
X0002270472Y0001727244D01*
X0002270472Y0001727244D02*
X0001679921Y0001727244D01*
X0001679921Y0001727244D02*
X0001679921Y0002199685D01*
X0001916141Y0001805984D02*
X0001916141Y0001884724D01*
X0001916141Y0001884724D02*
X0001994881Y0001884724D01*
X0001994881Y0001884724D02*
X0001994881Y0001805984D01*
X0001994881Y0001805984D02*
X0001916141Y0001805984D01*
X0001562559Y0003163661D02*
X0001616692Y0003163661D01*
X0001562559Y0002765039D02*
X0001399173Y0002765039D01*
X0001562559Y0003164645D02*
X0001399173Y0003164645D01*
X0001562559Y0002765039D02*
X0001562559Y0002769173D01*
X0001399173Y0002765039D02*
X0001399173Y0002769173D01*
X0001399173Y0003164645D02*
X0001399173Y0003160511D01*
X0001562559Y0003164645D02*
X0001562559Y0003163661D01*
D11*
X0001935669Y0002747086D02*
X0001896299Y0002747086D01*
X0001896299Y0002693543D02*
X0001935669Y0002693543D01*
X0000855669Y0002374094D02*
X0000855669Y0002346535D01*
X0000902913Y0002346535D02*
X0000902913Y0002374094D01*
X0003162519Y0002710787D02*
X0003162519Y0002769842D01*
X0003132992Y0002740314D02*
X0003192047Y0002740314D01*
X0003537755Y0002729330D02*
X0003537755Y0002751299D01*
X0003536181Y0002713858D02*
X0003536181Y0002766771D01*
X0003534606Y0002704370D02*
X0003534606Y0002776259D01*
X0003533031Y0002696850D02*
X0003533031Y0002783779D01*
X0003531456Y0002690511D02*
X0003531456Y0002790118D01*
X0003529881Y0002684921D02*
X0003529881Y0002795708D01*
X0003528307Y0002679842D02*
X0003528307Y0002800787D01*
X0003526732Y0002675196D02*
X0003526732Y0002805433D01*
X0003525157Y0002670905D02*
X0003525157Y0002809724D01*
X0003523582Y0002666850D02*
X0003523582Y0002813779D01*
X0003522007Y0002663070D02*
X0003522007Y0002817559D01*
X0003520433Y0002659488D02*
X0003520433Y0002821141D01*
X0003518858Y0002656062D02*
X0003518858Y0002824566D01*
X0003517283Y0002652834D02*
X0003517283Y0002827795D01*
X0003515708Y0002649724D02*
X0003515708Y0002830905D01*
X0003514133Y0002646732D02*
X0003514133Y0002833897D01*
X0003512559Y0002643897D02*
X0003512559Y0002836732D01*
X0003510984Y0002641141D02*
X0003510984Y0002839488D01*
X0003509409Y0002638464D02*
X0003509409Y0002842165D01*
X0003507834Y0002635905D02*
X0003507834Y0002844724D01*
X0003506259Y0002633425D02*
X0003506259Y0002847204D01*
X0003504685Y0002630984D02*
X0003504685Y0002849645D01*
X0003503110Y0002628661D02*
X0003503110Y0002851968D01*
X0003501535Y0002626377D02*
X0003501535Y0002854251D01*
X0003499960Y0002624212D02*
X0003499960Y0002856417D01*
X0003498385Y0002622047D02*
X0003498385Y0002858582D01*
X0003496811Y0002619960D02*
X0003496811Y0002860669D01*
X0003495236Y0002617952D02*
X0003495236Y0002862677D01*
X0003493661Y0002615984D02*
X0003493661Y0002864645D01*
X0003492086Y0002614055D02*
X0003492086Y0002866574D01*
X0003490511Y0002612165D02*
X0003490511Y0002868464D01*
X0003488937Y0002610314D02*
X0003488937Y0002870314D01*
X0003487362Y0002608543D02*
X0003487362Y0002872086D01*
X0003485787Y0002606810D02*
X0003485787Y0002873818D01*
X0003484212Y0002605078D02*
X0003484212Y0002875551D01*
X0003482637Y0002603425D02*
X0003482637Y0002877204D01*
X0003481062Y0002786811D02*
X0003481062Y0002878818D01*
X0003481062Y0002601811D02*
X0003481062Y0002693818D01*
X0003479488Y0002786811D02*
X0003479488Y0002880433D01*
X0003479488Y0002600196D02*
X0003479488Y0002693818D01*
X0003477913Y0002786811D02*
X0003477913Y0002881968D01*
X0003477913Y0002598661D02*
X0003477913Y0002693818D01*
X0003476338Y0002786811D02*
X0003476338Y0002883503D01*
X0003476338Y0002597125D02*
X0003476338Y0002693818D01*
X0003474763Y0002786811D02*
X0003474763Y0002885000D01*
X0003474763Y0002595629D02*
X0003474763Y0002693818D01*
X0003473188Y0002786811D02*
X0003473188Y0002886456D01*
X0003473188Y0002594173D02*
X0003473188Y0002693818D01*
X0003471614Y0002786811D02*
X0003471614Y0002887874D01*
X0003471614Y0002592755D02*
X0003471614Y0002693818D01*
X0003470039Y0002786811D02*
X0003470039Y0002889291D01*
X0003470039Y0002591338D02*
X0003470039Y0002693818D01*
X0003468464Y0002786811D02*
X0003468464Y0002890669D01*
X0003468464Y0002589960D02*
X0003468464Y0002693818D01*
X0003466889Y0002786811D02*
X0003466889Y0002892007D01*
X0003466889Y0002588622D02*
X0003466889Y0002693818D01*
X0003465314Y0002786811D02*
X0003465314Y0002893307D01*
X0003465314Y0002587322D02*
X0003465314Y0002693818D01*
X0003463740Y0002786811D02*
X0003463740Y0002894606D01*
X0003463740Y0002586023D02*
X0003463740Y0002693818D01*
X0003462165Y0002786811D02*
X0003462165Y0002895866D01*
X0003462165Y0002584763D02*
X0003462165Y0002693818D01*
X0003460590Y0002786811D02*
X0003460590Y0002897086D01*
X0003460590Y0002583543D02*
X0003460590Y0002693818D01*
X0003459015Y0002786811D02*
X0003459015Y0002898307D01*
X0003459015Y0002582322D02*
X0003459015Y0002693818D01*
X0003457440Y0002786811D02*
X0003457440Y0002899488D01*
X0003457440Y0002581141D02*
X0003457440Y0002693818D01*
X0003455866Y0002786811D02*
X0003455866Y0002900629D01*
X0003455866Y0002580000D02*
X0003455866Y0002693818D01*
X0003454291Y0002786811D02*
X0003454291Y0002901771D01*
X0003454291Y0002578858D02*
X0003454291Y0002693818D01*
X0003452716Y0002786811D02*
X0003452716Y0002902913D01*
X0003452716Y0002577716D02*
X0003452716Y0002693818D01*
X0003451141Y0002786811D02*
X0003451141Y0002903976D01*
X0003451141Y0002576653D02*
X0003451141Y0002693818D01*
X0003449566Y0002786811D02*
X0003449566Y0002905078D01*
X0003449566Y0002575551D02*
X0003449566Y0002693818D01*
X0003447992Y0002786811D02*
X0003447992Y0002906102D01*
X0003447992Y0002574527D02*
X0003447992Y0002693818D01*
X0003446417Y0002786811D02*
X0003446417Y0002907125D01*
X0003446417Y0002573503D02*
X0003446417Y0002693818D01*
X0003444842Y0002786811D02*
X0003444842Y0002908149D01*
X0003444842Y0002572480D02*
X0003444842Y0002693818D01*
X0003443267Y0002786811D02*
X0003443267Y0002909133D01*
X0003443267Y0002571496D02*
X0003443267Y0002693818D01*
X0003441692Y0002786811D02*
X0003441692Y0002910078D01*
X0003441692Y0002570551D02*
X0003441692Y0002693818D01*
X0003440118Y0002786811D02*
X0003440118Y0002911023D01*
X0003440118Y0002569606D02*
X0003440118Y0002693818D01*
X0003438543Y0002786811D02*
X0003438543Y0002911968D01*
X0003438543Y0002568661D02*
X0003438543Y0002693818D01*
X0003436968Y0002786811D02*
X0003436968Y0002912874D01*
X0003436968Y0002567755D02*
X0003436968Y0002693818D01*
X0003435393Y0002786811D02*
X0003435393Y0002913740D01*
X0003435393Y0002566889D02*
X0003435393Y0002693818D01*
X0003433818Y0002786811D02*
X0003433818Y0002914645D01*
X0003433818Y0002565984D02*
X0003433818Y0002693818D01*
X0003432244Y0002786811D02*
X0003432244Y0002915472D01*
X0003432244Y0002565157D02*
X0003432244Y0002693818D01*
X0003430669Y0002786811D02*
X0003430669Y0002916299D01*
X0003430669Y0002564330D02*
X0003430669Y0002693818D01*
X0003429094Y0002786811D02*
X0003429094Y0002917125D01*
X0003429094Y0002563503D02*
X0003429094Y0002693818D01*
X0003427519Y0002786811D02*
X0003427519Y0002917913D01*
X0003427519Y0002562716D02*
X0003427519Y0002693818D01*
X0003425944Y0002786811D02*
X0003425944Y0002918700D01*
X0003425944Y0002561929D02*
X0003425944Y0002693818D01*
X0003424370Y0002786811D02*
X0003424370Y0002919448D01*
X0003424370Y0002561181D02*
X0003424370Y0002693818D01*
X0003422795Y0002786811D02*
X0003422795Y0002920196D01*
X0003422795Y0002560433D02*
X0003422795Y0002693818D01*
X0003421220Y0002786811D02*
X0003421220Y0002920944D01*
X0003421220Y0002559685D02*
X0003421220Y0002693818D01*
X0003419645Y0002786811D02*
X0003419645Y0002921653D01*
X0003419645Y0002558976D02*
X0003419645Y0002693818D01*
X0003418070Y0002786811D02*
X0003418070Y0002922362D01*
X0003418070Y0002558267D02*
X0003418070Y0002693818D01*
X0003416496Y0002786811D02*
X0003416496Y0002923031D01*
X0003416496Y0002557598D02*
X0003416496Y0002693818D01*
X0003414921Y0002786811D02*
X0003414921Y0002923700D01*
X0003414921Y0002556929D02*
X0003414921Y0002693818D01*
X0003413346Y0002786811D02*
X0003413346Y0002924330D01*
X0003413346Y0002556299D02*
X0003413346Y0002693818D01*
X0003411771Y0002786811D02*
X0003411771Y0002925000D01*
X0003411771Y0002555629D02*
X0003411771Y0002693818D01*
X0003410196Y0002786811D02*
X0003410196Y0002925590D01*
X0003410196Y0002555039D02*
X0003410196Y0002693818D01*
X0003408622Y0002786811D02*
X0003408622Y0002926220D01*
X0003408622Y0002554409D02*
X0003408622Y0002693818D01*
X0003407047Y0002786811D02*
X0003407047Y0002926811D01*
X0003407047Y0002553818D02*
X0003407047Y0002693818D01*
X0003405472Y0002786811D02*
X0003405472Y0002927362D01*
X0003405472Y0002553267D02*
X0003405472Y0002693818D01*
X0003403897Y0002786811D02*
X0003403897Y0002927913D01*
X0003403897Y0002552716D02*
X0003403897Y0002693818D01*
X0003402322Y0002786811D02*
X0003402322Y0002928464D01*
X0003402322Y0002552165D02*
X0003402322Y0002693818D01*
X0003400748Y0002786811D02*
X0003400748Y0002928976D01*
X0003400748Y0002551653D02*
X0003400748Y0002693818D01*
X0003399173Y0002786811D02*
X0003399173Y0002929527D01*
X0003399173Y0002551102D02*
X0003399173Y0002693818D01*
X0003397598Y0002786811D02*
X0003397598Y0002930000D01*
X0003397598Y0002550629D02*
X0003397598Y0002693818D01*
X0003396023Y0002786811D02*
X0003396023Y0002930511D01*
X0003396023Y0002550118D02*
X0003396023Y0002693818D01*
X0003394448Y0002786811D02*
X0003394448Y0002930984D01*
X0003394448Y0002549645D02*
X0003394448Y0002693818D01*
X0003392874Y0002786811D02*
X0003392874Y0002931417D01*
X0003392874Y0002549212D02*
X0003392874Y0002693818D01*
X0003391299Y0002786811D02*
X0003391299Y0002931850D01*
X0003391299Y0002548779D02*
X0003391299Y0002693818D01*
X0003389724Y0002786811D02*
X0003389724Y0002932283D01*
X0003389724Y0002548346D02*
X0003389724Y0002693818D01*
X0003388149Y0002547913D02*
X0003388149Y0002932716D01*
X0003386574Y0002547519D02*
X0003386574Y0002933110D01*
X0003385000Y0002547125D02*
X0003385000Y0002933503D01*
X0003383425Y0002546732D02*
X0003383425Y0002933897D01*
X0003381850Y0002546377D02*
X0003381850Y0002934251D01*
X0003380275Y0002546023D02*
X0003380275Y0002934606D01*
X0003378700Y0002545708D02*
X0003378700Y0002934921D01*
X0003377125Y0002545393D02*
X0003377125Y0002935236D01*
X0003375551Y0002545078D02*
X0003375551Y0002935551D01*
X0003373976Y0002544763D02*
X0003373976Y0002935866D01*
X0003372401Y0002544488D02*
X0003372401Y0002936141D01*
X0003370826Y0002544212D02*
X0003370826Y0002936417D01*
X0003369251Y0002543976D02*
X0003369251Y0002936653D01*
X0003367677Y0002543740D02*
X0003367677Y0002936889D01*
X0003366102Y0002543503D02*
X0003366102Y0002937125D01*
X0003364488Y0002543267D02*
X0003364488Y0002937362D01*
X0003362913Y0002543070D02*
X0003362913Y0002937559D01*
X0003361338Y0002542874D02*
X0003361338Y0002937755D01*
X0003359763Y0002542677D02*
X0003359763Y0002937952D01*
X0003358188Y0002542519D02*
X0003358188Y0002938110D01*
X0003356614Y0002542362D02*
X0003356614Y0002938267D01*
X0003355039Y0002542244D02*
X0003355039Y0002938385D01*
X0003353464Y0002542086D02*
X0003353464Y0002938543D01*
X0003351889Y0002541968D02*
X0003351889Y0002938661D01*
X0003350314Y0002541889D02*
X0003350314Y0002938740D01*
X0003348740Y0002541771D02*
X0003348740Y0002938858D01*
X0003347165Y0002541692D02*
X0003347165Y0002938937D01*
X0003345590Y0002541614D02*
X0003345590Y0002939015D01*
X0003344015Y0002541574D02*
X0003344015Y0002939055D01*
X0003342440Y0002541535D02*
X0003342440Y0002939094D01*
X0003340866Y0002541496D02*
X0003340866Y0002939133D01*
X0003339291Y0002541496D02*
X0003339291Y0002939133D01*
X0003337716Y0002541496D02*
X0003337716Y0002939133D01*
X0003530568Y0002794774D02*
G75*
G02X0003530604Y0002685984I-0000192851J-0000054459D01*
G01*
X0003530568Y0002794774D02*
G75*
G03X0003144828Y0002794645I-0000192851J-0000054459D01*
G01*
X0003530568Y0002685855D02*
G75*
G02X0003144828Y0002685984I-0000192851J0000054459D01*
G01*
X0001543858Y0002392637D02*
X0001543858Y0002420196D01*
X0001496614Y0002420196D02*
X0001496614Y0002392637D01*
X0001496614Y0002580196D02*
X0001496614Y0002552637D01*
X0001543858Y0002552637D02*
X0001543858Y0002580196D01*
X0003205984Y0002946220D02*
X0003154803Y0002946220D01*
X0003180393Y0002922598D02*
X0003180393Y0002969842D01*
X0003198818Y0003184448D02*
X0003161968Y0003184448D01*
X0003207007Y0003182874D02*
X0003153779Y0003182874D01*
X0003213228Y0003181299D02*
X0003147559Y0003181299D01*
X0003218425Y0003179724D02*
X0003142362Y0003179724D01*
X0003222952Y0003178149D02*
X0003137834Y0003178149D01*
X0003227007Y0003176574D02*
X0003133779Y0003176574D01*
X0003230708Y0003175000D02*
X0003130078Y0003175000D01*
X0003234094Y0003173425D02*
X0003126692Y0003173425D01*
X0003237283Y0003171850D02*
X0003123503Y0003171850D01*
X0003240236Y0003170275D02*
X0003120551Y0003170275D01*
X0003243031Y0003168700D02*
X0003117755Y0003168700D01*
X0003245669Y0003167125D02*
X0003115118Y0003167125D01*
X0003248149Y0003165551D02*
X0003112637Y0003165551D01*
X0003250511Y0003163976D02*
X0003110275Y0003163976D01*
X0003252795Y0003162401D02*
X0003107992Y0003162401D01*
X0003254960Y0003160826D02*
X0003105826Y0003160826D01*
X0003257007Y0003159251D02*
X0003103779Y0003159251D01*
X0003259015Y0003157677D02*
X0003101771Y0003157677D01*
X0003260905Y0003156102D02*
X0003099881Y0003156102D01*
X0003262755Y0003154527D02*
X0003098031Y0003154527D01*
X0003264527Y0003152952D02*
X0003096259Y0003152952D01*
X0003266220Y0003151377D02*
X0003094566Y0003151377D01*
X0003267874Y0003149803D02*
X0003092913Y0003149803D01*
X0003269448Y0003148228D02*
X0003091338Y0003148228D01*
X0003270984Y0003146653D02*
X0003089803Y0003146653D01*
X0003141810Y0003145078D02*
X0003088307Y0003145078D01*
X0003272480Y0003145078D02*
X0003218976Y0003145078D01*
X0003141810Y0003143503D02*
X0003086889Y0003143503D01*
X0003273897Y0003143503D02*
X0003218976Y0003143503D01*
X0003141810Y0003141929D02*
X0003085472Y0003141929D01*
X0003275314Y0003141929D02*
X0003218976Y0003141929D01*
X0003141810Y0003140354D02*
X0003084133Y0003140354D01*
X0003276653Y0003140354D02*
X0003218976Y0003140354D01*
X0003141810Y0003138779D02*
X0003082834Y0003138779D01*
X0003277952Y0003138779D02*
X0003218976Y0003138779D01*
X0003141810Y0003137204D02*
X0003081574Y0003137204D01*
X0003279212Y0003137204D02*
X0003218976Y0003137204D01*
X0003141810Y0003135629D02*
X0003080393Y0003135629D01*
X0003280393Y0003135629D02*
X0003218976Y0003135629D01*
X0003141810Y0003134055D02*
X0003079212Y0003134055D01*
X0003281574Y0003134055D02*
X0003218976Y0003134055D01*
X0003141810Y0003132480D02*
X0003078070Y0003132480D01*
X0003282716Y0003132480D02*
X0003218976Y0003132480D01*
X0003141810Y0003130905D02*
X0003076968Y0003130905D01*
X0003283818Y0003130905D02*
X0003218976Y0003130905D01*
X0003141810Y0003129330D02*
X0003075905Y0003129330D01*
X0003284881Y0003129330D02*
X0003218976Y0003129330D01*
X0003141810Y0003127755D02*
X0003074842Y0003127755D01*
X0003285944Y0003127755D02*
X0003218976Y0003127755D01*
X0003141810Y0003126181D02*
X0003073858Y0003126181D01*
X0003286929Y0003126181D02*
X0003218976Y0003126181D01*
X0003141810Y0003124606D02*
X0003072874Y0003124606D01*
X0003287913Y0003124606D02*
X0003218976Y0003124606D01*
X0003141810Y0003123031D02*
X0003071929Y0003123031D01*
X0003288858Y0003123031D02*
X0003218976Y0003123031D01*
X0003141810Y0003121456D02*
X0003071023Y0003121456D01*
X0003289763Y0003121456D02*
X0003218976Y0003121456D01*
X0003141810Y0003119881D02*
X0003070157Y0003119881D01*
X0003290629Y0003119881D02*
X0003218976Y0003119881D01*
X0003141810Y0003118307D02*
X0003069291Y0003118307D01*
X0003291496Y0003118307D02*
X0003218976Y0003118307D01*
X0003141810Y0003116732D02*
X0003068464Y0003116732D01*
X0003292322Y0003116732D02*
X0003218976Y0003116732D01*
X0003141810Y0003115157D02*
X0003067677Y0003115157D01*
X0003293110Y0003115157D02*
X0003218976Y0003115157D01*
X0003141810Y0003113582D02*
X0003066929Y0003113582D01*
X0003293858Y0003113582D02*
X0003218976Y0003113582D01*
X0003141810Y0003112007D02*
X0003066181Y0003112007D01*
X0003294606Y0003112007D02*
X0003218976Y0003112007D01*
X0003141810Y0003110433D02*
X0003065472Y0003110433D01*
X0003295314Y0003110433D02*
X0003218976Y0003110433D01*
X0003141810Y0003108858D02*
X0003064763Y0003108858D01*
X0003296023Y0003108858D02*
X0003218976Y0003108858D01*
X0003141810Y0003107283D02*
X0003064094Y0003107283D01*
X0003296692Y0003107283D02*
X0003218976Y0003107283D01*
X0003141810Y0003105708D02*
X0003063464Y0003105708D01*
X0003297322Y0003105708D02*
X0003218976Y0003105708D01*
X0003141810Y0003104133D02*
X0003062834Y0003104133D01*
X0003297952Y0003104133D02*
X0003218976Y0003104133D01*
X0003141810Y0003102559D02*
X0003062244Y0003102559D01*
X0003298543Y0003102559D02*
X0003218976Y0003102559D01*
X0003141810Y0003100984D02*
X0003061692Y0003100984D01*
X0003299094Y0003100984D02*
X0003218976Y0003100984D01*
X0003141810Y0003099409D02*
X0003061141Y0003099409D01*
X0003299645Y0003099409D02*
X0003218976Y0003099409D01*
X0003141810Y0003097834D02*
X0003060629Y0003097834D01*
X0003300157Y0003097834D02*
X0003218976Y0003097834D01*
X0003141810Y0003096259D02*
X0003060118Y0003096259D01*
X0003300669Y0003096259D02*
X0003218976Y0003096259D01*
X0003141810Y0003094685D02*
X0003059645Y0003094685D01*
X0003301141Y0003094685D02*
X0003218976Y0003094685D01*
X0003141810Y0003093110D02*
X0003059173Y0003093110D01*
X0003301614Y0003093110D02*
X0003218976Y0003093110D01*
X0003141810Y0003091535D02*
X0003058740Y0003091535D01*
X0003302047Y0003091535D02*
X0003218976Y0003091535D01*
X0003141810Y0003089960D02*
X0003058346Y0003089960D01*
X0003302440Y0003089960D02*
X0003218976Y0003089960D01*
X0003141810Y0003088385D02*
X0003057952Y0003088385D01*
X0003302834Y0003088385D02*
X0003218976Y0003088385D01*
X0003141810Y0003086811D02*
X0003057598Y0003086811D01*
X0003303188Y0003086811D02*
X0003218976Y0003086811D01*
X0003141810Y0003085196D02*
X0003057244Y0003085196D01*
X0003303543Y0003085196D02*
X0003218976Y0003085196D01*
X0003141810Y0003083622D02*
X0003056889Y0003083622D01*
X0003303897Y0003083622D02*
X0003218976Y0003083622D01*
X0003141810Y0003082047D02*
X0003056614Y0003082047D01*
X0003304173Y0003082047D02*
X0003218976Y0003082047D01*
X0003141810Y0003080472D02*
X0003056299Y0003080472D01*
X0003304488Y0003080472D02*
X0003218976Y0003080472D01*
X0003141810Y0003078897D02*
X0003056062Y0003078897D01*
X0003304724Y0003078897D02*
X0003218976Y0003078897D01*
X0003141810Y0003077322D02*
X0003055787Y0003077322D01*
X0003305000Y0003077322D02*
X0003218976Y0003077322D01*
X0003141810Y0003075748D02*
X0003055590Y0003075748D01*
X0003305196Y0003075748D02*
X0003218976Y0003075748D01*
X0003141810Y0003074173D02*
X0003055354Y0003074173D01*
X0003305433Y0003074173D02*
X0003218976Y0003074173D01*
X0003141810Y0003072598D02*
X0003055196Y0003072598D01*
X0003305590Y0003072598D02*
X0003218976Y0003072598D01*
X0003141810Y0003071023D02*
X0003055000Y0003071023D01*
X0003305787Y0003071023D02*
X0003218976Y0003071023D01*
X0003141810Y0003069448D02*
X0003054881Y0003069448D01*
X0003305905Y0003069448D02*
X0003218976Y0003069448D01*
X0003306062Y0003067874D02*
X0003054724Y0003067874D01*
X0003306141Y0003066299D02*
X0003054645Y0003066299D01*
X0003306259Y0003064724D02*
X0003054527Y0003064724D01*
X0003306299Y0003063149D02*
X0003054488Y0003063149D01*
X0003306377Y0003061574D02*
X0003054409Y0003061574D01*
X0003306377Y0003060000D02*
X0003054409Y0003060000D01*
X0003306377Y0003058425D02*
X0003054409Y0003058425D01*
X0003133971Y0003177237D02*
G75*
G02X0003226850Y0003177223I0000046422J-0000118811D01*
G01*
X0003133971Y0003177237D02*
G75*
G03X0003133937Y0002939626I0000046422J-0000118811D01*
G01*
X0003226816Y0003177237D02*
G75*
G02X0003226850Y0002939626I-0000046422J-0000118811D01*
G01*
X0000412913Y0002066535D02*
X0000412913Y0002094094D01*
X0000365669Y0002094094D02*
X0000365669Y0002066535D01*
X0000765669Y0002374094D02*
X0000765669Y0002346535D01*
X0000812913Y0002346535D02*
X0000812913Y0002374094D01*
X0002890472Y0001941417D02*
X0002862913Y0001941417D01*
X0002862913Y0001894173D02*
X0002890472Y0001894173D01*
X0003475511Y0002150078D02*
X0003503070Y0002150078D01*
X0003503070Y0002197322D02*
X0003475511Y0002197322D01*
X0002881338Y0002467984D02*
X0002908897Y0002467984D01*
X0002908897Y0002515228D02*
X0002881338Y0002515228D01*
X0002125511Y0002616692D02*
X0002153070Y0002616692D01*
X0002153070Y0002663937D02*
X0002125511Y0002663937D01*
X0003440595Y0002976732D02*
X0003482327Y0003049015D01*
X0003605685Y0002929606D02*
X0003579431Y0002944763D01*
X0003412704Y0003041023D02*
X0003438958Y0003025866D01*
X0003558565Y0002908622D02*
X0003418092Y0002989724D01*
X0003600297Y0002980905D02*
X0003558565Y0002908622D01*
X0003459824Y0003062007D02*
X0003600297Y0002980905D01*
X0003418092Y0002989724D02*
X0003459824Y0003062007D01*
X0001983122Y0002936276D02*
X0002682342Y0002681781D01*
X0001983122Y0002936276D02*
X0002054488Y0003132353D01*
X0002753708Y0002877858D02*
X0002682342Y0002681781D01*
X0002753708Y0002877858D02*
X0002054488Y0003132353D01*
X0000301653Y0002172677D02*
X0000249291Y0002172677D01*
X0000301653Y0002120314D02*
X0000301653Y0002172677D01*
X0000301653Y0002070314D02*
X0000196929Y0002070314D01*
X0000196929Y0002070314D02*
X0000196929Y0001967952D01*
X0000301653Y0002070314D02*
X0000301653Y0001967952D01*
X0000301653Y0001967952D02*
X0000196929Y0001967952D01*
X0002446929Y0002732677D02*
X0002446929Y0002680314D01*
X0002499291Y0002732677D02*
X0002446929Y0002732677D01*
X0002549291Y0002732677D02*
X0002549291Y0002627952D01*
X0002549291Y0002627952D02*
X0002751653Y0002627952D01*
X0002549291Y0002732677D02*
X0002751653Y0002732677D01*
X0002751653Y0002732677D02*
X0002751653Y0002627952D01*
X0001208425Y0002671338D02*
X0001171811Y0002671338D01*
X0001084015Y0002671338D02*
X0001120629Y0002671338D01*
X0001084015Y0002671338D02*
X0001084015Y0002795748D01*
X0001208425Y0002671338D02*
X0001208425Y0002728818D01*
X0000880078Y0002985708D02*
X0000937559Y0002985708D01*
X0000880078Y0003110118D02*
X0001004488Y0003110118D01*
X0000880078Y0003110118D02*
X0000880078Y0003073503D01*
X0000880078Y0002985708D02*
X0000880078Y0003022322D01*
X0001190314Y0002988464D02*
X0001190314Y0002941220D01*
X0001259606Y0002941220D02*
X0001259606Y0002988464D01*
X0001052519Y0002987086D02*
X0001052519Y0002939842D01*
X0001121811Y0002939842D02*
X0001121811Y0002987086D01*
X0002916062Y0002354960D02*
X0002868818Y0002354960D01*
X0002868818Y0002285669D02*
X0002916062Y0002285669D01*
X0002275669Y0002365669D02*
X0002322913Y0002365669D01*
X0002322913Y0002434960D02*
X0002275669Y0002434960D01*
X0002322913Y0002334960D02*
X0002275669Y0002334960D01*
X0002275669Y0002265669D02*
X0002322913Y0002265669D01*
X0001133858Y0002044094D02*
X0001163582Y0002014370D01*
X0001124606Y0002044251D02*
X0001159015Y0002009803D01*
X0001084842Y0002061968D02*
X0001084842Y0001985826D01*
X0001084842Y0002167716D02*
X0001084842Y0002098622D01*
X0001353740Y0002061968D02*
X0001353740Y0001985826D01*
X0001353740Y0002167716D02*
X0001353740Y0002098622D01*
X0001353740Y0001985826D02*
X0001084842Y0001985826D01*
X0001353740Y0002167716D02*
X0001084842Y0002167716D01*
X0001134604Y0002000837D02*
G75*
G03X0001153897Y0002070551I0000000632J0000037351D01*
G01*
X0001098402Y0002044683D02*
G75*
G03X0001135236Y0002000787I0000036833J-0000006494D01*
G01*
X0003711653Y0002387952D02*
X0003606929Y0002387952D01*
X0003711653Y0002690314D02*
X0003711653Y0002387952D01*
X0003606929Y0002690314D02*
X0003606929Y0002387952D01*
X0003711653Y0002690314D02*
X0003606929Y0002690314D01*
X0003711653Y0002740314D02*
X0003711653Y0002792677D01*
X0003711653Y0002792677D02*
X0003659291Y0002792677D01*
D10*
X0001798897Y0002568582D02*
X0001798897Y0002637480D01*
X0002025472Y0002568582D02*
X0002025472Y0002352047D01*
X0001773110Y0002568582D02*
X0001773110Y0002352047D01*
X0002025472Y0002568582D02*
X0001995944Y0002568582D01*
X0002025472Y0002352047D02*
X0001995944Y0002352047D01*
X0001773110Y0002352047D02*
X0001802637Y0002352047D01*
X0001773110Y0002568582D02*
X0001798897Y0002568582D01*
D11*
X0001266811Y0002605511D02*
G75*
G02X0001465629Y0002605511I0000099409D01*
G01*
X0001266811Y0002359448D02*
G75*
G03X0001465629Y0002359448I0000099409D01*
G01*
X0001266811Y0002359448D02*
X0001266811Y0002605511D01*
X0001465629Y0002359448D02*
X0001465629Y0002605511D01*
X0001619308Y0002589534D02*
G75*
G03X0001694094Y0002589555I0000037384J0000030780D01*
G01*
X0001619308Y0002651095D02*
G75*
G02X0001694094Y0002651074I0000037384J-0000030780D01*
G01*
D10*
X0003183040Y0002508755D02*
X0003186790Y0002510629D01*
X0003190539Y0002514379D01*
X0003196164Y0002520003D01*
X0003199913Y0002521878D01*
X0003203663Y0002521878D01*
X0003201788Y0002512504D02*
X0003205538Y0002514379D01*
X0003209287Y0002518129D01*
X0003211162Y0002525628D01*
X0003211162Y0002538751D01*
X0003209287Y0002546250D01*
X0003205538Y0002549999D01*
X0003201788Y0002551874D01*
X0003194289Y0002551874D01*
X0003190539Y0002549999D01*
X0003186790Y0002546250D01*
X0003184915Y0002538751D01*
X0003184915Y0002525628D01*
X0003186790Y0002518129D01*
X0003190539Y0002514379D01*
X0003194289Y0002512504D01*
X0003201788Y0002512504D01*
X0003171792Y0002551874D02*
X0003147420Y0002551874D01*
X0003160543Y0002536876D01*
X0003154919Y0002536876D01*
X0003151169Y0002535001D01*
X0003149295Y0002533127D01*
X0003147420Y0002529377D01*
X0003147420Y0002520003D01*
X0003149295Y0002516254D01*
X0003151169Y0002514379D01*
X0003154919Y0002512504D01*
X0003166167Y0002512504D01*
X0003169917Y0002514379D01*
X0003171792Y0002516254D01*
X0002043625Y0002260614D02*
X0002043625Y0002228743D01*
X0002041751Y0002224994D01*
X0002039876Y0002223119D01*
X0002036126Y0002221244D01*
X0002028627Y0002221244D01*
X0002024878Y0002223119D01*
X0002023003Y0002224994D01*
X0002021128Y0002228743D01*
X0002021128Y0002260614D01*
X0001981758Y0002221244D02*
X0002004255Y0002221244D01*
X0001993007Y0002221244D02*
X0001993007Y0002260614D01*
X0001996756Y0002254990D01*
X0002000506Y0002251241D01*
X0002004255Y0002249366D01*
X0001957386Y0002260614D02*
X0001953637Y0002260614D01*
X0001949887Y0002258740D01*
X0001948012Y0002256865D01*
X0001946137Y0002253115D01*
X0001944263Y0002245616D01*
X0001944263Y0002236242D01*
X0001946137Y0002228743D01*
X0001948012Y0002224994D01*
X0001949887Y0002223119D01*
X0001953637Y0002221244D01*
X0001957386Y0002221244D01*
X0001961136Y0002223119D01*
X0001963010Y0002224994D01*
X0001964885Y0002228743D01*
X0001966760Y0002236242D01*
X0001966760Y0002245616D01*
X0001964885Y0002253115D01*
X0001963010Y0002256865D01*
X0001961136Y0002258740D01*
X0001957386Y0002260614D01*
X0001697731Y0002112808D02*
X0001737101Y0002099685D01*
X0001697731Y0002086561D01*
X0001733352Y0002050941D02*
X0001735226Y0002052815D01*
X0001737101Y0002058440D01*
X0001737101Y0002062189D01*
X0001735226Y0002067814D01*
X0001731477Y0002071563D01*
X0001727727Y0002073438D01*
X0001720228Y0002075313D01*
X0001714604Y0002075313D01*
X0001707105Y0002073438D01*
X0001703355Y0002071563D01*
X0001699606Y0002067814D01*
X0001697731Y0002062189D01*
X0001697731Y0002058440D01*
X0001699606Y0002052815D01*
X0001701481Y0002050941D01*
X0001733352Y0002011571D02*
X0001735226Y0002013445D01*
X0001737101Y0002019070D01*
X0001737101Y0002022819D01*
X0001735226Y0002028443D01*
X0001731477Y0002032193D01*
X0001727727Y0002034068D01*
X0001720228Y0002035943D01*
X0001714604Y0002035943D01*
X0001707105Y0002034068D01*
X0001703355Y0002032193D01*
X0001699606Y0002028443D01*
X0001697731Y0002022819D01*
X0001697731Y0002019070D01*
X0001699606Y0002013445D01*
X0001701481Y0002011571D01*
X0001799606Y0002090311D02*
X0001797731Y0002094060D01*
X0001797731Y0002099685D01*
X0001799606Y0002105309D01*
X0001803355Y0002109058D01*
X0001807105Y0002110933D01*
X0001814604Y0002112808D01*
X0001820228Y0002112808D01*
X0001827727Y0002110933D01*
X0001831477Y0002109058D01*
X0001835226Y0002105309D01*
X0001837101Y0002099685D01*
X0001837101Y0002095935D01*
X0001835226Y0002090311D01*
X0001833352Y0002088436D01*
X0001820228Y0002088436D01*
X0001820228Y0002095935D01*
X0001837101Y0002071563D02*
X0001797731Y0002071563D01*
X0001837101Y0002049066D01*
X0001797731Y0002049066D01*
X0001837101Y0002030318D02*
X0001797731Y0002030318D01*
X0001797731Y0002020944D01*
X0001799606Y0002015320D01*
X0001803355Y0002011571D01*
X0001807105Y0002009696D01*
X0001814604Y0002007821D01*
X0001820228Y0002007821D01*
X0001827727Y0002009696D01*
X0001831477Y0002011571D01*
X0001835226Y0002015320D01*
X0001837101Y0002020944D01*
X0001837101Y0002030318D01*
X0001935226Y0002107184D02*
X0001937101Y0002101559D01*
X0001937101Y0002092185D01*
X0001935226Y0002088436D01*
X0001933352Y0002086561D01*
X0001929602Y0002084686D01*
X0001925852Y0002084686D01*
X0001922103Y0002086561D01*
X0001920228Y0002088436D01*
X0001918353Y0002092185D01*
X0001916479Y0002099685D01*
X0001914604Y0002103434D01*
X0001912729Y0002105309D01*
X0001908980Y0002107184D01*
X0001905230Y0002107184D01*
X0001901481Y0002105309D01*
X0001899606Y0002103434D01*
X0001897731Y0002099685D01*
X0001897731Y0002090311D01*
X0001899606Y0002084686D01*
X0001933352Y0002045316D02*
X0001935226Y0002047191D01*
X0001937101Y0002052815D01*
X0001937101Y0002056565D01*
X0001935226Y0002062189D01*
X0001931477Y0002065939D01*
X0001927727Y0002067814D01*
X0001920228Y0002069688D01*
X0001914604Y0002069688D01*
X0001907105Y0002067814D01*
X0001903355Y0002065939D01*
X0001899606Y0002062189D01*
X0001897731Y0002056565D01*
X0001897731Y0002052815D01*
X0001899606Y0002047191D01*
X0001901481Y0002045316D01*
X0001937101Y0002009696D02*
X0001937101Y0002028443D01*
X0001897731Y0002028443D01*
X0002035226Y0002108121D02*
X0002037101Y0002102497D01*
X0002037101Y0002093123D01*
X0002035226Y0002089373D01*
X0002033352Y0002087499D01*
X0002029602Y0002085624D01*
X0002025852Y0002085624D01*
X0002022103Y0002087499D01*
X0002020228Y0002089373D01*
X0002018353Y0002093123D01*
X0002016479Y0002100622D01*
X0002014604Y0002104371D01*
X0002012729Y0002106246D01*
X0002008980Y0002108121D01*
X0002005230Y0002108121D01*
X0002001481Y0002106246D01*
X0001999606Y0002104371D01*
X0001997731Y0002100622D01*
X0001997731Y0002091248D01*
X0001999606Y0002085624D01*
X0002037101Y0002068751D02*
X0001997731Y0002068751D01*
X0001997731Y0002059377D01*
X0001999606Y0002053753D01*
X0002003355Y0002050003D01*
X0002007105Y0002048129D01*
X0002014604Y0002046254D01*
X0002020228Y0002046254D01*
X0002027727Y0002048129D01*
X0002031477Y0002050003D01*
X0002035226Y0002053753D01*
X0002037101Y0002059377D01*
X0002037101Y0002068751D01*
X0002025852Y0002031256D02*
X0002025852Y0002012508D01*
X0002037101Y0002035005D02*
X0001997731Y0002021882D01*
X0002037101Y0002008758D01*
X0002133352Y0002086561D02*
X0002135226Y0002088436D01*
X0002137101Y0002094060D01*
X0002137101Y0002097810D01*
X0002135226Y0002103434D01*
X0002131477Y0002107184D01*
X0002127727Y0002109058D01*
X0002120228Y0002110933D01*
X0002114604Y0002110933D01*
X0002107105Y0002109058D01*
X0002103355Y0002107184D01*
X0002099606Y0002103434D01*
X0002097731Y0002097810D01*
X0002097731Y0002094060D01*
X0002099606Y0002088436D01*
X0002101481Y0002086561D01*
X0002135226Y0002071563D02*
X0002137101Y0002065939D01*
X0002137101Y0002056565D01*
X0002135226Y0002052815D01*
X0002133352Y0002050941D01*
X0002129602Y0002049066D01*
X0002125852Y0002049066D01*
X0002122103Y0002050941D01*
X0002120228Y0002052815D01*
X0002118353Y0002056565D01*
X0002116479Y0002064064D01*
X0002114604Y0002067814D01*
X0002112729Y0002069688D01*
X0002108980Y0002071563D01*
X0002105230Y0002071563D01*
X0002101481Y0002069688D01*
X0002099606Y0002067814D01*
X0002097731Y0002064064D01*
X0002097731Y0002054690D01*
X0002099606Y0002049066D01*
X0002116479Y0002019070D02*
X0002118353Y0002013445D01*
X0002120228Y0002011571D01*
X0002123978Y0002009696D01*
X0002129602Y0002009696D01*
X0002133352Y0002011571D01*
X0002135226Y0002013445D01*
X0002137101Y0002017195D01*
X0002137101Y0002032193D01*
X0002097731Y0002032193D01*
X0002097731Y0002019070D01*
X0002099606Y0002015320D01*
X0002101481Y0002013445D01*
X0002105230Y0002011571D01*
X0002108980Y0002011571D01*
X0002112729Y0002013445D01*
X0002114604Y0002015320D01*
X0002116479Y0002019070D01*
X0002116479Y0002032193D01*
X0002235226Y0002111871D02*
X0002237101Y0002106246D01*
X0002237101Y0002096872D01*
X0002235226Y0002093123D01*
X0002233352Y0002091248D01*
X0002229602Y0002089373D01*
X0002225852Y0002089373D01*
X0002222103Y0002091248D01*
X0002220228Y0002093123D01*
X0002218353Y0002096872D01*
X0002216479Y0002104371D01*
X0002214604Y0002108121D01*
X0002212729Y0002109996D01*
X0002208980Y0002111871D01*
X0002205230Y0002111871D01*
X0002201481Y0002109996D01*
X0002199606Y0002108121D01*
X0002197731Y0002104371D01*
X0002197731Y0002094998D01*
X0002199606Y0002089373D01*
X0002237101Y0002072500D02*
X0002197731Y0002072500D01*
X0002197731Y0002063127D01*
X0002199606Y0002057502D01*
X0002203355Y0002053753D01*
X0002207105Y0002051878D01*
X0002214604Y0002050003D01*
X0002220228Y0002050003D01*
X0002227727Y0002051878D01*
X0002231477Y0002053753D01*
X0002235226Y0002057502D01*
X0002237101Y0002063127D01*
X0002237101Y0002072500D01*
X0002197731Y0002025631D02*
X0002197731Y0002018132D01*
X0002199606Y0002014383D01*
X0002203355Y0002010633D01*
X0002210854Y0002008758D01*
X0002223978Y0002008758D01*
X0002231477Y0002010633D01*
X0002235226Y0002014383D01*
X0002237101Y0002018132D01*
X0002237101Y0002025631D01*
X0002235226Y0002029381D01*
X0002231477Y0002033130D01*
X0002223978Y0002035005D01*
X0002210854Y0002035005D01*
X0002203355Y0002033130D01*
X0002199606Y0002029381D01*
X0002197731Y0002025631D01*
X0001529287Y0003231874D02*
X0001529287Y0003200003D01*
X0001527412Y0003196254D01*
X0001525538Y0003194379D01*
X0001521788Y0003192504D01*
X0001514289Y0003192504D01*
X0001510539Y0003194379D01*
X0001508665Y0003196254D01*
X0001506790Y0003200003D01*
X0001506790Y0003231874D01*
X0001467420Y0003192504D02*
X0001489917Y0003192504D01*
X0001478668Y0003192504D02*
X0001478668Y0003231874D01*
X0001482418Y0003226250D01*
X0001486167Y0003222500D01*
X0001489917Y0003220626D01*
X0001812099Y0002741874D02*
X0001812099Y0002713753D01*
X0001813974Y0002708129D01*
X0001817724Y0002704379D01*
X0001823348Y0002702504D01*
X0001827097Y0002702504D01*
X0001793352Y0002702504D02*
X0001793352Y0002741874D01*
X0001778353Y0002741874D01*
X0001774604Y0002740000D01*
X0001772729Y0002738125D01*
X0001770854Y0002734375D01*
X0001770854Y0002728751D01*
X0001772729Y0002725001D01*
X0001774604Y0002723127D01*
X0001778353Y0002721252D01*
X0001793352Y0002721252D01*
X0001752107Y0002702504D02*
X0001744608Y0002702504D01*
X0001740858Y0002704379D01*
X0001738983Y0002706254D01*
X0001735234Y0002711878D01*
X0001733359Y0002719377D01*
X0001733359Y0002734375D01*
X0001735234Y0002738125D01*
X0001737109Y0002740000D01*
X0001740858Y0002741874D01*
X0001748357Y0002741874D01*
X0001752107Y0002740000D01*
X0001753981Y0002738125D01*
X0001755856Y0002734375D01*
X0001755856Y0002725001D01*
X0001753981Y0002721252D01*
X0001752107Y0002719377D01*
X0001748357Y0002717502D01*
X0001740858Y0002717502D01*
X0001737109Y0002719377D01*
X0001735234Y0002721252D01*
X0001733359Y0002725001D01*
X0000883648Y0002448380D02*
X0000885523Y0002446505D01*
X0000891147Y0002444630D01*
X0000894896Y0002444630D01*
X0000900521Y0002446505D01*
X0000904270Y0002450255D01*
X0000906145Y0002454004D01*
X0000908020Y0002461503D01*
X0000908020Y0002467127D01*
X0000906145Y0002474626D01*
X0000904270Y0002478376D01*
X0000900521Y0002482125D01*
X0000894896Y0002484000D01*
X0000891147Y0002484000D01*
X0000885523Y0002482125D01*
X0000883648Y0002480251D01*
X0000861151Y0002467127D02*
X0000864900Y0002469002D01*
X0000866775Y0002470877D01*
X0000868650Y0002474626D01*
X0000868650Y0002476501D01*
X0000866775Y0002480251D01*
X0000864900Y0002482125D01*
X0000861151Y0002484000D01*
X0000853652Y0002484000D01*
X0000849902Y0002482125D01*
X0000848027Y0002480251D01*
X0000846152Y0002476501D01*
X0000846152Y0002474626D01*
X0000848027Y0002470877D01*
X0000849902Y0002469002D01*
X0000853652Y0002467127D01*
X0000861151Y0002467127D01*
X0000864900Y0002465253D01*
X0000866775Y0002463378D01*
X0000868650Y0002459628D01*
X0000868650Y0002452129D01*
X0000866775Y0002448380D01*
X0000864900Y0002446505D01*
X0000861151Y0002444630D01*
X0000853652Y0002444630D01*
X0000849902Y0002446505D01*
X0000848027Y0002448380D01*
X0000846152Y0002452129D01*
X0000846152Y0002459628D01*
X0000848027Y0002463378D01*
X0000849902Y0002465253D01*
X0000853652Y0002467127D01*
X0003372399Y0002494701D02*
X0003366775Y0002492827D01*
X0003364900Y0002490952D01*
X0003363025Y0002487202D01*
X0003363025Y0002481578D01*
X0003364900Y0002477829D01*
X0003366775Y0002475954D01*
X0003370524Y0002474079D01*
X0003385523Y0002474079D01*
X0003385523Y0002513449D01*
X0003372399Y0002513449D01*
X0003368650Y0002511574D01*
X0003366775Y0002509700D01*
X0003364900Y0002505950D01*
X0003364900Y0002502200D01*
X0003366775Y0002498451D01*
X0003368650Y0002496576D01*
X0003372399Y0002494701D01*
X0003385523Y0002494701D01*
X0003349902Y0002513449D02*
X0003323655Y0002513449D01*
X0003349902Y0002474079D01*
X0003323655Y0002474079D01*
X0003288035Y0002474079D02*
X0003310532Y0002474079D01*
X0003299283Y0002474079D02*
X0003299283Y0002513449D01*
X0003303033Y0002507825D01*
X0003306782Y0002504075D01*
X0003310532Y0002502200D01*
X0001526797Y0002292356D02*
X0001528672Y0002290481D01*
X0001534296Y0002288607D01*
X0001538046Y0002288607D01*
X0001543670Y0002290481D01*
X0001547420Y0002294231D01*
X0001549295Y0002297980D01*
X0001551169Y0002305479D01*
X0001551169Y0002311104D01*
X0001549295Y0002318603D01*
X0001547420Y0002322352D01*
X0001543670Y0002326102D01*
X0001538046Y0002327977D01*
X0001534296Y0002327977D01*
X0001528672Y0002326102D01*
X0001526797Y0002324227D01*
X0001489302Y0002288607D02*
X0001511799Y0002288607D01*
X0001500551Y0002288607D02*
X0001500551Y0002327977D01*
X0001504300Y0002322352D01*
X0001508050Y0002318603D01*
X0001511799Y0002316728D01*
X0001526797Y0002652356D02*
X0001528672Y0002650481D01*
X0001534296Y0002648607D01*
X0001538046Y0002648607D01*
X0001543670Y0002650481D01*
X0001547420Y0002654231D01*
X0001549295Y0002657980D01*
X0001551169Y0002665479D01*
X0001551169Y0002671104D01*
X0001549295Y0002678603D01*
X0001547420Y0002682352D01*
X0001543670Y0002686102D01*
X0001538046Y0002687977D01*
X0001534296Y0002687977D01*
X0001528672Y0002686102D01*
X0001526797Y0002684227D01*
X0001511799Y0002684227D02*
X0001509925Y0002686102D01*
X0001506175Y0002687977D01*
X0001496801Y0002687977D01*
X0001493052Y0002686102D01*
X0001491177Y0002684227D01*
X0001489302Y0002680478D01*
X0001489302Y0002676728D01*
X0001491177Y0002671104D01*
X0001513674Y0002648607D01*
X0001489302Y0002648607D01*
X0003186955Y0003215151D02*
X0003188830Y0003213277D01*
X0003194454Y0003211402D01*
X0003198203Y0003211402D01*
X0003203828Y0003213277D01*
X0003207577Y0003217026D01*
X0003209452Y0003220776D01*
X0003211327Y0003228275D01*
X0003211327Y0003233899D01*
X0003209452Y0003241398D01*
X0003207577Y0003245148D01*
X0003203828Y0003248897D01*
X0003198203Y0003250772D01*
X0003194454Y0003250772D01*
X0003188830Y0003248897D01*
X0003186955Y0003247022D01*
X0003153209Y0003250772D02*
X0003160708Y0003250772D01*
X0003164458Y0003248897D01*
X0003166332Y0003247022D01*
X0003170082Y0003241398D01*
X0003171957Y0003233899D01*
X0003171957Y0003218901D01*
X0003170082Y0003215151D01*
X0003168207Y0003213277D01*
X0003164458Y0003211402D01*
X0003156959Y0003211402D01*
X0003153209Y0003213277D01*
X0003151334Y0003215151D01*
X0003149460Y0003218901D01*
X0003149460Y0003228275D01*
X0003151334Y0003232024D01*
X0003153209Y0003233899D01*
X0003156959Y0003235774D01*
X0003164458Y0003235774D01*
X0003168207Y0003233899D01*
X0003170082Y0003232024D01*
X0003171957Y0003228275D01*
X0000453352Y0002086876D02*
X0000455226Y0002088751D01*
X0000457101Y0002094375D01*
X0000457101Y0002098125D01*
X0000455226Y0002103749D01*
X0000451477Y0002107499D01*
X0000447727Y0002109373D01*
X0000440228Y0002111248D01*
X0000434604Y0002111248D01*
X0000427105Y0002109373D01*
X0000423355Y0002107499D01*
X0000419606Y0002103749D01*
X0000417731Y0002098125D01*
X0000417731Y0002094375D01*
X0000419606Y0002088751D01*
X0000421481Y0002086876D01*
X0000417731Y0002073753D02*
X0000417731Y0002047506D01*
X0000457101Y0002064379D01*
X0000791758Y0002448380D02*
X0000793633Y0002446505D01*
X0000799257Y0002444630D01*
X0000803007Y0002444630D01*
X0000808631Y0002446505D01*
X0000812380Y0002450255D01*
X0000814255Y0002454004D01*
X0000816130Y0002461503D01*
X0000816130Y0002467127D01*
X0000814255Y0002474626D01*
X0000812380Y0002478376D01*
X0000808631Y0002482125D01*
X0000803007Y0002484000D01*
X0000799257Y0002484000D01*
X0000793633Y0002482125D01*
X0000791758Y0002480251D01*
X0000773010Y0002444630D02*
X0000765511Y0002444630D01*
X0000761762Y0002446505D01*
X0000759887Y0002448380D01*
X0000756137Y0002454004D01*
X0000754263Y0002461503D01*
X0000754263Y0002476501D01*
X0000756137Y0002480251D01*
X0000758012Y0002482125D01*
X0000761762Y0002484000D01*
X0000769261Y0002484000D01*
X0000773010Y0002482125D01*
X0000774885Y0002480251D01*
X0000776760Y0002476501D01*
X0000776760Y0002467127D01*
X0000774885Y0002463378D01*
X0000773010Y0002461503D01*
X0000769261Y0002459628D01*
X0000761762Y0002459628D01*
X0000758012Y0002461503D01*
X0000756137Y0002463378D01*
X0000754263Y0002467127D01*
X0002902002Y0001854521D02*
X0002903877Y0001852647D01*
X0002909501Y0001850772D01*
X0002913250Y0001850772D01*
X0002918875Y0001852647D01*
X0002922624Y0001856396D01*
X0002924499Y0001860146D01*
X0002926374Y0001867645D01*
X0002926374Y0001873269D01*
X0002924499Y0001880768D01*
X0002922624Y0001884518D01*
X0002918875Y0001888267D01*
X0002913250Y0001890142D01*
X0002909501Y0001890142D01*
X0002903877Y0001888267D01*
X0002902002Y0001886392D01*
X0002864506Y0001850772D02*
X0002887004Y0001850772D01*
X0002875755Y0001850772D02*
X0002875755Y0001890142D01*
X0002879505Y0001884518D01*
X0002883254Y0001880768D01*
X0002887004Y0001878893D01*
X0002851383Y0001890142D02*
X0002827011Y0001890142D01*
X0002840134Y0001875144D01*
X0002834510Y0001875144D01*
X0002830761Y0001873269D01*
X0002828886Y0001871394D01*
X0002827011Y0001867645D01*
X0002827011Y0001858271D01*
X0002828886Y0001854521D01*
X0002830761Y0001852647D01*
X0002834510Y0001850772D01*
X0002845759Y0001850772D01*
X0002849508Y0001852647D01*
X0002851383Y0001854521D01*
X0003515388Y0002110033D02*
X0003517262Y0002108159D01*
X0003522887Y0002106284D01*
X0003526636Y0002106284D01*
X0003532260Y0002108159D01*
X0003536010Y0002111908D01*
X0003537885Y0002115658D01*
X0003539760Y0002123157D01*
X0003539760Y0002128781D01*
X0003537885Y0002136280D01*
X0003536010Y0002140030D01*
X0003532260Y0002143779D01*
X0003526636Y0002145654D01*
X0003522887Y0002145654D01*
X0003517262Y0002143779D01*
X0003515388Y0002141904D01*
X0003477892Y0002106284D02*
X0003500389Y0002106284D01*
X0003489141Y0002106284D02*
X0003489141Y0002145654D01*
X0003492890Y0002140030D01*
X0003496640Y0002136280D01*
X0003500389Y0002134405D01*
X0003444146Y0002132530D02*
X0003444146Y0002106284D01*
X0003453520Y0002147529D02*
X0003462894Y0002119407D01*
X0003438522Y0002119407D01*
X0002920427Y0002428332D02*
X0002922302Y0002426458D01*
X0002927926Y0002424583D01*
X0002931676Y0002424583D01*
X0002937300Y0002426458D01*
X0002941049Y0002430207D01*
X0002942924Y0002433957D01*
X0002944799Y0002441456D01*
X0002944799Y0002447080D01*
X0002942924Y0002454579D01*
X0002941049Y0002458329D01*
X0002937300Y0002462078D01*
X0002931676Y0002463953D01*
X0002927926Y0002463953D01*
X0002922302Y0002462078D01*
X0002920427Y0002460203D01*
X0002882932Y0002424583D02*
X0002905429Y0002424583D01*
X0002894180Y0002424583D02*
X0002894180Y0002463953D01*
X0002897930Y0002458329D01*
X0002901679Y0002454579D01*
X0002905429Y0002452704D01*
X0002847311Y0002463953D02*
X0002866059Y0002463953D01*
X0002867933Y0002445205D01*
X0002866059Y0002447080D01*
X0002862309Y0002448955D01*
X0002852935Y0002448955D01*
X0002849186Y0002447080D01*
X0002847311Y0002445205D01*
X0002845436Y0002441456D01*
X0002845436Y0002432082D01*
X0002847311Y0002428332D01*
X0002849186Y0002426458D01*
X0002852935Y0002424583D01*
X0002862309Y0002424583D01*
X0002866059Y0002426458D01*
X0002867933Y0002428332D01*
X0002164600Y0002675466D02*
X0002166475Y0002673592D01*
X0002172099Y0002671717D01*
X0002175849Y0002671717D01*
X0002181473Y0002673592D01*
X0002185223Y0002677341D01*
X0002187097Y0002681091D01*
X0002188972Y0002688590D01*
X0002188972Y0002694214D01*
X0002187097Y0002701713D01*
X0002185223Y0002705463D01*
X0002181473Y0002709212D01*
X0002175849Y0002711087D01*
X0002172099Y0002711087D01*
X0002166475Y0002709212D01*
X0002164600Y0002707337D01*
X0002127105Y0002671717D02*
X0002149602Y0002671717D01*
X0002138353Y0002671717D02*
X0002138353Y0002711087D01*
X0002142103Y0002705463D01*
X0002145852Y0002701713D01*
X0002149602Y0002699838D01*
X0002093359Y0002711087D02*
X0002100858Y0002711087D01*
X0002104608Y0002709212D01*
X0002106482Y0002707337D01*
X0002110232Y0002701713D01*
X0002112107Y0002694214D01*
X0002112107Y0002679216D01*
X0002110232Y0002675466D01*
X0002108357Y0002673592D01*
X0002104608Y0002671717D01*
X0002097109Y0002671717D01*
X0002093359Y0002673592D01*
X0002091484Y0002675466D01*
X0002089610Y0002679216D01*
X0002089610Y0002688590D01*
X0002091484Y0002692339D01*
X0002093359Y0002694214D01*
X0002097109Y0002696089D01*
X0002104608Y0002696089D01*
X0002108357Y0002694214D01*
X0002110232Y0002692339D01*
X0002112107Y0002688590D01*
X0003484904Y0002885124D02*
X0003504589Y0002919220D01*
X0003496471Y0002923907D01*
X0003490663Y0002925095D01*
X0003485541Y0002923723D01*
X0003482043Y0002921413D01*
X0003476670Y0002915856D01*
X0003473857Y0002910985D01*
X0003471731Y0002903553D01*
X0003471480Y0002899369D01*
X0003472853Y0002894247D01*
X0003476786Y0002889811D01*
X0003484904Y0002885124D01*
X0003432949Y0002915120D02*
X0003452432Y0002903872D01*
X0003442691Y0002909496D02*
X0003462376Y0002943592D01*
X0003462811Y0002936846D01*
X0003464183Y0002931724D01*
X0003466493Y0002928226D01*
X0002399241Y0003045479D02*
X0002411573Y0003040990D01*
X0002404519Y0003021611D02*
X0002417985Y0003058607D01*
X0002400368Y0003065019D01*
X0002353430Y0003040206D02*
X0002374570Y0003032512D01*
X0002364000Y0003036359D02*
X0002377466Y0003073355D01*
X0002379065Y0003066787D01*
X0002381306Y0003061982D01*
X0002384189Y0003058937D01*
X0000317731Y0002113123D02*
X0000345852Y0002113123D01*
X0000351477Y0002114998D01*
X0000355226Y0002118747D01*
X0000357101Y0002124371D01*
X0000357101Y0002128121D01*
X0000357101Y0002094375D02*
X0000317731Y0002094375D01*
X0000317731Y0002079377D01*
X0000319606Y0002075628D01*
X0000321481Y0002073753D01*
X0000325230Y0002071878D01*
X0000330854Y0002071878D01*
X0000334604Y0002073753D01*
X0000336479Y0002075628D01*
X0000338353Y0002079377D01*
X0000338353Y0002094375D01*
X0000357101Y0002034383D02*
X0000357101Y0002056880D01*
X0000357101Y0002045631D02*
X0000317731Y0002045631D01*
X0000323355Y0002049381D01*
X0000327105Y0002053130D01*
X0000328980Y0002056880D01*
X0002642099Y0002621874D02*
X0002642099Y0002593753D01*
X0002643974Y0002588129D01*
X0002647724Y0002584379D01*
X0002653348Y0002582504D01*
X0002657097Y0002582504D01*
X0002623352Y0002582504D02*
X0002623352Y0002621874D01*
X0002608353Y0002621874D01*
X0002604604Y0002620000D01*
X0002602729Y0002618125D01*
X0002600854Y0002614375D01*
X0002600854Y0002608751D01*
X0002602729Y0002605001D01*
X0002604604Y0002603127D01*
X0002608353Y0002601252D01*
X0002623352Y0002601252D01*
X0002578357Y0002605001D02*
X0002582107Y0002606876D01*
X0002583981Y0002608751D01*
X0002585856Y0002612500D01*
X0002585856Y0002614375D01*
X0002583981Y0002618125D01*
X0002582107Y0002620000D01*
X0002578357Y0002621874D01*
X0002570858Y0002621874D01*
X0002567109Y0002620000D01*
X0002565234Y0002618125D01*
X0002563359Y0002614375D01*
X0002563359Y0002612500D01*
X0002565234Y0002608751D01*
X0002567109Y0002606876D01*
X0002570858Y0002605001D01*
X0002578357Y0002605001D01*
X0002582107Y0002603127D01*
X0002583981Y0002601252D01*
X0002585856Y0002597502D01*
X0002585856Y0002590003D01*
X0002583981Y0002586254D01*
X0002582107Y0002584379D01*
X0002578357Y0002582504D01*
X0002570858Y0002582504D01*
X0002567109Y0002584379D01*
X0002565234Y0002586254D01*
X0002563359Y0002590003D01*
X0002563359Y0002597502D01*
X0002565234Y0002601252D01*
X0002567109Y0002603127D01*
X0002570858Y0002605001D01*
X0001153040Y0002538755D02*
X0001156790Y0002540629D01*
X0001160539Y0002544379D01*
X0001166164Y0002550003D01*
X0001169913Y0002551878D01*
X0001173663Y0002551878D01*
X0001171788Y0002542504D02*
X0001175538Y0002544379D01*
X0001179287Y0002548129D01*
X0001181162Y0002555628D01*
X0001181162Y0002568751D01*
X0001179287Y0002576250D01*
X0001175538Y0002580000D01*
X0001171788Y0002581874D01*
X0001164289Y0002581874D01*
X0001160539Y0002580000D01*
X0001156790Y0002576250D01*
X0001154915Y0002568751D01*
X0001154915Y0002555628D01*
X0001156790Y0002548129D01*
X0001160539Y0002544379D01*
X0001164289Y0002542504D01*
X0001171788Y0002542504D01*
X0001117420Y0002542504D02*
X0001139917Y0002542504D01*
X0001128668Y0002542504D02*
X0001128668Y0002581874D01*
X0001132418Y0002576250D01*
X0001136167Y0002572500D01*
X0001139917Y0002570626D01*
X0000913749Y0003124778D02*
X0000917499Y0003126653D01*
X0000921248Y0003130403D01*
X0000926872Y0003136027D01*
X0000930622Y0003137902D01*
X0000934371Y0003137902D01*
X0000932497Y0003128528D02*
X0000936246Y0003130403D01*
X0000939996Y0003134152D01*
X0000941870Y0003141651D01*
X0000941870Y0003154775D01*
X0000939996Y0003162274D01*
X0000936246Y0003166023D01*
X0000932497Y0003167898D01*
X0000924998Y0003167898D01*
X0000921248Y0003166023D01*
X0000917499Y0003162274D01*
X0000915624Y0003154775D01*
X0000915624Y0003141651D01*
X0000917499Y0003134152D01*
X0000921248Y0003130403D01*
X0000924998Y0003128528D01*
X0000932497Y0003128528D01*
X0000900626Y0003164148D02*
X0000898751Y0003166023D01*
X0000895001Y0003167898D01*
X0000885627Y0003167898D01*
X0000881878Y0003166023D01*
X0000880003Y0003164148D01*
X0000878128Y0003160399D01*
X0000878128Y0003156649D01*
X0000880003Y0003151025D01*
X0000902500Y0003128528D01*
X0000878128Y0003128528D01*
X0001231522Y0002827032D02*
X0001244645Y0002845779D01*
X0001254019Y0002827032D02*
X0001254019Y0002866402D01*
X0001239021Y0002866402D01*
X0001235271Y0002864527D01*
X0001233397Y0002862652D01*
X0001231522Y0002858903D01*
X0001231522Y0002853278D01*
X0001233397Y0002849529D01*
X0001235271Y0002847654D01*
X0001239021Y0002845779D01*
X0001254019Y0002845779D01*
X0001195901Y0002866402D02*
X0001214649Y0002866402D01*
X0001216524Y0002847654D01*
X0001214649Y0002849529D01*
X0001210899Y0002851404D01*
X0001201525Y0002851404D01*
X0001197776Y0002849529D01*
X0001195901Y0002847654D01*
X0001194026Y0002843905D01*
X0001194026Y0002834531D01*
X0001195901Y0002830781D01*
X0001197776Y0002828907D01*
X0001201525Y0002827032D01*
X0001210899Y0002827032D01*
X0001214649Y0002828907D01*
X0001216524Y0002830781D01*
X0001093727Y0002825654D02*
X0001106850Y0002844401D01*
X0001116224Y0002825654D02*
X0001116224Y0002865024D01*
X0001101226Y0002865024D01*
X0001097476Y0002863149D01*
X0001095601Y0002861274D01*
X0001093727Y0002857525D01*
X0001093727Y0002851901D01*
X0001095601Y0002848151D01*
X0001097476Y0002846276D01*
X0001101226Y0002844401D01*
X0001116224Y0002844401D01*
X0001071229Y0002848151D02*
X0001074979Y0002850026D01*
X0001076854Y0002851901D01*
X0001078728Y0002855650D01*
X0001078728Y0002857525D01*
X0001076854Y0002861274D01*
X0001074979Y0002863149D01*
X0001071229Y0002865024D01*
X0001063730Y0002865024D01*
X0001059981Y0002863149D01*
X0001058106Y0002861274D01*
X0001056231Y0002857525D01*
X0001056231Y0002855650D01*
X0001058106Y0002851901D01*
X0001059981Y0002850026D01*
X0001063730Y0002848151D01*
X0001071229Y0002848151D01*
X0001074979Y0002846276D01*
X0001076854Y0002844401D01*
X0001078728Y0002840652D01*
X0001078728Y0002833153D01*
X0001076854Y0002829403D01*
X0001074979Y0002827529D01*
X0001071229Y0002825654D01*
X0001063730Y0002825654D01*
X0001059981Y0002827529D01*
X0001058106Y0002829403D01*
X0001056231Y0002833153D01*
X0001056231Y0002840652D01*
X0001058106Y0002844401D01*
X0001059981Y0002846276D01*
X0001063730Y0002848151D01*
X0002917750Y0002369433D02*
X0002930873Y0002388181D01*
X0002940247Y0002369433D02*
X0002940247Y0002408803D01*
X0002925249Y0002408803D01*
X0002921499Y0002406929D01*
X0002919625Y0002405054D01*
X0002917750Y0002401304D01*
X0002917750Y0002395680D01*
X0002919625Y0002391931D01*
X0002921499Y0002390056D01*
X0002925249Y0002388181D01*
X0002940247Y0002388181D01*
X0002880254Y0002369433D02*
X0002902752Y0002369433D01*
X0002891503Y0002369433D02*
X0002891503Y0002408803D01*
X0002895253Y0002403179D01*
X0002899002Y0002399430D01*
X0002902752Y0002397555D01*
X0002867131Y0002408803D02*
X0002842759Y0002408803D01*
X0002855882Y0002393805D01*
X0002850258Y0002393805D01*
X0002846509Y0002391931D01*
X0002844634Y0002390056D01*
X0002842759Y0002386306D01*
X0002842759Y0002376932D01*
X0002844634Y0002373183D01*
X0002846509Y0002371308D01*
X0002850258Y0002369433D01*
X0002861507Y0002369433D01*
X0002865256Y0002371308D01*
X0002867131Y0002373183D01*
X0002484600Y0002382504D02*
X0002497724Y0002401252D01*
X0002507097Y0002382504D02*
X0002507097Y0002421874D01*
X0002492099Y0002421874D01*
X0002488350Y0002420000D01*
X0002486475Y0002418125D01*
X0002484600Y0002414375D01*
X0002484600Y0002408751D01*
X0002486475Y0002405001D01*
X0002488350Y0002403127D01*
X0002492099Y0002401252D01*
X0002507097Y0002401252D01*
X0002447105Y0002382504D02*
X0002469602Y0002382504D01*
X0002458353Y0002382504D02*
X0002458353Y0002421874D01*
X0002462103Y0002416250D01*
X0002465852Y0002412500D01*
X0002469602Y0002410626D01*
X0002413359Y0002408751D02*
X0002413359Y0002382504D01*
X0002422733Y0002423749D02*
X0002432107Y0002395628D01*
X0002407735Y0002395628D01*
X0002484600Y0002282504D02*
X0002497724Y0002301252D01*
X0002507097Y0002282504D02*
X0002507097Y0002321874D01*
X0002492099Y0002321874D01*
X0002488350Y0002320000D01*
X0002486475Y0002318125D01*
X0002484600Y0002314375D01*
X0002484600Y0002308751D01*
X0002486475Y0002305001D01*
X0002488350Y0002303127D01*
X0002492099Y0002301252D01*
X0002507097Y0002301252D01*
X0002447105Y0002282504D02*
X0002469602Y0002282504D01*
X0002458353Y0002282504D02*
X0002458353Y0002321874D01*
X0002462103Y0002316250D01*
X0002465852Y0002312500D01*
X0002469602Y0002310626D01*
X0002411484Y0002321874D02*
X0002430232Y0002321874D01*
X0002432107Y0002303127D01*
X0002430232Y0002305001D01*
X0002426482Y0002306876D01*
X0002417109Y0002306876D01*
X0002413359Y0002305001D01*
X0002411484Y0002303127D01*
X0002409610Y0002299377D01*
X0002409610Y0002290003D01*
X0002411484Y0002286254D01*
X0002413359Y0002284379D01*
X0002417109Y0002282504D01*
X0002426482Y0002282504D01*
X0002430232Y0002284379D01*
X0002432107Y0002286254D01*
X0001242725Y0002196756D02*
X0001255849Y0002215504D01*
X0001265223Y0002196756D02*
X0001265223Y0002236126D01*
X0001250224Y0002236126D01*
X0001246475Y0002234251D01*
X0001244600Y0002232377D01*
X0001242725Y0002228627D01*
X0001242725Y0002223003D01*
X0001244600Y0002219253D01*
X0001246475Y0002217379D01*
X0001250224Y0002215504D01*
X0001265223Y0002215504D01*
X0001231477Y0002236126D02*
X0001218353Y0002196756D01*
X0001205230Y0002236126D01*
X0001171484Y0002196756D02*
X0001193981Y0002196756D01*
X0001182733Y0002196756D02*
X0001182733Y0002236126D01*
X0001186482Y0002230502D01*
X0001190232Y0002226752D01*
X0001193981Y0002224878D01*
X0003689287Y0002853607D02*
X0003689287Y0002821736D01*
X0003687412Y0002817986D01*
X0003685538Y0002816111D01*
X0003681788Y0002814236D01*
X0003674289Y0002814236D01*
X0003670539Y0002816111D01*
X0003668665Y0002817986D01*
X0003666790Y0002821736D01*
X0003666790Y0002853607D01*
X0003651792Y0002853607D02*
X0003625545Y0002853607D01*
X0003642418Y0002814236D01*
X0001749287Y0002481874D02*
X0001749287Y0002450003D01*
X0001747412Y0002446254D01*
X0001745538Y0002444379D01*
X0001741788Y0002442504D01*
X0001734289Y0002442504D01*
X0001730539Y0002444379D01*
X0001728665Y0002446254D01*
X0001726790Y0002450003D01*
X0001726790Y0002481874D01*
X0001706167Y0002442504D02*
X0001698668Y0002442504D01*
X0001694919Y0002444379D01*
X0001693044Y0002446254D01*
X0001689295Y0002451878D01*
X0001687420Y0002459377D01*
X0001687420Y0002474375D01*
X0001689295Y0002478125D01*
X0001691169Y0002480000D01*
X0001694919Y0002481874D01*
X0001702418Y0002481874D01*
X0001706167Y0002480000D01*
X0001708042Y0002478125D01*
X0001709917Y0002474375D01*
X0001709917Y0002465001D01*
X0001708042Y0002461252D01*
X0001706167Y0002459377D01*
X0001702418Y0002457502D01*
X0001694919Y0002457502D01*
X0001691169Y0002459377D01*
X0001689295Y0002461252D01*
X0001687420Y0002465001D01*
X0001381897Y0002221252D02*
X0001381897Y0002202504D01*
X0001395020Y0002241874D02*
X0001381897Y0002221252D01*
X0001368773Y0002241874D01*
X0001335028Y0002202504D02*
X0001357525Y0002202504D01*
X0001346276Y0002202504D02*
X0001346276Y0002241874D01*
X0001350026Y0002236250D01*
X0001353775Y0002232500D01*
X0001357525Y0002230626D01*
X0001675440Y0002709047D02*
X0001675440Y0002690300D01*
X0001688563Y0002729670D02*
X0001675440Y0002709047D01*
X0001662317Y0002729670D01*
X0001651068Y0002725920D02*
X0001649193Y0002727795D01*
X0001645444Y0002729670D01*
X0001636070Y0002729670D01*
X0001632320Y0002727795D01*
X0001630446Y0002725920D01*
X0001628571Y0002722170D01*
X0001628571Y0002718421D01*
X0001630446Y0002712797D01*
X0001652943Y0002690300D01*
X0001628571Y0002690300D01*
G04 next file*
%LPD*%
G04 #@! TF.GenerationSoftware,KiCad,Pcbnew,(5.1.0)-1*
G04 #@! TF.CreationDate,2020-04-13T11:23:52+02:00*
G04 #@! TF.ProjectId,objet_chambre,6f626a65-745f-4636-9861-6d6272652e6b,rev?*
G04 #@! TF.SameCoordinates,PX9fa1b90PY2b1e160*
G04 #@! TF.FileFunction,Legend,Bot*
G04 #@! TF.FilePolarity,Positive*
G04 Gerber Fmt 4.6, Leading zero omitted, Abs format (unit mm)*
G04 Created by KiCad (PCBNEW (5.1.0)-1) date 2020-04-13 11:23:52*
G04 APERTURE LIST*
G04 APERTURE END LIST*
D22*
X0003682725Y0000670151D02*
X0003684600Y0000668277D01*
X0003690224Y0000666402D01*
X0003693974Y0000666402D01*
X0003699598Y0000668277D01*
X0003703348Y0000672026D01*
X0003705223Y0000675776D01*
X0003707097Y0000683275D01*
X0003707097Y0000688899D01*
X0003705223Y0000696398D01*
X0003703348Y0000700148D01*
X0003699598Y0000703897D01*
X0003693974Y0000705772D01*
X0003690224Y0000705772D01*
X0003684600Y0000703897D01*
X0003682725Y0000702022D01*
X0003647105Y0000666402D02*
X0003665852Y0000666402D01*
X0003665852Y0000705772D01*
X0003633981Y0000666402D02*
X0003633981Y0000705772D01*
X0003611484Y0000666402D02*
X0003628357Y0000688899D01*
X0003611484Y0000705772D02*
X0003633981Y0000683275D01*
X0003699598Y0000601441D02*
X0003699598Y0000640811D01*
X0003690224Y0000640811D01*
X0003684600Y0000638937D01*
X0003680851Y0000635187D01*
X0003678976Y0000631437D01*
X0003677101Y0000623938D01*
X0003677101Y0000618314D01*
X0003678976Y0000610815D01*
X0003680851Y0000607066D01*
X0003684600Y0000603316D01*
X0003690224Y0000601441D01*
X0003699598Y0000601441D01*
X0003660228Y0000601441D02*
X0003660228Y0000640811D01*
X0003633981Y0000640811D02*
X0003626482Y0000640811D01*
X0003622733Y0000638937D01*
X0003618983Y0000635187D01*
X0003617109Y0000627688D01*
X0003617109Y0000614565D01*
X0003618983Y0000607066D01*
X0003622733Y0000603316D01*
X0003626482Y0000601441D01*
X0003633981Y0000601441D01*
X0003637731Y0000603316D01*
X0003641481Y0000607066D01*
X0003643355Y0000614565D01*
X0003643355Y0000627688D01*
X0003641481Y0000635187D01*
X0003637731Y0000638937D01*
X0003633981Y0000640811D01*
X0003711784Y0000575851D02*
X0003698661Y0000536481D01*
X0003685538Y0000575851D01*
X0003649917Y0000540230D02*
X0003651792Y0000538355D01*
X0003657416Y0000536481D01*
X0003661166Y0000536481D01*
X0003666790Y0000538355D01*
X0003670539Y0000542105D01*
X0003672414Y0000545854D01*
X0003674289Y0000553353D01*
X0003674289Y0000558978D01*
X0003672414Y0000566477D01*
X0003670539Y0000570226D01*
X0003666790Y0000573976D01*
X0003661166Y0000575851D01*
X0003657416Y0000575851D01*
X0003651792Y0000573976D01*
X0003649917Y0000572101D01*
X0003610547Y0000540230D02*
X0003612422Y0000538355D01*
X0003618046Y0000536481D01*
X0003621796Y0000536481D01*
X0003627420Y0000538355D01*
X0003631169Y0000542105D01*
X0003633044Y0000545854D01*
X0003634919Y0000553353D01*
X0003634919Y0000558978D01*
X0003633044Y0000566477D01*
X0003631169Y0000570226D01*
X0003627420Y0000573976D01*
X0003621796Y0000575851D01*
X0003618046Y0000575851D01*
X0003612422Y0000573976D01*
X0003610547Y0000572101D01*
X0003689287Y0000509015D02*
X0003693037Y0000510890D01*
X0003698661Y0000510890D01*
X0003704285Y0000509015D01*
X0003708035Y0000505266D01*
X0003709910Y0000501516D01*
X0003711784Y0000494017D01*
X0003711784Y0000488393D01*
X0003709910Y0000480894D01*
X0003708035Y0000477144D01*
X0003704285Y0000473395D01*
X0003698661Y0000471520D01*
X0003694911Y0000471520D01*
X0003689287Y0000473395D01*
X0003687412Y0000475270D01*
X0003687412Y0000488393D01*
X0003694911Y0000488393D01*
X0003670539Y0000471520D02*
X0003670539Y0000510890D01*
X0003648042Y0000471520D01*
X0003648042Y0000510890D01*
X0003629295Y0000471520D02*
X0003629295Y0000510890D01*
X0003619921Y0000510890D01*
X0003614296Y0000509015D01*
X0003610547Y0000505266D01*
X0003608672Y0000501516D01*
X0003606797Y0000494017D01*
X0003606797Y0000488393D01*
X0003608672Y0000480894D01*
X0003610547Y0000477144D01*
X0003614296Y0000473395D01*
X0003619921Y0000471520D01*
X0003629295Y0000471520D01*
D23*
X0003119685Y0000775748D02*
X0003119685Y0000718267D01*
X0003244094Y0000775748D02*
X0003244094Y0000651338D01*
X0003244094Y0000775748D02*
X0003207480Y0000775748D01*
X0003119685Y0000775748D02*
X0003156299Y0000775748D01*
D22*
X0001679921Y0000546141D02*
X0002270472Y0000546141D01*
X0002270472Y0000546141D02*
X0002270472Y0000073700D01*
X0002270472Y0000073700D02*
X0001679921Y0000073700D01*
X0001679921Y0000073700D02*
X0001679921Y0000546141D01*
X0001916141Y0000152440D02*
X0001916141Y0000231181D01*
X0001916141Y0000231181D02*
X0001994881Y0000231181D01*
X0001994881Y0000231181D02*
X0001994881Y0000152440D01*
X0001994881Y0000152440D02*
X0001916141Y0000152440D01*
X0001562559Y0001510118D02*
X0001616692Y0001510118D01*
X0001562559Y0001111496D02*
X0001399173Y0001111496D01*
X0001562559Y0001511102D02*
X0001399173Y0001511102D01*
X0001562559Y0001111496D02*
X0001562559Y0001115629D01*
X0001399173Y0001111496D02*
X0001399173Y0001115629D01*
X0001399173Y0001511102D02*
X0001399173Y0001506968D01*
X0001562559Y0001511102D02*
X0001562559Y0001510118D01*
D23*
X0001935669Y0001093543D02*
X0001896299Y0001093543D01*
X0001896299Y0001040000D02*
X0001935669Y0001040000D01*
X0000855669Y0000720551D02*
X0000855669Y0000692992D01*
X0000902913Y0000692992D02*
X0000902913Y0000720551D01*
X0003162519Y0001057244D02*
X0003162519Y0001116299D01*
X0003132992Y0001086771D02*
X0003192047Y0001086771D01*
X0003537755Y0001075787D02*
X0003537755Y0001097755D01*
X0003536181Y0001060314D02*
X0003536181Y0001113228D01*
X0003534606Y0001050826D02*
X0003534606Y0001122716D01*
X0003533031Y0001043307D02*
X0003533031Y0001130236D01*
X0003531456Y0001036968D02*
X0003531456Y0001136574D01*
X0003529881Y0001031377D02*
X0003529881Y0001142165D01*
X0003528307Y0001026299D02*
X0003528307Y0001147244D01*
X0003526732Y0001021653D02*
X0003526732Y0001151889D01*
X0003525157Y0001017362D02*
X0003525157Y0001156181D01*
X0003523582Y0001013307D02*
X0003523582Y0001160236D01*
X0003522007Y0001009527D02*
X0003522007Y0001164015D01*
X0003520433Y0001005944D02*
X0003520433Y0001167598D01*
X0003518858Y0001002519D02*
X0003518858Y0001171023D01*
X0003517283Y0000999291D02*
X0003517283Y0001174251D01*
X0003515708Y0000996181D02*
X0003515708Y0001177362D01*
X0003514133Y0000993188D02*
X0003514133Y0001180354D01*
X0003512559Y0000990354D02*
X0003512559Y0001183188D01*
X0003510984Y0000987598D02*
X0003510984Y0001185944D01*
X0003509409Y0000984921D02*
X0003509409Y0001188622D01*
X0003507834Y0000982362D02*
X0003507834Y0001191181D01*
X0003506259Y0000979881D02*
X0003506259Y0001193661D01*
X0003504685Y0000977440D02*
X0003504685Y0001196102D01*
X0003503110Y0000975118D02*
X0003503110Y0001198425D01*
X0003501535Y0000972834D02*
X0003501535Y0001200708D01*
X0003499960Y0000970669D02*
X0003499960Y0001202874D01*
X0003498385Y0000968503D02*
X0003498385Y0001205039D01*
X0003496811Y0000966417D02*
X0003496811Y0001207125D01*
X0003495236Y0000964409D02*
X0003495236Y0001209133D01*
X0003493661Y0000962440D02*
X0003493661Y0001211102D01*
X0003492086Y0000960511D02*
X0003492086Y0001213031D01*
X0003490511Y0000958622D02*
X0003490511Y0001214921D01*
X0003488937Y0000956771D02*
X0003488937Y0001216771D01*
X0003487362Y0000955000D02*
X0003487362Y0001218543D01*
X0003485787Y0000953267D02*
X0003485787Y0001220275D01*
X0003484212Y0000951535D02*
X0003484212Y0001222007D01*
X0003482637Y0000949881D02*
X0003482637Y0001223661D01*
X0003481062Y0001133267D02*
X0003481062Y0001225275D01*
X0003481062Y0000948267D02*
X0003481062Y0001040275D01*
X0003479488Y0001133267D02*
X0003479488Y0001226889D01*
X0003479488Y0000946653D02*
X0003479488Y0001040275D01*
X0003477913Y0001133267D02*
X0003477913Y0001228425D01*
X0003477913Y0000945118D02*
X0003477913Y0001040275D01*
X0003476338Y0001133267D02*
X0003476338Y0001229960D01*
X0003476338Y0000943582D02*
X0003476338Y0001040275D01*
X0003474763Y0001133267D02*
X0003474763Y0001231456D01*
X0003474763Y0000942086D02*
X0003474763Y0001040275D01*
X0003473188Y0001133267D02*
X0003473188Y0001232913D01*
X0003473188Y0000940629D02*
X0003473188Y0001040275D01*
X0003471614Y0001133267D02*
X0003471614Y0001234330D01*
X0003471614Y0000939212D02*
X0003471614Y0001040275D01*
X0003470039Y0001133267D02*
X0003470039Y0001235747D01*
X0003470039Y0000937795D02*
X0003470039Y0001040275D01*
X0003468464Y0001133267D02*
X0003468464Y0001237125D01*
X0003468464Y0000936417D02*
X0003468464Y0001040275D01*
X0003466889Y0001133267D02*
X0003466889Y0001238464D01*
X0003466889Y0000935078D02*
X0003466889Y0001040275D01*
X0003465314Y0001133267D02*
X0003465314Y0001239763D01*
X0003465314Y0000933779D02*
X0003465314Y0001040275D01*
X0003463740Y0001133267D02*
X0003463740Y0001241062D01*
X0003463740Y0000932480D02*
X0003463740Y0001040275D01*
X0003462165Y0001133267D02*
X0003462165Y0001242322D01*
X0003462165Y0000931220D02*
X0003462165Y0001040275D01*
X0003460590Y0001133267D02*
X0003460590Y0001243543D01*
X0003460590Y0000930000D02*
X0003460590Y0001040275D01*
X0003459015Y0001133267D02*
X0003459015Y0001244763D01*
X0003459015Y0000928779D02*
X0003459015Y0001040275D01*
X0003457440Y0001133267D02*
X0003457440Y0001245944D01*
X0003457440Y0000927598D02*
X0003457440Y0001040275D01*
X0003455866Y0001133267D02*
X0003455866Y0001247086D01*
X0003455866Y0000926456D02*
X0003455866Y0001040275D01*
X0003454291Y0001133267D02*
X0003454291Y0001248228D01*
X0003454291Y0000925314D02*
X0003454291Y0001040275D01*
X0003452716Y0001133267D02*
X0003452716Y0001249370D01*
X0003452716Y0000924173D02*
X0003452716Y0001040275D01*
X0003451141Y0001133267D02*
X0003451141Y0001250433D01*
X0003451141Y0000923110D02*
X0003451141Y0001040275D01*
X0003449566Y0001133267D02*
X0003449566Y0001251535D01*
X0003449566Y0000922007D02*
X0003449566Y0001040275D01*
X0003447992Y0001133267D02*
X0003447992Y0001252559D01*
X0003447992Y0000920984D02*
X0003447992Y0001040275D01*
X0003446417Y0001133267D02*
X0003446417Y0001253582D01*
X0003446417Y0000919960D02*
X0003446417Y0001040275D01*
X0003444842Y0001133267D02*
X0003444842Y0001254606D01*
X0003444842Y0000918937D02*
X0003444842Y0001040275D01*
X0003443267Y0001133267D02*
X0003443267Y0001255590D01*
X0003443267Y0000917952D02*
X0003443267Y0001040275D01*
X0003441692Y0001133267D02*
X0003441692Y0001256535D01*
X0003441692Y0000917007D02*
X0003441692Y0001040275D01*
X0003440118Y0001133267D02*
X0003440118Y0001257480D01*
X0003440118Y0000916062D02*
X0003440118Y0001040275D01*
X0003438543Y0001133267D02*
X0003438543Y0001258425D01*
X0003438543Y0000915118D02*
X0003438543Y0001040275D01*
X0003436968Y0001133267D02*
X0003436968Y0001259330D01*
X0003436968Y0000914212D02*
X0003436968Y0001040275D01*
X0003435393Y0001133267D02*
X0003435393Y0001260196D01*
X0003435393Y0000913346D02*
X0003435393Y0001040275D01*
X0003433818Y0001133267D02*
X0003433818Y0001261102D01*
X0003433818Y0000912440D02*
X0003433818Y0001040275D01*
X0003432244Y0001133267D02*
X0003432244Y0001261929D01*
X0003432244Y0000911614D02*
X0003432244Y0001040275D01*
X0003430669Y0001133267D02*
X0003430669Y0001262755D01*
X0003430669Y0000910787D02*
X0003430669Y0001040275D01*
X0003429094Y0001133267D02*
X0003429094Y0001263582D01*
X0003429094Y0000909960D02*
X0003429094Y0001040275D01*
X0003427519Y0001133267D02*
X0003427519Y0001264370D01*
X0003427519Y0000909173D02*
X0003427519Y0001040275D01*
X0003425944Y0001133267D02*
X0003425944Y0001265157D01*
X0003425944Y0000908385D02*
X0003425944Y0001040275D01*
X0003424370Y0001133267D02*
X0003424370Y0001265905D01*
X0003424370Y0000907637D02*
X0003424370Y0001040275D01*
X0003422795Y0001133267D02*
X0003422795Y0001266653D01*
X0003422795Y0000906889D02*
X0003422795Y0001040275D01*
X0003421220Y0001133267D02*
X0003421220Y0001267401D01*
X0003421220Y0000906141D02*
X0003421220Y0001040275D01*
X0003419645Y0001133267D02*
X0003419645Y0001268110D01*
X0003419645Y0000905433D02*
X0003419645Y0001040275D01*
X0003418070Y0001133267D02*
X0003418070Y0001268818D01*
X0003418070Y0000904724D02*
X0003418070Y0001040275D01*
X0003416496Y0001133267D02*
X0003416496Y0001269488D01*
X0003416496Y0000904055D02*
X0003416496Y0001040275D01*
X0003414921Y0001133267D02*
X0003414921Y0001270157D01*
X0003414921Y0000903385D02*
X0003414921Y0001040275D01*
X0003413346Y0001133267D02*
X0003413346Y0001270787D01*
X0003413346Y0000902755D02*
X0003413346Y0001040275D01*
X0003411771Y0001133267D02*
X0003411771Y0001271456D01*
X0003411771Y0000902086D02*
X0003411771Y0001040275D01*
X0003410196Y0001133267D02*
X0003410196Y0001272047D01*
X0003410196Y0000901496D02*
X0003410196Y0001040275D01*
X0003408622Y0001133267D02*
X0003408622Y0001272677D01*
X0003408622Y0000900866D02*
X0003408622Y0001040275D01*
X0003407047Y0001133267D02*
X0003407047Y0001273267D01*
X0003407047Y0000900275D02*
X0003407047Y0001040275D01*
X0003405472Y0001133267D02*
X0003405472Y0001273818D01*
X0003405472Y0000899724D02*
X0003405472Y0001040275D01*
X0003403897Y0001133267D02*
X0003403897Y0001274370D01*
X0003403897Y0000899173D02*
X0003403897Y0001040275D01*
X0003402322Y0001133267D02*
X0003402322Y0001274921D01*
X0003402322Y0000898622D02*
X0003402322Y0001040275D01*
X0003400748Y0001133267D02*
X0003400748Y0001275433D01*
X0003400748Y0000898110D02*
X0003400748Y0001040275D01*
X0003399173Y0001133267D02*
X0003399173Y0001275984D01*
X0003399173Y0000897559D02*
X0003399173Y0001040275D01*
X0003397598Y0001133267D02*
X0003397598Y0001276456D01*
X0003397598Y0000897086D02*
X0003397598Y0001040275D01*
X0003396023Y0001133267D02*
X0003396023Y0001276968D01*
X0003396023Y0000896574D02*
X0003396023Y0001040275D01*
X0003394448Y0001133267D02*
X0003394448Y0001277440D01*
X0003394448Y0000896102D02*
X0003394448Y0001040275D01*
X0003392874Y0001133267D02*
X0003392874Y0001277874D01*
X0003392874Y0000895669D02*
X0003392874Y0001040275D01*
X0003391299Y0001133267D02*
X0003391299Y0001278307D01*
X0003391299Y0000895236D02*
X0003391299Y0001040275D01*
X0003389724Y0001133267D02*
X0003389724Y0001278740D01*
X0003389724Y0000894803D02*
X0003389724Y0001040275D01*
X0003388149Y0000894370D02*
X0003388149Y0001279173D01*
X0003386574Y0000893976D02*
X0003386574Y0001279566D01*
X0003385000Y0000893582D02*
X0003385000Y0001279960D01*
X0003383425Y0000893188D02*
X0003383425Y0001280354D01*
X0003381850Y0000892834D02*
X0003381850Y0001280708D01*
X0003380275Y0000892480D02*
X0003380275Y0001281062D01*
X0003378700Y0000892165D02*
X0003378700Y0001281377D01*
X0003377125Y0000891850D02*
X0003377125Y0001281692D01*
X0003375551Y0000891535D02*
X0003375551Y0001282007D01*
X0003373976Y0000891220D02*
X0003373976Y0001282322D01*
X0003372401Y0000890944D02*
X0003372401Y0001282598D01*
X0003370826Y0000890669D02*
X0003370826Y0001282874D01*
X0003369251Y0000890433D02*
X0003369251Y0001283110D01*
X0003367677Y0000890196D02*
X0003367677Y0001283346D01*
X0003366102Y0000889960D02*
X0003366102Y0001283582D01*
X0003364488Y0000889724D02*
X0003364488Y0001283818D01*
X0003362913Y0000889527D02*
X0003362913Y0001284015D01*
X0003361338Y0000889330D02*
X0003361338Y0001284212D01*
X0003359763Y0000889133D02*
X0003359763Y0001284409D01*
X0003358188Y0000888976D02*
X0003358188Y0001284566D01*
X0003356614Y0000888818D02*
X0003356614Y0001284724D01*
X0003355039Y0000888700D02*
X0003355039Y0001284842D01*
X0003353464Y0000888543D02*
X0003353464Y0001284999D01*
X0003351889Y0000888425D02*
X0003351889Y0001285118D01*
X0003350314Y0000888346D02*
X0003350314Y0001285196D01*
X0003348740Y0000888228D02*
X0003348740Y0001285314D01*
X0003347165Y0000888149D02*
X0003347165Y0001285393D01*
X0003345590Y0000888070D02*
X0003345590Y0001285472D01*
X0003344015Y0000888031D02*
X0003344015Y0001285511D01*
X0003342440Y0000887992D02*
X0003342440Y0001285551D01*
X0003340866Y0000887952D02*
X0003340866Y0001285590D01*
X0003339291Y0000887952D02*
X0003339291Y0001285590D01*
X0003337716Y0000887952D02*
X0003337716Y0001285590D01*
X0003530568Y0001141230D02*
G75*
G02X0003530604Y0001032440I-0000192851J-0000054459D01*
G01*
X0003530568Y0001141230D02*
G75*
G03X0003144828Y0001141102I-0000192851J-0000054459D01*
G01*
X0003530568Y0001032312D02*
G75*
G02X0003144828Y0001032440I-0000192851J0000054459D01*
G01*
X0001543858Y0000739094D02*
X0001543858Y0000766653D01*
X0001496614Y0000766653D02*
X0001496614Y0000739094D01*
X0001496614Y0000926653D02*
X0001496614Y0000899094D01*
X0001543858Y0000899094D02*
X0001543858Y0000926653D01*
X0003205984Y0001292677D02*
X0003154803Y0001292677D01*
X0003180393Y0001269055D02*
X0003180393Y0001316299D01*
X0003198818Y0001530905D02*
X0003161968Y0001530905D01*
X0003207007Y0001529330D02*
X0003153779Y0001529330D01*
X0003213228Y0001527755D02*
X0003147559Y0001527755D01*
X0003218425Y0001526181D02*
X0003142362Y0001526181D01*
X0003222952Y0001524606D02*
X0003137834Y0001524606D01*
X0003227007Y0001523031D02*
X0003133779Y0001523031D01*
X0003230708Y0001521456D02*
X0003130078Y0001521456D01*
X0003234094Y0001519881D02*
X0003126692Y0001519881D01*
X0003237283Y0001518307D02*
X0003123503Y0001518307D01*
X0003240236Y0001516732D02*
X0003120551Y0001516732D01*
X0003243031Y0001515157D02*
X0003117755Y0001515157D01*
X0003245669Y0001513582D02*
X0003115118Y0001513582D01*
X0003248149Y0001512007D02*
X0003112637Y0001512007D01*
X0003250511Y0001510433D02*
X0003110275Y0001510433D01*
X0003252795Y0001508858D02*
X0003107992Y0001508858D01*
X0003254960Y0001507283D02*
X0003105826Y0001507283D01*
X0003257007Y0001505708D02*
X0003103779Y0001505708D01*
X0003259015Y0001504133D02*
X0003101771Y0001504133D01*
X0003260905Y0001502559D02*
X0003099881Y0001502559D01*
X0003262755Y0001500984D02*
X0003098031Y0001500984D01*
X0003264527Y0001499409D02*
X0003096259Y0001499409D01*
X0003266220Y0001497834D02*
X0003094566Y0001497834D01*
X0003267874Y0001496259D02*
X0003092913Y0001496259D01*
X0003269448Y0001494685D02*
X0003091338Y0001494685D01*
X0003270984Y0001493110D02*
X0003089803Y0001493110D01*
X0003141810Y0001491535D02*
X0003088307Y0001491535D01*
X0003272480Y0001491535D02*
X0003218976Y0001491535D01*
X0003141810Y0001489960D02*
X0003086889Y0001489960D01*
X0003273897Y0001489960D02*
X0003218976Y0001489960D01*
X0003141810Y0001488385D02*
X0003085472Y0001488385D01*
X0003275314Y0001488385D02*
X0003218976Y0001488385D01*
X0003141810Y0001486811D02*
X0003084133Y0001486811D01*
X0003276653Y0001486811D02*
X0003218976Y0001486811D01*
X0003141810Y0001485236D02*
X0003082834Y0001485236D01*
X0003277952Y0001485236D02*
X0003218976Y0001485236D01*
X0003141810Y0001483661D02*
X0003081574Y0001483661D01*
X0003279212Y0001483661D02*
X0003218976Y0001483661D01*
X0003141810Y0001482086D02*
X0003080393Y0001482086D01*
X0003280393Y0001482086D02*
X0003218976Y0001482086D01*
X0003141810Y0001480511D02*
X0003079212Y0001480511D01*
X0003281574Y0001480511D02*
X0003218976Y0001480511D01*
X0003141810Y0001478937D02*
X0003078070Y0001478937D01*
X0003282716Y0001478937D02*
X0003218976Y0001478937D01*
X0003141810Y0001477362D02*
X0003076968Y0001477362D01*
X0003283818Y0001477362D02*
X0003218976Y0001477362D01*
X0003141810Y0001475787D02*
X0003075905Y0001475787D01*
X0003284881Y0001475787D02*
X0003218976Y0001475787D01*
X0003141810Y0001474212D02*
X0003074842Y0001474212D01*
X0003285944Y0001474212D02*
X0003218976Y0001474212D01*
X0003141810Y0001472637D02*
X0003073858Y0001472637D01*
X0003286929Y0001472637D02*
X0003218976Y0001472637D01*
X0003141810Y0001471062D02*
X0003072874Y0001471062D01*
X0003287913Y0001471062D02*
X0003218976Y0001471062D01*
X0003141810Y0001469488D02*
X0003071929Y0001469488D01*
X0003288858Y0001469488D02*
X0003218976Y0001469488D01*
X0003141810Y0001467913D02*
X0003071023Y0001467913D01*
X0003289763Y0001467913D02*
X0003218976Y0001467913D01*
X0003141810Y0001466338D02*
X0003070157Y0001466338D01*
X0003290629Y0001466338D02*
X0003218976Y0001466338D01*
X0003141810Y0001464763D02*
X0003069291Y0001464763D01*
X0003291496Y0001464763D02*
X0003218976Y0001464763D01*
X0003141810Y0001463188D02*
X0003068464Y0001463188D01*
X0003292322Y0001463188D02*
X0003218976Y0001463188D01*
X0003141810Y0001461614D02*
X0003067677Y0001461614D01*
X0003293110Y0001461614D02*
X0003218976Y0001461614D01*
X0003141810Y0001460039D02*
X0003066929Y0001460039D01*
X0003293858Y0001460039D02*
X0003218976Y0001460039D01*
X0003141810Y0001458464D02*
X0003066181Y0001458464D01*
X0003294606Y0001458464D02*
X0003218976Y0001458464D01*
X0003141810Y0001456889D02*
X0003065472Y0001456889D01*
X0003295314Y0001456889D02*
X0003218976Y0001456889D01*
X0003141810Y0001455314D02*
X0003064763Y0001455314D01*
X0003296023Y0001455314D02*
X0003218976Y0001455314D01*
X0003141810Y0001453740D02*
X0003064094Y0001453740D01*
X0003296692Y0001453740D02*
X0003218976Y0001453740D01*
X0003141810Y0001452165D02*
X0003063464Y0001452165D01*
X0003297322Y0001452165D02*
X0003218976Y0001452165D01*
X0003141810Y0001450590D02*
X0003062834Y0001450590D01*
X0003297952Y0001450590D02*
X0003218976Y0001450590D01*
X0003141810Y0001449015D02*
X0003062244Y0001449015D01*
X0003298543Y0001449015D02*
X0003218976Y0001449015D01*
X0003141810Y0001447440D02*
X0003061692Y0001447440D01*
X0003299094Y0001447440D02*
X0003218976Y0001447440D01*
X0003141810Y0001445866D02*
X0003061141Y0001445866D01*
X0003299645Y0001445866D02*
X0003218976Y0001445866D01*
X0003141810Y0001444291D02*
X0003060629Y0001444291D01*
X0003300157Y0001444291D02*
X0003218976Y0001444291D01*
X0003141810Y0001442716D02*
X0003060118Y0001442716D01*
X0003300669Y0001442716D02*
X0003218976Y0001442716D01*
X0003141810Y0001441141D02*
X0003059645Y0001441141D01*
X0003301141Y0001441141D02*
X0003218976Y0001441141D01*
X0003141810Y0001439566D02*
X0003059173Y0001439566D01*
X0003301614Y0001439566D02*
X0003218976Y0001439566D01*
X0003141810Y0001437992D02*
X0003058740Y0001437992D01*
X0003302047Y0001437992D02*
X0003218976Y0001437992D01*
X0003141810Y0001436417D02*
X0003058346Y0001436417D01*
X0003302440Y0001436417D02*
X0003218976Y0001436417D01*
X0003141810Y0001434842D02*
X0003057952Y0001434842D01*
X0003302834Y0001434842D02*
X0003218976Y0001434842D01*
X0003141810Y0001433267D02*
X0003057598Y0001433267D01*
X0003303188Y0001433267D02*
X0003218976Y0001433267D01*
X0003141810Y0001431653D02*
X0003057244Y0001431653D01*
X0003303543Y0001431653D02*
X0003218976Y0001431653D01*
X0003141810Y0001430078D02*
X0003056889Y0001430078D01*
X0003303897Y0001430078D02*
X0003218976Y0001430078D01*
X0003141810Y0001428503D02*
X0003056614Y0001428503D01*
X0003304173Y0001428503D02*
X0003218976Y0001428503D01*
X0003141810Y0001426929D02*
X0003056299Y0001426929D01*
X0003304488Y0001426929D02*
X0003218976Y0001426929D01*
X0003141810Y0001425354D02*
X0003056062Y0001425354D01*
X0003304724Y0001425354D02*
X0003218976Y0001425354D01*
X0003141810Y0001423779D02*
X0003055787Y0001423779D01*
X0003305000Y0001423779D02*
X0003218976Y0001423779D01*
X0003141810Y0001422204D02*
X0003055590Y0001422204D01*
X0003305196Y0001422204D02*
X0003218976Y0001422204D01*
X0003141810Y0001420629D02*
X0003055354Y0001420629D01*
X0003305433Y0001420629D02*
X0003218976Y0001420629D01*
X0003141810Y0001419055D02*
X0003055196Y0001419055D01*
X0003305590Y0001419055D02*
X0003218976Y0001419055D01*
X0003141810Y0001417480D02*
X0003055000Y0001417480D01*
X0003305787Y0001417480D02*
X0003218976Y0001417480D01*
X0003141810Y0001415905D02*
X0003054881Y0001415905D01*
X0003305905Y0001415905D02*
X0003218976Y0001415905D01*
X0003306062Y0001414330D02*
X0003054724Y0001414330D01*
X0003306141Y0001412755D02*
X0003054645Y0001412755D01*
X0003306259Y0001411181D02*
X0003054527Y0001411181D01*
X0003306299Y0001409606D02*
X0003054488Y0001409606D01*
X0003306377Y0001408031D02*
X0003054409Y0001408031D01*
X0003306377Y0001406456D02*
X0003054409Y0001406456D01*
X0003306377Y0001404881D02*
X0003054409Y0001404881D01*
X0003133971Y0001523693D02*
G75*
G02X0003226850Y0001523680I0000046422J-0000118811D01*
G01*
X0003133971Y0001523693D02*
G75*
G03X0003133937Y0001286083I0000046422J-0000118811D01*
G01*
X0003226816Y0001523693D02*
G75*
G02X0003226850Y0001286083I-0000046422J-0000118811D01*
G01*
X0000412913Y0000412992D02*
X0000412913Y0000440551D01*
X0000365669Y0000440551D02*
X0000365669Y0000412992D01*
X0000765669Y0000720551D02*
X0000765669Y0000692992D01*
X0000812913Y0000692992D02*
X0000812913Y0000720551D01*
X0002890472Y0000287873D02*
X0002862913Y0000287873D01*
X0002862913Y0000240629D02*
X0002890472Y0000240629D01*
X0003475511Y0000496535D02*
X0003503070Y0000496535D01*
X0003503070Y0000543779D02*
X0003475511Y0000543779D01*
X0002881338Y0000814440D02*
X0002908897Y0000814440D01*
X0002908897Y0000861685D02*
X0002881338Y0000861685D01*
X0002125511Y0000963149D02*
X0002153070Y0000963149D01*
X0002153070Y0001010393D02*
X0002125511Y0001010393D01*
X0003440595Y0001323189D02*
X0003482327Y0001395471D01*
X0003605685Y0001276062D02*
X0003579431Y0001291220D01*
X0003412704Y0001387480D02*
X0003438958Y0001372322D01*
X0003558565Y0001255079D02*
X0003418092Y0001336181D01*
X0003600297Y0001327361D02*
X0003558565Y0001255079D01*
X0003459824Y0001408464D02*
X0003600297Y0001327361D01*
X0003418092Y0001336181D02*
X0003459824Y0001408464D01*
X0001983122Y0001282733D02*
X0002682342Y0001028237D01*
X0001983122Y0001282733D02*
X0002054488Y0001478810D01*
X0002753708Y0001224315D02*
X0002682342Y0001028237D01*
X0002753708Y0001224315D02*
X0002054488Y0001478810D01*
X0000301653Y0000519133D02*
X0000249291Y0000519133D01*
X0000301653Y0000466771D02*
X0000301653Y0000519133D01*
X0000301653Y0000416771D02*
X0000196929Y0000416771D01*
X0000196929Y0000416771D02*
X0000196929Y0000314409D01*
X0000301653Y0000416771D02*
X0000301653Y0000314409D01*
X0000301653Y0000314409D02*
X0000196929Y0000314409D01*
X0002446929Y0001079133D02*
X0002446929Y0001026771D01*
X0002499291Y0001079133D02*
X0002446929Y0001079133D01*
X0002549291Y0001079133D02*
X0002549291Y0000974409D01*
X0002549291Y0000974409D02*
X0002751653Y0000974409D01*
X0002549291Y0001079133D02*
X0002751653Y0001079133D01*
X0002751653Y0001079133D02*
X0002751653Y0000974409D01*
X0001208425Y0001017795D02*
X0001171811Y0001017795D01*
X0001084015Y0001017795D02*
X0001120629Y0001017795D01*
X0001084015Y0001017795D02*
X0001084015Y0001142204D01*
X0001208425Y0001017795D02*
X0001208425Y0001075275D01*
X0000880078Y0001332165D02*
X0000937559Y0001332165D01*
X0000880078Y0001456574D02*
X0001004488Y0001456574D01*
X0000880078Y0001456574D02*
X0000880078Y0001419960D01*
X0000880078Y0001332165D02*
X0000880078Y0001368779D01*
X0001190314Y0001334921D02*
X0001190314Y0001287677D01*
X0001259606Y0001287677D02*
X0001259606Y0001334921D01*
X0001052519Y0001333543D02*
X0001052519Y0001286299D01*
X0001121811Y0001286299D02*
X0001121811Y0001333543D01*
X0002916062Y0000701417D02*
X0002868818Y0000701417D01*
X0002868818Y0000632125D02*
X0002916062Y0000632125D01*
X0002275669Y0000712125D02*
X0002322913Y0000712125D01*
X0002322913Y0000781417D02*
X0002275669Y0000781417D01*
X0002322913Y0000681417D02*
X0002275669Y0000681417D01*
X0002275669Y0000612125D02*
X0002322913Y0000612125D01*
X0001133858Y0000390551D02*
X0001163582Y0000360826D01*
X0001124606Y0000390708D02*
X0001159015Y0000356259D01*
X0001084842Y0000408425D02*
X0001084842Y0000332283D01*
X0001084842Y0000514173D02*
X0001084842Y0000445078D01*
X0001353740Y0000408425D02*
X0001353740Y0000332283D01*
X0001353740Y0000514173D02*
X0001353740Y0000445078D01*
X0001353740Y0000332283D02*
X0001084842Y0000332283D01*
X0001353740Y0000514173D02*
X0001084842Y0000514173D01*
X0001134604Y0000347293D02*
G75*
G03X0001153897Y0000417007I0000000632J0000037351D01*
G01*
X0001098402Y0000391140D02*
G75*
G03X0001135236Y0000347244I0000036833J-0000006494D01*
G01*
X0003711653Y0000734409D02*
X0003606929Y0000734409D01*
X0003711653Y0001036771D02*
X0003711653Y0000734409D01*
X0003606929Y0001036771D02*
X0003606929Y0000734409D01*
X0003711653Y0001036771D02*
X0003606929Y0001036771D01*
X0003711653Y0001086771D02*
X0003711653Y0001139133D01*
X0003711653Y0001139133D02*
X0003659291Y0001139133D01*
D22*
X0001798897Y0000915039D02*
X0001798897Y0000983937D01*
X0002025472Y0000915039D02*
X0002025472Y0000698503D01*
X0001773110Y0000915039D02*
X0001773110Y0000698503D01*
X0002025472Y0000915039D02*
X0001995944Y0000915039D01*
X0002025472Y0000698503D02*
X0001995944Y0000698503D01*
X0001773110Y0000698503D02*
X0001802637Y0000698503D01*
X0001773110Y0000915039D02*
X0001798897Y0000915039D01*
D23*
X0001266811Y0000951968D02*
G75*
G02X0001465629Y0000951968I0000099409D01*
G01*
X0001266811Y0000705905D02*
G75*
G03X0001465629Y0000705905I0000099409D01*
G01*
X0001266811Y0000705905D02*
X0001266811Y0000951968D01*
X0001465629Y0000705905D02*
X0001465629Y0000951968D01*
X0001619308Y0000935991D02*
G75*
G03X0001694094Y0000936012I0000037384J0000030780D01*
G01*
X0001619308Y0000997551D02*
G75*
G02X0001694094Y0000997530I0000037384J-0000030780D01*
G01*
D22*
X0003183040Y0000855211D02*
X0003186790Y0000857086D01*
X0003190539Y0000860836D01*
X0003196164Y0000866460D01*
X0003199913Y0000868335D01*
X0003203663Y0000868335D01*
X0003201788Y0000858961D02*
X0003205538Y0000860836D01*
X0003209287Y0000864585D01*
X0003211162Y0000872084D01*
X0003211162Y0000885208D01*
X0003209287Y0000892707D01*
X0003205538Y0000896456D01*
X0003201788Y0000898331D01*
X0003194289Y0000898331D01*
X0003190539Y0000896456D01*
X0003186790Y0000892707D01*
X0003184915Y0000885208D01*
X0003184915Y0000872084D01*
X0003186790Y0000864585D01*
X0003190539Y0000860836D01*
X0003194289Y0000858961D01*
X0003201788Y0000858961D01*
X0003171792Y0000898331D02*
X0003147420Y0000898331D01*
X0003160543Y0000883333D01*
X0003154919Y0000883333D01*
X0003151169Y0000881458D01*
X0003149295Y0000879583D01*
X0003147420Y0000875834D01*
X0003147420Y0000866460D01*
X0003149295Y0000862710D01*
X0003151169Y0000860836D01*
X0003154919Y0000858961D01*
X0003166167Y0000858961D01*
X0003169917Y0000860836D01*
X0003171792Y0000862710D01*
X0002043625Y0000607071D02*
X0002043625Y0000575200D01*
X0002041751Y0000571451D01*
X0002039876Y0000569576D01*
X0002036126Y0000567701D01*
X0002028627Y0000567701D01*
X0002024878Y0000569576D01*
X0002023003Y0000571451D01*
X0002021128Y0000575200D01*
X0002021128Y0000607071D01*
X0001981758Y0000567701D02*
X0002004255Y0000567701D01*
X0001993007Y0000567701D02*
X0001993007Y0000607071D01*
X0001996756Y0000601447D01*
X0002000506Y0000597697D01*
X0002004255Y0000595823D01*
X0001957386Y0000607071D02*
X0001953637Y0000607071D01*
X0001949887Y0000605196D01*
X0001948012Y0000603322D01*
X0001946137Y0000599572D01*
X0001944263Y0000592073D01*
X0001944263Y0000582699D01*
X0001946137Y0000575200D01*
X0001948012Y0000571451D01*
X0001949887Y0000569576D01*
X0001953637Y0000567701D01*
X0001957386Y0000567701D01*
X0001961136Y0000569576D01*
X0001963010Y0000571451D01*
X0001964885Y0000575200D01*
X0001966760Y0000582699D01*
X0001966760Y0000592073D01*
X0001964885Y0000599572D01*
X0001963010Y0000603322D01*
X0001961136Y0000605196D01*
X0001957386Y0000607071D01*
X0001697731Y0000459265D02*
X0001737101Y0000446141D01*
X0001697731Y0000433018D01*
X0001733352Y0000397397D02*
X0001735226Y0000399272D01*
X0001737101Y0000404896D01*
X0001737101Y0000408646D01*
X0001735226Y0000414270D01*
X0001731477Y0000418020D01*
X0001727727Y0000419895D01*
X0001720228Y0000421769D01*
X0001714604Y0000421769D01*
X0001707105Y0000419895D01*
X0001703355Y0000418020D01*
X0001699606Y0000414270D01*
X0001697731Y0000408646D01*
X0001697731Y0000404896D01*
X0001699606Y0000399272D01*
X0001701481Y0000397397D01*
X0001733352Y0000358027D02*
X0001735226Y0000359902D01*
X0001737101Y0000365526D01*
X0001737101Y0000369276D01*
X0001735226Y0000374900D01*
X0001731477Y0000378650D01*
X0001727727Y0000380524D01*
X0001720228Y0000382399D01*
X0001714604Y0000382399D01*
X0001707105Y0000380524D01*
X0001703355Y0000378650D01*
X0001699606Y0000374900D01*
X0001697731Y0000369276D01*
X0001697731Y0000365526D01*
X0001699606Y0000359902D01*
X0001701481Y0000358027D01*
X0001799606Y0000436767D02*
X0001797731Y0000440517D01*
X0001797731Y0000446141D01*
X0001799606Y0000451766D01*
X0001803355Y0000455515D01*
X0001807105Y0000457390D01*
X0001814604Y0000459265D01*
X0001820228Y0000459265D01*
X0001827727Y0000457390D01*
X0001831477Y0000455515D01*
X0001835226Y0000451766D01*
X0001837101Y0000446141D01*
X0001837101Y0000442392D01*
X0001835226Y0000436767D01*
X0001833352Y0000434893D01*
X0001820228Y0000434893D01*
X0001820228Y0000442392D01*
X0001837101Y0000418020D02*
X0001797731Y0000418020D01*
X0001837101Y0000395523D01*
X0001797731Y0000395523D01*
X0001837101Y0000376775D02*
X0001797731Y0000376775D01*
X0001797731Y0000367401D01*
X0001799606Y0000361777D01*
X0001803355Y0000358027D01*
X0001807105Y0000356152D01*
X0001814604Y0000354278D01*
X0001820228Y0000354278D01*
X0001827727Y0000356152D01*
X0001831477Y0000358027D01*
X0001835226Y0000361777D01*
X0001837101Y0000367401D01*
X0001837101Y0000376775D01*
X0001935226Y0000453640D02*
X0001937101Y0000448016D01*
X0001937101Y0000438642D01*
X0001935226Y0000434893D01*
X0001933352Y0000433018D01*
X0001929602Y0000431143D01*
X0001925852Y0000431143D01*
X0001922103Y0000433018D01*
X0001920228Y0000434893D01*
X0001918353Y0000438642D01*
X0001916479Y0000446141D01*
X0001914604Y0000449891D01*
X0001912729Y0000451766D01*
X0001908980Y0000453640D01*
X0001905230Y0000453640D01*
X0001901481Y0000451766D01*
X0001899606Y0000449891D01*
X0001897731Y0000446141D01*
X0001897731Y0000436767D01*
X0001899606Y0000431143D01*
X0001933352Y0000391773D02*
X0001935226Y0000393648D01*
X0001937101Y0000399272D01*
X0001937101Y0000403022D01*
X0001935226Y0000408646D01*
X0001931477Y0000412395D01*
X0001927727Y0000414270D01*
X0001920228Y0000416145D01*
X0001914604Y0000416145D01*
X0001907105Y0000414270D01*
X0001903355Y0000412395D01*
X0001899606Y0000408646D01*
X0001897731Y0000403022D01*
X0001897731Y0000399272D01*
X0001899606Y0000393648D01*
X0001901481Y0000391773D01*
X0001937101Y0000356152D02*
X0001937101Y0000374900D01*
X0001897731Y0000374900D01*
X0002035226Y0000454578D02*
X0002037101Y0000448953D01*
X0002037101Y0000439580D01*
X0002035226Y0000435830D01*
X0002033352Y0000433955D01*
X0002029602Y0000432081D01*
X0002025852Y0000432081D01*
X0002022103Y0000433955D01*
X0002020228Y0000435830D01*
X0002018353Y0000439580D01*
X0002016479Y0000447079D01*
X0002014604Y0000450828D01*
X0002012729Y0000452703D01*
X0002008980Y0000454578D01*
X0002005230Y0000454578D01*
X0002001481Y0000452703D01*
X0001999606Y0000450828D01*
X0001997731Y0000447079D01*
X0001997731Y0000437705D01*
X0001999606Y0000432081D01*
X0002037101Y0000415208D02*
X0001997731Y0000415208D01*
X0001997731Y0000405834D01*
X0001999606Y0000400210D01*
X0002003355Y0000396460D01*
X0002007105Y0000394585D01*
X0002014604Y0000392710D01*
X0002020228Y0000392710D01*
X0002027727Y0000394585D01*
X0002031477Y0000396460D01*
X0002035226Y0000400210D01*
X0002037101Y0000405834D01*
X0002037101Y0000415208D01*
X0002025852Y0000377712D02*
X0002025852Y0000358965D01*
X0002037101Y0000381462D02*
X0001997731Y0000368338D01*
X0002037101Y0000355215D01*
X0002133352Y0000433018D02*
X0002135226Y0000434893D01*
X0002137101Y0000440517D01*
X0002137101Y0000444266D01*
X0002135226Y0000449891D01*
X0002131477Y0000453640D01*
X0002127727Y0000455515D01*
X0002120228Y0000457390D01*
X0002114604Y0000457390D01*
X0002107105Y0000455515D01*
X0002103355Y0000453640D01*
X0002099606Y0000449891D01*
X0002097731Y0000444266D01*
X0002097731Y0000440517D01*
X0002099606Y0000434893D01*
X0002101481Y0000433018D01*
X0002135226Y0000418020D02*
X0002137101Y0000412395D01*
X0002137101Y0000403022D01*
X0002135226Y0000399272D01*
X0002133352Y0000397397D01*
X0002129602Y0000395523D01*
X0002125852Y0000395523D01*
X0002122103Y0000397397D01*
X0002120228Y0000399272D01*
X0002118353Y0000403022D01*
X0002116479Y0000410521D01*
X0002114604Y0000414270D01*
X0002112729Y0000416145D01*
X0002108980Y0000418020D01*
X0002105230Y0000418020D01*
X0002101481Y0000416145D01*
X0002099606Y0000414270D01*
X0002097731Y0000410521D01*
X0002097731Y0000401147D01*
X0002099606Y0000395523D01*
X0002116479Y0000365526D02*
X0002118353Y0000359902D01*
X0002120228Y0000358027D01*
X0002123978Y0000356152D01*
X0002129602Y0000356152D01*
X0002133352Y0000358027D01*
X0002135226Y0000359902D01*
X0002137101Y0000363652D01*
X0002137101Y0000378650D01*
X0002097731Y0000378650D01*
X0002097731Y0000365526D01*
X0002099606Y0000361777D01*
X0002101481Y0000359902D01*
X0002105230Y0000358027D01*
X0002108980Y0000358027D01*
X0002112729Y0000359902D01*
X0002114604Y0000361777D01*
X0002116479Y0000365526D01*
X0002116479Y0000378650D01*
X0002235226Y0000458327D02*
X0002237101Y0000452703D01*
X0002237101Y0000443329D01*
X0002235226Y0000439580D01*
X0002233352Y0000437705D01*
X0002229602Y0000435830D01*
X0002225852Y0000435830D01*
X0002222103Y0000437705D01*
X0002220228Y0000439580D01*
X0002218353Y0000443329D01*
X0002216479Y0000450828D01*
X0002214604Y0000454578D01*
X0002212729Y0000456452D01*
X0002208980Y0000458327D01*
X0002205230Y0000458327D01*
X0002201481Y0000456452D01*
X0002199606Y0000454578D01*
X0002197731Y0000450828D01*
X0002197731Y0000441454D01*
X0002199606Y0000435830D01*
X0002237101Y0000418957D02*
X0002197731Y0000418957D01*
X0002197731Y0000409583D01*
X0002199606Y0000403959D01*
X0002203355Y0000400210D01*
X0002207105Y0000398335D01*
X0002214604Y0000396460D01*
X0002220228Y0000396460D01*
X0002227727Y0000398335D01*
X0002231477Y0000400210D01*
X0002235226Y0000403959D01*
X0002237101Y0000409583D01*
X0002237101Y0000418957D01*
X0002197731Y0000372088D02*
X0002197731Y0000364589D01*
X0002199606Y0000360839D01*
X0002203355Y0000357090D01*
X0002210854Y0000355215D01*
X0002223978Y0000355215D01*
X0002231477Y0000357090D01*
X0002235226Y0000360839D01*
X0002237101Y0000364589D01*
X0002237101Y0000372088D01*
X0002235226Y0000375838D01*
X0002231477Y0000379587D01*
X0002223978Y0000381462D01*
X0002210854Y0000381462D01*
X0002203355Y0000379587D01*
X0002199606Y0000375838D01*
X0002197731Y0000372088D01*
X0001529287Y0001578331D02*
X0001529287Y0001546460D01*
X0001527412Y0001542710D01*
X0001525538Y0001540836D01*
X0001521788Y0001538961D01*
X0001514289Y0001538961D01*
X0001510539Y0001540836D01*
X0001508665Y0001542710D01*
X0001506790Y0001546460D01*
X0001506790Y0001578331D01*
X0001467420Y0001538961D02*
X0001489917Y0001538961D01*
X0001478668Y0001538961D02*
X0001478668Y0001578331D01*
X0001482418Y0001572707D01*
X0001486167Y0001568957D01*
X0001489917Y0001567082D01*
X0001812099Y0001088331D02*
X0001812099Y0001060210D01*
X0001813974Y0001054585D01*
X0001817724Y0001050836D01*
X0001823348Y0001048961D01*
X0001827097Y0001048961D01*
X0001793352Y0001048961D02*
X0001793352Y0001088331D01*
X0001778353Y0001088331D01*
X0001774604Y0001086456D01*
X0001772729Y0001084581D01*
X0001770854Y0001080832D01*
X0001770854Y0001075208D01*
X0001772729Y0001071458D01*
X0001774604Y0001069583D01*
X0001778353Y0001067709D01*
X0001793352Y0001067709D01*
X0001752107Y0001048961D02*
X0001744608Y0001048961D01*
X0001740858Y0001050836D01*
X0001738983Y0001052710D01*
X0001735234Y0001058335D01*
X0001733359Y0001065834D01*
X0001733359Y0001080832D01*
X0001735234Y0001084581D01*
X0001737109Y0001086456D01*
X0001740858Y0001088331D01*
X0001748357Y0001088331D01*
X0001752107Y0001086456D01*
X0001753981Y0001084581D01*
X0001755856Y0001080832D01*
X0001755856Y0001071458D01*
X0001753981Y0001067709D01*
X0001752107Y0001065834D01*
X0001748357Y0001063959D01*
X0001740858Y0001063959D01*
X0001737109Y0001065834D01*
X0001735234Y0001067709D01*
X0001733359Y0001071458D01*
X0000883648Y0000794836D02*
X0000885523Y0000792962D01*
X0000891147Y0000791087D01*
X0000894896Y0000791087D01*
X0000900521Y0000792962D01*
X0000904270Y0000796711D01*
X0000906145Y0000800461D01*
X0000908020Y0000807960D01*
X0000908020Y0000813584D01*
X0000906145Y0000821083D01*
X0000904270Y0000824833D01*
X0000900521Y0000828582D01*
X0000894896Y0000830457D01*
X0000891147Y0000830457D01*
X0000885523Y0000828582D01*
X0000883648Y0000826707D01*
X0000861151Y0000813584D02*
X0000864900Y0000815459D01*
X0000866775Y0000817334D01*
X0000868650Y0000821083D01*
X0000868650Y0000822958D01*
X0000866775Y0000826707D01*
X0000864900Y0000828582D01*
X0000861151Y0000830457D01*
X0000853652Y0000830457D01*
X0000849902Y0000828582D01*
X0000848027Y0000826707D01*
X0000846152Y0000822958D01*
X0000846152Y0000821083D01*
X0000848027Y0000817334D01*
X0000849902Y0000815459D01*
X0000853652Y0000813584D01*
X0000861151Y0000813584D01*
X0000864900Y0000811709D01*
X0000866775Y0000809835D01*
X0000868650Y0000806085D01*
X0000868650Y0000798586D01*
X0000866775Y0000794836D01*
X0000864900Y0000792962D01*
X0000861151Y0000791087D01*
X0000853652Y0000791087D01*
X0000849902Y0000792962D01*
X0000848027Y0000794836D01*
X0000846152Y0000798586D01*
X0000846152Y0000806085D01*
X0000848027Y0000809835D01*
X0000849902Y0000811709D01*
X0000853652Y0000813584D01*
X0003372399Y0000841158D02*
X0003366775Y0000839283D01*
X0003364900Y0000837409D01*
X0003363025Y0000833659D01*
X0003363025Y0000828035D01*
X0003364900Y0000824285D01*
X0003366775Y0000822410D01*
X0003370524Y0000820536D01*
X0003385523Y0000820536D01*
X0003385523Y0000859906D01*
X0003372399Y0000859906D01*
X0003368650Y0000858031D01*
X0003366775Y0000856156D01*
X0003364900Y0000852407D01*
X0003364900Y0000848657D01*
X0003366775Y0000844908D01*
X0003368650Y0000843033D01*
X0003372399Y0000841158D01*
X0003385523Y0000841158D01*
X0003349902Y0000859906D02*
X0003323655Y0000859906D01*
X0003349902Y0000820536D01*
X0003323655Y0000820536D01*
X0003288035Y0000820536D02*
X0003310532Y0000820536D01*
X0003299283Y0000820536D02*
X0003299283Y0000859906D01*
X0003303033Y0000854281D01*
X0003306782Y0000850532D01*
X0003310532Y0000848657D01*
X0001526797Y0000638813D02*
X0001528672Y0000636938D01*
X0001534296Y0000635063D01*
X0001538046Y0000635063D01*
X0001543670Y0000636938D01*
X0001547420Y0000640688D01*
X0001549295Y0000644437D01*
X0001551169Y0000651936D01*
X0001551169Y0000657560D01*
X0001549295Y0000665060D01*
X0001547420Y0000668809D01*
X0001543670Y0000672559D01*
X0001538046Y0000674433D01*
X0001534296Y0000674433D01*
X0001528672Y0000672559D01*
X0001526797Y0000670684D01*
X0001489302Y0000635063D02*
X0001511799Y0000635063D01*
X0001500551Y0000635063D02*
X0001500551Y0000674433D01*
X0001504300Y0000668809D01*
X0001508050Y0000665060D01*
X0001511799Y0000663185D01*
X0001526797Y0000998813D02*
X0001528672Y0000996938D01*
X0001534296Y0000995063D01*
X0001538046Y0000995063D01*
X0001543670Y0000996938D01*
X0001547420Y0001000688D01*
X0001549295Y0001004437D01*
X0001551169Y0001011936D01*
X0001551169Y0001017560D01*
X0001549295Y0001025060D01*
X0001547420Y0001028809D01*
X0001543670Y0001032559D01*
X0001538046Y0001034433D01*
X0001534296Y0001034433D01*
X0001528672Y0001032559D01*
X0001526797Y0001030684D01*
X0001511799Y0001030684D02*
X0001509925Y0001032559D01*
X0001506175Y0001034433D01*
X0001496801Y0001034433D01*
X0001493052Y0001032559D01*
X0001491177Y0001030684D01*
X0001489302Y0001026934D01*
X0001489302Y0001023185D01*
X0001491177Y0001017560D01*
X0001513674Y0000995063D01*
X0001489302Y0000995063D01*
X0003186955Y0001561608D02*
X0003188830Y0001559733D01*
X0003194454Y0001557859D01*
X0003198203Y0001557859D01*
X0003203828Y0001559733D01*
X0003207577Y0001563483D01*
X0003209452Y0001567232D01*
X0003211327Y0001574731D01*
X0003211327Y0001580356D01*
X0003209452Y0001587855D01*
X0003207577Y0001591604D01*
X0003203828Y0001595354D01*
X0003198203Y0001597229D01*
X0003194454Y0001597229D01*
X0003188830Y0001595354D01*
X0003186955Y0001593479D01*
X0003153209Y0001597229D02*
X0003160708Y0001597229D01*
X0003164458Y0001595354D01*
X0003166332Y0001593479D01*
X0003170082Y0001587855D01*
X0003171957Y0001580356D01*
X0003171957Y0001565358D01*
X0003170082Y0001561608D01*
X0003168207Y0001559733D01*
X0003164458Y0001557859D01*
X0003156959Y0001557859D01*
X0003153209Y0001559733D01*
X0003151334Y0001561608D01*
X0003149460Y0001565358D01*
X0003149460Y0001574731D01*
X0003151334Y0001578481D01*
X0003153209Y0001580356D01*
X0003156959Y0001582230D01*
X0003164458Y0001582230D01*
X0003168207Y0001580356D01*
X0003170082Y0001578481D01*
X0003171957Y0001574731D01*
X0000453352Y0000433333D02*
X0000455226Y0000435208D01*
X0000457101Y0000440832D01*
X0000457101Y0000444581D01*
X0000455226Y0000450206D01*
X0000451477Y0000453955D01*
X0000447727Y0000455830D01*
X0000440228Y0000457705D01*
X0000434604Y0000457705D01*
X0000427105Y0000455830D01*
X0000423355Y0000453955D01*
X0000419606Y0000450206D01*
X0000417731Y0000444581D01*
X0000417731Y0000440832D01*
X0000419606Y0000435208D01*
X0000421481Y0000433333D01*
X0000417731Y0000420210D02*
X0000417731Y0000393963D01*
X0000457101Y0000410836D01*
X0000791758Y0000794836D02*
X0000793633Y0000792962D01*
X0000799257Y0000791087D01*
X0000803007Y0000791087D01*
X0000808631Y0000792962D01*
X0000812380Y0000796711D01*
X0000814255Y0000800461D01*
X0000816130Y0000807960D01*
X0000816130Y0000813584D01*
X0000814255Y0000821083D01*
X0000812380Y0000824833D01*
X0000808631Y0000828582D01*
X0000803007Y0000830457D01*
X0000799257Y0000830457D01*
X0000793633Y0000828582D01*
X0000791758Y0000826707D01*
X0000773010Y0000791087D02*
X0000765511Y0000791087D01*
X0000761762Y0000792962D01*
X0000759887Y0000794836D01*
X0000756137Y0000800461D01*
X0000754263Y0000807960D01*
X0000754263Y0000822958D01*
X0000756137Y0000826707D01*
X0000758012Y0000828582D01*
X0000761762Y0000830457D01*
X0000769261Y0000830457D01*
X0000773010Y0000828582D01*
X0000774885Y0000826707D01*
X0000776760Y0000822958D01*
X0000776760Y0000813584D01*
X0000774885Y0000809835D01*
X0000773010Y0000807960D01*
X0000769261Y0000806085D01*
X0000761762Y0000806085D01*
X0000758012Y0000807960D01*
X0000756137Y0000809835D01*
X0000754263Y0000813584D01*
X0002902002Y0000200978D02*
X0002903877Y0000199103D01*
X0002909501Y0000197229D01*
X0002913250Y0000197229D01*
X0002918875Y0000199103D01*
X0002922624Y0000202853D01*
X0002924499Y0000206602D01*
X0002926374Y0000214102D01*
X0002926374Y0000219726D01*
X0002924499Y0000227225D01*
X0002922624Y0000230974D01*
X0002918875Y0000234724D01*
X0002913250Y0000236599D01*
X0002909501Y0000236599D01*
X0002903877Y0000234724D01*
X0002902002Y0000232849D01*
X0002864506Y0000197229D02*
X0002887004Y0000197229D01*
X0002875755Y0000197229D02*
X0002875755Y0000236599D01*
X0002879505Y0000230974D01*
X0002883254Y0000227225D01*
X0002887004Y0000225350D01*
X0002851383Y0000236599D02*
X0002827011Y0000236599D01*
X0002840134Y0000221601D01*
X0002834510Y0000221601D01*
X0002830761Y0000219726D01*
X0002828886Y0000217851D01*
X0002827011Y0000214102D01*
X0002827011Y0000204728D01*
X0002828886Y0000200978D01*
X0002830761Y0000199103D01*
X0002834510Y0000197229D01*
X0002845759Y0000197229D01*
X0002849508Y0000199103D01*
X0002851383Y0000200978D01*
X0003515388Y0000456490D02*
X0003517262Y0000454615D01*
X0003522887Y0000452740D01*
X0003526636Y0000452740D01*
X0003532260Y0000454615D01*
X0003536010Y0000458365D01*
X0003537885Y0000462114D01*
X0003539760Y0000469613D01*
X0003539760Y0000475238D01*
X0003537885Y0000482737D01*
X0003536010Y0000486486D01*
X0003532260Y0000490236D01*
X0003526636Y0000492111D01*
X0003522887Y0000492111D01*
X0003517262Y0000490236D01*
X0003515388Y0000488361D01*
X0003477892Y0000452740D02*
X0003500389Y0000452740D01*
X0003489141Y0000452740D02*
X0003489141Y0000492111D01*
X0003492890Y0000486486D01*
X0003496640Y0000482737D01*
X0003500389Y0000480862D01*
X0003444146Y0000478987D02*
X0003444146Y0000452740D01*
X0003453520Y0000493985D02*
X0003462894Y0000465864D01*
X0003438522Y0000465864D01*
X0002920427Y0000774789D02*
X0002922302Y0000772914D01*
X0002927926Y0000771040D01*
X0002931676Y0000771040D01*
X0002937300Y0000772914D01*
X0002941049Y0000776664D01*
X0002942924Y0000780413D01*
X0002944799Y0000787913D01*
X0002944799Y0000793537D01*
X0002942924Y0000801036D01*
X0002941049Y0000804785D01*
X0002937300Y0000808535D01*
X0002931676Y0000810410D01*
X0002927926Y0000810410D01*
X0002922302Y0000808535D01*
X0002920427Y0000806660D01*
X0002882932Y0000771040D02*
X0002905429Y0000771040D01*
X0002894180Y0000771040D02*
X0002894180Y0000810410D01*
X0002897930Y0000804785D01*
X0002901679Y0000801036D01*
X0002905429Y0000799161D01*
X0002847311Y0000810410D02*
X0002866059Y0000810410D01*
X0002867933Y0000791662D01*
X0002866059Y0000793537D01*
X0002862309Y0000795412D01*
X0002852935Y0000795412D01*
X0002849186Y0000793537D01*
X0002847311Y0000791662D01*
X0002845436Y0000787913D01*
X0002845436Y0000778539D01*
X0002847311Y0000774789D01*
X0002849186Y0000772914D01*
X0002852935Y0000771040D01*
X0002862309Y0000771040D01*
X0002866059Y0000772914D01*
X0002867933Y0000774789D01*
X0002164600Y0001021923D02*
X0002166475Y0001020048D01*
X0002172099Y0001018174D01*
X0002175849Y0001018174D01*
X0002181473Y0001020048D01*
X0002185223Y0001023798D01*
X0002187097Y0001027547D01*
X0002188972Y0001035046D01*
X0002188972Y0001040671D01*
X0002187097Y0001048170D01*
X0002185223Y0001051919D01*
X0002181473Y0001055669D01*
X0002175849Y0001057544D01*
X0002172099Y0001057544D01*
X0002166475Y0001055669D01*
X0002164600Y0001053794D01*
X0002127105Y0001018174D02*
X0002149602Y0001018174D01*
X0002138353Y0001018174D02*
X0002138353Y0001057544D01*
X0002142103Y0001051919D01*
X0002145852Y0001048170D01*
X0002149602Y0001046295D01*
X0002093359Y0001057544D02*
X0002100858Y0001057544D01*
X0002104608Y0001055669D01*
X0002106482Y0001053794D01*
X0002110232Y0001048170D01*
X0002112107Y0001040671D01*
X0002112107Y0001025673D01*
X0002110232Y0001021923D01*
X0002108357Y0001020048D01*
X0002104608Y0001018174D01*
X0002097109Y0001018174D01*
X0002093359Y0001020048D01*
X0002091484Y0001021923D01*
X0002089610Y0001025673D01*
X0002089610Y0001035046D01*
X0002091484Y0001038796D01*
X0002093359Y0001040671D01*
X0002097109Y0001042545D01*
X0002104608Y0001042545D01*
X0002108357Y0001040671D01*
X0002110232Y0001038796D01*
X0002112107Y0001035046D01*
X0003484904Y0001231581D02*
X0003504589Y0001265676D01*
X0003496471Y0001270363D01*
X0003490663Y0001271552D01*
X0003485541Y0001270179D01*
X0003482043Y0001267870D01*
X0003476670Y0001262313D01*
X0003473857Y0001257442D01*
X0003471731Y0001250010D01*
X0003471480Y0001245826D01*
X0003472853Y0001240704D01*
X0003476786Y0001236268D01*
X0003484904Y0001231581D01*
X0003432949Y0001261577D02*
X0003452432Y0001250329D01*
X0003442691Y0001255953D02*
X0003462376Y0001290048D01*
X0003462811Y0001283303D01*
X0003464183Y0001278181D01*
X0003466493Y0001274682D01*
X0002399241Y0001391935D02*
X0002411573Y0001387447D01*
X0002404519Y0001368068D02*
X0002417985Y0001405064D01*
X0002400368Y0001411476D01*
X0002353430Y0001386663D02*
X0002374570Y0001378969D01*
X0002364000Y0001382816D02*
X0002377466Y0001419812D01*
X0002379065Y0001413244D01*
X0002381306Y0001408438D01*
X0002384189Y0001405394D01*
X0000317731Y0000459580D02*
X0000345852Y0000459580D01*
X0000351477Y0000461454D01*
X0000355226Y0000465204D01*
X0000357101Y0000470828D01*
X0000357101Y0000474578D01*
X0000357101Y0000440832D02*
X0000317731Y0000440832D01*
X0000317731Y0000425834D01*
X0000319606Y0000422084D01*
X0000321481Y0000420210D01*
X0000325230Y0000418335D01*
X0000330854Y0000418335D01*
X0000334604Y0000420210D01*
X0000336479Y0000422084D01*
X0000338353Y0000425834D01*
X0000338353Y0000440832D01*
X0000357101Y0000380839D02*
X0000357101Y0000403337D01*
X0000357101Y0000392088D02*
X0000317731Y0000392088D01*
X0000323355Y0000395838D01*
X0000327105Y0000399587D01*
X0000328980Y0000403337D01*
X0002642099Y0000968331D02*
X0002642099Y0000940210D01*
X0002643974Y0000934585D01*
X0002647724Y0000930836D01*
X0002653348Y0000928961D01*
X0002657097Y0000928961D01*
X0002623352Y0000928961D02*
X0002623352Y0000968331D01*
X0002608353Y0000968331D01*
X0002604604Y0000966456D01*
X0002602729Y0000964581D01*
X0002600854Y0000960832D01*
X0002600854Y0000955208D01*
X0002602729Y0000951458D01*
X0002604604Y0000949583D01*
X0002608353Y0000947709D01*
X0002623352Y0000947709D01*
X0002578357Y0000951458D02*
X0002582107Y0000953333D01*
X0002583981Y0000955208D01*
X0002585856Y0000958957D01*
X0002585856Y0000960832D01*
X0002583981Y0000964581D01*
X0002582107Y0000966456D01*
X0002578357Y0000968331D01*
X0002570858Y0000968331D01*
X0002567109Y0000966456D01*
X0002565234Y0000964581D01*
X0002563359Y0000960832D01*
X0002563359Y0000958957D01*
X0002565234Y0000955208D01*
X0002567109Y0000953333D01*
X0002570858Y0000951458D01*
X0002578357Y0000951458D01*
X0002582107Y0000949583D01*
X0002583981Y0000947709D01*
X0002585856Y0000943959D01*
X0002585856Y0000936460D01*
X0002583981Y0000932710D01*
X0002582107Y0000930836D01*
X0002578357Y0000928961D01*
X0002570858Y0000928961D01*
X0002567109Y0000930836D01*
X0002565234Y0000932710D01*
X0002563359Y0000936460D01*
X0002563359Y0000943959D01*
X0002565234Y0000947709D01*
X0002567109Y0000949583D01*
X0002570858Y0000951458D01*
X0001153040Y0000885211D02*
X0001156790Y0000887086D01*
X0001160539Y0000890836D01*
X0001166164Y0000896460D01*
X0001169913Y0000898335D01*
X0001173663Y0000898335D01*
X0001171788Y0000888961D02*
X0001175538Y0000890836D01*
X0001179287Y0000894585D01*
X0001181162Y0000902084D01*
X0001181162Y0000915208D01*
X0001179287Y0000922707D01*
X0001175538Y0000926456D01*
X0001171788Y0000928331D01*
X0001164289Y0000928331D01*
X0001160539Y0000926456D01*
X0001156790Y0000922707D01*
X0001154915Y0000915208D01*
X0001154915Y0000902084D01*
X0001156790Y0000894585D01*
X0001160539Y0000890836D01*
X0001164289Y0000888961D01*
X0001171788Y0000888961D01*
X0001117420Y0000888961D02*
X0001139917Y0000888961D01*
X0001128668Y0000888961D02*
X0001128668Y0000928331D01*
X0001132418Y0000922707D01*
X0001136167Y0000918957D01*
X0001139917Y0000917082D01*
X0000913749Y0001471235D02*
X0000917499Y0001473110D01*
X0000921248Y0001476859D01*
X0000926872Y0001482484D01*
X0000930622Y0001484358D01*
X0000934371Y0001484358D01*
X0000932497Y0001474985D02*
X0000936246Y0001476859D01*
X0000939996Y0001480609D01*
X0000941870Y0001488108D01*
X0000941870Y0001501231D01*
X0000939996Y0001508730D01*
X0000936246Y0001512480D01*
X0000932497Y0001514355D01*
X0000924998Y0001514355D01*
X0000921248Y0001512480D01*
X0000917499Y0001508730D01*
X0000915624Y0001501231D01*
X0000915624Y0001488108D01*
X0000917499Y0001480609D01*
X0000921248Y0001476859D01*
X0000924998Y0001474985D01*
X0000932497Y0001474985D01*
X0000900626Y0001510605D02*
X0000898751Y0001512480D01*
X0000895001Y0001514355D01*
X0000885627Y0001514355D01*
X0000881878Y0001512480D01*
X0000880003Y0001510605D01*
X0000878128Y0001506855D01*
X0000878128Y0001503106D01*
X0000880003Y0001497482D01*
X0000902500Y0001474985D01*
X0000878128Y0001474985D01*
X0001231522Y0001173488D02*
X0001244645Y0001192236D01*
X0001254019Y0001173488D02*
X0001254019Y0001212859D01*
X0001239021Y0001212859D01*
X0001235271Y0001210984D01*
X0001233397Y0001209109D01*
X0001231522Y0001205359D01*
X0001231522Y0001199735D01*
X0001233397Y0001195986D01*
X0001235271Y0001194111D01*
X0001239021Y0001192236D01*
X0001254019Y0001192236D01*
X0001195901Y0001212859D02*
X0001214649Y0001212859D01*
X0001216524Y0001194111D01*
X0001214649Y0001195986D01*
X0001210899Y0001197860D01*
X0001201525Y0001197860D01*
X0001197776Y0001195986D01*
X0001195901Y0001194111D01*
X0001194026Y0001190361D01*
X0001194026Y0001180988D01*
X0001195901Y0001177238D01*
X0001197776Y0001175363D01*
X0001201525Y0001173488D01*
X0001210899Y0001173488D01*
X0001214649Y0001175363D01*
X0001216524Y0001177238D01*
X0001093727Y0001172111D02*
X0001106850Y0001190858D01*
X0001116224Y0001172111D02*
X0001116224Y0001211481D01*
X0001101226Y0001211481D01*
X0001097476Y0001209606D01*
X0001095601Y0001207731D01*
X0001093727Y0001203982D01*
X0001093727Y0001198357D01*
X0001095601Y0001194608D01*
X0001097476Y0001192733D01*
X0001101226Y0001190858D01*
X0001116224Y0001190858D01*
X0001071229Y0001194608D02*
X0001074979Y0001196482D01*
X0001076854Y0001198357D01*
X0001078728Y0001202107D01*
X0001078728Y0001203982D01*
X0001076854Y0001207731D01*
X0001074979Y0001209606D01*
X0001071229Y0001211481D01*
X0001063730Y0001211481D01*
X0001059981Y0001209606D01*
X0001058106Y0001207731D01*
X0001056231Y0001203982D01*
X0001056231Y0001202107D01*
X0001058106Y0001198357D01*
X0001059981Y0001196482D01*
X0001063730Y0001194608D01*
X0001071229Y0001194608D01*
X0001074979Y0001192733D01*
X0001076854Y0001190858D01*
X0001078728Y0001187109D01*
X0001078728Y0001179610D01*
X0001076854Y0001175860D01*
X0001074979Y0001173985D01*
X0001071229Y0001172111D01*
X0001063730Y0001172111D01*
X0001059981Y0001173985D01*
X0001058106Y0001175860D01*
X0001056231Y0001179610D01*
X0001056231Y0001187109D01*
X0001058106Y0001190858D01*
X0001059981Y0001192733D01*
X0001063730Y0001194608D01*
X0002917750Y0000715890D02*
X0002930873Y0000734638D01*
X0002940247Y0000715890D02*
X0002940247Y0000755260D01*
X0002925249Y0000755260D01*
X0002921499Y0000753385D01*
X0002919625Y0000751511D01*
X0002917750Y0000747761D01*
X0002917750Y0000742137D01*
X0002919625Y0000738387D01*
X0002921499Y0000736512D01*
X0002925249Y0000734638D01*
X0002940247Y0000734638D01*
X0002880254Y0000715890D02*
X0002902752Y0000715890D01*
X0002891503Y0000715890D02*
X0002891503Y0000755260D01*
X0002895253Y0000749636D01*
X0002899002Y0000745886D01*
X0002902752Y0000744012D01*
X0002867131Y0000755260D02*
X0002842759Y0000755260D01*
X0002855882Y0000740262D01*
X0002850258Y0000740262D01*
X0002846509Y0000738387D01*
X0002844634Y0000736512D01*
X0002842759Y0000732763D01*
X0002842759Y0000723389D01*
X0002844634Y0000719640D01*
X0002846509Y0000717765D01*
X0002850258Y0000715890D01*
X0002861507Y0000715890D01*
X0002865256Y0000717765D01*
X0002867131Y0000719640D01*
X0002484600Y0000728961D02*
X0002497724Y0000747709D01*
X0002507097Y0000728961D02*
X0002507097Y0000768331D01*
X0002492099Y0000768331D01*
X0002488350Y0000766456D01*
X0002486475Y0000764581D01*
X0002484600Y0000760832D01*
X0002484600Y0000755208D01*
X0002486475Y0000751458D01*
X0002488350Y0000749583D01*
X0002492099Y0000747709D01*
X0002507097Y0000747709D01*
X0002447105Y0000728961D02*
X0002469602Y0000728961D01*
X0002458353Y0000728961D02*
X0002458353Y0000768331D01*
X0002462103Y0000762707D01*
X0002465852Y0000758957D01*
X0002469602Y0000757082D01*
X0002413359Y0000755208D02*
X0002413359Y0000728961D01*
X0002422733Y0000770206D02*
X0002432107Y0000742084D01*
X0002407735Y0000742084D01*
X0002484600Y0000628961D02*
X0002497724Y0000647709D01*
X0002507097Y0000628961D02*
X0002507097Y0000668331D01*
X0002492099Y0000668331D01*
X0002488350Y0000666456D01*
X0002486475Y0000664581D01*
X0002484600Y0000660832D01*
X0002484600Y0000655208D01*
X0002486475Y0000651458D01*
X0002488350Y0000649583D01*
X0002492099Y0000647709D01*
X0002507097Y0000647709D01*
X0002447105Y0000628961D02*
X0002469602Y0000628961D01*
X0002458353Y0000628961D02*
X0002458353Y0000668331D01*
X0002462103Y0000662707D01*
X0002465852Y0000658957D01*
X0002469602Y0000657082D01*
X0002411484Y0000668331D02*
X0002430232Y0000668331D01*
X0002432107Y0000649583D01*
X0002430232Y0000651458D01*
X0002426482Y0000653333D01*
X0002417109Y0000653333D01*
X0002413359Y0000651458D01*
X0002411484Y0000649583D01*
X0002409610Y0000645834D01*
X0002409610Y0000636460D01*
X0002411484Y0000632710D01*
X0002413359Y0000630836D01*
X0002417109Y0000628961D01*
X0002426482Y0000628961D01*
X0002430232Y0000630836D01*
X0002432107Y0000632710D01*
X0001242725Y0000543213D02*
X0001255849Y0000561961D01*
X0001265223Y0000543213D02*
X0001265223Y0000582583D01*
X0001250224Y0000582583D01*
X0001246475Y0000580708D01*
X0001244600Y0000578833D01*
X0001242725Y0000575084D01*
X0001242725Y0000569460D01*
X0001244600Y0000565710D01*
X0001246475Y0000563835D01*
X0001250224Y0000561961D01*
X0001265223Y0000561961D01*
X0001231477Y0000582583D02*
X0001218353Y0000543213D01*
X0001205230Y0000582583D01*
X0001171484Y0000543213D02*
X0001193981Y0000543213D01*
X0001182733Y0000543213D02*
X0001182733Y0000582583D01*
X0001186482Y0000576959D01*
X0001190232Y0000573209D01*
X0001193981Y0000571334D01*
X0003689287Y0001200063D02*
X0003689287Y0001168192D01*
X0003687412Y0001164443D01*
X0003685538Y0001162568D01*
X0003681788Y0001160693D01*
X0003674289Y0001160693D01*
X0003670539Y0001162568D01*
X0003668665Y0001164443D01*
X0003666790Y0001168192D01*
X0003666790Y0001200063D01*
X0003651792Y0001200063D02*
X0003625545Y0001200063D01*
X0003642418Y0001160693D01*
X0001749287Y0000828331D02*
X0001749287Y0000796460D01*
X0001747412Y0000792710D01*
X0001745538Y0000790836D01*
X0001741788Y0000788961D01*
X0001734289Y0000788961D01*
X0001730539Y0000790836D01*
X0001728665Y0000792710D01*
X0001726790Y0000796460D01*
X0001726790Y0000828331D01*
X0001706167Y0000788961D02*
X0001698668Y0000788961D01*
X0001694919Y0000790836D01*
X0001693044Y0000792710D01*
X0001689295Y0000798335D01*
X0001687420Y0000805834D01*
X0001687420Y0000820832D01*
X0001689295Y0000824581D01*
X0001691169Y0000826456D01*
X0001694919Y0000828331D01*
X0001702418Y0000828331D01*
X0001706167Y0000826456D01*
X0001708042Y0000824581D01*
X0001709917Y0000820832D01*
X0001709917Y0000811458D01*
X0001708042Y0000807709D01*
X0001706167Y0000805834D01*
X0001702418Y0000803959D01*
X0001694919Y0000803959D01*
X0001691169Y0000805834D01*
X0001689295Y0000807709D01*
X0001687420Y0000811458D01*
X0001381897Y0000567709D02*
X0001381897Y0000548961D01*
X0001395020Y0000588331D02*
X0001381897Y0000567709D01*
X0001368773Y0000588331D01*
X0001335028Y0000548961D02*
X0001357525Y0000548961D01*
X0001346276Y0000548961D02*
X0001346276Y0000588331D01*
X0001350026Y0000582707D01*
X0001353775Y0000578957D01*
X0001357525Y0000577082D01*
X0001675440Y0001055504D02*
X0001675440Y0001036756D01*
X0001688563Y0001076126D02*
X0001675440Y0001055504D01*
X0001662317Y0001076126D01*
X0001651068Y0001072377D02*
X0001649193Y0001074251D01*
X0001645444Y0001076126D01*
X0001636070Y0001076126D01*
X0001632320Y0001074251D01*
X0001630446Y0001072377D01*
X0001628571Y0001068627D01*
X0001628571Y0001064878D01*
X0001630446Y0001059253D01*
X0001652943Y0001036756D01*
X0001628571Y0001036756D01*
M02*