%
M48
METRIC,000.000
T01C0.50
%
T01
X011257Y042962
X012257Y042962
X013257Y042962
X014257Y042962
X015257Y042962
X016257Y042962
X016399Y041462
X015399Y041462
X014399Y041462
X013399Y041462
X012399Y041462
X011399Y041462
X082257Y042962
X083257Y042962
X084257Y042962
X085257Y042962
X086257Y042962
X087257Y042962
X087399Y041462
X086399Y041462
X085399Y041462
X084399Y041462
X083399Y041462
X082399Y041462
X044257Y042962
X045257Y042962
X046257Y042962
X047257Y042962
X048257Y042962
X049257Y042962
X049399Y041462
X048399Y041462
X047399Y041462
X046399Y041462
X045399Y041462
X044399Y041462
M30