%
M48
METRIC,000.000
T01C0.40
T02C0.50
T03C0.55
T04C0.80
T05C1.00
T06C3.20
%
T01
X012047Y052840
X013443Y082050
X015476Y048268
X017254Y081033
X017254Y081033
X017396Y075461
X018778Y068080
X019519Y075555
X019519Y050493
X019540Y077732
X021318Y068080
X021424Y050493
X022334Y064524
X023614Y048212
X023858Y060968
X024874Y064524
X025890Y049030
X026144Y045220
X026271Y066937
X029192Y073922
X029974Y055400
X031477Y056904
X032238Y070620
X033256Y077224
X033763Y046236
X034525Y057920
X034525Y056904
X037320Y079890
X038115Y072009
X038590Y079890
X042146Y059952
X047480Y077224
X047480Y076208
X052813Y061476
X054846Y059444
X056878Y067064
X059585Y078240
X062974Y056904
X064497Y063000
X064497Y053348
X064497Y048775
X065006Y077732
X069471Y063287
X069578Y048745
X075928Y046744
X075961Y048712
X076428Y063383
X076436Y061984
X080246Y056396
X084818Y055126
X087866Y072144
X088374Y057920
X089898Y052840
X091559Y055263
X012047Y010840
X013443Y040050
X015476Y006268
X017254Y039034
X017254Y039034
X017396Y033461
X018778Y026080
X019519Y033555
X019519Y008493
X019540Y035732
X021318Y026080
X021424Y008493
X022334Y022524
X023614Y006212
X023858Y018968
X024874Y022524
X025890Y007029
X026144Y003220
X026271Y024937
X029192Y031921
X029974Y013400
X031477Y014904
X032238Y028619
X033256Y035224
X033763Y004236
X034525Y015920
X034525Y014904
X037320Y037891
X038115Y030009
X038590Y037891
X042146Y017952
X047480Y035224
X047480Y034208
X052813Y019476
X054846Y017444
X056878Y025064
X059585Y036239
X062974Y014904
X064497Y021000
X064497Y011348
X064497Y006776
X065006Y035732
X069471Y021287
X069578Y006745
X075928Y004744
X075961Y006712
X076428Y021383
X076436Y019984
X080246Y014396
X084818Y013126
X087866Y030144
X088374Y015920
X089898Y010840
X091559Y013263
T02
X041129Y066556
X043029Y066556
X046090Y082298
X046090Y081651
X053090Y082298
X053090Y081651
X041129Y024556
X043029Y024556
X046090Y040298
X046090Y039651
X053090Y040298
X053090Y039651
T03
X047241Y079273
X046938Y079273
X052239Y079273
X051940Y079273
X047241Y037273
X046938Y037273
X052239Y037273
X051940Y037273
T04
X047888Y045220
X051290Y045220
X085833Y077732
X092432Y073922
X028430Y052840
X030970Y052840
X033510Y052840
X080781Y078933
X080781Y076434
X034701Y065494
X034701Y060614
X047888Y003220
X051290Y003220
X085833Y035732
X092432Y031921
X028430Y010840
X030970Y010840
X033510Y010840
X080781Y036933
X080781Y034434
X034701Y023494
X034701Y018614
T05
X082277Y069604
X087279Y069604
X045803Y072212
X048343Y072212
X050883Y072212
X053423Y072212
X063482Y068080
X066021Y068080
X068561Y068080
X054800Y075788
X065513Y071890
X092946Y069604
X092946Y067064
X092946Y064524
X092946Y061984
X006332Y053856
X006332Y051316
X043670Y054872
X046209Y054872
X048750Y054872
X051290Y054872
X053830Y054872
X056370Y054872
X082277Y027604
X087279Y027604
X045803Y030212
X048343Y030212
X050883Y030212
X053423Y030212
X063482Y026080
X066021Y026080
X068561Y026080
X054800Y033788
X065513Y029890
X092946Y027604
X092946Y025064
X092946Y022524
X092946Y019984
X006332Y011856
X006332Y009316
X043670Y012872
X046209Y012872
X048750Y012872
X051290Y012872
X053830Y012872
X056370Y012872
T06
X090614Y079212
X008612Y079212
X090614Y047211
X008612Y047211
X090614Y037212
X008612Y037212
X090614Y005211
X008612Y005211
M30