%MOIN*%
%OFA0B0*%
%FSLAX46Y46*%
%IPPOS*%
%LPD*%
%ADD10C,0.005905511811023622*%
%ADD11R,0.055118110236220472X0.1141732283464567*%
%ADD12R,0.086614173228346469X0.055118110236220472*%
%ADD13C,0.082677165354330714*%
%ADD14O,0.082677165354330714X0.082677165354330714*%
%ADD15R,0.082677165354330714X0.082677165354330714*%
%ADD16R,0.062992125984251982X0.0452755905511811*%
%ADD17C,0.26771653543307089*%
%ADD18R,0.051181102362204731X0.062992125984251982*%
%ADD19R,0.062992125984251982X0.051181102362204731*%
%ADD20C,0.094488188976377951*%
%ADD21R,0.094488188976377951X0.094488188976377951*%
%ADD22R,0.07874015748031496X0.094488188976377951*%
%ADD23C,0.07874015748031496*%
%ADD24R,0.07874015748031496X0.07874015748031496*%
%ADD25R,0.0452755905511811X0.062992125984251982*%
%ADD26C,0.07874015748031496*%
%ADD27C,0.0039370078740157488*%
%ADD28O,0.055118110236220472X0.076771653543307089*%
%ADD29O,0.064960629921259838X0.053149606299212608*%
%ADD30R,0.031496062992125991X0.068897637795275593*%
%ADD31R,0.17574803149606302X0.17574803149606302*%
%ADD32R,0.066929133858267723X0.074803149606299218*%
%ADD33R,0.074803149606299218X0.066929133858267723*%
%ADD34C,0.074803149606299218*%
%ADD35C,0.072440944881889777*%
%ADD36R,0.094488188976377951X0.074803149606299218*%
%ADD37R,0.094488188976377951X0.16535433070866143*%
%ADD38R,0.07716535433070866X0.041338582677165357*%
%ADD39C,0.055118110236220472*%
%ADD50C,0.005905511811023622*%
%ADD51R,0.055118110236220472X0.1141732283464567*%
%ADD52R,0.086614173228346469X0.055118110236220472*%
%ADD53C,0.082677165354330714*%
%ADD54O,0.082677165354330714X0.082677165354330714*%
%ADD55R,0.082677165354330714X0.082677165354330714*%
%ADD56R,0.062992125984251982X0.0452755905511811*%
%ADD57C,0.26771653543307089*%
%ADD58R,0.051181102362204731X0.062992125984251982*%
%ADD59R,0.062992125984251982X0.051181102362204731*%
%ADD60C,0.094488188976377951*%
%ADD61R,0.094488188976377951X0.094488188976377951*%
%ADD62R,0.07874015748031496X0.094488188976377951*%
%ADD63C,0.07874015748031496*%
%ADD64R,0.07874015748031496X0.07874015748031496*%
%ADD65R,0.0452755905511811X0.062992125984251982*%
%ADD66C,0.07874015748031496*%
%ADD67C,0.0039370078740157488*%
%ADD68O,0.055118110236220472X0.076771653543307089*%
%ADD69O,0.064960629921259838X0.053149606299212608*%
%ADD70R,0.031496062992125991X0.068897637795275593*%
%ADD71R,0.17574803149606302X0.17574803149606302*%
%ADD72R,0.066929133858267723X0.074803149606299218*%
%ADD73R,0.074803149606299218X0.066929133858267723*%
%ADD74C,0.074803149606299218*%
%ADD75C,0.072440944881889777*%
%ADD76R,0.094488188976377951X0.074803149606299218*%
%ADD77R,0.094488188976377951X0.16535433070866143*%
%ADD78R,0.07716535433070866X0.041338582677165357*%
%ADD79C,0.055118110236220472*%
%LPD*%
D10*
X0002309512Y0001840929D02*
X0002313262Y0001840929D01*
X0002317011Y0001839055D01*
X0002318886Y0001837180D01*
X0002320761Y0001833430D01*
X0002322635Y0001825931D01*
X0002322635Y0001816557D01*
X0002320761Y0001809058D01*
X0002318886Y0001805309D01*
X0002317011Y0001803434D01*
X0002313262Y0001801559D01*
X0002309512Y0001801559D01*
X0002305762Y0001803434D01*
X0002303888Y0001805309D01*
X0002302013Y0001809058D01*
X0002300138Y0001816557D01*
X0002300138Y0001825931D01*
X0002302013Y0001833430D01*
X0002303888Y0001837180D01*
X0002305762Y0001839055D01*
X0002309512Y0001840929D01*
X0002356381Y0001827806D02*
X0002356381Y0001801559D01*
X0002347007Y0001842804D02*
X0002337634Y0001814683D01*
X0002362005Y0001814683D01*
X0002405125Y0001842804D02*
X0002371379Y0001792185D01*
X0002416374Y0001837180D02*
X0002418248Y0001839055D01*
X0002421998Y0001840929D01*
X0002431372Y0001840929D01*
X0002435121Y0001839055D01*
X0002436996Y0001837180D01*
X0002438871Y0001833430D01*
X0002438871Y0001829681D01*
X0002436996Y0001824056D01*
X0002414499Y0001801559D01*
X0002438871Y0001801559D01*
X0002463243Y0001840929D02*
X0002466992Y0001840929D01*
X0002470742Y0001839055D01*
X0002472617Y0001837180D01*
X0002474491Y0001833430D01*
X0002476366Y0001825931D01*
X0002476366Y0001816557D01*
X0002474491Y0001809058D01*
X0002472617Y0001805309D01*
X0002470742Y0001803434D01*
X0002466992Y0001801559D01*
X0002463243Y0001801559D01*
X0002459493Y0001803434D01*
X0002457619Y0001805309D01*
X0002455744Y0001809058D01*
X0002453869Y0001816557D01*
X0002453869Y0001825931D01*
X0002455744Y0001833430D01*
X0002457619Y0001837180D01*
X0002459493Y0001839055D01*
X0002463243Y0001840929D01*
X0002491364Y0001837180D02*
X0002493239Y0001839055D01*
X0002496989Y0001840929D01*
X0002506362Y0001840929D01*
X0002510112Y0001839055D01*
X0002511987Y0001837180D01*
X0002513862Y0001833430D01*
X0002513862Y0001829681D01*
X0002511987Y0001824056D01*
X0002489490Y0001801559D01*
X0002513862Y0001801559D01*
X0002538233Y0001840929D02*
X0002541983Y0001840929D01*
X0002545733Y0001839055D01*
X0002547607Y0001837180D01*
X0002549482Y0001833430D01*
X0002551357Y0001825931D01*
X0002551357Y0001816557D01*
X0002549482Y0001809058D01*
X0002547607Y0001805309D01*
X0002545733Y0001803434D01*
X0002541983Y0001801559D01*
X0002538233Y0001801559D01*
X0002534484Y0001803434D01*
X0002532609Y0001805309D01*
X0002530734Y0001809058D01*
X0002528860Y0001816557D01*
X0002528860Y0001825931D01*
X0002530734Y0001833430D01*
X0002532609Y0001837180D01*
X0002534484Y0001839055D01*
X0002538233Y0001840929D01*
X0002327135Y0001722819D02*
X0002332057Y0001762189D01*
X0002351507Y0001722819D02*
X0002347992Y0001724694D01*
X0002346352Y0001726569D01*
X0002344946Y0001730318D01*
X0002346352Y0001741567D01*
X0002348695Y0001745316D01*
X0002350804Y0001747191D01*
X0002354788Y0001749066D01*
X0002360413Y0001749066D01*
X0002363928Y0001747191D01*
X0002365568Y0001745316D01*
X0002366974Y0001741567D01*
X0002365568Y0001730318D01*
X0002363225Y0001726569D01*
X0002361116Y0001724694D01*
X0002357132Y0001722819D01*
X0002351507Y0001722819D01*
X0002380801Y0001762189D02*
X0002403298Y0001762189D01*
X0002387128Y0001722819D02*
X0002392049Y0001762189D01*
X0002413375Y0001737817D02*
X0002443371Y0001737817D01*
X0002477351Y0001724694D02*
X0002473367Y0001722819D01*
X0002465868Y0001722819D01*
X0002462353Y0001724694D01*
X0002460712Y0001726569D01*
X0002459306Y0001730318D01*
X0002460712Y0001741567D01*
X0002463056Y0001745316D01*
X0002465165Y0001747191D01*
X0002469149Y0001749066D01*
X0002476648Y0001749066D01*
X0002480163Y0001747191D01*
X0002493990Y0001722819D02*
X0002498911Y0001762189D01*
X0002510862Y0001722819D02*
X0002513440Y0001743442D01*
X0002512034Y0001747191D01*
X0002508519Y0001749066D01*
X0002502895Y0001749066D01*
X0002498911Y0001747191D01*
X0002496802Y0001745316D01*
X0002546483Y0001722819D02*
X0002549061Y0001743442D01*
X0002547655Y0001747191D01*
X0002544140Y0001749066D01*
X0002536640Y0001749066D01*
X0002532657Y0001747191D01*
X0002546717Y0001724694D02*
X0002542733Y0001722819D01*
X0002533360Y0001722819D01*
X0002529844Y0001724694D01*
X0002528438Y0001728443D01*
X0002528907Y0001732193D01*
X0002531251Y0001735943D01*
X0002535234Y0001737817D01*
X0002544608Y0001737817D01*
X0002548592Y0001739692D01*
X0002565231Y0001722819D02*
X0002568512Y0001749066D01*
X0002568043Y0001745316D02*
X0002570152Y0001747191D01*
X0002574136Y0001749066D01*
X0002579760Y0001749066D01*
X0002583275Y0001747191D01*
X0002584681Y0001743442D01*
X0002582104Y0001722819D01*
X0002584681Y0001743442D02*
X0002587025Y0001747191D01*
X0002591009Y0001749066D01*
X0002596633Y0001749066D01*
X0002600148Y0001747191D01*
X0002601554Y0001743442D01*
X0002598976Y0001722819D01*
X0002617724Y0001722819D02*
X0002622645Y0001762189D01*
X0002620771Y0001747191D02*
X0002624754Y0001749066D01*
X0002632254Y0001749066D01*
X0002635769Y0001747191D01*
X0002637409Y0001745316D01*
X0002638815Y0001741567D01*
X0002637409Y0001730318D01*
X0002635066Y0001726569D01*
X0002632957Y0001724694D01*
X0002628973Y0001722819D01*
X0002621474Y0001722819D01*
X0002617958Y0001724694D01*
X0002653345Y0001722819D02*
X0002656625Y0001749066D01*
X0002655688Y0001741567D02*
X0002658032Y0001745316D01*
X0002660141Y0001747191D01*
X0002664125Y0001749066D01*
X0002667874Y0001749066D01*
X0002692949Y0001724694D02*
X0002688965Y0001722819D01*
X0002681466Y0001722819D01*
X0002677951Y0001724694D01*
X0002676545Y0001728443D01*
X0002678420Y0001743442D01*
X0002680763Y0001747191D01*
X0002684747Y0001749066D01*
X0002692246Y0001749066D01*
X0002695761Y0001747191D01*
X0002697167Y0001743442D01*
X0002696699Y0001739692D01*
X0002677482Y0001735943D01*
X0002740990Y0001749066D02*
X0002747083Y0001722819D01*
X0002759738Y0001749066D01*
X0002774033Y0001758440D02*
X0002776142Y0001760314D01*
X0002780126Y0001762189D01*
X0002789499Y0001762189D01*
X0002793015Y0001760314D01*
X0002794655Y0001758440D01*
X0002796061Y0001754690D01*
X0002795592Y0001750941D01*
X0002793015Y0001745316D01*
X0002767705Y0001722819D01*
X0002792077Y0001722819D01*
X0002809419Y0001726569D02*
X0002811059Y0001724694D01*
X0002808950Y0001722819D01*
X0002807310Y0001724694D01*
X0002809419Y0001726569D01*
X0002808950Y0001722819D01*
X0002840118Y0001762189D02*
X0002843868Y0001762189D01*
X0002847383Y0001760314D01*
X0002849023Y0001758440D01*
X0002850429Y0001754690D01*
X0002851367Y0001747191D01*
X0002850195Y0001737817D01*
X0002847383Y0001730318D01*
X0002845039Y0001726569D01*
X0002842930Y0001724694D01*
X0002838946Y0001722819D01*
X0002835197Y0001722819D01*
X0002831682Y0001724694D01*
X0002830041Y0001726569D01*
X0002828635Y0001730318D01*
X0002827698Y0001737817D01*
X0002828870Y0001747191D01*
X0002831682Y0001754690D01*
X0002834025Y0001758440D01*
X0002836134Y0001760314D01*
X0002840118Y0001762189D01*
X0002895189Y0001722819D02*
X0002900111Y0001762189D01*
X0002898236Y0001747191D02*
X0002902220Y0001749066D01*
X0002909719Y0001749066D01*
X0002913234Y0001747191D01*
X0002914874Y0001745316D01*
X0002916281Y0001741567D01*
X0002914874Y0001730318D01*
X0002912531Y0001726569D01*
X0002910422Y0001724694D01*
X0002906438Y0001722819D01*
X0002898939Y0001722819D01*
X0002895424Y0001724694D01*
X0002930341Y0001749066D02*
X0002936434Y0001722819D01*
X0002949089Y0001749066D02*
X0002936434Y0001722819D01*
X0002931513Y0001713445D01*
X0002929404Y0001711571D01*
X0002925420Y0001709696D01*
X0002990802Y0001722819D02*
X0002995724Y0001762189D01*
X0003010722Y0001762189D01*
X0003014237Y0001760314D01*
X0003015877Y0001758440D01*
X0003017284Y0001754690D01*
X0003016580Y0001749066D01*
X0003014237Y0001745316D01*
X0003012128Y0001743442D01*
X0003008144Y0001741567D01*
X0002993146Y0001741567D01*
X0003047045Y0001722819D02*
X0003049623Y0001743442D01*
X0003048217Y0001747191D01*
X0003044702Y0001749066D01*
X0003037203Y0001749066D01*
X0003033219Y0001747191D01*
X0003047280Y0001724694D02*
X0003043296Y0001722819D01*
X0003033922Y0001722819D01*
X0003030407Y0001724694D01*
X0003029001Y0001728443D01*
X0003029470Y0001732193D01*
X0003031813Y0001735943D01*
X0003035797Y0001737817D01*
X0003045171Y0001737817D01*
X0003049155Y0001739692D01*
X0003085947Y0001749066D02*
X0003082666Y0001722819D01*
X0003069074Y0001749066D02*
X0003066496Y0001728443D01*
X0003067902Y0001724694D01*
X0003071417Y0001722819D01*
X0003077042Y0001722819D01*
X0003081026Y0001724694D01*
X0003083135Y0001726569D01*
X0003107038Y0001722819D02*
X0003103523Y0001724694D01*
X0003102117Y0001728443D01*
X0003106335Y0001762189D01*
X0003167733Y0001743442D02*
X0003173123Y0001741567D01*
X0003174764Y0001739692D01*
X0003176170Y0001735943D01*
X0003175467Y0001730318D01*
X0003173123Y0001726569D01*
X0003171014Y0001724694D01*
X0003167030Y0001722819D01*
X0003152032Y0001722819D01*
X0003156954Y0001762189D01*
X0003170077Y0001762189D01*
X0003173592Y0001760314D01*
X0003175233Y0001758440D01*
X0003176639Y0001754690D01*
X0003176170Y0001750941D01*
X0003173826Y0001747191D01*
X0003171717Y0001745316D01*
X0003167733Y0001743442D01*
X0003154610Y0001743442D01*
X0003208275Y0001722819D02*
X0003210853Y0001743442D01*
X0003209447Y0001747191D01*
X0003205932Y0001749066D01*
X0003198433Y0001749066D01*
X0003194449Y0001747191D01*
X0003208510Y0001724694D02*
X0003204526Y0001722819D01*
X0003195152Y0001722819D01*
X0003191637Y0001724694D01*
X0003190231Y0001728443D01*
X0003190699Y0001732193D01*
X0003193043Y0001735943D01*
X0003197027Y0001737817D01*
X0003206401Y0001737817D01*
X0003210384Y0001739692D01*
X0003227023Y0001722819D02*
X0003230304Y0001749066D01*
X0003229366Y0001741567D02*
X0003231710Y0001745316D01*
X0003233819Y0001747191D01*
X0003237803Y0001749066D01*
X0003241552Y0001749066D01*
X0003257019Y0001722819D02*
X0003253504Y0001724694D01*
X0003251864Y0001726569D01*
X0003250457Y0001730318D01*
X0003251864Y0001741567D01*
X0003254207Y0001745316D01*
X0003256316Y0001747191D01*
X0003260300Y0001749066D01*
X0003265924Y0001749066D01*
X0003269440Y0001747191D01*
X0003271080Y0001745316D01*
X0003272486Y0001741567D01*
X0003271080Y0001730318D01*
X0003268736Y0001726569D01*
X0003266627Y0001724694D01*
X0003262643Y0001722819D01*
X0003257019Y0001722819D01*
X0003290296Y0001749066D02*
X0003287015Y0001722819D01*
X0003289828Y0001745316D02*
X0003291937Y0001747191D01*
X0003295921Y0001749066D01*
X0003301545Y0001749066D01*
X0003305060Y0001747191D01*
X0003306466Y0001743442D01*
X0003303888Y0001722819D01*
D11*
X0000531496Y0002181102D03*
X0000610236Y0002181102D03*
X0000688976Y0002181102D03*
X0000767716Y0002181102D03*
X0000846456Y0002181102D03*
X0000925196Y0002181102D03*
X0001003937Y0002181102D03*
X0001082677Y0002181102D03*
D12*
X0001141732Y0002283464D03*
X0001141732Y0002362204D03*
X0001141732Y0002440944D03*
X0001141732Y0002519685D03*
X0001141732Y0002598425D03*
X0001141732Y0002677165D03*
D11*
X0001082677Y0002779527D03*
X0001003937Y0002779527D03*
X0000925196Y0002779527D03*
X0000846456Y0002779527D03*
X0000767716Y0002779527D03*
X0000688976Y0002779527D03*
X0000610236Y0002779527D03*
X0000531496Y0002779527D03*
D13*
X0001803307Y0002842992D03*
D14*
X0001903307Y0002842992D03*
X0002003307Y0002842992D03*
D13*
X0002103307Y0002842992D03*
D15*
X0001719291Y0002160314D03*
D14*
X0001819291Y0002160314D03*
X0001919291Y0002160314D03*
X0002019291Y0002160314D03*
X0002119291Y0002160314D03*
X0002219291Y0002160314D03*
D16*
X0001439803Y0002999488D03*
X0001514606Y0002999488D03*
X0001514606Y0003079488D03*
X0001439803Y0003079488D03*
D17*
X0003567480Y0001858740D03*
X0003567480Y0003118582D03*
X0000339133Y0001858740D03*
X0000339133Y0003118582D03*
D18*
X0000768503Y0001987952D03*
X0000768503Y0002074566D03*
X0001003503Y0002974566D03*
X0001003503Y0002887952D03*
X0000843503Y0001987952D03*
X0000843503Y0002074566D03*
X0001003503Y0001987952D03*
X0001003503Y0002074566D03*
X0000923503Y0001987952D03*
X0000923503Y0002074566D03*
X0000688503Y0002974566D03*
X0000688503Y0002887952D03*
X0000768503Y0002974566D03*
X0000768503Y0002887952D03*
X0000608503Y0002974566D03*
X0000608503Y0002887952D03*
X0000923503Y0002974566D03*
X0000923503Y0002887952D03*
X0000528503Y0002974566D03*
X0000528503Y0002887952D03*
X0000843503Y0002974566D03*
X0000843503Y0002887952D03*
X0000608503Y0002074566D03*
X0000608503Y0001987952D03*
X0000688503Y0002074566D03*
X0000688503Y0001987952D03*
X0000528503Y0002074566D03*
X0000528503Y0001987952D03*
D19*
X0002648503Y0002541606D03*
X0002735118Y0002541606D03*
X0002651811Y0002441606D03*
X0002738425Y0002441606D03*
X0003252519Y0002220314D03*
X0003339133Y0002220314D03*
X0003248582Y0002120314D03*
X0003335196Y0002120314D03*
X0002638346Y0001969133D03*
X0002724960Y0001969133D03*
X0002638346Y0001869133D03*
X0002724960Y0001869133D03*
D20*
X0003436141Y0002740314D03*
D21*
X0003239291Y0002740314D03*
D22*
X0002469291Y0003137952D03*
X0002469291Y0002980472D03*
D23*
X0003180393Y0003107637D03*
D24*
X0003180393Y0003009212D03*
D25*
X0003035984Y0001977716D03*
X0003035984Y0001902913D03*
X0003629291Y0002235511D03*
X0003629291Y0002310314D03*
X0003055118Y0002462913D03*
X0003055118Y0002537716D03*
D23*
X0003639098Y0002910314D03*
D26*
X0003639098Y0002910314D02*
X0003639098Y0002910314D01*
D23*
X0003379291Y0003060314D03*
D27*
G36*
X0003325510Y0003045904D02*
G01*
X0003364880Y0003114095D01*
X0003433071Y0003074725D01*
X0003393701Y0003006534D01*
X0003325510Y0003045904D01*
X0003325510Y0003045904D01*
G37*
D20*
X0002157539Y0002983820D03*
X0002579291Y0002830314D03*
D28*
X0001814566Y0003227362D03*
X0002090157Y0003227362D03*
D29*
X0001853937Y0003121062D03*
X0002050787Y0003121062D03*
D30*
X0001901181Y0003121062D03*
X0001926771Y0003121062D03*
X0001952362Y0003121062D03*
X0001977952Y0003121062D03*
X0002003543Y0003121062D03*
D31*
X0002937559Y0002200314D03*
X0003399291Y0002488661D03*
X0002937559Y0002760314D03*
D14*
X0000249291Y0002020314D03*
D15*
X0000249291Y0002120314D03*
D14*
X0002699291Y0002680314D03*
X0002599291Y0002680314D03*
D15*
X0002499291Y0002680314D03*
D32*
X0000619291Y0003064015D03*
X0000619291Y0003170314D03*
X0000529291Y0003064015D03*
X0000529291Y0003170314D03*
D33*
X0001406141Y0001780314D03*
X0001512440Y0001780314D03*
X0001252440Y0001780314D03*
X0001146141Y0001780314D03*
D32*
X0000679291Y0001903464D03*
X0000679291Y0001797165D03*
D33*
X0001122440Y0003070314D03*
X0001016141Y0003070314D03*
D32*
X0000919291Y0003173464D03*
X0000919291Y0003067165D03*
X0000529291Y0001800314D03*
X0000529291Y0001906614D03*
X0000829291Y0003067165D03*
X0000829291Y0003173464D03*
D34*
X0002019291Y0001780314D03*
X0001885433Y0001780314D03*
D32*
X0000859291Y0001900314D03*
X0000859291Y0001794015D03*
X0000769291Y0001794015D03*
X0000769291Y0001900314D03*
D35*
X0001319291Y0002080314D03*
X0001219291Y0002080314D03*
X0001119291Y0002080314D03*
D36*
X0002666377Y0003149763D03*
X0002666377Y0002968661D03*
X0002666377Y0003059212D03*
D37*
X0002914409Y0003059212D03*
D38*
X0002931653Y0001880393D03*
X0002931653Y0001917795D03*
X0002931653Y0001955196D03*
X0002825354Y0001955196D03*
X0002825354Y0001880393D03*
X0002825354Y0001917795D03*
X0003435590Y0002173700D03*
X0003435590Y0002136299D03*
X0003435590Y0002211102D03*
X0003541889Y0002211102D03*
X0003541889Y0002173700D03*
X0003541889Y0002136299D03*
X0002841968Y0002492866D03*
X0002841968Y0002455464D03*
X0002841968Y0002530267D03*
X0002948267Y0002530267D03*
X0002948267Y0002492866D03*
X0002948267Y0002455464D03*
D15*
X0003659291Y0002740314D03*
D14*
X0003659291Y0002640314D03*
X0003659291Y0002540314D03*
X0003659291Y0002440314D03*
D34*
X0001366220Y0002578543D03*
X0001366220Y0002386417D03*
D39*
X0001619291Y0002620314D03*
X0001694094Y0002620314D03*
G04 next file*
%LPD*%
G04 #@! TF.GenerationSoftware,KiCad,Pcbnew,(5.1.0)-1*
G04 #@! TF.CreationDate,2020-04-13T11:23:52+02:00*
G04 #@! TF.ProjectId,objet_chambre,6f626a65-745f-4636-9861-6d6272652e6b,rev?*
G04 #@! TF.SameCoordinates,PX9fa1b90PY2b1e160*
G04 #@! TF.FileFunction,Soldermask,Top*
G04 #@! TF.FilePolarity,Negative*
G04 Gerber Fmt 4.6, Leading zero omitted, Abs format (unit mm)*
G04 Created by KiCad (PCBNEW (5.1.0)-1) date 2020-04-13 11:23:52*
G04 APERTURE LIST*
G04 APERTURE END LIST*
D50*
X0002309512Y0000187386D02*
X0002313262Y0000187386D01*
X0002317011Y0000185511D01*
X0002318886Y0000183637D01*
X0002320761Y0000179887D01*
X0002322635Y0000172388D01*
X0002322635Y0000163014D01*
X0002320761Y0000155515D01*
X0002318886Y0000151766D01*
X0002317011Y0000149891D01*
X0002313262Y0000148016D01*
X0002309512Y0000148016D01*
X0002305762Y0000149891D01*
X0002303888Y0000151766D01*
X0002302013Y0000155515D01*
X0002300138Y0000163014D01*
X0002300138Y0000172388D01*
X0002302013Y0000179887D01*
X0002303888Y0000183637D01*
X0002305762Y0000185511D01*
X0002309512Y0000187386D01*
X0002356381Y0000174263D02*
X0002356381Y0000148016D01*
X0002347007Y0000189261D02*
X0002337634Y0000161139D01*
X0002362005Y0000161139D01*
X0002405125Y0000189261D02*
X0002371379Y0000138642D01*
X0002416374Y0000183637D02*
X0002418248Y0000185511D01*
X0002421998Y0000187386D01*
X0002431372Y0000187386D01*
X0002435121Y0000185511D01*
X0002436996Y0000183637D01*
X0002438871Y0000179887D01*
X0002438871Y0000176137D01*
X0002436996Y0000170513D01*
X0002414499Y0000148016D01*
X0002438871Y0000148016D01*
X0002463243Y0000187386D02*
X0002466992Y0000187386D01*
X0002470742Y0000185511D01*
X0002472617Y0000183637D01*
X0002474491Y0000179887D01*
X0002476366Y0000172388D01*
X0002476366Y0000163014D01*
X0002474491Y0000155515D01*
X0002472617Y0000151766D01*
X0002470742Y0000149891D01*
X0002466992Y0000148016D01*
X0002463243Y0000148016D01*
X0002459493Y0000149891D01*
X0002457619Y0000151766D01*
X0002455744Y0000155515D01*
X0002453869Y0000163014D01*
X0002453869Y0000172388D01*
X0002455744Y0000179887D01*
X0002457619Y0000183637D01*
X0002459493Y0000185511D01*
X0002463243Y0000187386D01*
X0002491364Y0000183637D02*
X0002493239Y0000185511D01*
X0002496989Y0000187386D01*
X0002506362Y0000187386D01*
X0002510112Y0000185511D01*
X0002511987Y0000183637D01*
X0002513862Y0000179887D01*
X0002513862Y0000176137D01*
X0002511987Y0000170513D01*
X0002489490Y0000148016D01*
X0002513862Y0000148016D01*
X0002538233Y0000187386D02*
X0002541983Y0000187386D01*
X0002545733Y0000185511D01*
X0002547607Y0000183637D01*
X0002549482Y0000179887D01*
X0002551357Y0000172388D01*
X0002551357Y0000163014D01*
X0002549482Y0000155515D01*
X0002547607Y0000151766D01*
X0002545733Y0000149891D01*
X0002541983Y0000148016D01*
X0002538233Y0000148016D01*
X0002534484Y0000149891D01*
X0002532609Y0000151766D01*
X0002530734Y0000155515D01*
X0002528860Y0000163014D01*
X0002528860Y0000172388D01*
X0002530734Y0000179887D01*
X0002532609Y0000183637D01*
X0002534484Y0000185511D01*
X0002538233Y0000187386D01*
X0002327135Y0000069276D02*
X0002332057Y0000108646D01*
X0002351507Y0000069276D02*
X0002347992Y0000071151D01*
X0002346352Y0000073025D01*
X0002344946Y0000076775D01*
X0002346352Y0000088024D01*
X0002348695Y0000091773D01*
X0002350804Y0000093648D01*
X0002354788Y0000095523D01*
X0002360413Y0000095523D01*
X0002363928Y0000093648D01*
X0002365568Y0000091773D01*
X0002366974Y0000088024D01*
X0002365568Y0000076775D01*
X0002363225Y0000073025D01*
X0002361116Y0000071151D01*
X0002357132Y0000069276D01*
X0002351507Y0000069276D01*
X0002380801Y0000108646D02*
X0002403298Y0000108646D01*
X0002387128Y0000069276D02*
X0002392049Y0000108646D01*
X0002413375Y0000084274D02*
X0002443371Y0000084274D01*
X0002477351Y0000071151D02*
X0002473367Y0000069276D01*
X0002465868Y0000069276D01*
X0002462353Y0000071151D01*
X0002460712Y0000073025D01*
X0002459306Y0000076775D01*
X0002460712Y0000088024D01*
X0002463056Y0000091773D01*
X0002465165Y0000093648D01*
X0002469149Y0000095523D01*
X0002476648Y0000095523D01*
X0002480163Y0000093648D01*
X0002493990Y0000069276D02*
X0002498911Y0000108646D01*
X0002510862Y0000069276D02*
X0002513440Y0000089898D01*
X0002512034Y0000093648D01*
X0002508519Y0000095523D01*
X0002502895Y0000095523D01*
X0002498911Y0000093648D01*
X0002496802Y0000091773D01*
X0002546483Y0000069276D02*
X0002549061Y0000089898D01*
X0002547655Y0000093648D01*
X0002544140Y0000095523D01*
X0002536640Y0000095523D01*
X0002532657Y0000093648D01*
X0002546717Y0000071151D02*
X0002542733Y0000069276D01*
X0002533360Y0000069276D01*
X0002529844Y0000071151D01*
X0002528438Y0000074900D01*
X0002528907Y0000078650D01*
X0002531251Y0000082399D01*
X0002535234Y0000084274D01*
X0002544608Y0000084274D01*
X0002548592Y0000086149D01*
X0002565231Y0000069276D02*
X0002568512Y0000095523D01*
X0002568043Y0000091773D02*
X0002570152Y0000093648D01*
X0002574136Y0000095523D01*
X0002579760Y0000095523D01*
X0002583275Y0000093648D01*
X0002584681Y0000089898D01*
X0002582104Y0000069276D01*
X0002584681Y0000089898D02*
X0002587025Y0000093648D01*
X0002591009Y0000095523D01*
X0002596633Y0000095523D01*
X0002600148Y0000093648D01*
X0002601554Y0000089898D01*
X0002598976Y0000069276D01*
X0002617724Y0000069276D02*
X0002622645Y0000108646D01*
X0002620771Y0000093648D02*
X0002624754Y0000095523D01*
X0002632254Y0000095523D01*
X0002635769Y0000093648D01*
X0002637409Y0000091773D01*
X0002638815Y0000088024D01*
X0002637409Y0000076775D01*
X0002635066Y0000073025D01*
X0002632957Y0000071151D01*
X0002628973Y0000069276D01*
X0002621474Y0000069276D01*
X0002617958Y0000071151D01*
X0002653345Y0000069276D02*
X0002656625Y0000095523D01*
X0002655688Y0000088024D02*
X0002658032Y0000091773D01*
X0002660141Y0000093648D01*
X0002664125Y0000095523D01*
X0002667874Y0000095523D01*
X0002692949Y0000071151D02*
X0002688965Y0000069276D01*
X0002681466Y0000069276D01*
X0002677951Y0000071151D01*
X0002676545Y0000074900D01*
X0002678420Y0000089898D01*
X0002680763Y0000093648D01*
X0002684747Y0000095523D01*
X0002692246Y0000095523D01*
X0002695761Y0000093648D01*
X0002697167Y0000089898D01*
X0002696699Y0000086149D01*
X0002677482Y0000082399D01*
X0002740990Y0000095523D02*
X0002747083Y0000069276D01*
X0002759738Y0000095523D01*
X0002774033Y0000104896D02*
X0002776142Y0000106771D01*
X0002780126Y0000108646D01*
X0002789499Y0000108646D01*
X0002793015Y0000106771D01*
X0002794655Y0000104896D01*
X0002796061Y0000101147D01*
X0002795592Y0000097397D01*
X0002793015Y0000091773D01*
X0002767705Y0000069276D01*
X0002792077Y0000069276D01*
X0002809419Y0000073025D02*
X0002811059Y0000071151D01*
X0002808950Y0000069276D01*
X0002807310Y0000071151D01*
X0002809419Y0000073025D01*
X0002808950Y0000069276D01*
X0002840118Y0000108646D02*
X0002843868Y0000108646D01*
X0002847383Y0000106771D01*
X0002849023Y0000104896D01*
X0002850429Y0000101147D01*
X0002851367Y0000093648D01*
X0002850195Y0000084274D01*
X0002847383Y0000076775D01*
X0002845039Y0000073025D01*
X0002842930Y0000071151D01*
X0002838946Y0000069276D01*
X0002835197Y0000069276D01*
X0002831682Y0000071151D01*
X0002830041Y0000073025D01*
X0002828635Y0000076775D01*
X0002827698Y0000084274D01*
X0002828870Y0000093648D01*
X0002831682Y0000101147D01*
X0002834025Y0000104896D01*
X0002836134Y0000106771D01*
X0002840118Y0000108646D01*
X0002895189Y0000069276D02*
X0002900111Y0000108646D01*
X0002898236Y0000093648D02*
X0002902220Y0000095523D01*
X0002909719Y0000095523D01*
X0002913234Y0000093648D01*
X0002914874Y0000091773D01*
X0002916281Y0000088024D01*
X0002914874Y0000076775D01*
X0002912531Y0000073025D01*
X0002910422Y0000071151D01*
X0002906438Y0000069276D01*
X0002898939Y0000069276D01*
X0002895424Y0000071151D01*
X0002930341Y0000095523D02*
X0002936434Y0000069276D01*
X0002949089Y0000095523D02*
X0002936434Y0000069276D01*
X0002931513Y0000059902D01*
X0002929404Y0000058027D01*
X0002925420Y0000056152D01*
X0002990802Y0000069276D02*
X0002995724Y0000108646D01*
X0003010722Y0000108646D01*
X0003014237Y0000106771D01*
X0003015877Y0000104896D01*
X0003017284Y0000101147D01*
X0003016580Y0000095523D01*
X0003014237Y0000091773D01*
X0003012128Y0000089898D01*
X0003008144Y0000088024D01*
X0002993146Y0000088024D01*
X0003047045Y0000069276D02*
X0003049623Y0000089898D01*
X0003048217Y0000093648D01*
X0003044702Y0000095523D01*
X0003037203Y0000095523D01*
X0003033219Y0000093648D01*
X0003047280Y0000071151D02*
X0003043296Y0000069276D01*
X0003033922Y0000069276D01*
X0003030407Y0000071151D01*
X0003029001Y0000074900D01*
X0003029470Y0000078650D01*
X0003031813Y0000082399D01*
X0003035797Y0000084274D01*
X0003045171Y0000084274D01*
X0003049155Y0000086149D01*
X0003085947Y0000095523D02*
X0003082666Y0000069276D01*
X0003069074Y0000095523D02*
X0003066496Y0000074900D01*
X0003067902Y0000071151D01*
X0003071417Y0000069276D01*
X0003077042Y0000069276D01*
X0003081026Y0000071151D01*
X0003083135Y0000073025D01*
X0003107038Y0000069276D02*
X0003103523Y0000071151D01*
X0003102117Y0000074900D01*
X0003106335Y0000108646D01*
X0003167733Y0000089898D02*
X0003173123Y0000088024D01*
X0003174764Y0000086149D01*
X0003176170Y0000082399D01*
X0003175467Y0000076775D01*
X0003173123Y0000073025D01*
X0003171014Y0000071151D01*
X0003167030Y0000069276D01*
X0003152032Y0000069276D01*
X0003156954Y0000108646D01*
X0003170077Y0000108646D01*
X0003173592Y0000106771D01*
X0003175233Y0000104896D01*
X0003176639Y0000101147D01*
X0003176170Y0000097397D01*
X0003173826Y0000093648D01*
X0003171717Y0000091773D01*
X0003167733Y0000089898D01*
X0003154610Y0000089898D01*
X0003208275Y0000069276D02*
X0003210853Y0000089898D01*
X0003209447Y0000093648D01*
X0003205932Y0000095523D01*
X0003198433Y0000095523D01*
X0003194449Y0000093648D01*
X0003208510Y0000071151D02*
X0003204526Y0000069276D01*
X0003195152Y0000069276D01*
X0003191637Y0000071151D01*
X0003190231Y0000074900D01*
X0003190699Y0000078650D01*
X0003193043Y0000082399D01*
X0003197027Y0000084274D01*
X0003206401Y0000084274D01*
X0003210384Y0000086149D01*
X0003227023Y0000069276D02*
X0003230304Y0000095523D01*
X0003229366Y0000088024D02*
X0003231710Y0000091773D01*
X0003233819Y0000093648D01*
X0003237803Y0000095523D01*
X0003241552Y0000095523D01*
X0003257019Y0000069276D02*
X0003253504Y0000071151D01*
X0003251864Y0000073025D01*
X0003250457Y0000076775D01*
X0003251864Y0000088024D01*
X0003254207Y0000091773D01*
X0003256316Y0000093648D01*
X0003260300Y0000095523D01*
X0003265924Y0000095523D01*
X0003269440Y0000093648D01*
X0003271080Y0000091773D01*
X0003272486Y0000088024D01*
X0003271080Y0000076775D01*
X0003268736Y0000073025D01*
X0003266627Y0000071151D01*
X0003262643Y0000069276D01*
X0003257019Y0000069276D01*
X0003290296Y0000095523D02*
X0003287015Y0000069276D01*
X0003289828Y0000091773D02*
X0003291937Y0000093648D01*
X0003295921Y0000095523D01*
X0003301545Y0000095523D01*
X0003305060Y0000093648D01*
X0003306466Y0000089898D01*
X0003303888Y0000069276D01*
D51*
X0000531496Y0000527559D03*
X0000610236Y0000527559D03*
X0000688976Y0000527559D03*
X0000767716Y0000527559D03*
X0000846456Y0000527559D03*
X0000925196Y0000527559D03*
X0001003937Y0000527559D03*
X0001082677Y0000527559D03*
D52*
X0001141732Y0000629921D03*
X0001141732Y0000708661D03*
X0001141732Y0000787401D03*
X0001141732Y0000866141D03*
X0001141732Y0000944881D03*
X0001141732Y0001023622D03*
D51*
X0001082677Y0001125984D03*
X0001003937Y0001125984D03*
X0000925196Y0001125984D03*
X0000846456Y0001125984D03*
X0000767716Y0001125984D03*
X0000688976Y0001125984D03*
X0000610236Y0001125984D03*
X0000531496Y0001125984D03*
D53*
X0001803307Y0001189448D03*
D54*
X0001903307Y0001189448D03*
X0002003307Y0001189448D03*
D53*
X0002103307Y0001189448D03*
D55*
X0001719291Y0000506771D03*
D54*
X0001819291Y0000506771D03*
X0001919291Y0000506771D03*
X0002019291Y0000506771D03*
X0002119291Y0000506771D03*
X0002219291Y0000506771D03*
D56*
X0001439803Y0001345944D03*
X0001514606Y0001345944D03*
X0001514606Y0001425944D03*
X0001439803Y0001425944D03*
D57*
X0003567480Y0000205196D03*
X0003567480Y0001465039D03*
X0000339133Y0000205196D03*
X0000339133Y0001465039D03*
D58*
X0000768503Y0000334409D03*
X0000768503Y0000421023D03*
X0001003503Y0001321023D03*
X0001003503Y0001234409D03*
X0000843503Y0000334409D03*
X0000843503Y0000421023D03*
X0001003503Y0000334409D03*
X0001003503Y0000421023D03*
X0000923503Y0000334409D03*
X0000923503Y0000421023D03*
X0000688503Y0001321023D03*
X0000688503Y0001234409D03*
X0000768503Y0001321023D03*
X0000768503Y0001234409D03*
X0000608503Y0001321023D03*
X0000608503Y0001234409D03*
X0000923503Y0001321023D03*
X0000923503Y0001234409D03*
X0000528503Y0001321023D03*
X0000528503Y0001234409D03*
X0000843503Y0001321023D03*
X0000843503Y0001234409D03*
X0000608503Y0000421023D03*
X0000608503Y0000334409D03*
X0000688503Y0000421023D03*
X0000688503Y0000334409D03*
X0000528503Y0000421023D03*
X0000528503Y0000334409D03*
D59*
X0002648503Y0000888062D03*
X0002735118Y0000888062D03*
X0002651811Y0000788062D03*
X0002738425Y0000788062D03*
X0003252519Y0000566771D03*
X0003339133Y0000566771D03*
X0003248582Y0000466771D03*
X0003335196Y0000466771D03*
X0002638346Y0000315590D03*
X0002724960Y0000315590D03*
X0002638346Y0000215590D03*
X0002724960Y0000215590D03*
D60*
X0003436141Y0001086771D03*
D61*
X0003239291Y0001086771D03*
D62*
X0002469291Y0001484409D03*
X0002469291Y0001326929D03*
D63*
X0003180393Y0001454094D03*
D64*
X0003180393Y0001355669D03*
D65*
X0003035984Y0000324173D03*
X0003035984Y0000249370D03*
X0003629291Y0000581968D03*
X0003629291Y0000656771D03*
X0003055118Y0000809370D03*
X0003055118Y0000884173D03*
D63*
X0003639098Y0001256771D03*
D66*
X0003639098Y0001256771D02*
X0003639098Y0001256771D01*
D63*
X0003379291Y0001406771D03*
D67*
G36*
X0003325510Y0001392361D02*
G01*
X0003364880Y0001460552D01*
X0003433071Y0001421182D01*
X0003393701Y0001352991D01*
X0003325510Y0001392361D01*
X0003325510Y0001392361D01*
G37*
D60*
X0002157539Y0001330276D03*
X0002579291Y0001176771D03*
D68*
X0001814566Y0001573818D03*
X0002090157Y0001573818D03*
D69*
X0001853937Y0001467519D03*
X0002050787Y0001467519D03*
D70*
X0001901181Y0001467519D03*
X0001926771Y0001467519D03*
X0001952362Y0001467519D03*
X0001977952Y0001467519D03*
X0002003543Y0001467519D03*
D71*
X0002937559Y0000546771D03*
X0003399291Y0000835118D03*
X0002937559Y0001106771D03*
D54*
X0000249291Y0000366771D03*
D55*
X0000249291Y0000466771D03*
D54*
X0002699291Y0001026771D03*
X0002599291Y0001026771D03*
D55*
X0002499291Y0001026771D03*
D72*
X0000619291Y0001410472D03*
X0000619291Y0001516771D03*
X0000529291Y0001410472D03*
X0000529291Y0001516771D03*
D73*
X0001406141Y0000126771D03*
X0001512440Y0000126771D03*
X0001252440Y0000126771D03*
X0001146141Y0000126771D03*
D72*
X0000679291Y0000249921D03*
X0000679291Y0000143622D03*
D73*
X0001122440Y0001416771D03*
X0001016141Y0001416771D03*
D72*
X0000919291Y0001519921D03*
X0000919291Y0001413622D03*
X0000529291Y0000146771D03*
X0000529291Y0000253070D03*
X0000829291Y0001413622D03*
X0000829291Y0001519921D03*
D74*
X0002019291Y0000126771D03*
X0001885433Y0000126771D03*
D72*
X0000859291Y0000246771D03*
X0000859291Y0000140472D03*
X0000769291Y0000140472D03*
X0000769291Y0000246771D03*
D75*
X0001319291Y0000426771D03*
X0001219291Y0000426771D03*
X0001119291Y0000426771D03*
D76*
X0002666377Y0001496220D03*
X0002666377Y0001315118D03*
X0002666377Y0001405669D03*
D77*
X0002914409Y0001405669D03*
D78*
X0002931653Y0000226850D03*
X0002931653Y0000264251D03*
X0002931653Y0000301653D03*
X0002825354Y0000301653D03*
X0002825354Y0000226850D03*
X0002825354Y0000264251D03*
X0003435590Y0000520157D03*
X0003435590Y0000482755D03*
X0003435590Y0000557559D03*
X0003541889Y0000557559D03*
X0003541889Y0000520157D03*
X0003541889Y0000482755D03*
X0002841968Y0000839322D03*
X0002841968Y0000801921D03*
X0002841968Y0000876724D03*
X0002948267Y0000876724D03*
X0002948267Y0000839322D03*
X0002948267Y0000801921D03*
D55*
X0003659291Y0001086771D03*
D54*
X0003659291Y0000986771D03*
X0003659291Y0000886771D03*
X0003659291Y0000786771D03*
D74*
X0001366220Y0000925000D03*
X0001366220Y0000732874D03*
D79*
X0001619291Y0000966771D03*
X0001694094Y0000966771D03*
M02*