%MOIN*%
%OFA0B0*%
%FSLAX46Y46*%
%IPPOS*%
%LPD*%
%ADD10R,0.047244094488188976X0.0905511811023622*%
%ADD11C,0.082677165354330714*%
%ADD12O,0.082677165354330714X0.082677165354330714*%
%ADD13R,0.082677165354330714X0.082677165354330714*%
%ADD14R,0.074803149606299218X0.03937007874015748*%
%ADD15C,0.26771653543307089*%
%ADD16R,0.062992125984251982X0.051181102362204731*%
%ADD17R,0.0452755905511811X0.062992125984251982*%
%ADD18C,0.094488188976377951*%
%ADD19R,0.094488188976377951X0.094488188976377951*%
%ADD20C,0.07874015748031496*%
%ADD21R,0.07874015748031496X0.07874015748031496*%
%ADD22R,0.062992125984251982X0.0452755905511811*%
%ADD23C,0.07874015748031496*%
%ADD24C,0.0039370078740157488*%
%ADD25O,0.055118110236220472X0.076771653543307089*%
%ADD26O,0.064960629921259838X0.053149606299212608*%
%ADD27R,0.0905511811023622X0.047244094488188976*%
%ADD28R,0.066929133858267723X0.074803149606299218*%
%ADD29C,0.074803149606299218*%
%ADD30R,0.074803149606299218X0.066929133858267723*%
%ADD31C,0.072440944881889777*%
%ADD32R,0.037401574803149609X0.084645669291338585*%
%ADD33C,0.055118110236220472*%
%ADD44R,0.047244094488188976X0.0905511811023622*%
%ADD45C,0.082677165354330714*%
%ADD46O,0.082677165354330714X0.082677165354330714*%
%ADD47R,0.082677165354330714X0.082677165354330714*%
%ADD48R,0.074803149606299218X0.03937007874015748*%
%ADD49C,0.26771653543307089*%
%ADD50R,0.062992125984251982X0.051181102362204731*%
%ADD51R,0.0452755905511811X0.062992125984251982*%
%ADD52C,0.094488188976377951*%
%ADD53R,0.094488188976377951X0.094488188976377951*%
%ADD54C,0.07874015748031496*%
%ADD55R,0.07874015748031496X0.07874015748031496*%
%ADD56R,0.062992125984251982X0.0452755905511811*%
%ADD57C,0.07874015748031496*%
%ADD58C,0.0039370078740157488*%
%ADD59O,0.055118110236220472X0.076771653543307089*%
%ADD60O,0.064960629921259838X0.053149606299212608*%
%ADD61R,0.0905511811023622X0.047244094488188976*%
%ADD62R,0.066929133858267723X0.074803149606299218*%
%ADD63C,0.074803149606299218*%
%ADD64R,0.074803149606299218X0.066929133858267723*%
%ADD65C,0.072440944881889777*%
%ADD66R,0.037401574803149609X0.084645669291338585*%
%ADD67C,0.055118110236220472*%
%LPD*%
D10*
X0000669291Y0002480314D02*
X0003181889Y0002458425D03*
X0003144488Y0002340314D03*
X0003219291Y0002340314D03*
D11*
X0001803307Y0002842992D03*
D12*
X0001903307Y0002842992D03*
X0002003307Y0002842992D03*
D11*
X0002103307Y0002842992D03*
D13*
X0001719291Y0002160314D03*
D12*
X0001819291Y0002160314D03*
X0001919291Y0002160314D03*
X0002019291Y0002160314D03*
X0002119291Y0002160314D03*
X0002219291Y0002160314D03*
D14*
X0001374566Y0003139842D03*
X0001374566Y0003089842D03*
X0001374566Y0003039842D03*
X0001374566Y0002989842D03*
X0001374566Y0002939842D03*
X0001374566Y0002889842D03*
X0001374566Y0002839842D03*
X0001374566Y0002789842D03*
X0001587165Y0002789842D03*
X0001587165Y0002839842D03*
X0001587165Y0002889842D03*
X0001587165Y0002939842D03*
X0001587165Y0002989842D03*
X0001587165Y0003039842D03*
X0001587165Y0003089842D03*
X0001587165Y0003139842D03*
D15*
X0003567480Y0001858740D03*
X0003567480Y0003118582D03*
X0000339133Y0001858740D03*
X0000339133Y0003118582D03*
D16*
X0001872677Y0002720314D03*
X0001959291Y0002720314D03*
D17*
X0000879291Y0002397716D03*
X0000879291Y0002322913D03*
D18*
X0003436141Y0002740314D03*
D19*
X0003239291Y0002740314D03*
D17*
X0001520236Y0002369015D03*
X0001520236Y0002443818D03*
X0001520236Y0002603818D03*
X0001520236Y0002529015D03*
D20*
X0003180393Y0003107637D03*
D21*
X0003180393Y0003009212D03*
D17*
X0000389291Y0002042913D03*
X0000389291Y0002117716D03*
X0000789291Y0002397716D03*
X0000789291Y0002322913D03*
D22*
X0002914094Y0001917795D03*
X0002839291Y0001917795D03*
X0003451889Y0002173700D03*
X0003526692Y0002173700D03*
X0002857716Y0002491606D03*
X0002932519Y0002491606D03*
X0002101889Y0002640314D03*
X0002176692Y0002640314D03*
D20*
X0003639098Y0002910314D03*
D23*
X0003639098Y0002910314D02*
X0003639098Y0002910314D01*
D20*
X0003379291Y0003060314D03*
D24*
G36*
X0003325510Y0003045904D02*
G01*
X0003364880Y0003114095D01*
X0003433071Y0003074725D01*
X0003393701Y0003006534D01*
X0003325510Y0003045904D01*
X0003325510Y0003045904D01*
G37*
D18*
X0002157539Y0002983820D03*
X0002579291Y0002830314D03*
D25*
X0001814566Y0003227362D03*
X0002090157Y0003227362D03*
D26*
X0001853937Y0003121062D03*
X0002050787Y0003121062D03*
D12*
X0000249291Y0002020314D03*
D13*
X0000249291Y0002120314D03*
D12*
X0002699291Y0002680314D03*
X0002599291Y0002680314D03*
D13*
X0002499291Y0002680314D03*
D10*
X0001108818Y0002760314D03*
X0001183622Y0002760314D03*
X0001146220Y0002642204D03*
D27*
X0000850944Y0003047913D03*
X0000969055Y0003010511D03*
X0000969055Y0003085314D03*
D28*
X0001224960Y0002911692D03*
X0001224960Y0003017992D03*
X0001087165Y0002910314D03*
X0001087165Y0003016614D03*
D29*
X0002019291Y0001780314D03*
X0001885433Y0001780314D03*
D30*
X0002839291Y0002320314D03*
X0002945590Y0002320314D03*
X0002352440Y0002400314D03*
X0002246141Y0002400314D03*
X0002246141Y0002300314D03*
X0002352440Y0002300314D03*
D31*
X0001319291Y0002080314D03*
X0001219291Y0002080314D03*
X0001119291Y0002080314D03*
D13*
X0003659291Y0002740314D03*
D12*
X0003659291Y0002640314D03*
X0003659291Y0002540314D03*
X0003659291Y0002440314D03*
D32*
X0001824291Y0002314645D03*
X0001874291Y0002314645D03*
X0001924291Y0002314645D03*
X0001974291Y0002314645D03*
X0001974291Y0002605984D03*
X0001924291Y0002605984D03*
X0001874291Y0002605984D03*
X0001824291Y0002605984D03*
D29*
X0001366220Y0002578543D03*
X0001366220Y0002386417D03*
D33*
X0001619291Y0002620314D03*
X0001694094Y0002620314D03*
G04 next file*
%LPD*%
G04 #@! TF.GenerationSoftware,KiCad,Pcbnew,(5.1.0)-1*
G04 #@! TF.CreationDate,2020-04-13T11:23:52+02:00*
G04 #@! TF.ProjectId,objet_chambre,6f626a65-745f-4636-9861-6d6272652e6b,rev?*
G04 #@! TF.SameCoordinates,PX9fa1b90PY2b1e160*
G04 #@! TF.FileFunction,Soldermask,Bot*
G04 #@! TF.FilePolarity,Negative*
G04 Gerber Fmt 4.6, Leading zero omitted, Abs format (unit mm)*
G04 Created by KiCad (PCBNEW (5.1.0)-1) date 2020-04-13 11:23:52*
G04 APERTURE LIST*
G04 APERTURE END LIST*
D44*
X0000669291Y0000826771D02*
X0003181889Y0000804881D03*
X0003144488Y0000686771D03*
X0003219291Y0000686771D03*
D45*
X0001803307Y0001189448D03*
D46*
X0001903307Y0001189448D03*
X0002003307Y0001189448D03*
D45*
X0002103307Y0001189448D03*
D47*
X0001719291Y0000506771D03*
D46*
X0001819291Y0000506771D03*
X0001919291Y0000506771D03*
X0002019291Y0000506771D03*
X0002119291Y0000506771D03*
X0002219291Y0000506771D03*
D48*
X0001374566Y0001486299D03*
X0001374566Y0001436299D03*
X0001374566Y0001386299D03*
X0001374566Y0001336299D03*
X0001374566Y0001286299D03*
X0001374566Y0001236299D03*
X0001374566Y0001186299D03*
X0001374566Y0001136299D03*
X0001587165Y0001136299D03*
X0001587165Y0001186299D03*
X0001587165Y0001236299D03*
X0001587165Y0001286299D03*
X0001587165Y0001336299D03*
X0001587165Y0001386299D03*
X0001587165Y0001436299D03*
X0001587165Y0001486299D03*
D49*
X0003567480Y0000205196D03*
X0003567480Y0001465039D03*
X0000339133Y0000205196D03*
X0000339133Y0001465039D03*
D50*
X0001872677Y0001066771D03*
X0001959291Y0001066771D03*
D51*
X0000879291Y0000744173D03*
X0000879291Y0000669370D03*
D52*
X0003436141Y0001086771D03*
D53*
X0003239291Y0001086771D03*
D51*
X0001520236Y0000715472D03*
X0001520236Y0000790275D03*
X0001520236Y0000950275D03*
X0001520236Y0000875472D03*
D54*
X0003180393Y0001454094D03*
D55*
X0003180393Y0001355669D03*
D51*
X0000389291Y0000389370D03*
X0000389291Y0000464173D03*
X0000789291Y0000744173D03*
X0000789291Y0000669370D03*
D56*
X0002914094Y0000264251D03*
X0002839291Y0000264251D03*
X0003451889Y0000520157D03*
X0003526692Y0000520157D03*
X0002857716Y0000838062D03*
X0002932519Y0000838062D03*
X0002101889Y0000986771D03*
X0002176692Y0000986771D03*
D54*
X0003639098Y0001256771D03*
D57*
X0003639098Y0001256771D02*
X0003639098Y0001256771D01*
D54*
X0003379291Y0001406771D03*
D58*
G36*
X0003325510Y0001392361D02*
G01*
X0003364880Y0001460552D01*
X0003433071Y0001421182D01*
X0003393701Y0001352991D01*
X0003325510Y0001392361D01*
X0003325510Y0001392361D01*
G37*
D52*
X0002157539Y0001330276D03*
X0002579291Y0001176771D03*
D59*
X0001814566Y0001573818D03*
X0002090157Y0001573818D03*
D60*
X0001853937Y0001467519D03*
X0002050787Y0001467519D03*
D46*
X0000249291Y0000366771D03*
D47*
X0000249291Y0000466771D03*
D46*
X0002699291Y0001026771D03*
X0002599291Y0001026771D03*
D47*
X0002499291Y0001026771D03*
D44*
X0001108818Y0001106771D03*
X0001183622Y0001106771D03*
X0001146220Y0000988661D03*
D61*
X0000850944Y0001394370D03*
X0000969055Y0001356968D03*
X0000969055Y0001431771D03*
D62*
X0001224960Y0001258149D03*
X0001224960Y0001364448D03*
X0001087165Y0001256771D03*
X0001087165Y0001363070D03*
D63*
X0002019291Y0000126771D03*
X0001885433Y0000126771D03*
D64*
X0002839291Y0000666771D03*
X0002945590Y0000666771D03*
X0002352440Y0000746771D03*
X0002246141Y0000746771D03*
X0002246141Y0000646771D03*
X0002352440Y0000646771D03*
D65*
X0001319291Y0000426771D03*
X0001219291Y0000426771D03*
X0001119291Y0000426771D03*
D47*
X0003659291Y0001086771D03*
D46*
X0003659291Y0000986771D03*
X0003659291Y0000886771D03*
X0003659291Y0000786771D03*
D66*
X0001824291Y0000661102D03*
X0001874291Y0000661102D03*
X0001924291Y0000661102D03*
X0001974291Y0000661102D03*
X0001974291Y0000952440D03*
X0001924291Y0000952440D03*
X0001874291Y0000952440D03*
X0001824291Y0000952440D03*
D63*
X0001366220Y0000925000D03*
X0001366220Y0000732874D03*
D67*
X0001619291Y0000966771D03*
X0001694094Y0000966771D03*
M02*