%MOIN*%
%OFA0B0*%
%FSLAX46Y46*%
%IPPOS*%
%LPD*%
%ADD10C,0.0047244094488188976*%
%ADD11C,0.005905511811023622*%
%ADD22C,0.0047244094488188976*%
%ADD23C,0.005905511811023622*%
%LPD*%
D10*
X0000192125Y0002160629D02*
X0000192125Y0002800000D01*
X0000192125Y0002800000D02*
X0000492125Y0002800000D01*
X0001122047Y0002800000D02*
X0001146456Y0002800000D01*
X0001146456Y0002800000D02*
X0001146456Y0002716535D01*
X0001146456Y0002244094D02*
X0001146456Y0002160629D01*
X0001146456Y0002160629D02*
X0001122047Y0002160629D01*
X0000492125Y0002160629D02*
X0000192125Y0002160629D01*
X0000492125Y0002160629D02*
X0000492125Y0002136614D01*
X0002155669Y0002895354D02*
X0002155669Y0002842992D01*
X0002103307Y0002895354D02*
X0002155669Y0002895354D01*
X0002053307Y0002895354D02*
X0002053307Y0002790629D01*
X0002053307Y0002790629D02*
X0001750944Y0002790629D01*
X0002053307Y0002895354D02*
X0001750944Y0002895354D01*
X0001750944Y0002895354D02*
X0001750944Y0002790629D01*
D11*
X0002504488Y0002902047D02*
X0001402125Y0002902047D01*
X0001402125Y0002902047D02*
X0001402125Y0001858740D01*
X0001402125Y0001858740D02*
X0002504488Y0001858740D01*
X0002504488Y0001858740D02*
X0002504488Y0002902047D01*
X0002425748Y0002764251D02*
X0001480866Y0002764251D01*
X0001480866Y0002764251D02*
X0001480866Y0002252440D01*
X0001480866Y0002252440D02*
X0002425748Y0002252440D01*
X0002425748Y0002252440D02*
X0002425748Y0002764251D01*
D10*
X0001463425Y0003023110D02*
X0001490984Y0003023110D01*
X0001490984Y0002975866D02*
X0001463425Y0002975866D01*
X0001490984Y0003055866D02*
X0001463425Y0003055866D01*
X0001463425Y0003103110D02*
X0001490984Y0003103110D01*
X0000795275Y0002050944D02*
X0000795275Y0002011574D01*
X0000741732Y0002011574D02*
X0000741732Y0002050944D01*
X0000976732Y0002911574D02*
X0000976732Y0002950944D01*
X0001030275Y0002950944D02*
X0001030275Y0002911574D01*
X0000870275Y0002050944D02*
X0000870275Y0002011574D01*
X0000816732Y0002011574D02*
X0000816732Y0002050944D01*
X0001030275Y0002050944D02*
X0001030275Y0002011574D01*
X0000976732Y0002011574D02*
X0000976732Y0002050944D01*
X0000950275Y0002050944D02*
X0000950275Y0002011574D01*
X0000896732Y0002011574D02*
X0000896732Y0002050944D01*
X0000661732Y0002911574D02*
X0000661732Y0002950944D01*
X0000715275Y0002950944D02*
X0000715275Y0002911574D01*
X0000741732Y0002911574D02*
X0000741732Y0002950944D01*
X0000795275Y0002950944D02*
X0000795275Y0002911574D01*
X0000581732Y0002911574D02*
X0000581732Y0002950944D01*
X0000635275Y0002950944D02*
X0000635275Y0002911574D01*
X0000896732Y0002911574D02*
X0000896732Y0002950944D01*
X0000950275Y0002950944D02*
X0000950275Y0002911574D01*
X0000501732Y0002911574D02*
X0000501732Y0002950944D01*
X0000555275Y0002950944D02*
X0000555275Y0002911574D01*
X0000816732Y0002911574D02*
X0000816732Y0002950944D01*
X0000870275Y0002950944D02*
X0000870275Y0002911574D01*
X0000581732Y0002011574D02*
X0000581732Y0002050944D01*
X0000635275Y0002050944D02*
X0000635275Y0002011574D01*
X0000661732Y0002011574D02*
X0000661732Y0002050944D01*
X0000715275Y0002050944D02*
X0000715275Y0002011574D01*
X0000501732Y0002011574D02*
X0000501732Y0002050944D01*
X0000555275Y0002050944D02*
X0000555275Y0002011574D01*
X0002711496Y0002514834D02*
X0002672125Y0002514834D01*
X0002672125Y0002568377D02*
X0002711496Y0002568377D01*
X0002714803Y0002414834D02*
X0002675433Y0002414834D01*
X0002675433Y0002468377D02*
X0002714803Y0002468377D01*
X0003315511Y0002193543D02*
X0003276141Y0002193543D01*
X0003276141Y0002247086D02*
X0003315511Y0002247086D01*
X0003311574Y0002093543D02*
X0003272204Y0002093543D01*
X0003272204Y0002147086D02*
X0003311574Y0002147086D01*
X0002701338Y0001942362D02*
X0002661968Y0001942362D01*
X0002661968Y0001995905D02*
X0002701338Y0001995905D01*
X0002701338Y0001842362D02*
X0002661968Y0001842362D01*
X0002661968Y0001895905D02*
X0002701338Y0001895905D01*
X0002509448Y0003019842D02*
X0002509448Y0003098582D01*
X0002429133Y0003098582D02*
X0002429133Y0003019842D01*
X0003059606Y0001954094D02*
X0003059606Y0001926535D01*
X0003012362Y0001926535D02*
X0003012362Y0001954094D01*
X0003605669Y0002259133D02*
X0003605669Y0002286692D01*
X0003652913Y0002286692D02*
X0003652913Y0002259133D01*
X0003031496Y0002486535D02*
X0003031496Y0002514094D01*
X0003078740Y0002514094D02*
X0003078740Y0002486535D01*
X0002123622Y0003332874D02*
X0002123622Y0003080511D01*
X0001781102Y0003284448D02*
X0002123622Y0003284448D01*
X0001781102Y0003080511D02*
X0001781102Y0003332874D01*
X0002123622Y0003080511D02*
X0001781102Y0003080511D01*
X0002123622Y0003332874D02*
X0001781102Y0003332874D01*
D11*
X0002839159Y0002101914D02*
X0002839159Y0002298714D01*
X0003035959Y0002101914D02*
X0002839159Y0002101914D01*
X0003035959Y0002298714D02*
X0003035959Y0002101914D01*
X0002839159Y0002298714D02*
X0003035959Y0002298714D01*
X0003300891Y0002587061D02*
X0003497691Y0002587061D01*
X0003497691Y0002587061D02*
X0003497691Y0002390261D01*
X0003497691Y0002390261D02*
X0003300891Y0002390261D01*
X0003300891Y0002390261D02*
X0003300891Y0002587061D01*
X0002839159Y0002661914D02*
X0002839159Y0002858714D01*
X0003035959Y0002661914D02*
X0002839159Y0002661914D01*
X0003035959Y0002858714D02*
X0003035959Y0002661914D01*
X0002839159Y0002858714D02*
X0003035959Y0002858714D01*
D10*
X0000653937Y0003140787D02*
X0000653937Y0003093543D01*
X0000584645Y0003093543D02*
X0000584645Y0003140787D01*
X0000563937Y0003140787D02*
X0000563937Y0003093543D01*
X0000494645Y0003093543D02*
X0000494645Y0003140787D01*
X0001482913Y0001745669D02*
X0001435669Y0001745669D01*
X0001435669Y0001814960D02*
X0001482913Y0001814960D01*
X0001175669Y0001814960D02*
X0001222913Y0001814960D01*
X0001222913Y0001745669D02*
X0001175669Y0001745669D01*
X0000644645Y0001826692D02*
X0000644645Y0001873937D01*
X0000713937Y0001873937D02*
X0000713937Y0001826692D01*
X0001045669Y0003104960D02*
X0001092913Y0003104960D01*
X0001092913Y0003035669D02*
X0001045669Y0003035669D01*
X0000884645Y0003096692D02*
X0000884645Y0003143937D01*
X0000953937Y0003143937D02*
X0000953937Y0003096692D01*
X0000563937Y0001877086D02*
X0000563937Y0001829842D01*
X0000494645Y0001829842D02*
X0000494645Y0001877086D01*
X0000863937Y0003143937D02*
X0000863937Y0003096692D01*
X0000794645Y0003096692D02*
X0000794645Y0003143937D01*
X0002013169Y0001696919D02*
G75*
G03X0002011417Y0001864960I-0000060807J0000083395D01*
G01*
X0001892195Y0001865571D02*
G75*
G03X0001891338Y0001695669I0000060166J-0000085256D01*
G01*
X0001891338Y0001864960D02*
X0002011417Y0001864960D01*
X0001891338Y0001695669D02*
X0002011417Y0001695669D01*
X0000824645Y0001823543D02*
X0000824645Y0001870787D01*
X0000893937Y0001870787D02*
X0000893937Y0001823543D01*
X0000803937Y0001870787D02*
X0000803937Y0001823543D01*
X0000734645Y0001823543D02*
X0000734645Y0001870787D01*
X0002628976Y0003193464D02*
X0002865590Y0003193464D01*
X0002717559Y0002924960D02*
X0002865590Y0002924960D01*
X0002865590Y0003193464D02*
X0002865590Y0003143858D01*
X0002865590Y0002924960D02*
X0002865590Y0002974566D01*
X0002913937Y0001981181D02*
X0002843070Y0001981181D01*
X0002843070Y0001854409D02*
X0002959212Y0001854409D01*
X0003453307Y0002110314D02*
X0003569448Y0002110314D01*
X0003524173Y0002237086D02*
X0003453307Y0002237086D01*
X0002859685Y0002429480D02*
X0002975826Y0002429480D01*
X0002930551Y0002556251D02*
X0002859685Y0002556251D01*
D11*
X0001207731Y0002145318D02*
X0001239602Y0002145318D01*
X0001243352Y0002147193D01*
X0001245226Y0002149068D01*
X0001247101Y0002152817D01*
X0001247101Y0002160316D01*
X0001245226Y0002164066D01*
X0001243352Y0002165941D01*
X0001239602Y0002167815D01*
X0001207731Y0002167815D01*
X0001207731Y0002182814D02*
X0001207731Y0002207185D01*
X0001222729Y0002194062D01*
X0001222729Y0002199686D01*
X0001224604Y0002203436D01*
X0001226479Y0002205311D01*
X0001230228Y0002207185D01*
X0001239602Y0002207185D01*
X0001243352Y0002205311D01*
X0001245226Y0002203436D01*
X0001247101Y0002199686D01*
X0001247101Y0002188438D01*
X0001245226Y0002184688D01*
X0001243352Y0002182814D01*
X0001490239Y0002943292D02*
X0001490239Y0002911421D01*
X0001492114Y0002907671D01*
X0001493989Y0002905796D01*
X0001497738Y0002903922D01*
X0001505238Y0002903922D01*
X0001508987Y0002905796D01*
X0001510862Y0002907671D01*
X0001512737Y0002911421D01*
X0001512737Y0002943292D01*
X0001537109Y0002926419D02*
X0001533359Y0002928293D01*
X0001531484Y0002930168D01*
X0001529610Y0002933918D01*
X0001529610Y0002935793D01*
X0001531484Y0002939542D01*
X0001533359Y0002941417D01*
X0001537109Y0002943292D01*
X0001544608Y0002943292D01*
X0001548357Y0002941417D01*
X0001550232Y0002939542D01*
X0001552107Y0002935793D01*
X0001552107Y0002933918D01*
X0001550232Y0002930168D01*
X0001548357Y0002928293D01*
X0001544608Y0002926419D01*
X0001537109Y0002926419D01*
X0001533359Y0002924544D01*
X0001531484Y0002922669D01*
X0001529610Y0002918920D01*
X0001529610Y0002911421D01*
X0001531484Y0002907671D01*
X0001533359Y0002905796D01*
X0001537109Y0002903922D01*
X0001544608Y0002903922D01*
X0001548357Y0002905796D01*
X0001550232Y0002907671D01*
X0001552107Y0002911421D01*
X0001552107Y0002918920D01*
X0001550232Y0002922669D01*
X0001548357Y0002924544D01*
X0001544608Y0002926419D01*
X0001783622Y0002655515D02*
X0001781747Y0002651766D01*
X0001781747Y0002646141D01*
X0001783622Y0002640517D01*
X0001787371Y0002636767D01*
X0001791121Y0002634893D01*
X0001798620Y0002633018D01*
X0001804244Y0002633018D01*
X0001811743Y0002634893D01*
X0001815493Y0002636767D01*
X0001819242Y0002640517D01*
X0001821117Y0002646141D01*
X0001821117Y0002649891D01*
X0001819242Y0002655515D01*
X0001817367Y0002657390D01*
X0001804244Y0002657390D01*
X0001804244Y0002649891D01*
X0001821117Y0002674263D02*
X0001781747Y0002674263D01*
X0001821117Y0002696760D01*
X0001781747Y0002696760D01*
X0001821117Y0002715508D02*
X0001781747Y0002715508D01*
X0001781747Y0002724881D01*
X0001783622Y0002730506D01*
X0001787371Y0002734255D01*
X0001791121Y0002736130D01*
X0001798620Y0002738005D01*
X0001804244Y0002738005D01*
X0001811743Y0002736130D01*
X0001815493Y0002734255D01*
X0001819242Y0002730506D01*
X0001821117Y0002724881D01*
X0001821117Y0002715508D01*
X0001881747Y0002633018D02*
X0001921117Y0002646141D01*
X0001881747Y0002659265D01*
X0001921117Y0002672388D02*
X0001881747Y0002672388D01*
X0001881747Y0002681762D01*
X0001883622Y0002687386D01*
X0001887371Y0002691136D01*
X0001891121Y0002693010D01*
X0001898620Y0002694885D01*
X0001904244Y0002694885D01*
X0001911743Y0002693010D01*
X0001915493Y0002691136D01*
X0001919242Y0002687386D01*
X0001921117Y0002681762D01*
X0001921117Y0002672388D01*
X0001921117Y0002711758D02*
X0001881747Y0002711758D01*
X0001881747Y0002721132D01*
X0001883622Y0002726756D01*
X0001887371Y0002730506D01*
X0001891121Y0002732380D01*
X0001898620Y0002734255D01*
X0001904244Y0002734255D01*
X0001911743Y0002732380D01*
X0001915493Y0002730506D01*
X0001919242Y0002726756D01*
X0001921117Y0002721132D01*
X0001921117Y0002711758D01*
X0002119242Y0002645185D02*
X0002121117Y0002650809D01*
X0002121117Y0002660183D01*
X0002119242Y0002663933D01*
X0002117367Y0002665808D01*
X0002113618Y0002667682D01*
X0002109868Y0002667682D01*
X0002106119Y0002665808D01*
X0002104244Y0002663933D01*
X0002102369Y0002660183D01*
X0002100494Y0002652684D01*
X0002098620Y0002648935D01*
X0002096745Y0002647060D01*
X0002092995Y0002645185D01*
X0002089246Y0002645185D01*
X0002085496Y0002647060D01*
X0002083622Y0002648935D01*
X0002081747Y0002652684D01*
X0002081747Y0002662058D01*
X0002083622Y0002667682D01*
X0002121117Y0002684555D02*
X0002081747Y0002684555D01*
X0002081747Y0002693929D01*
X0002083622Y0002699553D01*
X0002087371Y0002703303D01*
X0002091121Y0002705178D01*
X0002098620Y0002707052D01*
X0002104244Y0002707052D01*
X0002111743Y0002705178D01*
X0002115493Y0002703303D01*
X0002119242Y0002699553D01*
X0002121117Y0002693929D01*
X0002121117Y0002684555D01*
X0002109868Y0002722051D02*
X0002109868Y0002740798D01*
X0002121117Y0002718301D02*
X0002081747Y0002731424D01*
X0002121117Y0002744548D01*
X0002019242Y0002642373D02*
X0002021117Y0002647997D01*
X0002021117Y0002657371D01*
X0002019242Y0002661121D01*
X0002017367Y0002662995D01*
X0002013618Y0002664870D01*
X0002009868Y0002664870D01*
X0002006119Y0002662995D01*
X0002004244Y0002661121D01*
X0002002369Y0002657371D01*
X0002000494Y0002649872D01*
X0001998620Y0002646122D01*
X0001996745Y0002644248D01*
X0001992995Y0002642373D01*
X0001989246Y0002642373D01*
X0001985496Y0002644248D01*
X0001983622Y0002646122D01*
X0001981747Y0002649872D01*
X0001981747Y0002659246D01*
X0001983622Y0002664870D01*
X0002017367Y0002704240D02*
X0002019242Y0002702365D01*
X0002021117Y0002696741D01*
X0002021117Y0002692992D01*
X0002019242Y0002687367D01*
X0002015493Y0002683618D01*
X0002011743Y0002681743D01*
X0002004244Y0002679868D01*
X0001998620Y0002679868D01*
X0001991121Y0002681743D01*
X0001987371Y0002683618D01*
X0001983622Y0002687367D01*
X0001981747Y0002692992D01*
X0001981747Y0002696741D01*
X0001983622Y0002702365D01*
X0001985496Y0002704240D01*
X0002021117Y0002721113D02*
X0001981747Y0002721113D01*
X0002021117Y0002743610D02*
X0001998620Y0002726737D01*
X0001981747Y0002743610D02*
X0002004244Y0002721113D01*
X0001582729Y0002986254D02*
X0001580854Y0002984379D01*
X0001575230Y0002982504D01*
X0001571481Y0002982504D01*
X0001565856Y0002984379D01*
X0001562107Y0002988129D01*
X0001560232Y0002991878D01*
X0001558357Y0002999377D01*
X0001558357Y0003005001D01*
X0001560232Y0003012500D01*
X0001562107Y0003016250D01*
X0001565856Y0003020000D01*
X0001571481Y0003021874D01*
X0001575230Y0003021874D01*
X0001580854Y0003020000D01*
X0001582729Y0003018125D01*
X0001618350Y0003021874D02*
X0001599602Y0003021874D01*
X0001597727Y0003003127D01*
X0001599602Y0003005001D01*
X0001603352Y0003006876D01*
X0001612725Y0003006876D01*
X0001616475Y0003005001D01*
X0001618350Y0003003127D01*
X0001620224Y0002999377D01*
X0001620224Y0002990003D01*
X0001618350Y0002986254D01*
X0001616475Y0002984379D01*
X0001612725Y0002982504D01*
X0001603352Y0002982504D01*
X0001599602Y0002984379D01*
X0001597727Y0002986254D01*
X0001582729Y0003065427D02*
X0001580854Y0003063552D01*
X0001575230Y0003061677D01*
X0001571481Y0003061677D01*
X0001565856Y0003063552D01*
X0001562107Y0003067302D01*
X0001560232Y0003071051D01*
X0001558357Y0003078550D01*
X0001558357Y0003084175D01*
X0001560232Y0003091674D01*
X0001562107Y0003095423D01*
X0001565856Y0003099173D01*
X0001571481Y0003101048D01*
X0001575230Y0003101048D01*
X0001580854Y0003099173D01*
X0001582729Y0003097298D01*
X0001616475Y0003087924D02*
X0001616475Y0003061677D01*
X0001607101Y0003102922D02*
X0001597727Y0003074801D01*
X0001622099Y0003074801D01*
X0002659002Y0002621874D02*
X0002659002Y0002593753D01*
X0002657127Y0002588129D01*
X0002653378Y0002584379D01*
X0002647754Y0002582504D01*
X0002644004Y0002582504D01*
X0002677750Y0002582504D02*
X0002677750Y0002621874D01*
X0002692748Y0002621874D01*
X0002696497Y0002620000D01*
X0002698372Y0002618125D01*
X0002700247Y0002614375D01*
X0002700247Y0002608751D01*
X0002698372Y0002605001D01*
X0002696497Y0002603127D01*
X0002692748Y0002601252D01*
X0002677750Y0002601252D01*
X0002713370Y0002621874D02*
X0002739617Y0002621874D01*
X0002722744Y0002582504D01*
X0002652309Y0002403166D02*
X0002652309Y0002375044D01*
X0002650434Y0002369420D01*
X0002646685Y0002365670D01*
X0002641061Y0002363796D01*
X0002637311Y0002363796D01*
X0002671057Y0002363796D02*
X0002671057Y0002403166D01*
X0002686055Y0002403166D01*
X0002689805Y0002401291D01*
X0002691679Y0002399416D01*
X0002693554Y0002395667D01*
X0002693554Y0002390042D01*
X0002691679Y0002386293D01*
X0002689805Y0002384418D01*
X0002686055Y0002382543D01*
X0002671057Y0002382543D01*
X0002727300Y0002403166D02*
X0002719801Y0002403166D01*
X0002716051Y0002401291D01*
X0002714176Y0002399416D01*
X0002710427Y0002393792D01*
X0002708552Y0002386293D01*
X0002708552Y0002371295D01*
X0002710427Y0002367545D01*
X0002712302Y0002365670D01*
X0002716051Y0002363796D01*
X0002723550Y0002363796D01*
X0002727300Y0002365670D01*
X0002729175Y0002367545D01*
X0002731049Y0002371295D01*
X0002731049Y0002380668D01*
X0002729175Y0002384418D01*
X0002727300Y0002386293D01*
X0002723550Y0002388167D01*
X0002716051Y0002388167D01*
X0002712302Y0002386293D01*
X0002710427Y0002384418D01*
X0002708552Y0002380668D01*
X0003263018Y0002298961D02*
X0003263018Y0002270839D01*
X0003261143Y0002265215D01*
X0003257394Y0002261466D01*
X0003251769Y0002259591D01*
X0003248020Y0002259591D01*
X0003281766Y0002259591D02*
X0003281766Y0002298961D01*
X0003296764Y0002298961D01*
X0003300513Y0002297086D01*
X0003302388Y0002295211D01*
X0003304263Y0002291462D01*
X0003304263Y0002285838D01*
X0003302388Y0002282088D01*
X0003300513Y0002280213D01*
X0003296764Y0002278338D01*
X0003281766Y0002278338D01*
X0003339883Y0002298961D02*
X0003321136Y0002298961D01*
X0003319261Y0002280213D01*
X0003321136Y0002282088D01*
X0003324885Y0002283963D01*
X0003334259Y0002283963D01*
X0003338008Y0002282088D01*
X0003339883Y0002280213D01*
X0003341758Y0002276464D01*
X0003341758Y0002267090D01*
X0003339883Y0002263340D01*
X0003338008Y0002261466D01*
X0003334259Y0002259591D01*
X0003324885Y0002259591D01*
X0003321136Y0002261466D01*
X0003319261Y0002263340D01*
X0003256482Y0002081874D02*
X0003256482Y0002053753D01*
X0003254608Y0002048129D01*
X0003250858Y0002044379D01*
X0003245234Y0002042504D01*
X0003241484Y0002042504D01*
X0003275230Y0002042504D02*
X0003275230Y0002081874D01*
X0003290228Y0002081874D01*
X0003293978Y0002080000D01*
X0003295852Y0002078125D01*
X0003297727Y0002074375D01*
X0003297727Y0002068751D01*
X0003295852Y0002065001D01*
X0003293978Y0002063127D01*
X0003290228Y0002061252D01*
X0003275230Y0002061252D01*
X0003331473Y0002068751D02*
X0003331473Y0002042504D01*
X0003322099Y0002083749D02*
X0003312725Y0002055628D01*
X0003337097Y0002055628D01*
X0002648845Y0002047780D02*
X0002648845Y0002019658D01*
X0002646970Y0002014034D01*
X0002643220Y0002010285D01*
X0002637596Y0002008410D01*
X0002633847Y0002008410D01*
X0002667592Y0002008410D02*
X0002667592Y0002047780D01*
X0002682590Y0002047780D01*
X0002686340Y0002045905D01*
X0002688215Y0002044030D01*
X0002690089Y0002040281D01*
X0002690089Y0002034656D01*
X0002688215Y0002030907D01*
X0002686340Y0002029032D01*
X0002682590Y0002027157D01*
X0002667592Y0002027157D01*
X0002703213Y0002047780D02*
X0002727585Y0002047780D01*
X0002714461Y0002032782D01*
X0002720086Y0002032782D01*
X0002723835Y0002030907D01*
X0002725710Y0002029032D01*
X0002727585Y0002025283D01*
X0002727585Y0002015909D01*
X0002725710Y0002012159D01*
X0002723835Y0002010285D01*
X0002720086Y0002008410D01*
X0002708837Y0002008410D01*
X0002705088Y0002010285D01*
X0002703213Y0002012159D01*
X0002648845Y0001830693D02*
X0002648845Y0001802572D01*
X0002646970Y0001796947D01*
X0002643220Y0001793198D01*
X0002637596Y0001791323D01*
X0002633847Y0001791323D01*
X0002667592Y0001791323D02*
X0002667592Y0001830693D01*
X0002682590Y0001830693D01*
X0002686340Y0001828818D01*
X0002688215Y0001826944D01*
X0002690089Y0001823194D01*
X0002690089Y0001817570D01*
X0002688215Y0001813820D01*
X0002686340Y0001811946D01*
X0002682590Y0001810071D01*
X0002667592Y0001810071D01*
X0002705088Y0001826944D02*
X0002706962Y0001828818D01*
X0002710712Y0001830693D01*
X0002720086Y0001830693D01*
X0002723835Y0001828818D01*
X0002725710Y0001826944D01*
X0002727585Y0001823194D01*
X0002727585Y0001819445D01*
X0002725710Y0001813820D01*
X0002703213Y0001791323D01*
X0002727585Y0001791323D01*
X0002462729Y0003215151D02*
X0002460854Y0003213277D01*
X0002455230Y0003211402D01*
X0002451481Y0003211402D01*
X0002445856Y0003213277D01*
X0002442107Y0003217026D01*
X0002440232Y0003220776D01*
X0002438357Y0003228275D01*
X0002438357Y0003233899D01*
X0002440232Y0003241398D01*
X0002442107Y0003245148D01*
X0002445856Y0003248897D01*
X0002451481Y0003250772D01*
X0002455230Y0003250772D01*
X0002460854Y0003248897D01*
X0002462729Y0003247022D01*
X0002475852Y0003250772D02*
X0002500224Y0003250772D01*
X0002487101Y0003235774D01*
X0002492725Y0003235774D01*
X0002496475Y0003233899D01*
X0002498350Y0003232024D01*
X0002500224Y0003228275D01*
X0002500224Y0003218901D01*
X0002498350Y0003215151D01*
X0002496475Y0003213277D01*
X0002492725Y0003211402D01*
X0002481477Y0003211402D01*
X0002477727Y0003213277D01*
X0002475852Y0003215151D01*
X0003053981Y0001807435D02*
X0003052107Y0001805560D01*
X0003046482Y0001803685D01*
X0003042733Y0001803685D01*
X0003037109Y0001805560D01*
X0003033359Y0001809310D01*
X0003031484Y0001813059D01*
X0003029610Y0001820558D01*
X0003029610Y0001826182D01*
X0003031484Y0001833682D01*
X0003033359Y0001837431D01*
X0003037109Y0001841181D01*
X0003042733Y0001843055D01*
X0003046482Y0001843055D01*
X0003052107Y0001841181D01*
X0003053981Y0001839306D01*
X0003091477Y0001803685D02*
X0003068980Y0001803685D01*
X0003080228Y0001803685D02*
X0003080228Y0001843055D01*
X0003076479Y0001837431D01*
X0003072729Y0001833682D01*
X0003068980Y0001831807D01*
X0003115849Y0001843055D02*
X0003119598Y0001843055D01*
X0003123348Y0001841181D01*
X0003125223Y0001839306D01*
X0003127097Y0001835556D01*
X0003128972Y0001828057D01*
X0003128972Y0001818683D01*
X0003127097Y0001811184D01*
X0003125223Y0001807435D01*
X0003123348Y0001805560D01*
X0003119598Y0001803685D01*
X0003115849Y0001803685D01*
X0003112099Y0001805560D01*
X0003110224Y0001807435D01*
X0003108350Y0001811184D01*
X0003106475Y0001818683D01*
X0003106475Y0001828057D01*
X0003108350Y0001835556D01*
X0003110224Y0001839306D01*
X0003112099Y0001841181D01*
X0003115849Y0001843055D01*
X0003513981Y0002266254D02*
X0003512107Y0002264379D01*
X0003506482Y0002262504D01*
X0003502733Y0002262504D01*
X0003497109Y0002264379D01*
X0003493359Y0002268129D01*
X0003491484Y0002271878D01*
X0003489610Y0002279377D01*
X0003489610Y0002285001D01*
X0003491484Y0002292500D01*
X0003493359Y0002296250D01*
X0003497109Y0002300000D01*
X0003502733Y0002301874D01*
X0003506482Y0002301874D01*
X0003512107Y0002300000D01*
X0003513981Y0002298125D01*
X0003551477Y0002262504D02*
X0003528980Y0002262504D01*
X0003540228Y0002262504D02*
X0003540228Y0002301874D01*
X0003536479Y0002296250D01*
X0003532729Y0002292500D01*
X0003528980Y0002290626D01*
X0003588972Y0002262504D02*
X0003566475Y0002262504D01*
X0003577724Y0002262504D02*
X0003577724Y0002301874D01*
X0003573974Y0002296250D01*
X0003570224Y0002292500D01*
X0003566475Y0002290626D01*
X0003053981Y0002383703D02*
X0003052107Y0002381828D01*
X0003046482Y0002379953D01*
X0003042733Y0002379953D01*
X0003037109Y0002381828D01*
X0003033359Y0002385577D01*
X0003031484Y0002389327D01*
X0003029610Y0002396826D01*
X0003029610Y0002402450D01*
X0003031484Y0002409949D01*
X0003033359Y0002413699D01*
X0003037109Y0002417448D01*
X0003042733Y0002419323D01*
X0003046482Y0002419323D01*
X0003052107Y0002417448D01*
X0003053981Y0002415574D01*
X0003091477Y0002379953D02*
X0003068980Y0002379953D01*
X0003080228Y0002379953D02*
X0003080228Y0002419323D01*
X0003076479Y0002413699D01*
X0003072729Y0002409949D01*
X0003068980Y0002408075D01*
X0003106475Y0002415574D02*
X0003108350Y0002417448D01*
X0003112099Y0002419323D01*
X0003121473Y0002419323D01*
X0003125223Y0002417448D01*
X0003127097Y0002415574D01*
X0003128972Y0002411824D01*
X0003128972Y0002408075D01*
X0003127097Y0002402450D01*
X0003104600Y0002379953D01*
X0003128972Y0002379953D01*
X0002176404Y0003258252D02*
X0002176404Y0003230131D01*
X0002174529Y0003224506D01*
X0002170779Y0003220757D01*
X0002165155Y0003218882D01*
X0002161406Y0003218882D01*
X0002215774Y0003218882D02*
X0002193277Y0003218882D01*
X0002204525Y0003218882D02*
X0002204525Y0003258252D01*
X0002200776Y0003252628D01*
X0002197026Y0003248878D01*
X0002193277Y0003247004D01*
X0000632729Y0003222504D02*
X0000619606Y0003241252D01*
X0000610232Y0003222504D02*
X0000610232Y0003261874D01*
X0000625230Y0003261874D01*
X0000628980Y0003260000D01*
X0000630854Y0003258125D01*
X0000632729Y0003254375D01*
X0000632729Y0003248751D01*
X0000630854Y0003245001D01*
X0000628980Y0003243127D01*
X0000625230Y0003241252D01*
X0000610232Y0003241252D01*
X0000670224Y0003222504D02*
X0000647727Y0003222504D01*
X0000658976Y0003222504D02*
X0000658976Y0003261874D01*
X0000655226Y0003256250D01*
X0000651477Y0003252500D01*
X0000647727Y0003250626D01*
X0000502729Y0003222504D02*
X0000489606Y0003241252D01*
X0000480232Y0003222504D02*
X0000480232Y0003261874D01*
X0000495230Y0003261874D01*
X0000498980Y0003260000D01*
X0000500854Y0003258125D01*
X0000502729Y0003254375D01*
X0000502729Y0003248751D01*
X0000500854Y0003245001D01*
X0000498980Y0003243127D01*
X0000495230Y0003241252D01*
X0000480232Y0003241252D01*
X0000517727Y0003258125D02*
X0000519602Y0003260000D01*
X0000523352Y0003261874D01*
X0000532725Y0003261874D01*
X0000536475Y0003260000D01*
X0000538350Y0003258125D01*
X0000540224Y0003254375D01*
X0000540224Y0003250626D01*
X0000538350Y0003245001D01*
X0000515852Y0003222504D01*
X0000540224Y0003222504D01*
X0001592729Y0001762504D02*
X0001579606Y0001781252D01*
X0001570232Y0001762504D02*
X0001570232Y0001801874D01*
X0001585230Y0001801874D01*
X0001588980Y0001800000D01*
X0001590854Y0001798125D01*
X0001592729Y0001794375D01*
X0001592729Y0001788751D01*
X0001590854Y0001785001D01*
X0001588980Y0001783127D01*
X0001585230Y0001781252D01*
X0001570232Y0001781252D01*
X0001605852Y0001801874D02*
X0001630224Y0001801874D01*
X0001617101Y0001786876D01*
X0001622725Y0001786876D01*
X0001626475Y0001785001D01*
X0001628350Y0001783127D01*
X0001630224Y0001779377D01*
X0001630224Y0001770003D01*
X0001628350Y0001766254D01*
X0001626475Y0001764379D01*
X0001622725Y0001762504D01*
X0001611477Y0001762504D01*
X0001607727Y0001764379D01*
X0001605852Y0001766254D01*
X0001192729Y0001822504D02*
X0001179606Y0001841252D01*
X0001170232Y0001822504D02*
X0001170232Y0001861874D01*
X0001185230Y0001861874D01*
X0001188980Y0001860000D01*
X0001190854Y0001858125D01*
X0001192729Y0001854375D01*
X0001192729Y0001848751D01*
X0001190854Y0001845001D01*
X0001188980Y0001843127D01*
X0001185230Y0001841252D01*
X0001170232Y0001841252D01*
X0001226475Y0001848751D02*
X0001226475Y0001822504D01*
X0001217101Y0001863749D02*
X0001207727Y0001835628D01*
X0001232099Y0001835628D01*
X0000662729Y0001712504D02*
X0000649606Y0001731252D01*
X0000640232Y0001712504D02*
X0000640232Y0001751874D01*
X0000655230Y0001751874D01*
X0000658980Y0001750000D01*
X0000660854Y0001748125D01*
X0000662729Y0001744375D01*
X0000662729Y0001738751D01*
X0000660854Y0001735001D01*
X0000658980Y0001733127D01*
X0000655230Y0001731252D01*
X0000640232Y0001731252D01*
X0000696475Y0001751874D02*
X0000688976Y0001751874D01*
X0000685226Y0001750000D01*
X0000683352Y0001748125D01*
X0000679602Y0001742500D01*
X0000677727Y0001735001D01*
X0000677727Y0001720003D01*
X0000679602Y0001716254D01*
X0000681477Y0001714379D01*
X0000685226Y0001712504D01*
X0000692725Y0001712504D01*
X0000696475Y0001714379D01*
X0000698350Y0001716254D01*
X0000700224Y0001720003D01*
X0000700224Y0001729377D01*
X0000698350Y0001733127D01*
X0000696475Y0001735001D01*
X0000692725Y0001736876D01*
X0000685226Y0001736876D01*
X0000681477Y0001735001D01*
X0000679602Y0001733127D01*
X0000677727Y0001729377D01*
X0001062729Y0003119433D02*
X0001049606Y0003138181D01*
X0001040232Y0003119433D02*
X0001040232Y0003158803D01*
X0001055230Y0003158803D01*
X0001058980Y0003156929D01*
X0001060854Y0003155054D01*
X0001062729Y0003151304D01*
X0001062729Y0003145680D01*
X0001060854Y0003141931D01*
X0001058980Y0003140056D01*
X0001055230Y0003138181D01*
X0001040232Y0003138181D01*
X0001075852Y0003158803D02*
X0001102099Y0003158803D01*
X0001085226Y0003119433D01*
X0000932729Y0003222504D02*
X0000919606Y0003241252D01*
X0000910232Y0003222504D02*
X0000910232Y0003261874D01*
X0000925230Y0003261874D01*
X0000928980Y0003260000D01*
X0000930854Y0003258125D01*
X0000932729Y0003254375D01*
X0000932729Y0003248751D01*
X0000930854Y0003245001D01*
X0000928980Y0003243127D01*
X0000925230Y0003241252D01*
X0000910232Y0003241252D01*
X0000951477Y0003222504D02*
X0000958976Y0003222504D01*
X0000962725Y0003224379D01*
X0000964600Y0003226254D01*
X0000968350Y0003231878D01*
X0000970224Y0003239377D01*
X0000970224Y0003254375D01*
X0000968350Y0003258125D01*
X0000966475Y0003260000D01*
X0000962725Y0003261874D01*
X0000955226Y0003261874D01*
X0000951477Y0003260000D01*
X0000949602Y0003258125D01*
X0000947727Y0003254375D01*
X0000947727Y0003245001D01*
X0000949602Y0003241252D01*
X0000951477Y0003239377D01*
X0000955226Y0003237502D01*
X0000962725Y0003237502D01*
X0000966475Y0003239377D01*
X0000968350Y0003241252D01*
X0000970224Y0003245001D01*
X0000503981Y0001712504D02*
X0000490858Y0001731252D01*
X0000481484Y0001712504D02*
X0000481484Y0001751874D01*
X0000496482Y0001751874D01*
X0000500232Y0001750000D01*
X0000502107Y0001748125D01*
X0000503981Y0001744375D01*
X0000503981Y0001738751D01*
X0000502107Y0001735001D01*
X0000500232Y0001733127D01*
X0000496482Y0001731252D01*
X0000481484Y0001731252D01*
X0000541477Y0001712504D02*
X0000518980Y0001712504D01*
X0000530228Y0001712504D02*
X0000530228Y0001751874D01*
X0000526479Y0001746250D01*
X0000522729Y0001742500D01*
X0000518980Y0001740626D01*
X0000565849Y0001751874D02*
X0000569598Y0001751874D01*
X0000573348Y0001750000D01*
X0000575223Y0001748125D01*
X0000577097Y0001744375D01*
X0000578972Y0001736876D01*
X0000578972Y0001727502D01*
X0000577097Y0001720003D01*
X0000575223Y0001716254D01*
X0000573348Y0001714379D01*
X0000569598Y0001712504D01*
X0000565849Y0001712504D01*
X0000562099Y0001714379D01*
X0000560224Y0001716254D01*
X0000558350Y0001720003D01*
X0000556475Y0001727502D01*
X0000556475Y0001736876D01*
X0000558350Y0001744375D01*
X0000560224Y0001748125D01*
X0000562099Y0001750000D01*
X0000565849Y0001751874D01*
X0000803981Y0003222504D02*
X0000790858Y0003241252D01*
X0000781484Y0003222504D02*
X0000781484Y0003261874D01*
X0000796482Y0003261874D01*
X0000800232Y0003260000D01*
X0000802107Y0003258125D01*
X0000803981Y0003254375D01*
X0000803981Y0003248751D01*
X0000802107Y0003245001D01*
X0000800232Y0003243127D01*
X0000796482Y0003241252D01*
X0000781484Y0003241252D01*
X0000841477Y0003222504D02*
X0000818980Y0003222504D01*
X0000830228Y0003222504D02*
X0000830228Y0003261874D01*
X0000826479Y0003256250D01*
X0000822729Y0003252500D01*
X0000818980Y0003250626D01*
X0000878972Y0003222504D02*
X0000856475Y0003222504D01*
X0000867724Y0003222504D02*
X0000867724Y0003261874D01*
X0000863974Y0003256250D01*
X0000860224Y0003252500D01*
X0000856475Y0003250626D01*
X0002093981Y0001792504D02*
X0002080858Y0001811252D01*
X0002071484Y0001792504D02*
X0002071484Y0001831874D01*
X0002086482Y0001831874D01*
X0002090232Y0001830000D01*
X0002092107Y0001828125D01*
X0002093981Y0001824375D01*
X0002093981Y0001818751D01*
X0002092107Y0001815001D01*
X0002090232Y0001813127D01*
X0002086482Y0001811252D01*
X0002071484Y0001811252D01*
X0002131477Y0001792504D02*
X0002108980Y0001792504D01*
X0002120228Y0001792504D02*
X0002120228Y0001831874D01*
X0002116479Y0001826250D01*
X0002112729Y0001822500D01*
X0002108980Y0001820626D01*
X0002146475Y0001828125D02*
X0002148350Y0001830000D01*
X0002152099Y0001831874D01*
X0002161473Y0001831874D01*
X0002165223Y0001830000D01*
X0002167097Y0001828125D01*
X0002168972Y0001824375D01*
X0002168972Y0001820626D01*
X0002167097Y0001815001D01*
X0002144600Y0001792504D01*
X0002168972Y0001792504D01*
X0000863981Y0001712504D02*
X0000850858Y0001731252D01*
X0000841484Y0001712504D02*
X0000841484Y0001751874D01*
X0000856482Y0001751874D01*
X0000860232Y0001750000D01*
X0000862107Y0001748125D01*
X0000863981Y0001744375D01*
X0000863981Y0001738751D01*
X0000862107Y0001735001D01*
X0000860232Y0001733127D01*
X0000856482Y0001731252D01*
X0000841484Y0001731252D01*
X0000901477Y0001712504D02*
X0000878980Y0001712504D01*
X0000890228Y0001712504D02*
X0000890228Y0001751874D01*
X0000886479Y0001746250D01*
X0000882729Y0001742500D01*
X0000878980Y0001740626D01*
X0000935223Y0001751874D02*
X0000927724Y0001751874D01*
X0000923974Y0001750000D01*
X0000922099Y0001748125D01*
X0000918350Y0001742500D01*
X0000916475Y0001735001D01*
X0000916475Y0001720003D01*
X0000918350Y0001716254D01*
X0000920224Y0001714379D01*
X0000923974Y0001712504D01*
X0000931473Y0001712504D01*
X0000935223Y0001714379D01*
X0000937097Y0001716254D01*
X0000938972Y0001720003D01*
X0000938972Y0001729377D01*
X0000937097Y0001733127D01*
X0000935223Y0001735001D01*
X0000931473Y0001736876D01*
X0000923974Y0001736876D01*
X0000920224Y0001735001D01*
X0000918350Y0001733127D01*
X0000916475Y0001729377D01*
X0000746895Y0001712504D02*
X0000733772Y0001731252D01*
X0000724398Y0001712504D02*
X0000724398Y0001751874D01*
X0000739396Y0001751874D01*
X0000743145Y0001750000D01*
X0000745020Y0001748125D01*
X0000746895Y0001744375D01*
X0000746895Y0001738751D01*
X0000745020Y0001735001D01*
X0000743145Y0001733127D01*
X0000739396Y0001731252D01*
X0000724398Y0001731252D01*
X0000784390Y0001712504D02*
X0000761893Y0001712504D01*
X0000773142Y0001712504D02*
X0000773142Y0001751874D01*
X0000769392Y0001746250D01*
X0000765643Y0001742500D01*
X0000761893Y0001740626D01*
X0000797514Y0001751874D02*
X0000823760Y0001751874D01*
X0000806887Y0001712504D01*
X0002760397Y0003257937D02*
X0002760397Y0003226066D01*
X0002762272Y0003222317D01*
X0002764146Y0003220442D01*
X0002767896Y0003218567D01*
X0002775395Y0003218567D01*
X0002779145Y0003220442D01*
X0002781019Y0003222317D01*
X0002782894Y0003226066D01*
X0002782894Y0003257937D01*
X0002799767Y0003254188D02*
X0002801642Y0003256062D01*
X0002805391Y0003257937D01*
X0002814765Y0003257937D01*
X0002818515Y0003256062D01*
X0002820389Y0003254188D01*
X0002822264Y0003250438D01*
X0002822264Y0003246689D01*
X0002820389Y0003241064D01*
X0002797892Y0003218567D01*
X0002822264Y0003218567D01*
X0002848507Y0001825181D02*
X0002848507Y0001793310D01*
X0002850382Y0001789561D01*
X0002852257Y0001787686D01*
X0002856006Y0001785811D01*
X0002863505Y0001785811D01*
X0002867255Y0001787686D01*
X0002869130Y0001789561D01*
X0002871004Y0001793310D01*
X0002871004Y0001825181D01*
X0002906625Y0001812058D02*
X0002906625Y0001785811D01*
X0002897251Y0001827056D02*
X0002887877Y0001798935D01*
X0002912249Y0001798935D01*
X0003458743Y0002081087D02*
X0003458743Y0002049216D01*
X0003460618Y0002045466D01*
X0003462493Y0002043592D01*
X0003466242Y0002041717D01*
X0003473742Y0002041717D01*
X0003477491Y0002043592D01*
X0003479366Y0002045466D01*
X0003481241Y0002049216D01*
X0003481241Y0002081087D01*
X0003518736Y0002081087D02*
X0003499988Y0002081087D01*
X0003498113Y0002062339D01*
X0003499988Y0002064214D01*
X0003503738Y0002066089D01*
X0003513112Y0002066089D01*
X0003516861Y0002064214D01*
X0003518736Y0002062339D01*
X0003520611Y0002058590D01*
X0003520611Y0002049216D01*
X0003518736Y0002045466D01*
X0003516861Y0002043592D01*
X0003513112Y0002041717D01*
X0003503738Y0002041717D01*
X0003499988Y0002043592D01*
X0003498113Y0002045466D01*
X0002865121Y0002614425D02*
X0002865121Y0002582554D01*
X0002866996Y0002578805D01*
X0002868871Y0002576930D01*
X0002872620Y0002575055D01*
X0002880119Y0002575055D01*
X0002883869Y0002576930D01*
X0002885744Y0002578805D01*
X0002887619Y0002582554D01*
X0002887619Y0002614425D01*
X0002923239Y0002614425D02*
X0002915740Y0002614425D01*
X0002911990Y0002612551D01*
X0002910116Y0002610676D01*
X0002906366Y0002605052D01*
X0002904491Y0002597553D01*
X0002904491Y0002582554D01*
X0002906366Y0002578805D01*
X0002908241Y0002576930D01*
X0002911990Y0002575055D01*
X0002919490Y0002575055D01*
X0002923239Y0002576930D01*
X0002925114Y0002578805D01*
X0002926989Y0002582554D01*
X0002926989Y0002591928D01*
X0002925114Y0002595678D01*
X0002923239Y0002597553D01*
X0002919490Y0002599427D01*
X0002911990Y0002599427D01*
X0002908241Y0002597553D01*
X0002906366Y0002595678D01*
X0002904491Y0002591928D01*
G04 next file*
%LPD*%
G04 #@! TF.GenerationSoftware,KiCad,Pcbnew,(5.1.0)-1*
G04 #@! TF.CreationDate,2020-04-13T11:23:52+02:00*
G04 #@! TF.ProjectId,objet_chambre,6f626a65-745f-4636-9861-6d6272652e6b,rev?*
G04 #@! TF.SameCoordinates,PX9fa1b90PY2b1e160*
G04 #@! TF.FileFunction,Legend,Top*
G04 #@! TF.FilePolarity,Positive*
G04 Gerber Fmt 4.6, Leading zero omitted, Abs format (unit mm)*
G04 Created by KiCad (PCBNEW (5.1.0)-1) date 2020-04-13 11:23:52*
G04 APERTURE LIST*
G04 APERTURE END LIST*
D22*
X0000192125Y0000507086D02*
X0000192125Y0001146456D01*
X0000192125Y0001146456D02*
X0000492125Y0001146456D01*
X0001122047Y0001146456D02*
X0001146456Y0001146456D01*
X0001146456Y0001146456D02*
X0001146456Y0001062992D01*
X0001146456Y0000590551D02*
X0001146456Y0000507086D01*
X0001146456Y0000507086D02*
X0001122047Y0000507086D01*
X0000492125Y0000507086D02*
X0000192125Y0000507086D01*
X0000492125Y0000507086D02*
X0000492125Y0000483070D01*
X0002155669Y0001241811D02*
X0002155669Y0001189448D01*
X0002103307Y0001241811D02*
X0002155669Y0001241811D01*
X0002053307Y0001241811D02*
X0002053307Y0001137086D01*
X0002053307Y0001137086D02*
X0001750944Y0001137086D01*
X0002053307Y0001241811D02*
X0001750944Y0001241811D01*
X0001750944Y0001241811D02*
X0001750944Y0001137086D01*
D23*
X0002504488Y0001248503D02*
X0001402125Y0001248503D01*
X0001402125Y0001248503D02*
X0001402125Y0000205196D01*
X0001402125Y0000205196D02*
X0002504488Y0000205196D01*
X0002504488Y0000205196D02*
X0002504488Y0001248503D01*
X0002425748Y0001110708D02*
X0001480866Y0001110708D01*
X0001480866Y0001110708D02*
X0001480866Y0000598897D01*
X0001480866Y0000598897D02*
X0002425748Y0000598897D01*
X0002425748Y0000598897D02*
X0002425748Y0001110708D01*
D22*
X0001463425Y0001369566D02*
X0001490984Y0001369566D01*
X0001490984Y0001322322D02*
X0001463425Y0001322322D01*
X0001490984Y0001402322D02*
X0001463425Y0001402322D01*
X0001463425Y0001449566D02*
X0001490984Y0001449566D01*
X0000795275Y0000397401D02*
X0000795275Y0000358031D01*
X0000741732Y0000358031D02*
X0000741732Y0000397401D01*
X0000976732Y0001258031D02*
X0000976732Y0001297401D01*
X0001030275Y0001297401D02*
X0001030275Y0001258031D01*
X0000870275Y0000397401D02*
X0000870275Y0000358031D01*
X0000816732Y0000358031D02*
X0000816732Y0000397401D01*
X0001030275Y0000397401D02*
X0001030275Y0000358031D01*
X0000976732Y0000358031D02*
X0000976732Y0000397401D01*
X0000950275Y0000397401D02*
X0000950275Y0000358031D01*
X0000896732Y0000358031D02*
X0000896732Y0000397401D01*
X0000661732Y0001258031D02*
X0000661732Y0001297401D01*
X0000715275Y0001297401D02*
X0000715275Y0001258031D01*
X0000741732Y0001258031D02*
X0000741732Y0001297401D01*
X0000795275Y0001297401D02*
X0000795275Y0001258031D01*
X0000581732Y0001258031D02*
X0000581732Y0001297401D01*
X0000635275Y0001297401D02*
X0000635275Y0001258031D01*
X0000896732Y0001258031D02*
X0000896732Y0001297401D01*
X0000950275Y0001297401D02*
X0000950275Y0001258031D01*
X0000501732Y0001258031D02*
X0000501732Y0001297401D01*
X0000555275Y0001297401D02*
X0000555275Y0001258031D01*
X0000816732Y0001258031D02*
X0000816732Y0001297401D01*
X0000870275Y0001297401D02*
X0000870275Y0001258031D01*
X0000581732Y0000358031D02*
X0000581732Y0000397401D01*
X0000635275Y0000397401D02*
X0000635275Y0000358031D01*
X0000661732Y0000358031D02*
X0000661732Y0000397401D01*
X0000715275Y0000397401D02*
X0000715275Y0000358031D01*
X0000501732Y0000358031D02*
X0000501732Y0000397401D01*
X0000555275Y0000397401D02*
X0000555275Y0000358031D01*
X0002711496Y0000861291D02*
X0002672125Y0000861291D01*
X0002672125Y0000914834D02*
X0002711496Y0000914834D01*
X0002714803Y0000761291D02*
X0002675433Y0000761291D01*
X0002675433Y0000814834D02*
X0002714803Y0000814834D01*
X0003315511Y0000540000D02*
X0003276141Y0000540000D01*
X0003276141Y0000593543D02*
X0003315511Y0000593543D01*
X0003311574Y0000440000D02*
X0003272204Y0000440000D01*
X0003272204Y0000493543D02*
X0003311574Y0000493543D01*
X0002701338Y0000288818D02*
X0002661968Y0000288818D01*
X0002661968Y0000342362D02*
X0002701338Y0000342362D01*
X0002701338Y0000188818D02*
X0002661968Y0000188818D01*
X0002661968Y0000242362D02*
X0002701338Y0000242362D01*
X0002509448Y0001366299D02*
X0002509448Y0001445039D01*
X0002429133Y0001445039D02*
X0002429133Y0001366299D01*
X0003059606Y0000300551D02*
X0003059606Y0000272992D01*
X0003012362Y0000272992D02*
X0003012362Y0000300551D01*
X0003605669Y0000605590D02*
X0003605669Y0000633149D01*
X0003652913Y0000633149D02*
X0003652913Y0000605590D01*
X0003031496Y0000832992D02*
X0003031496Y0000860551D01*
X0003078740Y0000860551D02*
X0003078740Y0000832992D01*
X0002123622Y0001679330D02*
X0002123622Y0001426968D01*
X0001781102Y0001630905D02*
X0002123622Y0001630905D01*
X0001781102Y0001426968D02*
X0001781102Y0001679330D01*
X0002123622Y0001426968D02*
X0001781102Y0001426968D01*
X0002123622Y0001679330D02*
X0001781102Y0001679330D01*
D23*
X0002839159Y0000448371D02*
X0002839159Y0000645171D01*
X0003035959Y0000448371D02*
X0002839159Y0000448371D01*
X0003035959Y0000645171D02*
X0003035959Y0000448371D01*
X0002839159Y0000645171D02*
X0003035959Y0000645171D01*
X0003300891Y0000933518D02*
X0003497691Y0000933518D01*
X0003497691Y0000933518D02*
X0003497691Y0000736718D01*
X0003497691Y0000736718D02*
X0003300891Y0000736718D01*
X0003300891Y0000736718D02*
X0003300891Y0000933518D01*
X0002839159Y0001008371D02*
X0002839159Y0001205171D01*
X0003035959Y0001008371D02*
X0002839159Y0001008371D01*
X0003035959Y0001205171D02*
X0003035959Y0001008371D01*
X0002839159Y0001205171D02*
X0003035959Y0001205171D01*
D22*
X0000653937Y0001487244D02*
X0000653937Y0001440000D01*
X0000584645Y0001440000D02*
X0000584645Y0001487244D01*
X0000563937Y0001487244D02*
X0000563937Y0001440000D01*
X0000494645Y0001440000D02*
X0000494645Y0001487244D01*
X0001482913Y0000092125D02*
X0001435669Y0000092125D01*
X0001435669Y0000161417D02*
X0001482913Y0000161417D01*
X0001175669Y0000161417D02*
X0001222913Y0000161417D01*
X0001222913Y0000092125D02*
X0001175669Y0000092125D01*
X0000644645Y0000173149D02*
X0000644645Y0000220393D01*
X0000713937Y0000220393D02*
X0000713937Y0000173149D01*
X0001045669Y0001451417D02*
X0001092913Y0001451417D01*
X0001092913Y0001382125D02*
X0001045669Y0001382125D01*
X0000884645Y0001443149D02*
X0000884645Y0001490393D01*
X0000953937Y0001490393D02*
X0000953937Y0001443149D01*
X0000563937Y0000223543D02*
X0000563937Y0000176299D01*
X0000494645Y0000176299D02*
X0000494645Y0000223543D01*
X0000863937Y0001490393D02*
X0000863937Y0001443149D01*
X0000794645Y0001443149D02*
X0000794645Y0001490393D01*
X0002013169Y0000043376D02*
G75*
G03X0002011417Y0000211417I-0000060807J0000083395D01*
G01*
X0001892195Y0000212028D02*
G75*
G03X0001891338Y0000042125I0000060166J-0000085256D01*
G01*
X0001891338Y0000211417D02*
X0002011417Y0000211417D01*
X0001891338Y0000042125D02*
X0002011417Y0000042125D01*
X0000824645Y0000169999D02*
X0000824645Y0000217244D01*
X0000893937Y0000217244D02*
X0000893937Y0000169999D01*
X0000803937Y0000217244D02*
X0000803937Y0000169999D01*
X0000734645Y0000169999D02*
X0000734645Y0000217244D01*
X0002628976Y0001539921D02*
X0002865590Y0001539921D01*
X0002717559Y0001271417D02*
X0002865590Y0001271417D01*
X0002865590Y0001539921D02*
X0002865590Y0001490314D01*
X0002865590Y0001271417D02*
X0002865590Y0001321023D01*
X0002913937Y0000327637D02*
X0002843070Y0000327637D01*
X0002843070Y0000200866D02*
X0002959212Y0000200866D01*
X0003453307Y0000456771D02*
X0003569448Y0000456771D01*
X0003524173Y0000583543D02*
X0003453307Y0000583543D01*
X0002859685Y0000775937D02*
X0002975826Y0000775937D01*
X0002930551Y0000902708D02*
X0002859685Y0000902708D01*
D23*
X0001207731Y0000491775D02*
X0001239602Y0000491775D01*
X0001243352Y0000493650D01*
X0001245226Y0000495524D01*
X0001247101Y0000499274D01*
X0001247101Y0000506773D01*
X0001245226Y0000510523D01*
X0001243352Y0000512397D01*
X0001239602Y0000514272D01*
X0001207731Y0000514272D01*
X0001207731Y0000529270D02*
X0001207731Y0000553642D01*
X0001222729Y0000540519D01*
X0001222729Y0000546143D01*
X0001224604Y0000549893D01*
X0001226479Y0000551767D01*
X0001230228Y0000553642D01*
X0001239602Y0000553642D01*
X0001243352Y0000551767D01*
X0001245226Y0000549893D01*
X0001247101Y0000546143D01*
X0001247101Y0000534895D01*
X0001245226Y0000531145D01*
X0001243352Y0000529270D01*
X0001490239Y0001289748D02*
X0001490239Y0001257877D01*
X0001492114Y0001254128D01*
X0001493989Y0001252253D01*
X0001497738Y0001250378D01*
X0001505238Y0001250378D01*
X0001508987Y0001252253D01*
X0001510862Y0001254128D01*
X0001512737Y0001257877D01*
X0001512737Y0001289748D01*
X0001537109Y0001272875D02*
X0001533359Y0001274750D01*
X0001531484Y0001276625D01*
X0001529610Y0001280374D01*
X0001529610Y0001282249D01*
X0001531484Y0001285999D01*
X0001533359Y0001287874D01*
X0001537109Y0001289748D01*
X0001544608Y0001289748D01*
X0001548357Y0001287874D01*
X0001550232Y0001285999D01*
X0001552107Y0001282249D01*
X0001552107Y0001280374D01*
X0001550232Y0001276625D01*
X0001548357Y0001274750D01*
X0001544608Y0001272875D01*
X0001537109Y0001272875D01*
X0001533359Y0001271001D01*
X0001531484Y0001269126D01*
X0001529610Y0001265376D01*
X0001529610Y0001257877D01*
X0001531484Y0001254128D01*
X0001533359Y0001252253D01*
X0001537109Y0001250378D01*
X0001544608Y0001250378D01*
X0001548357Y0001252253D01*
X0001550232Y0001254128D01*
X0001552107Y0001257877D01*
X0001552107Y0001265376D01*
X0001550232Y0001269126D01*
X0001548357Y0001271001D01*
X0001544608Y0001272875D01*
X0001783622Y0001001972D02*
X0001781747Y0000998222D01*
X0001781747Y0000992598D01*
X0001783622Y0000986974D01*
X0001787371Y0000983224D01*
X0001791121Y0000981349D01*
X0001798620Y0000979475D01*
X0001804244Y0000979475D01*
X0001811743Y0000981349D01*
X0001815493Y0000983224D01*
X0001819242Y0000986974D01*
X0001821117Y0000992598D01*
X0001821117Y0000996347D01*
X0001819242Y0001001972D01*
X0001817367Y0001003847D01*
X0001804244Y0001003847D01*
X0001804244Y0000996347D01*
X0001821117Y0001020719D02*
X0001781747Y0001020719D01*
X0001821117Y0001043217D01*
X0001781747Y0001043217D01*
X0001821117Y0001061964D02*
X0001781747Y0001061964D01*
X0001781747Y0001071338D01*
X0001783622Y0001076962D01*
X0001787371Y0001080712D01*
X0001791121Y0001082587D01*
X0001798620Y0001084461D01*
X0001804244Y0001084461D01*
X0001811743Y0001082587D01*
X0001815493Y0001080712D01*
X0001819242Y0001076962D01*
X0001821117Y0001071338D01*
X0001821117Y0001061964D01*
X0001881747Y0000979475D02*
X0001921117Y0000992598D01*
X0001881747Y0001005721D01*
X0001921117Y0001018845D02*
X0001881747Y0001018845D01*
X0001881747Y0001028218D01*
X0001883622Y0001033843D01*
X0001887371Y0001037592D01*
X0001891121Y0001039467D01*
X0001898620Y0001041342D01*
X0001904244Y0001041342D01*
X0001911743Y0001039467D01*
X0001915493Y0001037592D01*
X0001919242Y0001033843D01*
X0001921117Y0001028218D01*
X0001921117Y0001018845D01*
X0001921117Y0001058215D02*
X0001881747Y0001058215D01*
X0001881747Y0001067589D01*
X0001883622Y0001073213D01*
X0001887371Y0001076962D01*
X0001891121Y0001078837D01*
X0001898620Y0001080712D01*
X0001904244Y0001080712D01*
X0001911743Y0001078837D01*
X0001915493Y0001076962D01*
X0001919242Y0001073213D01*
X0001921117Y0001067589D01*
X0001921117Y0001058215D01*
X0002119242Y0000991642D02*
X0002121117Y0000997266D01*
X0002121117Y0001006640D01*
X0002119242Y0001010389D01*
X0002117367Y0001012264D01*
X0002113618Y0001014139D01*
X0002109868Y0001014139D01*
X0002106119Y0001012264D01*
X0002104244Y0001010389D01*
X0002102369Y0001006640D01*
X0002100494Y0000999141D01*
X0002098620Y0000995391D01*
X0002096745Y0000993517D01*
X0002092995Y0000991642D01*
X0002089246Y0000991642D01*
X0002085496Y0000993517D01*
X0002083622Y0000995391D01*
X0002081747Y0000999141D01*
X0002081747Y0001008515D01*
X0002083622Y0001014139D01*
X0002121117Y0001031012D02*
X0002081747Y0001031012D01*
X0002081747Y0001040386D01*
X0002083622Y0001046010D01*
X0002087371Y0001049760D01*
X0002091121Y0001051634D01*
X0002098620Y0001053509D01*
X0002104244Y0001053509D01*
X0002111743Y0001051634D01*
X0002115493Y0001049760D01*
X0002119242Y0001046010D01*
X0002121117Y0001040386D01*
X0002121117Y0001031012D01*
X0002109868Y0001068507D02*
X0002109868Y0001087255D01*
X0002121117Y0001064758D02*
X0002081747Y0001077881D01*
X0002121117Y0001091004D01*
X0002019242Y0000988830D02*
X0002021117Y0000994454D01*
X0002021117Y0001003828D01*
X0002019242Y0001007577D01*
X0002017367Y0001009452D01*
X0002013618Y0001011327D01*
X0002009868Y0001011327D01*
X0002006119Y0001009452D01*
X0002004244Y0001007577D01*
X0002002369Y0001003828D01*
X0002000494Y0000996329D01*
X0001998620Y0000992579D01*
X0001996745Y0000990704D01*
X0001992995Y0000988830D01*
X0001989246Y0000988830D01*
X0001985496Y0000990704D01*
X0001983622Y0000992579D01*
X0001981747Y0000996329D01*
X0001981747Y0001005703D01*
X0001983622Y0001011327D01*
X0002017367Y0001050697D02*
X0002019242Y0001048822D01*
X0002021117Y0001043198D01*
X0002021117Y0001039448D01*
X0002019242Y0001033824D01*
X0002015493Y0001030075D01*
X0002011743Y0001028200D01*
X0002004244Y0001026325D01*
X0001998620Y0001026325D01*
X0001991121Y0001028200D01*
X0001987371Y0001030075D01*
X0001983622Y0001033824D01*
X0001981747Y0001039448D01*
X0001981747Y0001043198D01*
X0001983622Y0001048822D01*
X0001985496Y0001050697D01*
X0002021117Y0001067570D02*
X0001981747Y0001067570D01*
X0002021117Y0001090067D02*
X0001998620Y0001073194D01*
X0001981747Y0001090067D02*
X0002004244Y0001067570D01*
X0001582729Y0001332710D02*
X0001580854Y0001330836D01*
X0001575230Y0001328961D01*
X0001571481Y0001328961D01*
X0001565856Y0001330836D01*
X0001562107Y0001334585D01*
X0001560232Y0001338335D01*
X0001558357Y0001345834D01*
X0001558357Y0001351458D01*
X0001560232Y0001358957D01*
X0001562107Y0001362707D01*
X0001565856Y0001366456D01*
X0001571481Y0001368331D01*
X0001575230Y0001368331D01*
X0001580854Y0001366456D01*
X0001582729Y0001364581D01*
X0001618350Y0001368331D02*
X0001599602Y0001368331D01*
X0001597727Y0001349583D01*
X0001599602Y0001351458D01*
X0001603352Y0001353333D01*
X0001612725Y0001353333D01*
X0001616475Y0001351458D01*
X0001618350Y0001349583D01*
X0001620224Y0001345834D01*
X0001620224Y0001336460D01*
X0001618350Y0001332710D01*
X0001616475Y0001330836D01*
X0001612725Y0001328961D01*
X0001603352Y0001328961D01*
X0001599602Y0001330836D01*
X0001597727Y0001332710D01*
X0001582729Y0001411884D02*
X0001580854Y0001410009D01*
X0001575230Y0001408134D01*
X0001571481Y0001408134D01*
X0001565856Y0001410009D01*
X0001562107Y0001413758D01*
X0001560232Y0001417508D01*
X0001558357Y0001425007D01*
X0001558357Y0001430631D01*
X0001560232Y0001438130D01*
X0001562107Y0001441880D01*
X0001565856Y0001445629D01*
X0001571481Y0001447504D01*
X0001575230Y0001447504D01*
X0001580854Y0001445629D01*
X0001582729Y0001443755D01*
X0001616475Y0001434381D02*
X0001616475Y0001408134D01*
X0001607101Y0001449379D02*
X0001597727Y0001421257D01*
X0001622099Y0001421257D01*
X0002659002Y0000968331D02*
X0002659002Y0000940210D01*
X0002657127Y0000934585D01*
X0002653378Y0000930836D01*
X0002647754Y0000928961D01*
X0002644004Y0000928961D01*
X0002677750Y0000928961D02*
X0002677750Y0000968331D01*
X0002692748Y0000968331D01*
X0002696497Y0000966456D01*
X0002698372Y0000964581D01*
X0002700247Y0000960832D01*
X0002700247Y0000955208D01*
X0002698372Y0000951458D01*
X0002696497Y0000949583D01*
X0002692748Y0000947709D01*
X0002677750Y0000947709D01*
X0002713370Y0000968331D02*
X0002739617Y0000968331D01*
X0002722744Y0000928961D01*
X0002652309Y0000749622D02*
X0002652309Y0000721501D01*
X0002650434Y0000715877D01*
X0002646685Y0000712127D01*
X0002641061Y0000710252D01*
X0002637311Y0000710252D01*
X0002671057Y0000710252D02*
X0002671057Y0000749622D01*
X0002686055Y0000749622D01*
X0002689805Y0000747748D01*
X0002691679Y0000745873D01*
X0002693554Y0000742123D01*
X0002693554Y0000736499D01*
X0002691679Y0000732749D01*
X0002689805Y0000730875D01*
X0002686055Y0000729000D01*
X0002671057Y0000729000D01*
X0002727300Y0000749622D02*
X0002719801Y0000749622D01*
X0002716051Y0000747748D01*
X0002714176Y0000745873D01*
X0002710427Y0000740248D01*
X0002708552Y0000732749D01*
X0002708552Y0000717751D01*
X0002710427Y0000714002D01*
X0002712302Y0000712127D01*
X0002716051Y0000710252D01*
X0002723550Y0000710252D01*
X0002727300Y0000712127D01*
X0002729175Y0000714002D01*
X0002731049Y0000717751D01*
X0002731049Y0000727125D01*
X0002729175Y0000730875D01*
X0002727300Y0000732749D01*
X0002723550Y0000734624D01*
X0002716051Y0000734624D01*
X0002712302Y0000732749D01*
X0002710427Y0000730875D01*
X0002708552Y0000727125D01*
X0003263018Y0000645418D02*
X0003263018Y0000617296D01*
X0003261143Y0000611672D01*
X0003257394Y0000607922D01*
X0003251769Y0000606048D01*
X0003248020Y0000606048D01*
X0003281766Y0000606048D02*
X0003281766Y0000645418D01*
X0003296764Y0000645418D01*
X0003300513Y0000643543D01*
X0003302388Y0000641668D01*
X0003304263Y0000637919D01*
X0003304263Y0000632294D01*
X0003302388Y0000628545D01*
X0003300513Y0000626670D01*
X0003296764Y0000624795D01*
X0003281766Y0000624795D01*
X0003339883Y0000645418D02*
X0003321136Y0000645418D01*
X0003319261Y0000626670D01*
X0003321136Y0000628545D01*
X0003324885Y0000630419D01*
X0003334259Y0000630419D01*
X0003338008Y0000628545D01*
X0003339883Y0000626670D01*
X0003341758Y0000622920D01*
X0003341758Y0000613547D01*
X0003339883Y0000609797D01*
X0003338008Y0000607922D01*
X0003334259Y0000606048D01*
X0003324885Y0000606048D01*
X0003321136Y0000607922D01*
X0003319261Y0000609797D01*
X0003256482Y0000428331D02*
X0003256482Y0000400210D01*
X0003254608Y0000394585D01*
X0003250858Y0000390836D01*
X0003245234Y0000388961D01*
X0003241484Y0000388961D01*
X0003275230Y0000388961D02*
X0003275230Y0000428331D01*
X0003290228Y0000428331D01*
X0003293978Y0000426456D01*
X0003295852Y0000424581D01*
X0003297727Y0000420832D01*
X0003297727Y0000415208D01*
X0003295852Y0000411458D01*
X0003293978Y0000409583D01*
X0003290228Y0000407709D01*
X0003275230Y0000407709D01*
X0003331473Y0000415208D02*
X0003331473Y0000388961D01*
X0003322099Y0000430206D02*
X0003312725Y0000402084D01*
X0003337097Y0000402084D01*
X0002648845Y0000394237D02*
X0002648845Y0000366115D01*
X0002646970Y0000360491D01*
X0002643220Y0000356741D01*
X0002637596Y0000354866D01*
X0002633847Y0000354866D01*
X0002667592Y0000354866D02*
X0002667592Y0000394237D01*
X0002682590Y0000394237D01*
X0002686340Y0000392362D01*
X0002688215Y0000390487D01*
X0002690089Y0000386737D01*
X0002690089Y0000381113D01*
X0002688215Y0000377364D01*
X0002686340Y0000375489D01*
X0002682590Y0000373614D01*
X0002667592Y0000373614D01*
X0002703213Y0000394237D02*
X0002727585Y0000394237D01*
X0002714461Y0000379238D01*
X0002720086Y0000379238D01*
X0002723835Y0000377364D01*
X0002725710Y0000375489D01*
X0002727585Y0000371739D01*
X0002727585Y0000362365D01*
X0002725710Y0000358616D01*
X0002723835Y0000356741D01*
X0002720086Y0000354866D01*
X0002708837Y0000354866D01*
X0002705088Y0000356741D01*
X0002703213Y0000358616D01*
X0002648845Y0000177150D02*
X0002648845Y0000149028D01*
X0002646970Y0000143404D01*
X0002643220Y0000139655D01*
X0002637596Y0000137780D01*
X0002633847Y0000137780D01*
X0002667592Y0000137780D02*
X0002667592Y0000177150D01*
X0002682590Y0000177150D01*
X0002686340Y0000175275D01*
X0002688215Y0000173400D01*
X0002690089Y0000169651D01*
X0002690089Y0000164026D01*
X0002688215Y0000160277D01*
X0002686340Y0000158402D01*
X0002682590Y0000156527D01*
X0002667592Y0000156527D01*
X0002705088Y0000173400D02*
X0002706962Y0000175275D01*
X0002710712Y0000177150D01*
X0002720086Y0000177150D01*
X0002723835Y0000175275D01*
X0002725710Y0000173400D01*
X0002727585Y0000169651D01*
X0002727585Y0000165901D01*
X0002725710Y0000160277D01*
X0002703213Y0000137780D01*
X0002727585Y0000137780D01*
X0002462729Y0001561608D02*
X0002460854Y0001559733D01*
X0002455230Y0001557859D01*
X0002451481Y0001557859D01*
X0002445856Y0001559733D01*
X0002442107Y0001563483D01*
X0002440232Y0001567232D01*
X0002438357Y0001574731D01*
X0002438357Y0001580356D01*
X0002440232Y0001587855D01*
X0002442107Y0001591604D01*
X0002445856Y0001595354D01*
X0002451481Y0001597229D01*
X0002455230Y0001597229D01*
X0002460854Y0001595354D01*
X0002462729Y0001593479D01*
X0002475852Y0001597229D02*
X0002500224Y0001597229D01*
X0002487101Y0001582230D01*
X0002492725Y0001582230D01*
X0002496475Y0001580356D01*
X0002498350Y0001578481D01*
X0002500224Y0001574731D01*
X0002500224Y0001565358D01*
X0002498350Y0001561608D01*
X0002496475Y0001559733D01*
X0002492725Y0001557859D01*
X0002481477Y0001557859D01*
X0002477727Y0001559733D01*
X0002475852Y0001561608D01*
X0003053981Y0000153892D02*
X0003052107Y0000152017D01*
X0003046482Y0000150142D01*
X0003042733Y0000150142D01*
X0003037109Y0000152017D01*
X0003033359Y0000155766D01*
X0003031484Y0000159516D01*
X0003029610Y0000167015D01*
X0003029610Y0000172639D01*
X0003031484Y0000180138D01*
X0003033359Y0000183888D01*
X0003037109Y0000187637D01*
X0003042733Y0000189512D01*
X0003046482Y0000189512D01*
X0003052107Y0000187637D01*
X0003053981Y0000185763D01*
X0003091477Y0000150142D02*
X0003068980Y0000150142D01*
X0003080228Y0000150142D02*
X0003080228Y0000189512D01*
X0003076479Y0000183888D01*
X0003072729Y0000180138D01*
X0003068980Y0000178263D01*
X0003115849Y0000189512D02*
X0003119598Y0000189512D01*
X0003123348Y0000187637D01*
X0003125223Y0000185763D01*
X0003127097Y0000182013D01*
X0003128972Y0000174514D01*
X0003128972Y0000165140D01*
X0003127097Y0000157641D01*
X0003125223Y0000153892D01*
X0003123348Y0000152017D01*
X0003119598Y0000150142D01*
X0003115849Y0000150142D01*
X0003112099Y0000152017D01*
X0003110224Y0000153892D01*
X0003108350Y0000157641D01*
X0003106475Y0000165140D01*
X0003106475Y0000174514D01*
X0003108350Y0000182013D01*
X0003110224Y0000185763D01*
X0003112099Y0000187637D01*
X0003115849Y0000189512D01*
X0003513981Y0000612710D02*
X0003512107Y0000610836D01*
X0003506482Y0000608961D01*
X0003502733Y0000608961D01*
X0003497109Y0000610836D01*
X0003493359Y0000614585D01*
X0003491484Y0000618335D01*
X0003489610Y0000625834D01*
X0003489610Y0000631458D01*
X0003491484Y0000638957D01*
X0003493359Y0000642707D01*
X0003497109Y0000646456D01*
X0003502733Y0000648331D01*
X0003506482Y0000648331D01*
X0003512107Y0000646456D01*
X0003513981Y0000644581D01*
X0003551477Y0000608961D02*
X0003528980Y0000608961D01*
X0003540228Y0000608961D02*
X0003540228Y0000648331D01*
X0003536479Y0000642707D01*
X0003532729Y0000638957D01*
X0003528980Y0000637082D01*
X0003588972Y0000608961D02*
X0003566475Y0000608961D01*
X0003577724Y0000608961D02*
X0003577724Y0000648331D01*
X0003573974Y0000642707D01*
X0003570224Y0000638957D01*
X0003566475Y0000637082D01*
X0003053981Y0000730159D02*
X0003052107Y0000728285D01*
X0003046482Y0000726410D01*
X0003042733Y0000726410D01*
X0003037109Y0000728285D01*
X0003033359Y0000732034D01*
X0003031484Y0000735784D01*
X0003029610Y0000743283D01*
X0003029610Y0000748907D01*
X0003031484Y0000756406D01*
X0003033359Y0000760155D01*
X0003037109Y0000763905D01*
X0003042733Y0000765780D01*
X0003046482Y0000765780D01*
X0003052107Y0000763905D01*
X0003053981Y0000762030D01*
X0003091477Y0000726410D02*
X0003068980Y0000726410D01*
X0003080228Y0000726410D02*
X0003080228Y0000765780D01*
X0003076479Y0000760155D01*
X0003072729Y0000756406D01*
X0003068980Y0000754531D01*
X0003106475Y0000762030D02*
X0003108350Y0000763905D01*
X0003112099Y0000765780D01*
X0003121473Y0000765780D01*
X0003125223Y0000763905D01*
X0003127097Y0000762030D01*
X0003128972Y0000758281D01*
X0003128972Y0000754531D01*
X0003127097Y0000748907D01*
X0003104600Y0000726410D01*
X0003128972Y0000726410D01*
X0002176404Y0001604709D02*
X0002176404Y0001576587D01*
X0002174529Y0001570963D01*
X0002170779Y0001567214D01*
X0002165155Y0001565339D01*
X0002161406Y0001565339D01*
X0002215774Y0001565339D02*
X0002193277Y0001565339D01*
X0002204525Y0001565339D02*
X0002204525Y0001604709D01*
X0002200776Y0001599085D01*
X0002197026Y0001595335D01*
X0002193277Y0001593460D01*
X0000632729Y0001568961D02*
X0000619606Y0001587709D01*
X0000610232Y0001568961D02*
X0000610232Y0001608331D01*
X0000625230Y0001608331D01*
X0000628980Y0001606456D01*
X0000630854Y0001604581D01*
X0000632729Y0001600832D01*
X0000632729Y0001595208D01*
X0000630854Y0001591458D01*
X0000628980Y0001589583D01*
X0000625230Y0001587709D01*
X0000610232Y0001587709D01*
X0000670224Y0001568961D02*
X0000647727Y0001568961D01*
X0000658976Y0001568961D02*
X0000658976Y0001608331D01*
X0000655226Y0001602707D01*
X0000651477Y0001598957D01*
X0000647727Y0001597082D01*
X0000502729Y0001568961D02*
X0000489606Y0001587709D01*
X0000480232Y0001568961D02*
X0000480232Y0001608331D01*
X0000495230Y0001608331D01*
X0000498980Y0001606456D01*
X0000500854Y0001604581D01*
X0000502729Y0001600832D01*
X0000502729Y0001595208D01*
X0000500854Y0001591458D01*
X0000498980Y0001589583D01*
X0000495230Y0001587709D01*
X0000480232Y0001587709D01*
X0000517727Y0001604581D02*
X0000519602Y0001606456D01*
X0000523352Y0001608331D01*
X0000532725Y0001608331D01*
X0000536475Y0001606456D01*
X0000538350Y0001604581D01*
X0000540224Y0001600832D01*
X0000540224Y0001597082D01*
X0000538350Y0001591458D01*
X0000515852Y0001568961D01*
X0000540224Y0001568961D01*
X0001592729Y0000108961D02*
X0001579606Y0000127709D01*
X0001570232Y0000108961D02*
X0001570232Y0000148331D01*
X0001585230Y0000148331D01*
X0001588980Y0000146456D01*
X0001590854Y0000144581D01*
X0001592729Y0000140832D01*
X0001592729Y0000135208D01*
X0001590854Y0000131458D01*
X0001588980Y0000129583D01*
X0001585230Y0000127709D01*
X0001570232Y0000127709D01*
X0001605852Y0000148331D02*
X0001630224Y0000148331D01*
X0001617101Y0000133333D01*
X0001622725Y0000133333D01*
X0001626475Y0000131458D01*
X0001628350Y0000129583D01*
X0001630224Y0000125834D01*
X0001630224Y0000116460D01*
X0001628350Y0000112710D01*
X0001626475Y0000110836D01*
X0001622725Y0000108961D01*
X0001611477Y0000108961D01*
X0001607727Y0000110836D01*
X0001605852Y0000112710D01*
X0001192729Y0000168961D02*
X0001179606Y0000187709D01*
X0001170232Y0000168961D02*
X0001170232Y0000208331D01*
X0001185230Y0000208331D01*
X0001188980Y0000206456D01*
X0001190854Y0000204581D01*
X0001192729Y0000200832D01*
X0001192729Y0000195208D01*
X0001190854Y0000191458D01*
X0001188980Y0000189583D01*
X0001185230Y0000187709D01*
X0001170232Y0000187709D01*
X0001226475Y0000195208D02*
X0001226475Y0000168961D01*
X0001217101Y0000210206D02*
X0001207727Y0000182084D01*
X0001232099Y0000182084D01*
X0000662729Y0000058961D02*
X0000649606Y0000077709D01*
X0000640232Y0000058961D02*
X0000640232Y0000098331D01*
X0000655230Y0000098331D01*
X0000658980Y0000096456D01*
X0000660854Y0000094581D01*
X0000662729Y0000090832D01*
X0000662729Y0000085208D01*
X0000660854Y0000081458D01*
X0000658980Y0000079583D01*
X0000655230Y0000077709D01*
X0000640232Y0000077709D01*
X0000696475Y0000098331D02*
X0000688976Y0000098331D01*
X0000685226Y0000096456D01*
X0000683352Y0000094581D01*
X0000679602Y0000088957D01*
X0000677727Y0000081458D01*
X0000677727Y0000066460D01*
X0000679602Y0000062710D01*
X0000681477Y0000060836D01*
X0000685226Y0000058961D01*
X0000692725Y0000058961D01*
X0000696475Y0000060836D01*
X0000698350Y0000062710D01*
X0000700224Y0000066460D01*
X0000700224Y0000075834D01*
X0000698350Y0000079583D01*
X0000696475Y0000081458D01*
X0000692725Y0000083333D01*
X0000685226Y0000083333D01*
X0000681477Y0000081458D01*
X0000679602Y0000079583D01*
X0000677727Y0000075834D01*
X0001062729Y0001465890D02*
X0001049606Y0001484638D01*
X0001040232Y0001465890D02*
X0001040232Y0001505260D01*
X0001055230Y0001505260D01*
X0001058980Y0001503385D01*
X0001060854Y0001501511D01*
X0001062729Y0001497761D01*
X0001062729Y0001492137D01*
X0001060854Y0001488387D01*
X0001058980Y0001486512D01*
X0001055230Y0001484638D01*
X0001040232Y0001484638D01*
X0001075852Y0001505260D02*
X0001102099Y0001505260D01*
X0001085226Y0001465890D01*
X0000932729Y0001568961D02*
X0000919606Y0001587709D01*
X0000910232Y0001568961D02*
X0000910232Y0001608331D01*
X0000925230Y0001608331D01*
X0000928980Y0001606456D01*
X0000930854Y0001604581D01*
X0000932729Y0001600832D01*
X0000932729Y0001595208D01*
X0000930854Y0001591458D01*
X0000928980Y0001589583D01*
X0000925230Y0001587709D01*
X0000910232Y0001587709D01*
X0000951477Y0001568961D02*
X0000958976Y0001568961D01*
X0000962725Y0001570836D01*
X0000964600Y0001572710D01*
X0000968350Y0001578335D01*
X0000970224Y0001585834D01*
X0000970224Y0001600832D01*
X0000968350Y0001604581D01*
X0000966475Y0001606456D01*
X0000962725Y0001608331D01*
X0000955226Y0001608331D01*
X0000951477Y0001606456D01*
X0000949602Y0001604581D01*
X0000947727Y0001600832D01*
X0000947727Y0001591458D01*
X0000949602Y0001587709D01*
X0000951477Y0001585834D01*
X0000955226Y0001583959D01*
X0000962725Y0001583959D01*
X0000966475Y0001585834D01*
X0000968350Y0001587709D01*
X0000970224Y0001591458D01*
X0000503981Y0000058961D02*
X0000490858Y0000077709D01*
X0000481484Y0000058961D02*
X0000481484Y0000098331D01*
X0000496482Y0000098331D01*
X0000500232Y0000096456D01*
X0000502107Y0000094581D01*
X0000503981Y0000090832D01*
X0000503981Y0000085208D01*
X0000502107Y0000081458D01*
X0000500232Y0000079583D01*
X0000496482Y0000077709D01*
X0000481484Y0000077709D01*
X0000541477Y0000058961D02*
X0000518980Y0000058961D01*
X0000530228Y0000058961D02*
X0000530228Y0000098331D01*
X0000526479Y0000092707D01*
X0000522729Y0000088957D01*
X0000518980Y0000087082D01*
X0000565849Y0000098331D02*
X0000569598Y0000098331D01*
X0000573348Y0000096456D01*
X0000575223Y0000094581D01*
X0000577097Y0000090832D01*
X0000578972Y0000083333D01*
X0000578972Y0000073959D01*
X0000577097Y0000066460D01*
X0000575223Y0000062710D01*
X0000573348Y0000060836D01*
X0000569598Y0000058961D01*
X0000565849Y0000058961D01*
X0000562099Y0000060836D01*
X0000560224Y0000062710D01*
X0000558350Y0000066460D01*
X0000556475Y0000073959D01*
X0000556475Y0000083333D01*
X0000558350Y0000090832D01*
X0000560224Y0000094581D01*
X0000562099Y0000096456D01*
X0000565849Y0000098331D01*
X0000803981Y0001568961D02*
X0000790858Y0001587709D01*
X0000781484Y0001568961D02*
X0000781484Y0001608331D01*
X0000796482Y0001608331D01*
X0000800232Y0001606456D01*
X0000802107Y0001604581D01*
X0000803981Y0001600832D01*
X0000803981Y0001595208D01*
X0000802107Y0001591458D01*
X0000800232Y0001589583D01*
X0000796482Y0001587709D01*
X0000781484Y0001587709D01*
X0000841477Y0001568961D02*
X0000818980Y0001568961D01*
X0000830228Y0001568961D02*
X0000830228Y0001608331D01*
X0000826479Y0001602707D01*
X0000822729Y0001598957D01*
X0000818980Y0001597082D01*
X0000878972Y0001568961D02*
X0000856475Y0001568961D01*
X0000867724Y0001568961D02*
X0000867724Y0001608331D01*
X0000863974Y0001602707D01*
X0000860224Y0001598957D01*
X0000856475Y0001597082D01*
X0002093981Y0000138961D02*
X0002080858Y0000157709D01*
X0002071484Y0000138961D02*
X0002071484Y0000178331D01*
X0002086482Y0000178331D01*
X0002090232Y0000176456D01*
X0002092107Y0000174581D01*
X0002093981Y0000170832D01*
X0002093981Y0000165208D01*
X0002092107Y0000161458D01*
X0002090232Y0000159583D01*
X0002086482Y0000157709D01*
X0002071484Y0000157709D01*
X0002131477Y0000138961D02*
X0002108980Y0000138961D01*
X0002120228Y0000138961D02*
X0002120228Y0000178331D01*
X0002116479Y0000172707D01*
X0002112729Y0000168957D01*
X0002108980Y0000167082D01*
X0002146475Y0000174581D02*
X0002148350Y0000176456D01*
X0002152099Y0000178331D01*
X0002161473Y0000178331D01*
X0002165223Y0000176456D01*
X0002167097Y0000174581D01*
X0002168972Y0000170832D01*
X0002168972Y0000167082D01*
X0002167097Y0000161458D01*
X0002144600Y0000138961D01*
X0002168972Y0000138961D01*
X0000863981Y0000058961D02*
X0000850858Y0000077709D01*
X0000841484Y0000058961D02*
X0000841484Y0000098331D01*
X0000856482Y0000098331D01*
X0000860232Y0000096456D01*
X0000862107Y0000094581D01*
X0000863981Y0000090832D01*
X0000863981Y0000085208D01*
X0000862107Y0000081458D01*
X0000860232Y0000079583D01*
X0000856482Y0000077709D01*
X0000841484Y0000077709D01*
X0000901477Y0000058961D02*
X0000878980Y0000058961D01*
X0000890228Y0000058961D02*
X0000890228Y0000098331D01*
X0000886479Y0000092707D01*
X0000882729Y0000088957D01*
X0000878980Y0000087082D01*
X0000935223Y0000098331D02*
X0000927724Y0000098331D01*
X0000923974Y0000096456D01*
X0000922099Y0000094581D01*
X0000918350Y0000088957D01*
X0000916475Y0000081458D01*
X0000916475Y0000066460D01*
X0000918350Y0000062710D01*
X0000920224Y0000060836D01*
X0000923974Y0000058961D01*
X0000931473Y0000058961D01*
X0000935223Y0000060836D01*
X0000937097Y0000062710D01*
X0000938972Y0000066460D01*
X0000938972Y0000075834D01*
X0000937097Y0000079583D01*
X0000935223Y0000081458D01*
X0000931473Y0000083333D01*
X0000923974Y0000083333D01*
X0000920224Y0000081458D01*
X0000918350Y0000079583D01*
X0000916475Y0000075834D01*
X0000746895Y0000058961D02*
X0000733772Y0000077709D01*
X0000724398Y0000058961D02*
X0000724398Y0000098331D01*
X0000739396Y0000098331D01*
X0000743145Y0000096456D01*
X0000745020Y0000094581D01*
X0000746895Y0000090832D01*
X0000746895Y0000085208D01*
X0000745020Y0000081458D01*
X0000743145Y0000079583D01*
X0000739396Y0000077709D01*
X0000724398Y0000077709D01*
X0000784390Y0000058961D02*
X0000761893Y0000058961D01*
X0000773142Y0000058961D02*
X0000773142Y0000098331D01*
X0000769392Y0000092707D01*
X0000765643Y0000088957D01*
X0000761893Y0000087082D01*
X0000797514Y0000098331D02*
X0000823760Y0000098331D01*
X0000806887Y0000058961D01*
X0002760397Y0001604394D02*
X0002760397Y0001572523D01*
X0002762272Y0001568773D01*
X0002764146Y0001566899D01*
X0002767896Y0001565024D01*
X0002775395Y0001565024D01*
X0002779145Y0001566899D01*
X0002781019Y0001568773D01*
X0002782894Y0001572523D01*
X0002782894Y0001604394D01*
X0002799767Y0001600644D02*
X0002801642Y0001602519D01*
X0002805391Y0001604394D01*
X0002814765Y0001604394D01*
X0002818515Y0001602519D01*
X0002820389Y0001600644D01*
X0002822264Y0001596895D01*
X0002822264Y0001593145D01*
X0002820389Y0001587521D01*
X0002797892Y0001565024D01*
X0002822264Y0001565024D01*
X0002848507Y0000171638D02*
X0002848507Y0000139767D01*
X0002850382Y0000136018D01*
X0002852257Y0000134143D01*
X0002856006Y0000132268D01*
X0002863505Y0000132268D01*
X0002867255Y0000134143D01*
X0002869130Y0000136018D01*
X0002871004Y0000139767D01*
X0002871004Y0000171638D01*
X0002906625Y0000158515D02*
X0002906625Y0000132268D01*
X0002897251Y0000173513D02*
X0002887877Y0000145391D01*
X0002912249Y0000145391D01*
X0003458743Y0000427544D02*
X0003458743Y0000395673D01*
X0003460618Y0000391923D01*
X0003462493Y0000390048D01*
X0003466242Y0000388174D01*
X0003473742Y0000388174D01*
X0003477491Y0000390048D01*
X0003479366Y0000391923D01*
X0003481241Y0000395673D01*
X0003481241Y0000427544D01*
X0003518736Y0000427544D02*
X0003499988Y0000427544D01*
X0003498113Y0000408796D01*
X0003499988Y0000410671D01*
X0003503738Y0000412545D01*
X0003513112Y0000412545D01*
X0003516861Y0000410671D01*
X0003518736Y0000408796D01*
X0003520611Y0000405046D01*
X0003520611Y0000395673D01*
X0003518736Y0000391923D01*
X0003516861Y0000390048D01*
X0003513112Y0000388174D01*
X0003503738Y0000388174D01*
X0003499988Y0000390048D01*
X0003498113Y0000391923D01*
X0002865121Y0000960882D02*
X0002865121Y0000929011D01*
X0002866996Y0000925262D01*
X0002868871Y0000923387D01*
X0002872620Y0000921512D01*
X0002880119Y0000921512D01*
X0002883869Y0000923387D01*
X0002885744Y0000925262D01*
X0002887619Y0000929011D01*
X0002887619Y0000960882D01*
X0002923239Y0000960882D02*
X0002915740Y0000960882D01*
X0002911990Y0000959007D01*
X0002910116Y0000957133D01*
X0002906366Y0000951508D01*
X0002904491Y0000944009D01*
X0002904491Y0000929011D01*
X0002906366Y0000925262D01*
X0002908241Y0000923387D01*
X0002911990Y0000921512D01*
X0002919490Y0000921512D01*
X0002923239Y0000923387D01*
X0002925114Y0000925262D01*
X0002926989Y0000929011D01*
X0002926989Y0000938385D01*
X0002925114Y0000942135D01*
X0002923239Y0000944009D01*
X0002919490Y0000945884D01*
X0002911990Y0000945884D01*
X0002908241Y0000944009D01*
X0002906366Y0000942135D01*
X0002904491Y0000938385D01*
M02*