%MOIN*%
%OFA0B0*%
%FSLAX44Y44*%
%IPPOS*%
%LPD*%
%ADD10C,0*%
D10*
X00032954Y00001790D02*
X00032954Y00001790D01*
X00032812Y00001798D01*
X00032676Y00001836D01*
X00032550Y00001902D01*
X00032442Y00001994D01*
X00032356Y00002107D01*
X00032297Y00002236D01*
X00032266Y00002374D01*
X00032266Y00002516D01*
X00032297Y00002655D01*
X00032356Y00002783D01*
X00032442Y00002896D01*
X00032550Y00002988D01*
X00032676Y00003055D01*
X00032812Y00003093D01*
X00032954Y00003100D01*
X00033094Y00003077D01*
X00033226Y00003025D01*
X00033343Y00002945D01*
X00033441Y00002842D01*
X00033514Y00002721D01*
X00033559Y00002586D01*
X00033575Y00002445D01*
X00033559Y00002304D01*
X00033514Y00002170D01*
X00033441Y00002048D01*
X00033343Y00001945D01*
X00033226Y00001865D01*
X00033094Y00001813D01*
X00032954Y00001790D01*
X00005789Y00008483D02*
X00005789Y00008483D01*
X00005647Y00008491D01*
X00005510Y00008529D01*
X00005385Y00008595D01*
X00005277Y00008687D01*
X00005191Y00008800D01*
X00005131Y00008929D01*
X00005101Y00009067D01*
X00005101Y00009209D01*
X00005131Y00009348D01*
X00005191Y00009476D01*
X00005277Y00009589D01*
X00005385Y00009681D01*
X00005510Y00009748D01*
X00005647Y00009786D01*
X00005789Y00009793D01*
X00005929Y00009770D01*
X00006060Y00009718D01*
X00006178Y00009638D01*
X00006275Y00009535D01*
X00006349Y00009414D01*
X00006394Y00009279D01*
X00006409Y00009138D01*
X00006394Y00008997D01*
X00006349Y00008863D01*
X00006275Y00008741D01*
X00006178Y00008638D01*
X00006060Y00008558D01*
X00005929Y00008506D01*
X00005789Y00008483D01*
X00032954Y00018325D02*
X00032954Y00018325D01*
X00032812Y00018333D01*
X00032676Y00018371D01*
X00032550Y00018438D01*
X00032442Y00018529D01*
X00032356Y00018642D01*
X00032297Y00018771D01*
X00032266Y00018910D01*
X00032266Y00019052D01*
X00032297Y00019190D01*
X00032356Y00019319D01*
X00032442Y00019432D01*
X00032550Y00019524D01*
X00032676Y00019590D01*
X00032812Y00019628D01*
X00032954Y00019636D01*
X00033094Y00019613D01*
X00033226Y00019560D01*
X00033343Y00019481D01*
X00033441Y00019378D01*
X00033514Y00019256D01*
X00033559Y00019122D01*
X00033575Y00018981D01*
X00033559Y00018840D01*
X00033514Y00018705D01*
X00033441Y00018584D01*
X00033343Y00018481D01*
X00033226Y00018401D01*
X00033094Y00018348D01*
X00032954Y00018325D01*
X00005789Y00025018D02*
X00005789Y00025018D01*
X00005647Y00025026D01*
X00005510Y00025064D01*
X00005385Y00025130D01*
X00005277Y00025222D01*
X00005191Y00025335D01*
X00005131Y00025464D01*
X00005101Y00025603D01*
X00005101Y00025744D01*
X00005131Y00025883D01*
X00005191Y00026012D01*
X00005277Y00026125D01*
X00005385Y00026217D01*
X00005510Y00026283D01*
X00005647Y00026321D01*
X00005789Y00026329D01*
X00005929Y00026306D01*
X00006060Y00026253D01*
X00006178Y00026174D01*
X00006275Y00026071D01*
X00006349Y00025949D01*
X00006394Y00025815D01*
X00006409Y00025674D01*
X00006394Y00025532D01*
X00006349Y00025398D01*
X00006275Y00025276D01*
X00006178Y00025173D01*
X00006060Y00025094D01*
X00005929Y00025041D01*
X00005789Y00025018D01*
X00034544Y00017012D02*
X00034544Y00017012D01*
X00037249Y00017012D01*
X00037249Y00032760D01*
X00001816Y00032760D01*
X00001816Y00027642D01*
X00004178Y00027642D01*
X00004178Y00022130D01*
X00001816Y00022130D01*
X00001816Y00017012D01*
X00004431Y00017012D01*
X00004492Y00017007D01*
X00004553Y00016993D01*
X00004610Y00016969D01*
X00004662Y00016937D01*
X00004709Y00016897D01*
X00004749Y00016850D01*
X00004782Y00016797D01*
X00004805Y00016740D01*
X00004820Y00016680D01*
X00004825Y00016618D01*
X00004820Y00016557D01*
X00004805Y00016497D01*
X00004782Y00016440D01*
X00004749Y00016387D01*
X00004709Y00016340D01*
X00004662Y00016300D01*
X00004610Y00016268D01*
X00004553Y00016244D01*
X00004492Y00016230D01*
X00004431Y00016225D01*
X00004372Y00016225D01*
X00001816Y00016225D01*
X00001816Y00011107D01*
X00004178Y00011107D01*
X00004178Y00005595D01*
X00001816Y00005595D01*
X00001816Y00000477D01*
X00037249Y00000477D01*
X00037249Y00016225D01*
X00034604Y00016225D01*
X00034544Y00016225D01*
X00034483Y00016230D01*
X00034423Y00016244D01*
X00034366Y00016268D01*
X00034313Y00016300D01*
X00034266Y00016340D01*
X00034226Y00016387D01*
X00034194Y00016440D01*
X00034170Y00016497D01*
X00034156Y00016557D01*
X00034151Y00016618D01*
X00034156Y00016680D01*
X00034170Y00016740D01*
X00034194Y00016797D01*
X00034226Y00016850D01*
X00034266Y00016897D01*
X00034313Y00016937D01*
X00034366Y00016969D01*
X00034423Y00016993D01*
X00034483Y00017007D01*
X00034544Y00017012D01*
X00032384Y00017012D02*
X00032384Y00017012D01*
X00032445Y00017007D01*
X00032505Y00016993D01*
X00032562Y00016969D01*
X00032615Y00016937D01*
X00032662Y00016897D01*
X00032702Y00016850D01*
X00032734Y00016797D01*
X00032758Y00016740D01*
X00032772Y00016680D01*
X00032777Y00016618D01*
X00032772Y00016557D01*
X00032758Y00016497D01*
X00032734Y00016440D01*
X00032702Y00016387D01*
X00032662Y00016340D01*
X00032615Y00016300D01*
X00032562Y00016268D01*
X00032505Y00016244D01*
X00032445Y00016230D01*
X00032384Y00016225D01*
X00032324Y00016225D01*
X00019643Y00016225D01*
X00019584Y00016225D01*
X00019522Y00016230D01*
X00019462Y00016244D01*
X00019405Y00016268D01*
X00019352Y00016300D01*
X00019305Y00016340D01*
X00019265Y00016387D01*
X00019233Y00016440D01*
X00019209Y00016497D01*
X00019195Y00016557D01*
X00019190Y00016618D01*
X00019195Y00016680D01*
X00019209Y00016740D01*
X00019233Y00016797D01*
X00019265Y00016850D01*
X00019305Y00016897D01*
X00019352Y00016937D01*
X00019405Y00016969D01*
X00019462Y00016993D01*
X00019522Y00017007D01*
X00019584Y00017012D01*
X00032384Y00017012D01*
X00006651Y00016225D02*
X00006651Y00016225D01*
X00006592Y00016225D01*
X00006530Y00016230D01*
X00006470Y00016244D01*
X00006413Y00016268D01*
X00006360Y00016300D01*
X00006313Y00016340D01*
X00006273Y00016387D01*
X00006241Y00016440D01*
X00006217Y00016497D01*
X00006203Y00016557D01*
X00006198Y00016618D01*
X00006203Y00016680D01*
X00006217Y00016740D01*
X00006241Y00016797D01*
X00006273Y00016850D01*
X00006313Y00016897D01*
X00006360Y00016937D01*
X00006413Y00016969D01*
X00006470Y00016993D01*
X00006530Y00017007D01*
X00006592Y00017012D01*
X00017423Y00017012D01*
X00017485Y00017007D01*
X00017545Y00016993D01*
X00017602Y00016969D01*
X00017654Y00016937D01*
X00017701Y00016897D01*
X00017742Y00016850D01*
X00017774Y00016797D01*
X00017797Y00016740D01*
X00017812Y00016680D01*
X00017817Y00016618D01*
X00017812Y00016557D01*
X00017797Y00016497D01*
X00017774Y00016440D01*
X00017742Y00016387D01*
X00017701Y00016340D01*
X00017654Y00016300D01*
X00017602Y00016268D01*
X00017545Y00016244D01*
X00017485Y00016230D01*
X00017423Y00016225D01*
X00017364Y00016225D01*
X00006651Y00016225D01*
M02*