G04 #@! TF.FileFunction,Soldermask,Bot*
%FSLAX46Y46*%
G04 Gerber Fmt 4.6, Leading zero omitted, Abs format (unit mm)*
G04 Created by KiCad (PCBNEW 4.0.7) date 08/13/18 20:02:33*
%MOMM*%
%LPD*%
G01*
G04 APERTURE LIST*
%ADD10C,0.100000*%
%ADD11R,2.400000X2.400000*%
%ADD12C,2.400000*%
%ADD13R,1.600000X1.150000*%
%ADD14R,2.000000X2.000000*%
%ADD15C,2.000000*%
%ADD16O,2.000000X2.000000*%
%ADD17C,7.400000*%
%ADD18O,1.650000X1.350000*%
%ADD19O,1.400000X1.950000*%
%ADD20R,2.100000X2.100000*%
%ADD21O,2.100000X2.100000*%
%ADD22C,1.400000*%
%ADD23R,1.400000X1.400000*%
%ADD24R,1.600000X1.300000*%
%ADD25C,1.840000*%
%ADD26R,2.127200X2.432000*%
%ADD27O,2.127200X2.432000*%
%ADD28R,2.400000X4.200000*%
%ADD29R,2.400000X1.900000*%
%ADD30C,2.200000*%
%ADD31O,2.400000X1.600000*%
%ADD32O,1.600000X2.400000*%
%ADD33R,2.600000X2.600000*%
%ADD34O,2.600000X2.600000*%
G04 APERTURE END LIST*
D10*
D11*
X93000000Y-16250000D03*
D12*
X93000000Y-23850000D03*
D13*
X74050000Y-5000000D03*
X75950000Y-5000000D03*
X28050000Y-14000000D03*
X29950000Y-14000000D03*
D14*
X21500000Y-6000000D03*
D15*
X21500000Y-3500000D03*
D14*
X94250000Y-11500000D03*
D16*
X84090000Y-11500000D03*
D17*
X5000000Y-5000000D03*
X5000000Y-35000000D03*
X95000000Y-5000000D03*
X95000000Y-35000000D03*
D18*
X52500000Y-4350000D03*
X47500000Y-4350000D03*
D19*
X53500000Y-1650000D03*
X46500000Y-1650000D03*
D20*
X14500000Y-6000000D03*
D21*
X14500000Y-8540000D03*
X14500000Y-11080000D03*
D22*
X67270000Y-10270000D03*
X68540000Y-9000000D03*
D23*
X66000000Y-9000000D03*
D20*
X48750000Y-38000000D03*
D21*
X51290000Y-38000000D03*
D15*
X67500000Y-29250000D03*
D16*
X67500000Y-14010000D03*
D15*
X81500000Y-29500000D03*
D16*
X81500000Y-14260000D03*
D24*
X15850000Y-21000000D03*
X13650000Y-21000000D03*
X15850000Y-23500000D03*
X13650000Y-23500000D03*
X27150000Y-23500000D03*
X29350000Y-23500000D03*
X27150000Y-21000000D03*
X29350000Y-21000000D03*
D25*
X78500000Y-9500000D03*
X75960000Y-9500000D03*
X73420000Y-9500000D03*
X77000000Y-29500000D03*
X74460000Y-29500000D03*
X71920000Y-29500000D03*
D26*
X71190000Y-2000000D03*
D27*
X73730000Y-2000000D03*
X76270000Y-2000000D03*
X78810000Y-2000000D03*
D28*
X27850000Y-5000000D03*
D29*
X34150000Y-5000000D03*
X34150000Y-7300000D03*
X34150000Y-2700000D03*
D20*
X5500000Y-16000000D03*
D21*
X5500000Y-18540000D03*
X5500000Y-21080000D03*
X5500000Y-23620000D03*
D20*
X84364000Y-17460000D03*
D21*
X84364000Y-20000000D03*
X84364000Y-22540000D03*
D20*
X73460000Y-16636000D03*
D21*
X76000000Y-16636000D03*
X78540000Y-16636000D03*
D20*
X78540000Y-23364000D03*
D21*
X76000000Y-23364000D03*
X73460000Y-23364000D03*
D30*
X32930000Y-28660000D03*
X32930000Y-26120000D03*
X32930000Y-23580000D03*
X32930000Y-21040000D03*
X32930000Y-18500000D03*
X32930000Y-15960000D03*
X32930000Y-13420000D03*
X32930000Y-10880000D03*
X10070000Y-10880000D03*
X10070000Y-13420000D03*
X10070000Y-15960000D03*
X10070000Y-18500000D03*
X10070000Y-21040000D03*
X10070000Y-23580000D03*
X10070000Y-26120000D03*
X10070000Y-28660000D03*
D31*
X37866000Y-11380000D03*
X37866000Y-13920000D03*
X62134000Y-12650000D03*
X37866000Y-16460000D03*
X62134000Y-15190000D03*
X37866000Y-19000000D03*
X62134000Y-17730000D03*
X37866000Y-21540000D03*
X62134000Y-20270000D03*
X37866000Y-24080000D03*
X62134000Y-22810000D03*
X37866000Y-26620000D03*
D32*
X46190000Y-9713000D03*
X48730000Y-9713000D03*
X51270000Y-9713000D03*
X53810000Y-9713000D03*
D33*
X29000000Y-11000000D03*
D34*
X18840000Y-11000000D03*
M02*
