G04 #@! TF.FileFunction,Legend,Bot*
%FSLAX46Y46*%
G04 Gerber Fmt 4.6, Leading zero omitted, Abs format (unit mm)*
G04 Created by KiCad (PCBNEW 4.0.7) date 08/13/18 20:02:33*
%MOMM*%
%LPD*%
G01*
G04 APERTURE LIST*
%ADD10C,0.100000*%
%ADD11C,0.120000*%
%ADD12C,0.150000*%
G04 APERTURE END LIST*
D10*
D11*
X99100000Y-20050000D02*
G75*
G03X99100000Y-20050000I-6100000J0D01*
G01*
X74650000Y-5600000D02*
X75350000Y-5600000D01*
X75350000Y-4400000D02*
X74650000Y-4400000D01*
X28650000Y-14600000D02*
X29350000Y-14600000D01*
X29350000Y-13400000D02*
X28650000Y-13400000D01*
X25340000Y-4750000D02*
G75*
G03X25340000Y-4750000I-3840000J0D01*
G01*
X25300000Y-4750000D02*
X17700000Y-4750000D01*
X25300000Y-4710000D02*
X17700000Y-4710000D01*
X25300000Y-4670000D02*
X17700000Y-4670000D01*
X25299000Y-4630000D02*
X17701000Y-4630000D01*
X25297000Y-4590000D02*
X17703000Y-4590000D01*
X25295000Y-4550000D02*
X17705000Y-4550000D01*
X25293000Y-4510000D02*
X17707000Y-4510000D01*
X25290000Y-4470000D02*
X22480000Y-4470000D01*
X20520000Y-4470000D02*
X17710000Y-4470000D01*
X25287000Y-4430000D02*
X22480000Y-4430000D01*
X20520000Y-4430000D02*
X17713000Y-4430000D01*
X25284000Y-4390000D02*
X22480000Y-4390000D01*
X20520000Y-4390000D02*
X17716000Y-4390000D01*
X25280000Y-4350000D02*
X22480000Y-4350000D01*
X20520000Y-4350000D02*
X17720000Y-4350000D01*
X25275000Y-4310000D02*
X22480000Y-4310000D01*
X20520000Y-4310000D02*
X17725000Y-4310000D01*
X25270000Y-4270000D02*
X22480000Y-4270000D01*
X20520000Y-4270000D02*
X17730000Y-4270000D01*
X25265000Y-4230000D02*
X22480000Y-4230000D01*
X20520000Y-4230000D02*
X17735000Y-4230000D01*
X25259000Y-4190000D02*
X22480000Y-4190000D01*
X20520000Y-4190000D02*
X17741000Y-4190000D01*
X25253000Y-4150000D02*
X22480000Y-4150000D01*
X20520000Y-4150000D02*
X17747000Y-4150000D01*
X25247000Y-4110000D02*
X22480000Y-4110000D01*
X20520000Y-4110000D02*
X17753000Y-4110000D01*
X25240000Y-4070000D02*
X22480000Y-4070000D01*
X20520000Y-4070000D02*
X17760000Y-4070000D01*
X25232000Y-4029000D02*
X22480000Y-4029000D01*
X20520000Y-4029000D02*
X17768000Y-4029000D01*
X25225000Y-3989000D02*
X22480000Y-3989000D01*
X20520000Y-3989000D02*
X17775000Y-3989000D01*
X25216000Y-3949000D02*
X22480000Y-3949000D01*
X20520000Y-3949000D02*
X17784000Y-3949000D01*
X25207000Y-3909000D02*
X22480000Y-3909000D01*
X20520000Y-3909000D02*
X17793000Y-3909000D01*
X25198000Y-3869000D02*
X22480000Y-3869000D01*
X20520000Y-3869000D02*
X17802000Y-3869000D01*
X25189000Y-3829000D02*
X22480000Y-3829000D01*
X20520000Y-3829000D02*
X17811000Y-3829000D01*
X25179000Y-3789000D02*
X22480000Y-3789000D01*
X20520000Y-3789000D02*
X17821000Y-3789000D01*
X25168000Y-3749000D02*
X22480000Y-3749000D01*
X20520000Y-3749000D02*
X17832000Y-3749000D01*
X25157000Y-3709000D02*
X22480000Y-3709000D01*
X20520000Y-3709000D02*
X17843000Y-3709000D01*
X25145000Y-3669000D02*
X22480000Y-3669000D01*
X20520000Y-3669000D02*
X17855000Y-3669000D01*
X25134000Y-3629000D02*
X22480000Y-3629000D01*
X20520000Y-3629000D02*
X17866000Y-3629000D01*
X25121000Y-3589000D02*
X22480000Y-3589000D01*
X20520000Y-3589000D02*
X17879000Y-3589000D01*
X25108000Y-3549000D02*
X22480000Y-3549000D01*
X20520000Y-3549000D02*
X17892000Y-3549000D01*
X25095000Y-3509000D02*
X22480000Y-3509000D01*
X20520000Y-3509000D02*
X17905000Y-3509000D01*
X25081000Y-3469000D02*
X22480000Y-3469000D01*
X20520000Y-3469000D02*
X17919000Y-3469000D01*
X25066000Y-3429000D02*
X22480000Y-3429000D01*
X20520000Y-3429000D02*
X17934000Y-3429000D01*
X25052000Y-3389000D02*
X22480000Y-3389000D01*
X20520000Y-3389000D02*
X17948000Y-3389000D01*
X25036000Y-3349000D02*
X22480000Y-3349000D01*
X20520000Y-3349000D02*
X17964000Y-3349000D01*
X25020000Y-3309000D02*
X22480000Y-3309000D01*
X20520000Y-3309000D02*
X17980000Y-3309000D01*
X25004000Y-3269000D02*
X22480000Y-3269000D01*
X20520000Y-3269000D02*
X17996000Y-3269000D01*
X24987000Y-3229000D02*
X22480000Y-3229000D01*
X20520000Y-3229000D02*
X18013000Y-3229000D01*
X24969000Y-3189000D02*
X22480000Y-3189000D01*
X20520000Y-3189000D02*
X18031000Y-3189000D01*
X24951000Y-3149000D02*
X22480000Y-3149000D01*
X20520000Y-3149000D02*
X18049000Y-3149000D01*
X24933000Y-3109000D02*
X22480000Y-3109000D01*
X20520000Y-3109000D02*
X18067000Y-3109000D01*
X24913000Y-3069000D02*
X22480000Y-3069000D01*
X20520000Y-3069000D02*
X18087000Y-3069000D01*
X24894000Y-3029000D02*
X22480000Y-3029000D01*
X20520000Y-3029000D02*
X18106000Y-3029000D01*
X24873000Y-2989000D02*
X22480000Y-2989000D01*
X20520000Y-2989000D02*
X18127000Y-2989000D01*
X24852000Y-2949000D02*
X22480000Y-2949000D01*
X20520000Y-2949000D02*
X18148000Y-2949000D01*
X24831000Y-2909000D02*
X22480000Y-2909000D01*
X20520000Y-2909000D02*
X18169000Y-2909000D01*
X24809000Y-2869000D02*
X22480000Y-2869000D01*
X20520000Y-2869000D02*
X18191000Y-2869000D01*
X24786000Y-2829000D02*
X22480000Y-2829000D01*
X20520000Y-2829000D02*
X18214000Y-2829000D01*
X24763000Y-2789000D02*
X22480000Y-2789000D01*
X20520000Y-2789000D02*
X18237000Y-2789000D01*
X24739000Y-2749000D02*
X22480000Y-2749000D01*
X20520000Y-2749000D02*
X18261000Y-2749000D01*
X24714000Y-2709000D02*
X22480000Y-2709000D01*
X20520000Y-2709000D02*
X18286000Y-2709000D01*
X24688000Y-2669000D02*
X22480000Y-2669000D01*
X20520000Y-2669000D02*
X18312000Y-2669000D01*
X24662000Y-2629000D02*
X22480000Y-2629000D01*
X20520000Y-2629000D02*
X18338000Y-2629000D01*
X24635000Y-2589000D02*
X22480000Y-2589000D01*
X20520000Y-2589000D02*
X18365000Y-2589000D01*
X24608000Y-2549000D02*
X22480000Y-2549000D01*
X20520000Y-2549000D02*
X18392000Y-2549000D01*
X24579000Y-2509000D02*
X18421000Y-2509000D01*
X24550000Y-2469000D02*
X18450000Y-2469000D01*
X24520000Y-2429000D02*
X18480000Y-2429000D01*
X24490000Y-2389000D02*
X18510000Y-2389000D01*
X24458000Y-2349000D02*
X18542000Y-2349000D01*
X24426000Y-2309000D02*
X18574000Y-2309000D01*
X24392000Y-2269000D02*
X18608000Y-2269000D01*
X24358000Y-2229000D02*
X18642000Y-2229000D01*
X24323000Y-2189000D02*
X18677000Y-2189000D01*
X24286000Y-2149000D02*
X18714000Y-2149000D01*
X24249000Y-2109000D02*
X18751000Y-2109000D01*
X24211000Y-2069000D02*
X18789000Y-2069000D01*
X24171000Y-2029000D02*
X18829000Y-2029000D01*
X24130000Y-1989000D02*
X18870000Y-1989000D01*
X24088000Y-1949000D02*
X18912000Y-1949000D01*
X24045000Y-1909000D02*
X18955000Y-1909000D01*
X24000000Y-1869000D02*
X19000000Y-1869000D01*
X23954000Y-1829000D02*
X19046000Y-1829000D01*
X23907000Y-1789000D02*
X19093000Y-1789000D01*
X23857000Y-1749000D02*
X19143000Y-1749000D01*
X23807000Y-1709000D02*
X19193000Y-1709000D01*
X23754000Y-1669000D02*
X19246000Y-1669000D01*
X23699000Y-1629000D02*
X19301000Y-1629000D01*
X23642000Y-1589000D02*
X19358000Y-1589000D01*
X23583000Y-1549000D02*
X19417000Y-1549000D01*
X23522000Y-1509000D02*
X19478000Y-1509000D01*
X23457000Y-1469000D02*
X19543000Y-1469000D01*
X23390000Y-1429000D02*
X19610000Y-1429000D01*
X23320000Y-1389000D02*
X19680000Y-1389000D01*
X23245000Y-1349000D02*
X19755000Y-1349000D01*
X23167000Y-1309000D02*
X19833000Y-1309000D01*
X23084000Y-1269000D02*
X19916000Y-1269000D01*
X22995000Y-1229000D02*
X20005000Y-1229000D01*
X22900000Y-1189000D02*
X20100000Y-1189000D01*
X22797000Y-1149000D02*
X20203000Y-1149000D01*
X22684000Y-1109000D02*
X20316000Y-1109000D01*
X22557000Y-1069000D02*
X20443000Y-1069000D01*
X22413000Y-1029000D02*
X20587000Y-1029000D01*
X22240000Y-989000D02*
X20760000Y-989000D01*
X22013000Y-949000D02*
X20987000Y-949000D01*
X21500000Y-8200000D02*
X21500000Y-7000000D01*
X22150000Y-7600000D02*
X20850000Y-7600000D01*
X91230000Y-10440000D02*
X91230000Y-12560000D01*
X91230000Y-12560000D02*
X87110000Y-12560000D01*
X87110000Y-12560000D02*
X87110000Y-10440000D01*
X87110000Y-10440000D02*
X91230000Y-10440000D01*
X93270000Y-11500000D02*
X91230000Y-11500000D01*
X85070000Y-11500000D02*
X87110000Y-11500000D01*
X90570000Y-10440000D02*
X90570000Y-12560000D01*
X15830000Y-12410000D02*
X13170000Y-12410000D01*
X15830000Y-7270000D02*
X15830000Y-12410000D01*
X13170000Y-7270000D02*
X13170000Y-12410000D01*
X15830000Y-7270000D02*
X13170000Y-7270000D01*
X15830000Y-6000000D02*
X15830000Y-4670000D01*
X15830000Y-4670000D02*
X14500000Y-4670000D01*
X65470000Y-7150000D02*
X69070000Y-7150000D01*
X65431522Y-7161522D02*
G75*
G03X67270000Y-11600000I1838478J-1838478D01*
G01*
X69108478Y-7161522D02*
G75*
G02X67270000Y-11600000I-1838478J-1838478D01*
G01*
X82810000Y-25090000D02*
X80190000Y-25090000D01*
X80190000Y-25090000D02*
X80190000Y-18670000D01*
X80190000Y-18670000D02*
X82810000Y-18670000D01*
X82810000Y-18670000D02*
X82810000Y-25090000D01*
X81500000Y-28520000D02*
X81500000Y-25090000D01*
X81500000Y-15240000D02*
X81500000Y-18670000D01*
X14250000Y-21680000D02*
X15250000Y-21680000D01*
X15250000Y-20320000D02*
X14250000Y-20320000D01*
X14250000Y-24180000D02*
X15250000Y-24180000D01*
X15250000Y-22820000D02*
X14250000Y-22820000D01*
X28750000Y-22820000D02*
X27750000Y-22820000D01*
X27750000Y-24180000D02*
X28750000Y-24180000D01*
X28750000Y-20320000D02*
X27750000Y-20320000D01*
X27750000Y-21680000D02*
X28750000Y-21680000D01*
X79414691Y-9504296D02*
G75*
G03X79455000Y-7195000I40309J1154296D01*
G01*
X79475121Y-7195948D02*
G75*
G03X78326000Y-8590000I-20121J-1154052D01*
G01*
X71135000Y-11970000D02*
X80785000Y-11970000D01*
X71135000Y-7019000D02*
X80785000Y-7019000D01*
X71135000Y-11970000D02*
X71135000Y-7019000D01*
X80785000Y-11970000D02*
X80785000Y-7019000D01*
X80331000Y-9084000D02*
X78720000Y-7474000D01*
X80191000Y-9225000D02*
X78579000Y-7615000D01*
X77914691Y-29504296D02*
G75*
G03X77955000Y-27195000I40309J1154296D01*
G01*
X77975121Y-27195948D02*
G75*
G03X76826000Y-28590000I-20121J-1154052D01*
G01*
X69635000Y-31970000D02*
X79285000Y-31970000D01*
X69635000Y-27019000D02*
X79285000Y-27019000D01*
X69635000Y-31970000D02*
X69635000Y-27019000D01*
X79285000Y-31970000D02*
X79285000Y-27019000D01*
X78831000Y-29084000D02*
X77220000Y-27474000D01*
X78691000Y-29225000D02*
X77079000Y-27615000D01*
D12*
X72460000Y-730000D02*
X72460000Y-3270000D01*
X80080000Y-730000D02*
X72460000Y-730000D01*
X80080000Y-3270000D02*
X80080000Y-730000D01*
X72460000Y-3270000D02*
X80080000Y-3270000D01*
X69666000Y-476000D02*
X71190000Y-476000D01*
X69666000Y-3524000D02*
X69666000Y-476000D01*
X71190000Y-3524000D02*
X69666000Y-3524000D01*
D11*
X29090000Y-8410000D02*
X29090000Y-7150000D01*
X29090000Y-1590000D02*
X29090000Y-2850000D01*
X32850000Y-8410000D02*
X29090000Y-8410000D01*
X35100000Y-1590000D02*
X29090000Y-1590000D01*
D12*
X27850000Y-14690000D02*
X27850000Y-28660000D01*
X27850000Y-28660000D02*
X15150000Y-28660000D01*
X15150000Y-28660000D02*
X15150000Y-14690000D01*
X15150000Y-14690000D02*
X27850000Y-14690000D01*
X30390000Y-13420000D02*
X12610000Y-13420000D01*
X12610000Y-13420000D02*
X12610000Y-36280000D01*
X12610000Y-36280000D02*
X30390000Y-36280000D01*
X30390000Y-36280000D02*
X30390000Y-13420000D01*
X36284000Y-5284000D02*
X36284000Y-32716000D01*
X63716000Y-5284000D02*
X63716000Y-32716000D01*
X63716000Y-32716000D02*
X36284000Y-32716000D01*
X63716000Y-5284000D02*
X36284000Y-5284000D01*
X63750000Y-10280000D02*
X63750000Y-27720000D01*
X36250000Y-27720000D02*
X36250000Y-10280000D01*
D11*
X26580000Y-9590000D02*
X26580000Y-12410000D01*
X26580000Y-12410000D02*
X21260000Y-12410000D01*
X21260000Y-12410000D02*
X21260000Y-9590000D01*
X21260000Y-9590000D02*
X26580000Y-9590000D01*
X27720000Y-11000000D02*
X26580000Y-11000000D01*
X20120000Y-11000000D02*
X21260000Y-11000000D01*
X25740000Y-9590000D02*
X25740000Y-12410000D01*
D12*
X92928571Y-19119048D02*
X92976190Y-19261905D01*
X93023810Y-19309524D01*
X93119048Y-19357143D01*
X93261905Y-19357143D01*
X93357143Y-19309524D01*
X93404762Y-19261905D01*
X93452381Y-19166667D01*
X93452381Y-18785714D01*
X92452381Y-18785714D01*
X92452381Y-19119048D01*
X92500000Y-19214286D01*
X92547619Y-19261905D01*
X92642857Y-19309524D01*
X92738095Y-19309524D01*
X92833333Y-19261905D01*
X92880952Y-19214286D01*
X92928571Y-19119048D01*
X92928571Y-18785714D01*
X92452381Y-19690476D02*
X92452381Y-20357143D01*
X93452381Y-19690476D01*
X93452381Y-20357143D01*
X93452381Y-21261905D02*
X93452381Y-20690476D01*
X93452381Y-20976190D02*
X92452381Y-20976190D01*
X92595238Y-20880952D01*
X92690476Y-20785714D01*
X92738095Y-20690476D01*
X90531429Y-15859048D02*
X90531429Y-16620953D01*
X90912381Y-16240001D02*
X90150476Y-16240001D01*
X75166666Y-6607143D02*
X75214285Y-6654762D01*
X75357142Y-6702381D01*
X75452380Y-6702381D01*
X75595238Y-6654762D01*
X75690476Y-6559524D01*
X75738095Y-6464286D01*
X75785714Y-6273810D01*
X75785714Y-6130952D01*
X75738095Y-5940476D01*
X75690476Y-5845238D01*
X75595238Y-5750000D01*
X75452380Y-5702381D01*
X75357142Y-5702381D01*
X75214285Y-5750000D01*
X75166666Y-5797619D01*
X74785714Y-5797619D02*
X74738095Y-5750000D01*
X74642857Y-5702381D01*
X74404761Y-5702381D01*
X74309523Y-5750000D01*
X74261904Y-5797619D01*
X74214285Y-5892857D01*
X74214285Y-5988095D01*
X74261904Y-6130952D01*
X74833333Y-6702381D01*
X74214285Y-6702381D01*
X29166666Y-15607143D02*
X29214285Y-15654762D01*
X29357142Y-15702381D01*
X29452380Y-15702381D01*
X29595238Y-15654762D01*
X29690476Y-15559524D01*
X29738095Y-15464286D01*
X29785714Y-15273810D01*
X29785714Y-15130952D01*
X29738095Y-14940476D01*
X29690476Y-14845238D01*
X29595238Y-14750000D01*
X29452380Y-14702381D01*
X29357142Y-14702381D01*
X29214285Y-14750000D01*
X29166666Y-14797619D01*
X28833333Y-14702381D02*
X28214285Y-14702381D01*
X28547619Y-15083333D01*
X28404761Y-15083333D01*
X28309523Y-15130952D01*
X28261904Y-15178571D01*
X28214285Y-15273810D01*
X28214285Y-15511905D01*
X28261904Y-15607143D01*
X28309523Y-15654762D01*
X28404761Y-15702381D01*
X28690476Y-15702381D01*
X28785714Y-15654762D01*
X28833333Y-15607143D01*
X16666666Y-2357143D02*
X16714285Y-2404762D01*
X16857142Y-2452381D01*
X16952380Y-2452381D01*
X17095238Y-2404762D01*
X17190476Y-2309524D01*
X17238095Y-2214286D01*
X17285714Y-2023810D01*
X17285714Y-1880952D01*
X17238095Y-1690476D01*
X17190476Y-1595238D01*
X17095238Y-1500000D01*
X16952380Y-1452381D01*
X16857142Y-1452381D01*
X16714285Y-1500000D01*
X16666666Y-1547619D01*
X15809523Y-1785714D02*
X15809523Y-2452381D01*
X16047619Y-1404762D02*
X16285714Y-2119048D01*
X15666666Y-2119048D01*
X89908095Y-9892381D02*
X89908095Y-8892381D01*
X89670000Y-8892381D01*
X89527142Y-8940000D01*
X89431904Y-9035238D01*
X89384285Y-9130476D01*
X89336666Y-9320952D01*
X89336666Y-9463810D01*
X89384285Y-9654286D01*
X89431904Y-9749524D01*
X89527142Y-9844762D01*
X89670000Y-9892381D01*
X89908095Y-9892381D01*
X88384285Y-9892381D02*
X88955714Y-9892381D01*
X88670000Y-9892381D02*
X88670000Y-8892381D01*
X88765238Y-9035238D01*
X88860476Y-9130476D01*
X88955714Y-9178095D01*
X15333333Y-3122381D02*
X15333333Y-3836667D01*
X15380953Y-3979524D01*
X15476191Y-4074762D01*
X15619048Y-4122381D01*
X15714286Y-4122381D01*
X14857143Y-4122381D02*
X14857143Y-3122381D01*
X14476190Y-3122381D01*
X14380952Y-3170000D01*
X14333333Y-3217619D01*
X14285714Y-3312857D01*
X14285714Y-3455714D01*
X14333333Y-3550952D01*
X14380952Y-3598571D01*
X14476190Y-3646190D01*
X14857143Y-3646190D01*
X13333333Y-4122381D02*
X13904762Y-4122381D01*
X13619048Y-4122381D02*
X13619048Y-3122381D01*
X13714286Y-3265238D01*
X13809524Y-3360476D01*
X13904762Y-3408095D01*
X67345238Y-6797619D02*
X67440476Y-6750000D01*
X67535714Y-6654762D01*
X67678571Y-6511905D01*
X67773810Y-6464286D01*
X67869048Y-6464286D01*
X67821429Y-6702381D02*
X67916667Y-6654762D01*
X68011905Y-6559524D01*
X68059524Y-6369048D01*
X68059524Y-6035714D01*
X68011905Y-5845238D01*
X67916667Y-5750000D01*
X67821429Y-5702381D01*
X67630952Y-5702381D01*
X67535714Y-5750000D01*
X67440476Y-5845238D01*
X67392857Y-6035714D01*
X67392857Y-6369048D01*
X67440476Y-6559524D01*
X67535714Y-6654762D01*
X67630952Y-6702381D01*
X67821429Y-6702381D01*
X66440476Y-6702381D02*
X67011905Y-6702381D01*
X66726191Y-6702381D02*
X66726191Y-5702381D01*
X66821429Y-5845238D01*
X66916667Y-5940476D01*
X67011905Y-5988095D01*
X82202381Y-21833334D02*
X81726190Y-21500000D01*
X82202381Y-21261905D02*
X81202381Y-21261905D01*
X81202381Y-21642858D01*
X81250000Y-21738096D01*
X81297619Y-21785715D01*
X81392857Y-21833334D01*
X81535714Y-21833334D01*
X81630952Y-21785715D01*
X81678571Y-21738096D01*
X81726190Y-21642858D01*
X81726190Y-21261905D01*
X81202381Y-22166667D02*
X81202381Y-22785715D01*
X81583333Y-22452381D01*
X81583333Y-22595239D01*
X81630952Y-22690477D01*
X81678571Y-22738096D01*
X81773810Y-22785715D01*
X82011905Y-22785715D01*
X82107143Y-22738096D01*
X82154762Y-22690477D01*
X82202381Y-22595239D01*
X82202381Y-22309524D01*
X82154762Y-22214286D01*
X82107143Y-22166667D01*
X14916666Y-19952381D02*
X15250000Y-19476190D01*
X15488095Y-19952381D02*
X15488095Y-18952381D01*
X15107142Y-18952381D01*
X15011904Y-19000000D01*
X14964285Y-19047619D01*
X14916666Y-19142857D01*
X14916666Y-19285714D01*
X14964285Y-19380952D01*
X15011904Y-19428571D01*
X15107142Y-19476190D01*
X15488095Y-19476190D01*
X14059523Y-19285714D02*
X14059523Y-19952381D01*
X14297619Y-18904762D02*
X14535714Y-19619048D01*
X13916666Y-19619048D01*
X14916666Y-25452381D02*
X15250000Y-24976190D01*
X15488095Y-25452381D02*
X15488095Y-24452381D01*
X15107142Y-24452381D01*
X15011904Y-24500000D01*
X14964285Y-24547619D01*
X14916666Y-24642857D01*
X14916666Y-24785714D01*
X14964285Y-24880952D01*
X15011904Y-24928571D01*
X15107142Y-24976190D01*
X15488095Y-24976190D01*
X14011904Y-24452381D02*
X14488095Y-24452381D01*
X14535714Y-24928571D01*
X14488095Y-24880952D01*
X14392857Y-24833333D01*
X14154761Y-24833333D01*
X14059523Y-24880952D01*
X14011904Y-24928571D01*
X13964285Y-25023810D01*
X13964285Y-25261905D01*
X14011904Y-25357143D01*
X14059523Y-25404762D01*
X14154761Y-25452381D01*
X14392857Y-25452381D01*
X14488095Y-25404762D01*
X14535714Y-25357143D01*
X28416666Y-25452381D02*
X28750000Y-24976190D01*
X28988095Y-25452381D02*
X28988095Y-24452381D01*
X28607142Y-24452381D01*
X28511904Y-24500000D01*
X28464285Y-24547619D01*
X28416666Y-24642857D01*
X28416666Y-24785714D01*
X28464285Y-24880952D01*
X28511904Y-24928571D01*
X28607142Y-24976190D01*
X28988095Y-24976190D01*
X27559523Y-24452381D02*
X27750000Y-24452381D01*
X27845238Y-24500000D01*
X27892857Y-24547619D01*
X27988095Y-24690476D01*
X28035714Y-24880952D01*
X28035714Y-25261905D01*
X27988095Y-25357143D01*
X27940476Y-25404762D01*
X27845238Y-25452381D01*
X27654761Y-25452381D01*
X27559523Y-25404762D01*
X27511904Y-25357143D01*
X27464285Y-25261905D01*
X27464285Y-25023810D01*
X27511904Y-24928571D01*
X27559523Y-24880952D01*
X27654761Y-24833333D01*
X27845238Y-24833333D01*
X27940476Y-24880952D01*
X27988095Y-24928571D01*
X28035714Y-25023810D01*
X28416666Y-19952381D02*
X28750000Y-19476190D01*
X28988095Y-19952381D02*
X28988095Y-18952381D01*
X28607142Y-18952381D01*
X28511904Y-19000000D01*
X28464285Y-19047619D01*
X28416666Y-19142857D01*
X28416666Y-19285714D01*
X28464285Y-19380952D01*
X28511904Y-19428571D01*
X28607142Y-19476190D01*
X28988095Y-19476190D01*
X28083333Y-18952381D02*
X27416666Y-18952381D01*
X27845238Y-19952381D01*
X76555238Y-13612381D02*
X76888572Y-13136190D01*
X77126667Y-13612381D02*
X77126667Y-12612381D01*
X76745714Y-12612381D01*
X76650476Y-12660000D01*
X76602857Y-12707619D01*
X76555238Y-12802857D01*
X76555238Y-12945714D01*
X76602857Y-13040952D01*
X76650476Y-13088571D01*
X76745714Y-13136190D01*
X77126667Y-13136190D01*
X76269524Y-12612381D02*
X75936191Y-13612381D01*
X75602857Y-12612381D01*
X74745714Y-13612381D02*
X75317143Y-13612381D01*
X75031429Y-13612381D02*
X75031429Y-12612381D01*
X75126667Y-12755238D01*
X75221905Y-12850476D01*
X75317143Y-12898095D01*
X75055238Y-33612381D02*
X75388572Y-33136190D01*
X75626667Y-33612381D02*
X75626667Y-32612381D01*
X75245714Y-32612381D01*
X75150476Y-32660000D01*
X75102857Y-32707619D01*
X75055238Y-32802857D01*
X75055238Y-32945714D01*
X75102857Y-33040952D01*
X75150476Y-33088571D01*
X75245714Y-33136190D01*
X75626667Y-33136190D01*
X74769524Y-32612381D02*
X74436191Y-33612381D01*
X74102857Y-32612381D01*
X73817143Y-32707619D02*
X73769524Y-32660000D01*
X73674286Y-32612381D01*
X73436190Y-32612381D01*
X73340952Y-32660000D01*
X73293333Y-32707619D01*
X73245714Y-32802857D01*
X73245714Y-32898095D01*
X73293333Y-33040952D01*
X73864762Y-33612381D01*
X73245714Y-33612381D01*
X83285714Y-1452381D02*
X82714285Y-1452381D01*
X83000000Y-2452381D02*
X83000000Y-1452381D01*
X82380952Y-2452381D02*
X82380952Y-1452381D01*
X82380952Y-1928571D02*
X81809523Y-1928571D01*
X81809523Y-2452381D02*
X81809523Y-1452381D01*
X80809523Y-2452381D02*
X81380952Y-2452381D01*
X81095238Y-2452381D02*
X81095238Y-1452381D01*
X81190476Y-1595238D01*
X81285714Y-1690476D01*
X81380952Y-1738095D01*
X31761905Y47619D02*
X31761905Y-761905D01*
X31714286Y-857143D01*
X31666667Y-904762D01*
X31571429Y-952381D01*
X31380952Y-952381D01*
X31285714Y-904762D01*
X31238095Y-857143D01*
X31190476Y-761905D01*
X31190476Y47619D01*
X30761905Y-47619D02*
X30714286Y0D01*
X30619048Y47619D01*
X30380952Y47619D01*
X30285714Y0D01*
X30238095Y-47619D01*
X30190476Y-142857D01*
X30190476Y-238095D01*
X30238095Y-380952D01*
X30809524Y-952381D01*
X30190476Y-952381D01*
X50914286Y-8422857D02*
X50914286Y-9394286D01*
X50857143Y-9508571D01*
X50800000Y-9565714D01*
X50685714Y-9622857D01*
X50457143Y-9622857D01*
X50342857Y-9565714D01*
X50285714Y-9508571D01*
X50228571Y-9394286D01*
X50228571Y-8422857D01*
X49600000Y-9622857D02*
X49371428Y-9622857D01*
X49257143Y-9565714D01*
X49200000Y-9508571D01*
X49085714Y-9337143D01*
X49028571Y-9108571D01*
X49028571Y-8651429D01*
X49085714Y-8537143D01*
X49142857Y-8480000D01*
X49257143Y-8422857D01*
X49485714Y-8422857D01*
X49600000Y-8480000D01*
X49657143Y-8537143D01*
X49714286Y-8651429D01*
X49714286Y-8937143D01*
X49657143Y-9051429D01*
X49600000Y-9108571D01*
X49485714Y-9165714D01*
X49257143Y-9165714D01*
X49142857Y-9108571D01*
X49085714Y-9051429D01*
X49028571Y-8937143D01*
X25988095Y-9202381D02*
X25988095Y-8202381D01*
X25750000Y-8202381D01*
X25607142Y-8250000D01*
X25511904Y-8345238D01*
X25464285Y-8440476D01*
X25416666Y-8630952D01*
X25416666Y-8773810D01*
X25464285Y-8964286D01*
X25511904Y-9059524D01*
X25607142Y-9154762D01*
X25750000Y-9202381D01*
X25988095Y-9202381D01*
X25035714Y-8297619D02*
X24988095Y-8250000D01*
X24892857Y-8202381D01*
X24654761Y-8202381D01*
X24559523Y-8250000D01*
X24511904Y-8297619D01*
X24464285Y-8392857D01*
X24464285Y-8488095D01*
X24511904Y-8630952D01*
X25083333Y-9202381D01*
X24464285Y-9202381D01*
M02*
