M48
;DRILL file {KiCad 4.0.7} date 08/13/18 20:02:36
;FORMAT={-:-/ absolute / inch / decimal}
FMAT,2
INCH,TZ
T1C0.016
T2C0.020
T3C0.022
T4C0.024
T5C0.031
T6C0.039
T7C0.040
T8C0.043
T9C0.138
%
G90
G05
M72
T1
X0.4724Y-0.876
X0.7283Y-0.5807
X0.7283Y-0.6791
X0.7776Y-0.876
X0.7776Y-0.9843
X1.4567Y-0.2657
X1.4567Y-0.3346
X1.4764Y-0.0394
X1.4764Y-0.1083
X1.5256Y-0.2657
X1.5256Y-0.3346
X1.5354Y-1.3091
X1.5453Y-0.0394
X1.5453Y-0.1083
X1.7323Y-0.9547
X2.0177Y-0.8465
X2.0177Y-1.2303
X2.126Y-0.748
X2.2441Y-1.1122
X2.4508Y-1.0728
X2.9528Y-1.378
X3.1201Y-0.2067
T4
X2.5984Y-0.3543
X2.6484Y-0.4043
X2.6984Y-0.3543
T5
X0.8465Y-0.1378
X0.8465Y-0.2362
X1.4908Y-0.448
X1.4908Y-0.548
X1.4908Y-0.648
X1.4908Y-0.748
X1.4908Y-0.848
X1.4908Y-0.948
X1.4908Y-1.048
X1.8185Y-0.3824
X1.9185Y-0.3824
X2.0185Y-0.3824
X2.1185Y-0.3824
X2.4462Y-0.498
X2.4462Y-0.598
X2.4462Y-0.698
X2.4462Y-0.798
X2.4462Y-0.898
X2.6575Y-0.5516
X2.6575Y-1.1516
X2.8315Y-1.1614
X2.8906Y-0.374
X2.9315Y-1.1614
X2.9906Y-0.374
X3.0315Y-1.1614
X3.0906Y-0.374
X3.2087Y-0.5614
X3.2087Y-1.1614
X3.3106Y-0.4528
X3.7106Y-0.4528
T6
X0.2165Y-0.6299
X0.2165Y-0.7299
X0.2165Y-0.8299
X0.2165Y-0.9299
X0.5709Y-0.2362
X0.5709Y-0.3362
X0.5709Y-0.4362
X1.9193Y-1.4961
X2.0193Y-1.4961
X2.8921Y-0.655
X2.8921Y-0.9198
X2.9921Y-0.655
X2.9921Y-0.9198
X3.0921Y-0.655
X3.0921Y-0.9198
X3.3214Y-0.6874
X3.3214Y-0.7874
X3.3214Y-0.8874
X3.6614Y-0.6398
X3.6614Y-0.939
T7
X0.3965Y-0.4283
X0.3965Y-0.5283
X0.3965Y-0.6283
X0.3965Y-0.7283
X0.3965Y-0.8283
X0.3965Y-0.9283
X0.3965Y-1.0283
X0.3965Y-1.1283
X1.2965Y-0.4283
X1.2965Y-0.5283
X1.2965Y-0.6283
X1.2965Y-0.7283
X1.2965Y-0.8283
X1.2965Y-0.9283
X1.2965Y-1.0283
X1.2965Y-1.1283
X2.8028Y-0.0787
X2.9028Y-0.0787
X3.0028Y-0.0787
X3.1028Y-0.0787
T8
X0.7417Y-0.4331
X1.1417Y-0.4331
T9
X0.1969Y-0.1969
X0.1969Y-1.378
X3.7402Y-0.1969
X3.7402Y-1.378
T2
X1.8307Y-0.0522G85X1.8307Y-0.0778
G05
X2.1063Y-0.0522G85X2.1063Y-0.0778
G05
T3
X1.876Y-0.1713G85X1.8642Y-0.1713
G05
X2.0728Y-0.1713G85X2.061Y-0.1713
G05
T0
M30
