G04 #@! TF.FileFunction,Other,User*
%FSLAX46Y46*%
G04 Gerber Fmt 4.6, Leading zero omitted, Abs format (unit mm)*
G04 Created by KiCad (PCBNEW 4.0.7) date 08/13/18 20:02:33*
%MOMM*%
%LPD*%
G01*
G04 APERTURE LIST*
%ADD10C,0.100000*%
%ADD11C,0.050000*%
%ADD12C,0.150000*%
G04 APERTURE END LIST*
D10*
D11*
X40850000Y-6300000D02*
X40850000Y-2700000D01*
X40850000Y-6300000D02*
X42150000Y-6300000D01*
X42150000Y-2700000D02*
X40850000Y-2700000D01*
X42150000Y-2700000D02*
X42150000Y-6300000D01*
X8750000Y-5000000D02*
G75*
G03X8750000Y-5000000I-3750000J0D01*
G01*
X8750000Y-35000000D02*
G75*
G03X8750000Y-35000000I-3750000J0D01*
G01*
X98750000Y-5000000D02*
G75*
G03X98750000Y-5000000I-3750000J0D01*
G01*
X98750000Y-35000000D02*
G75*
G03X98750000Y-35000000I-3750000J0D01*
G01*
X54600000Y-5590000D02*
X45400000Y-5590000D01*
X45400000Y-5590000D02*
X45400000Y1260000D01*
X45400000Y1260000D02*
X54600000Y1260000D01*
X54600000Y1260000D02*
X54600000Y-5590000D01*
X46950000Y-39800000D02*
X53100000Y-39800000D01*
X53100000Y-39800000D02*
X53100000Y-36200000D01*
X53100000Y-36200000D02*
X46950000Y-36200000D01*
X46950000Y-36200000D02*
X46950000Y-39800000D01*
X65900000Y-30300000D02*
X69100000Y-30300000D01*
X69100000Y-30300000D02*
X69100000Y-12950000D01*
X69100000Y-12950000D02*
X65900000Y-12950000D01*
X65900000Y-12950000D02*
X65900000Y-30300000D01*
D12*
X67380000Y2300000D02*
X82620000Y2300000D01*
X67380000Y-5300000D02*
X67380000Y2300000D01*
X82620000Y-5300000D02*
X82620000Y2300000D01*
X67380000Y-5300000D02*
X82620000Y-5300000D01*
X67380000Y-4000000D02*
X82620000Y-4000000D01*
D11*
X3700000Y-14200000D02*
X3700000Y-25400000D01*
X3700000Y-25400000D02*
X7300000Y-25400000D01*
X7300000Y-25400000D02*
X7300000Y-14200000D01*
X7300000Y-14200000D02*
X3700000Y-14200000D01*
X82564000Y-15660000D02*
X82564000Y-24310000D01*
X82564000Y-24310000D02*
X86164000Y-24310000D01*
X86164000Y-24310000D02*
X86164000Y-15660000D01*
X86164000Y-15660000D02*
X82564000Y-15660000D01*
X71660000Y-18436000D02*
X80310000Y-18436000D01*
X80310000Y-18436000D02*
X80310000Y-14836000D01*
X80310000Y-14836000D02*
X71660000Y-14836000D01*
X71660000Y-14836000D02*
X71660000Y-18436000D01*
X80340000Y-21564000D02*
X71690000Y-21564000D01*
X71690000Y-21564000D02*
X71690000Y-25164000D01*
X71690000Y-25164000D02*
X80340000Y-25164000D01*
X80340000Y-25164000D02*
X80340000Y-21564000D01*
M02*
