%MOIN*%
%OFA0B0*%
%FSLAX46Y46*%
%IPPOS*%
%LPD*%
%ADD10C,0.0039370078740157488*%
%ADD11C,0.0047244094488188976*%
%ADD12C,0.005905511811023622*%
%ADD23C,0.0039370078740157488*%
%ADD24C,0.0047244094488188976*%
%ADD25C,0.005905511811023622*%
%LPD*%
G01*
D10*
D11*
X0003862204Y0002596456D02*
G75*
G03X0003862204Y0002596456I-0000240157D01*
G01*
X0002899606Y0003165354D02*
X0002927165Y0003165354D01*
X0002927165Y0003212598D02*
X0002899606Y0003212598D01*
X0001088582Y0002811023D02*
X0001116141Y0002811023D01*
X0001116141Y0002858267D02*
X0001088582Y0002858267D01*
X0000958267Y0003198818D02*
G75*
G03X0000958267Y0003198818I-0000151181D01*
G01*
X0000956692Y0003198818D02*
X0000657480Y0003198818D01*
X0000956692Y0003200393D02*
X0000657480Y0003200393D01*
X0000956692Y0003201968D02*
X0000657480Y0003201968D01*
X0000956653Y0003203543D02*
X0000657519Y0003203543D01*
X0000956574Y0003205118D02*
X0000657598Y0003205118D01*
X0000956496Y0003206692D02*
X0000657677Y0003206692D01*
X0000956417Y0003208267D02*
X0000657755Y0003208267D01*
X0000956299Y0003209842D02*
X0000845669Y0003209842D01*
X0000768503Y0003209842D02*
X0000657874Y0003209842D01*
X0000956181Y0003211417D02*
X0000845669Y0003211417D01*
X0000768503Y0003211417D02*
X0000657992Y0003211417D01*
X0000956062Y0003212992D02*
X0000845669Y0003212992D01*
X0000768503Y0003212992D02*
X0000658110Y0003212992D01*
X0000955905Y0003214566D02*
X0000845669Y0003214566D01*
X0000768503Y0003214566D02*
X0000658267Y0003214566D01*
X0000955708Y0003216141D02*
X0000845669Y0003216141D01*
X0000768503Y0003216141D02*
X0000658464Y0003216141D01*
X0000955511Y0003217716D02*
X0000845669Y0003217716D01*
X0000768503Y0003217716D02*
X0000658661Y0003217716D01*
X0000955314Y0003219291D02*
X0000845669Y0003219291D01*
X0000768503Y0003219291D02*
X0000658858Y0003219291D01*
X0000955078Y0003220866D02*
X0000845669Y0003220866D01*
X0000768503Y0003220866D02*
X0000659094Y0003220866D01*
X0000954842Y0003222440D02*
X0000845669Y0003222440D01*
X0000768503Y0003222440D02*
X0000659330Y0003222440D01*
X0000954606Y0003224015D02*
X0000845669Y0003224015D01*
X0000768503Y0003224015D02*
X0000659566Y0003224015D01*
X0000954330Y0003225590D02*
X0000845669Y0003225590D01*
X0000768503Y0003225590D02*
X0000659842Y0003225590D01*
X0000954015Y0003227204D02*
X0000845669Y0003227204D01*
X0000768503Y0003227204D02*
X0000660157Y0003227204D01*
X0000953740Y0003228779D02*
X0000845669Y0003228779D01*
X0000768503Y0003228779D02*
X0000660433Y0003228779D01*
X0000953385Y0003230354D02*
X0000845669Y0003230354D01*
X0000768503Y0003230354D02*
X0000660787Y0003230354D01*
X0000953031Y0003231929D02*
X0000845669Y0003231929D01*
X0000768503Y0003231929D02*
X0000661141Y0003231929D01*
X0000952677Y0003233503D02*
X0000845669Y0003233503D01*
X0000768503Y0003233503D02*
X0000661496Y0003233503D01*
X0000952322Y0003235078D02*
X0000845669Y0003235078D01*
X0000768503Y0003235078D02*
X0000661850Y0003235078D01*
X0000951929Y0003236653D02*
X0000845669Y0003236653D01*
X0000768503Y0003236653D02*
X0000662244Y0003236653D01*
X0000951496Y0003238228D02*
X0000845669Y0003238228D01*
X0000768503Y0003238228D02*
X0000662677Y0003238228D01*
X0000951062Y0003239803D02*
X0000845669Y0003239803D01*
X0000768503Y0003239803D02*
X0000663110Y0003239803D01*
X0000950590Y0003241377D02*
X0000845669Y0003241377D01*
X0000768503Y0003241377D02*
X0000663582Y0003241377D01*
X0000950157Y0003242952D02*
X0000845669Y0003242952D01*
X0000768503Y0003242952D02*
X0000664015Y0003242952D01*
X0000949645Y0003244527D02*
X0000845669Y0003244527D01*
X0000768503Y0003244527D02*
X0000664527Y0003244527D01*
X0000949133Y0003246102D02*
X0000845669Y0003246102D01*
X0000768503Y0003246102D02*
X0000665039Y0003246102D01*
X0000948622Y0003247677D02*
X0000845669Y0003247677D01*
X0000768503Y0003247677D02*
X0000665551Y0003247677D01*
X0000948070Y0003249251D02*
X0000845669Y0003249251D01*
X0000768503Y0003249251D02*
X0000666102Y0003249251D01*
X0000947480Y0003250826D02*
X0000845669Y0003250826D01*
X0000768503Y0003250826D02*
X0000666692Y0003250826D01*
X0000946929Y0003252401D02*
X0000845669Y0003252401D01*
X0000768503Y0003252401D02*
X0000667244Y0003252401D01*
X0000946299Y0003253976D02*
X0000845669Y0003253976D01*
X0000768503Y0003253976D02*
X0000667874Y0003253976D01*
X0000945669Y0003255551D02*
X0000845669Y0003255551D01*
X0000768503Y0003255551D02*
X0000668503Y0003255551D01*
X0000945039Y0003257125D02*
X0000845669Y0003257125D01*
X0000768503Y0003257125D02*
X0000669133Y0003257125D01*
X0000944370Y0003258700D02*
X0000845669Y0003258700D01*
X0000768503Y0003258700D02*
X0000669803Y0003258700D01*
X0000943661Y0003260275D02*
X0000845669Y0003260275D01*
X0000768503Y0003260275D02*
X0000670511Y0003260275D01*
X0000942952Y0003261850D02*
X0000845669Y0003261850D01*
X0000768503Y0003261850D02*
X0000671220Y0003261850D01*
X0000942244Y0003263425D02*
X0000845669Y0003263425D01*
X0000768503Y0003263425D02*
X0000671929Y0003263425D01*
X0000941456Y0003265000D02*
X0000845669Y0003265000D01*
X0000768503Y0003265000D02*
X0000672716Y0003265000D01*
X0000940708Y0003266574D02*
X0000845669Y0003266574D01*
X0000768503Y0003266574D02*
X0000673464Y0003266574D01*
X0000939881Y0003268149D02*
X0000845669Y0003268149D01*
X0000768503Y0003268149D02*
X0000674291Y0003268149D01*
X0000939055Y0003269724D02*
X0000845669Y0003269724D01*
X0000768503Y0003269724D02*
X0000675118Y0003269724D01*
X0000938228Y0003271299D02*
X0000845669Y0003271299D01*
X0000768503Y0003271299D02*
X0000675944Y0003271299D01*
X0000937362Y0003272874D02*
X0000845669Y0003272874D01*
X0000768503Y0003272874D02*
X0000676811Y0003272874D01*
X0000936456Y0003274448D02*
X0000845669Y0003274448D01*
X0000768503Y0003274448D02*
X0000677716Y0003274448D01*
X0000935551Y0003276023D02*
X0000845669Y0003276023D01*
X0000768503Y0003276023D02*
X0000678622Y0003276023D01*
X0000934606Y0003277598D02*
X0000845669Y0003277598D01*
X0000768503Y0003277598D02*
X0000679566Y0003277598D01*
X0000933622Y0003279173D02*
X0000845669Y0003279173D01*
X0000768503Y0003279173D02*
X0000680551Y0003279173D01*
X0000932598Y0003280748D02*
X0000845669Y0003280748D01*
X0000768503Y0003280748D02*
X0000681574Y0003280748D01*
X0000931574Y0003282322D02*
X0000845669Y0003282322D01*
X0000768503Y0003282322D02*
X0000682598Y0003282322D01*
X0000930511Y0003283897D02*
X0000845669Y0003283897D01*
X0000768503Y0003283897D02*
X0000683661Y0003283897D01*
X0000929448Y0003285472D02*
X0000845669Y0003285472D01*
X0000768503Y0003285472D02*
X0000684724Y0003285472D01*
X0000928307Y0003287047D02*
X0000685866Y0003287047D01*
X0000927165Y0003288622D02*
X0000687007Y0003288622D01*
X0000925984Y0003290196D02*
X0000688188Y0003290196D01*
X0000924803Y0003291771D02*
X0000689370Y0003291771D01*
X0000923543Y0003293346D02*
X0000690629Y0003293346D01*
X0000922283Y0003294921D02*
X0000691889Y0003294921D01*
X0000920944Y0003296496D02*
X0000693228Y0003296496D01*
X0000919606Y0003298070D02*
X0000694566Y0003298070D01*
X0000918228Y0003299645D02*
X0000695944Y0003299645D01*
X0000916771Y0003301220D02*
X0000697401Y0003301220D01*
X0000915314Y0003302795D02*
X0000698858Y0003302795D01*
X0000913818Y0003304370D02*
X0000700354Y0003304370D01*
X0000912244Y0003305944D02*
X0000701929Y0003305944D01*
X0000910629Y0003307519D02*
X0000703543Y0003307519D01*
X0000908976Y0003309094D02*
X0000705196Y0003309094D01*
X0000907283Y0003310669D02*
X0000706889Y0003310669D01*
X0000905511Y0003312244D02*
X0000708661Y0003312244D01*
X0000903700Y0003313818D02*
X0000710472Y0003313818D01*
X0000901850Y0003315393D02*
X0000712322Y0003315393D01*
X0000899881Y0003316968D02*
X0000714291Y0003316968D01*
X0000897913Y0003318543D02*
X0000716259Y0003318543D01*
X0000895826Y0003320118D02*
X0000718346Y0003320118D01*
X0000893661Y0003321692D02*
X0000720511Y0003321692D01*
X0000891417Y0003323267D02*
X0000722755Y0003323267D01*
X0000889094Y0003324842D02*
X0000725078Y0003324842D01*
X0000886692Y0003326417D02*
X0000727480Y0003326417D01*
X0000884133Y0003327992D02*
X0000730039Y0003327992D01*
X0000881496Y0003329566D02*
X0000732677Y0003329566D01*
X0000878740Y0003331141D02*
X0000735433Y0003331141D01*
X0000875787Y0003332716D02*
X0000738385Y0003332716D01*
X0000872716Y0003334291D02*
X0000741456Y0003334291D01*
X0000869448Y0003335866D02*
X0000744724Y0003335866D01*
X0000865944Y0003337440D02*
X0000748228Y0003337440D01*
X0000862204Y0003339015D02*
X0000751968Y0003339015D01*
X0000858149Y0003340590D02*
X0000756023Y0003340590D01*
X0000853700Y0003342165D02*
X0000760472Y0003342165D01*
X0000848700Y0003343740D02*
X0000765472Y0003343740D01*
X0000843031Y0003345314D02*
X0000771141Y0003345314D01*
X0000836220Y0003346889D02*
X0000777952Y0003346889D01*
X0000827283Y0003348464D02*
X0000786889Y0003348464D01*
X0000807086Y0003062992D02*
X0000807086Y0003110236D01*
X0000832677Y0003086614D02*
X0000781496Y0003086614D01*
X0003552362Y0002974803D02*
X0003552362Y0002891338D01*
X0003552362Y0002891338D02*
X0003390157Y0002891338D01*
X0003390157Y0002891338D02*
X0003390157Y0002974803D01*
X0003390157Y0002974803D02*
X0003552362Y0002974803D01*
X0003632677Y0002933070D02*
X0003552362Y0002933070D01*
X0003309842Y0002933070D02*
X0003390157Y0002933070D01*
X0003526377Y0002974803D02*
X0003526377Y0002891338D01*
X0000583858Y0002897244D02*
X0000479133Y0002897244D01*
X0000583858Y0003099606D02*
X0000583858Y0002897244D01*
X0000479133Y0003099606D02*
X0000479133Y0002897244D01*
X0000583858Y0003099606D02*
X0000479133Y0003099606D01*
X0000583858Y0003149606D02*
X0000583858Y0003201968D01*
X0000583858Y0003201968D02*
X0000531496Y0003201968D01*
X0002538188Y0003104330D02*
X0002679921Y0003104330D01*
X0002536674Y0003103877D02*
G75*
G03X0002609055Y0002929133I0000072381J-0000072381D01*
G01*
X0002681436Y0003103877D02*
G75*
G02X0002609055Y0002929133I-0000072381J-0000072381D01*
G01*
X0003220866Y0002398031D02*
X0003117716Y0002398031D01*
X0003117716Y0002398031D02*
X0003117716Y0002650787D01*
X0003117716Y0002650787D02*
X0003220866Y0002650787D01*
X0003220866Y0002650787D02*
X0003220866Y0002398031D01*
X0003169291Y0002262992D02*
X0003169291Y0002398031D01*
X0003169291Y0002785826D02*
X0003169291Y0002650787D01*
X0000521653Y0002532283D02*
X0000561023Y0002532283D01*
X0000561023Y0002585826D02*
X0000521653Y0002585826D01*
X0000521653Y0002433858D02*
X0000561023Y0002433858D01*
X0000561023Y0002487401D02*
X0000521653Y0002487401D01*
X0001092519Y0002487401D02*
X0001053149Y0002487401D01*
X0001053149Y0002433858D02*
X0001092519Y0002433858D01*
X0001092519Y0002585826D02*
X0001053149Y0002585826D01*
X0001053149Y0002532283D02*
X0001092519Y0002532283D01*
X0003087192Y0003011641D02*
G75*
G03X0003088779Y0003102559I0000001586J0000045444D01*
G01*
X0003089571Y0003102521D02*
G75*
G03X0003044330Y0003047637I-0000000792J-0000045435D01*
G01*
X0002761220Y0002914566D02*
X0003141141Y0002914566D01*
X0002761220Y0003109488D02*
X0003141141Y0003109488D01*
X0002761220Y0002914566D02*
X0002761220Y0003109488D01*
X0003141141Y0002914566D02*
X0003141141Y0003109488D01*
X0003123267Y0003028188D02*
X0003059842Y0003091574D01*
X0003117755Y0003022637D02*
X0003054291Y0003086023D01*
X0003028137Y0002224240D02*
G75*
G03X0003029724Y0002315157I0000001586J0000045444D01*
G01*
X0003030516Y0002315120D02*
G75*
G03X0002985275Y0002260236I-0000000792J-0000045435D01*
G01*
X0002702165Y0002127165D02*
X0003082086Y0002127165D01*
X0002702165Y0002322086D02*
X0003082086Y0002322086D01*
X0002702165Y0002127165D02*
X0002702165Y0002322086D01*
X0003082086Y0002127165D02*
X0003082086Y0002322086D01*
X0003064212Y0002240787D02*
X0003000787Y0002304173D01*
X0003058700Y0002235236D02*
X0002995236Y0002298622D01*
D12*
X0002813385Y0003357086D02*
X0002813385Y0003257086D01*
X0003113385Y0003357086D02*
X0002813385Y0003357086D01*
X0003113385Y0003257086D02*
X0003113385Y0003357086D01*
X0002813385Y0003257086D02*
X0003113385Y0003257086D01*
X0002703385Y0003367086D02*
X0002763385Y0003367086D01*
X0002703385Y0003247086D02*
X0002703385Y0003367086D01*
X0002763385Y0003247086D02*
X0002703385Y0003247086D01*
D11*
X0001105905Y0003054724D02*
X0001105905Y0003104330D01*
X0001105905Y0003323228D02*
X0001105905Y0003273622D01*
X0001253937Y0003054724D02*
X0001105905Y0003054724D01*
X0001342519Y0003323228D02*
X0001105905Y0003323228D01*
D12*
X0001057086Y0002807480D02*
X0001057086Y0002257480D01*
X0001057086Y0002257480D02*
X0000557086Y0002257480D01*
X0000557086Y0002257480D02*
X0000557086Y0002807480D01*
X0000557086Y0002807480D02*
X0001057086Y0002807480D01*
X0001157086Y0002857480D02*
X0000457086Y0002857480D01*
X0000457086Y0002857480D02*
X0000457086Y0001957480D01*
X0000457086Y0001957480D02*
X0001157086Y0001957480D01*
X0001157086Y0001957480D02*
X0001157086Y0002857480D01*
X0001389133Y0003177795D02*
X0001389133Y0002097795D01*
X0002469133Y0003177795D02*
X0002469133Y0002097795D01*
X0002469133Y0002097795D02*
X0001389133Y0002097795D01*
X0002469133Y0003177795D02*
X0001389133Y0003177795D01*
X0002470472Y0002981102D02*
X0002470472Y0002294488D01*
X0001387795Y0002294488D02*
X0001387795Y0002981102D01*
D11*
X0001007086Y0003008267D02*
X0001007086Y0002897244D01*
X0001007086Y0002897244D02*
X0000797637Y0002897244D01*
X0000797637Y0002897244D02*
X0000797637Y0003008267D01*
X0000797637Y0003008267D02*
X0001007086Y0003008267D01*
X0001051968Y0002952755D02*
X0001007086Y0002952755D01*
X0000752755Y0002952755D02*
X0000797637Y0002952755D01*
X0000974015Y0003008267D02*
X0000974015Y0002897244D01*
D12*
X0003619235Y0002633108D02*
X0003621109Y0002627484D01*
X0003622984Y0002625609D01*
X0003626734Y0002623734D01*
X0003632358Y0002623734D01*
X0003636107Y0002625609D01*
X0003637982Y0002627484D01*
X0003639857Y0002631233D01*
X0003639857Y0002646231D01*
X0003600487Y0002646231D01*
X0003600487Y0002633108D01*
X0003602362Y0002629358D01*
X0003604236Y0002627484D01*
X0003607986Y0002625609D01*
X0003611736Y0002625609D01*
X0003615485Y0002627484D01*
X0003617360Y0002629358D01*
X0003619235Y0002633108D01*
X0003619235Y0002646231D01*
X0003600487Y0002610611D02*
X0003600487Y0002584364D01*
X0003639857Y0002610611D01*
X0003639857Y0002584364D01*
X0003639857Y0002548743D02*
X0003639857Y0002571241D01*
X0003639857Y0002559992D02*
X0003600487Y0002559992D01*
X0003606111Y0002563742D01*
X0003609861Y0002567491D01*
X0003611736Y0002571241D01*
X0003524859Y0002761454D02*
X0003524859Y0002731458D01*
X0003539857Y0002746456D02*
X0003509861Y0002746456D01*
X0002919947Y0003125703D02*
X0002921822Y0003123828D01*
X0002927446Y0003121953D01*
X0002931196Y0003121953D01*
X0002936820Y0003123828D01*
X0002940569Y0003127577D01*
X0002942444Y0003131327D01*
X0002944319Y0003138826D01*
X0002944319Y0003144450D01*
X0002942444Y0003151949D01*
X0002940569Y0003155699D01*
X0002936820Y0003159448D01*
X0002931196Y0003161323D01*
X0002927446Y0003161323D01*
X0002921822Y0003159448D01*
X0002919947Y0003157574D01*
X0002904949Y0003157574D02*
X0002903074Y0003159448D01*
X0002899325Y0003161323D01*
X0002889951Y0003161323D01*
X0002886201Y0003159448D01*
X0002884326Y0003157574D01*
X0002882452Y0003153824D01*
X0002882452Y0003150075D01*
X0002884326Y0003144450D01*
X0002906824Y0003121953D01*
X0002882452Y0003121953D01*
X0001108923Y0002771372D02*
X0001110798Y0002769497D01*
X0001116422Y0002767622D01*
X0001120172Y0002767622D01*
X0001125796Y0002769497D01*
X0001129546Y0002773247D01*
X0001131421Y0002776996D01*
X0001133295Y0002784495D01*
X0001133295Y0002790119D01*
X0001131421Y0002797619D01*
X0001129546Y0002801368D01*
X0001125796Y0002805118D01*
X0001120172Y0002806992D01*
X0001116422Y0002806992D01*
X0001110798Y0002805118D01*
X0001108923Y0002803243D01*
X0001095800Y0002806992D02*
X0001071428Y0002806992D01*
X0001084551Y0002791994D01*
X0001078927Y0002791994D01*
X0001075178Y0002790119D01*
X0001073303Y0002788245D01*
X0001071428Y0002784495D01*
X0001071428Y0002775121D01*
X0001073303Y0002771372D01*
X0001075178Y0002769497D01*
X0001078927Y0002767622D01*
X0001090176Y0002767622D01*
X0001093925Y0002769497D01*
X0001095800Y0002771372D01*
X0000616797Y0003293025D02*
X0000618672Y0003291151D01*
X0000624296Y0003289276D01*
X0000628046Y0003289276D01*
X0000633670Y0003291151D01*
X0000637420Y0003294900D01*
X0000639295Y0003298650D01*
X0000641169Y0003306149D01*
X0000641169Y0003311773D01*
X0000639295Y0003319272D01*
X0000637420Y0003323022D01*
X0000633670Y0003326771D01*
X0000628046Y0003328646D01*
X0000624296Y0003328646D01*
X0000618672Y0003326771D01*
X0000616797Y0003324896D01*
X0000583052Y0003315523D02*
X0000583052Y0003289276D01*
X0000592425Y0003330521D02*
X0000601799Y0003302399D01*
X0000577427Y0003302399D01*
X0003500318Y0002996362D02*
X0003500318Y0003035733D01*
X0003490944Y0003035733D01*
X0003485320Y0003033858D01*
X0003481571Y0003030108D01*
X0003479696Y0003026359D01*
X0003477821Y0003018860D01*
X0003477821Y0003013235D01*
X0003479696Y0003005736D01*
X0003481571Y0003001987D01*
X0003485320Y0002998237D01*
X0003490944Y0002996362D01*
X0003500318Y0002996362D01*
X0003440326Y0002996362D02*
X0003462823Y0002996362D01*
X0003451574Y0002996362D02*
X0003451574Y0003035733D01*
X0003455324Y0003030108D01*
X0003459073Y0003026359D01*
X0003462823Y0003024484D01*
X0000564304Y0003262898D02*
X0000564304Y0003234776D01*
X0000566179Y0003229152D01*
X0000569928Y0003225403D01*
X0000575553Y0003223528D01*
X0000579302Y0003223528D01*
X0000545556Y0003223528D02*
X0000545556Y0003262898D01*
X0000530558Y0003262898D01*
X0000526809Y0003261023D01*
X0000524934Y0003259148D01*
X0000523059Y0003255399D01*
X0000523059Y0003249775D01*
X0000524934Y0003246025D01*
X0000526809Y0003244150D01*
X0000530558Y0003242275D01*
X0000545556Y0003242275D01*
X0000485564Y0003223528D02*
X0000508061Y0003223528D01*
X0000496812Y0003223528D02*
X0000496812Y0003262898D01*
X0000500562Y0003257274D01*
X0000504311Y0003253524D01*
X0000508061Y0003251649D01*
X0002612017Y0003118203D02*
X0002615766Y0003120078D01*
X0002619516Y0003123828D01*
X0002625140Y0003129452D01*
X0002628890Y0003131327D01*
X0002632639Y0003131327D01*
X0002630764Y0003121953D02*
X0002634514Y0003123828D01*
X0002638263Y0003127577D01*
X0002640138Y0003135076D01*
X0002640138Y0003148200D01*
X0002638263Y0003155699D01*
X0002634514Y0003159448D01*
X0002630764Y0003161323D01*
X0002623265Y0003161323D01*
X0002619516Y0003159448D01*
X0002615766Y0003155699D01*
X0002613892Y0003148200D01*
X0002613892Y0003135076D01*
X0002615766Y0003127577D01*
X0002619516Y0003123828D01*
X0002623265Y0003121953D01*
X0002630764Y0003121953D01*
X0002576396Y0003121953D02*
X0002598893Y0003121953D01*
X0002587645Y0003121953D02*
X0002587645Y0003161323D01*
X0002591394Y0003155699D01*
X0002595144Y0003151949D01*
X0002598893Y0003150075D01*
X0003196944Y0002526246D02*
X0003178196Y0002539370D01*
X0003196944Y0002548743D02*
X0003157574Y0002548743D01*
X0003157574Y0002533745D01*
X0003159448Y0002529996D01*
X0003161323Y0002528121D01*
X0003165073Y0002526246D01*
X0003170697Y0002526246D01*
X0003174446Y0002528121D01*
X0003176321Y0002529996D01*
X0003178196Y0002533745D01*
X0003178196Y0002548743D01*
X0003157574Y0002513123D02*
X0003157574Y0002488751D01*
X0003172572Y0002501874D01*
X0003172572Y0002496250D01*
X0003174446Y0002492500D01*
X0003176321Y0002490626D01*
X0003180071Y0002488751D01*
X0003189445Y0002488751D01*
X0003193194Y0002490626D01*
X0003195069Y0002492500D01*
X0003196944Y0002496250D01*
X0003196944Y0002507499D01*
X0003195069Y0002511248D01*
X0003193194Y0002513123D01*
X0000547900Y0002600299D02*
X0000561023Y0002619047D01*
X0000570397Y0002600299D02*
X0000570397Y0002639670D01*
X0000555399Y0002639670D01*
X0000551649Y0002637795D01*
X0000549775Y0002635920D01*
X0000547900Y0002632170D01*
X0000547900Y0002626546D01*
X0000549775Y0002622797D01*
X0000551649Y0002620922D01*
X0000555399Y0002619047D01*
X0000570397Y0002619047D01*
X0000514154Y0002626546D02*
X0000514154Y0002600299D01*
X0000523528Y0002641544D02*
X0000532902Y0002613423D01*
X0000508530Y0002613423D01*
X0000547900Y0002383764D02*
X0000561023Y0002402512D01*
X0000570397Y0002383764D02*
X0000570397Y0002423134D01*
X0000555399Y0002423134D01*
X0000551649Y0002421259D01*
X0000549775Y0002419385D01*
X0000547900Y0002415635D01*
X0000547900Y0002410011D01*
X0000549775Y0002406261D01*
X0000551649Y0002404386D01*
X0000555399Y0002402512D01*
X0000570397Y0002402512D01*
X0000512279Y0002423134D02*
X0000531027Y0002423134D01*
X0000532902Y0002404386D01*
X0000531027Y0002406261D01*
X0000527277Y0002408136D01*
X0000517903Y0002408136D01*
X0000514154Y0002406261D01*
X0000512279Y0002404386D01*
X0000510404Y0002400637D01*
X0000510404Y0002391263D01*
X0000512279Y0002387514D01*
X0000514154Y0002385639D01*
X0000517903Y0002383764D01*
X0000527277Y0002383764D01*
X0000531027Y0002385639D01*
X0000532902Y0002387514D01*
X0001079396Y0002383764D02*
X0001092519Y0002402512D01*
X0001101893Y0002383764D02*
X0001101893Y0002423134D01*
X0001086895Y0002423134D01*
X0001083145Y0002421259D01*
X0001081271Y0002419385D01*
X0001079396Y0002415635D01*
X0001079396Y0002410011D01*
X0001081271Y0002406261D01*
X0001083145Y0002404386D01*
X0001086895Y0002402512D01*
X0001101893Y0002402512D01*
X0001045650Y0002423134D02*
X0001053149Y0002423134D01*
X0001056899Y0002421259D01*
X0001058773Y0002419385D01*
X0001062523Y0002413760D01*
X0001064398Y0002406261D01*
X0001064398Y0002391263D01*
X0001062523Y0002387514D01*
X0001060648Y0002385639D01*
X0001056899Y0002383764D01*
X0001049400Y0002383764D01*
X0001045650Y0002385639D01*
X0001043775Y0002387514D01*
X0001041900Y0002391263D01*
X0001041900Y0002400637D01*
X0001043775Y0002404386D01*
X0001045650Y0002406261D01*
X0001049400Y0002408136D01*
X0001056899Y0002408136D01*
X0001060648Y0002406261D01*
X0001062523Y0002404386D01*
X0001064398Y0002400637D01*
X0001079396Y0002600299D02*
X0001092519Y0002619047D01*
X0001101893Y0002600299D02*
X0001101893Y0002639670D01*
X0001086895Y0002639670D01*
X0001083145Y0002637795D01*
X0001081271Y0002635920D01*
X0001079396Y0002632170D01*
X0001079396Y0002626546D01*
X0001081271Y0002622797D01*
X0001083145Y0002620922D01*
X0001086895Y0002619047D01*
X0001101893Y0002619047D01*
X0001066272Y0002639670D02*
X0001040026Y0002639670D01*
X0001056899Y0002600299D01*
X0002974615Y0002849906D02*
X0002987739Y0002868653D01*
X0002997112Y0002849906D02*
X0002997112Y0002889276D01*
X0002982114Y0002889276D01*
X0002978365Y0002887401D01*
X0002976490Y0002885526D01*
X0002974615Y0002881777D01*
X0002974615Y0002876152D01*
X0002976490Y0002872403D01*
X0002978365Y0002870528D01*
X0002982114Y0002868653D01*
X0002997112Y0002868653D01*
X0002963367Y0002889276D02*
X0002950243Y0002849906D01*
X0002937120Y0002889276D01*
X0002903374Y0002849906D02*
X0002925871Y0002849906D01*
X0002914623Y0002849906D02*
X0002914623Y0002889276D01*
X0002918372Y0002883652D01*
X0002922122Y0002879902D01*
X0002925871Y0002878027D01*
X0002915560Y0002062504D02*
X0002928683Y0002081252D01*
X0002938057Y0002062504D02*
X0002938057Y0002101874D01*
X0002923059Y0002101874D01*
X0002919310Y0002100000D01*
X0002917435Y0002098125D01*
X0002915560Y0002094375D01*
X0002915560Y0002088751D01*
X0002917435Y0002085001D01*
X0002919310Y0002083127D01*
X0002923059Y0002081252D01*
X0002938057Y0002081252D01*
X0002904311Y0002101874D02*
X0002891188Y0002062504D01*
X0002878065Y0002101874D01*
X0002866816Y0002098125D02*
X0002864941Y0002100000D01*
X0002861192Y0002101874D01*
X0002851818Y0002101874D01*
X0002848068Y0002100000D01*
X0002846194Y0002098125D01*
X0002844319Y0002094375D01*
X0002844319Y0002090626D01*
X0002846194Y0002085001D01*
X0002868691Y0002062504D01*
X0002844319Y0002062504D01*
X0003239595Y0003328646D02*
X0003217097Y0003328646D01*
X0003228346Y0003289276D02*
X0003228346Y0003328646D01*
X0003203974Y0003289276D02*
X0003203974Y0003328646D01*
X0003203974Y0003309898D02*
X0003181477Y0003309898D01*
X0003181477Y0003289276D02*
X0003181477Y0003328646D01*
X0003142107Y0003289276D02*
X0003164604Y0003289276D01*
X0003153355Y0003289276D02*
X0003153355Y0003328646D01*
X0003157105Y0003323022D01*
X0003160854Y0003319272D01*
X0003164604Y0003317397D01*
X0001211098Y0003387701D02*
X0001211098Y0003355830D01*
X0001209223Y0003352080D01*
X0001207349Y0003350206D01*
X0001203599Y0003348331D01*
X0001196100Y0003348331D01*
X0001192350Y0003350206D01*
X0001190476Y0003352080D01*
X0001188601Y0003355830D01*
X0001188601Y0003387701D01*
X0001171728Y0003383952D02*
X0001169853Y0003385826D01*
X0001166104Y0003387701D01*
X0001156730Y0003387701D01*
X0001152980Y0003385826D01*
X0001151106Y0003383952D01*
X0001149231Y0003380202D01*
X0001149231Y0003376452D01*
X0001151106Y0003370828D01*
X0001173603Y0003348331D01*
X0001149231Y0003348331D01*
X0001965129Y0003054218D02*
X0001965129Y0003015972D01*
X0001962879Y0003011473D01*
X0001960629Y0003009223D01*
X0001956130Y0003006974D01*
X0001947131Y0003006974D01*
X0001942632Y0003009223D01*
X0001940382Y0003011473D01*
X0001938132Y0003015972D01*
X0001938132Y0003054218D01*
X0001913385Y0003006974D02*
X0001904386Y0003006974D01*
X0001899887Y0003009223D01*
X0001897637Y0003011473D01*
X0001893138Y0003018222D01*
X0001890888Y0003027221D01*
X0001890888Y0003045219D01*
X0001893138Y0003049718D01*
X0001895388Y0003051968D01*
X0001899887Y0003054218D01*
X0001908886Y0003054218D01*
X0001913385Y0003051968D01*
X0001915635Y0003049718D01*
X0001917885Y0003045219D01*
X0001917885Y0003033970D01*
X0001915635Y0003029471D01*
X0001913385Y0003027221D01*
X0001908886Y0003024971D01*
X0001899887Y0003024971D01*
X0001895388Y0003027221D01*
X0001893138Y0003029471D01*
X0001890888Y0003033970D01*
X0000983783Y0003023528D02*
X0000983783Y0003062898D01*
X0000974409Y0003062898D01*
X0000968785Y0003061023D01*
X0000965035Y0003057274D01*
X0000963160Y0003053524D01*
X0000961286Y0003046025D01*
X0000961286Y0003040401D01*
X0000963160Y0003032902D01*
X0000965035Y0003029152D01*
X0000968785Y0003025403D01*
X0000974409Y0003023528D01*
X0000983783Y0003023528D01*
X0000946287Y0003059148D02*
X0000944413Y0003061023D01*
X0000940663Y0003062898D01*
X0000931289Y0003062898D01*
X0000927540Y0003061023D01*
X0000925665Y0003059148D01*
X0000923790Y0003055399D01*
X0000923790Y0003051649D01*
X0000925665Y0003046025D01*
X0000948162Y0003023528D01*
X0000923790Y0003023528D01*
G04 next file*
%LPD*%
G04 #@! TF.FileFunction,Legend,Bot*
G04 Gerber Fmt 4.6, Leading zero omitted, Abs format (unit mm)*
G04 Created by KiCad (PCBNEW 4.0.7) date 08/13/18 20:02:33*
G01*
G04 APERTURE LIST*
G04 APERTURE END LIST*
D23*
D24*
X0003901574Y0000864173D02*
G75*
G03X0003901574Y0000864173I-0000240157D01*
G01*
X0002938976Y0001433070D02*
X0002966535Y0001433070D01*
X0002966535Y0001480314D02*
X0002938976Y0001480314D01*
X0001127952Y0001078740D02*
X0001155511Y0001078740D01*
X0001155511Y0001125984D02*
X0001127952Y0001125984D01*
X0000997637Y0001466535D02*
G75*
G03X0000997637Y0001466535I-0000151181D01*
G01*
X0000996062Y0001466535D02*
X0000696850Y0001466535D01*
X0000996062Y0001468110D02*
X0000696850Y0001468110D01*
X0000996062Y0001469685D02*
X0000696850Y0001469685D01*
X0000996023Y0001471259D02*
X0000696889Y0001471259D01*
X0000995944Y0001472834D02*
X0000696968Y0001472834D01*
X0000995866Y0001474409D02*
X0000697047Y0001474409D01*
X0000995787Y0001475984D02*
X0000697125Y0001475984D01*
X0000995669Y0001477559D02*
X0000885039Y0001477559D01*
X0000807874Y0001477559D02*
X0000697244Y0001477559D01*
X0000995551Y0001479133D02*
X0000885039Y0001479133D01*
X0000807874Y0001479133D02*
X0000697362Y0001479133D01*
X0000995433Y0001480708D02*
X0000885039Y0001480708D01*
X0000807874Y0001480708D02*
X0000697480Y0001480708D01*
X0000995275Y0001482283D02*
X0000885039Y0001482283D01*
X0000807874Y0001482283D02*
X0000697637Y0001482283D01*
X0000995078Y0001483858D02*
X0000885039Y0001483858D01*
X0000807874Y0001483858D02*
X0000697834Y0001483858D01*
X0000994881Y0001485433D02*
X0000885039Y0001485433D01*
X0000807874Y0001485433D02*
X0000698031Y0001485433D01*
X0000994685Y0001487007D02*
X0000885039Y0001487007D01*
X0000807874Y0001487007D02*
X0000698228Y0001487007D01*
X0000994448Y0001488582D02*
X0000885039Y0001488582D01*
X0000807874Y0001488582D02*
X0000698464Y0001488582D01*
X0000994212Y0001490157D02*
X0000885039Y0001490157D01*
X0000807874Y0001490157D02*
X0000698700Y0001490157D01*
X0000993976Y0001491732D02*
X0000885039Y0001491732D01*
X0000807874Y0001491732D02*
X0000698937Y0001491732D01*
X0000993700Y0001493307D02*
X0000885039Y0001493307D01*
X0000807874Y0001493307D02*
X0000699212Y0001493307D01*
X0000993385Y0001494921D02*
X0000885039Y0001494921D01*
X0000807874Y0001494921D02*
X0000699527Y0001494921D01*
X0000993110Y0001496496D02*
X0000885039Y0001496496D01*
X0000807874Y0001496496D02*
X0000699803Y0001496496D01*
X0000992755Y0001498070D02*
X0000885039Y0001498070D01*
X0000807874Y0001498070D02*
X0000700157Y0001498070D01*
X0000992401Y0001499645D02*
X0000885039Y0001499645D01*
X0000807874Y0001499645D02*
X0000700511Y0001499645D01*
X0000992047Y0001501220D02*
X0000885039Y0001501220D01*
X0000807874Y0001501220D02*
X0000700866Y0001501220D01*
X0000991692Y0001502795D02*
X0000885039Y0001502795D01*
X0000807874Y0001502795D02*
X0000701220Y0001502795D01*
X0000991299Y0001504370D02*
X0000885039Y0001504370D01*
X0000807874Y0001504370D02*
X0000701614Y0001504370D01*
X0000990866Y0001505944D02*
X0000885039Y0001505944D01*
X0000807874Y0001505944D02*
X0000702047Y0001505944D01*
X0000990433Y0001507519D02*
X0000885039Y0001507519D01*
X0000807874Y0001507519D02*
X0000702480Y0001507519D01*
X0000989960Y0001509094D02*
X0000885039Y0001509094D01*
X0000807874Y0001509094D02*
X0000702952Y0001509094D01*
X0000989527Y0001510669D02*
X0000885039Y0001510669D01*
X0000807874Y0001510669D02*
X0000703385Y0001510669D01*
X0000989015Y0001512244D02*
X0000885039Y0001512244D01*
X0000807874Y0001512244D02*
X0000703897Y0001512244D01*
X0000988503Y0001513818D02*
X0000885039Y0001513818D01*
X0000807874Y0001513818D02*
X0000704409Y0001513818D01*
X0000987992Y0001515393D02*
X0000885039Y0001515393D01*
X0000807874Y0001515393D02*
X0000704921Y0001515393D01*
X0000987440Y0001516968D02*
X0000885039Y0001516968D01*
X0000807874Y0001516968D02*
X0000705472Y0001516968D01*
X0000986850Y0001518543D02*
X0000885039Y0001518543D01*
X0000807874Y0001518543D02*
X0000706062Y0001518543D01*
X0000986299Y0001520118D02*
X0000885039Y0001520118D01*
X0000807874Y0001520118D02*
X0000706614Y0001520118D01*
X0000985669Y0001521692D02*
X0000885039Y0001521692D01*
X0000807874Y0001521692D02*
X0000707244Y0001521692D01*
X0000985039Y0001523267D02*
X0000885039Y0001523267D01*
X0000807874Y0001523267D02*
X0000707874Y0001523267D01*
X0000984409Y0001524842D02*
X0000885039Y0001524842D01*
X0000807874Y0001524842D02*
X0000708503Y0001524842D01*
X0000983740Y0001526417D02*
X0000885039Y0001526417D01*
X0000807874Y0001526417D02*
X0000709173Y0001526417D01*
X0000983031Y0001527992D02*
X0000885039Y0001527992D01*
X0000807874Y0001527992D02*
X0000709881Y0001527992D01*
X0000982322Y0001529566D02*
X0000885039Y0001529566D01*
X0000807874Y0001529566D02*
X0000710590Y0001529566D01*
X0000981614Y0001531141D02*
X0000885039Y0001531141D01*
X0000807874Y0001531141D02*
X0000711299Y0001531141D01*
X0000980826Y0001532716D02*
X0000885039Y0001532716D01*
X0000807874Y0001532716D02*
X0000712086Y0001532716D01*
X0000980078Y0001534291D02*
X0000885039Y0001534291D01*
X0000807874Y0001534291D02*
X0000712834Y0001534291D01*
X0000979251Y0001535866D02*
X0000885039Y0001535866D01*
X0000807874Y0001535866D02*
X0000713661Y0001535866D01*
X0000978425Y0001537440D02*
X0000885039Y0001537440D01*
X0000807874Y0001537440D02*
X0000714488Y0001537440D01*
X0000977598Y0001539015D02*
X0000885039Y0001539015D01*
X0000807874Y0001539015D02*
X0000715314Y0001539015D01*
X0000976732Y0001540590D02*
X0000885039Y0001540590D01*
X0000807874Y0001540590D02*
X0000716181Y0001540590D01*
X0000975826Y0001542165D02*
X0000885039Y0001542165D01*
X0000807874Y0001542165D02*
X0000717086Y0001542165D01*
X0000974921Y0001543740D02*
X0000885039Y0001543740D01*
X0000807874Y0001543740D02*
X0000717992Y0001543740D01*
X0000973976Y0001545314D02*
X0000885039Y0001545314D01*
X0000807874Y0001545314D02*
X0000718937Y0001545314D01*
X0000972992Y0001546889D02*
X0000885039Y0001546889D01*
X0000807874Y0001546889D02*
X0000719921Y0001546889D01*
X0000971968Y0001548464D02*
X0000885039Y0001548464D01*
X0000807874Y0001548464D02*
X0000720944Y0001548464D01*
X0000970944Y0001550039D02*
X0000885039Y0001550039D01*
X0000807874Y0001550039D02*
X0000721968Y0001550039D01*
X0000969881Y0001551614D02*
X0000885039Y0001551614D01*
X0000807874Y0001551614D02*
X0000723031Y0001551614D01*
X0000968818Y0001553188D02*
X0000885039Y0001553188D01*
X0000807874Y0001553188D02*
X0000724094Y0001553188D01*
X0000967677Y0001554763D02*
X0000725236Y0001554763D01*
X0000966535Y0001556338D02*
X0000726377Y0001556338D01*
X0000965354Y0001557913D02*
X0000727559Y0001557913D01*
X0000964173Y0001559488D02*
X0000728740Y0001559488D01*
X0000962913Y0001561062D02*
X0000730000Y0001561062D01*
X0000961653Y0001562637D02*
X0000731259Y0001562637D01*
X0000960314Y0001564212D02*
X0000732598Y0001564212D01*
X0000958976Y0001565787D02*
X0000733937Y0001565787D01*
X0000957598Y0001567362D02*
X0000735314Y0001567362D01*
X0000956141Y0001568937D02*
X0000736771Y0001568937D01*
X0000954685Y0001570511D02*
X0000738228Y0001570511D01*
X0000953188Y0001572086D02*
X0000739724Y0001572086D01*
X0000951614Y0001573661D02*
X0000741299Y0001573661D01*
X0000950000Y0001575236D02*
X0000742913Y0001575236D01*
X0000948346Y0001576811D02*
X0000744566Y0001576811D01*
X0000946653Y0001578385D02*
X0000746259Y0001578385D01*
X0000944881Y0001579960D02*
X0000748031Y0001579960D01*
X0000943070Y0001581535D02*
X0000749842Y0001581535D01*
X0000941220Y0001583110D02*
X0000751692Y0001583110D01*
X0000939251Y0001584685D02*
X0000753661Y0001584685D01*
X0000937283Y0001586259D02*
X0000755629Y0001586259D01*
X0000935196Y0001587834D02*
X0000757716Y0001587834D01*
X0000933031Y0001589409D02*
X0000759881Y0001589409D01*
X0000930787Y0001590984D02*
X0000762125Y0001590984D01*
X0000928464Y0001592559D02*
X0000764448Y0001592559D01*
X0000926062Y0001594133D02*
X0000766850Y0001594133D01*
X0000923503Y0001595708D02*
X0000769409Y0001595708D01*
X0000920866Y0001597283D02*
X0000772047Y0001597283D01*
X0000918110Y0001598858D02*
X0000774803Y0001598858D01*
X0000915157Y0001600433D02*
X0000777755Y0001600433D01*
X0000912086Y0001602007D02*
X0000780826Y0001602007D01*
X0000908818Y0001603582D02*
X0000784094Y0001603582D01*
X0000905314Y0001605157D02*
X0000787598Y0001605157D01*
X0000901574Y0001606732D02*
X0000791338Y0001606732D01*
X0000897519Y0001608307D02*
X0000795393Y0001608307D01*
X0000893070Y0001609881D02*
X0000799842Y0001609881D01*
X0000888070Y0001611456D02*
X0000804842Y0001611456D01*
X0000882401Y0001613031D02*
X0000810511Y0001613031D01*
X0000875590Y0001614606D02*
X0000817322Y0001614606D01*
X0000866653Y0001616181D02*
X0000826259Y0001616181D01*
X0000846456Y0001330708D02*
X0000846456Y0001377952D01*
X0000872047Y0001354330D02*
X0000820866Y0001354330D01*
X0003591732Y0001242519D02*
X0003591732Y0001159055D01*
X0003591732Y0001159055D02*
X0003429527Y0001159055D01*
X0003429527Y0001159055D02*
X0003429527Y0001242519D01*
X0003429527Y0001242519D02*
X0003591732Y0001242519D01*
X0003672047Y0001200787D02*
X0003591732Y0001200787D01*
X0003349212Y0001200787D02*
X0003429527Y0001200787D01*
X0003565748Y0001242519D02*
X0003565748Y0001159055D01*
X0000623228Y0001164960D02*
X0000518503Y0001164960D01*
X0000623228Y0001367322D02*
X0000623228Y0001164960D01*
X0000518503Y0001367322D02*
X0000518503Y0001164960D01*
X0000623228Y0001367322D02*
X0000518503Y0001367322D01*
X0000623228Y0001417322D02*
X0000623228Y0001469685D01*
X0000623228Y0001469685D02*
X0000570866Y0001469685D01*
X0002577559Y0001372047D02*
X0002719291Y0001372047D01*
X0002576044Y0001371593D02*
G75*
G03X0002648425Y0001196850I0000072381J-0000072381D01*
G01*
X0002720806Y0001371593D02*
G75*
G02X0002648425Y0001196850I-0000072381J-0000072381D01*
G01*
X0003260236Y0000665748D02*
X0003157086Y0000665748D01*
X0003157086Y0000665748D02*
X0003157086Y0000918503D01*
X0003157086Y0000918503D02*
X0003260236Y0000918503D01*
X0003260236Y0000918503D02*
X0003260236Y0000665748D01*
X0003208661Y0000530708D02*
X0003208661Y0000665748D01*
X0003208661Y0001053543D02*
X0003208661Y0000918503D01*
X0000561023Y0000800000D02*
X0000600393Y0000800000D01*
X0000600393Y0000853543D02*
X0000561023Y0000853543D01*
X0000561023Y0000701574D02*
X0000600393Y0000701574D01*
X0000600393Y0000755118D02*
X0000561023Y0000755118D01*
X0001131889Y0000755118D02*
X0001092519Y0000755118D01*
X0001092519Y0000701574D02*
X0001131889Y0000701574D01*
X0001131889Y0000853543D02*
X0001092519Y0000853543D01*
X0001092519Y0000800000D02*
X0001131889Y0000800000D01*
X0003126562Y0001279358D02*
G75*
G03X0003128149Y0001370275I0000001586J0000045444D01*
G01*
X0003128941Y0001370238D02*
G75*
G03X0003083700Y0001315354I-0000000792J-0000045435D01*
G01*
X0002800590Y0001182283D02*
X0003180511Y0001182283D01*
X0002800590Y0001377204D02*
X0003180511Y0001377204D01*
X0002800590Y0001182283D02*
X0002800590Y0001377204D01*
X0003180511Y0001182283D02*
X0003180511Y0001377204D01*
X0003162637Y0001295905D02*
X0003099212Y0001359291D01*
X0003157125Y0001290354D02*
X0003093661Y0001353740D01*
X0003067507Y0000491956D02*
G75*
G03X0003069094Y0000582874I0000001586J0000045444D01*
G01*
X0003069886Y0000582836D02*
G75*
G03X0003024645Y0000527952I-0000000792J-0000045435D01*
G01*
X0002741535Y0000394881D02*
X0003121456Y0000394881D01*
X0002741535Y0000589803D02*
X0003121456Y0000589803D01*
X0002741535Y0000394881D02*
X0002741535Y0000589803D01*
X0003121456Y0000394881D02*
X0003121456Y0000589803D01*
X0003103582Y0000508503D02*
X0003040157Y0000571889D01*
X0003098070Y0000502952D02*
X0003034606Y0000566338D01*
D25*
X0002852755Y0001624803D02*
X0002852755Y0001524803D01*
X0003152755Y0001624803D02*
X0002852755Y0001624803D01*
X0003152755Y0001524803D02*
X0003152755Y0001624803D01*
X0002852755Y0001524803D02*
X0003152755Y0001524803D01*
X0002742755Y0001634803D02*
X0002802755Y0001634803D01*
X0002742755Y0001514803D02*
X0002742755Y0001634803D01*
X0002802755Y0001514803D02*
X0002742755Y0001514803D01*
D24*
X0001145275Y0001322440D02*
X0001145275Y0001372047D01*
X0001145275Y0001590944D02*
X0001145275Y0001541338D01*
X0001293307Y0001322440D02*
X0001145275Y0001322440D01*
X0001381889Y0001590944D02*
X0001145275Y0001590944D01*
D25*
X0001096456Y0001075196D02*
X0001096456Y0000525196D01*
X0001096456Y0000525196D02*
X0000596456Y0000525196D01*
X0000596456Y0000525196D02*
X0000596456Y0001075196D01*
X0000596456Y0001075196D02*
X0001096456Y0001075196D01*
X0001196456Y0001125196D02*
X0000496456Y0001125196D01*
X0000496456Y0001125196D02*
X0000496456Y0000225196D01*
X0000496456Y0000225196D02*
X0001196456Y0000225196D01*
X0001196456Y0000225196D02*
X0001196456Y0001125196D01*
X0001428503Y0001445511D02*
X0001428503Y0000365511D01*
X0002508503Y0001445511D02*
X0002508503Y0000365511D01*
X0002508503Y0000365511D02*
X0001428503Y0000365511D01*
X0002508503Y0001445511D02*
X0001428503Y0001445511D01*
X0002509842Y0001248818D02*
X0002509842Y0000562204D01*
X0001427165Y0000562204D02*
X0001427165Y0001248818D01*
D24*
X0001046456Y0001275984D02*
X0001046456Y0001164960D01*
X0001046456Y0001164960D02*
X0000837007Y0001164960D01*
X0000837007Y0001164960D02*
X0000837007Y0001275984D01*
X0000837007Y0001275984D02*
X0001046456Y0001275984D01*
X0001091338Y0001220472D02*
X0001046456Y0001220472D01*
X0000792125Y0001220472D02*
X0000837007Y0001220472D01*
X0001013385Y0001275984D02*
X0001013385Y0001164960D01*
D25*
X0003658605Y0000900824D02*
X0003660479Y0000895200D01*
X0003662354Y0000893325D01*
X0003666104Y0000891451D01*
X0003671728Y0000891451D01*
X0003675478Y0000893325D01*
X0003677352Y0000895200D01*
X0003679227Y0000898950D01*
X0003679227Y0000913948D01*
X0003639857Y0000913948D01*
X0003639857Y0000900824D01*
X0003641732Y0000897075D01*
X0003643607Y0000895200D01*
X0003647356Y0000893325D01*
X0003651106Y0000893325D01*
X0003654855Y0000895200D01*
X0003656730Y0000897075D01*
X0003658605Y0000900824D01*
X0003658605Y0000913948D01*
X0003639857Y0000878327D02*
X0003639857Y0000852080D01*
X0003679227Y0000878327D01*
X0003679227Y0000852080D01*
X0003679227Y0000816460D02*
X0003679227Y0000838957D01*
X0003679227Y0000827709D02*
X0003639857Y0000827709D01*
X0003645481Y0000831458D01*
X0003649231Y0000835208D01*
X0003651106Y0000838957D01*
X0003564229Y0001029171D02*
X0003564229Y0000999175D01*
X0003579227Y0001014173D02*
X0003549231Y0001014173D01*
X0002959317Y0001393419D02*
X0002961192Y0001391544D01*
X0002966816Y0001389670D01*
X0002970566Y0001389670D01*
X0002976190Y0001391544D01*
X0002979940Y0001395294D01*
X0002981814Y0001399043D01*
X0002983689Y0001406542D01*
X0002983689Y0001412167D01*
X0002981814Y0001419666D01*
X0002979940Y0001423415D01*
X0002976190Y0001427165D01*
X0002970566Y0001429040D01*
X0002966816Y0001429040D01*
X0002961192Y0001427165D01*
X0002959317Y0001425290D01*
X0002944319Y0001425290D02*
X0002942444Y0001427165D01*
X0002938695Y0001429040D01*
X0002929321Y0001429040D01*
X0002925571Y0001427165D01*
X0002923697Y0001425290D01*
X0002921822Y0001421541D01*
X0002921822Y0001417791D01*
X0002923697Y0001412167D01*
X0002946194Y0001389670D01*
X0002921822Y0001389670D01*
X0001148293Y0001039088D02*
X0001150168Y0001037214D01*
X0001155792Y0001035339D01*
X0001159542Y0001035339D01*
X0001165166Y0001037214D01*
X0001168916Y0001040963D01*
X0001170791Y0001044713D01*
X0001172665Y0001052212D01*
X0001172665Y0001057836D01*
X0001170791Y0001065335D01*
X0001168916Y0001069085D01*
X0001165166Y0001072834D01*
X0001159542Y0001074709D01*
X0001155792Y0001074709D01*
X0001150168Y0001072834D01*
X0001148293Y0001070959D01*
X0001135170Y0001074709D02*
X0001110798Y0001074709D01*
X0001123922Y0001059711D01*
X0001118297Y0001059711D01*
X0001114548Y0001057836D01*
X0001112673Y0001055961D01*
X0001110798Y0001052212D01*
X0001110798Y0001042838D01*
X0001112673Y0001039088D01*
X0001114548Y0001037214D01*
X0001118297Y0001035339D01*
X0001129546Y0001035339D01*
X0001133295Y0001037214D01*
X0001135170Y0001039088D01*
X0000656167Y0001560742D02*
X0000658042Y0001558867D01*
X0000663667Y0001556992D01*
X0000667416Y0001556992D01*
X0000673040Y0001558867D01*
X0000676790Y0001562617D01*
X0000678665Y0001566366D01*
X0000680539Y0001573865D01*
X0000680539Y0001579490D01*
X0000678665Y0001586989D01*
X0000676790Y0001590738D01*
X0000673040Y0001594488D01*
X0000667416Y0001596362D01*
X0000663667Y0001596362D01*
X0000658042Y0001594488D01*
X0000656167Y0001592613D01*
X0000622422Y0001583239D02*
X0000622422Y0001556992D01*
X0000631796Y0001598237D02*
X0000641169Y0001570116D01*
X0000616797Y0001570116D01*
X0003539688Y0001264079D02*
X0003539688Y0001303449D01*
X0003530314Y0001303449D01*
X0003524690Y0001301574D01*
X0003520941Y0001297825D01*
X0003519066Y0001294075D01*
X0003517191Y0001286576D01*
X0003517191Y0001280952D01*
X0003519066Y0001273453D01*
X0003520941Y0001269703D01*
X0003524690Y0001265954D01*
X0003530314Y0001264079D01*
X0003539688Y0001264079D01*
X0003479696Y0001264079D02*
X0003502193Y0001264079D01*
X0003490944Y0001264079D02*
X0003490944Y0001303449D01*
X0003494694Y0001297825D01*
X0003498443Y0001294075D01*
X0003502193Y0001292200D01*
X0000603674Y0001530614D02*
X0000603674Y0001502493D01*
X0000605549Y0001496869D01*
X0000609298Y0001493119D01*
X0000614923Y0001491244D01*
X0000618672Y0001491244D01*
X0000584926Y0001491244D02*
X0000584926Y0001530614D01*
X0000569928Y0001530614D01*
X0000566179Y0001528740D01*
X0000564304Y0001526865D01*
X0000562429Y0001523115D01*
X0000562429Y0001517491D01*
X0000564304Y0001513742D01*
X0000566179Y0001511867D01*
X0000569928Y0001509992D01*
X0000584926Y0001509992D01*
X0000524934Y0001491244D02*
X0000547431Y0001491244D01*
X0000536182Y0001491244D02*
X0000536182Y0001530614D01*
X0000539932Y0001524990D01*
X0000543682Y0001521241D01*
X0000547431Y0001519366D01*
X0002651387Y0001385920D02*
X0002655136Y0001387795D01*
X0002658886Y0001391544D01*
X0002664510Y0001397169D01*
X0002668260Y0001399043D01*
X0002672009Y0001399043D01*
X0002670135Y0001389670D02*
X0002673884Y0001391544D01*
X0002677634Y0001395294D01*
X0002679508Y0001402793D01*
X0002679508Y0001415916D01*
X0002677634Y0001423415D01*
X0002673884Y0001427165D01*
X0002670135Y0001429040D01*
X0002662635Y0001429040D01*
X0002658886Y0001427165D01*
X0002655136Y0001423415D01*
X0002653262Y0001415916D01*
X0002653262Y0001402793D01*
X0002655136Y0001395294D01*
X0002658886Y0001391544D01*
X0002662635Y0001389670D01*
X0002670135Y0001389670D01*
X0002615766Y0001389670D02*
X0002638263Y0001389670D01*
X0002627015Y0001389670D02*
X0002627015Y0001429040D01*
X0002630764Y0001423415D01*
X0002634514Y0001419666D01*
X0002638263Y0001417791D01*
X0003236314Y0000793963D02*
X0003217566Y0000807086D01*
X0003236314Y0000816460D02*
X0003196944Y0000816460D01*
X0003196944Y0000801462D01*
X0003198818Y0000797712D01*
X0003200693Y0000795837D01*
X0003204443Y0000793963D01*
X0003210067Y0000793963D01*
X0003213817Y0000795837D01*
X0003215691Y0000797712D01*
X0003217566Y0000801462D01*
X0003217566Y0000816460D01*
X0003196944Y0000780839D02*
X0003196944Y0000756467D01*
X0003211942Y0000769591D01*
X0003211942Y0000763966D01*
X0003213817Y0000760217D01*
X0003215691Y0000758342D01*
X0003219441Y0000756467D01*
X0003228815Y0000756467D01*
X0003232564Y0000758342D01*
X0003234439Y0000760217D01*
X0003236314Y0000763966D01*
X0003236314Y0000775215D01*
X0003234439Y0000778965D01*
X0003232564Y0000780839D01*
X0000587270Y0000868016D02*
X0000600393Y0000886764D01*
X0000609767Y0000868016D02*
X0000609767Y0000907386D01*
X0000594769Y0000907386D01*
X0000591019Y0000905511D01*
X0000589145Y0000903637D01*
X0000587270Y0000899887D01*
X0000587270Y0000894263D01*
X0000589145Y0000890513D01*
X0000591019Y0000888638D01*
X0000594769Y0000886764D01*
X0000609767Y0000886764D01*
X0000553524Y0000894263D02*
X0000553524Y0000868016D01*
X0000562898Y0000909261D02*
X0000572272Y0000881139D01*
X0000547900Y0000881139D01*
X0000587270Y0000651481D02*
X0000600393Y0000670228D01*
X0000609767Y0000651481D02*
X0000609767Y0000690851D01*
X0000594769Y0000690851D01*
X0000591019Y0000688976D01*
X0000589145Y0000687101D01*
X0000587270Y0000683352D01*
X0000587270Y0000677727D01*
X0000589145Y0000673978D01*
X0000591019Y0000672103D01*
X0000594769Y0000670228D01*
X0000609767Y0000670228D01*
X0000551649Y0000690851D02*
X0000570397Y0000690851D01*
X0000572272Y0000672103D01*
X0000570397Y0000673978D01*
X0000566647Y0000675853D01*
X0000557274Y0000675853D01*
X0000553524Y0000673978D01*
X0000551649Y0000672103D01*
X0000549775Y0000668353D01*
X0000549775Y0000658980D01*
X0000551649Y0000655230D01*
X0000553524Y0000653355D01*
X0000557274Y0000651481D01*
X0000566647Y0000651481D01*
X0000570397Y0000653355D01*
X0000572272Y0000655230D01*
X0001118766Y0000651481D02*
X0001131889Y0000670228D01*
X0001141263Y0000651481D02*
X0001141263Y0000690851D01*
X0001126265Y0000690851D01*
X0001122515Y0000688976D01*
X0001120641Y0000687101D01*
X0001118766Y0000683352D01*
X0001118766Y0000677727D01*
X0001120641Y0000673978D01*
X0001122515Y0000672103D01*
X0001126265Y0000670228D01*
X0001141263Y0000670228D01*
X0001085020Y0000690851D02*
X0001092519Y0000690851D01*
X0001096269Y0000688976D01*
X0001098143Y0000687101D01*
X0001101893Y0000681477D01*
X0001103768Y0000673978D01*
X0001103768Y0000658980D01*
X0001101893Y0000655230D01*
X0001100018Y0000653355D01*
X0001096269Y0000651481D01*
X0001088770Y0000651481D01*
X0001085020Y0000653355D01*
X0001083145Y0000655230D01*
X0001081271Y0000658980D01*
X0001081271Y0000668353D01*
X0001083145Y0000672103D01*
X0001085020Y0000673978D01*
X0001088770Y0000675853D01*
X0001096269Y0000675853D01*
X0001100018Y0000673978D01*
X0001101893Y0000672103D01*
X0001103768Y0000668353D01*
X0001118766Y0000868016D02*
X0001131889Y0000886764D01*
X0001141263Y0000868016D02*
X0001141263Y0000907386D01*
X0001126265Y0000907386D01*
X0001122515Y0000905511D01*
X0001120641Y0000903637D01*
X0001118766Y0000899887D01*
X0001118766Y0000894263D01*
X0001120641Y0000890513D01*
X0001122515Y0000888638D01*
X0001126265Y0000886764D01*
X0001141263Y0000886764D01*
X0001105643Y0000907386D02*
X0001079396Y0000907386D01*
X0001096269Y0000868016D01*
X0003013985Y0001117622D02*
X0003027109Y0001136370D01*
X0003036482Y0001117622D02*
X0003036482Y0001156992D01*
X0003021484Y0001156992D01*
X0003017735Y0001155118D01*
X0003015860Y0001153243D01*
X0003013985Y0001149493D01*
X0003013985Y0001143869D01*
X0003015860Y0001140120D01*
X0003017735Y0001138245D01*
X0003021484Y0001136370D01*
X0003036482Y0001136370D01*
X0003002737Y0001156992D02*
X0002989613Y0001117622D01*
X0002976490Y0001156992D01*
X0002942744Y0001117622D02*
X0002965241Y0001117622D01*
X0002953993Y0001117622D02*
X0002953993Y0001156992D01*
X0002957742Y0001151368D01*
X0002961492Y0001147619D01*
X0002965241Y0001145744D01*
X0002954930Y0000330221D02*
X0002968054Y0000348968D01*
X0002977427Y0000330221D02*
X0002977427Y0000369591D01*
X0002962429Y0000369591D01*
X0002958680Y0000367716D01*
X0002956805Y0000365841D01*
X0002954930Y0000362092D01*
X0002954930Y0000356467D01*
X0002956805Y0000352718D01*
X0002958680Y0000350843D01*
X0002962429Y0000348968D01*
X0002977427Y0000348968D01*
X0002943682Y0000369591D02*
X0002930558Y0000330221D01*
X0002917435Y0000369591D01*
X0002906186Y0000365841D02*
X0002904311Y0000367716D01*
X0002900562Y0000369591D01*
X0002891188Y0000369591D01*
X0002887439Y0000367716D01*
X0002885564Y0000365841D01*
X0002883689Y0000362092D01*
X0002883689Y0000358342D01*
X0002885564Y0000352718D01*
X0002908061Y0000330221D01*
X0002883689Y0000330221D01*
X0003278965Y0001596362D02*
X0003256467Y0001596362D01*
X0003267716Y0001556992D02*
X0003267716Y0001596362D01*
X0003243344Y0001556992D02*
X0003243344Y0001596362D01*
X0003243344Y0001577615D02*
X0003220847Y0001577615D01*
X0003220847Y0001556992D02*
X0003220847Y0001596362D01*
X0003181477Y0001556992D02*
X0003203974Y0001556992D01*
X0003192725Y0001556992D02*
X0003192725Y0001596362D01*
X0003196475Y0001590738D01*
X0003200224Y0001586989D01*
X0003203974Y0001585114D01*
X0001250468Y0001655418D02*
X0001250468Y0001623547D01*
X0001248593Y0001619797D01*
X0001246719Y0001617922D01*
X0001242969Y0001616047D01*
X0001235470Y0001616047D01*
X0001231721Y0001617922D01*
X0001229846Y0001619797D01*
X0001227971Y0001623547D01*
X0001227971Y0001655418D01*
X0001211098Y0001651668D02*
X0001209223Y0001653543D01*
X0001205474Y0001655418D01*
X0001196100Y0001655418D01*
X0001192350Y0001653543D01*
X0001190476Y0001651668D01*
X0001188601Y0001647919D01*
X0001188601Y0001644169D01*
X0001190476Y0001638545D01*
X0001212973Y0001616047D01*
X0001188601Y0001616047D01*
X0002004499Y0001321934D02*
X0002004499Y0001283689D01*
X0002002249Y0001279190D01*
X0002000000Y0001276940D01*
X0001995500Y0001274690D01*
X0001986501Y0001274690D01*
X0001982002Y0001276940D01*
X0001979752Y0001279190D01*
X0001977502Y0001283689D01*
X0001977502Y0001321934D01*
X0001952755Y0001274690D02*
X0001943757Y0001274690D01*
X0001939257Y0001276940D01*
X0001937007Y0001279190D01*
X0001932508Y0001285939D01*
X0001930258Y0001294938D01*
X0001930258Y0001312935D01*
X0001932508Y0001317435D01*
X0001934758Y0001319685D01*
X0001939257Y0001321934D01*
X0001948256Y0001321934D01*
X0001952755Y0001319685D01*
X0001955005Y0001317435D01*
X0001957255Y0001312935D01*
X0001957255Y0001301687D01*
X0001955005Y0001297187D01*
X0001952755Y0001294938D01*
X0001948256Y0001292688D01*
X0001939257Y0001292688D01*
X0001934758Y0001294938D01*
X0001932508Y0001297187D01*
X0001930258Y0001301687D01*
X0001023153Y0001291244D02*
X0001023153Y0001330614D01*
X0001013779Y0001330614D01*
X0001008155Y0001328740D01*
X0001004405Y0001324990D01*
X0001002530Y0001321241D01*
X0001000656Y0001313742D01*
X0001000656Y0001308117D01*
X0001002530Y0001300618D01*
X0001004405Y0001296869D01*
X0001008155Y0001293119D01*
X0001013779Y0001291244D01*
X0001023153Y0001291244D01*
X0000985658Y0001326865D02*
X0000983783Y0001328740D01*
X0000980033Y0001330614D01*
X0000970659Y0001330614D01*
X0000966910Y0001328740D01*
X0000965035Y0001326865D01*
X0000963160Y0001323115D01*
X0000963160Y0001319366D01*
X0000965035Y0001313742D01*
X0000987532Y0001291244D01*
X0000963160Y0001291244D01*
M02*